M48
;DRILL file {KiCad (5.0.2)-1} date 3/5/2019 12:15:58 AM
;FORMAT={-:-/ absolute / inch / decimal}
FMAT,2
INCH,TZ
T1C0.0157
T2C0.0300
T3C0.0354
T4C0.1339
T5C0.1598
%
G90
G05
T1
X1.5Y-3.
X1.5Y-3.3
X1.5Y-4.3
X1.5Y-4.6
X1.5Y-4.9
X1.5Y-5.2
X1.5Y-5.5
X1.66Y-4.36
X1.7Y-4.32
X1.7Y-5.9
X1.7Y-6.3
X1.7Y-6.7
X1.74Y-4.28
X1.8Y-4.6
X1.8Y-4.9
X1.8Y-5.2
X1.8Y-5.5
X1.99Y-4.42
X1.99Y-4.46
X1.99Y-4.5
X1.99Y-4.54
X1.99Y-4.58
X1.99Y-4.62
X2.09Y-4.38
X2.1Y-4.9
X2.1Y-5.9
X2.1Y-6.7
X2.4Y-4.9
X2.46Y-4.34
X2.5Y-5.9
X2.5Y-6.7
X2.7Y-4.9
X2.83Y-4.3
X2.9Y-5.9
X2.9Y-6.3
X2.9Y-6.7
X3.3Y-5.9
X3.3Y-6.7
X3.4Y-2.2
X3.4Y-2.5
X3.4Y-2.8
X3.5Y-2.
X3.54Y-2.4
X3.7Y-2.8
X3.7Y-3.1
X3.7Y-3.7
X3.7Y-4.3
X3.7Y-4.9
X3.7Y-5.2
X3.7Y-5.5
X3.7Y-5.9
X3.7Y-6.7
X3.73Y-3.4
X3.74Y-2.35
X3.8Y-2.
X3.81Y-2.29
X3.83Y-4.62
X3.9Y-2.2
X3.9Y-4.58
X3.97Y-4.54
X4.Y-2.8
X4.Y-4.3
X4.055Y-2.665
X4.06Y-5.25
X4.1Y-2.64
X4.1Y-5.3
X4.1Y-5.5
X4.1Y-5.9
X4.1Y-6.7
X4.14Y-2.62
X4.14Y-5.35
X4.2Y-1.8
X4.27Y-2.66
X4.27Y-2.79
X4.3Y-2.5
X4.3Y-4.3
X4.3Y-4.6
X4.3Y-4.9
X4.41Y-2.66
X4.41Y-2.79
X4.5Y-2.2
X4.5Y-2.5
X4.5Y-3.3
X4.5Y-3.6
X4.5Y-5.5
X4.5Y-5.9
X4.5Y-6.7
X4.55Y-2.66
X4.55Y-2.79
X4.8Y-4.86
X4.82Y-5.53
X4.84Y-4.92
X4.9Y-2.15
X4.9Y-5.2
X4.9Y-5.9
X4.9Y-6.3
X4.9Y-6.7
X4.92Y-5.53
X4.93Y-2.66
X4.93Y-5.16
X4.96Y-5.12
X4.98Y-2.8
X4.98Y-3.11
X4.98Y-3.39
X4.99Y-5.08
X5.02Y-5.04
X5.02Y-5.53
X5.1Y-2.66
X5.1Y-4.6
X5.1Y-4.8
X5.12Y-5.53
X5.18Y-4.5
X5.19Y-2.62
X5.22Y-5.53
X5.24Y-2.66
X5.3Y-5.9
X5.3Y-6.7
X5.35Y-5.3
X5.4Y-4.6
X5.4Y-4.8
X5.45Y-5.25
X5.49Y-2.29
X5.52Y-2.33
X5.55Y-2.37
X5.55Y-4.46
X5.55Y-5.2
X5.58Y-2.41
X5.61Y-2.45
X5.64Y-3.04
X5.65Y-5.16
X5.7Y-1.8
X5.7Y-2.1
X5.7Y-4.6
X5.7Y-4.8
X5.7Y-5.9
X5.7Y-6.3
X5.7Y-6.7
X5.75Y-5.12
X5.85Y-5.08
X5.88Y-2.49
X5.92Y-4.42
X5.93Y-2.24
X5.94Y-2.49
X5.95Y-5.04
X6.Y-4.6
X6.Y-4.8
X6.1Y-4.2
X6.1Y-5.8
X6.1Y-5.9
X6.1Y-6.7
X6.15Y-4.94
X6.2Y-1.8
X6.23Y-2.24
X6.25Y-4.88
X6.3Y-4.
X6.33Y-2.24
X6.4Y-5.1
X6.4Y-5.8
X6.47Y-5.35
X6.6Y-2.1
X6.6Y-5.2
X6.7Y-5.5
X6.7Y-5.8
X6.8Y-2.24
X6.8Y-2.37
X6.9Y-2.6
X6.9Y-3.
X6.9Y-3.3
X6.9Y-3.6
X6.9Y-5.2
X7.Y-4.
X7.Y-4.3
X7.Y-4.6
X7.Y-4.9
X7.Y-5.2
X7.Y-5.5
X7.Y-5.8
T2
X3.74Y-2.12
T3
X4.68Y-1.76
X4.78Y-1.76
X4.88Y-1.76
X4.98Y-1.76
X5.08Y-1.76
X5.18Y-1.76
X5.28Y-1.76
X5.38Y-1.76
X5.48Y-1.76
X2.66Y-2.12
X2.76Y-2.12
X2.86Y-2.12
X2.96Y-2.12
X3.06Y-2.12
X3.16Y-2.12
X3.26Y-2.12
X5.08Y-2.1
X5.18Y-2.1
X5.28Y-2.1
X5.38Y-2.1
X5.48Y-2.1
X2.2051Y-5.6985
X2.3051Y-5.6985
X2.4051Y-5.6985
X2.5051Y-5.6985
X2.6051Y-5.6985
X2.7051Y-5.6985
X2.8051Y-5.6985
X2.9051Y-5.6985
X3.0051Y-5.6985
X3.1051Y-5.6985
X3.2051Y-5.6985
X3.3051Y-5.6985
X4.5665Y-5.6985
X4.6665Y-5.6985
X4.7665Y-5.6985
X4.8665Y-5.6985
X4.9665Y-5.6985
X5.0665Y-5.6985
X5.1665Y-5.6985
X5.2665Y-5.6985
X5.3665Y-5.6985
X5.4665Y-5.6985
X5.5665Y-5.6985
X5.6665Y-5.6985
X5.7665Y-5.6985
X5.8665Y-5.6985
X5.9665Y-5.6985
X6.0665Y-5.6985
X6.1665Y-5.6985
X6.2665Y-5.6985
X6.3665Y-5.6985
X6.4665Y-5.6985
X5.88Y-2.12
X5.98Y-2.12
X6.08Y-2.12
X6.18Y-2.12
X6.28Y-2.12
X6.38Y-2.12
X6.48Y-2.12
X1.78Y-2.12
X1.88Y-2.12
X1.98Y-2.12
X2.08Y-2.12
X2.18Y-2.12
X2.28Y-2.12
X2.38Y-2.12
X4.02Y-2.12
X4.12Y-2.12
X4.22Y-2.12
X4.32Y-2.12
X4.42Y-2.12
X6.75Y-2.12
X6.85Y-2.12
X3.54Y-2.12
X3.64Y-2.12
T4
X2.1043Y-3.9571
X2.4783Y-3.9571
X2.8523Y-3.9571
X3.8759Y-3.9571
X4.3287Y-3.9571
X5.1948Y-3.9571
X5.5688Y-3.9571
X5.9429Y-3.9571
X6.7696Y-4.3115
X6.7696Y-4.7248
T5
X2.1Y-2.985
X2.1Y-3.295
X2.1Y-3.605
X6.03Y-2.62
X6.34Y-2.62
X6.34Y-2.975
X6.34Y-3.285
X6.34Y-3.595
T2
X2.8015Y-2.76G85X2.8415Y-2.76
G05
X2.8015Y-2.894G85X2.8415Y-2.894
G05
X5.7085Y-2.76G85X5.7485Y-2.76
G05
X5.7085Y-2.894G85X5.7485Y-2.894
G05
T0
M30
