M48
;DRILL file {KiCad (5.0.0)} date 04/05/19 17:46:02
;FORMAT={-:-/ absolute / inch / decimal}
FMAT,2
INCH,TZ
T1C0.0157
T2C0.0300
T3C0.0354
T4C0.1339
T5C0.1598
%
G90
G05
M72
T1
X1.5Y-2.
X1.5Y-2.6
X1.5Y-3.
X1.5Y-3.3
X1.5Y-3.6
X1.5Y-4.6
X1.5Y-5.2
X1.7Y-5.9
X1.7Y-6.3
X1.7Y-6.7
X1.8Y-4.3
X1.8Y-4.9
X1.8Y-5.5
X1.9Y-2.6
X1.9Y-3.3
X2.1Y-4.6
X2.1Y-5.2
X2.1Y-5.9
X2.1Y-6.7
X2.2Y-2.
X2.4Y-4.3
X2.4Y-4.9
X2.4Y-5.5
X2.5Y-2.7
X2.5Y-5.9
X2.5Y-6.7
X2.7Y-2.
X2.7Y-4.6
X2.7Y-5.2
X2.75Y-2.41
X2.88Y-2.41
X2.9Y-5.9
X2.9Y-6.3
X2.9Y-6.7
X3.Y-4.3
X3.Y-4.9
X3.Y-5.5
X3.01Y-2.41
X3.1Y-3.1
X3.1Y-3.7
X3.14Y-2.41
X3.27Y-2.41
X3.3Y-5.9
X3.3Y-6.7
X3.35Y-4.6
X3.35Y-5.2
X3.4Y-4.
X3.5Y-2.
X3.5Y-2.4
X3.5Y-2.7
X3.65Y-4.3
X3.65Y-4.9
X3.7Y-2.2
X3.7Y-3.1
X3.7Y-3.7
X3.7Y-5.5
X3.7Y-5.9
X3.7Y-6.7
X3.9Y-2.
X3.9Y-2.4
X3.9Y-2.7
X3.95Y-2.52
X3.97Y-3.4
X4.Y-2.57
X4.06Y-5.25
X4.1Y-5.3
X4.1Y-5.5
X4.1Y-5.9
X4.1Y-6.7
X4.14Y-2.59
X4.14Y-5.35
X4.3Y-4.6
X4.3Y-5.2
X4.4Y-2.
X4.4Y-2.4
X4.4Y-2.8
X4.5Y-5.5
X4.5Y-5.9
X4.5Y-6.7
X4.6Y-2.2
X4.6Y-2.6
X4.6Y-3.4
X4.6Y-4.2
X4.6Y-4.9
X4.8Y-2.
X4.8Y-2.4
X4.8Y-2.8
X4.9Y-3.1
X4.9Y-3.7
X4.9Y-4.2
X4.9Y-4.6
X4.9Y-5.2
X4.9Y-5.5
X4.9Y-5.9
X4.9Y-6.3
X4.9Y-6.7
X5.Y-2.2
X5.2Y-2.
X5.2Y-2.4
X5.2Y-4.41
X5.2Y-4.9
X5.3Y-5.9
X5.3Y-6.7
X5.365Y-5.3
X5.4Y-2.2
X5.4Y-2.6
X5.4Y-3.1
X5.4675Y-5.25
X5.5Y-4.2
X5.5Y-4.6
X5.5Y-5.2
X5.56Y-4.37
X5.6Y-2.
X5.6Y-2.4
X5.7Y-5.9
X5.7Y-6.3
X5.7Y-6.7
X5.8Y-2.2
X5.8Y-4.2
X5.8Y-4.9
X6.Y-2.
X6.Y-2.4
X6.1Y-4.2
X6.1Y-4.6
X6.1Y-5.2
X6.1Y-5.9
X6.1Y-6.3
X6.1Y-6.7
X6.105Y-5.53
X6.2Y-2.2
X6.4Y-2.
X6.4Y-2.4
X6.4Y-3.9
X6.4Y-4.9
X6.47Y-5.35
X6.6Y-2.2
X6.7Y-5.2
X6.7Y-5.5
X6.7Y-5.8
X6.8Y-2.
X6.8Y-2.4
X6.9Y-2.6
X6.9Y-3.
X6.9Y-3.3
X6.9Y-3.6
X7.Y-4.
X7.Y-4.3
X7.Y-4.6
X7.Y-4.9
X7.Y-5.2
X7.Y-5.5
X7.Y-5.8
T2
X4.26Y-2.42
T3
X4.06Y-2.42
X4.16Y-2.42
X2.2051Y-5.6985
X2.3051Y-5.6985
X2.4051Y-5.6985
X2.5051Y-5.6985
X2.6051Y-5.6985
X2.7051Y-5.6985
X2.8051Y-5.6985
X2.9051Y-5.6985
X3.0051Y-5.6985
X3.1051Y-5.6985
X3.2051Y-5.6985
X3.3051Y-5.6985
X4.5665Y-5.6985
X4.6665Y-5.6985
X4.7665Y-5.6985
X4.8665Y-5.6985
X4.9665Y-5.6985
X5.0665Y-5.6985
X5.1665Y-5.6985
X5.2665Y-5.6985
X5.3665Y-5.6985
X5.4665Y-5.6985
X5.5665Y-5.6985
X5.6665Y-5.6985
X5.7665Y-5.6985
X5.8665Y-5.6985
X5.9665Y-5.6985
X6.0665Y-5.6985
X6.1665Y-5.6985
X6.2665Y-5.6985
X6.3665Y-5.6985
X6.4665Y-5.6985
T4
X2.1043Y-3.9571
X2.4783Y-3.9571
X2.8523Y-3.9571
X3.8759Y-3.9571
X4.3287Y-3.9571
X5.1948Y-3.9571
X5.5688Y-3.9571
X5.9429Y-3.9571
X6.7696Y-4.3115
X6.7696Y-4.7248
T5
X6.34Y-2.975
X6.34Y-3.285
X6.34Y-3.595
X6.03Y-2.62
X6.34Y-2.62
X2.1Y-2.985
X2.1Y-3.295
X2.1Y-3.605
T2
X2.7857Y-2.793G85X2.8257Y-2.793
G05
X2.7857Y-2.927G85X2.8257Y-2.927
G05
X5.5943Y-2.793G85X5.6343Y-2.793
G05
X5.5943Y-2.927G85X5.6343Y-2.927
G05
T0
M30
