M48
; DRILL file {KiCad (5.1.5)-2} date 12/14/2019 5:58:34 PM
; FORMAT={-:-/ absolute / inch / decimal}
; #@! TF.CreationDate,2019-12-14T17:58:34-06:00
; #@! TF.GenerationSoftware,Kicad,Pcbnew,(5.1.5)-2
; #@! TF.FileFunction,Plated,1,2,PTH
FMAT,2
INCH
T1C0.0157
T2C0.0300
T3C0.0354
T4C0.1339
T5C0.1598
%
G90
G05
T1
X2.15Y-3.2
X2.15Y-3.3
X2.15Y-3.4
X2.15Y-3.5
X2.15Y-3.6
X2.15Y-3.7
X2.15Y-4.3
X2.15Y-4.4
X2.15Y-4.5
X2.25Y-3.2
X2.25Y-3.3
X2.25Y-3.4
X2.25Y-3.5
X2.25Y-3.6
X2.25Y-3.7
X2.25Y-4.3
X2.25Y-4.4
X2.25Y-4.5
X2.35Y-3.0
X2.35Y-3.1
X2.35Y-3.2
X2.35Y-3.3
X2.35Y-3.4
X2.35Y-3.5
X2.35Y-4.3
X2.35Y-4.4
X2.35Y-4.5
X2.35Y-4.6
X2.35Y-4.7
X2.45Y-3.0
X2.45Y-3.1
X2.45Y-3.2
X2.45Y-3.3
X2.45Y-3.4
X2.45Y-4.3
X2.45Y-4.4
X2.45Y-4.5
X2.45Y-4.6
X2.45Y-4.7
X2.55Y-3.0
X2.55Y-3.1
X2.55Y-3.2
X2.55Y-3.3
X2.55Y-3.4
X2.55Y-4.3
X2.55Y-4.4
X2.55Y-4.5
X2.55Y-4.6
X2.55Y-4.7
X2.65Y-3.3
X2.65Y-3.4
X2.75Y-3.3
X2.75Y-3.4
X2.775Y-3.935
X2.775Y-4.06
X2.775Y-4.185
X2.805Y-4.445
X2.85Y-3.3
X2.85Y-3.4
X2.905Y-4.445
X2.95Y-3.3
X2.95Y-3.4
X3.005Y-4.55
X3.05Y-3.0
X3.05Y-3.1
X3.05Y-3.2
X3.05Y-3.3
X3.05Y-3.4
X3.15Y-3.0
X3.15Y-3.1
X3.15Y-3.2
X3.15Y-3.3
X3.15Y-3.4
X4.0Y-4.36
X4.0Y-4.56
X4.3Y-3.8
X4.3Y-3.9
X4.3Y-4.0
X4.3Y-4.1
X4.4Y-3.0
X4.4Y-3.1
X4.4Y-3.2
X4.4Y-3.3
X4.4Y-3.4
X4.4Y-3.8
X4.4Y-3.9
X4.4Y-4.0
X4.4Y-4.1
X4.5Y-3.0
X4.5Y-3.1
X4.5Y-3.2
X4.5Y-3.3
X4.5Y-3.4
X4.5Y-3.8
X4.5Y-3.9
X4.5Y-4.0
X4.5Y-4.1
X4.6Y-3.0
X4.6Y-3.4
X4.6Y-3.8
X4.6Y-3.9
X4.6Y-4.0
X4.6Y-4.1
X4.7Y-3.0
X4.7Y-3.4
X4.7Y-3.8
X4.7Y-3.9
X4.7Y-4.0
X4.7Y-4.1
X4.8Y-3.0
X4.8Y-3.4
X4.8Y-3.8
X4.8Y-3.9
X4.8Y-4.0
X4.8Y-4.1
X4.815Y-4.765
X4.9Y-3.0
X4.9Y-3.1
X4.9Y-3.2
X4.9Y-3.3
X4.9Y-3.4
X4.9Y-3.8
X4.9Y-3.9
X4.9Y-4.0
X4.9Y-4.1
X5.0Y-3.2
X5.0Y-3.3
X5.0Y-3.4
X5.0Y-3.8
X5.0Y-3.9
X5.0Y-4.0
X5.0Y-4.1
X5.1Y-3.7
X5.1Y-3.8
X5.1Y-3.9
X5.1Y-4.0
X5.1Y-4.1
X5.1Y-4.2
X5.2Y-3.6
X5.2Y-3.7
X5.2Y-3.8
X5.2Y-3.9
X5.2Y-4.0
X5.2Y-4.1
X5.2Y-4.2
X5.27Y-4.725
X5.3Y-3.8
X5.3Y-3.9
X5.3Y-4.0
X5.3Y-4.1
X5.3Y-4.2
X5.32Y-4.66
X5.37Y-4.725
X5.4Y-3.0
X5.4Y-3.1
X5.4Y-3.2
X5.4Y-3.3
X5.4Y-3.4
X5.4Y-3.8
X5.4Y-3.9
X5.4Y-4.0
X5.4Y-4.1
X5.4Y-4.2
X5.47Y-4.77
X5.5Y-3.8
X5.5Y-3.9
X5.5Y-4.0
X5.5Y-4.1
X5.5Y-4.2
X5.57Y-4.32
X5.6Y-3.8
X5.6Y-3.9
X5.6Y-4.0
X5.6Y-4.1
X5.6Y-4.2
X5.675Y-4.335
X5.7Y-3.7
X5.7Y-3.8
X5.7Y-3.9
X5.7Y-4.0
X5.7Y-4.1
X5.7Y-4.2
X5.74Y-4.775
X5.785Y-4.335
X5.8Y-3.2
X5.8Y-3.3
X5.8Y-3.4
X5.8Y-3.5
X5.8Y-3.6
X5.8Y-3.7
X5.8Y-3.8
X5.8Y-3.9
X5.8Y-4.0
X5.8Y-4.1
X5.8Y-4.2
X5.9Y-3.0
X5.9Y-3.1
X5.9Y-3.2
X5.9Y-3.3
X5.9Y-3.4
X5.9Y-3.5
X5.9Y-3.6
X6.0Y-3.0
X6.0Y-3.1
X6.0Y-3.2
X6.0Y-3.3
X6.0Y-3.4
X6.0Y-3.5
X6.0Y-3.6
X6.0Y-3.975
X6.1Y-3.0
X6.1Y-3.1
X6.1Y-3.2
X6.1Y-3.3
X6.1Y-3.4
X6.1Y-3.5
X6.1Y-3.6
X6.2Y-3.0
X6.2Y-3.1
X6.2Y-3.2
X6.2Y-3.3
X6.2Y-3.4
X6.2Y-3.5
X6.2Y-3.6
X6.3Y-3.2
X6.3Y-3.3
X6.3Y-3.4
X6.3Y-3.5
X6.3Y-3.6
X6.4Y-3.5
X6.4Y-3.6
X6.675Y-3.2
X7.05Y-3.205
X7.525Y-3.0
X7.525Y-3.1
X7.525Y-3.2
X7.625Y-3.0
X7.625Y-3.1
X7.625Y-3.2
X7.725Y-3.0
X7.725Y-3.1
X7.725Y-3.2
X7.825Y-3.0
X7.825Y-3.1
X7.825Y-3.2
X7.925Y-3.0
X7.925Y-3.1
X7.925Y-3.2
X8.025Y-4.1
X8.025Y-4.2
X8.125Y-4.1
X8.125Y-4.2
X8.225Y-4.1
X8.225Y-4.2
X8.275Y-4.4
X8.325Y-3.3
X8.325Y-3.4
X8.325Y-3.5
X8.325Y-3.6
X8.325Y-3.7
X8.325Y-3.8
X8.325Y-3.9
X8.325Y-4.0
X8.325Y-4.1
X8.325Y-4.2
X8.425Y-3.0
X8.425Y-3.1
X8.425Y-3.2
X8.425Y-3.3
X8.425Y-3.4
X8.425Y-3.5
X8.425Y-3.6
X8.425Y-3.7
X8.425Y-3.8
X8.425Y-3.9
X8.425Y-4.0
X8.425Y-4.1
X8.525Y-3.0
X8.525Y-3.1
X8.525Y-3.2
X8.525Y-3.3
X8.525Y-3.4
X8.525Y-3.5
X8.525Y-3.6
X8.525Y-3.7
X8.525Y-3.8
X8.525Y-3.9
X8.525Y-4.0
X8.625Y-3.0
X8.625Y-3.1
X8.625Y-3.2
X8.625Y-3.3
X8.625Y-3.4
X8.625Y-3.5
X8.625Y-3.6
X8.625Y-3.7
X8.725Y-3.0
X8.725Y-3.1
X8.725Y-3.2
X8.725Y-3.3
X8.725Y-3.4
X8.725Y-3.5
X8.725Y-3.6
X8.725Y-3.7
X8.825Y-3.0
X8.825Y-3.1
X8.825Y-3.2
X8.825Y-3.3
X8.825Y-3.4
X8.825Y-3.5
X8.825Y-3.6
X8.825Y-3.7
X8.925Y-3.0
X8.925Y-3.1
X8.925Y-3.2
X8.925Y-3.3
X8.925Y-3.4
X8.925Y-3.5
X8.925Y-3.6
X8.925Y-3.7
X9.025Y-3.0
X9.025Y-3.1
X9.025Y-3.2
X9.025Y-3.3
X9.025Y-3.4
X9.025Y-3.5
X9.025Y-3.6
X9.025Y-3.7
X9.125Y-3.2
X9.125Y-3.3
X9.125Y-3.4
X9.125Y-3.5
X9.125Y-3.6
X9.125Y-3.7
X9.225Y-3.2
X9.225Y-3.3
X9.225Y-3.4
X9.225Y-3.5
X9.225Y-3.6
X9.225Y-3.7
T2
X5.22Y-4.32
T3
X5.32Y-4.32
X5.42Y-4.32
X2.705Y-4.32
X2.805Y-4.32
X2.905Y-4.32
X3.005Y-4.32
X3.105Y-4.32
X8.237Y-4.32
X8.337Y-4.32
X8.437Y-4.32
X8.537Y-4.32
X8.637Y-4.32
T4
X3.3993Y-3.0471
X3.7733Y-3.0471
X4.1473Y-3.0471
X5.1709Y-3.0471
X5.6237Y-3.0471
X6.4898Y-3.0471
X6.8638Y-3.0471
X7.2379Y-3.0471
X8.0646Y-3.4015
X8.0646Y-3.8148
T5
X6.07Y-3.82
X6.07Y-4.13
X3.485Y-4.125
X3.795Y-4.125
X4.105Y-4.125
X7.235Y-4.125
X7.545Y-4.125
X7.855Y-4.125
T2
G00X2.4665Y-3.553
M15
G01X2.4265Y-3.553
M16
G05
G00X2.4665Y-3.687
M15
G01X2.4265Y-3.687
M16
G05
G00X5.3735Y-3.553
M15
G01X5.3335Y-3.553
M16
G05
G00X5.3735Y-3.687
M15
G01X5.3335Y-3.687
M16
G05
T0
M30
