G04 #@! TF.GenerationSoftware,KiCad,Pcbnew,(5.0.2)-1*
G04 #@! TF.CreationDate,2019-03-05T00:15:57-06:00*
G04 #@! TF.ProjectId,ODriveInterfacingBoard,4f447269-7665-4496-9e74-657266616369,rev?*
G04 #@! TF.SameCoordinates,Original*
G04 #@! TF.FileFunction,Copper,L2,Bot*
G04 #@! TF.FilePolarity,Positive*
%FSLAX46Y46*%
G04 Gerber Fmt 4.6, Leading zero omitted, Abs format (unit mm)*
G04 Created by KiCad (PCBNEW (5.0.2)-1) date 3/5/2019 12:15:57 AM*
%MOMM*%
%LPD*%
G01*
G04 APERTURE LIST*
G04 #@! TA.AperFunction,ComponentPad*
%ADD10C,7.400000*%
G04 #@! TD*
G04 #@! TA.AperFunction,ComponentPad*
%ADD11C,1.700000*%
G04 #@! TD*
G04 #@! TA.AperFunction,ComponentPad*
%ADD12O,2.540000X1.524000*%
G04 #@! TD*
G04 #@! TA.AperFunction,ComponentPad*
%ADD13C,1.524000*%
G04 #@! TD*
G04 #@! TA.AperFunction,ComponentPad*
%ADD14C,5.080000*%
G04 #@! TD*
G04 #@! TA.AperFunction,Conductor*
%ADD15C,0.100000*%
G04 #@! TD*
G04 #@! TA.AperFunction,SMDPad,CuDef*
%ADD16C,0.950000*%
G04 #@! TD*
G04 #@! TA.AperFunction,ViaPad*
%ADD17C,0.800000*%
G04 #@! TD*
G04 #@! TA.AperFunction,Conductor*
%ADD18C,2.540000*%
G04 #@! TD*
G04 #@! TA.AperFunction,Conductor*
%ADD19C,0.381000*%
G04 #@! TD*
G04 #@! TA.AperFunction,Conductor*
%ADD20C,7.400000*%
G04 #@! TD*
G04 #@! TA.AperFunction,Conductor*
%ADD21C,0.254000*%
G04 #@! TD*
G04 APERTURE END LIST*
D10*
G04 #@! TO.P,U1,DC_V-*
G04 #@! TO.N,GND*
X171948717Y-120011151D03*
G04 #@! TO.P,U1,DC_V+*
G04 #@! TO.N,/PV+*
X171948717Y-109511151D03*
G04 #@! TO.P,U1,M1_C*
G04 #@! TO.N,M1_C*
X150948717Y-100511151D03*
G04 #@! TO.P,U1,M1_B*
G04 #@! TO.N,M1_B*
X141448717Y-100511151D03*
G04 #@! TO.P,U1,M1_A*
G04 #@! TO.N,M1_A*
X131948717Y-100511151D03*
G04 #@! TO.P,U1,AUX_V-*
G04 #@! TO.N,Net-(50W2RJ1-Pad2)*
X109948717Y-100511151D03*
G04 #@! TO.P,U1,AUX_V+*
G04 #@! TO.N,Net-(50W2RJ1-Pad1)*
X98448717Y-100511151D03*
G04 #@! TO.P,U1,M0_C*
G04 #@! TO.N,M0_C*
X72448717Y-100511151D03*
G04 #@! TO.P,U1,M0_B*
G04 #@! TO.N,M0_B*
X62948717Y-100511151D03*
G04 #@! TO.P,U1,M0_A*
G04 #@! TO.N,M0_A*
X53448717Y-100511151D03*
D11*
G04 #@! TO.P,U1,3V3*
G04 #@! TO.N,+3V3*
X164248717Y-144741151D03*
G04 #@! TO.P,U1,GND0*
G04 #@! TO.N,GND*
X161708717Y-144741151D03*
G04 #@! TO.P,U1,CAN_H*
G04 #@! TO.N,CAN_H*
X159168717Y-144741151D03*
G04 #@! TO.P,U1,CAN_L*
G04 #@! TO.N,CAN_L*
X156628717Y-144741151D03*
G04 #@! TO.P,U1,GND1*
G04 #@! TO.N,GND*
X154088717Y-144741151D03*
G04 #@! TO.P,U1,AVCC*
G04 #@! TO.N,/AVCC*
X151548717Y-144741151D03*
G04 #@! TO.P,U1,AGND*
G04 #@! TO.N,/AGND*
X149008717Y-144741151D03*
G04 #@! TO.P,U1,SCK*
G04 #@! TO.N,SCK*
X146468717Y-144741151D03*
G04 #@! TO.P,U1,MISO*
G04 #@! TO.N,MISO*
X143928717Y-144741151D03*
G04 #@! TO.P,U1,MOSI*
G04 #@! TO.N,MOSI*
X141388717Y-144741151D03*
G04 #@! TO.P,U1,GPIO1*
G04 #@! TO.N,Tx*
X138848717Y-144741151D03*
G04 #@! TO.P,U1,GPIO2*
G04 #@! TO.N,Rx*
X136308717Y-144741151D03*
G04 #@! TO.P,U1,GPIO3*
G04 #@! TO.N,GPIO_3*
X133768717Y-144741151D03*
G04 #@! TO.P,U1,GPIO4*
G04 #@! TO.N,GPIO_4*
X131228717Y-144741151D03*
G04 #@! TO.P,U1,GPIO5*
G04 #@! TO.N,GPIO_5*
X128688717Y-144741151D03*
G04 #@! TO.P,U1,GPIO6*
G04 #@! TO.N,GPIO_6*
X126148717Y-144741151D03*
G04 #@! TO.P,U1,GPIO7*
G04 #@! TO.N,GPIO_7*
X123608717Y-144741151D03*
G04 #@! TO.P,U1,GPIO8*
G04 #@! TO.N,GPIO_8*
X121068717Y-144741151D03*
G04 #@! TO.P,U1,GND2*
G04 #@! TO.N,GND*
X118528717Y-144741151D03*
G04 #@! TO.P,U1,GND3*
X115988717Y-144741151D03*
G04 #@! TO.P,U1,E0_GND*
G04 #@! TO.N,Net-(U1-PadE0_GND)*
X56008749Y-144741151D03*
G04 #@! TO.P,U1,E0_Z*
G04 #@! TO.N,/E0_Z*
X58548749Y-144741151D03*
G04 #@! TO.P,U1,E0_B*
G04 #@! TO.N,/E0_B*
X61088749Y-144741151D03*
G04 #@! TO.P,U1,E0_A*
G04 #@! TO.N,/E0_A*
X63628749Y-144741151D03*
G04 #@! TO.P,U1,E0_5V*
G04 #@! TO.N,/E0_5V*
X66168749Y-144741151D03*
G04 #@! TO.P,U1,E0_3V3*
G04 #@! TO.N,/E0_3V3*
X68708749Y-144741151D03*
G04 #@! TO.P,U1,E1_GND*
G04 #@! TO.N,/E1_GND*
X71248749Y-144741151D03*
G04 #@! TO.P,U1,E1_Z*
G04 #@! TO.N,/E1_Z*
X73788749Y-144741151D03*
G04 #@! TO.P,U1,E1_B*
G04 #@! TO.N,/E1_B*
X76328749Y-144741151D03*
G04 #@! TO.P,U1,E1_A*
G04 #@! TO.N,/E1_A*
X78868749Y-144741151D03*
G04 #@! TO.P,U1,E1_5V*
G04 #@! TO.N,/E1_5V*
X81408749Y-144741151D03*
G04 #@! TO.P,U1,E1_3V3*
G04 #@! TO.N,/E1_3V3*
X83948749Y-144741151D03*
G04 #@! TD*
D12*
G04 #@! TO.P,50W2RJ1,1*
G04 #@! TO.N,Net-(50W2RJ1-Pad1)*
X71666100Y-70104000D03*
X71666100Y-73507600D03*
G04 #@! TO.P,50W2RJ1,2*
G04 #@! TO.N,Net-(50W2RJ1-Pad2)*
X145503900Y-70104000D03*
X145503900Y-73507600D03*
G04 #@! TD*
D13*
G04 #@! TO.P,Conn4,1*
G04 #@! TO.N,Net-(Conn4-Pad1)*
X67564000Y-53848000D03*
G04 #@! TO.P,Conn4,2*
G04 #@! TO.N,/E1_GND*
X70104000Y-53848000D03*
G04 #@! TO.P,Conn4,3*
G04 #@! TO.N,/E1_Z*
X72644000Y-53848000D03*
G04 #@! TO.P,Conn4,4*
G04 #@! TO.N,/E1_B*
X75184000Y-53848000D03*
G04 #@! TO.P,Conn4,5*
G04 #@! TO.N,/E1_A*
X77724000Y-53848000D03*
G04 #@! TO.P,Conn4,6*
G04 #@! TO.N,/E1_5V*
X80264000Y-53848000D03*
G04 #@! TO.P,Conn4,7*
G04 #@! TO.N,/E1_3V3*
X82804000Y-53848000D03*
G04 #@! TD*
G04 #@! TO.P,Conn1,1*
G04 #@! TO.N,/AGND*
X171450000Y-53848000D03*
G04 #@! TO.P,Conn1,2*
G04 #@! TO.N,/AVCC*
X173990000Y-53848000D03*
G04 #@! TD*
G04 #@! TO.P,Conn5,7*
G04 #@! TO.N,/E0_3V3*
X60452000Y-53848000D03*
G04 #@! TO.P,Conn5,6*
G04 #@! TO.N,/E0_5V*
X57912000Y-53848000D03*
G04 #@! TO.P,Conn5,5*
G04 #@! TO.N,/E0_A*
X55372000Y-53848000D03*
G04 #@! TO.P,Conn5,4*
G04 #@! TO.N,/E0_B*
X52832000Y-53848000D03*
G04 #@! TO.P,Conn5,3*
G04 #@! TO.N,/E0_Z*
X50292000Y-53848000D03*
G04 #@! TO.P,Conn5,2*
G04 #@! TO.N,/E1_GND*
X47752000Y-53848000D03*
G04 #@! TO.P,Conn5,1*
G04 #@! TO.N,Net-(Conn5-Pad1)*
X45212000Y-53848000D03*
G04 #@! TD*
G04 #@! TO.P,Conn6,1*
G04 #@! TO.N,+3V3*
X149352000Y-53848000D03*
G04 #@! TO.P,Conn6,2*
G04 #@! TO.N,+5V*
X151892000Y-53848000D03*
G04 #@! TO.P,Conn6,3*
G04 #@! TO.N,GND*
X154432000Y-53848000D03*
G04 #@! TO.P,Conn6,4*
G04 #@! TO.N,MOSI*
X156972000Y-53848000D03*
G04 #@! TO.P,Conn6,5*
G04 #@! TO.N,MISO*
X159512000Y-53848000D03*
G04 #@! TO.P,Conn6,6*
G04 #@! TO.N,SCK*
X162052000Y-53848000D03*
G04 #@! TO.P,Conn6,7*
G04 #@! TO.N,Net-(Conn6-Pad7)*
X164592000Y-53848000D03*
G04 #@! TD*
D14*
G04 #@! TO.P,Conn7,3*
G04 #@! TO.N,M0_A*
X53340000Y-91567000D03*
G04 #@! TO.P,Conn7,2*
G04 #@! TO.N,M0_B*
X53340000Y-83693000D03*
G04 #@! TO.P,Conn7,1*
G04 #@! TO.N,M0_C*
X53340000Y-75819000D03*
G04 #@! TD*
G04 #@! TO.P,Conn8,1*
G04 #@! TO.N,M1_C*
X161036000Y-91313000D03*
G04 #@! TO.P,Conn8,2*
G04 #@! TO.N,M1_B*
X161036000Y-83439000D03*
G04 #@! TO.P,Conn8,3*
G04 #@! TO.N,M1_A*
X161036000Y-75565000D03*
G04 #@! TD*
G04 #@! TO.P,Conn3,1*
G04 #@! TO.N,/PV+*
X161036000Y-66548000D03*
G04 #@! TO.P,Conn3,4*
G04 #@! TO.N,GND*
X153162000Y-66548000D03*
G04 #@! TD*
D15*
G04 #@! TO.N,Net-(Conn9-Pad1)*
G04 #@! TO.C,R16*
G36*
X90176779Y-55638144D02*
X90199834Y-55641563D01*
X90222443Y-55647227D01*
X90244387Y-55655079D01*
X90265457Y-55665044D01*
X90285448Y-55677026D01*
X90304168Y-55690910D01*
X90321438Y-55706562D01*
X90337090Y-55723832D01*
X90350974Y-55742552D01*
X90362956Y-55762543D01*
X90372921Y-55783613D01*
X90380773Y-55805557D01*
X90386437Y-55828166D01*
X90389856Y-55851221D01*
X90391000Y-55874500D01*
X90391000Y-56449500D01*
X90389856Y-56472779D01*
X90386437Y-56495834D01*
X90380773Y-56518443D01*
X90372921Y-56540387D01*
X90362956Y-56561457D01*
X90350974Y-56581448D01*
X90337090Y-56600168D01*
X90321438Y-56617438D01*
X90304168Y-56633090D01*
X90285448Y-56646974D01*
X90265457Y-56658956D01*
X90244387Y-56668921D01*
X90222443Y-56676773D01*
X90199834Y-56682437D01*
X90176779Y-56685856D01*
X90153500Y-56687000D01*
X89678500Y-56687000D01*
X89655221Y-56685856D01*
X89632166Y-56682437D01*
X89609557Y-56676773D01*
X89587613Y-56668921D01*
X89566543Y-56658956D01*
X89546552Y-56646974D01*
X89527832Y-56633090D01*
X89510562Y-56617438D01*
X89494910Y-56600168D01*
X89481026Y-56581448D01*
X89469044Y-56561457D01*
X89459079Y-56540387D01*
X89451227Y-56518443D01*
X89445563Y-56495834D01*
X89442144Y-56472779D01*
X89441000Y-56449500D01*
X89441000Y-55874500D01*
X89442144Y-55851221D01*
X89445563Y-55828166D01*
X89451227Y-55805557D01*
X89459079Y-55783613D01*
X89469044Y-55762543D01*
X89481026Y-55742552D01*
X89494910Y-55723832D01*
X89510562Y-55706562D01*
X89527832Y-55690910D01*
X89546552Y-55677026D01*
X89566543Y-55665044D01*
X89587613Y-55655079D01*
X89609557Y-55647227D01*
X89632166Y-55641563D01*
X89655221Y-55638144D01*
X89678500Y-55637000D01*
X90153500Y-55637000D01*
X90176779Y-55638144D01*
X90176779Y-55638144D01*
G37*
D16*
G04 #@! TD*
G04 #@! TO.P,R16,1*
G04 #@! TO.N,Net-(Conn9-Pad1)*
X89916000Y-56162000D03*
D15*
G04 #@! TO.N,Tx*
G04 #@! TO.C,R16*
G36*
X90176779Y-57388144D02*
X90199834Y-57391563D01*
X90222443Y-57397227D01*
X90244387Y-57405079D01*
X90265457Y-57415044D01*
X90285448Y-57427026D01*
X90304168Y-57440910D01*
X90321438Y-57456562D01*
X90337090Y-57473832D01*
X90350974Y-57492552D01*
X90362956Y-57512543D01*
X90372921Y-57533613D01*
X90380773Y-57555557D01*
X90386437Y-57578166D01*
X90389856Y-57601221D01*
X90391000Y-57624500D01*
X90391000Y-58199500D01*
X90389856Y-58222779D01*
X90386437Y-58245834D01*
X90380773Y-58268443D01*
X90372921Y-58290387D01*
X90362956Y-58311457D01*
X90350974Y-58331448D01*
X90337090Y-58350168D01*
X90321438Y-58367438D01*
X90304168Y-58383090D01*
X90285448Y-58396974D01*
X90265457Y-58408956D01*
X90244387Y-58418921D01*
X90222443Y-58426773D01*
X90199834Y-58432437D01*
X90176779Y-58435856D01*
X90153500Y-58437000D01*
X89678500Y-58437000D01*
X89655221Y-58435856D01*
X89632166Y-58432437D01*
X89609557Y-58426773D01*
X89587613Y-58418921D01*
X89566543Y-58408956D01*
X89546552Y-58396974D01*
X89527832Y-58383090D01*
X89510562Y-58367438D01*
X89494910Y-58350168D01*
X89481026Y-58331448D01*
X89469044Y-58311457D01*
X89459079Y-58290387D01*
X89451227Y-58268443D01*
X89445563Y-58245834D01*
X89442144Y-58222779D01*
X89441000Y-58199500D01*
X89441000Y-57624500D01*
X89442144Y-57601221D01*
X89445563Y-57578166D01*
X89451227Y-57555557D01*
X89459079Y-57533613D01*
X89469044Y-57512543D01*
X89481026Y-57492552D01*
X89494910Y-57473832D01*
X89510562Y-57456562D01*
X89527832Y-57440910D01*
X89546552Y-57427026D01*
X89566543Y-57415044D01*
X89587613Y-57405079D01*
X89609557Y-57397227D01*
X89632166Y-57391563D01*
X89655221Y-57388144D01*
X89678500Y-57387000D01*
X90153500Y-57387000D01*
X90176779Y-57388144D01*
X90176779Y-57388144D01*
G37*
D16*
G04 #@! TD*
G04 #@! TO.P,R16,2*
G04 #@! TO.N,Tx*
X89916000Y-57912000D03*
D15*
G04 #@! TO.N,Rx*
G04 #@! TO.C,R17*
G36*
X95256779Y-57388144D02*
X95279834Y-57391563D01*
X95302443Y-57397227D01*
X95324387Y-57405079D01*
X95345457Y-57415044D01*
X95365448Y-57427026D01*
X95384168Y-57440910D01*
X95401438Y-57456562D01*
X95417090Y-57473832D01*
X95430974Y-57492552D01*
X95442956Y-57512543D01*
X95452921Y-57533613D01*
X95460773Y-57555557D01*
X95466437Y-57578166D01*
X95469856Y-57601221D01*
X95471000Y-57624500D01*
X95471000Y-58199500D01*
X95469856Y-58222779D01*
X95466437Y-58245834D01*
X95460773Y-58268443D01*
X95452921Y-58290387D01*
X95442956Y-58311457D01*
X95430974Y-58331448D01*
X95417090Y-58350168D01*
X95401438Y-58367438D01*
X95384168Y-58383090D01*
X95365448Y-58396974D01*
X95345457Y-58408956D01*
X95324387Y-58418921D01*
X95302443Y-58426773D01*
X95279834Y-58432437D01*
X95256779Y-58435856D01*
X95233500Y-58437000D01*
X94758500Y-58437000D01*
X94735221Y-58435856D01*
X94712166Y-58432437D01*
X94689557Y-58426773D01*
X94667613Y-58418921D01*
X94646543Y-58408956D01*
X94626552Y-58396974D01*
X94607832Y-58383090D01*
X94590562Y-58367438D01*
X94574910Y-58350168D01*
X94561026Y-58331448D01*
X94549044Y-58311457D01*
X94539079Y-58290387D01*
X94531227Y-58268443D01*
X94525563Y-58245834D01*
X94522144Y-58222779D01*
X94521000Y-58199500D01*
X94521000Y-57624500D01*
X94522144Y-57601221D01*
X94525563Y-57578166D01*
X94531227Y-57555557D01*
X94539079Y-57533613D01*
X94549044Y-57512543D01*
X94561026Y-57492552D01*
X94574910Y-57473832D01*
X94590562Y-57456562D01*
X94607832Y-57440910D01*
X94626552Y-57427026D01*
X94646543Y-57415044D01*
X94667613Y-57405079D01*
X94689557Y-57397227D01*
X94712166Y-57391563D01*
X94735221Y-57388144D01*
X94758500Y-57387000D01*
X95233500Y-57387000D01*
X95256779Y-57388144D01*
X95256779Y-57388144D01*
G37*
D16*
G04 #@! TD*
G04 #@! TO.P,R17,2*
G04 #@! TO.N,Rx*
X94996000Y-57912000D03*
D15*
G04 #@! TO.N,Net-(Conn9-Pad3)*
G04 #@! TO.C,R17*
G36*
X95256779Y-55638144D02*
X95279834Y-55641563D01*
X95302443Y-55647227D01*
X95324387Y-55655079D01*
X95345457Y-55665044D01*
X95365448Y-55677026D01*
X95384168Y-55690910D01*
X95401438Y-55706562D01*
X95417090Y-55723832D01*
X95430974Y-55742552D01*
X95442956Y-55762543D01*
X95452921Y-55783613D01*
X95460773Y-55805557D01*
X95466437Y-55828166D01*
X95469856Y-55851221D01*
X95471000Y-55874500D01*
X95471000Y-56449500D01*
X95469856Y-56472779D01*
X95466437Y-56495834D01*
X95460773Y-56518443D01*
X95452921Y-56540387D01*
X95442956Y-56561457D01*
X95430974Y-56581448D01*
X95417090Y-56600168D01*
X95401438Y-56617438D01*
X95384168Y-56633090D01*
X95365448Y-56646974D01*
X95345457Y-56658956D01*
X95324387Y-56668921D01*
X95302443Y-56676773D01*
X95279834Y-56682437D01*
X95256779Y-56685856D01*
X95233500Y-56687000D01*
X94758500Y-56687000D01*
X94735221Y-56685856D01*
X94712166Y-56682437D01*
X94689557Y-56676773D01*
X94667613Y-56668921D01*
X94646543Y-56658956D01*
X94626552Y-56646974D01*
X94607832Y-56633090D01*
X94590562Y-56617438D01*
X94574910Y-56600168D01*
X94561026Y-56581448D01*
X94549044Y-56561457D01*
X94539079Y-56540387D01*
X94531227Y-56518443D01*
X94525563Y-56495834D01*
X94522144Y-56472779D01*
X94521000Y-56449500D01*
X94521000Y-55874500D01*
X94522144Y-55851221D01*
X94525563Y-55828166D01*
X94531227Y-55805557D01*
X94539079Y-55783613D01*
X94549044Y-55762543D01*
X94561026Y-55742552D01*
X94574910Y-55723832D01*
X94590562Y-55706562D01*
X94607832Y-55690910D01*
X94626552Y-55677026D01*
X94646543Y-55665044D01*
X94667613Y-55655079D01*
X94689557Y-55647227D01*
X94712166Y-55641563D01*
X94735221Y-55638144D01*
X94758500Y-55637000D01*
X95233500Y-55637000D01*
X95256779Y-55638144D01*
X95256779Y-55638144D01*
G37*
D16*
G04 #@! TD*
G04 #@! TO.P,R17,1*
G04 #@! TO.N,Net-(Conn9-Pad3)*
X94996000Y-56162000D03*
D13*
G04 #@! TO.P,Conn2,1*
G04 #@! TO.N,+3V3*
X129032000Y-53340000D03*
G04 #@! TO.P,Conn2,2*
G04 #@! TO.N,+5V*
X131572000Y-53340000D03*
G04 #@! TO.P,Conn2,3*
G04 #@! TO.N,CAN_H*
X134112000Y-53340000D03*
G04 #@! TO.P,Conn2,4*
G04 #@! TO.N,CAN_L*
X136652000Y-53340000D03*
G04 #@! TO.P,Conn2,5*
G04 #@! TO.N,GND*
X139192000Y-53340000D03*
G04 #@! TD*
G04 #@! TO.P,Conn13,1*
G04 #@! TO.N,GPIO_8*
X118872000Y-44704000D03*
G04 #@! TO.P,Conn13,2*
G04 #@! TO.N,GPIO_7*
X121412000Y-44704000D03*
G04 #@! TO.P,Conn13,3*
G04 #@! TO.N,GPIO_6*
X123952000Y-44704000D03*
G04 #@! TO.P,Conn13,4*
G04 #@! TO.N,GPIO_5*
X126492000Y-44704000D03*
G04 #@! TO.P,Conn13,5*
G04 #@! TO.N,GPIO_4*
X129032000Y-44704000D03*
G04 #@! TO.P,Conn13,6*
G04 #@! TO.N,GPIO_3*
X131572000Y-44704000D03*
G04 #@! TO.P,Conn13,7*
G04 #@! TO.N,+3V3*
X134112000Y-44704000D03*
G04 #@! TO.P,Conn13,8*
G04 #@! TO.N,+5V*
X136652000Y-44704000D03*
G04 #@! TO.P,Conn13,9*
G04 #@! TO.N,GND*
X139192000Y-44704000D03*
G04 #@! TD*
G04 #@! TO.P,Conn9,1*
G04 #@! TO.N,Net-(Conn9-Pad1)*
X89916000Y-53848000D03*
G04 #@! TO.P,Conn9,2*
G04 #@! TO.N,GND*
X92456000Y-53848000D03*
G04 #@! TO.P,Conn9,3*
G04 #@! TO.N,Net-(Conn9-Pad3)*
X94996000Y-53848000D03*
G04 #@! TD*
G04 #@! TO.P,Conn10,1*
G04 #@! TO.N,/A*
X102108000Y-53848000D03*
G04 #@! TO.P,Conn10,2*
G04 #@! TO.N,/B*
X104648000Y-53848000D03*
G04 #@! TO.P,Conn10,3*
G04 #@! TO.N,GND*
X107188000Y-53848000D03*
G04 #@! TO.P,Conn10,4*
G04 #@! TO.N,/Z*
X109728000Y-53848000D03*
G04 #@! TO.P,Conn10,5*
G04 #@! TO.N,/Y*
X112268000Y-53848000D03*
G04 #@! TD*
D17*
G04 #@! TO.N,*
X129540000Y-67564000D03*
X125222000Y-67564000D03*
X53340000Y-124460000D03*
X109220000Y-109220000D03*
G04 #@! TO.N,+5V*
X150876000Y-63246000D03*
X133096000Y-67564000D03*
G04 #@! TO.N,+3V3*
X131826000Y-66548000D03*
X149352000Y-63246000D03*
X105156000Y-66548000D03*
X96774000Y-58166000D03*
X164338000Y-135890000D03*
X105156000Y-135890000D03*
G04 #@! TO.N,GND*
X126492000Y-71120000D03*
X124460000Y-54610000D03*
X112014000Y-67564000D03*
X108458000Y-67564000D03*
X115570000Y-67564000D03*
X158242000Y-56896000D03*
X160782000Y-56896000D03*
X172720000Y-56896000D03*
X172720000Y-60198000D03*
X126492000Y-78994000D03*
X126492000Y-86106000D03*
X150622000Y-56896000D03*
X122428000Y-140462000D03*
X124968000Y-140462000D03*
X127508000Y-140462000D03*
X130048000Y-140462000D03*
X132588000Y-140462000D03*
X143256000Y-77216000D03*
X108458000Y-70866000D03*
X112014000Y-70866000D03*
X115570000Y-70866000D03*
X109220000Y-116840000D03*
X93980000Y-109220000D03*
X109220000Y-124460000D03*
X93980000Y-139700000D03*
X101600000Y-109220000D03*
X93980000Y-93980000D03*
X94742000Y-86360000D03*
X93980000Y-78740000D03*
X114300000Y-91440000D03*
X114300000Y-83820000D03*
X86360000Y-71120000D03*
X93980000Y-71120000D03*
X101600000Y-71120000D03*
X86360000Y-63500000D03*
X86360000Y-55880000D03*
X99060000Y-55880000D03*
X114300000Y-55880000D03*
X114300000Y-63500000D03*
X109220000Y-63500000D03*
X144780000Y-53340000D03*
X144780000Y-45720000D03*
X167640000Y-53340000D03*
X175260000Y-66040000D03*
X175260000Y-76200000D03*
X175260000Y-83820000D03*
X175260000Y-91440000D03*
X177800000Y-101600000D03*
X177800000Y-109220000D03*
X177800000Y-116840000D03*
X177800000Y-124460000D03*
X177800000Y-132080000D03*
X177800000Y-139700000D03*
X177800000Y-147320000D03*
X170180000Y-147320000D03*
X162560000Y-147320000D03*
X154940000Y-147320000D03*
X154940000Y-170180000D03*
X144780000Y-170180000D03*
X134620000Y-170180000D03*
X124460000Y-170180000D03*
X114300000Y-170180000D03*
X104140000Y-170180000D03*
X93980000Y-170180000D03*
X83820000Y-170180000D03*
X73660000Y-170180000D03*
X63500000Y-170180000D03*
X53340000Y-170180000D03*
X43180000Y-170180000D03*
X43180000Y-160020000D03*
X43180000Y-149860000D03*
X53340000Y-149860000D03*
X63500000Y-149860000D03*
X73660000Y-149860000D03*
X83820000Y-149860000D03*
X93980000Y-149860000D03*
X104140000Y-149860000D03*
X114300000Y-149860000D03*
X124460000Y-149860000D03*
X134620000Y-149860000D03*
X144780000Y-149860000D03*
X154940000Y-149860000D03*
X144780000Y-160020000D03*
X124460000Y-160020000D03*
X60960000Y-124460000D03*
X68580000Y-124460000D03*
X45720000Y-132080000D03*
X45720000Y-124460000D03*
X38100000Y-124460000D03*
X38100000Y-132080000D03*
X38100000Y-139700000D03*
X45720000Y-139700000D03*
X137160000Y-116840000D03*
X129540000Y-116840000D03*
X144780000Y-116840000D03*
X152400000Y-116840000D03*
X167640000Y-132080000D03*
X175260000Y-132080000D03*
X170180000Y-139700000D03*
X162560000Y-129540000D03*
X160020000Y-101600000D03*
X106680000Y-45720000D03*
X96520000Y-50800000D03*
X88900000Y-50800000D03*
X157480000Y-45720000D03*
X129540000Y-121920000D03*
X137160000Y-121920000D03*
X144780000Y-121920000D03*
X152400000Y-121920000D03*
X154940000Y-106680000D03*
X38100000Y-116840000D03*
X45720000Y-116840000D03*
X38100000Y-109220000D03*
X38100000Y-83820000D03*
X38100000Y-76200000D03*
X73660000Y-160020000D03*
X104140000Y-139700000D03*
X114300000Y-139700000D03*
X93980000Y-124460000D03*
X93980000Y-132080000D03*
G04 #@! TO.N,M0_A*
X53086000Y-111252000D03*
X42164000Y-110744000D03*
G04 #@! TO.N,M0_B*
X62484000Y-110236000D03*
X43180000Y-109728000D03*
G04 #@! TO.N,M0_C*
X44196000Y-108712000D03*
X71882000Y-109220000D03*
G04 #@! TO.N,M1_B*
X50546000Y-113284000D03*
X140970000Y-113284000D03*
G04 #@! TO.N,M1_A*
X50546000Y-114300000D03*
X131572000Y-114300000D03*
G04 #@! TO.N,Net-(D1-Pad2)*
X100838000Y-115316000D03*
X50546000Y-115316000D03*
G04 #@! TO.N,Net-(D2-Pad2)*
X50546000Y-116332000D03*
X99060000Y-116332000D03*
G04 #@! TO.N,Net-(D4-Pad2)*
X50546000Y-117348000D03*
X97282000Y-117348000D03*
G04 #@! TO.N,M1_C*
X50546000Y-112268000D03*
X150368000Y-112268000D03*
G04 #@! TO.N,CAN_L*
X156210000Y-125476000D03*
X122936000Y-124968000D03*
G04 #@! TO.N,CAN_H*
X121920000Y-123444000D03*
X158750000Y-123952000D03*
G04 #@! TO.N,SCK*
X146050000Y-130048000D03*
X125984000Y-130048000D03*
X140970000Y-60198000D03*
G04 #@! TO.N,MISO*
X143510000Y-131064000D03*
X125222000Y-131064000D03*
X140208000Y-59182000D03*
G04 #@! TO.N,MOSI*
X140970000Y-132080000D03*
X124460000Y-132080000D03*
X139446000Y-58166000D03*
G04 #@! TO.N,Tx*
X103124000Y-133350000D03*
X102997000Y-67691000D03*
X138430000Y-133350000D03*
X89916000Y-60960000D03*
G04 #@! TO.N,Rx*
X104140000Y-67056000D03*
X104140000Y-134620000D03*
X135890000Y-134620000D03*
X94996000Y-59690000D03*
G04 #@! TO.N,/AGND*
X148590000Y-129032000D03*
X126746000Y-129032000D03*
X141732000Y-61214000D03*
G04 #@! TO.N,/AVCC*
X151130000Y-128016000D03*
X127508000Y-128016000D03*
X142494000Y-62230000D03*
G04 #@! TD*
D18*
G04 #@! TO.N,Net-(50W2RJ1-Pad1)*
X71666100Y-70104000D02*
X71666100Y-73507600D01*
X71666100Y-73507600D02*
X95097600Y-73507600D01*
X98448717Y-76858717D02*
X98448717Y-100511151D01*
X95097600Y-73507600D02*
X98448717Y-76858717D01*
G04 #@! TO.N,Net-(50W2RJ1-Pad2)*
X145503900Y-70104000D02*
X145503900Y-73507600D01*
X145503900Y-73507600D02*
X112928400Y-73507600D01*
X109948717Y-76487283D02*
X109948717Y-100511151D01*
X112928400Y-73507600D02*
X109948717Y-76487283D01*
D19*
G04 #@! TO.N,+5V*
X150476001Y-63645999D02*
X150876000Y-63246000D01*
X146558000Y-67564000D02*
X150476001Y-63645999D01*
X133096000Y-67564000D02*
X146558000Y-67564000D01*
G04 #@! TO.N,+3V3*
X105156000Y-66548000D02*
X122682000Y-66548000D01*
X130048000Y-66548000D02*
X122682000Y-66548000D01*
X129032000Y-66548000D02*
X130048000Y-66548000D01*
X96774000Y-64262000D02*
X96774000Y-58166000D01*
X97536000Y-65024000D02*
X96774000Y-64262000D01*
X105156000Y-66548000D02*
X103632000Y-65024000D01*
X103632000Y-65024000D02*
X97536000Y-65024000D01*
X107188000Y-135890000D02*
X105156000Y-135890000D01*
X107188000Y-135890000D02*
X164338000Y-135890000D01*
X149352000Y-63246000D02*
X146050000Y-66548000D01*
X146050000Y-66548000D02*
X141732000Y-66548000D01*
X130048000Y-66548000D02*
X141732000Y-66548000D01*
X141732000Y-66548000D02*
X142240000Y-66548000D01*
D20*
G04 #@! TO.N,M0_A*
X53340000Y-91567000D02*
X53340000Y-100402434D01*
D19*
X53086000Y-111252000D02*
X42672000Y-111252000D01*
X42672000Y-111252000D02*
X42164000Y-110744000D01*
D20*
G04 #@! TO.N,M0_B*
X62948717Y-100511151D02*
X62948717Y-89709615D01*
X62948717Y-89709615D02*
X56932102Y-83693000D01*
X56932102Y-83693000D02*
X53340000Y-83693000D01*
D19*
X47244000Y-110236000D02*
X44577000Y-110236000D01*
X44577000Y-110236000D02*
X44323000Y-110236000D01*
X62484000Y-110236000D02*
X60706000Y-110236000D01*
X61214000Y-110236000D02*
X60706000Y-110236000D01*
X60706000Y-110236000D02*
X47244000Y-110236000D01*
X43688000Y-110236000D02*
X43180000Y-109728000D01*
X44577000Y-110236000D02*
X43688000Y-110236000D01*
D20*
G04 #@! TO.N,M0_C*
X72448717Y-95278561D02*
X72448717Y-100511151D01*
X72448717Y-85148717D02*
X72448717Y-95278561D01*
X53340000Y-75819000D02*
X63119000Y-75819000D01*
X63119000Y-75819000D02*
X72448717Y-85148717D01*
D19*
X44196000Y-108712000D02*
X44704000Y-109220000D01*
X44704000Y-109220000D02*
X71882000Y-109220000D01*
D20*
G04 #@! TO.N,M1_B*
X156591000Y-83439000D02*
X161036000Y-83439000D01*
X141448717Y-98581283D02*
X156591000Y-83439000D01*
X141448717Y-100511151D02*
X141448717Y-98581283D01*
D19*
X51562000Y-113284000D02*
X50546000Y-113284000D01*
X140970000Y-113284000D02*
X138938000Y-113284000D01*
X139446000Y-113284000D02*
X138938000Y-113284000D01*
X138938000Y-113284000D02*
X51562000Y-113284000D01*
D20*
G04 #@! TO.N,M1_A*
X157443898Y-75565000D02*
X161036000Y-75565000D01*
X131948717Y-100511151D02*
X131948717Y-95278561D01*
X151662278Y-75565000D02*
X157443898Y-75565000D01*
X131948717Y-95278561D02*
X151662278Y-75565000D01*
D19*
X51816000Y-114300000D02*
X50546000Y-114300000D01*
X131572000Y-114300000D02*
X129286000Y-114300000D01*
X129794000Y-114300000D02*
X129286000Y-114300000D01*
X129286000Y-114300000D02*
X51816000Y-114300000D01*
G04 #@! TO.N,Net-(D1-Pad2)*
X100838000Y-115316000D02*
X50546000Y-115316000D01*
G04 #@! TO.N,Net-(D2-Pad2)*
X99187000Y-116332000D02*
X50546000Y-116332000D01*
G04 #@! TO.N,Net-(D4-Pad2)*
X50546000Y-117348000D02*
X97282000Y-117348000D01*
D20*
G04 #@! TO.N,M1_C*
X151837849Y-100511151D02*
X161036000Y-91313000D01*
X150948717Y-100511151D02*
X151837849Y-100511151D01*
D19*
X50546000Y-112268000D02*
X50546000Y-112268000D01*
X51816000Y-112268000D02*
X50546000Y-112268000D01*
X150368000Y-112268000D02*
X148590000Y-112268000D01*
X148844000Y-112268000D02*
X148590000Y-112268000D01*
X148590000Y-112268000D02*
X51816000Y-112268000D01*
G04 #@! TO.N,CAN_L*
X123444000Y-125476000D02*
X122936000Y-124968000D01*
X127762000Y-125476000D02*
X123444000Y-125476000D01*
X127762000Y-125476000D02*
X156210000Y-125476000D01*
X125476000Y-125476000D02*
X127762000Y-125476000D01*
G04 #@! TO.N,CAN_H*
X122428000Y-123952000D02*
X121920000Y-123444000D01*
X158750000Y-123952000D02*
X152400000Y-123952000D01*
X152908000Y-123952000D02*
X152400000Y-123952000D01*
X152400000Y-123952000D02*
X122428000Y-123952000D01*
G04 #@! TO.N,SCK*
X128016000Y-130048000D02*
X126746000Y-130048000D01*
X128016000Y-130048000D02*
X127254000Y-130048000D01*
X146050000Y-130048000D02*
X128016000Y-130048000D01*
X127254000Y-130048000D02*
X125984000Y-130048000D01*
X161544000Y-60198000D02*
X162052000Y-59690000D01*
X142748000Y-60198000D02*
X161544000Y-60198000D01*
X162052000Y-59690000D02*
X162052000Y-53848000D01*
X142748000Y-60198000D02*
X143002000Y-60198000D01*
X140970000Y-60198000D02*
X142748000Y-60198000D01*
G04 #@! TO.N,MISO*
X126238000Y-131064000D02*
X125222000Y-131064000D01*
X128778000Y-131064000D02*
X126238000Y-131064000D01*
X128778000Y-131064000D02*
X126492000Y-131064000D01*
X143510000Y-131064000D02*
X128778000Y-131064000D01*
X159004000Y-59182000D02*
X159512000Y-58674000D01*
X140208000Y-59182000D02*
X159004000Y-59182000D01*
X159512000Y-58674000D02*
X159512000Y-53848000D01*
G04 #@! TO.N,MOSI*
X125476000Y-132080000D02*
X124460000Y-132080000D01*
X140970000Y-132080000D02*
X125476000Y-132080000D01*
X124968000Y-132080000D02*
X124714000Y-132080000D01*
X125476000Y-132080000D02*
X124968000Y-132080000D01*
X156464000Y-58166000D02*
X156972000Y-57658000D01*
X139446000Y-58166000D02*
X156464000Y-58166000D01*
X156972000Y-57658000D02*
X156972000Y-53848000D01*
G04 #@! TO.N,Tx*
X105664000Y-133350000D02*
X103124000Y-133350000D01*
X91567000Y-67691000D02*
X91186000Y-67310000D01*
X102997000Y-67691000D02*
X91567000Y-67691000D01*
X89916000Y-66040000D02*
X91186000Y-67310000D01*
X138430000Y-133350000D02*
X105664000Y-133350000D01*
X89916000Y-57912000D02*
X89916000Y-59309000D01*
X89916000Y-59309000D02*
X89916000Y-60960000D01*
X89916000Y-60960000D02*
X89916000Y-66040000D01*
G04 #@! TO.N,Rx*
X106680000Y-134620000D02*
X104140000Y-134620000D01*
X106680000Y-134620000D02*
X106299000Y-134620000D01*
X94996000Y-62992000D02*
X94996000Y-60579000D01*
X104140000Y-67056000D02*
X103632000Y-66548000D01*
X96012000Y-66548000D02*
X94996000Y-65532000D01*
X94996000Y-65532000D02*
X94996000Y-62992000D01*
X103632000Y-66548000D02*
X96012000Y-66548000D01*
X135890000Y-134620000D02*
X106680000Y-134620000D01*
X94996000Y-57912000D02*
X94996000Y-59690000D01*
X94996000Y-59690000D02*
X94996000Y-60579000D01*
D20*
G04 #@! TO.N,/PV+*
X168636010Y-70555908D02*
X164628102Y-66548000D01*
X164628102Y-66548000D02*
X161036000Y-66548000D01*
X168636010Y-106198444D02*
X168636010Y-70555908D01*
X171948717Y-109511151D02*
X168636010Y-106198444D01*
D19*
G04 #@! TO.N,Net-(Conn9-Pad1)*
X89916000Y-56162000D02*
X89916000Y-53848000D01*
G04 #@! TO.N,Net-(Conn9-Pad3)*
X94996000Y-56162000D02*
X94996000Y-53848000D01*
G04 #@! TO.N,/AGND*
X128524000Y-129032000D02*
X126746000Y-129032000D01*
X148590000Y-129032000D02*
X128524000Y-129032000D01*
X170942000Y-61214000D02*
X171450000Y-60706000D01*
X141732000Y-61214000D02*
X170942000Y-61214000D01*
X171450000Y-60706000D02*
X171450000Y-53848000D01*
G04 #@! TO.N,/AVCC*
X151130000Y-128016000D02*
X127508000Y-128016000D01*
X173990000Y-61722000D02*
X173482000Y-62230000D01*
X173990000Y-59690000D02*
X173990000Y-53848000D01*
X173990000Y-61722000D02*
X173990000Y-59690000D01*
X173482000Y-62230000D02*
X142494000Y-62230000D01*
G04 #@! TD*
D21*
G04 #@! TO.N,GND*
G36*
X177661009Y-41283090D02*
X178000352Y-41437381D01*
X178282752Y-41680712D01*
X178485506Y-41993523D01*
X178599348Y-42374184D01*
X178614001Y-42571363D01*
X178614000Y-147269419D01*
X178553910Y-147689009D01*
X178399619Y-148028352D01*
X178156288Y-148310752D01*
X177843479Y-148513506D01*
X177462815Y-148627348D01*
X177265649Y-148642000D01*
X161474074Y-148642000D01*
X161448085Y-148647170D01*
X161191033Y-148666272D01*
X161120288Y-148681826D01*
X161048544Y-148691654D01*
X161040219Y-148694088D01*
X160488241Y-148859164D01*
X160400769Y-148899582D01*
X160312806Y-148938929D01*
X160305502Y-148943601D01*
X160305498Y-148943603D01*
X160305499Y-148943603D01*
X159822040Y-149256966D01*
X159749447Y-149320293D01*
X159676045Y-149382763D01*
X159670343Y-149389300D01*
X159294266Y-149825759D01*
X159242347Y-149906942D01*
X159189446Y-149987475D01*
X159185808Y-149995350D01*
X158947347Y-150519817D01*
X158920300Y-150612309D01*
X158892129Y-150704452D01*
X158890847Y-150713031D01*
X158811893Y-151264340D01*
X158802000Y-151314075D01*
X158802001Y-158901281D01*
X158716491Y-158927423D01*
X158624033Y-158954460D01*
X158616159Y-158958098D01*
X158094644Y-159202948D01*
X158014075Y-159255872D01*
X157932927Y-159307768D01*
X157926390Y-159313470D01*
X157494558Y-159694851D01*
X157432096Y-159768244D01*
X157368760Y-159840847D01*
X157364087Y-159848154D01*
X157056654Y-160335407D01*
X157017298Y-160423387D01*
X156976889Y-160510840D01*
X156974457Y-160519160D01*
X156974454Y-160519166D01*
X156974453Y-160519173D01*
X156816134Y-161073118D01*
X156803056Y-161168586D01*
X156788813Y-161263890D01*
X156788813Y-161272564D01*
X156792333Y-161848687D01*
X156806588Y-161944068D01*
X156819654Y-162039455D01*
X156822088Y-162047781D01*
X156987164Y-162599758D01*
X157027591Y-162687250D01*
X157066930Y-162775194D01*
X157071603Y-162782501D01*
X157384966Y-163265961D01*
X157448328Y-163338594D01*
X157510763Y-163411955D01*
X157517296Y-163417654D01*
X157517300Y-163417658D01*
X157517305Y-163417661D01*
X157953759Y-163793734D01*
X158034942Y-163845653D01*
X158115475Y-163898554D01*
X158123346Y-163902190D01*
X158123349Y-163902192D01*
X158123352Y-163902193D01*
X158647817Y-164140653D01*
X158740309Y-164167700D01*
X158802000Y-164186561D01*
X158802001Y-172161412D01*
X158741910Y-172581009D01*
X158587619Y-172920352D01*
X158344288Y-173202752D01*
X158031479Y-173405506D01*
X157650815Y-173519348D01*
X157453649Y-173534000D01*
X37134581Y-173534000D01*
X36714991Y-173473910D01*
X36375648Y-173319619D01*
X36093248Y-173076288D01*
X35890494Y-172763479D01*
X35776652Y-172382815D01*
X35762000Y-172185649D01*
X35762000Y-164186719D01*
X35847509Y-164160577D01*
X35939967Y-164133540D01*
X35947841Y-164129902D01*
X36469356Y-163885052D01*
X36549925Y-163832128D01*
X36631073Y-163780232D01*
X36637610Y-163774530D01*
X37069442Y-163393149D01*
X37131887Y-163319776D01*
X37195240Y-163247153D01*
X37199913Y-163239846D01*
X37507346Y-162752593D01*
X37546687Y-162664645D01*
X37587111Y-162577160D01*
X37589545Y-162568835D01*
X37747866Y-162014882D01*
X37760943Y-161919421D01*
X37775187Y-161824111D01*
X37775187Y-161815436D01*
X37771667Y-161239313D01*
X37757414Y-161143943D01*
X37744346Y-161048544D01*
X37741912Y-161040219D01*
X37576836Y-160488241D01*
X37536418Y-160400769D01*
X37497071Y-160312806D01*
X37492397Y-160305499D01*
X37179034Y-159822040D01*
X37115707Y-159749447D01*
X37053237Y-159676045D01*
X37046700Y-159670343D01*
X36610241Y-159294266D01*
X36529058Y-159242347D01*
X36448525Y-159189446D01*
X36440654Y-159185810D01*
X36440651Y-159185808D01*
X36440648Y-159185807D01*
X35916183Y-158947347D01*
X35823691Y-158920300D01*
X35762000Y-158901439D01*
X35762000Y-143046691D01*
X36613717Y-143046691D01*
X36613717Y-143975611D01*
X36969200Y-144833822D01*
X37626046Y-145490668D01*
X38484257Y-145846151D01*
X39413177Y-145846151D01*
X40271388Y-145490668D01*
X40928234Y-144833822D01*
X41088972Y-144445766D01*
X54523749Y-144445766D01*
X54523749Y-145036536D01*
X54749827Y-145582336D01*
X55167564Y-146000073D01*
X55713364Y-146226151D01*
X56304134Y-146226151D01*
X56849934Y-146000073D01*
X57267671Y-145582336D01*
X57278749Y-145555591D01*
X57289827Y-145582336D01*
X57707564Y-146000073D01*
X58253364Y-146226151D01*
X58844134Y-146226151D01*
X59389934Y-146000073D01*
X59807671Y-145582336D01*
X59818749Y-145555591D01*
X59829827Y-145582336D01*
X60247564Y-146000073D01*
X60793364Y-146226151D01*
X61384134Y-146226151D01*
X61929934Y-146000073D01*
X62347671Y-145582336D01*
X62358749Y-145555591D01*
X62369827Y-145582336D01*
X62787564Y-146000073D01*
X63333364Y-146226151D01*
X63924134Y-146226151D01*
X64469934Y-146000073D01*
X64887671Y-145582336D01*
X64898749Y-145555591D01*
X64909827Y-145582336D01*
X65327564Y-146000073D01*
X65873364Y-146226151D01*
X66464134Y-146226151D01*
X67009934Y-146000073D01*
X67427671Y-145582336D01*
X67438749Y-145555591D01*
X67449827Y-145582336D01*
X67867564Y-146000073D01*
X68413364Y-146226151D01*
X69004134Y-146226151D01*
X69549934Y-146000073D01*
X69967671Y-145582336D01*
X69978749Y-145555591D01*
X69989827Y-145582336D01*
X70407564Y-146000073D01*
X70953364Y-146226151D01*
X71544134Y-146226151D01*
X72089934Y-146000073D01*
X72507671Y-145582336D01*
X72518749Y-145555591D01*
X72529827Y-145582336D01*
X72947564Y-146000073D01*
X73493364Y-146226151D01*
X74084134Y-146226151D01*
X74629934Y-146000073D01*
X75047671Y-145582336D01*
X75058749Y-145555591D01*
X75069827Y-145582336D01*
X75487564Y-146000073D01*
X76033364Y-146226151D01*
X76624134Y-146226151D01*
X77169934Y-146000073D01*
X77587671Y-145582336D01*
X77598749Y-145555591D01*
X77609827Y-145582336D01*
X78027564Y-146000073D01*
X78573364Y-146226151D01*
X79164134Y-146226151D01*
X79709934Y-146000073D01*
X80127671Y-145582336D01*
X80138749Y-145555591D01*
X80149827Y-145582336D01*
X80567564Y-146000073D01*
X81113364Y-146226151D01*
X81704134Y-146226151D01*
X82249934Y-146000073D01*
X82667671Y-145582336D01*
X82678749Y-145555591D01*
X82689827Y-145582336D01*
X83107564Y-146000073D01*
X83653364Y-146226151D01*
X84244134Y-146226151D01*
X84789934Y-146000073D01*
X85207671Y-145582336D01*
X85433749Y-145036536D01*
X85433749Y-144445766D01*
X119583717Y-144445766D01*
X119583717Y-145036536D01*
X119809795Y-145582336D01*
X120227532Y-146000073D01*
X120773332Y-146226151D01*
X121364102Y-146226151D01*
X121909902Y-146000073D01*
X122327639Y-145582336D01*
X122338717Y-145555591D01*
X122349795Y-145582336D01*
X122767532Y-146000073D01*
X123313332Y-146226151D01*
X123904102Y-146226151D01*
X124449902Y-146000073D01*
X124867639Y-145582336D01*
X124878717Y-145555591D01*
X124889795Y-145582336D01*
X125307532Y-146000073D01*
X125853332Y-146226151D01*
X126444102Y-146226151D01*
X126989902Y-146000073D01*
X127407639Y-145582336D01*
X127418717Y-145555591D01*
X127429795Y-145582336D01*
X127847532Y-146000073D01*
X128393332Y-146226151D01*
X128984102Y-146226151D01*
X129529902Y-146000073D01*
X129947639Y-145582336D01*
X129958717Y-145555591D01*
X129969795Y-145582336D01*
X130387532Y-146000073D01*
X130933332Y-146226151D01*
X131524102Y-146226151D01*
X132069902Y-146000073D01*
X132487639Y-145582336D01*
X132498717Y-145555591D01*
X132509795Y-145582336D01*
X132927532Y-146000073D01*
X133473332Y-146226151D01*
X134064102Y-146226151D01*
X134609902Y-146000073D01*
X135027639Y-145582336D01*
X135038717Y-145555591D01*
X135049795Y-145582336D01*
X135467532Y-146000073D01*
X136013332Y-146226151D01*
X136604102Y-146226151D01*
X137149902Y-146000073D01*
X137567639Y-145582336D01*
X137578717Y-145555591D01*
X137589795Y-145582336D01*
X138007532Y-146000073D01*
X138553332Y-146226151D01*
X139144102Y-146226151D01*
X139689902Y-146000073D01*
X140107639Y-145582336D01*
X140118717Y-145555591D01*
X140129795Y-145582336D01*
X140547532Y-146000073D01*
X141093332Y-146226151D01*
X141684102Y-146226151D01*
X142229902Y-146000073D01*
X142647639Y-145582336D01*
X142658717Y-145555591D01*
X142669795Y-145582336D01*
X143087532Y-146000073D01*
X143633332Y-146226151D01*
X144224102Y-146226151D01*
X144769902Y-146000073D01*
X145187639Y-145582336D01*
X145198717Y-145555591D01*
X145209795Y-145582336D01*
X145627532Y-146000073D01*
X146173332Y-146226151D01*
X146764102Y-146226151D01*
X147309902Y-146000073D01*
X147727639Y-145582336D01*
X147738717Y-145555591D01*
X147749795Y-145582336D01*
X148167532Y-146000073D01*
X148713332Y-146226151D01*
X149304102Y-146226151D01*
X149849902Y-146000073D01*
X150267639Y-145582336D01*
X150278717Y-145555591D01*
X150289795Y-145582336D01*
X150707532Y-146000073D01*
X151253332Y-146226151D01*
X151844102Y-146226151D01*
X152389902Y-146000073D01*
X152807639Y-145582336D01*
X153033717Y-145036536D01*
X153033717Y-144445766D01*
X155143717Y-144445766D01*
X155143717Y-145036536D01*
X155369795Y-145582336D01*
X155787532Y-146000073D01*
X156333332Y-146226151D01*
X156924102Y-146226151D01*
X157469902Y-146000073D01*
X157887639Y-145582336D01*
X157898717Y-145555591D01*
X157909795Y-145582336D01*
X158327532Y-146000073D01*
X158873332Y-146226151D01*
X159464102Y-146226151D01*
X160009902Y-146000073D01*
X160427639Y-145582336D01*
X160653717Y-145036536D01*
X160653717Y-144445766D01*
X162763717Y-144445766D01*
X162763717Y-145036536D01*
X162989795Y-145582336D01*
X163407532Y-146000073D01*
X163953332Y-146226151D01*
X164544102Y-146226151D01*
X165089902Y-146000073D01*
X165507639Y-145582336D01*
X165733717Y-145036536D01*
X165733717Y-144445766D01*
X165507639Y-143899966D01*
X165089902Y-143482229D01*
X164544102Y-143256151D01*
X163953332Y-143256151D01*
X163407532Y-143482229D01*
X162989795Y-143899966D01*
X162763717Y-144445766D01*
X160653717Y-144445766D01*
X160427639Y-143899966D01*
X160009902Y-143482229D01*
X159464102Y-143256151D01*
X158873332Y-143256151D01*
X158327532Y-143482229D01*
X157909795Y-143899966D01*
X157898717Y-143926711D01*
X157887639Y-143899966D01*
X157469902Y-143482229D01*
X156924102Y-143256151D01*
X156333332Y-143256151D01*
X155787532Y-143482229D01*
X155369795Y-143899966D01*
X155143717Y-144445766D01*
X153033717Y-144445766D01*
X152807639Y-143899966D01*
X152389902Y-143482229D01*
X151844102Y-143256151D01*
X151253332Y-143256151D01*
X150707532Y-143482229D01*
X150289795Y-143899966D01*
X150278717Y-143926711D01*
X150267639Y-143899966D01*
X149849902Y-143482229D01*
X149304102Y-143256151D01*
X148713332Y-143256151D01*
X148167532Y-143482229D01*
X147749795Y-143899966D01*
X147738717Y-143926711D01*
X147727639Y-143899966D01*
X147309902Y-143482229D01*
X146764102Y-143256151D01*
X146173332Y-143256151D01*
X145627532Y-143482229D01*
X145209795Y-143899966D01*
X145198717Y-143926711D01*
X145187639Y-143899966D01*
X144769902Y-143482229D01*
X144224102Y-143256151D01*
X143633332Y-143256151D01*
X143087532Y-143482229D01*
X142669795Y-143899966D01*
X142658717Y-143926711D01*
X142647639Y-143899966D01*
X142229902Y-143482229D01*
X141684102Y-143256151D01*
X141093332Y-143256151D01*
X140547532Y-143482229D01*
X140129795Y-143899966D01*
X140118717Y-143926711D01*
X140107639Y-143899966D01*
X139689902Y-143482229D01*
X139144102Y-143256151D01*
X138553332Y-143256151D01*
X138007532Y-143482229D01*
X137589795Y-143899966D01*
X137578717Y-143926711D01*
X137567639Y-143899966D01*
X137149902Y-143482229D01*
X136604102Y-143256151D01*
X136013332Y-143256151D01*
X135467532Y-143482229D01*
X135049795Y-143899966D01*
X135038717Y-143926711D01*
X135027639Y-143899966D01*
X134609902Y-143482229D01*
X134064102Y-143256151D01*
X133473332Y-143256151D01*
X132927532Y-143482229D01*
X132509795Y-143899966D01*
X132498717Y-143926711D01*
X132487639Y-143899966D01*
X132069902Y-143482229D01*
X131524102Y-143256151D01*
X130933332Y-143256151D01*
X130387532Y-143482229D01*
X129969795Y-143899966D01*
X129958717Y-143926711D01*
X129947639Y-143899966D01*
X129529902Y-143482229D01*
X128984102Y-143256151D01*
X128393332Y-143256151D01*
X127847532Y-143482229D01*
X127429795Y-143899966D01*
X127418717Y-143926711D01*
X127407639Y-143899966D01*
X126989902Y-143482229D01*
X126444102Y-143256151D01*
X125853332Y-143256151D01*
X125307532Y-143482229D01*
X124889795Y-143899966D01*
X124878717Y-143926711D01*
X124867639Y-143899966D01*
X124449902Y-143482229D01*
X123904102Y-143256151D01*
X123313332Y-143256151D01*
X122767532Y-143482229D01*
X122349795Y-143899966D01*
X122338717Y-143926711D01*
X122327639Y-143899966D01*
X121909902Y-143482229D01*
X121364102Y-143256151D01*
X120773332Y-143256151D01*
X120227532Y-143482229D01*
X119809795Y-143899966D01*
X119583717Y-144445766D01*
X85433749Y-144445766D01*
X85207671Y-143899966D01*
X84789934Y-143482229D01*
X84244134Y-143256151D01*
X83653364Y-143256151D01*
X83107564Y-143482229D01*
X82689827Y-143899966D01*
X82678749Y-143926711D01*
X82667671Y-143899966D01*
X82249934Y-143482229D01*
X81704134Y-143256151D01*
X81113364Y-143256151D01*
X80567564Y-143482229D01*
X80149827Y-143899966D01*
X80138749Y-143926711D01*
X80127671Y-143899966D01*
X79709934Y-143482229D01*
X79164134Y-143256151D01*
X78573364Y-143256151D01*
X78027564Y-143482229D01*
X77609827Y-143899966D01*
X77598749Y-143926711D01*
X77587671Y-143899966D01*
X77169934Y-143482229D01*
X76624134Y-143256151D01*
X76033364Y-143256151D01*
X75487564Y-143482229D01*
X75069827Y-143899966D01*
X75058749Y-143926711D01*
X75047671Y-143899966D01*
X74629934Y-143482229D01*
X74084134Y-143256151D01*
X73493364Y-143256151D01*
X72947564Y-143482229D01*
X72529827Y-143899966D01*
X72518749Y-143926711D01*
X72507671Y-143899966D01*
X72089934Y-143482229D01*
X71544134Y-143256151D01*
X70953364Y-143256151D01*
X70407564Y-143482229D01*
X69989827Y-143899966D01*
X69978749Y-143926711D01*
X69967671Y-143899966D01*
X69549934Y-143482229D01*
X69004134Y-143256151D01*
X68413364Y-143256151D01*
X67867564Y-143482229D01*
X67449827Y-143899966D01*
X67438749Y-143926711D01*
X67427671Y-143899966D01*
X67009934Y-143482229D01*
X66464134Y-143256151D01*
X65873364Y-143256151D01*
X65327564Y-143482229D01*
X64909827Y-143899966D01*
X64898749Y-143926711D01*
X64887671Y-143899966D01*
X64469934Y-143482229D01*
X63924134Y-143256151D01*
X63333364Y-143256151D01*
X62787564Y-143482229D01*
X62369827Y-143899966D01*
X62358749Y-143926711D01*
X62347671Y-143899966D01*
X61929934Y-143482229D01*
X61384134Y-143256151D01*
X60793364Y-143256151D01*
X60247564Y-143482229D01*
X59829827Y-143899966D01*
X59818749Y-143926711D01*
X59807671Y-143899966D01*
X59389934Y-143482229D01*
X58844134Y-143256151D01*
X58253364Y-143256151D01*
X57707564Y-143482229D01*
X57289827Y-143899966D01*
X57278749Y-143926711D01*
X57267671Y-143899966D01*
X56849934Y-143482229D01*
X56304134Y-143256151D01*
X55713364Y-143256151D01*
X55167564Y-143482229D01*
X54749827Y-143899966D01*
X54523749Y-144445766D01*
X41088972Y-144445766D01*
X41283717Y-143975611D01*
X41283717Y-143046691D01*
X172113717Y-143046691D01*
X172113717Y-143975611D01*
X172469200Y-144833822D01*
X173126046Y-145490668D01*
X173984257Y-145846151D01*
X174913177Y-145846151D01*
X175771388Y-145490668D01*
X176428234Y-144833822D01*
X176783717Y-143975611D01*
X176783717Y-143046691D01*
X176428234Y-142188480D01*
X175771388Y-141531634D01*
X174913177Y-141176151D01*
X173984257Y-141176151D01*
X173126046Y-141531634D01*
X172469200Y-142188480D01*
X172113717Y-143046691D01*
X41283717Y-143046691D01*
X40928234Y-142188480D01*
X40271388Y-141531634D01*
X39413177Y-141176151D01*
X38484257Y-141176151D01*
X37626046Y-141531634D01*
X36969200Y-142188480D01*
X36613717Y-143046691D01*
X35762000Y-143046691D01*
X35762000Y-133144126D01*
X102089000Y-133144126D01*
X102089000Y-133555874D01*
X102246569Y-133936280D01*
X102537720Y-134227431D01*
X102918126Y-134385000D01*
X103117064Y-134385000D01*
X103105000Y-134414126D01*
X103105000Y-134825874D01*
X103262569Y-135206280D01*
X103553720Y-135497431D01*
X103934126Y-135655000D01*
X104133064Y-135655000D01*
X104121000Y-135684126D01*
X104121000Y-136095874D01*
X104278569Y-136476280D01*
X104569720Y-136767431D01*
X104950126Y-136925000D01*
X105361874Y-136925000D01*
X105742280Y-136767431D01*
X105794211Y-136715500D01*
X163699789Y-136715500D01*
X163751720Y-136767431D01*
X164132126Y-136925000D01*
X164543874Y-136925000D01*
X164924280Y-136767431D01*
X165215431Y-136476280D01*
X165373000Y-136095874D01*
X165373000Y-135684126D01*
X165215431Y-135303720D01*
X164924280Y-135012569D01*
X164543874Y-134855000D01*
X164132126Y-134855000D01*
X163751720Y-135012569D01*
X163699789Y-135064500D01*
X136826158Y-135064500D01*
X136925000Y-134825874D01*
X136925000Y-134414126D01*
X136826158Y-134175500D01*
X137791789Y-134175500D01*
X137843720Y-134227431D01*
X138224126Y-134385000D01*
X138635874Y-134385000D01*
X139016280Y-134227431D01*
X139307431Y-133936280D01*
X139465000Y-133555874D01*
X139465000Y-133144126D01*
X139366158Y-132905500D01*
X140331789Y-132905500D01*
X140383720Y-132957431D01*
X140764126Y-133115000D01*
X141175874Y-133115000D01*
X141556280Y-132957431D01*
X141847431Y-132666280D01*
X142005000Y-132285874D01*
X142005000Y-131889500D01*
X142871789Y-131889500D01*
X142923720Y-131941431D01*
X143304126Y-132099000D01*
X143715874Y-132099000D01*
X144096280Y-131941431D01*
X144387431Y-131650280D01*
X144545000Y-131269874D01*
X144545000Y-130873500D01*
X145411789Y-130873500D01*
X145463720Y-130925431D01*
X145844126Y-131083000D01*
X146255874Y-131083000D01*
X146636280Y-130925431D01*
X146927431Y-130634280D01*
X147085000Y-130253874D01*
X147085000Y-129857500D01*
X147951789Y-129857500D01*
X148003720Y-129909431D01*
X148384126Y-130067000D01*
X148795874Y-130067000D01*
X149176280Y-129909431D01*
X149467431Y-129618280D01*
X149625000Y-129237874D01*
X149625000Y-128841500D01*
X150491789Y-128841500D01*
X150543720Y-128893431D01*
X150924126Y-129051000D01*
X151335874Y-129051000D01*
X151716280Y-128893431D01*
X152007431Y-128602280D01*
X152165000Y-128221874D01*
X152165000Y-127810126D01*
X152007431Y-127429720D01*
X151716280Y-127138569D01*
X151335874Y-126981000D01*
X150924126Y-126981000D01*
X150543720Y-127138569D01*
X150491789Y-127190500D01*
X128146211Y-127190500D01*
X128094280Y-127138569D01*
X127713874Y-126981000D01*
X127302126Y-126981000D01*
X126921720Y-127138569D01*
X126630569Y-127429720D01*
X126473000Y-127810126D01*
X126473000Y-128024804D01*
X126159720Y-128154569D01*
X125868569Y-128445720D01*
X125711000Y-128826126D01*
X125711000Y-129040804D01*
X125397720Y-129170569D01*
X125106569Y-129461720D01*
X124949000Y-129842126D01*
X124949000Y-130056804D01*
X124635720Y-130186569D01*
X124344569Y-130477720D01*
X124187000Y-130858126D01*
X124187000Y-131072804D01*
X123873720Y-131202569D01*
X123582569Y-131493720D01*
X123425000Y-131874126D01*
X123425000Y-132285874D01*
X123523842Y-132524500D01*
X103762211Y-132524500D01*
X103710280Y-132472569D01*
X103329874Y-132315000D01*
X102918126Y-132315000D01*
X102537720Y-132472569D01*
X102246569Y-132763720D01*
X102089000Y-133144126D01*
X35762000Y-133144126D01*
X35762000Y-124254126D01*
X52305000Y-124254126D01*
X52305000Y-124665874D01*
X52462569Y-125046280D01*
X52753720Y-125337431D01*
X53134126Y-125495000D01*
X53545874Y-125495000D01*
X53926280Y-125337431D01*
X54217431Y-125046280D01*
X54375000Y-124665874D01*
X54375000Y-124254126D01*
X54217431Y-123873720D01*
X53926280Y-123582569D01*
X53545874Y-123425000D01*
X53134126Y-123425000D01*
X52753720Y-123582569D01*
X52462569Y-123873720D01*
X52305000Y-124254126D01*
X35762000Y-124254126D01*
X35762000Y-123238126D01*
X120885000Y-123238126D01*
X120885000Y-123649874D01*
X121042569Y-124030280D01*
X121333720Y-124321431D01*
X121714126Y-124479000D01*
X121787310Y-124479000D01*
X121832848Y-124547152D01*
X121955969Y-124629419D01*
X121901000Y-124762126D01*
X121901000Y-125173874D01*
X122058569Y-125554280D01*
X122349720Y-125845431D01*
X122730126Y-126003000D01*
X122803310Y-126003000D01*
X122848848Y-126071152D01*
X123121906Y-126253604D01*
X123362697Y-126301500D01*
X123362701Y-126301500D01*
X123443999Y-126317671D01*
X123525297Y-126301500D01*
X155571789Y-126301500D01*
X155623720Y-126353431D01*
X156004126Y-126511000D01*
X156415874Y-126511000D01*
X156796280Y-126353431D01*
X157087431Y-126062280D01*
X157245000Y-125681874D01*
X157245000Y-125270126D01*
X157087431Y-124889720D01*
X156975211Y-124777500D01*
X158111789Y-124777500D01*
X158163720Y-124829431D01*
X158544126Y-124987000D01*
X158955874Y-124987000D01*
X159336280Y-124829431D01*
X159627431Y-124538280D01*
X159785000Y-124157874D01*
X159785000Y-123746126D01*
X159627431Y-123365720D01*
X159336280Y-123074569D01*
X158955874Y-122917000D01*
X158544126Y-122917000D01*
X158163720Y-123074569D01*
X158111789Y-123126500D01*
X122908763Y-123126500D01*
X122797431Y-122857720D01*
X122506280Y-122566569D01*
X122125874Y-122409000D01*
X121714126Y-122409000D01*
X121333720Y-122566569D01*
X121042569Y-122857720D01*
X120885000Y-123238126D01*
X35762000Y-123238126D01*
X35762000Y-110538126D01*
X41129000Y-110538126D01*
X41129000Y-110949874D01*
X41286569Y-111330280D01*
X41577720Y-111621431D01*
X41958126Y-111779000D01*
X42031310Y-111779000D01*
X42076848Y-111847152D01*
X42349906Y-112029604D01*
X42590697Y-112077500D01*
X42590701Y-112077500D01*
X42671999Y-112093671D01*
X42753297Y-112077500D01*
X49511000Y-112077500D01*
X49511000Y-112473874D01*
X49636144Y-112776000D01*
X49511000Y-113078126D01*
X49511000Y-113489874D01*
X49636144Y-113792000D01*
X49511000Y-114094126D01*
X49511000Y-114505874D01*
X49636144Y-114808000D01*
X49511000Y-115110126D01*
X49511000Y-115521874D01*
X49636144Y-115824000D01*
X49511000Y-116126126D01*
X49511000Y-116537874D01*
X49636144Y-116840000D01*
X49511000Y-117142126D01*
X49511000Y-117553874D01*
X49668569Y-117934280D01*
X49959720Y-118225431D01*
X50340126Y-118383000D01*
X50751874Y-118383000D01*
X51132280Y-118225431D01*
X51184211Y-118173500D01*
X96643789Y-118173500D01*
X96695720Y-118225431D01*
X97076126Y-118383000D01*
X97487874Y-118383000D01*
X97868280Y-118225431D01*
X98159431Y-117934280D01*
X98317000Y-117553874D01*
X98317000Y-117157500D01*
X98421789Y-117157500D01*
X98473720Y-117209431D01*
X98854126Y-117367000D01*
X99265874Y-117367000D01*
X99646280Y-117209431D01*
X99937431Y-116918280D01*
X100095000Y-116537874D01*
X100095000Y-116141500D01*
X100199789Y-116141500D01*
X100251720Y-116193431D01*
X100632126Y-116351000D01*
X101043874Y-116351000D01*
X101424280Y-116193431D01*
X101715431Y-115902280D01*
X101873000Y-115521874D01*
X101873000Y-115125500D01*
X130933789Y-115125500D01*
X130985720Y-115177431D01*
X131366126Y-115335000D01*
X131777874Y-115335000D01*
X132158280Y-115177431D01*
X132449431Y-114886280D01*
X132607000Y-114505874D01*
X132607000Y-114109500D01*
X140331789Y-114109500D01*
X140383720Y-114161431D01*
X140764126Y-114319000D01*
X141175874Y-114319000D01*
X141556280Y-114161431D01*
X141847431Y-113870280D01*
X142005000Y-113489874D01*
X142005000Y-113093500D01*
X149729789Y-113093500D01*
X149781720Y-113145431D01*
X150162126Y-113303000D01*
X150573874Y-113303000D01*
X150954280Y-113145431D01*
X151245431Y-112854280D01*
X151403000Y-112473874D01*
X151403000Y-112062126D01*
X151245431Y-111681720D01*
X150954280Y-111390569D01*
X150573874Y-111233000D01*
X150162126Y-111233000D01*
X149781720Y-111390569D01*
X149729789Y-111442500D01*
X54121000Y-111442500D01*
X54121000Y-111061500D01*
X61845789Y-111061500D01*
X61897720Y-111113431D01*
X62278126Y-111271000D01*
X62689874Y-111271000D01*
X63070280Y-111113431D01*
X63361431Y-110822280D01*
X63519000Y-110441874D01*
X63519000Y-110045500D01*
X71243789Y-110045500D01*
X71295720Y-110097431D01*
X71676126Y-110255000D01*
X72087874Y-110255000D01*
X72468280Y-110097431D01*
X72759431Y-109806280D01*
X72917000Y-109425874D01*
X72917000Y-109014126D01*
X108185000Y-109014126D01*
X108185000Y-109425874D01*
X108342569Y-109806280D01*
X108633720Y-110097431D01*
X109014126Y-110255000D01*
X109425874Y-110255000D01*
X109806280Y-110097431D01*
X110097431Y-109806280D01*
X110255000Y-109425874D01*
X110255000Y-109014126D01*
X110097431Y-108633720D01*
X109806280Y-108342569D01*
X109425874Y-108185000D01*
X109014126Y-108185000D01*
X108633720Y-108342569D01*
X108342569Y-108633720D01*
X108185000Y-109014126D01*
X72917000Y-109014126D01*
X72759431Y-108633720D01*
X72468280Y-108342569D01*
X72087874Y-108185000D01*
X71676126Y-108185000D01*
X71295720Y-108342569D01*
X71243789Y-108394500D01*
X45184763Y-108394500D01*
X45073431Y-108125720D01*
X44782280Y-107834569D01*
X44401874Y-107677000D01*
X43990126Y-107677000D01*
X43609720Y-107834569D01*
X43318569Y-108125720D01*
X43161000Y-108506126D01*
X43161000Y-108693000D01*
X42974126Y-108693000D01*
X42593720Y-108850569D01*
X42302569Y-109141720D01*
X42145000Y-109522126D01*
X42145000Y-109709000D01*
X41958126Y-109709000D01*
X41577720Y-109866569D01*
X41286569Y-110157720D01*
X41129000Y-110538126D01*
X35762000Y-110538126D01*
X35762000Y-99546691D01*
X36613717Y-99546691D01*
X36613717Y-100475611D01*
X36969200Y-101333822D01*
X37626046Y-101990668D01*
X38484257Y-102346151D01*
X39413177Y-102346151D01*
X40271388Y-101990668D01*
X40928234Y-101333822D01*
X41283717Y-100475611D01*
X41283717Y-99546691D01*
X40928234Y-98688480D01*
X40271388Y-98031634D01*
X39413177Y-97676151D01*
X38484257Y-97676151D01*
X37626046Y-98031634D01*
X36969200Y-98688480D01*
X36613717Y-99546691D01*
X35762000Y-99546691D01*
X35762000Y-75819000D01*
X48920073Y-75819000D01*
X49256520Y-77510433D01*
X50214640Y-78944360D01*
X51429344Y-79756000D01*
X50214640Y-80567640D01*
X49256520Y-82001567D01*
X48920073Y-83693000D01*
X49256520Y-85384433D01*
X50214640Y-86818360D01*
X51429344Y-87630000D01*
X50214640Y-88441640D01*
X49256520Y-89875568D01*
X49005000Y-91140044D01*
X49005001Y-100829391D01*
X49256521Y-102093867D01*
X49665923Y-102706580D01*
X49773681Y-102966731D01*
X49972793Y-103165843D01*
X50214641Y-103527794D01*
X50576592Y-103769642D01*
X50993137Y-104186187D01*
X51537377Y-104411618D01*
X51648568Y-104485914D01*
X51779728Y-104512003D01*
X52586432Y-104846151D01*
X54311002Y-104846151D01*
X55904297Y-104186187D01*
X57123753Y-102966731D01*
X57783717Y-101373436D01*
X57783717Y-99648866D01*
X57675000Y-99386400D01*
X57675000Y-91140043D01*
X57532591Y-90424105D01*
X58613718Y-91505232D01*
X58613717Y-99648866D01*
X58613717Y-101373436D01*
X58780310Y-101775628D01*
X58865237Y-102202583D01*
X59107087Y-102564537D01*
X59273681Y-102966731D01*
X59581507Y-103274557D01*
X59823357Y-103636511D01*
X60185311Y-103878361D01*
X60493137Y-104186187D01*
X60895329Y-104352780D01*
X61257284Y-104594631D01*
X61684241Y-104679558D01*
X62086432Y-104846151D01*
X62521760Y-104846151D01*
X62948717Y-104931078D01*
X63375674Y-104846151D01*
X63811002Y-104846151D01*
X64213194Y-104679558D01*
X64640149Y-104594631D01*
X65002103Y-104352781D01*
X65404297Y-104186187D01*
X65712123Y-103878361D01*
X66074077Y-103636511D01*
X66315927Y-103274557D01*
X66623753Y-102966731D01*
X66790346Y-102564539D01*
X67032197Y-102202584D01*
X67117124Y-101775627D01*
X67283717Y-101373436D01*
X67283717Y-90136568D01*
X67368643Y-89709615D01*
X67283717Y-89282662D01*
X67283717Y-89282658D01*
X67032197Y-88018182D01*
X66869040Y-87774000D01*
X66315929Y-86946211D01*
X66315927Y-86946209D01*
X66074077Y-86584255D01*
X65712122Y-86342405D01*
X60299314Y-80929597D01*
X60057462Y-80567640D01*
X59438406Y-80154000D01*
X61323385Y-80154000D01*
X68113717Y-86944332D01*
X68113718Y-94851600D01*
X68113717Y-94851605D01*
X68113717Y-101373436D01*
X68280311Y-101775630D01*
X68365238Y-102202584D01*
X68607086Y-102564535D01*
X68773681Y-102966731D01*
X69081510Y-103274560D01*
X69323358Y-103636511D01*
X69685309Y-103878359D01*
X69993137Y-104186187D01*
X70395332Y-104352781D01*
X70757285Y-104594631D01*
X71184240Y-104679558D01*
X71586432Y-104846151D01*
X72021760Y-104846151D01*
X72448717Y-104931078D01*
X72875674Y-104846151D01*
X73311002Y-104846151D01*
X73713193Y-104679558D01*
X74140150Y-104594631D01*
X74502105Y-104352780D01*
X74904297Y-104186187D01*
X75212123Y-103878361D01*
X75574077Y-103636511D01*
X75815927Y-103274557D01*
X76123753Y-102966731D01*
X76290346Y-102564539D01*
X76532197Y-102202584D01*
X76617124Y-101775627D01*
X76783717Y-101373436D01*
X76783717Y-85575668D01*
X76868643Y-85148716D01*
X76783717Y-84721764D01*
X76783717Y-84721760D01*
X76532197Y-83457284D01*
X75574077Y-82023357D01*
X75212120Y-81781505D01*
X75141369Y-81710754D01*
X85011000Y-81710754D01*
X85011000Y-83156846D01*
X85564396Y-84492862D01*
X86586938Y-85515404D01*
X87922954Y-86068800D01*
X89369046Y-86068800D01*
X90705062Y-85515404D01*
X91727604Y-84492862D01*
X92281000Y-83156846D01*
X92281000Y-81710754D01*
X91727604Y-80374738D01*
X90705062Y-79352196D01*
X89369046Y-78798800D01*
X87922954Y-78798800D01*
X86586938Y-79352196D01*
X85564396Y-80374738D01*
X85011000Y-81710754D01*
X75141369Y-81710754D01*
X66938215Y-73507600D01*
X69723779Y-73507600D01*
X69871629Y-74250894D01*
X70292672Y-74881028D01*
X70922806Y-75302071D01*
X71478474Y-75412600D01*
X71666100Y-75449921D01*
X71853726Y-75412600D01*
X94308524Y-75412600D01*
X96543717Y-77647793D01*
X96543718Y-96608057D01*
X95993137Y-96836115D01*
X94773681Y-98055571D01*
X94113717Y-99648866D01*
X94113717Y-101373436D01*
X94773681Y-102966731D01*
X95993137Y-104186187D01*
X97586432Y-104846151D01*
X99311002Y-104846151D01*
X100904297Y-104186187D01*
X102123753Y-102966731D01*
X102783717Y-101373436D01*
X102783717Y-99648866D01*
X102123753Y-98055571D01*
X100904297Y-96836115D01*
X100353717Y-96608057D01*
X100353717Y-77046337D01*
X100391037Y-76858716D01*
X100353717Y-76671095D01*
X100353717Y-76671091D01*
X100243188Y-76115423D01*
X99822145Y-75485289D01*
X99663083Y-75379007D01*
X96577310Y-72293234D01*
X96471028Y-72134172D01*
X95840894Y-71713129D01*
X95285226Y-71602600D01*
X95285221Y-71602600D01*
X95097600Y-71565280D01*
X94909979Y-71602600D01*
X73571100Y-71602600D01*
X73571100Y-70241588D01*
X73598468Y-70104000D01*
X73571100Y-69966412D01*
X73571100Y-69916374D01*
X73460571Y-69360706D01*
X73039528Y-68730572D01*
X72409393Y-68309529D01*
X71666100Y-68161679D01*
X70922806Y-68309529D01*
X70292672Y-68730572D01*
X69871629Y-69360707D01*
X69761100Y-69916375D01*
X69761100Y-69966412D01*
X69733732Y-70104000D01*
X69761100Y-70241588D01*
X69761101Y-73319970D01*
X69723779Y-73507600D01*
X66938215Y-73507600D01*
X66486212Y-73055597D01*
X66244360Y-72693640D01*
X64810433Y-71735520D01*
X63545957Y-71484000D01*
X63545953Y-71484000D01*
X63119000Y-71399074D01*
X62692047Y-71484000D01*
X52913043Y-71484000D01*
X51648567Y-71735520D01*
X50214640Y-72693640D01*
X49256520Y-74127567D01*
X48920073Y-75819000D01*
X35762000Y-75819000D01*
X35762000Y-53570119D01*
X43815000Y-53570119D01*
X43815000Y-54125881D01*
X44027680Y-54639337D01*
X44420663Y-55032320D01*
X44934119Y-55245000D01*
X45489881Y-55245000D01*
X46003337Y-55032320D01*
X46396320Y-54639337D01*
X46482000Y-54432487D01*
X46567680Y-54639337D01*
X46960663Y-55032320D01*
X47474119Y-55245000D01*
X48029881Y-55245000D01*
X48543337Y-55032320D01*
X48936320Y-54639337D01*
X49022000Y-54432487D01*
X49107680Y-54639337D01*
X49500663Y-55032320D01*
X50014119Y-55245000D01*
X50569881Y-55245000D01*
X51083337Y-55032320D01*
X51476320Y-54639337D01*
X51562000Y-54432487D01*
X51647680Y-54639337D01*
X52040663Y-55032320D01*
X52554119Y-55245000D01*
X53109881Y-55245000D01*
X53623337Y-55032320D01*
X54016320Y-54639337D01*
X54102000Y-54432487D01*
X54187680Y-54639337D01*
X54580663Y-55032320D01*
X55094119Y-55245000D01*
X55649881Y-55245000D01*
X56163337Y-55032320D01*
X56556320Y-54639337D01*
X56642000Y-54432487D01*
X56727680Y-54639337D01*
X57120663Y-55032320D01*
X57634119Y-55245000D01*
X58189881Y-55245000D01*
X58703337Y-55032320D01*
X59096320Y-54639337D01*
X59182000Y-54432487D01*
X59267680Y-54639337D01*
X59660663Y-55032320D01*
X60174119Y-55245000D01*
X60729881Y-55245000D01*
X61243337Y-55032320D01*
X61636320Y-54639337D01*
X61849000Y-54125881D01*
X61849000Y-53570119D01*
X66167000Y-53570119D01*
X66167000Y-54125881D01*
X66379680Y-54639337D01*
X66772663Y-55032320D01*
X67286119Y-55245000D01*
X67841881Y-55245000D01*
X68355337Y-55032320D01*
X68748320Y-54639337D01*
X68834000Y-54432487D01*
X68919680Y-54639337D01*
X69312663Y-55032320D01*
X69826119Y-55245000D01*
X70381881Y-55245000D01*
X70895337Y-55032320D01*
X71288320Y-54639337D01*
X71374000Y-54432487D01*
X71459680Y-54639337D01*
X71852663Y-55032320D01*
X72366119Y-55245000D01*
X72921881Y-55245000D01*
X73435337Y-55032320D01*
X73828320Y-54639337D01*
X73914000Y-54432487D01*
X73999680Y-54639337D01*
X74392663Y-55032320D01*
X74906119Y-55245000D01*
X75461881Y-55245000D01*
X75975337Y-55032320D01*
X76368320Y-54639337D01*
X76454000Y-54432487D01*
X76539680Y-54639337D01*
X76932663Y-55032320D01*
X77446119Y-55245000D01*
X78001881Y-55245000D01*
X78515337Y-55032320D01*
X78908320Y-54639337D01*
X78994000Y-54432487D01*
X79079680Y-54639337D01*
X79472663Y-55032320D01*
X79986119Y-55245000D01*
X80541881Y-55245000D01*
X81055337Y-55032320D01*
X81448320Y-54639337D01*
X81534000Y-54432487D01*
X81619680Y-54639337D01*
X82012663Y-55032320D01*
X82526119Y-55245000D01*
X83081881Y-55245000D01*
X83595337Y-55032320D01*
X83988320Y-54639337D01*
X84201000Y-54125881D01*
X84201000Y-53570119D01*
X88519000Y-53570119D01*
X88519000Y-54125881D01*
X88731680Y-54639337D01*
X89090501Y-54998158D01*
X89090500Y-55223531D01*
X89052753Y-55248753D01*
X88860922Y-55535848D01*
X88793560Y-55874500D01*
X88793560Y-56449500D01*
X88860922Y-56788152D01*
X89027197Y-57037000D01*
X88860922Y-57285848D01*
X88793560Y-57624500D01*
X88793560Y-58199500D01*
X88860922Y-58538152D01*
X89052753Y-58825247D01*
X89090501Y-58850469D01*
X89090501Y-59227693D01*
X89090500Y-59227698D01*
X89090501Y-60321788D01*
X89038569Y-60373720D01*
X88881000Y-60754126D01*
X88881000Y-61165874D01*
X89038569Y-61546280D01*
X89090500Y-61598211D01*
X89090501Y-65958694D01*
X89074328Y-66040000D01*
X89127956Y-66309604D01*
X89138397Y-66362094D01*
X89320849Y-66635152D01*
X89389775Y-66681207D01*
X90659773Y-67951206D01*
X90659775Y-67951208D01*
X90925793Y-68217225D01*
X90971848Y-68286152D01*
X91244906Y-68468604D01*
X91485697Y-68516500D01*
X91485701Y-68516500D01*
X91566999Y-68532671D01*
X91648297Y-68516500D01*
X102358789Y-68516500D01*
X102410720Y-68568431D01*
X102791126Y-68726000D01*
X103202874Y-68726000D01*
X103583280Y-68568431D01*
X103874431Y-68277280D01*
X103951591Y-68091000D01*
X104345874Y-68091000D01*
X104726280Y-67933431D01*
X105017431Y-67642280D01*
X105041986Y-67583000D01*
X105361874Y-67583000D01*
X105742280Y-67425431D01*
X105794211Y-67373500D01*
X124187000Y-67373500D01*
X124187000Y-67769874D01*
X124344569Y-68150280D01*
X124635720Y-68441431D01*
X125016126Y-68599000D01*
X125427874Y-68599000D01*
X125808280Y-68441431D01*
X126099431Y-68150280D01*
X126257000Y-67769874D01*
X126257000Y-67373500D01*
X128505000Y-67373500D01*
X128505000Y-67769874D01*
X128662569Y-68150280D01*
X128953720Y-68441431D01*
X129334126Y-68599000D01*
X129745874Y-68599000D01*
X130126280Y-68441431D01*
X130417431Y-68150280D01*
X130575000Y-67769874D01*
X130575000Y-67373500D01*
X131187789Y-67373500D01*
X131239720Y-67425431D01*
X131620126Y-67583000D01*
X132031874Y-67583000D01*
X132061000Y-67570936D01*
X132061000Y-67769874D01*
X132218569Y-68150280D01*
X132509720Y-68441431D01*
X132890126Y-68599000D01*
X133301874Y-68599000D01*
X133682280Y-68441431D01*
X133734211Y-68389500D01*
X144640921Y-68389500D01*
X144130472Y-68730572D01*
X143709429Y-69360707D01*
X143598900Y-69916375D01*
X143598900Y-69966412D01*
X143571532Y-70104000D01*
X143598900Y-70241588D01*
X143598900Y-71602600D01*
X113116020Y-71602600D01*
X112928399Y-71565280D01*
X112740778Y-71602600D01*
X112740774Y-71602600D01*
X112185106Y-71713129D01*
X111554972Y-72134172D01*
X111448690Y-72293234D01*
X108734351Y-75007573D01*
X108575289Y-75113855D01*
X108154246Y-75743990D01*
X108043717Y-76299658D01*
X108043717Y-76299662D01*
X108006397Y-76487283D01*
X108043717Y-76674904D01*
X108043718Y-96608057D01*
X107493137Y-96836115D01*
X106273681Y-98055571D01*
X105613717Y-99648866D01*
X105613717Y-101373436D01*
X106273681Y-102966731D01*
X107493137Y-104186187D01*
X109086432Y-104846151D01*
X110811002Y-104846151D01*
X112404297Y-104186187D01*
X113623753Y-102966731D01*
X114283717Y-101373436D01*
X114283717Y-99648866D01*
X113623753Y-98055571D01*
X112404297Y-96836115D01*
X111853717Y-96608057D01*
X111853717Y-77276359D01*
X113717476Y-75412600D01*
X145316274Y-75412600D01*
X145503900Y-75449921D01*
X145682210Y-75414453D01*
X129185312Y-91911351D01*
X128823358Y-92153201D01*
X128581508Y-92515155D01*
X128581505Y-92515158D01*
X127865237Y-93587129D01*
X127757345Y-94129541D01*
X127613717Y-94851604D01*
X127613717Y-94851608D01*
X127528791Y-95278561D01*
X127613717Y-95705514D01*
X127613717Y-101373436D01*
X127780310Y-101775628D01*
X127865237Y-102202583D01*
X128107087Y-102564537D01*
X128273681Y-102966731D01*
X128581507Y-103274557D01*
X128823357Y-103636511D01*
X129185311Y-103878361D01*
X129493137Y-104186187D01*
X129895329Y-104352780D01*
X130257284Y-104594631D01*
X130684241Y-104679558D01*
X131086432Y-104846151D01*
X131521760Y-104846151D01*
X131948717Y-104931078D01*
X132375674Y-104846151D01*
X132811002Y-104846151D01*
X133213194Y-104679558D01*
X133640149Y-104594631D01*
X134002103Y-104352781D01*
X134404297Y-104186187D01*
X134712123Y-103878361D01*
X135074077Y-103636511D01*
X135315927Y-103274557D01*
X135623753Y-102966731D01*
X135790346Y-102564539D01*
X136032197Y-102202584D01*
X136117124Y-101775627D01*
X136283717Y-101373436D01*
X136283717Y-97074176D01*
X153457893Y-79900000D01*
X154084695Y-79900000D01*
X153827596Y-80071788D01*
X153827594Y-80071790D01*
X153465640Y-80313640D01*
X153223790Y-80675594D01*
X138685312Y-95214073D01*
X138323358Y-95455923D01*
X138081507Y-95817878D01*
X138081505Y-95817880D01*
X137842116Y-96176151D01*
X137365237Y-96889850D01*
X137113717Y-98154326D01*
X137113717Y-98154330D01*
X137028791Y-98581283D01*
X137113717Y-99008236D01*
X137113717Y-101373436D01*
X137280310Y-101775628D01*
X137365237Y-102202583D01*
X137607087Y-102564537D01*
X137773681Y-102966731D01*
X138081507Y-103274557D01*
X138323357Y-103636511D01*
X138685311Y-103878361D01*
X138993137Y-104186187D01*
X139395329Y-104352780D01*
X139757284Y-104594631D01*
X140184241Y-104679558D01*
X140586432Y-104846151D01*
X141021760Y-104846151D01*
X141448717Y-104931078D01*
X141875674Y-104846151D01*
X142311002Y-104846151D01*
X142713194Y-104679558D01*
X143140149Y-104594631D01*
X143502103Y-104352781D01*
X143904297Y-104186187D01*
X144212123Y-103878361D01*
X144574077Y-103636511D01*
X144815927Y-103274557D01*
X145123753Y-102966731D01*
X145290346Y-102564539D01*
X145532197Y-102202584D01*
X145617124Y-101775627D01*
X145783717Y-101373436D01*
X145783717Y-100376898D01*
X146685819Y-99474796D01*
X146613717Y-99648866D01*
X146613717Y-100084194D01*
X146528790Y-100511151D01*
X146613717Y-100938107D01*
X146613717Y-101373436D01*
X146780310Y-101775627D01*
X146865237Y-102202584D01*
X147107088Y-102564539D01*
X147273681Y-102966731D01*
X147581507Y-103274557D01*
X147823357Y-103636511D01*
X148185311Y-103878361D01*
X148493137Y-104186187D01*
X148895329Y-104352780D01*
X149257284Y-104594631D01*
X149684241Y-104679558D01*
X150086432Y-104846151D01*
X151410896Y-104846151D01*
X151837849Y-104931077D01*
X152264802Y-104846151D01*
X152264806Y-104846151D01*
X153529282Y-104594631D01*
X154963209Y-103636511D01*
X155205061Y-103274554D01*
X164301010Y-94178606D01*
X164301010Y-105771491D01*
X164216084Y-106198444D01*
X164301010Y-106625397D01*
X164301010Y-106625400D01*
X164510186Y-107677000D01*
X164552530Y-107889876D01*
X165194445Y-108850569D01*
X165510650Y-109323804D01*
X165872607Y-109565656D01*
X168273680Y-111966729D01*
X168273681Y-111966731D01*
X169493137Y-113186187D01*
X169895330Y-113352781D01*
X170257284Y-113594631D01*
X170684240Y-113679558D01*
X171086432Y-113846151D01*
X171521763Y-113846151D01*
X171948716Y-113931077D01*
X172375669Y-113846151D01*
X172811002Y-113846151D01*
X173213196Y-113679557D01*
X173640149Y-113594631D01*
X174002103Y-113352781D01*
X174404297Y-113186187D01*
X174712123Y-112878361D01*
X175074077Y-112636511D01*
X175315927Y-112274557D01*
X175623753Y-111966731D01*
X175790347Y-111564537D01*
X176032197Y-111202583D01*
X176117123Y-110775630D01*
X176283717Y-110373436D01*
X176283717Y-109938103D01*
X176368643Y-109511150D01*
X176283717Y-109084197D01*
X176283717Y-108648866D01*
X176117124Y-108246674D01*
X176032197Y-107819718D01*
X175790347Y-107457764D01*
X175623753Y-107055571D01*
X174404297Y-105836115D01*
X174404295Y-105836114D01*
X172971010Y-104402829D01*
X172971010Y-101835632D01*
X173126046Y-101990668D01*
X173984257Y-102346151D01*
X174913177Y-102346151D01*
X175771388Y-101990668D01*
X176428234Y-101333822D01*
X176783717Y-100475611D01*
X176783717Y-99546691D01*
X176428234Y-98688480D01*
X175771388Y-98031634D01*
X174913177Y-97676151D01*
X173984257Y-97676151D01*
X173126046Y-98031634D01*
X172971010Y-98186670D01*
X172971010Y-70982861D01*
X173055936Y-70555908D01*
X172971010Y-70128955D01*
X172971010Y-70128951D01*
X172719490Y-68864475D01*
X172497786Y-68532671D01*
X172003222Y-67792504D01*
X172003220Y-67792502D01*
X171761370Y-67430548D01*
X171399415Y-67188697D01*
X167995314Y-63784597D01*
X167753462Y-63422640D01*
X167203999Y-63055500D01*
X173400699Y-63055500D01*
X173482000Y-63071672D01*
X173563301Y-63055500D01*
X173563303Y-63055500D01*
X173804094Y-63007604D01*
X174077152Y-62825152D01*
X174123209Y-62756224D01*
X174516226Y-62363207D01*
X174585152Y-62317152D01*
X174767604Y-62044094D01*
X174815500Y-61803303D01*
X174815500Y-61803299D01*
X174831671Y-61722001D01*
X174815500Y-61640703D01*
X174815500Y-54998157D01*
X175174320Y-54639337D01*
X175387000Y-54125881D01*
X175387000Y-53570119D01*
X175174320Y-53056663D01*
X174781337Y-52663680D01*
X174267881Y-52451000D01*
X173712119Y-52451000D01*
X173198663Y-52663680D01*
X172805680Y-53056663D01*
X172720000Y-53263513D01*
X172634320Y-53056663D01*
X172241337Y-52663680D01*
X171727881Y-52451000D01*
X171172119Y-52451000D01*
X170658663Y-52663680D01*
X170265680Y-53056663D01*
X170053000Y-53570119D01*
X170053000Y-54125881D01*
X170265680Y-54639337D01*
X170624501Y-54998158D01*
X170624500Y-60364067D01*
X170600068Y-60388500D01*
X162520933Y-60388500D01*
X162578226Y-60331207D01*
X162647152Y-60285152D01*
X162829604Y-60012094D01*
X162877500Y-59771303D01*
X162877500Y-59771299D01*
X162893671Y-59690001D01*
X162877500Y-59608703D01*
X162877500Y-54998157D01*
X163236320Y-54639337D01*
X163322000Y-54432487D01*
X163407680Y-54639337D01*
X163800663Y-55032320D01*
X164314119Y-55245000D01*
X164869881Y-55245000D01*
X165383337Y-55032320D01*
X165776320Y-54639337D01*
X165989000Y-54125881D01*
X165989000Y-53570119D01*
X165776320Y-53056663D01*
X165383337Y-52663680D01*
X164869881Y-52451000D01*
X164314119Y-52451000D01*
X163800663Y-52663680D01*
X163407680Y-53056663D01*
X163322000Y-53263513D01*
X163236320Y-53056663D01*
X162843337Y-52663680D01*
X162329881Y-52451000D01*
X161774119Y-52451000D01*
X161260663Y-52663680D01*
X160867680Y-53056663D01*
X160782000Y-53263513D01*
X160696320Y-53056663D01*
X160303337Y-52663680D01*
X159789881Y-52451000D01*
X159234119Y-52451000D01*
X158720663Y-52663680D01*
X158327680Y-53056663D01*
X158242000Y-53263513D01*
X158156320Y-53056663D01*
X157763337Y-52663680D01*
X157249881Y-52451000D01*
X156694119Y-52451000D01*
X156180663Y-52663680D01*
X155787680Y-53056663D01*
X155575000Y-53570119D01*
X155575000Y-54125881D01*
X155787680Y-54639337D01*
X156146501Y-54998158D01*
X156146500Y-57316067D01*
X156122068Y-57340500D01*
X140084211Y-57340500D01*
X140032280Y-57288569D01*
X139651874Y-57131000D01*
X139240126Y-57131000D01*
X138859720Y-57288569D01*
X138568569Y-57579720D01*
X138411000Y-57960126D01*
X138411000Y-58371874D01*
X138568569Y-58752280D01*
X138859720Y-59043431D01*
X139173000Y-59173196D01*
X139173000Y-59387874D01*
X139330569Y-59768280D01*
X139621720Y-60059431D01*
X139935000Y-60189196D01*
X139935000Y-60403874D01*
X140092569Y-60784280D01*
X140383720Y-61075431D01*
X140697000Y-61205196D01*
X140697000Y-61419874D01*
X140854569Y-61800280D01*
X141145720Y-62091431D01*
X141459000Y-62221196D01*
X141459000Y-62435874D01*
X141616569Y-62816280D01*
X141907720Y-63107431D01*
X142288126Y-63265000D01*
X142699874Y-63265000D01*
X143080280Y-63107431D01*
X143132211Y-63055500D01*
X148317000Y-63055500D01*
X148317000Y-63113567D01*
X145708068Y-65722500D01*
X132464211Y-65722500D01*
X132412280Y-65670569D01*
X132031874Y-65513000D01*
X131620126Y-65513000D01*
X131239720Y-65670569D01*
X131187789Y-65722500D01*
X105794211Y-65722500D01*
X105742280Y-65670569D01*
X105361874Y-65513000D01*
X105288433Y-65513000D01*
X104273209Y-64497777D01*
X104227152Y-64428848D01*
X103954094Y-64246396D01*
X103713303Y-64198500D01*
X103713301Y-64198500D01*
X103632000Y-64182328D01*
X103550699Y-64198500D01*
X97877933Y-64198500D01*
X97599500Y-63920068D01*
X97599500Y-60210754D01*
X124901700Y-60210754D01*
X124901700Y-61656846D01*
X125455096Y-62992862D01*
X126477638Y-64015404D01*
X127813654Y-64568800D01*
X129259746Y-64568800D01*
X130595762Y-64015404D01*
X131618304Y-62992862D01*
X132171700Y-61656846D01*
X132171700Y-60210754D01*
X131618304Y-58874738D01*
X130595762Y-57852196D01*
X129259746Y-57298800D01*
X127813654Y-57298800D01*
X126477638Y-57852196D01*
X125455096Y-58874738D01*
X124901700Y-60210754D01*
X97599500Y-60210754D01*
X97599500Y-58804211D01*
X97651431Y-58752280D01*
X97809000Y-58371874D01*
X97809000Y-57960126D01*
X97651431Y-57579720D01*
X97360280Y-57288569D01*
X96979874Y-57131000D01*
X96568126Y-57131000D01*
X96187720Y-57288569D01*
X96074200Y-57402089D01*
X96051078Y-57285848D01*
X95884803Y-57037000D01*
X96051078Y-56788152D01*
X96118440Y-56449500D01*
X96118440Y-55874500D01*
X96051078Y-55535848D01*
X95859247Y-55248753D01*
X95821500Y-55223531D01*
X95821500Y-54998157D01*
X96180320Y-54639337D01*
X96393000Y-54125881D01*
X96393000Y-53570119D01*
X100711000Y-53570119D01*
X100711000Y-54125881D01*
X100923680Y-54639337D01*
X101316663Y-55032320D01*
X101830119Y-55245000D01*
X102385881Y-55245000D01*
X102899337Y-55032320D01*
X103292320Y-54639337D01*
X103378000Y-54432487D01*
X103463680Y-54639337D01*
X103856663Y-55032320D01*
X104370119Y-55245000D01*
X104925881Y-55245000D01*
X105439337Y-55032320D01*
X105832320Y-54639337D01*
X106045000Y-54125881D01*
X106045000Y-53570119D01*
X108331000Y-53570119D01*
X108331000Y-54125881D01*
X108543680Y-54639337D01*
X108936663Y-55032320D01*
X109450119Y-55245000D01*
X110005881Y-55245000D01*
X110519337Y-55032320D01*
X110912320Y-54639337D01*
X110998000Y-54432487D01*
X111083680Y-54639337D01*
X111476663Y-55032320D01*
X111990119Y-55245000D01*
X112545881Y-55245000D01*
X113059337Y-55032320D01*
X113452320Y-54639337D01*
X113665000Y-54125881D01*
X113665000Y-53570119D01*
X113454580Y-53062119D01*
X127635000Y-53062119D01*
X127635000Y-53617881D01*
X127847680Y-54131337D01*
X128240663Y-54524320D01*
X128754119Y-54737000D01*
X129309881Y-54737000D01*
X129823337Y-54524320D01*
X130216320Y-54131337D01*
X130302000Y-53924487D01*
X130387680Y-54131337D01*
X130780663Y-54524320D01*
X131294119Y-54737000D01*
X131849881Y-54737000D01*
X132363337Y-54524320D01*
X132756320Y-54131337D01*
X132842000Y-53924487D01*
X132927680Y-54131337D01*
X133320663Y-54524320D01*
X133834119Y-54737000D01*
X134389881Y-54737000D01*
X134903337Y-54524320D01*
X135296320Y-54131337D01*
X135382000Y-53924487D01*
X135467680Y-54131337D01*
X135860663Y-54524320D01*
X136374119Y-54737000D01*
X136929881Y-54737000D01*
X137443337Y-54524320D01*
X137836320Y-54131337D01*
X138049000Y-53617881D01*
X138049000Y-53570119D01*
X147955000Y-53570119D01*
X147955000Y-54125881D01*
X148167680Y-54639337D01*
X148560663Y-55032320D01*
X149074119Y-55245000D01*
X149629881Y-55245000D01*
X150143337Y-55032320D01*
X150536320Y-54639337D01*
X150622000Y-54432487D01*
X150707680Y-54639337D01*
X151100663Y-55032320D01*
X151614119Y-55245000D01*
X152169881Y-55245000D01*
X152683337Y-55032320D01*
X153076320Y-54639337D01*
X153289000Y-54125881D01*
X153289000Y-53570119D01*
X153076320Y-53056663D01*
X152683337Y-52663680D01*
X152169881Y-52451000D01*
X151614119Y-52451000D01*
X151100663Y-52663680D01*
X150707680Y-53056663D01*
X150622000Y-53263513D01*
X150536320Y-53056663D01*
X150143337Y-52663680D01*
X149629881Y-52451000D01*
X149074119Y-52451000D01*
X148560663Y-52663680D01*
X148167680Y-53056663D01*
X147955000Y-53570119D01*
X138049000Y-53570119D01*
X138049000Y-53062119D01*
X137836320Y-52548663D01*
X137443337Y-52155680D01*
X136929881Y-51943000D01*
X136374119Y-51943000D01*
X135860663Y-52155680D01*
X135467680Y-52548663D01*
X135382000Y-52755513D01*
X135296320Y-52548663D01*
X134903337Y-52155680D01*
X134389881Y-51943000D01*
X133834119Y-51943000D01*
X133320663Y-52155680D01*
X132927680Y-52548663D01*
X132842000Y-52755513D01*
X132756320Y-52548663D01*
X132363337Y-52155680D01*
X131849881Y-51943000D01*
X131294119Y-51943000D01*
X130780663Y-52155680D01*
X130387680Y-52548663D01*
X130302000Y-52755513D01*
X130216320Y-52548663D01*
X129823337Y-52155680D01*
X129309881Y-51943000D01*
X128754119Y-51943000D01*
X128240663Y-52155680D01*
X127847680Y-52548663D01*
X127635000Y-53062119D01*
X113454580Y-53062119D01*
X113452320Y-53056663D01*
X113059337Y-52663680D01*
X112545881Y-52451000D01*
X111990119Y-52451000D01*
X111476663Y-52663680D01*
X111083680Y-53056663D01*
X110998000Y-53263513D01*
X110912320Y-53056663D01*
X110519337Y-52663680D01*
X110005881Y-52451000D01*
X109450119Y-52451000D01*
X108936663Y-52663680D01*
X108543680Y-53056663D01*
X108331000Y-53570119D01*
X106045000Y-53570119D01*
X105832320Y-53056663D01*
X105439337Y-52663680D01*
X104925881Y-52451000D01*
X104370119Y-52451000D01*
X103856663Y-52663680D01*
X103463680Y-53056663D01*
X103378000Y-53263513D01*
X103292320Y-53056663D01*
X102899337Y-52663680D01*
X102385881Y-52451000D01*
X101830119Y-52451000D01*
X101316663Y-52663680D01*
X100923680Y-53056663D01*
X100711000Y-53570119D01*
X96393000Y-53570119D01*
X96180320Y-53056663D01*
X95787337Y-52663680D01*
X95273881Y-52451000D01*
X94718119Y-52451000D01*
X94204663Y-52663680D01*
X93811680Y-53056663D01*
X93599000Y-53570119D01*
X93599000Y-54125881D01*
X93811680Y-54639337D01*
X94170501Y-54998158D01*
X94170500Y-55223531D01*
X94132753Y-55248753D01*
X93940922Y-55535848D01*
X93873560Y-55874500D01*
X93873560Y-56449500D01*
X93940922Y-56788152D01*
X94107197Y-57037000D01*
X93940922Y-57285848D01*
X93873560Y-57624500D01*
X93873560Y-58199500D01*
X93940922Y-58538152D01*
X94132753Y-58825247D01*
X94170501Y-58850469D01*
X94170501Y-59051788D01*
X94118569Y-59103720D01*
X93961000Y-59484126D01*
X93961000Y-59895874D01*
X94118569Y-60276280D01*
X94170501Y-60328212D01*
X94170501Y-60497697D01*
X94170500Y-63073302D01*
X94170501Y-63073307D01*
X94170500Y-65450698D01*
X94154328Y-65532000D01*
X94170500Y-65613301D01*
X94170500Y-65613302D01*
X94218396Y-65854093D01*
X94400848Y-66127152D01*
X94469777Y-66173209D01*
X95162067Y-66865500D01*
X91908932Y-66865500D01*
X91827208Y-66783775D01*
X91827206Y-66783773D01*
X90741500Y-65698068D01*
X90741500Y-61598211D01*
X90793431Y-61546280D01*
X90951000Y-61165874D01*
X90951000Y-60754126D01*
X90793431Y-60373720D01*
X90741500Y-60321789D01*
X90741500Y-58850469D01*
X90779247Y-58825247D01*
X90971078Y-58538152D01*
X91038440Y-58199500D01*
X91038440Y-57624500D01*
X90971078Y-57285848D01*
X90804803Y-57037000D01*
X90971078Y-56788152D01*
X91038440Y-56449500D01*
X91038440Y-55874500D01*
X90971078Y-55535848D01*
X90779247Y-55248753D01*
X90741500Y-55223531D01*
X90741500Y-54998157D01*
X91100320Y-54639337D01*
X91313000Y-54125881D01*
X91313000Y-53570119D01*
X91100320Y-53056663D01*
X90707337Y-52663680D01*
X90193881Y-52451000D01*
X89638119Y-52451000D01*
X89124663Y-52663680D01*
X88731680Y-53056663D01*
X88519000Y-53570119D01*
X84201000Y-53570119D01*
X83988320Y-53056663D01*
X83595337Y-52663680D01*
X83081881Y-52451000D01*
X82526119Y-52451000D01*
X82012663Y-52663680D01*
X81619680Y-53056663D01*
X81534000Y-53263513D01*
X81448320Y-53056663D01*
X81055337Y-52663680D01*
X80541881Y-52451000D01*
X79986119Y-52451000D01*
X79472663Y-52663680D01*
X79079680Y-53056663D01*
X78994000Y-53263513D01*
X78908320Y-53056663D01*
X78515337Y-52663680D01*
X78001881Y-52451000D01*
X77446119Y-52451000D01*
X76932663Y-52663680D01*
X76539680Y-53056663D01*
X76454000Y-53263513D01*
X76368320Y-53056663D01*
X75975337Y-52663680D01*
X75461881Y-52451000D01*
X74906119Y-52451000D01*
X74392663Y-52663680D01*
X73999680Y-53056663D01*
X73914000Y-53263513D01*
X73828320Y-53056663D01*
X73435337Y-52663680D01*
X72921881Y-52451000D01*
X72366119Y-52451000D01*
X71852663Y-52663680D01*
X71459680Y-53056663D01*
X71374000Y-53263513D01*
X71288320Y-53056663D01*
X70895337Y-52663680D01*
X70381881Y-52451000D01*
X69826119Y-52451000D01*
X69312663Y-52663680D01*
X68919680Y-53056663D01*
X68834000Y-53263513D01*
X68748320Y-53056663D01*
X68355337Y-52663680D01*
X67841881Y-52451000D01*
X67286119Y-52451000D01*
X66772663Y-52663680D01*
X66379680Y-53056663D01*
X66167000Y-53570119D01*
X61849000Y-53570119D01*
X61636320Y-53056663D01*
X61243337Y-52663680D01*
X60729881Y-52451000D01*
X60174119Y-52451000D01*
X59660663Y-52663680D01*
X59267680Y-53056663D01*
X59182000Y-53263513D01*
X59096320Y-53056663D01*
X58703337Y-52663680D01*
X58189881Y-52451000D01*
X57634119Y-52451000D01*
X57120663Y-52663680D01*
X56727680Y-53056663D01*
X56642000Y-53263513D01*
X56556320Y-53056663D01*
X56163337Y-52663680D01*
X55649881Y-52451000D01*
X55094119Y-52451000D01*
X54580663Y-52663680D01*
X54187680Y-53056663D01*
X54102000Y-53263513D01*
X54016320Y-53056663D01*
X53623337Y-52663680D01*
X53109881Y-52451000D01*
X52554119Y-52451000D01*
X52040663Y-52663680D01*
X51647680Y-53056663D01*
X51562000Y-53263513D01*
X51476320Y-53056663D01*
X51083337Y-52663680D01*
X50569881Y-52451000D01*
X50014119Y-52451000D01*
X49500663Y-52663680D01*
X49107680Y-53056663D01*
X49022000Y-53263513D01*
X48936320Y-53056663D01*
X48543337Y-52663680D01*
X48029881Y-52451000D01*
X47474119Y-52451000D01*
X46960663Y-52663680D01*
X46567680Y-53056663D01*
X46482000Y-53263513D01*
X46396320Y-53056663D01*
X46003337Y-52663680D01*
X45489881Y-52451000D01*
X44934119Y-52451000D01*
X44420663Y-52663680D01*
X44027680Y-53056663D01*
X43815000Y-53570119D01*
X35762000Y-53570119D01*
X35762000Y-44742567D01*
X41582000Y-44742567D01*
X41582000Y-45681433D01*
X41941289Y-46548833D01*
X42605167Y-47212711D01*
X43472567Y-47572000D01*
X44411433Y-47572000D01*
X45278833Y-47212711D01*
X45942711Y-46548833D01*
X46302000Y-45681433D01*
X46302000Y-44742567D01*
X59362000Y-44742567D01*
X59362000Y-45681433D01*
X59721289Y-46548833D01*
X60385167Y-47212711D01*
X61252567Y-47572000D01*
X62191433Y-47572000D01*
X63058833Y-47212711D01*
X63722711Y-46548833D01*
X64008000Y-45860085D01*
X64293289Y-46548833D01*
X64957167Y-47212711D01*
X65824567Y-47572000D01*
X66763433Y-47572000D01*
X67630833Y-47212711D01*
X68294711Y-46548833D01*
X68654000Y-45681433D01*
X68654000Y-44742567D01*
X81714000Y-44742567D01*
X81714000Y-45681433D01*
X82073289Y-46548833D01*
X82737167Y-47212711D01*
X83604567Y-47572000D01*
X84543433Y-47572000D01*
X85410833Y-47212711D01*
X86074711Y-46548833D01*
X86360000Y-45860085D01*
X86645289Y-46548833D01*
X87309167Y-47212711D01*
X88176567Y-47572000D01*
X89115433Y-47572000D01*
X89982833Y-47212711D01*
X90646711Y-46548833D01*
X91006000Y-45681433D01*
X91006000Y-44742567D01*
X93906000Y-44742567D01*
X93906000Y-45681433D01*
X94265289Y-46548833D01*
X94929167Y-47212711D01*
X95796567Y-47572000D01*
X96735433Y-47572000D01*
X97602833Y-47212711D01*
X98266711Y-46548833D01*
X98552000Y-45860085D01*
X98837289Y-46548833D01*
X99501167Y-47212711D01*
X100368567Y-47572000D01*
X101307433Y-47572000D01*
X102174833Y-47212711D01*
X102838711Y-46548833D01*
X103198000Y-45681433D01*
X103198000Y-44742567D01*
X111178000Y-44742567D01*
X111178000Y-45681433D01*
X111537289Y-46548833D01*
X112201167Y-47212711D01*
X113068567Y-47572000D01*
X114007433Y-47572000D01*
X114874833Y-47212711D01*
X115538711Y-46548833D01*
X115898000Y-45681433D01*
X115898000Y-44742567D01*
X115766923Y-44426119D01*
X117475000Y-44426119D01*
X117475000Y-44981881D01*
X117687680Y-45495337D01*
X118080663Y-45888320D01*
X118594119Y-46101000D01*
X119149881Y-46101000D01*
X119663337Y-45888320D01*
X120056320Y-45495337D01*
X120142000Y-45288487D01*
X120227680Y-45495337D01*
X120620663Y-45888320D01*
X121134119Y-46101000D01*
X121689881Y-46101000D01*
X122203337Y-45888320D01*
X122596320Y-45495337D01*
X122682000Y-45288487D01*
X122767680Y-45495337D01*
X123160663Y-45888320D01*
X123674119Y-46101000D01*
X124229881Y-46101000D01*
X124743337Y-45888320D01*
X125136320Y-45495337D01*
X125222000Y-45288487D01*
X125307680Y-45495337D01*
X125700663Y-45888320D01*
X126214119Y-46101000D01*
X126769881Y-46101000D01*
X127283337Y-45888320D01*
X127676320Y-45495337D01*
X127762000Y-45288487D01*
X127847680Y-45495337D01*
X128240663Y-45888320D01*
X128754119Y-46101000D01*
X129309881Y-46101000D01*
X129823337Y-45888320D01*
X130216320Y-45495337D01*
X130302000Y-45288487D01*
X130387680Y-45495337D01*
X130780663Y-45888320D01*
X131294119Y-46101000D01*
X131849881Y-46101000D01*
X132363337Y-45888320D01*
X132756320Y-45495337D01*
X132842000Y-45288487D01*
X132927680Y-45495337D01*
X133320663Y-45888320D01*
X133834119Y-46101000D01*
X134389881Y-46101000D01*
X134903337Y-45888320D01*
X135296320Y-45495337D01*
X135382000Y-45288487D01*
X135467680Y-45495337D01*
X135860663Y-45888320D01*
X136374119Y-46101000D01*
X136929881Y-46101000D01*
X137443337Y-45888320D01*
X137836320Y-45495337D01*
X138049000Y-44981881D01*
X138049000Y-44742567D01*
X145722000Y-44742567D01*
X145722000Y-45681433D01*
X146081289Y-46548833D01*
X146745167Y-47212711D01*
X147612567Y-47572000D01*
X148551433Y-47572000D01*
X149418833Y-47212711D01*
X150082711Y-46548833D01*
X150442000Y-45681433D01*
X150442000Y-44742567D01*
X163502000Y-44742567D01*
X163502000Y-45681433D01*
X163861289Y-46548833D01*
X164525167Y-47212711D01*
X165392567Y-47572000D01*
X166331433Y-47572000D01*
X167198833Y-47212711D01*
X167862711Y-46548833D01*
X168084328Y-46013801D01*
X168304289Y-46544833D01*
X168968167Y-47208711D01*
X169835567Y-47568000D01*
X170774433Y-47568000D01*
X171641833Y-47208711D01*
X172305711Y-46544833D01*
X172665000Y-45677433D01*
X172665000Y-44742567D01*
X172773000Y-44742567D01*
X172773000Y-45681433D01*
X173132289Y-46548833D01*
X173796167Y-47212711D01*
X174663567Y-47572000D01*
X175602433Y-47572000D01*
X176469833Y-47212711D01*
X177133711Y-46548833D01*
X177493000Y-45681433D01*
X177493000Y-44742567D01*
X177133711Y-43875167D01*
X176469833Y-43211289D01*
X175602433Y-42852000D01*
X174663567Y-42852000D01*
X173796167Y-43211289D01*
X173132289Y-43875167D01*
X172773000Y-44742567D01*
X172665000Y-44742567D01*
X172665000Y-44738567D01*
X172305711Y-43871167D01*
X171641833Y-43207289D01*
X170774433Y-42848000D01*
X169835567Y-42848000D01*
X168968167Y-43207289D01*
X168304289Y-43871167D01*
X168082672Y-44406199D01*
X167862711Y-43875167D01*
X167198833Y-43211289D01*
X166331433Y-42852000D01*
X165392567Y-42852000D01*
X164525167Y-43211289D01*
X163861289Y-43875167D01*
X163502000Y-44742567D01*
X150442000Y-44742567D01*
X150082711Y-43875167D01*
X149418833Y-43211289D01*
X148551433Y-42852000D01*
X147612567Y-42852000D01*
X146745167Y-43211289D01*
X146081289Y-43875167D01*
X145722000Y-44742567D01*
X138049000Y-44742567D01*
X138049000Y-44426119D01*
X137836320Y-43912663D01*
X137443337Y-43519680D01*
X136929881Y-43307000D01*
X136374119Y-43307000D01*
X135860663Y-43519680D01*
X135467680Y-43912663D01*
X135382000Y-44119513D01*
X135296320Y-43912663D01*
X134903337Y-43519680D01*
X134389881Y-43307000D01*
X133834119Y-43307000D01*
X133320663Y-43519680D01*
X132927680Y-43912663D01*
X132842000Y-44119513D01*
X132756320Y-43912663D01*
X132363337Y-43519680D01*
X131849881Y-43307000D01*
X131294119Y-43307000D01*
X130780663Y-43519680D01*
X130387680Y-43912663D01*
X130302000Y-44119513D01*
X130216320Y-43912663D01*
X129823337Y-43519680D01*
X129309881Y-43307000D01*
X128754119Y-43307000D01*
X128240663Y-43519680D01*
X127847680Y-43912663D01*
X127762000Y-44119513D01*
X127676320Y-43912663D01*
X127283337Y-43519680D01*
X126769881Y-43307000D01*
X126214119Y-43307000D01*
X125700663Y-43519680D01*
X125307680Y-43912663D01*
X125222000Y-44119513D01*
X125136320Y-43912663D01*
X124743337Y-43519680D01*
X124229881Y-43307000D01*
X123674119Y-43307000D01*
X123160663Y-43519680D01*
X122767680Y-43912663D01*
X122682000Y-44119513D01*
X122596320Y-43912663D01*
X122203337Y-43519680D01*
X121689881Y-43307000D01*
X121134119Y-43307000D01*
X120620663Y-43519680D01*
X120227680Y-43912663D01*
X120142000Y-44119513D01*
X120056320Y-43912663D01*
X119663337Y-43519680D01*
X119149881Y-43307000D01*
X118594119Y-43307000D01*
X118080663Y-43519680D01*
X117687680Y-43912663D01*
X117475000Y-44426119D01*
X115766923Y-44426119D01*
X115538711Y-43875167D01*
X114874833Y-43211289D01*
X114007433Y-42852000D01*
X113068567Y-42852000D01*
X112201167Y-43211289D01*
X111537289Y-43875167D01*
X111178000Y-44742567D01*
X103198000Y-44742567D01*
X102838711Y-43875167D01*
X102174833Y-43211289D01*
X101307433Y-42852000D01*
X100368567Y-42852000D01*
X99501167Y-43211289D01*
X98837289Y-43875167D01*
X98552000Y-44563915D01*
X98266711Y-43875167D01*
X97602833Y-43211289D01*
X96735433Y-42852000D01*
X95796567Y-42852000D01*
X94929167Y-43211289D01*
X94265289Y-43875167D01*
X93906000Y-44742567D01*
X91006000Y-44742567D01*
X90646711Y-43875167D01*
X89982833Y-43211289D01*
X89115433Y-42852000D01*
X88176567Y-42852000D01*
X87309167Y-43211289D01*
X86645289Y-43875167D01*
X86360000Y-44563915D01*
X86074711Y-43875167D01*
X85410833Y-43211289D01*
X84543433Y-42852000D01*
X83604567Y-42852000D01*
X82737167Y-43211289D01*
X82073289Y-43875167D01*
X81714000Y-44742567D01*
X68654000Y-44742567D01*
X68294711Y-43875167D01*
X67630833Y-43211289D01*
X66763433Y-42852000D01*
X65824567Y-42852000D01*
X64957167Y-43211289D01*
X64293289Y-43875167D01*
X64008000Y-44563915D01*
X63722711Y-43875167D01*
X63058833Y-43211289D01*
X62191433Y-42852000D01*
X61252567Y-42852000D01*
X60385167Y-43211289D01*
X59721289Y-43875167D01*
X59362000Y-44742567D01*
X46302000Y-44742567D01*
X45942711Y-43875167D01*
X45278833Y-43211289D01*
X44411433Y-42852000D01*
X43472567Y-42852000D01*
X42605167Y-43211289D01*
X41941289Y-43875167D01*
X41582000Y-44742567D01*
X35762000Y-44742567D01*
X35762000Y-42595581D01*
X35822090Y-42175991D01*
X35976381Y-41836648D01*
X36219712Y-41554248D01*
X36532523Y-41351494D01*
X36913184Y-41237652D01*
X37110350Y-41223000D01*
X177241419Y-41223000D01*
X177661009Y-41283090D01*
X177661009Y-41283090D01*
G37*
X177661009Y-41283090D02*
X178000352Y-41437381D01*
X178282752Y-41680712D01*
X178485506Y-41993523D01*
X178599348Y-42374184D01*
X178614001Y-42571363D01*
X178614000Y-147269419D01*
X178553910Y-147689009D01*
X178399619Y-148028352D01*
X178156288Y-148310752D01*
X177843479Y-148513506D01*
X177462815Y-148627348D01*
X177265649Y-148642000D01*
X161474074Y-148642000D01*
X161448085Y-148647170D01*
X161191033Y-148666272D01*
X161120288Y-148681826D01*
X161048544Y-148691654D01*
X161040219Y-148694088D01*
X160488241Y-148859164D01*
X160400769Y-148899582D01*
X160312806Y-148938929D01*
X160305502Y-148943601D01*
X160305498Y-148943603D01*
X160305499Y-148943603D01*
X159822040Y-149256966D01*
X159749447Y-149320293D01*
X159676045Y-149382763D01*
X159670343Y-149389300D01*
X159294266Y-149825759D01*
X159242347Y-149906942D01*
X159189446Y-149987475D01*
X159185808Y-149995350D01*
X158947347Y-150519817D01*
X158920300Y-150612309D01*
X158892129Y-150704452D01*
X158890847Y-150713031D01*
X158811893Y-151264340D01*
X158802000Y-151314075D01*
X158802001Y-158901281D01*
X158716491Y-158927423D01*
X158624033Y-158954460D01*
X158616159Y-158958098D01*
X158094644Y-159202948D01*
X158014075Y-159255872D01*
X157932927Y-159307768D01*
X157926390Y-159313470D01*
X157494558Y-159694851D01*
X157432096Y-159768244D01*
X157368760Y-159840847D01*
X157364087Y-159848154D01*
X157056654Y-160335407D01*
X157017298Y-160423387D01*
X156976889Y-160510840D01*
X156974457Y-160519160D01*
X156974454Y-160519166D01*
X156974453Y-160519173D01*
X156816134Y-161073118D01*
X156803056Y-161168586D01*
X156788813Y-161263890D01*
X156788813Y-161272564D01*
X156792333Y-161848687D01*
X156806588Y-161944068D01*
X156819654Y-162039455D01*
X156822088Y-162047781D01*
X156987164Y-162599758D01*
X157027591Y-162687250D01*
X157066930Y-162775194D01*
X157071603Y-162782501D01*
X157384966Y-163265961D01*
X157448328Y-163338594D01*
X157510763Y-163411955D01*
X157517296Y-163417654D01*
X157517300Y-163417658D01*
X157517305Y-163417661D01*
X157953759Y-163793734D01*
X158034942Y-163845653D01*
X158115475Y-163898554D01*
X158123346Y-163902190D01*
X158123349Y-163902192D01*
X158123352Y-163902193D01*
X158647817Y-164140653D01*
X158740309Y-164167700D01*
X158802000Y-164186561D01*
X158802001Y-172161412D01*
X158741910Y-172581009D01*
X158587619Y-172920352D01*
X158344288Y-173202752D01*
X158031479Y-173405506D01*
X157650815Y-173519348D01*
X157453649Y-173534000D01*
X37134581Y-173534000D01*
X36714991Y-173473910D01*
X36375648Y-173319619D01*
X36093248Y-173076288D01*
X35890494Y-172763479D01*
X35776652Y-172382815D01*
X35762000Y-172185649D01*
X35762000Y-164186719D01*
X35847509Y-164160577D01*
X35939967Y-164133540D01*
X35947841Y-164129902D01*
X36469356Y-163885052D01*
X36549925Y-163832128D01*
X36631073Y-163780232D01*
X36637610Y-163774530D01*
X37069442Y-163393149D01*
X37131887Y-163319776D01*
X37195240Y-163247153D01*
X37199913Y-163239846D01*
X37507346Y-162752593D01*
X37546687Y-162664645D01*
X37587111Y-162577160D01*
X37589545Y-162568835D01*
X37747866Y-162014882D01*
X37760943Y-161919421D01*
X37775187Y-161824111D01*
X37775187Y-161815436D01*
X37771667Y-161239313D01*
X37757414Y-161143943D01*
X37744346Y-161048544D01*
X37741912Y-161040219D01*
X37576836Y-160488241D01*
X37536418Y-160400769D01*
X37497071Y-160312806D01*
X37492397Y-160305499D01*
X37179034Y-159822040D01*
X37115707Y-159749447D01*
X37053237Y-159676045D01*
X37046700Y-159670343D01*
X36610241Y-159294266D01*
X36529058Y-159242347D01*
X36448525Y-159189446D01*
X36440654Y-159185810D01*
X36440651Y-159185808D01*
X36440648Y-159185807D01*
X35916183Y-158947347D01*
X35823691Y-158920300D01*
X35762000Y-158901439D01*
X35762000Y-143046691D01*
X36613717Y-143046691D01*
X36613717Y-143975611D01*
X36969200Y-144833822D01*
X37626046Y-145490668D01*
X38484257Y-145846151D01*
X39413177Y-145846151D01*
X40271388Y-145490668D01*
X40928234Y-144833822D01*
X41088972Y-144445766D01*
X54523749Y-144445766D01*
X54523749Y-145036536D01*
X54749827Y-145582336D01*
X55167564Y-146000073D01*
X55713364Y-146226151D01*
X56304134Y-146226151D01*
X56849934Y-146000073D01*
X57267671Y-145582336D01*
X57278749Y-145555591D01*
X57289827Y-145582336D01*
X57707564Y-146000073D01*
X58253364Y-146226151D01*
X58844134Y-146226151D01*
X59389934Y-146000073D01*
X59807671Y-145582336D01*
X59818749Y-145555591D01*
X59829827Y-145582336D01*
X60247564Y-146000073D01*
X60793364Y-146226151D01*
X61384134Y-146226151D01*
X61929934Y-146000073D01*
X62347671Y-145582336D01*
X62358749Y-145555591D01*
X62369827Y-145582336D01*
X62787564Y-146000073D01*
X63333364Y-146226151D01*
X63924134Y-146226151D01*
X64469934Y-146000073D01*
X64887671Y-145582336D01*
X64898749Y-145555591D01*
X64909827Y-145582336D01*
X65327564Y-146000073D01*
X65873364Y-146226151D01*
X66464134Y-146226151D01*
X67009934Y-146000073D01*
X67427671Y-145582336D01*
X67438749Y-145555591D01*
X67449827Y-145582336D01*
X67867564Y-146000073D01*
X68413364Y-146226151D01*
X69004134Y-146226151D01*
X69549934Y-146000073D01*
X69967671Y-145582336D01*
X69978749Y-145555591D01*
X69989827Y-145582336D01*
X70407564Y-146000073D01*
X70953364Y-146226151D01*
X71544134Y-146226151D01*
X72089934Y-146000073D01*
X72507671Y-145582336D01*
X72518749Y-145555591D01*
X72529827Y-145582336D01*
X72947564Y-146000073D01*
X73493364Y-146226151D01*
X74084134Y-146226151D01*
X74629934Y-146000073D01*
X75047671Y-145582336D01*
X75058749Y-145555591D01*
X75069827Y-145582336D01*
X75487564Y-146000073D01*
X76033364Y-146226151D01*
X76624134Y-146226151D01*
X77169934Y-146000073D01*
X77587671Y-145582336D01*
X77598749Y-145555591D01*
X77609827Y-145582336D01*
X78027564Y-146000073D01*
X78573364Y-146226151D01*
X79164134Y-146226151D01*
X79709934Y-146000073D01*
X80127671Y-145582336D01*
X80138749Y-145555591D01*
X80149827Y-145582336D01*
X80567564Y-146000073D01*
X81113364Y-146226151D01*
X81704134Y-146226151D01*
X82249934Y-146000073D01*
X82667671Y-145582336D01*
X82678749Y-145555591D01*
X82689827Y-145582336D01*
X83107564Y-146000073D01*
X83653364Y-146226151D01*
X84244134Y-146226151D01*
X84789934Y-146000073D01*
X85207671Y-145582336D01*
X85433749Y-145036536D01*
X85433749Y-144445766D01*
X119583717Y-144445766D01*
X119583717Y-145036536D01*
X119809795Y-145582336D01*
X120227532Y-146000073D01*
X120773332Y-146226151D01*
X121364102Y-146226151D01*
X121909902Y-146000073D01*
X122327639Y-145582336D01*
X122338717Y-145555591D01*
X122349795Y-145582336D01*
X122767532Y-146000073D01*
X123313332Y-146226151D01*
X123904102Y-146226151D01*
X124449902Y-146000073D01*
X124867639Y-145582336D01*
X124878717Y-145555591D01*
X124889795Y-145582336D01*
X125307532Y-146000073D01*
X125853332Y-146226151D01*
X126444102Y-146226151D01*
X126989902Y-146000073D01*
X127407639Y-145582336D01*
X127418717Y-145555591D01*
X127429795Y-145582336D01*
X127847532Y-146000073D01*
X128393332Y-146226151D01*
X128984102Y-146226151D01*
X129529902Y-146000073D01*
X129947639Y-145582336D01*
X129958717Y-145555591D01*
X129969795Y-145582336D01*
X130387532Y-146000073D01*
X130933332Y-146226151D01*
X131524102Y-146226151D01*
X132069902Y-146000073D01*
X132487639Y-145582336D01*
X132498717Y-145555591D01*
X132509795Y-145582336D01*
X132927532Y-146000073D01*
X133473332Y-146226151D01*
X134064102Y-146226151D01*
X134609902Y-146000073D01*
X135027639Y-145582336D01*
X135038717Y-145555591D01*
X135049795Y-145582336D01*
X135467532Y-146000073D01*
X136013332Y-146226151D01*
X136604102Y-146226151D01*
X137149902Y-146000073D01*
X137567639Y-145582336D01*
X137578717Y-145555591D01*
X137589795Y-145582336D01*
X138007532Y-146000073D01*
X138553332Y-146226151D01*
X139144102Y-146226151D01*
X139689902Y-146000073D01*
X140107639Y-145582336D01*
X140118717Y-145555591D01*
X140129795Y-145582336D01*
X140547532Y-146000073D01*
X141093332Y-146226151D01*
X141684102Y-146226151D01*
X142229902Y-146000073D01*
X142647639Y-145582336D01*
X142658717Y-145555591D01*
X142669795Y-145582336D01*
X143087532Y-146000073D01*
X143633332Y-146226151D01*
X144224102Y-146226151D01*
X144769902Y-146000073D01*
X145187639Y-145582336D01*
X145198717Y-145555591D01*
X145209795Y-145582336D01*
X145627532Y-146000073D01*
X146173332Y-146226151D01*
X146764102Y-146226151D01*
X147309902Y-146000073D01*
X147727639Y-145582336D01*
X147738717Y-145555591D01*
X147749795Y-145582336D01*
X148167532Y-146000073D01*
X148713332Y-146226151D01*
X149304102Y-146226151D01*
X149849902Y-146000073D01*
X150267639Y-145582336D01*
X150278717Y-145555591D01*
X150289795Y-145582336D01*
X150707532Y-146000073D01*
X151253332Y-146226151D01*
X151844102Y-146226151D01*
X152389902Y-146000073D01*
X152807639Y-145582336D01*
X153033717Y-145036536D01*
X153033717Y-144445766D01*
X155143717Y-144445766D01*
X155143717Y-145036536D01*
X155369795Y-145582336D01*
X155787532Y-146000073D01*
X156333332Y-146226151D01*
X156924102Y-146226151D01*
X157469902Y-146000073D01*
X157887639Y-145582336D01*
X157898717Y-145555591D01*
X157909795Y-145582336D01*
X158327532Y-146000073D01*
X158873332Y-146226151D01*
X159464102Y-146226151D01*
X160009902Y-146000073D01*
X160427639Y-145582336D01*
X160653717Y-145036536D01*
X160653717Y-144445766D01*
X162763717Y-144445766D01*
X162763717Y-145036536D01*
X162989795Y-145582336D01*
X163407532Y-146000073D01*
X163953332Y-146226151D01*
X164544102Y-146226151D01*
X165089902Y-146000073D01*
X165507639Y-145582336D01*
X165733717Y-145036536D01*
X165733717Y-144445766D01*
X165507639Y-143899966D01*
X165089902Y-143482229D01*
X164544102Y-143256151D01*
X163953332Y-143256151D01*
X163407532Y-143482229D01*
X162989795Y-143899966D01*
X162763717Y-144445766D01*
X160653717Y-144445766D01*
X160427639Y-143899966D01*
X160009902Y-143482229D01*
X159464102Y-143256151D01*
X158873332Y-143256151D01*
X158327532Y-143482229D01*
X157909795Y-143899966D01*
X157898717Y-143926711D01*
X157887639Y-143899966D01*
X157469902Y-143482229D01*
X156924102Y-143256151D01*
X156333332Y-143256151D01*
X155787532Y-143482229D01*
X155369795Y-143899966D01*
X155143717Y-144445766D01*
X153033717Y-144445766D01*
X152807639Y-143899966D01*
X152389902Y-143482229D01*
X151844102Y-143256151D01*
X151253332Y-143256151D01*
X150707532Y-143482229D01*
X150289795Y-143899966D01*
X150278717Y-143926711D01*
X150267639Y-143899966D01*
X149849902Y-143482229D01*
X149304102Y-143256151D01*
X148713332Y-143256151D01*
X148167532Y-143482229D01*
X147749795Y-143899966D01*
X147738717Y-143926711D01*
X147727639Y-143899966D01*
X147309902Y-143482229D01*
X146764102Y-143256151D01*
X146173332Y-143256151D01*
X145627532Y-143482229D01*
X145209795Y-143899966D01*
X145198717Y-143926711D01*
X145187639Y-143899966D01*
X144769902Y-143482229D01*
X144224102Y-143256151D01*
X143633332Y-143256151D01*
X143087532Y-143482229D01*
X142669795Y-143899966D01*
X142658717Y-143926711D01*
X142647639Y-143899966D01*
X142229902Y-143482229D01*
X141684102Y-143256151D01*
X141093332Y-143256151D01*
X140547532Y-143482229D01*
X140129795Y-143899966D01*
X140118717Y-143926711D01*
X140107639Y-143899966D01*
X139689902Y-143482229D01*
X139144102Y-143256151D01*
X138553332Y-143256151D01*
X138007532Y-143482229D01*
X137589795Y-143899966D01*
X137578717Y-143926711D01*
X137567639Y-143899966D01*
X137149902Y-143482229D01*
X136604102Y-143256151D01*
X136013332Y-143256151D01*
X135467532Y-143482229D01*
X135049795Y-143899966D01*
X135038717Y-143926711D01*
X135027639Y-143899966D01*
X134609902Y-143482229D01*
X134064102Y-143256151D01*
X133473332Y-143256151D01*
X132927532Y-143482229D01*
X132509795Y-143899966D01*
X132498717Y-143926711D01*
X132487639Y-143899966D01*
X132069902Y-143482229D01*
X131524102Y-143256151D01*
X130933332Y-143256151D01*
X130387532Y-143482229D01*
X129969795Y-143899966D01*
X129958717Y-143926711D01*
X129947639Y-143899966D01*
X129529902Y-143482229D01*
X128984102Y-143256151D01*
X128393332Y-143256151D01*
X127847532Y-143482229D01*
X127429795Y-143899966D01*
X127418717Y-143926711D01*
X127407639Y-143899966D01*
X126989902Y-143482229D01*
X126444102Y-143256151D01*
X125853332Y-143256151D01*
X125307532Y-143482229D01*
X124889795Y-143899966D01*
X124878717Y-143926711D01*
X124867639Y-143899966D01*
X124449902Y-143482229D01*
X123904102Y-143256151D01*
X123313332Y-143256151D01*
X122767532Y-143482229D01*
X122349795Y-143899966D01*
X122338717Y-143926711D01*
X122327639Y-143899966D01*
X121909902Y-143482229D01*
X121364102Y-143256151D01*
X120773332Y-143256151D01*
X120227532Y-143482229D01*
X119809795Y-143899966D01*
X119583717Y-144445766D01*
X85433749Y-144445766D01*
X85207671Y-143899966D01*
X84789934Y-143482229D01*
X84244134Y-143256151D01*
X83653364Y-143256151D01*
X83107564Y-143482229D01*
X82689827Y-143899966D01*
X82678749Y-143926711D01*
X82667671Y-143899966D01*
X82249934Y-143482229D01*
X81704134Y-143256151D01*
X81113364Y-143256151D01*
X80567564Y-143482229D01*
X80149827Y-143899966D01*
X80138749Y-143926711D01*
X80127671Y-143899966D01*
X79709934Y-143482229D01*
X79164134Y-143256151D01*
X78573364Y-143256151D01*
X78027564Y-143482229D01*
X77609827Y-143899966D01*
X77598749Y-143926711D01*
X77587671Y-143899966D01*
X77169934Y-143482229D01*
X76624134Y-143256151D01*
X76033364Y-143256151D01*
X75487564Y-143482229D01*
X75069827Y-143899966D01*
X75058749Y-143926711D01*
X75047671Y-143899966D01*
X74629934Y-143482229D01*
X74084134Y-143256151D01*
X73493364Y-143256151D01*
X72947564Y-143482229D01*
X72529827Y-143899966D01*
X72518749Y-143926711D01*
X72507671Y-143899966D01*
X72089934Y-143482229D01*
X71544134Y-143256151D01*
X70953364Y-143256151D01*
X70407564Y-143482229D01*
X69989827Y-143899966D01*
X69978749Y-143926711D01*
X69967671Y-143899966D01*
X69549934Y-143482229D01*
X69004134Y-143256151D01*
X68413364Y-143256151D01*
X67867564Y-143482229D01*
X67449827Y-143899966D01*
X67438749Y-143926711D01*
X67427671Y-143899966D01*
X67009934Y-143482229D01*
X66464134Y-143256151D01*
X65873364Y-143256151D01*
X65327564Y-143482229D01*
X64909827Y-143899966D01*
X64898749Y-143926711D01*
X64887671Y-143899966D01*
X64469934Y-143482229D01*
X63924134Y-143256151D01*
X63333364Y-143256151D01*
X62787564Y-143482229D01*
X62369827Y-143899966D01*
X62358749Y-143926711D01*
X62347671Y-143899966D01*
X61929934Y-143482229D01*
X61384134Y-143256151D01*
X60793364Y-143256151D01*
X60247564Y-143482229D01*
X59829827Y-143899966D01*
X59818749Y-143926711D01*
X59807671Y-143899966D01*
X59389934Y-143482229D01*
X58844134Y-143256151D01*
X58253364Y-143256151D01*
X57707564Y-143482229D01*
X57289827Y-143899966D01*
X57278749Y-143926711D01*
X57267671Y-143899966D01*
X56849934Y-143482229D01*
X56304134Y-143256151D01*
X55713364Y-143256151D01*
X55167564Y-143482229D01*
X54749827Y-143899966D01*
X54523749Y-144445766D01*
X41088972Y-144445766D01*
X41283717Y-143975611D01*
X41283717Y-143046691D01*
X172113717Y-143046691D01*
X172113717Y-143975611D01*
X172469200Y-144833822D01*
X173126046Y-145490668D01*
X173984257Y-145846151D01*
X174913177Y-145846151D01*
X175771388Y-145490668D01*
X176428234Y-144833822D01*
X176783717Y-143975611D01*
X176783717Y-143046691D01*
X176428234Y-142188480D01*
X175771388Y-141531634D01*
X174913177Y-141176151D01*
X173984257Y-141176151D01*
X173126046Y-141531634D01*
X172469200Y-142188480D01*
X172113717Y-143046691D01*
X41283717Y-143046691D01*
X40928234Y-142188480D01*
X40271388Y-141531634D01*
X39413177Y-141176151D01*
X38484257Y-141176151D01*
X37626046Y-141531634D01*
X36969200Y-142188480D01*
X36613717Y-143046691D01*
X35762000Y-143046691D01*
X35762000Y-133144126D01*
X102089000Y-133144126D01*
X102089000Y-133555874D01*
X102246569Y-133936280D01*
X102537720Y-134227431D01*
X102918126Y-134385000D01*
X103117064Y-134385000D01*
X103105000Y-134414126D01*
X103105000Y-134825874D01*
X103262569Y-135206280D01*
X103553720Y-135497431D01*
X103934126Y-135655000D01*
X104133064Y-135655000D01*
X104121000Y-135684126D01*
X104121000Y-136095874D01*
X104278569Y-136476280D01*
X104569720Y-136767431D01*
X104950126Y-136925000D01*
X105361874Y-136925000D01*
X105742280Y-136767431D01*
X105794211Y-136715500D01*
X163699789Y-136715500D01*
X163751720Y-136767431D01*
X164132126Y-136925000D01*
X164543874Y-136925000D01*
X164924280Y-136767431D01*
X165215431Y-136476280D01*
X165373000Y-136095874D01*
X165373000Y-135684126D01*
X165215431Y-135303720D01*
X164924280Y-135012569D01*
X164543874Y-134855000D01*
X164132126Y-134855000D01*
X163751720Y-135012569D01*
X163699789Y-135064500D01*
X136826158Y-135064500D01*
X136925000Y-134825874D01*
X136925000Y-134414126D01*
X136826158Y-134175500D01*
X137791789Y-134175500D01*
X137843720Y-134227431D01*
X138224126Y-134385000D01*
X138635874Y-134385000D01*
X139016280Y-134227431D01*
X139307431Y-133936280D01*
X139465000Y-133555874D01*
X139465000Y-133144126D01*
X139366158Y-132905500D01*
X140331789Y-132905500D01*
X140383720Y-132957431D01*
X140764126Y-133115000D01*
X141175874Y-133115000D01*
X141556280Y-132957431D01*
X141847431Y-132666280D01*
X142005000Y-132285874D01*
X142005000Y-131889500D01*
X142871789Y-131889500D01*
X142923720Y-131941431D01*
X143304126Y-132099000D01*
X143715874Y-132099000D01*
X144096280Y-131941431D01*
X144387431Y-131650280D01*
X144545000Y-131269874D01*
X144545000Y-130873500D01*
X145411789Y-130873500D01*
X145463720Y-130925431D01*
X145844126Y-131083000D01*
X146255874Y-131083000D01*
X146636280Y-130925431D01*
X146927431Y-130634280D01*
X147085000Y-130253874D01*
X147085000Y-129857500D01*
X147951789Y-129857500D01*
X148003720Y-129909431D01*
X148384126Y-130067000D01*
X148795874Y-130067000D01*
X149176280Y-129909431D01*
X149467431Y-129618280D01*
X149625000Y-129237874D01*
X149625000Y-128841500D01*
X150491789Y-128841500D01*
X150543720Y-128893431D01*
X150924126Y-129051000D01*
X151335874Y-129051000D01*
X151716280Y-128893431D01*
X152007431Y-128602280D01*
X152165000Y-128221874D01*
X152165000Y-127810126D01*
X152007431Y-127429720D01*
X151716280Y-127138569D01*
X151335874Y-126981000D01*
X150924126Y-126981000D01*
X150543720Y-127138569D01*
X150491789Y-127190500D01*
X128146211Y-127190500D01*
X128094280Y-127138569D01*
X127713874Y-126981000D01*
X127302126Y-126981000D01*
X126921720Y-127138569D01*
X126630569Y-127429720D01*
X126473000Y-127810126D01*
X126473000Y-128024804D01*
X126159720Y-128154569D01*
X125868569Y-128445720D01*
X125711000Y-128826126D01*
X125711000Y-129040804D01*
X125397720Y-129170569D01*
X125106569Y-129461720D01*
X124949000Y-129842126D01*
X124949000Y-130056804D01*
X124635720Y-130186569D01*
X124344569Y-130477720D01*
X124187000Y-130858126D01*
X124187000Y-131072804D01*
X123873720Y-131202569D01*
X123582569Y-131493720D01*
X123425000Y-131874126D01*
X123425000Y-132285874D01*
X123523842Y-132524500D01*
X103762211Y-132524500D01*
X103710280Y-132472569D01*
X103329874Y-132315000D01*
X102918126Y-132315000D01*
X102537720Y-132472569D01*
X102246569Y-132763720D01*
X102089000Y-133144126D01*
X35762000Y-133144126D01*
X35762000Y-124254126D01*
X52305000Y-124254126D01*
X52305000Y-124665874D01*
X52462569Y-125046280D01*
X52753720Y-125337431D01*
X53134126Y-125495000D01*
X53545874Y-125495000D01*
X53926280Y-125337431D01*
X54217431Y-125046280D01*
X54375000Y-124665874D01*
X54375000Y-124254126D01*
X54217431Y-123873720D01*
X53926280Y-123582569D01*
X53545874Y-123425000D01*
X53134126Y-123425000D01*
X52753720Y-123582569D01*
X52462569Y-123873720D01*
X52305000Y-124254126D01*
X35762000Y-124254126D01*
X35762000Y-123238126D01*
X120885000Y-123238126D01*
X120885000Y-123649874D01*
X121042569Y-124030280D01*
X121333720Y-124321431D01*
X121714126Y-124479000D01*
X121787310Y-124479000D01*
X121832848Y-124547152D01*
X121955969Y-124629419D01*
X121901000Y-124762126D01*
X121901000Y-125173874D01*
X122058569Y-125554280D01*
X122349720Y-125845431D01*
X122730126Y-126003000D01*
X122803310Y-126003000D01*
X122848848Y-126071152D01*
X123121906Y-126253604D01*
X123362697Y-126301500D01*
X123362701Y-126301500D01*
X123443999Y-126317671D01*
X123525297Y-126301500D01*
X155571789Y-126301500D01*
X155623720Y-126353431D01*
X156004126Y-126511000D01*
X156415874Y-126511000D01*
X156796280Y-126353431D01*
X157087431Y-126062280D01*
X157245000Y-125681874D01*
X157245000Y-125270126D01*
X157087431Y-124889720D01*
X156975211Y-124777500D01*
X158111789Y-124777500D01*
X158163720Y-124829431D01*
X158544126Y-124987000D01*
X158955874Y-124987000D01*
X159336280Y-124829431D01*
X159627431Y-124538280D01*
X159785000Y-124157874D01*
X159785000Y-123746126D01*
X159627431Y-123365720D01*
X159336280Y-123074569D01*
X158955874Y-122917000D01*
X158544126Y-122917000D01*
X158163720Y-123074569D01*
X158111789Y-123126500D01*
X122908763Y-123126500D01*
X122797431Y-122857720D01*
X122506280Y-122566569D01*
X122125874Y-122409000D01*
X121714126Y-122409000D01*
X121333720Y-122566569D01*
X121042569Y-122857720D01*
X120885000Y-123238126D01*
X35762000Y-123238126D01*
X35762000Y-110538126D01*
X41129000Y-110538126D01*
X41129000Y-110949874D01*
X41286569Y-111330280D01*
X41577720Y-111621431D01*
X41958126Y-111779000D01*
X42031310Y-111779000D01*
X42076848Y-111847152D01*
X42349906Y-112029604D01*
X42590697Y-112077500D01*
X42590701Y-112077500D01*
X42671999Y-112093671D01*
X42753297Y-112077500D01*
X49511000Y-112077500D01*
X49511000Y-112473874D01*
X49636144Y-112776000D01*
X49511000Y-113078126D01*
X49511000Y-113489874D01*
X49636144Y-113792000D01*
X49511000Y-114094126D01*
X49511000Y-114505874D01*
X49636144Y-114808000D01*
X49511000Y-115110126D01*
X49511000Y-115521874D01*
X49636144Y-115824000D01*
X49511000Y-116126126D01*
X49511000Y-116537874D01*
X49636144Y-116840000D01*
X49511000Y-117142126D01*
X49511000Y-117553874D01*
X49668569Y-117934280D01*
X49959720Y-118225431D01*
X50340126Y-118383000D01*
X50751874Y-118383000D01*
X51132280Y-118225431D01*
X51184211Y-118173500D01*
X96643789Y-118173500D01*
X96695720Y-118225431D01*
X97076126Y-118383000D01*
X97487874Y-118383000D01*
X97868280Y-118225431D01*
X98159431Y-117934280D01*
X98317000Y-117553874D01*
X98317000Y-117157500D01*
X98421789Y-117157500D01*
X98473720Y-117209431D01*
X98854126Y-117367000D01*
X99265874Y-117367000D01*
X99646280Y-117209431D01*
X99937431Y-116918280D01*
X100095000Y-116537874D01*
X100095000Y-116141500D01*
X100199789Y-116141500D01*
X100251720Y-116193431D01*
X100632126Y-116351000D01*
X101043874Y-116351000D01*
X101424280Y-116193431D01*
X101715431Y-115902280D01*
X101873000Y-115521874D01*
X101873000Y-115125500D01*
X130933789Y-115125500D01*
X130985720Y-115177431D01*
X131366126Y-115335000D01*
X131777874Y-115335000D01*
X132158280Y-115177431D01*
X132449431Y-114886280D01*
X132607000Y-114505874D01*
X132607000Y-114109500D01*
X140331789Y-114109500D01*
X140383720Y-114161431D01*
X140764126Y-114319000D01*
X141175874Y-114319000D01*
X141556280Y-114161431D01*
X141847431Y-113870280D01*
X142005000Y-113489874D01*
X142005000Y-113093500D01*
X149729789Y-113093500D01*
X149781720Y-113145431D01*
X150162126Y-113303000D01*
X150573874Y-113303000D01*
X150954280Y-113145431D01*
X151245431Y-112854280D01*
X151403000Y-112473874D01*
X151403000Y-112062126D01*
X151245431Y-111681720D01*
X150954280Y-111390569D01*
X150573874Y-111233000D01*
X150162126Y-111233000D01*
X149781720Y-111390569D01*
X149729789Y-111442500D01*
X54121000Y-111442500D01*
X54121000Y-111061500D01*
X61845789Y-111061500D01*
X61897720Y-111113431D01*
X62278126Y-111271000D01*
X62689874Y-111271000D01*
X63070280Y-111113431D01*
X63361431Y-110822280D01*
X63519000Y-110441874D01*
X63519000Y-110045500D01*
X71243789Y-110045500D01*
X71295720Y-110097431D01*
X71676126Y-110255000D01*
X72087874Y-110255000D01*
X72468280Y-110097431D01*
X72759431Y-109806280D01*
X72917000Y-109425874D01*
X72917000Y-109014126D01*
X108185000Y-109014126D01*
X108185000Y-109425874D01*
X108342569Y-109806280D01*
X108633720Y-110097431D01*
X109014126Y-110255000D01*
X109425874Y-110255000D01*
X109806280Y-110097431D01*
X110097431Y-109806280D01*
X110255000Y-109425874D01*
X110255000Y-109014126D01*
X110097431Y-108633720D01*
X109806280Y-108342569D01*
X109425874Y-108185000D01*
X109014126Y-108185000D01*
X108633720Y-108342569D01*
X108342569Y-108633720D01*
X108185000Y-109014126D01*
X72917000Y-109014126D01*
X72759431Y-108633720D01*
X72468280Y-108342569D01*
X72087874Y-108185000D01*
X71676126Y-108185000D01*
X71295720Y-108342569D01*
X71243789Y-108394500D01*
X45184763Y-108394500D01*
X45073431Y-108125720D01*
X44782280Y-107834569D01*
X44401874Y-107677000D01*
X43990126Y-107677000D01*
X43609720Y-107834569D01*
X43318569Y-108125720D01*
X43161000Y-108506126D01*
X43161000Y-108693000D01*
X42974126Y-108693000D01*
X42593720Y-108850569D01*
X42302569Y-109141720D01*
X42145000Y-109522126D01*
X42145000Y-109709000D01*
X41958126Y-109709000D01*
X41577720Y-109866569D01*
X41286569Y-110157720D01*
X41129000Y-110538126D01*
X35762000Y-110538126D01*
X35762000Y-99546691D01*
X36613717Y-99546691D01*
X36613717Y-100475611D01*
X36969200Y-101333822D01*
X37626046Y-101990668D01*
X38484257Y-102346151D01*
X39413177Y-102346151D01*
X40271388Y-101990668D01*
X40928234Y-101333822D01*
X41283717Y-100475611D01*
X41283717Y-99546691D01*
X40928234Y-98688480D01*
X40271388Y-98031634D01*
X39413177Y-97676151D01*
X38484257Y-97676151D01*
X37626046Y-98031634D01*
X36969200Y-98688480D01*
X36613717Y-99546691D01*
X35762000Y-99546691D01*
X35762000Y-75819000D01*
X48920073Y-75819000D01*
X49256520Y-77510433D01*
X50214640Y-78944360D01*
X51429344Y-79756000D01*
X50214640Y-80567640D01*
X49256520Y-82001567D01*
X48920073Y-83693000D01*
X49256520Y-85384433D01*
X50214640Y-86818360D01*
X51429344Y-87630000D01*
X50214640Y-88441640D01*
X49256520Y-89875568D01*
X49005000Y-91140044D01*
X49005001Y-100829391D01*
X49256521Y-102093867D01*
X49665923Y-102706580D01*
X49773681Y-102966731D01*
X49972793Y-103165843D01*
X50214641Y-103527794D01*
X50576592Y-103769642D01*
X50993137Y-104186187D01*
X51537377Y-104411618D01*
X51648568Y-104485914D01*
X51779728Y-104512003D01*
X52586432Y-104846151D01*
X54311002Y-104846151D01*
X55904297Y-104186187D01*
X57123753Y-102966731D01*
X57783717Y-101373436D01*
X57783717Y-99648866D01*
X57675000Y-99386400D01*
X57675000Y-91140043D01*
X57532591Y-90424105D01*
X58613718Y-91505232D01*
X58613717Y-99648866D01*
X58613717Y-101373436D01*
X58780310Y-101775628D01*
X58865237Y-102202583D01*
X59107087Y-102564537D01*
X59273681Y-102966731D01*
X59581507Y-103274557D01*
X59823357Y-103636511D01*
X60185311Y-103878361D01*
X60493137Y-104186187D01*
X60895329Y-104352780D01*
X61257284Y-104594631D01*
X61684241Y-104679558D01*
X62086432Y-104846151D01*
X62521760Y-104846151D01*
X62948717Y-104931078D01*
X63375674Y-104846151D01*
X63811002Y-104846151D01*
X64213194Y-104679558D01*
X64640149Y-104594631D01*
X65002103Y-104352781D01*
X65404297Y-104186187D01*
X65712123Y-103878361D01*
X66074077Y-103636511D01*
X66315927Y-103274557D01*
X66623753Y-102966731D01*
X66790346Y-102564539D01*
X67032197Y-102202584D01*
X67117124Y-101775627D01*
X67283717Y-101373436D01*
X67283717Y-90136568D01*
X67368643Y-89709615D01*
X67283717Y-89282662D01*
X67283717Y-89282658D01*
X67032197Y-88018182D01*
X66869040Y-87774000D01*
X66315929Y-86946211D01*
X66315927Y-86946209D01*
X66074077Y-86584255D01*
X65712122Y-86342405D01*
X60299314Y-80929597D01*
X60057462Y-80567640D01*
X59438406Y-80154000D01*
X61323385Y-80154000D01*
X68113717Y-86944332D01*
X68113718Y-94851600D01*
X68113717Y-94851605D01*
X68113717Y-101373436D01*
X68280311Y-101775630D01*
X68365238Y-102202584D01*
X68607086Y-102564535D01*
X68773681Y-102966731D01*
X69081510Y-103274560D01*
X69323358Y-103636511D01*
X69685309Y-103878359D01*
X69993137Y-104186187D01*
X70395332Y-104352781D01*
X70757285Y-104594631D01*
X71184240Y-104679558D01*
X71586432Y-104846151D01*
X72021760Y-104846151D01*
X72448717Y-104931078D01*
X72875674Y-104846151D01*
X73311002Y-104846151D01*
X73713193Y-104679558D01*
X74140150Y-104594631D01*
X74502105Y-104352780D01*
X74904297Y-104186187D01*
X75212123Y-103878361D01*
X75574077Y-103636511D01*
X75815927Y-103274557D01*
X76123753Y-102966731D01*
X76290346Y-102564539D01*
X76532197Y-102202584D01*
X76617124Y-101775627D01*
X76783717Y-101373436D01*
X76783717Y-85575668D01*
X76868643Y-85148716D01*
X76783717Y-84721764D01*
X76783717Y-84721760D01*
X76532197Y-83457284D01*
X75574077Y-82023357D01*
X75212120Y-81781505D01*
X75141369Y-81710754D01*
X85011000Y-81710754D01*
X85011000Y-83156846D01*
X85564396Y-84492862D01*
X86586938Y-85515404D01*
X87922954Y-86068800D01*
X89369046Y-86068800D01*
X90705062Y-85515404D01*
X91727604Y-84492862D01*
X92281000Y-83156846D01*
X92281000Y-81710754D01*
X91727604Y-80374738D01*
X90705062Y-79352196D01*
X89369046Y-78798800D01*
X87922954Y-78798800D01*
X86586938Y-79352196D01*
X85564396Y-80374738D01*
X85011000Y-81710754D01*
X75141369Y-81710754D01*
X66938215Y-73507600D01*
X69723779Y-73507600D01*
X69871629Y-74250894D01*
X70292672Y-74881028D01*
X70922806Y-75302071D01*
X71478474Y-75412600D01*
X71666100Y-75449921D01*
X71853726Y-75412600D01*
X94308524Y-75412600D01*
X96543717Y-77647793D01*
X96543718Y-96608057D01*
X95993137Y-96836115D01*
X94773681Y-98055571D01*
X94113717Y-99648866D01*
X94113717Y-101373436D01*
X94773681Y-102966731D01*
X95993137Y-104186187D01*
X97586432Y-104846151D01*
X99311002Y-104846151D01*
X100904297Y-104186187D01*
X102123753Y-102966731D01*
X102783717Y-101373436D01*
X102783717Y-99648866D01*
X102123753Y-98055571D01*
X100904297Y-96836115D01*
X100353717Y-96608057D01*
X100353717Y-77046337D01*
X100391037Y-76858716D01*
X100353717Y-76671095D01*
X100353717Y-76671091D01*
X100243188Y-76115423D01*
X99822145Y-75485289D01*
X99663083Y-75379007D01*
X96577310Y-72293234D01*
X96471028Y-72134172D01*
X95840894Y-71713129D01*
X95285226Y-71602600D01*
X95285221Y-71602600D01*
X95097600Y-71565280D01*
X94909979Y-71602600D01*
X73571100Y-71602600D01*
X73571100Y-70241588D01*
X73598468Y-70104000D01*
X73571100Y-69966412D01*
X73571100Y-69916374D01*
X73460571Y-69360706D01*
X73039528Y-68730572D01*
X72409393Y-68309529D01*
X71666100Y-68161679D01*
X70922806Y-68309529D01*
X70292672Y-68730572D01*
X69871629Y-69360707D01*
X69761100Y-69916375D01*
X69761100Y-69966412D01*
X69733732Y-70104000D01*
X69761100Y-70241588D01*
X69761101Y-73319970D01*
X69723779Y-73507600D01*
X66938215Y-73507600D01*
X66486212Y-73055597D01*
X66244360Y-72693640D01*
X64810433Y-71735520D01*
X63545957Y-71484000D01*
X63545953Y-71484000D01*
X63119000Y-71399074D01*
X62692047Y-71484000D01*
X52913043Y-71484000D01*
X51648567Y-71735520D01*
X50214640Y-72693640D01*
X49256520Y-74127567D01*
X48920073Y-75819000D01*
X35762000Y-75819000D01*
X35762000Y-53570119D01*
X43815000Y-53570119D01*
X43815000Y-54125881D01*
X44027680Y-54639337D01*
X44420663Y-55032320D01*
X44934119Y-55245000D01*
X45489881Y-55245000D01*
X46003337Y-55032320D01*
X46396320Y-54639337D01*
X46482000Y-54432487D01*
X46567680Y-54639337D01*
X46960663Y-55032320D01*
X47474119Y-55245000D01*
X48029881Y-55245000D01*
X48543337Y-55032320D01*
X48936320Y-54639337D01*
X49022000Y-54432487D01*
X49107680Y-54639337D01*
X49500663Y-55032320D01*
X50014119Y-55245000D01*
X50569881Y-55245000D01*
X51083337Y-55032320D01*
X51476320Y-54639337D01*
X51562000Y-54432487D01*
X51647680Y-54639337D01*
X52040663Y-55032320D01*
X52554119Y-55245000D01*
X53109881Y-55245000D01*
X53623337Y-55032320D01*
X54016320Y-54639337D01*
X54102000Y-54432487D01*
X54187680Y-54639337D01*
X54580663Y-55032320D01*
X55094119Y-55245000D01*
X55649881Y-55245000D01*
X56163337Y-55032320D01*
X56556320Y-54639337D01*
X56642000Y-54432487D01*
X56727680Y-54639337D01*
X57120663Y-55032320D01*
X57634119Y-55245000D01*
X58189881Y-55245000D01*
X58703337Y-55032320D01*
X59096320Y-54639337D01*
X59182000Y-54432487D01*
X59267680Y-54639337D01*
X59660663Y-55032320D01*
X60174119Y-55245000D01*
X60729881Y-55245000D01*
X61243337Y-55032320D01*
X61636320Y-54639337D01*
X61849000Y-54125881D01*
X61849000Y-53570119D01*
X66167000Y-53570119D01*
X66167000Y-54125881D01*
X66379680Y-54639337D01*
X66772663Y-55032320D01*
X67286119Y-55245000D01*
X67841881Y-55245000D01*
X68355337Y-55032320D01*
X68748320Y-54639337D01*
X68834000Y-54432487D01*
X68919680Y-54639337D01*
X69312663Y-55032320D01*
X69826119Y-55245000D01*
X70381881Y-55245000D01*
X70895337Y-55032320D01*
X71288320Y-54639337D01*
X71374000Y-54432487D01*
X71459680Y-54639337D01*
X71852663Y-55032320D01*
X72366119Y-55245000D01*
X72921881Y-55245000D01*
X73435337Y-55032320D01*
X73828320Y-54639337D01*
X73914000Y-54432487D01*
X73999680Y-54639337D01*
X74392663Y-55032320D01*
X74906119Y-55245000D01*
X75461881Y-55245000D01*
X75975337Y-55032320D01*
X76368320Y-54639337D01*
X76454000Y-54432487D01*
X76539680Y-54639337D01*
X76932663Y-55032320D01*
X77446119Y-55245000D01*
X78001881Y-55245000D01*
X78515337Y-55032320D01*
X78908320Y-54639337D01*
X78994000Y-54432487D01*
X79079680Y-54639337D01*
X79472663Y-55032320D01*
X79986119Y-55245000D01*
X80541881Y-55245000D01*
X81055337Y-55032320D01*
X81448320Y-54639337D01*
X81534000Y-54432487D01*
X81619680Y-54639337D01*
X82012663Y-55032320D01*
X82526119Y-55245000D01*
X83081881Y-55245000D01*
X83595337Y-55032320D01*
X83988320Y-54639337D01*
X84201000Y-54125881D01*
X84201000Y-53570119D01*
X88519000Y-53570119D01*
X88519000Y-54125881D01*
X88731680Y-54639337D01*
X89090501Y-54998158D01*
X89090500Y-55223531D01*
X89052753Y-55248753D01*
X88860922Y-55535848D01*
X88793560Y-55874500D01*
X88793560Y-56449500D01*
X88860922Y-56788152D01*
X89027197Y-57037000D01*
X88860922Y-57285848D01*
X88793560Y-57624500D01*
X88793560Y-58199500D01*
X88860922Y-58538152D01*
X89052753Y-58825247D01*
X89090501Y-58850469D01*
X89090501Y-59227693D01*
X89090500Y-59227698D01*
X89090501Y-60321788D01*
X89038569Y-60373720D01*
X88881000Y-60754126D01*
X88881000Y-61165874D01*
X89038569Y-61546280D01*
X89090500Y-61598211D01*
X89090501Y-65958694D01*
X89074328Y-66040000D01*
X89127956Y-66309604D01*
X89138397Y-66362094D01*
X89320849Y-66635152D01*
X89389775Y-66681207D01*
X90659773Y-67951206D01*
X90659775Y-67951208D01*
X90925793Y-68217225D01*
X90971848Y-68286152D01*
X91244906Y-68468604D01*
X91485697Y-68516500D01*
X91485701Y-68516500D01*
X91566999Y-68532671D01*
X91648297Y-68516500D01*
X102358789Y-68516500D01*
X102410720Y-68568431D01*
X102791126Y-68726000D01*
X103202874Y-68726000D01*
X103583280Y-68568431D01*
X103874431Y-68277280D01*
X103951591Y-68091000D01*
X104345874Y-68091000D01*
X104726280Y-67933431D01*
X105017431Y-67642280D01*
X105041986Y-67583000D01*
X105361874Y-67583000D01*
X105742280Y-67425431D01*
X105794211Y-67373500D01*
X124187000Y-67373500D01*
X124187000Y-67769874D01*
X124344569Y-68150280D01*
X124635720Y-68441431D01*
X125016126Y-68599000D01*
X125427874Y-68599000D01*
X125808280Y-68441431D01*
X126099431Y-68150280D01*
X126257000Y-67769874D01*
X126257000Y-67373500D01*
X128505000Y-67373500D01*
X128505000Y-67769874D01*
X128662569Y-68150280D01*
X128953720Y-68441431D01*
X129334126Y-68599000D01*
X129745874Y-68599000D01*
X130126280Y-68441431D01*
X130417431Y-68150280D01*
X130575000Y-67769874D01*
X130575000Y-67373500D01*
X131187789Y-67373500D01*
X131239720Y-67425431D01*
X131620126Y-67583000D01*
X132031874Y-67583000D01*
X132061000Y-67570936D01*
X132061000Y-67769874D01*
X132218569Y-68150280D01*
X132509720Y-68441431D01*
X132890126Y-68599000D01*
X133301874Y-68599000D01*
X133682280Y-68441431D01*
X133734211Y-68389500D01*
X144640921Y-68389500D01*
X144130472Y-68730572D01*
X143709429Y-69360707D01*
X143598900Y-69916375D01*
X143598900Y-69966412D01*
X143571532Y-70104000D01*
X143598900Y-70241588D01*
X143598900Y-71602600D01*
X113116020Y-71602600D01*
X112928399Y-71565280D01*
X112740778Y-71602600D01*
X112740774Y-71602600D01*
X112185106Y-71713129D01*
X111554972Y-72134172D01*
X111448690Y-72293234D01*
X108734351Y-75007573D01*
X108575289Y-75113855D01*
X108154246Y-75743990D01*
X108043717Y-76299658D01*
X108043717Y-76299662D01*
X108006397Y-76487283D01*
X108043717Y-76674904D01*
X108043718Y-96608057D01*
X107493137Y-96836115D01*
X106273681Y-98055571D01*
X105613717Y-99648866D01*
X105613717Y-101373436D01*
X106273681Y-102966731D01*
X107493137Y-104186187D01*
X109086432Y-104846151D01*
X110811002Y-104846151D01*
X112404297Y-104186187D01*
X113623753Y-102966731D01*
X114283717Y-101373436D01*
X114283717Y-99648866D01*
X113623753Y-98055571D01*
X112404297Y-96836115D01*
X111853717Y-96608057D01*
X111853717Y-77276359D01*
X113717476Y-75412600D01*
X145316274Y-75412600D01*
X145503900Y-75449921D01*
X145682210Y-75414453D01*
X129185312Y-91911351D01*
X128823358Y-92153201D01*
X128581508Y-92515155D01*
X128581505Y-92515158D01*
X127865237Y-93587129D01*
X127757345Y-94129541D01*
X127613717Y-94851604D01*
X127613717Y-94851608D01*
X127528791Y-95278561D01*
X127613717Y-95705514D01*
X127613717Y-101373436D01*
X127780310Y-101775628D01*
X127865237Y-102202583D01*
X128107087Y-102564537D01*
X128273681Y-102966731D01*
X128581507Y-103274557D01*
X128823357Y-103636511D01*
X129185311Y-103878361D01*
X129493137Y-104186187D01*
X129895329Y-104352780D01*
X130257284Y-104594631D01*
X130684241Y-104679558D01*
X131086432Y-104846151D01*
X131521760Y-104846151D01*
X131948717Y-104931078D01*
X132375674Y-104846151D01*
X132811002Y-104846151D01*
X133213194Y-104679558D01*
X133640149Y-104594631D01*
X134002103Y-104352781D01*
X134404297Y-104186187D01*
X134712123Y-103878361D01*
X135074077Y-103636511D01*
X135315927Y-103274557D01*
X135623753Y-102966731D01*
X135790346Y-102564539D01*
X136032197Y-102202584D01*
X136117124Y-101775627D01*
X136283717Y-101373436D01*
X136283717Y-97074176D01*
X153457893Y-79900000D01*
X154084695Y-79900000D01*
X153827596Y-80071788D01*
X153827594Y-80071790D01*
X153465640Y-80313640D01*
X153223790Y-80675594D01*
X138685312Y-95214073D01*
X138323358Y-95455923D01*
X138081507Y-95817878D01*
X138081505Y-95817880D01*
X137842116Y-96176151D01*
X137365237Y-96889850D01*
X137113717Y-98154326D01*
X137113717Y-98154330D01*
X137028791Y-98581283D01*
X137113717Y-99008236D01*
X137113717Y-101373436D01*
X137280310Y-101775628D01*
X137365237Y-102202583D01*
X137607087Y-102564537D01*
X137773681Y-102966731D01*
X138081507Y-103274557D01*
X138323357Y-103636511D01*
X138685311Y-103878361D01*
X138993137Y-104186187D01*
X139395329Y-104352780D01*
X139757284Y-104594631D01*
X140184241Y-104679558D01*
X140586432Y-104846151D01*
X141021760Y-104846151D01*
X141448717Y-104931078D01*
X141875674Y-104846151D01*
X142311002Y-104846151D01*
X142713194Y-104679558D01*
X143140149Y-104594631D01*
X143502103Y-104352781D01*
X143904297Y-104186187D01*
X144212123Y-103878361D01*
X144574077Y-103636511D01*
X144815927Y-103274557D01*
X145123753Y-102966731D01*
X145290346Y-102564539D01*
X145532197Y-102202584D01*
X145617124Y-101775627D01*
X145783717Y-101373436D01*
X145783717Y-100376898D01*
X146685819Y-99474796D01*
X146613717Y-99648866D01*
X146613717Y-100084194D01*
X146528790Y-100511151D01*
X146613717Y-100938107D01*
X146613717Y-101373436D01*
X146780310Y-101775627D01*
X146865237Y-102202584D01*
X147107088Y-102564539D01*
X147273681Y-102966731D01*
X147581507Y-103274557D01*
X147823357Y-103636511D01*
X148185311Y-103878361D01*
X148493137Y-104186187D01*
X148895329Y-104352780D01*
X149257284Y-104594631D01*
X149684241Y-104679558D01*
X150086432Y-104846151D01*
X151410896Y-104846151D01*
X151837849Y-104931077D01*
X152264802Y-104846151D01*
X152264806Y-104846151D01*
X153529282Y-104594631D01*
X154963209Y-103636511D01*
X155205061Y-103274554D01*
X164301010Y-94178606D01*
X164301010Y-105771491D01*
X164216084Y-106198444D01*
X164301010Y-106625397D01*
X164301010Y-106625400D01*
X164510186Y-107677000D01*
X164552530Y-107889876D01*
X165194445Y-108850569D01*
X165510650Y-109323804D01*
X165872607Y-109565656D01*
X168273680Y-111966729D01*
X168273681Y-111966731D01*
X169493137Y-113186187D01*
X169895330Y-113352781D01*
X170257284Y-113594631D01*
X170684240Y-113679558D01*
X171086432Y-113846151D01*
X171521763Y-113846151D01*
X171948716Y-113931077D01*
X172375669Y-113846151D01*
X172811002Y-113846151D01*
X173213196Y-113679557D01*
X173640149Y-113594631D01*
X174002103Y-113352781D01*
X174404297Y-113186187D01*
X174712123Y-112878361D01*
X175074077Y-112636511D01*
X175315927Y-112274557D01*
X175623753Y-111966731D01*
X175790347Y-111564537D01*
X176032197Y-111202583D01*
X176117123Y-110775630D01*
X176283717Y-110373436D01*
X176283717Y-109938103D01*
X176368643Y-109511150D01*
X176283717Y-109084197D01*
X176283717Y-108648866D01*
X176117124Y-108246674D01*
X176032197Y-107819718D01*
X175790347Y-107457764D01*
X175623753Y-107055571D01*
X174404297Y-105836115D01*
X174404295Y-105836114D01*
X172971010Y-104402829D01*
X172971010Y-101835632D01*
X173126046Y-101990668D01*
X173984257Y-102346151D01*
X174913177Y-102346151D01*
X175771388Y-101990668D01*
X176428234Y-101333822D01*
X176783717Y-100475611D01*
X176783717Y-99546691D01*
X176428234Y-98688480D01*
X175771388Y-98031634D01*
X174913177Y-97676151D01*
X173984257Y-97676151D01*
X173126046Y-98031634D01*
X172971010Y-98186670D01*
X172971010Y-70982861D01*
X173055936Y-70555908D01*
X172971010Y-70128955D01*
X172971010Y-70128951D01*
X172719490Y-68864475D01*
X172497786Y-68532671D01*
X172003222Y-67792504D01*
X172003220Y-67792502D01*
X171761370Y-67430548D01*
X171399415Y-67188697D01*
X167995314Y-63784597D01*
X167753462Y-63422640D01*
X167203999Y-63055500D01*
X173400699Y-63055500D01*
X173482000Y-63071672D01*
X173563301Y-63055500D01*
X173563303Y-63055500D01*
X173804094Y-63007604D01*
X174077152Y-62825152D01*
X174123209Y-62756224D01*
X174516226Y-62363207D01*
X174585152Y-62317152D01*
X174767604Y-62044094D01*
X174815500Y-61803303D01*
X174815500Y-61803299D01*
X174831671Y-61722001D01*
X174815500Y-61640703D01*
X174815500Y-54998157D01*
X175174320Y-54639337D01*
X175387000Y-54125881D01*
X175387000Y-53570119D01*
X175174320Y-53056663D01*
X174781337Y-52663680D01*
X174267881Y-52451000D01*
X173712119Y-52451000D01*
X173198663Y-52663680D01*
X172805680Y-53056663D01*
X172720000Y-53263513D01*
X172634320Y-53056663D01*
X172241337Y-52663680D01*
X171727881Y-52451000D01*
X171172119Y-52451000D01*
X170658663Y-52663680D01*
X170265680Y-53056663D01*
X170053000Y-53570119D01*
X170053000Y-54125881D01*
X170265680Y-54639337D01*
X170624501Y-54998158D01*
X170624500Y-60364067D01*
X170600068Y-60388500D01*
X162520933Y-60388500D01*
X162578226Y-60331207D01*
X162647152Y-60285152D01*
X162829604Y-60012094D01*
X162877500Y-59771303D01*
X162877500Y-59771299D01*
X162893671Y-59690001D01*
X162877500Y-59608703D01*
X162877500Y-54998157D01*
X163236320Y-54639337D01*
X163322000Y-54432487D01*
X163407680Y-54639337D01*
X163800663Y-55032320D01*
X164314119Y-55245000D01*
X164869881Y-55245000D01*
X165383337Y-55032320D01*
X165776320Y-54639337D01*
X165989000Y-54125881D01*
X165989000Y-53570119D01*
X165776320Y-53056663D01*
X165383337Y-52663680D01*
X164869881Y-52451000D01*
X164314119Y-52451000D01*
X163800663Y-52663680D01*
X163407680Y-53056663D01*
X163322000Y-53263513D01*
X163236320Y-53056663D01*
X162843337Y-52663680D01*
X162329881Y-52451000D01*
X161774119Y-52451000D01*
X161260663Y-52663680D01*
X160867680Y-53056663D01*
X160782000Y-53263513D01*
X160696320Y-53056663D01*
X160303337Y-52663680D01*
X159789881Y-52451000D01*
X159234119Y-52451000D01*
X158720663Y-52663680D01*
X158327680Y-53056663D01*
X158242000Y-53263513D01*
X158156320Y-53056663D01*
X157763337Y-52663680D01*
X157249881Y-52451000D01*
X156694119Y-52451000D01*
X156180663Y-52663680D01*
X155787680Y-53056663D01*
X155575000Y-53570119D01*
X155575000Y-54125881D01*
X155787680Y-54639337D01*
X156146501Y-54998158D01*
X156146500Y-57316067D01*
X156122068Y-57340500D01*
X140084211Y-57340500D01*
X140032280Y-57288569D01*
X139651874Y-57131000D01*
X139240126Y-57131000D01*
X138859720Y-57288569D01*
X138568569Y-57579720D01*
X138411000Y-57960126D01*
X138411000Y-58371874D01*
X138568569Y-58752280D01*
X138859720Y-59043431D01*
X139173000Y-59173196D01*
X139173000Y-59387874D01*
X139330569Y-59768280D01*
X139621720Y-60059431D01*
X139935000Y-60189196D01*
X139935000Y-60403874D01*
X140092569Y-60784280D01*
X140383720Y-61075431D01*
X140697000Y-61205196D01*
X140697000Y-61419874D01*
X140854569Y-61800280D01*
X141145720Y-62091431D01*
X141459000Y-62221196D01*
X141459000Y-62435874D01*
X141616569Y-62816280D01*
X141907720Y-63107431D01*
X142288126Y-63265000D01*
X142699874Y-63265000D01*
X143080280Y-63107431D01*
X143132211Y-63055500D01*
X148317000Y-63055500D01*
X148317000Y-63113567D01*
X145708068Y-65722500D01*
X132464211Y-65722500D01*
X132412280Y-65670569D01*
X132031874Y-65513000D01*
X131620126Y-65513000D01*
X131239720Y-65670569D01*
X131187789Y-65722500D01*
X105794211Y-65722500D01*
X105742280Y-65670569D01*
X105361874Y-65513000D01*
X105288433Y-65513000D01*
X104273209Y-64497777D01*
X104227152Y-64428848D01*
X103954094Y-64246396D01*
X103713303Y-64198500D01*
X103713301Y-64198500D01*
X103632000Y-64182328D01*
X103550699Y-64198500D01*
X97877933Y-64198500D01*
X97599500Y-63920068D01*
X97599500Y-60210754D01*
X124901700Y-60210754D01*
X124901700Y-61656846D01*
X125455096Y-62992862D01*
X126477638Y-64015404D01*
X127813654Y-64568800D01*
X129259746Y-64568800D01*
X130595762Y-64015404D01*
X131618304Y-62992862D01*
X132171700Y-61656846D01*
X132171700Y-60210754D01*
X131618304Y-58874738D01*
X130595762Y-57852196D01*
X129259746Y-57298800D01*
X127813654Y-57298800D01*
X126477638Y-57852196D01*
X125455096Y-58874738D01*
X124901700Y-60210754D01*
X97599500Y-60210754D01*
X97599500Y-58804211D01*
X97651431Y-58752280D01*
X97809000Y-58371874D01*
X97809000Y-57960126D01*
X97651431Y-57579720D01*
X97360280Y-57288569D01*
X96979874Y-57131000D01*
X96568126Y-57131000D01*
X96187720Y-57288569D01*
X96074200Y-57402089D01*
X96051078Y-57285848D01*
X95884803Y-57037000D01*
X96051078Y-56788152D01*
X96118440Y-56449500D01*
X96118440Y-55874500D01*
X96051078Y-55535848D01*
X95859247Y-55248753D01*
X95821500Y-55223531D01*
X95821500Y-54998157D01*
X96180320Y-54639337D01*
X96393000Y-54125881D01*
X96393000Y-53570119D01*
X100711000Y-53570119D01*
X100711000Y-54125881D01*
X100923680Y-54639337D01*
X101316663Y-55032320D01*
X101830119Y-55245000D01*
X102385881Y-55245000D01*
X102899337Y-55032320D01*
X103292320Y-54639337D01*
X103378000Y-54432487D01*
X103463680Y-54639337D01*
X103856663Y-55032320D01*
X104370119Y-55245000D01*
X104925881Y-55245000D01*
X105439337Y-55032320D01*
X105832320Y-54639337D01*
X106045000Y-54125881D01*
X106045000Y-53570119D01*
X108331000Y-53570119D01*
X108331000Y-54125881D01*
X108543680Y-54639337D01*
X108936663Y-55032320D01*
X109450119Y-55245000D01*
X110005881Y-55245000D01*
X110519337Y-55032320D01*
X110912320Y-54639337D01*
X110998000Y-54432487D01*
X111083680Y-54639337D01*
X111476663Y-55032320D01*
X111990119Y-55245000D01*
X112545881Y-55245000D01*
X113059337Y-55032320D01*
X113452320Y-54639337D01*
X113665000Y-54125881D01*
X113665000Y-53570119D01*
X113454580Y-53062119D01*
X127635000Y-53062119D01*
X127635000Y-53617881D01*
X127847680Y-54131337D01*
X128240663Y-54524320D01*
X128754119Y-54737000D01*
X129309881Y-54737000D01*
X129823337Y-54524320D01*
X130216320Y-54131337D01*
X130302000Y-53924487D01*
X130387680Y-54131337D01*
X130780663Y-54524320D01*
X131294119Y-54737000D01*
X131849881Y-54737000D01*
X132363337Y-54524320D01*
X132756320Y-54131337D01*
X132842000Y-53924487D01*
X132927680Y-54131337D01*
X133320663Y-54524320D01*
X133834119Y-54737000D01*
X134389881Y-54737000D01*
X134903337Y-54524320D01*
X135296320Y-54131337D01*
X135382000Y-53924487D01*
X135467680Y-54131337D01*
X135860663Y-54524320D01*
X136374119Y-54737000D01*
X136929881Y-54737000D01*
X137443337Y-54524320D01*
X137836320Y-54131337D01*
X138049000Y-53617881D01*
X138049000Y-53570119D01*
X147955000Y-53570119D01*
X147955000Y-54125881D01*
X148167680Y-54639337D01*
X148560663Y-55032320D01*
X149074119Y-55245000D01*
X149629881Y-55245000D01*
X150143337Y-55032320D01*
X150536320Y-54639337D01*
X150622000Y-54432487D01*
X150707680Y-54639337D01*
X151100663Y-55032320D01*
X151614119Y-55245000D01*
X152169881Y-55245000D01*
X152683337Y-55032320D01*
X153076320Y-54639337D01*
X153289000Y-54125881D01*
X153289000Y-53570119D01*
X153076320Y-53056663D01*
X152683337Y-52663680D01*
X152169881Y-52451000D01*
X151614119Y-52451000D01*
X151100663Y-52663680D01*
X150707680Y-53056663D01*
X150622000Y-53263513D01*
X150536320Y-53056663D01*
X150143337Y-52663680D01*
X149629881Y-52451000D01*
X149074119Y-52451000D01*
X148560663Y-52663680D01*
X148167680Y-53056663D01*
X147955000Y-53570119D01*
X138049000Y-53570119D01*
X138049000Y-53062119D01*
X137836320Y-52548663D01*
X137443337Y-52155680D01*
X136929881Y-51943000D01*
X136374119Y-51943000D01*
X135860663Y-52155680D01*
X135467680Y-52548663D01*
X135382000Y-52755513D01*
X135296320Y-52548663D01*
X134903337Y-52155680D01*
X134389881Y-51943000D01*
X133834119Y-51943000D01*
X133320663Y-52155680D01*
X132927680Y-52548663D01*
X132842000Y-52755513D01*
X132756320Y-52548663D01*
X132363337Y-52155680D01*
X131849881Y-51943000D01*
X131294119Y-51943000D01*
X130780663Y-52155680D01*
X130387680Y-52548663D01*
X130302000Y-52755513D01*
X130216320Y-52548663D01*
X129823337Y-52155680D01*
X129309881Y-51943000D01*
X128754119Y-51943000D01*
X128240663Y-52155680D01*
X127847680Y-52548663D01*
X127635000Y-53062119D01*
X113454580Y-53062119D01*
X113452320Y-53056663D01*
X113059337Y-52663680D01*
X112545881Y-52451000D01*
X111990119Y-52451000D01*
X111476663Y-52663680D01*
X111083680Y-53056663D01*
X110998000Y-53263513D01*
X110912320Y-53056663D01*
X110519337Y-52663680D01*
X110005881Y-52451000D01*
X109450119Y-52451000D01*
X108936663Y-52663680D01*
X108543680Y-53056663D01*
X108331000Y-53570119D01*
X106045000Y-53570119D01*
X105832320Y-53056663D01*
X105439337Y-52663680D01*
X104925881Y-52451000D01*
X104370119Y-52451000D01*
X103856663Y-52663680D01*
X103463680Y-53056663D01*
X103378000Y-53263513D01*
X103292320Y-53056663D01*
X102899337Y-52663680D01*
X102385881Y-52451000D01*
X101830119Y-52451000D01*
X101316663Y-52663680D01*
X100923680Y-53056663D01*
X100711000Y-53570119D01*
X96393000Y-53570119D01*
X96180320Y-53056663D01*
X95787337Y-52663680D01*
X95273881Y-52451000D01*
X94718119Y-52451000D01*
X94204663Y-52663680D01*
X93811680Y-53056663D01*
X93599000Y-53570119D01*
X93599000Y-54125881D01*
X93811680Y-54639337D01*
X94170501Y-54998158D01*
X94170500Y-55223531D01*
X94132753Y-55248753D01*
X93940922Y-55535848D01*
X93873560Y-55874500D01*
X93873560Y-56449500D01*
X93940922Y-56788152D01*
X94107197Y-57037000D01*
X93940922Y-57285848D01*
X93873560Y-57624500D01*
X93873560Y-58199500D01*
X93940922Y-58538152D01*
X94132753Y-58825247D01*
X94170501Y-58850469D01*
X94170501Y-59051788D01*
X94118569Y-59103720D01*
X93961000Y-59484126D01*
X93961000Y-59895874D01*
X94118569Y-60276280D01*
X94170501Y-60328212D01*
X94170501Y-60497697D01*
X94170500Y-63073302D01*
X94170501Y-63073307D01*
X94170500Y-65450698D01*
X94154328Y-65532000D01*
X94170500Y-65613301D01*
X94170500Y-65613302D01*
X94218396Y-65854093D01*
X94400848Y-66127152D01*
X94469777Y-66173209D01*
X95162067Y-66865500D01*
X91908932Y-66865500D01*
X91827208Y-66783775D01*
X91827206Y-66783773D01*
X90741500Y-65698068D01*
X90741500Y-61598211D01*
X90793431Y-61546280D01*
X90951000Y-61165874D01*
X90951000Y-60754126D01*
X90793431Y-60373720D01*
X90741500Y-60321789D01*
X90741500Y-58850469D01*
X90779247Y-58825247D01*
X90971078Y-58538152D01*
X91038440Y-58199500D01*
X91038440Y-57624500D01*
X90971078Y-57285848D01*
X90804803Y-57037000D01*
X90971078Y-56788152D01*
X91038440Y-56449500D01*
X91038440Y-55874500D01*
X90971078Y-55535848D01*
X90779247Y-55248753D01*
X90741500Y-55223531D01*
X90741500Y-54998157D01*
X91100320Y-54639337D01*
X91313000Y-54125881D01*
X91313000Y-53570119D01*
X91100320Y-53056663D01*
X90707337Y-52663680D01*
X90193881Y-52451000D01*
X89638119Y-52451000D01*
X89124663Y-52663680D01*
X88731680Y-53056663D01*
X88519000Y-53570119D01*
X84201000Y-53570119D01*
X83988320Y-53056663D01*
X83595337Y-52663680D01*
X83081881Y-52451000D01*
X82526119Y-52451000D01*
X82012663Y-52663680D01*
X81619680Y-53056663D01*
X81534000Y-53263513D01*
X81448320Y-53056663D01*
X81055337Y-52663680D01*
X80541881Y-52451000D01*
X79986119Y-52451000D01*
X79472663Y-52663680D01*
X79079680Y-53056663D01*
X78994000Y-53263513D01*
X78908320Y-53056663D01*
X78515337Y-52663680D01*
X78001881Y-52451000D01*
X77446119Y-52451000D01*
X76932663Y-52663680D01*
X76539680Y-53056663D01*
X76454000Y-53263513D01*
X76368320Y-53056663D01*
X75975337Y-52663680D01*
X75461881Y-52451000D01*
X74906119Y-52451000D01*
X74392663Y-52663680D01*
X73999680Y-53056663D01*
X73914000Y-53263513D01*
X73828320Y-53056663D01*
X73435337Y-52663680D01*
X72921881Y-52451000D01*
X72366119Y-52451000D01*
X71852663Y-52663680D01*
X71459680Y-53056663D01*
X71374000Y-53263513D01*
X71288320Y-53056663D01*
X70895337Y-52663680D01*
X70381881Y-52451000D01*
X69826119Y-52451000D01*
X69312663Y-52663680D01*
X68919680Y-53056663D01*
X68834000Y-53263513D01*
X68748320Y-53056663D01*
X68355337Y-52663680D01*
X67841881Y-52451000D01*
X67286119Y-52451000D01*
X66772663Y-52663680D01*
X66379680Y-53056663D01*
X66167000Y-53570119D01*
X61849000Y-53570119D01*
X61636320Y-53056663D01*
X61243337Y-52663680D01*
X60729881Y-52451000D01*
X60174119Y-52451000D01*
X59660663Y-52663680D01*
X59267680Y-53056663D01*
X59182000Y-53263513D01*
X59096320Y-53056663D01*
X58703337Y-52663680D01*
X58189881Y-52451000D01*
X57634119Y-52451000D01*
X57120663Y-52663680D01*
X56727680Y-53056663D01*
X56642000Y-53263513D01*
X56556320Y-53056663D01*
X56163337Y-52663680D01*
X55649881Y-52451000D01*
X55094119Y-52451000D01*
X54580663Y-52663680D01*
X54187680Y-53056663D01*
X54102000Y-53263513D01*
X54016320Y-53056663D01*
X53623337Y-52663680D01*
X53109881Y-52451000D01*
X52554119Y-52451000D01*
X52040663Y-52663680D01*
X51647680Y-53056663D01*
X51562000Y-53263513D01*
X51476320Y-53056663D01*
X51083337Y-52663680D01*
X50569881Y-52451000D01*
X50014119Y-52451000D01*
X49500663Y-52663680D01*
X49107680Y-53056663D01*
X49022000Y-53263513D01*
X48936320Y-53056663D01*
X48543337Y-52663680D01*
X48029881Y-52451000D01*
X47474119Y-52451000D01*
X46960663Y-52663680D01*
X46567680Y-53056663D01*
X46482000Y-53263513D01*
X46396320Y-53056663D01*
X46003337Y-52663680D01*
X45489881Y-52451000D01*
X44934119Y-52451000D01*
X44420663Y-52663680D01*
X44027680Y-53056663D01*
X43815000Y-53570119D01*
X35762000Y-53570119D01*
X35762000Y-44742567D01*
X41582000Y-44742567D01*
X41582000Y-45681433D01*
X41941289Y-46548833D01*
X42605167Y-47212711D01*
X43472567Y-47572000D01*
X44411433Y-47572000D01*
X45278833Y-47212711D01*
X45942711Y-46548833D01*
X46302000Y-45681433D01*
X46302000Y-44742567D01*
X59362000Y-44742567D01*
X59362000Y-45681433D01*
X59721289Y-46548833D01*
X60385167Y-47212711D01*
X61252567Y-47572000D01*
X62191433Y-47572000D01*
X63058833Y-47212711D01*
X63722711Y-46548833D01*
X64008000Y-45860085D01*
X64293289Y-46548833D01*
X64957167Y-47212711D01*
X65824567Y-47572000D01*
X66763433Y-47572000D01*
X67630833Y-47212711D01*
X68294711Y-46548833D01*
X68654000Y-45681433D01*
X68654000Y-44742567D01*
X81714000Y-44742567D01*
X81714000Y-45681433D01*
X82073289Y-46548833D01*
X82737167Y-47212711D01*
X83604567Y-47572000D01*
X84543433Y-47572000D01*
X85410833Y-47212711D01*
X86074711Y-46548833D01*
X86360000Y-45860085D01*
X86645289Y-46548833D01*
X87309167Y-47212711D01*
X88176567Y-47572000D01*
X89115433Y-47572000D01*
X89982833Y-47212711D01*
X90646711Y-46548833D01*
X91006000Y-45681433D01*
X91006000Y-44742567D01*
X93906000Y-44742567D01*
X93906000Y-45681433D01*
X94265289Y-46548833D01*
X94929167Y-47212711D01*
X95796567Y-47572000D01*
X96735433Y-47572000D01*
X97602833Y-47212711D01*
X98266711Y-46548833D01*
X98552000Y-45860085D01*
X98837289Y-46548833D01*
X99501167Y-47212711D01*
X100368567Y-47572000D01*
X101307433Y-47572000D01*
X102174833Y-47212711D01*
X102838711Y-46548833D01*
X103198000Y-45681433D01*
X103198000Y-44742567D01*
X111178000Y-44742567D01*
X111178000Y-45681433D01*
X111537289Y-46548833D01*
X112201167Y-47212711D01*
X113068567Y-47572000D01*
X114007433Y-47572000D01*
X114874833Y-47212711D01*
X115538711Y-46548833D01*
X115898000Y-45681433D01*
X115898000Y-44742567D01*
X115766923Y-44426119D01*
X117475000Y-44426119D01*
X117475000Y-44981881D01*
X117687680Y-45495337D01*
X118080663Y-45888320D01*
X118594119Y-46101000D01*
X119149881Y-46101000D01*
X119663337Y-45888320D01*
X120056320Y-45495337D01*
X120142000Y-45288487D01*
X120227680Y-45495337D01*
X120620663Y-45888320D01*
X121134119Y-46101000D01*
X121689881Y-46101000D01*
X122203337Y-45888320D01*
X122596320Y-45495337D01*
X122682000Y-45288487D01*
X122767680Y-45495337D01*
X123160663Y-45888320D01*
X123674119Y-46101000D01*
X124229881Y-46101000D01*
X124743337Y-45888320D01*
X125136320Y-45495337D01*
X125222000Y-45288487D01*
X125307680Y-45495337D01*
X125700663Y-45888320D01*
X126214119Y-46101000D01*
X126769881Y-46101000D01*
X127283337Y-45888320D01*
X127676320Y-45495337D01*
X127762000Y-45288487D01*
X127847680Y-45495337D01*
X128240663Y-45888320D01*
X128754119Y-46101000D01*
X129309881Y-46101000D01*
X129823337Y-45888320D01*
X130216320Y-45495337D01*
X130302000Y-45288487D01*
X130387680Y-45495337D01*
X130780663Y-45888320D01*
X131294119Y-46101000D01*
X131849881Y-46101000D01*
X132363337Y-45888320D01*
X132756320Y-45495337D01*
X132842000Y-45288487D01*
X132927680Y-45495337D01*
X133320663Y-45888320D01*
X133834119Y-46101000D01*
X134389881Y-46101000D01*
X134903337Y-45888320D01*
X135296320Y-45495337D01*
X135382000Y-45288487D01*
X135467680Y-45495337D01*
X135860663Y-45888320D01*
X136374119Y-46101000D01*
X136929881Y-46101000D01*
X137443337Y-45888320D01*
X137836320Y-45495337D01*
X138049000Y-44981881D01*
X138049000Y-44742567D01*
X145722000Y-44742567D01*
X145722000Y-45681433D01*
X146081289Y-46548833D01*
X146745167Y-47212711D01*
X147612567Y-47572000D01*
X148551433Y-47572000D01*
X149418833Y-47212711D01*
X150082711Y-46548833D01*
X150442000Y-45681433D01*
X150442000Y-44742567D01*
X163502000Y-44742567D01*
X163502000Y-45681433D01*
X163861289Y-46548833D01*
X164525167Y-47212711D01*
X165392567Y-47572000D01*
X166331433Y-47572000D01*
X167198833Y-47212711D01*
X167862711Y-46548833D01*
X168084328Y-46013801D01*
X168304289Y-46544833D01*
X168968167Y-47208711D01*
X169835567Y-47568000D01*
X170774433Y-47568000D01*
X171641833Y-47208711D01*
X172305711Y-46544833D01*
X172665000Y-45677433D01*
X172665000Y-44742567D01*
X172773000Y-44742567D01*
X172773000Y-45681433D01*
X173132289Y-46548833D01*
X173796167Y-47212711D01*
X174663567Y-47572000D01*
X175602433Y-47572000D01*
X176469833Y-47212711D01*
X177133711Y-46548833D01*
X177493000Y-45681433D01*
X177493000Y-44742567D01*
X177133711Y-43875167D01*
X176469833Y-43211289D01*
X175602433Y-42852000D01*
X174663567Y-42852000D01*
X173796167Y-43211289D01*
X173132289Y-43875167D01*
X172773000Y-44742567D01*
X172665000Y-44742567D01*
X172665000Y-44738567D01*
X172305711Y-43871167D01*
X171641833Y-43207289D01*
X170774433Y-42848000D01*
X169835567Y-42848000D01*
X168968167Y-43207289D01*
X168304289Y-43871167D01*
X168082672Y-44406199D01*
X167862711Y-43875167D01*
X167198833Y-43211289D01*
X166331433Y-42852000D01*
X165392567Y-42852000D01*
X164525167Y-43211289D01*
X163861289Y-43875167D01*
X163502000Y-44742567D01*
X150442000Y-44742567D01*
X150082711Y-43875167D01*
X149418833Y-43211289D01*
X148551433Y-42852000D01*
X147612567Y-42852000D01*
X146745167Y-43211289D01*
X146081289Y-43875167D01*
X145722000Y-44742567D01*
X138049000Y-44742567D01*
X138049000Y-44426119D01*
X137836320Y-43912663D01*
X137443337Y-43519680D01*
X136929881Y-43307000D01*
X136374119Y-43307000D01*
X135860663Y-43519680D01*
X135467680Y-43912663D01*
X135382000Y-44119513D01*
X135296320Y-43912663D01*
X134903337Y-43519680D01*
X134389881Y-43307000D01*
X133834119Y-43307000D01*
X133320663Y-43519680D01*
X132927680Y-43912663D01*
X132842000Y-44119513D01*
X132756320Y-43912663D01*
X132363337Y-43519680D01*
X131849881Y-43307000D01*
X131294119Y-43307000D01*
X130780663Y-43519680D01*
X130387680Y-43912663D01*
X130302000Y-44119513D01*
X130216320Y-43912663D01*
X129823337Y-43519680D01*
X129309881Y-43307000D01*
X128754119Y-43307000D01*
X128240663Y-43519680D01*
X127847680Y-43912663D01*
X127762000Y-44119513D01*
X127676320Y-43912663D01*
X127283337Y-43519680D01*
X126769881Y-43307000D01*
X126214119Y-43307000D01*
X125700663Y-43519680D01*
X125307680Y-43912663D01*
X125222000Y-44119513D01*
X125136320Y-43912663D01*
X124743337Y-43519680D01*
X124229881Y-43307000D01*
X123674119Y-43307000D01*
X123160663Y-43519680D01*
X122767680Y-43912663D01*
X122682000Y-44119513D01*
X122596320Y-43912663D01*
X122203337Y-43519680D01*
X121689881Y-43307000D01*
X121134119Y-43307000D01*
X120620663Y-43519680D01*
X120227680Y-43912663D01*
X120142000Y-44119513D01*
X120056320Y-43912663D01*
X119663337Y-43519680D01*
X119149881Y-43307000D01*
X118594119Y-43307000D01*
X118080663Y-43519680D01*
X117687680Y-43912663D01*
X117475000Y-44426119D01*
X115766923Y-44426119D01*
X115538711Y-43875167D01*
X114874833Y-43211289D01*
X114007433Y-42852000D01*
X113068567Y-42852000D01*
X112201167Y-43211289D01*
X111537289Y-43875167D01*
X111178000Y-44742567D01*
X103198000Y-44742567D01*
X102838711Y-43875167D01*
X102174833Y-43211289D01*
X101307433Y-42852000D01*
X100368567Y-42852000D01*
X99501167Y-43211289D01*
X98837289Y-43875167D01*
X98552000Y-44563915D01*
X98266711Y-43875167D01*
X97602833Y-43211289D01*
X96735433Y-42852000D01*
X95796567Y-42852000D01*
X94929167Y-43211289D01*
X94265289Y-43875167D01*
X93906000Y-44742567D01*
X91006000Y-44742567D01*
X90646711Y-43875167D01*
X89982833Y-43211289D01*
X89115433Y-42852000D01*
X88176567Y-42852000D01*
X87309167Y-43211289D01*
X86645289Y-43875167D01*
X86360000Y-44563915D01*
X86074711Y-43875167D01*
X85410833Y-43211289D01*
X84543433Y-42852000D01*
X83604567Y-42852000D01*
X82737167Y-43211289D01*
X82073289Y-43875167D01*
X81714000Y-44742567D01*
X68654000Y-44742567D01*
X68294711Y-43875167D01*
X67630833Y-43211289D01*
X66763433Y-42852000D01*
X65824567Y-42852000D01*
X64957167Y-43211289D01*
X64293289Y-43875167D01*
X64008000Y-44563915D01*
X63722711Y-43875167D01*
X63058833Y-43211289D01*
X62191433Y-42852000D01*
X61252567Y-42852000D01*
X60385167Y-43211289D01*
X59721289Y-43875167D01*
X59362000Y-44742567D01*
X46302000Y-44742567D01*
X45942711Y-43875167D01*
X45278833Y-43211289D01*
X44411433Y-42852000D01*
X43472567Y-42852000D01*
X42605167Y-43211289D01*
X41941289Y-43875167D01*
X41582000Y-44742567D01*
X35762000Y-44742567D01*
X35762000Y-42595581D01*
X35822090Y-42175991D01*
X35976381Y-41836648D01*
X36219712Y-41554248D01*
X36532523Y-41351494D01*
X36913184Y-41237652D01*
X37110350Y-41223000D01*
X177241419Y-41223000D01*
X177661009Y-41283090D01*
G36*
X157910640Y-63422640D02*
X156952520Y-64856567D01*
X156616073Y-66548000D01*
X156952520Y-68239433D01*
X157910640Y-69673360D01*
X159344567Y-70631480D01*
X160609043Y-70883000D01*
X162832487Y-70883000D01*
X164301011Y-72351525D01*
X164301011Y-72648642D01*
X164161360Y-72439640D01*
X162727433Y-71481520D01*
X161462957Y-71230000D01*
X152089229Y-71230000D01*
X151662277Y-71145074D01*
X151235325Y-71230000D01*
X151235321Y-71230000D01*
X149970845Y-71481520D01*
X148536918Y-72439640D01*
X148295066Y-72801597D01*
X147410753Y-73685910D01*
X147446221Y-73507600D01*
X147408900Y-73319974D01*
X147408900Y-70241588D01*
X147436268Y-70104000D01*
X147408900Y-69966412D01*
X147408900Y-69916374D01*
X147298371Y-69360706D01*
X146877328Y-68730572D01*
X146366878Y-68389500D01*
X146476699Y-68389500D01*
X146558000Y-68405672D01*
X146639301Y-68389500D01*
X146639303Y-68389500D01*
X146880094Y-68341604D01*
X147153152Y-68159152D01*
X147199209Y-68090223D01*
X151008433Y-64281000D01*
X151081874Y-64281000D01*
X151462280Y-64123431D01*
X151753431Y-63832280D01*
X151911000Y-63451874D01*
X151911000Y-63055500D01*
X158460103Y-63055500D01*
X157910640Y-63422640D01*
X157910640Y-63422640D01*
G37*
X157910640Y-63422640D02*
X156952520Y-64856567D01*
X156616073Y-66548000D01*
X156952520Y-68239433D01*
X157910640Y-69673360D01*
X159344567Y-70631480D01*
X160609043Y-70883000D01*
X162832487Y-70883000D01*
X164301011Y-72351525D01*
X164301011Y-72648642D01*
X164161360Y-72439640D01*
X162727433Y-71481520D01*
X161462957Y-71230000D01*
X152089229Y-71230000D01*
X151662277Y-71145074D01*
X151235325Y-71230000D01*
X151235321Y-71230000D01*
X149970845Y-71481520D01*
X148536918Y-72439640D01*
X148295066Y-72801597D01*
X147410753Y-73685910D01*
X147446221Y-73507600D01*
X147408900Y-73319974D01*
X147408900Y-70241588D01*
X147436268Y-70104000D01*
X147408900Y-69966412D01*
X147408900Y-69916374D01*
X147298371Y-69360706D01*
X146877328Y-68730572D01*
X146366878Y-68389500D01*
X146476699Y-68389500D01*
X146558000Y-68405672D01*
X146639301Y-68389500D01*
X146639303Y-68389500D01*
X146880094Y-68341604D01*
X147153152Y-68159152D01*
X147199209Y-68090223D01*
X151008433Y-64281000D01*
X151081874Y-64281000D01*
X151462280Y-64123431D01*
X151753431Y-63832280D01*
X151911000Y-63451874D01*
X151911000Y-63055500D01*
X158460103Y-63055500D01*
X157910640Y-63422640D01*
G36*
X172805680Y-54639337D02*
X173164501Y-54998158D01*
X173164500Y-59771302D01*
X173164501Y-59771307D01*
X173164500Y-61380067D01*
X173140068Y-61404500D01*
X171918933Y-61404500D01*
X171976226Y-61347207D01*
X172045152Y-61301152D01*
X172227604Y-61028094D01*
X172275500Y-60787303D01*
X172275500Y-60787299D01*
X172291671Y-60706001D01*
X172275500Y-60624703D01*
X172275500Y-54998157D01*
X172634320Y-54639337D01*
X172720000Y-54432487D01*
X172805680Y-54639337D01*
X172805680Y-54639337D01*
G37*
X172805680Y-54639337D02*
X173164501Y-54998158D01*
X173164500Y-59771302D01*
X173164501Y-59771307D01*
X173164500Y-61380067D01*
X173140068Y-61404500D01*
X171918933Y-61404500D01*
X171976226Y-61347207D01*
X172045152Y-61301152D01*
X172227604Y-61028094D01*
X172275500Y-60787303D01*
X172275500Y-60787299D01*
X172291671Y-60706001D01*
X172275500Y-60624703D01*
X172275500Y-54998157D01*
X172634320Y-54639337D01*
X172720000Y-54432487D01*
X172805680Y-54639337D01*
G36*
X160867680Y-54639337D02*
X161226501Y-54998158D01*
X161226500Y-59348067D01*
X161202068Y-59372500D01*
X159980933Y-59372500D01*
X160038226Y-59315207D01*
X160107152Y-59269152D01*
X160289604Y-58996094D01*
X160337500Y-58755303D01*
X160337500Y-58755299D01*
X160353671Y-58674001D01*
X160337500Y-58592703D01*
X160337500Y-54998157D01*
X160696320Y-54639337D01*
X160782000Y-54432487D01*
X160867680Y-54639337D01*
X160867680Y-54639337D01*
G37*
X160867680Y-54639337D02*
X161226501Y-54998158D01*
X161226500Y-59348067D01*
X161202068Y-59372500D01*
X159980933Y-59372500D01*
X160038226Y-59315207D01*
X160107152Y-59269152D01*
X160289604Y-58996094D01*
X160337500Y-58755303D01*
X160337500Y-58755299D01*
X160353671Y-58674001D01*
X160337500Y-58592703D01*
X160337500Y-54998157D01*
X160696320Y-54639337D01*
X160782000Y-54432487D01*
X160867680Y-54639337D01*
G36*
X158327680Y-54639337D02*
X158686501Y-54998158D01*
X158686500Y-58332067D01*
X158662068Y-58356500D01*
X157440933Y-58356500D01*
X157498226Y-58299207D01*
X157567152Y-58253152D01*
X157749604Y-57980094D01*
X157797500Y-57739303D01*
X157797500Y-57739299D01*
X157813671Y-57658001D01*
X157797500Y-57576703D01*
X157797500Y-54998157D01*
X158156320Y-54639337D01*
X158242000Y-54432487D01*
X158327680Y-54639337D01*
X158327680Y-54639337D01*
G37*
X158327680Y-54639337D02*
X158686501Y-54998158D01*
X158686500Y-58332067D01*
X158662068Y-58356500D01*
X157440933Y-58356500D01*
X157498226Y-58299207D01*
X157567152Y-58253152D01*
X157749604Y-57980094D01*
X157797500Y-57739303D01*
X157797500Y-57739299D01*
X157813671Y-57658001D01*
X157797500Y-57576703D01*
X157797500Y-54998157D01*
X158156320Y-54639337D01*
X158242000Y-54432487D01*
X158327680Y-54639337D01*
G04 #@! TD*
M02*
