G04 #@! TF.GenerationSoftware,KiCad,Pcbnew,(5.1.5)-2*
G04 #@! TF.CreationDate,2019-12-14T17:58:37-06:00*
G04 #@! TF.ProjectId,ODriveInterfacingBoard,4f447269-7665-4496-9e74-657266616369,rev?*
G04 #@! TF.SameCoordinates,Original*
G04 #@! TF.FileFunction,Copper,L2,Bot*
G04 #@! TF.FilePolarity,Positive*
%FSLAX46Y46*%
G04 Gerber Fmt 4.6, Leading zero omitted, Abs format (unit mm)*
G04 Created by KiCad (PCBNEW (5.1.5)-2) date 2019-12-14 17:58:37*
%MOMM*%
%LPD*%
G04 APERTURE LIST*
%ADD10R,1.905000X3.810000*%
%ADD11C,7.400000*%
%ADD12O,2.540000X1.524000*%
%ADD13C,5.080000*%
%ADD14C,1.524000*%
%ADD15C,0.800000*%
%ADD16C,0.762000*%
%ADD17C,6.350000*%
%ADD18C,5.334000*%
%ADD19C,0.254000*%
G04 APERTURE END LIST*
D10*
X116841749Y-120484151D03*
X114301749Y-120484151D03*
X111761749Y-120484151D03*
X109221749Y-120484151D03*
X106681749Y-120484151D03*
X104141749Y-120484151D03*
X101601749Y-120484151D03*
X99061749Y-120484151D03*
X96521749Y-120484151D03*
X93981749Y-120484151D03*
X91441749Y-120484151D03*
X88901749Y-120484151D03*
X148881717Y-120484151D03*
X151421717Y-120484151D03*
X153961717Y-120484151D03*
X156501717Y-120484151D03*
X159041717Y-120484151D03*
X161581717Y-120484151D03*
X164121717Y-120484151D03*
X166661717Y-120484151D03*
X169201717Y-120484151D03*
X171741717Y-120484151D03*
X174281717Y-120484151D03*
X176821717Y-120484151D03*
X179361717Y-120484151D03*
X181901717Y-120484151D03*
X184441717Y-120484151D03*
X186981717Y-120484151D03*
X189521717Y-120484151D03*
X192061717Y-120484151D03*
X194601717Y-120484151D03*
D11*
X86341717Y-77397151D03*
X95841717Y-77397151D03*
X105341717Y-77397151D03*
X131341717Y-77397151D03*
X142841717Y-77397151D03*
X164841717Y-77397151D03*
X174341717Y-77397151D03*
X183841717Y-77397151D03*
X204841717Y-86397151D03*
X204841717Y-96897151D03*
D12*
X135978900Y-93649800D03*
X135978900Y-90246200D03*
X62141100Y-93649800D03*
X62141100Y-90246200D03*
D13*
X183769000Y-104775000D03*
X191643000Y-104775000D03*
X199517000Y-104775000D03*
D14*
X132588000Y-109728000D03*
X135128000Y-109728000D03*
X137668000Y-109728000D03*
D13*
X88519000Y-104775000D03*
X96393000Y-104775000D03*
X104267000Y-104775000D03*
X154178000Y-97028000D03*
X154178000Y-104902000D03*
D14*
X209219800Y-109728000D03*
X211759800Y-109728000D03*
X214299800Y-109728000D03*
X216839800Y-109728000D03*
X219379800Y-109728000D03*
X68707000Y-109728000D03*
X71247000Y-109728000D03*
X73787000Y-109728000D03*
X76327000Y-109728000D03*
X78867000Y-109728000D03*
D15*
X211455000Y-106680000D03*
X122301000Y-121031000D03*
X146939000Y-110109000D03*
X144145000Y-110109000D03*
X101600000Y-115824000D03*
X101600000Y-110744000D03*
X169545000Y-81280000D03*
X179070000Y-81407000D03*
X145796000Y-121285000D03*
X147320000Y-96520000D03*
X147320000Y-99060000D03*
X147320000Y-101600000D03*
X147320000Y-104140000D03*
X147320000Y-106680000D03*
X147320000Y-93980000D03*
X147320000Y-91440000D03*
X147320000Y-88900000D03*
X147320000Y-86360000D03*
X147320000Y-83820000D03*
X147320000Y-81280000D03*
X149860000Y-91440000D03*
X149860000Y-88900000D03*
X149860000Y-86360000D03*
X149860000Y-83820000D03*
X149860000Y-81280000D03*
X149860000Y-78740000D03*
X149860000Y-76200000D03*
X152400000Y-76200000D03*
X154940000Y-76200000D03*
X157480000Y-76200000D03*
X152400000Y-78740000D03*
X154940000Y-78740000D03*
X157480000Y-78740000D03*
X152400000Y-81280000D03*
X154940000Y-81280000D03*
X157480000Y-81280000D03*
X152400000Y-83820000D03*
X154940000Y-83820000D03*
X157480000Y-83820000D03*
X152400000Y-86360000D03*
X154940000Y-86360000D03*
X157480000Y-86360000D03*
X160020000Y-83820000D03*
X160020000Y-81280000D03*
X152400000Y-88900000D03*
X154940000Y-88900000D03*
X152400000Y-91440000D03*
X135128000Y-118364000D03*
X154940000Y-91440000D03*
X157480000Y-88900000D03*
X160020000Y-86360000D03*
X160020000Y-88900000D03*
X162560000Y-88900000D03*
X162560000Y-91440000D03*
X160020000Y-91440000D03*
X157480000Y-91440000D03*
X144780000Y-106680000D03*
X144780000Y-104140000D03*
X144780000Y-101600000D03*
X144780000Y-99060000D03*
X144780000Y-96520000D03*
X144780000Y-93980000D03*
X142240000Y-96520000D03*
X142240000Y-99060000D03*
X142240000Y-101600000D03*
X142240000Y-104140000D03*
X142240000Y-106680000D03*
X139700000Y-106680000D03*
X139700000Y-104140000D03*
X139700000Y-101600000D03*
X139700000Y-99060000D03*
X139700000Y-96520000D03*
X137160000Y-96520000D03*
X137160000Y-99060000D03*
X137160000Y-101600000D03*
X137160000Y-104140000D03*
X137160000Y-106680000D03*
X134620000Y-106680000D03*
X134620000Y-104140000D03*
X134620000Y-101600000D03*
X134620000Y-99060000D03*
X134620000Y-96520000D03*
X132080000Y-96520000D03*
X132080000Y-99060000D03*
X132080000Y-101600000D03*
X132080000Y-104140000D03*
X132080000Y-106680000D03*
X129540000Y-106680000D03*
X129540000Y-104140000D03*
X129540000Y-101600000D03*
X129540000Y-99060000D03*
X129540000Y-96520000D03*
X129540000Y-93980000D03*
X132080000Y-93980000D03*
X132080000Y-91440000D03*
X137160000Y-86360000D03*
X137160000Y-83820000D03*
X137160000Y-81280000D03*
X137160000Y-78740000D03*
X137160000Y-76200000D03*
X127000000Y-96520000D03*
X124460000Y-96520000D03*
X121920000Y-96520000D03*
X127000000Y-99060000D03*
X124460000Y-99060000D03*
X121920000Y-99060000D03*
X119380000Y-96520000D03*
X119380000Y-99060000D03*
X119380000Y-101600000D03*
X121920000Y-101600000D03*
X124460000Y-101600000D03*
X127000000Y-101600000D03*
X127000000Y-104140000D03*
X124460000Y-104140000D03*
X121920000Y-104140000D03*
X119380000Y-104140000D03*
X116840000Y-104140000D03*
X116840000Y-101600000D03*
X116840000Y-99060000D03*
X116840000Y-96520000D03*
X114300000Y-96520000D03*
X114300000Y-99060000D03*
X114300000Y-101600000D03*
X114300000Y-104140000D03*
X111760000Y-104140000D03*
X111760000Y-101600000D03*
X111760000Y-99060000D03*
X111760000Y-96520000D03*
X109220000Y-96520000D03*
X109220000Y-99060000D03*
X109220000Y-101600000D03*
X109220000Y-104140000D03*
X127000000Y-86360000D03*
X124460000Y-86360000D03*
X121920000Y-86360000D03*
X119380000Y-86360000D03*
X116840000Y-86360000D03*
X114300000Y-86360000D03*
X111760000Y-86360000D03*
X111760000Y-83820000D03*
X114300000Y-83820000D03*
X124460000Y-83820000D03*
X127000000Y-83820000D03*
X127000000Y-81280000D03*
X124460000Y-81280000D03*
X114300000Y-81280000D03*
X111760000Y-81280000D03*
X111760000Y-78740000D03*
X111760000Y-76200000D03*
X114300000Y-76200000D03*
X114300000Y-78740000D03*
X116840000Y-76200000D03*
X119380000Y-76200000D03*
X121920000Y-76200000D03*
X124460000Y-78740000D03*
X124460000Y-76200000D03*
X80010000Y-86360000D03*
X80010000Y-83820000D03*
X80010000Y-81280000D03*
X80010000Y-78740000D03*
X80010000Y-76200000D03*
X77470000Y-76200000D03*
X77470000Y-78740000D03*
X77470000Y-81280000D03*
X77470000Y-83820000D03*
X77470000Y-86360000D03*
X74930000Y-86360000D03*
X74930000Y-83820000D03*
X72390000Y-86360000D03*
X72390000Y-83820000D03*
X69850000Y-83820000D03*
X69850000Y-86360000D03*
X67310000Y-86360000D03*
X67310000Y-83820000D03*
X64770000Y-76200000D03*
X64770000Y-78740000D03*
X64770000Y-81280000D03*
X64770000Y-83820000D03*
X64770000Y-86360000D03*
X62230000Y-86360000D03*
X62230000Y-83820000D03*
X62230000Y-81280000D03*
X62230000Y-78740000D03*
X62230000Y-76200000D03*
X59690000Y-76200000D03*
X59690000Y-78740000D03*
X59690000Y-81280000D03*
X59690000Y-83820000D03*
X59690000Y-86360000D03*
X59690000Y-88900000D03*
X57150000Y-88900000D03*
X57150000Y-86360000D03*
X57150000Y-83820000D03*
X57150000Y-81280000D03*
X54610000Y-81280000D03*
X54610000Y-83820000D03*
X54610000Y-86360000D03*
X54610000Y-88900000D03*
X57150000Y-91440000D03*
X57150000Y-93980000D03*
X54610000Y-91440000D03*
X54610000Y-93980000D03*
X54610000Y-109220000D03*
X57150000Y-109220000D03*
X59690000Y-109220000D03*
X62230000Y-109220000D03*
X64770000Y-109220000D03*
X54610000Y-111760000D03*
X57150000Y-111760000D03*
X59690000Y-111760000D03*
X62230000Y-111760000D03*
X64770000Y-111760000D03*
X64770000Y-114300000D03*
X62230000Y-114300000D03*
X59690000Y-114300000D03*
X57150000Y-114300000D03*
X54610000Y-114300000D03*
X59690000Y-116840000D03*
X62230000Y-116840000D03*
X64770000Y-116840000D03*
X64770000Y-119380000D03*
X62230000Y-119380000D03*
X59690000Y-119380000D03*
X191135000Y-76200000D03*
X191135000Y-78740000D03*
X191135000Y-81280000D03*
X193675000Y-76200000D03*
X193675000Y-78740000D03*
X193675000Y-81280000D03*
X196215000Y-76200000D03*
X196215000Y-78740000D03*
X196215000Y-81280000D03*
X198755000Y-76200000D03*
X198755000Y-78740000D03*
X198755000Y-81280000D03*
X201295000Y-76200000D03*
X201295000Y-78740000D03*
X201295000Y-81280000D03*
X213995000Y-81280000D03*
X213995000Y-78740000D03*
X213995000Y-76200000D03*
X216535000Y-76200000D03*
X219075000Y-76200000D03*
X221615000Y-76200000D03*
X224155000Y-76200000D03*
X226695000Y-76200000D03*
X229235000Y-76200000D03*
X216535000Y-78740000D03*
X219075000Y-78740000D03*
X221615000Y-78740000D03*
X224155000Y-78740000D03*
X226695000Y-78740000D03*
X229235000Y-78740000D03*
X229235000Y-81280000D03*
X226695000Y-81280000D03*
X224155000Y-81280000D03*
X221615000Y-81280000D03*
X219075000Y-81280000D03*
X216535000Y-81280000D03*
X229235000Y-83820000D03*
X226695000Y-83820000D03*
X224155000Y-83820000D03*
X221615000Y-83820000D03*
X219075000Y-83820000D03*
X216535000Y-83820000D03*
X213995000Y-83820000D03*
X211455000Y-83820000D03*
X211455000Y-86360000D03*
X211455000Y-88900000D03*
X213995000Y-86360000D03*
X216535000Y-86360000D03*
X219075000Y-86360000D03*
X221615000Y-86360000D03*
X224155000Y-86360000D03*
X226695000Y-86360000D03*
X229235000Y-86360000D03*
X229235000Y-88900000D03*
X226695000Y-88900000D03*
X224155000Y-88900000D03*
X221615000Y-88900000D03*
X219075000Y-88900000D03*
X216535000Y-88900000D03*
X213995000Y-88900000D03*
X211455000Y-91440000D03*
X213995000Y-91440000D03*
X216535000Y-91440000D03*
X219075000Y-91440000D03*
X221615000Y-91440000D03*
X224155000Y-91440000D03*
X226695000Y-91440000D03*
X229235000Y-91440000D03*
X231775000Y-81280000D03*
X234315000Y-81280000D03*
X234315000Y-83820000D03*
X231775000Y-83820000D03*
X231775000Y-86360000D03*
X234315000Y-86360000D03*
X234315000Y-88900000D03*
X231775000Y-88900000D03*
X231775000Y-91440000D03*
X234315000Y-91440000D03*
X211455000Y-93980000D03*
X213995000Y-93980000D03*
X216535000Y-93980000D03*
X219075000Y-93980000D03*
X221615000Y-93980000D03*
X224155000Y-93980000D03*
X226695000Y-93980000D03*
X229235000Y-93980000D03*
X231775000Y-93980000D03*
X234315000Y-93980000D03*
X211455000Y-96520000D03*
X213995000Y-96520000D03*
X216535000Y-96520000D03*
X216535000Y-99060000D03*
X213995000Y-99060000D03*
X211455000Y-99060000D03*
X211455000Y-101600000D03*
X213995000Y-101600000D03*
X216535000Y-101600000D03*
X213995000Y-104140000D03*
X211455000Y-104140000D03*
X208915000Y-104140000D03*
X206375000Y-104140000D03*
X203835000Y-104140000D03*
X203835000Y-106680000D03*
X206375000Y-106680000D03*
X208915000Y-106680000D03*
X152400000Y-100965000D03*
X138938000Y-121158000D03*
X141478000Y-109728000D03*
X133858000Y-120015000D03*
X136398000Y-120015000D03*
X71247000Y-112903000D03*
X76327000Y-115570000D03*
X70485000Y-106299000D03*
X70485000Y-99949000D03*
X73787000Y-112903000D03*
X70485000Y-103124000D03*
X210185000Y-111760000D03*
D16*
X194601717Y-119120849D02*
X194601717Y-121627151D01*
X188881566Y-117221000D02*
X192701868Y-117221000D01*
X186981717Y-119120849D02*
X188881566Y-117221000D01*
X192701868Y-117221000D02*
X194601717Y-119120849D01*
X186981717Y-121627151D02*
X186981717Y-119120849D01*
X151382868Y-121666000D02*
X151421717Y-121627151D01*
X151421717Y-121627151D02*
X148881717Y-121627151D01*
X146138151Y-121627151D02*
X145796000Y-121285000D01*
X148881717Y-121627151D02*
X146138151Y-121627151D01*
X139700000Y-107950000D02*
X141478000Y-109728000D01*
X132588000Y-109728000D02*
X134366000Y-107950000D01*
X134366000Y-107950000D02*
X139700000Y-107950000D01*
X171741717Y-121627151D02*
X171741717Y-119120849D01*
X141541500Y-117829013D02*
X141541500Y-120078500D01*
X169333868Y-116713000D02*
X142657513Y-116713000D01*
X171741717Y-119120849D02*
X169333868Y-116713000D01*
X142657513Y-116713000D02*
X141541500Y-117829013D01*
X141541500Y-120078500D02*
X140462000Y-121158000D01*
X140462000Y-121158000D02*
X138938000Y-121158000D01*
X136398000Y-120015000D02*
X136398000Y-120015000D01*
X168275000Y-117729000D02*
X169201717Y-118655717D01*
X141033500Y-122174000D02*
X142684500Y-120523000D01*
X143002000Y-117729000D02*
X168275000Y-117729000D01*
X169201717Y-118655717D02*
X169201717Y-121627151D01*
X139573000Y-122174000D02*
X141033500Y-122174000D01*
X142684500Y-120523000D02*
X142684500Y-118046500D01*
X142684500Y-118046500D02*
X143002000Y-117729000D01*
X136398000Y-120904000D02*
X136398000Y-120015000D01*
X139573000Y-122174000D02*
X137668000Y-122174000D01*
X137668000Y-122174000D02*
X136398000Y-120904000D01*
D17*
X173836651Y-104991849D02*
X192341500Y-86487000D01*
X192431349Y-86397151D02*
X192341500Y-86487000D01*
X204841717Y-86397151D02*
X192431349Y-86397151D01*
X154178000Y-104902000D02*
X173926500Y-104902000D01*
D18*
X142841717Y-77397151D02*
X142841717Y-89822283D01*
X142841717Y-89822283D02*
X140716000Y-91948000D01*
X140716000Y-91948000D02*
X135636000Y-91948000D01*
X131341717Y-77397151D02*
X131341717Y-82629741D01*
X131341717Y-77397151D02*
X131341717Y-86844283D01*
X131341717Y-86844283D02*
X126238000Y-91948000D01*
X126238000Y-91948000D02*
X61722000Y-91948000D01*
D16*
X99061749Y-121627151D02*
X99061749Y-117857749D01*
X99061749Y-117857749D02*
X93472000Y-112268000D01*
X93472000Y-112268000D02*
X92710000Y-111506000D01*
X92710000Y-111506000D02*
X90043000Y-111506000D01*
X90043000Y-111506000D02*
X78486000Y-111506000D01*
X75184000Y-111506000D02*
X72644000Y-111506000D01*
X78486000Y-111506000D02*
X75184000Y-111506000D01*
X72644000Y-111506000D02*
X71247000Y-112903000D01*
X71247000Y-112903000D02*
X71247000Y-112903000D01*
X114301749Y-121627151D02*
X114300000Y-117983000D01*
X114300000Y-117983000D02*
X116586000Y-115697000D01*
X116586000Y-115697000D02*
X206629000Y-115697000D01*
X207699882Y-115697000D02*
X207518000Y-115697000D01*
X211759800Y-110794800D02*
X211759800Y-111637082D01*
X211759800Y-109728000D02*
X211759800Y-110794800D01*
X206629000Y-115697000D02*
X207518000Y-115697000D01*
X211759800Y-111637082D02*
X207699882Y-115697000D01*
X88900000Y-115570000D02*
X76327000Y-115570000D01*
X91441749Y-121627151D02*
X91441749Y-118111749D01*
X91441749Y-118111749D02*
X88900000Y-115570000D01*
X76327000Y-115570000D02*
X76327000Y-115570000D01*
X76327000Y-109728000D02*
X72898000Y-106299000D01*
X72898000Y-106299000D02*
X70485000Y-106299000D01*
X70485000Y-106299000D02*
X70485000Y-106299000D01*
X93981749Y-120425070D02*
X93980000Y-120423321D01*
X93981749Y-121627151D02*
X93981749Y-120425070D01*
X93980000Y-120423321D02*
X93980000Y-117856000D01*
X93980000Y-117856000D02*
X90932000Y-114808000D01*
X91948000Y-115824000D02*
X90424000Y-114300000D01*
X91948000Y-115824000D02*
X93980000Y-117856000D01*
X90424000Y-114300000D02*
X69469000Y-114300000D01*
X69469000Y-114300000D02*
X68707000Y-113538000D01*
X68707000Y-113538000D02*
X68707000Y-109728000D01*
X67945001Y-108966001D02*
X67945001Y-102488999D01*
X68707000Y-109728000D02*
X67945001Y-108966001D01*
X67945001Y-102488999D02*
X70485000Y-99949000D01*
X70485000Y-99949000D02*
X70485000Y-99949000D01*
X96521749Y-117856000D02*
X96521749Y-121627151D01*
X96520000Y-117856000D02*
X96521749Y-117856000D01*
X73787000Y-112903000D02*
X91567000Y-112903000D01*
X91567000Y-112903000D02*
X96520000Y-117856000D01*
X73787000Y-109728000D02*
X72136000Y-108077000D01*
X72136000Y-108077000D02*
X69723000Y-108077000D01*
X69723000Y-108077000D02*
X69088000Y-107442000D01*
X69088000Y-107442000D02*
X69088000Y-104521000D01*
X69088000Y-104521000D02*
X70485000Y-103124000D01*
X70485000Y-103124000D02*
X70485000Y-103124000D01*
X106681749Y-117854251D02*
X106681749Y-121627151D01*
X206375000Y-112649000D02*
X111887000Y-112649000D01*
X207137000Y-111887000D02*
X206375000Y-112649000D01*
X216154000Y-107696000D02*
X207645000Y-107696000D01*
X216839800Y-109728000D02*
X216839800Y-108381800D01*
X111887000Y-112649000D02*
X106681749Y-117854251D01*
X216839800Y-108381800D02*
X216154000Y-107696000D01*
X207645000Y-107696000D02*
X207137000Y-108204000D01*
X207137000Y-108204000D02*
X207137000Y-111887000D01*
X209219800Y-109728000D02*
X208457801Y-110489999D01*
X208457801Y-110489999D02*
X208457801Y-111963199D01*
X109221749Y-117981251D02*
X109221749Y-121627151D01*
X208457801Y-111963199D02*
X207899000Y-112522000D01*
X206756000Y-113665000D02*
X113538000Y-113665000D01*
X113538000Y-113665000D02*
X109221749Y-117981251D01*
X207899000Y-112522000D02*
X206756000Y-113665000D01*
X111761749Y-121627151D02*
X111761749Y-118616251D01*
X111761749Y-121627151D02*
X111761749Y-117981251D01*
X111761749Y-117981251D02*
X115062000Y-114681000D01*
X205740000Y-114681000D02*
X207264000Y-114681000D01*
X205740000Y-114681000D02*
X207010000Y-114681000D01*
X115062000Y-114681000D02*
X205740000Y-114681000D01*
X207264000Y-114681000D02*
X210185000Y-111760000D01*
X210185000Y-111760000D02*
X210185000Y-111760000D01*
D19*
G36*
X152371145Y-122226000D02*
G01*
X142418340Y-122226000D01*
X143367633Y-121276708D01*
X143406396Y-121244896D01*
X143533360Y-121090190D01*
X143627702Y-120913687D01*
X143685798Y-120722171D01*
X143700500Y-120572902D01*
X143700500Y-120572901D01*
X143705415Y-120523000D01*
X143700500Y-120473098D01*
X143700500Y-118745000D01*
X152371145Y-118745000D01*
X152371145Y-122226000D01*
G37*
X152371145Y-122226000D02*
X142418340Y-122226000D01*
X143367633Y-121276708D01*
X143406396Y-121244896D01*
X143533360Y-121090190D01*
X143627702Y-120913687D01*
X143685798Y-120722171D01*
X143700500Y-120572902D01*
X143700500Y-120572901D01*
X143705415Y-120523000D01*
X143700500Y-120473098D01*
X143700500Y-118745000D01*
X152371145Y-118745000D01*
X152371145Y-122226000D01*
G36*
X129484868Y-116859588D02*
G01*
X129226595Y-117246121D01*
X129048694Y-117675613D01*
X128958000Y-118131560D01*
X128958000Y-118596440D01*
X129048694Y-119052387D01*
X129226595Y-119481879D01*
X129484868Y-119868412D01*
X129813588Y-120197132D01*
X130200121Y-120455405D01*
X130629613Y-120633306D01*
X131085560Y-120724000D01*
X131550440Y-120724000D01*
X132006387Y-120633306D01*
X132435879Y-120455405D01*
X132822412Y-120197132D01*
X132836207Y-120183337D01*
X132862774Y-120316898D01*
X132940795Y-120505256D01*
X133054063Y-120674774D01*
X133198226Y-120818937D01*
X133367744Y-120932205D01*
X133556102Y-121010226D01*
X133756061Y-121050000D01*
X133959939Y-121050000D01*
X134159898Y-121010226D01*
X134348256Y-120932205D01*
X134517774Y-120818937D01*
X134661937Y-120674774D01*
X134775205Y-120505256D01*
X134853226Y-120316898D01*
X134893000Y-120116939D01*
X134893000Y-119913061D01*
X134853226Y-119713102D01*
X134775205Y-119524744D01*
X134661937Y-119355226D01*
X134517774Y-119211063D01*
X134348256Y-119097795D01*
X134159898Y-119019774D01*
X133959939Y-118980000D01*
X133756061Y-118980000D01*
X133595346Y-119011968D01*
X133678000Y-118596440D01*
X133678000Y-118131560D01*
X133587306Y-117675613D01*
X133409405Y-117246121D01*
X133151132Y-116859588D01*
X133004544Y-116713000D01*
X137251456Y-116713000D01*
X137104868Y-116859588D01*
X136846595Y-117246121D01*
X136668694Y-117675613D01*
X136578000Y-118131560D01*
X136578000Y-118596440D01*
X136660654Y-119011968D01*
X136499939Y-118980000D01*
X136296061Y-118980000D01*
X136096102Y-119019774D01*
X135907744Y-119097795D01*
X135738226Y-119211063D01*
X135594063Y-119355226D01*
X135480795Y-119524744D01*
X135402774Y-119713102D01*
X135363000Y-119913061D01*
X135363000Y-120116939D01*
X135382000Y-120212459D01*
X135382000Y-120854098D01*
X135377085Y-120904000D01*
X135382000Y-120953901D01*
X135396702Y-121103170D01*
X135454798Y-121294686D01*
X135549140Y-121471190D01*
X135676104Y-121625896D01*
X135714872Y-121657712D01*
X136283160Y-122226000D01*
X118432321Y-122226000D01*
X118432321Y-118579151D01*
X118420061Y-118454669D01*
X118383751Y-118334971D01*
X118324786Y-118224657D01*
X118245434Y-118127966D01*
X118148743Y-118048614D01*
X118038429Y-117989649D01*
X117918731Y-117953339D01*
X117794249Y-117941079D01*
X115889249Y-117941079D01*
X115766691Y-117953150D01*
X117006841Y-116713000D01*
X129631456Y-116713000D01*
X129484868Y-116859588D01*
G37*
X129484868Y-116859588D02*
X129226595Y-117246121D01*
X129048694Y-117675613D01*
X128958000Y-118131560D01*
X128958000Y-118596440D01*
X129048694Y-119052387D01*
X129226595Y-119481879D01*
X129484868Y-119868412D01*
X129813588Y-120197132D01*
X130200121Y-120455405D01*
X130629613Y-120633306D01*
X131085560Y-120724000D01*
X131550440Y-120724000D01*
X132006387Y-120633306D01*
X132435879Y-120455405D01*
X132822412Y-120197132D01*
X132836207Y-120183337D01*
X132862774Y-120316898D01*
X132940795Y-120505256D01*
X133054063Y-120674774D01*
X133198226Y-120818937D01*
X133367744Y-120932205D01*
X133556102Y-121010226D01*
X133756061Y-121050000D01*
X133959939Y-121050000D01*
X134159898Y-121010226D01*
X134348256Y-120932205D01*
X134517774Y-120818937D01*
X134661937Y-120674774D01*
X134775205Y-120505256D01*
X134853226Y-120316898D01*
X134893000Y-120116939D01*
X134893000Y-119913061D01*
X134853226Y-119713102D01*
X134775205Y-119524744D01*
X134661937Y-119355226D01*
X134517774Y-119211063D01*
X134348256Y-119097795D01*
X134159898Y-119019774D01*
X133959939Y-118980000D01*
X133756061Y-118980000D01*
X133595346Y-119011968D01*
X133678000Y-118596440D01*
X133678000Y-118131560D01*
X133587306Y-117675613D01*
X133409405Y-117246121D01*
X133151132Y-116859588D01*
X133004544Y-116713000D01*
X137251456Y-116713000D01*
X137104868Y-116859588D01*
X136846595Y-117246121D01*
X136668694Y-117675613D01*
X136578000Y-118131560D01*
X136578000Y-118596440D01*
X136660654Y-119011968D01*
X136499939Y-118980000D01*
X136296061Y-118980000D01*
X136096102Y-119019774D01*
X135907744Y-119097795D01*
X135738226Y-119211063D01*
X135594063Y-119355226D01*
X135480795Y-119524744D01*
X135402774Y-119713102D01*
X135363000Y-119913061D01*
X135363000Y-120116939D01*
X135382000Y-120212459D01*
X135382000Y-120854098D01*
X135377085Y-120904000D01*
X135382000Y-120953901D01*
X135396702Y-121103170D01*
X135454798Y-121294686D01*
X135549140Y-121471190D01*
X135676104Y-121625896D01*
X135714872Y-121657712D01*
X136283160Y-122226000D01*
X118432321Y-122226000D01*
X118432321Y-118579151D01*
X118420061Y-118454669D01*
X118383751Y-118334971D01*
X118324786Y-118224657D01*
X118245434Y-118127966D01*
X118148743Y-118048614D01*
X118038429Y-117989649D01*
X117918731Y-117953339D01*
X117794249Y-117941079D01*
X115889249Y-117941079D01*
X115766691Y-117953150D01*
X117006841Y-116713000D01*
X129631456Y-116713000D01*
X129484868Y-116859588D01*
G36*
X83578316Y-74029937D02*
G01*
X82974503Y-74633750D01*
X82500090Y-75343759D01*
X82173309Y-76132678D01*
X82006717Y-76970191D01*
X82006717Y-77824111D01*
X82173309Y-78661624D01*
X82500090Y-79450543D01*
X82974503Y-80160552D01*
X83578316Y-80764365D01*
X84288325Y-81238778D01*
X85077244Y-81565559D01*
X85914757Y-81732151D01*
X86768677Y-81732151D01*
X87606190Y-81565559D01*
X88395109Y-81238778D01*
X89105118Y-80764365D01*
X89708931Y-80160552D01*
X90183344Y-79450543D01*
X90510125Y-78661624D01*
X90676717Y-77824111D01*
X90676717Y-76970191D01*
X90510125Y-76132678D01*
X90183344Y-75343759D01*
X89708931Y-74633750D01*
X89105118Y-74029937D01*
X88473645Y-73608000D01*
X93709789Y-73608000D01*
X93078316Y-74029937D01*
X92474503Y-74633750D01*
X92000090Y-75343759D01*
X91673309Y-76132678D01*
X91506717Y-76970191D01*
X91506717Y-77824111D01*
X91673309Y-78661624D01*
X92000090Y-79450543D01*
X92474503Y-80160552D01*
X93078316Y-80764365D01*
X93788325Y-81238778D01*
X94577244Y-81565559D01*
X95414757Y-81732151D01*
X96268677Y-81732151D01*
X97106190Y-81565559D01*
X97895109Y-81238778D01*
X98605118Y-80764365D01*
X99208931Y-80160552D01*
X99683344Y-79450543D01*
X100010125Y-78661624D01*
X100176717Y-77824111D01*
X100176717Y-76970191D01*
X100010125Y-76132678D01*
X99683344Y-75343759D01*
X99208931Y-74633750D01*
X98605118Y-74029937D01*
X97973645Y-73608000D01*
X103209789Y-73608000D01*
X102578316Y-74029937D01*
X101974503Y-74633750D01*
X101500090Y-75343759D01*
X101173309Y-76132678D01*
X101006717Y-76970191D01*
X101006717Y-77824111D01*
X101173309Y-78661624D01*
X101500090Y-79450543D01*
X101974503Y-80160552D01*
X102578316Y-80764365D01*
X103288325Y-81238778D01*
X104077244Y-81565559D01*
X104914757Y-81732151D01*
X105768677Y-81732151D01*
X106606190Y-81565559D01*
X107395109Y-81238778D01*
X107809360Y-80961984D01*
X115364000Y-80961984D01*
X115364000Y-81678016D01*
X115503691Y-82380290D01*
X115777705Y-83041818D01*
X116175511Y-83637177D01*
X116681823Y-84143489D01*
X117277182Y-84541295D01*
X117938710Y-84815309D01*
X118640984Y-84955000D01*
X119357016Y-84955000D01*
X120059290Y-84815309D01*
X120720818Y-84541295D01*
X121316177Y-84143489D01*
X121822489Y-83637177D01*
X122220295Y-83041818D01*
X122494309Y-82380290D01*
X122634000Y-81678016D01*
X122634000Y-80961984D01*
X122494309Y-80259710D01*
X122220295Y-79598182D01*
X121822489Y-79002823D01*
X121316177Y-78496511D01*
X120720818Y-78098705D01*
X120059290Y-77824691D01*
X119357016Y-77685000D01*
X118640984Y-77685000D01*
X117938710Y-77824691D01*
X117277182Y-78098705D01*
X116681823Y-78496511D01*
X116175511Y-79002823D01*
X115777705Y-79598182D01*
X115503691Y-80259710D01*
X115364000Y-80961984D01*
X107809360Y-80961984D01*
X108105118Y-80764365D01*
X108708931Y-80160552D01*
X109183344Y-79450543D01*
X109510125Y-78661624D01*
X109676717Y-77824111D01*
X109676717Y-76970191D01*
X109510125Y-76132678D01*
X109183344Y-75343759D01*
X108708931Y-74633750D01*
X108105118Y-74029937D01*
X107473645Y-73608000D01*
X129209789Y-73608000D01*
X128578316Y-74029937D01*
X127974503Y-74633750D01*
X127500090Y-75343759D01*
X127173309Y-76132678D01*
X127006717Y-76970191D01*
X127006717Y-77824111D01*
X127173309Y-78661624D01*
X127500090Y-79450543D01*
X127974503Y-80160552D01*
X128039717Y-80225766D01*
X128039718Y-85476549D01*
X124870268Y-88646000D01*
X61559793Y-88646000D01*
X61074695Y-88693778D01*
X60452266Y-88882590D01*
X59878631Y-89189204D01*
X59375837Y-89601837D01*
X58963204Y-90104631D01*
X58656590Y-90678266D01*
X58467778Y-91300695D01*
X58404024Y-91948000D01*
X58467778Y-92595305D01*
X58656590Y-93217734D01*
X58963204Y-93791369D01*
X59375837Y-94294163D01*
X59878631Y-94706796D01*
X60452266Y-95013410D01*
X61074695Y-95202222D01*
X61559793Y-95250000D01*
X126075801Y-95250000D01*
X126238000Y-95265975D01*
X126400199Y-95250000D01*
X126400207Y-95250000D01*
X126885305Y-95202222D01*
X127507734Y-95013410D01*
X128081369Y-94706796D01*
X128584163Y-94294163D01*
X128687567Y-94168165D01*
X133561887Y-89293846D01*
X133687880Y-89190446D01*
X134100513Y-88687652D01*
X134407127Y-88114017D01*
X134595939Y-87491588D01*
X134643717Y-87006490D01*
X134643717Y-87006482D01*
X134659692Y-86844283D01*
X134643717Y-86682084D01*
X134643717Y-80225766D01*
X134708931Y-80160552D01*
X135183344Y-79450543D01*
X135510125Y-78661624D01*
X135676717Y-77824111D01*
X135676717Y-76970191D01*
X135510125Y-76132678D01*
X135183344Y-75343759D01*
X134708931Y-74633750D01*
X134105118Y-74029937D01*
X133473645Y-73608000D01*
X140709789Y-73608000D01*
X140078316Y-74029937D01*
X139474503Y-74633750D01*
X139000090Y-75343759D01*
X138673309Y-76132678D01*
X138506717Y-76970191D01*
X138506717Y-77824111D01*
X138673309Y-78661624D01*
X139000090Y-79450543D01*
X139474503Y-80160552D01*
X139539717Y-80225766D01*
X139539718Y-88454550D01*
X139348268Y-88646000D01*
X135473793Y-88646000D01*
X134988695Y-88693778D01*
X134366266Y-88882590D01*
X133792631Y-89189204D01*
X133289837Y-89601837D01*
X132877204Y-90104631D01*
X132570590Y-90678266D01*
X132381778Y-91300695D01*
X132318024Y-91948000D01*
X132381778Y-92595305D01*
X132570590Y-93217734D01*
X132877204Y-93791369D01*
X133289837Y-94294163D01*
X133792631Y-94706796D01*
X134366266Y-95013410D01*
X134988695Y-95202222D01*
X135473793Y-95250000D01*
X140553801Y-95250000D01*
X140716000Y-95265975D01*
X140878199Y-95250000D01*
X140878207Y-95250000D01*
X141363305Y-95202222D01*
X141985734Y-95013410D01*
X142559369Y-94706796D01*
X143062163Y-94294163D01*
X143165567Y-94168165D01*
X145061882Y-92271850D01*
X145187880Y-92168446D01*
X145600513Y-91665652D01*
X145907127Y-91092017D01*
X146095939Y-90469588D01*
X146143717Y-89984490D01*
X146143717Y-89984482D01*
X146159692Y-89822283D01*
X146143717Y-89660084D01*
X146143717Y-80225766D01*
X146208931Y-80160552D01*
X146683344Y-79450543D01*
X147010125Y-78661624D01*
X147176717Y-77824111D01*
X147176717Y-76970191D01*
X147010125Y-76132678D01*
X146683344Y-75343759D01*
X146208931Y-74633750D01*
X145605118Y-74029937D01*
X144973645Y-73608000D01*
X162709789Y-73608000D01*
X162078316Y-74029937D01*
X161474503Y-74633750D01*
X161000090Y-75343759D01*
X160673309Y-76132678D01*
X160506717Y-76970191D01*
X160506717Y-77824111D01*
X160673309Y-78661624D01*
X161000090Y-79450543D01*
X161474503Y-80160552D01*
X162078316Y-80764365D01*
X162788325Y-81238778D01*
X163577244Y-81565559D01*
X164414757Y-81732151D01*
X165268677Y-81732151D01*
X166106190Y-81565559D01*
X166895109Y-81238778D01*
X167605118Y-80764365D01*
X168208931Y-80160552D01*
X168683344Y-79450543D01*
X169010125Y-78661624D01*
X169176717Y-77824111D01*
X169176717Y-76970191D01*
X169010125Y-76132678D01*
X168683344Y-75343759D01*
X168208931Y-74633750D01*
X167605118Y-74029937D01*
X166973645Y-73608000D01*
X172209789Y-73608000D01*
X171578316Y-74029937D01*
X170974503Y-74633750D01*
X170500090Y-75343759D01*
X170173309Y-76132678D01*
X170006717Y-76970191D01*
X170006717Y-77824111D01*
X170173309Y-78661624D01*
X170500090Y-79450543D01*
X170974503Y-80160552D01*
X171578316Y-80764365D01*
X172288325Y-81238778D01*
X173077244Y-81565559D01*
X173914757Y-81732151D01*
X174768677Y-81732151D01*
X175606190Y-81565559D01*
X176395109Y-81238778D01*
X177105118Y-80764365D01*
X177708931Y-80160552D01*
X178183344Y-79450543D01*
X178510125Y-78661624D01*
X178676717Y-77824111D01*
X178676717Y-76970191D01*
X178510125Y-76132678D01*
X178183344Y-75343759D01*
X177708931Y-74633750D01*
X177105118Y-74029937D01*
X176473645Y-73608000D01*
X181709789Y-73608000D01*
X181078316Y-74029937D01*
X180474503Y-74633750D01*
X180000090Y-75343759D01*
X179673309Y-76132678D01*
X179506717Y-76970191D01*
X179506717Y-77824111D01*
X179673309Y-78661624D01*
X180000090Y-79450543D01*
X180474503Y-80160552D01*
X181078316Y-80764365D01*
X181788325Y-81238778D01*
X182577244Y-81565559D01*
X183414757Y-81732151D01*
X184268677Y-81732151D01*
X185106190Y-81565559D01*
X185895109Y-81238778D01*
X186605118Y-80764365D01*
X187208931Y-80160552D01*
X187683344Y-79450543D01*
X188010125Y-78661624D01*
X188176717Y-77824111D01*
X188176717Y-76970191D01*
X188116444Y-76667174D01*
X205006717Y-76667174D01*
X205006717Y-77127128D01*
X205096450Y-77578245D01*
X205272467Y-78003188D01*
X205528004Y-78385627D01*
X205853241Y-78710864D01*
X206235680Y-78966401D01*
X206660623Y-79142418D01*
X207111740Y-79232151D01*
X207571694Y-79232151D01*
X208022811Y-79142418D01*
X208447754Y-78966401D01*
X208830193Y-78710864D01*
X209155430Y-78385627D01*
X209410967Y-78003188D01*
X209586984Y-77578245D01*
X209676717Y-77127128D01*
X209676717Y-76667174D01*
X209586984Y-76216057D01*
X209484438Y-75968488D01*
X232599423Y-75968488D01*
X232599423Y-76431512D01*
X232689755Y-76885638D01*
X232866946Y-77313416D01*
X233124188Y-77698405D01*
X233451595Y-78025812D01*
X233836584Y-78283054D01*
X234264362Y-78460245D01*
X234718488Y-78550577D01*
X235181512Y-78550577D01*
X235635638Y-78460245D01*
X236063416Y-78283054D01*
X236448405Y-78025812D01*
X236775812Y-77698405D01*
X237033054Y-77313416D01*
X237210245Y-76885638D01*
X237300577Y-76431512D01*
X237300577Y-75968488D01*
X237210245Y-75514362D01*
X237033054Y-75086584D01*
X236775812Y-74701595D01*
X236448405Y-74374188D01*
X236063416Y-74116946D01*
X235635638Y-73939755D01*
X235181512Y-73849423D01*
X234718488Y-73849423D01*
X234264362Y-73939755D01*
X233836584Y-74116946D01*
X233451595Y-74374188D01*
X233124188Y-74701595D01*
X232866946Y-75086584D01*
X232689755Y-75514362D01*
X232599423Y-75968488D01*
X209484438Y-75968488D01*
X209410967Y-75791114D01*
X209155430Y-75408675D01*
X208830193Y-75083438D01*
X208447754Y-74827901D01*
X208022811Y-74651884D01*
X207571694Y-74562151D01*
X207111740Y-74562151D01*
X206660623Y-74651884D01*
X206235680Y-74827901D01*
X205853241Y-75083438D01*
X205528004Y-75408675D01*
X205272467Y-75791114D01*
X205096450Y-76216057D01*
X205006717Y-76667174D01*
X188116444Y-76667174D01*
X188010125Y-76132678D01*
X187683344Y-75343759D01*
X187208931Y-74633750D01*
X186605118Y-74029937D01*
X185973645Y-73608000D01*
X237709278Y-73608000D01*
X237802772Y-73617167D01*
X237859314Y-73634238D01*
X237911452Y-73661961D01*
X237957219Y-73699288D01*
X237994862Y-73744790D01*
X238022951Y-73796740D01*
X238040415Y-73853156D01*
X238050000Y-73944350D01*
X238050001Y-121885268D01*
X238040833Y-121978771D01*
X238023762Y-122035314D01*
X237996040Y-122087451D01*
X237958711Y-122133221D01*
X237913210Y-122170862D01*
X237861260Y-122198952D01*
X237804845Y-122216415D01*
X237713650Y-122226000D01*
X193652289Y-122226000D01*
X193652289Y-118579151D01*
X193640029Y-118454669D01*
X193603719Y-118334971D01*
X193544754Y-118224657D01*
X193465402Y-118127966D01*
X193368711Y-118048614D01*
X193258397Y-117989649D01*
X193138699Y-117953339D01*
X193014217Y-117941079D01*
X191109217Y-117941079D01*
X190984735Y-117953339D01*
X190865037Y-117989649D01*
X190791717Y-118028840D01*
X190718397Y-117989649D01*
X190598699Y-117953339D01*
X190474217Y-117941079D01*
X188569217Y-117941079D01*
X188444735Y-117953339D01*
X188325037Y-117989649D01*
X188214723Y-118048614D01*
X188118032Y-118127966D01*
X188038680Y-118224657D01*
X187979715Y-118334971D01*
X187943405Y-118454669D01*
X187931145Y-118579151D01*
X187931145Y-122226000D01*
X186032289Y-122226000D01*
X186032289Y-118579151D01*
X186020029Y-118454669D01*
X185983719Y-118334971D01*
X185924754Y-118224657D01*
X185845402Y-118127966D01*
X185748711Y-118048614D01*
X185638397Y-117989649D01*
X185518699Y-117953339D01*
X185394217Y-117941079D01*
X183489217Y-117941079D01*
X183364735Y-117953339D01*
X183245037Y-117989649D01*
X183171717Y-118028840D01*
X183098397Y-117989649D01*
X182978699Y-117953339D01*
X182854217Y-117941079D01*
X180949217Y-117941079D01*
X180824735Y-117953339D01*
X180705037Y-117989649D01*
X180631717Y-118028840D01*
X180558397Y-117989649D01*
X180438699Y-117953339D01*
X180314217Y-117941079D01*
X178409217Y-117941079D01*
X178284735Y-117953339D01*
X178165037Y-117989649D01*
X178091717Y-118028840D01*
X178018397Y-117989649D01*
X177898699Y-117953339D01*
X177774217Y-117941079D01*
X175869217Y-117941079D01*
X175744735Y-117953339D01*
X175625037Y-117989649D01*
X175551717Y-118028840D01*
X175478397Y-117989649D01*
X175358699Y-117953339D01*
X175234217Y-117941079D01*
X173329217Y-117941079D01*
X173204735Y-117953339D01*
X173085037Y-117989649D01*
X173011717Y-118028840D01*
X172938397Y-117989649D01*
X172818699Y-117953339D01*
X172694217Y-117941079D01*
X171998788Y-117941079D01*
X170770708Y-116713000D01*
X206263256Y-116713000D01*
X206116668Y-116859588D01*
X205858395Y-117246121D01*
X205680494Y-117675613D01*
X205589800Y-118131560D01*
X205589800Y-118596440D01*
X205680494Y-119052387D01*
X205858395Y-119481879D01*
X206116668Y-119868412D01*
X206445388Y-120197132D01*
X206831921Y-120455405D01*
X207261413Y-120633306D01*
X207717360Y-120724000D01*
X208182240Y-120724000D01*
X208638187Y-120633306D01*
X209067679Y-120455405D01*
X209454212Y-120197132D01*
X209782932Y-119868412D01*
X210041205Y-119481879D01*
X210219106Y-119052387D01*
X210309800Y-118596440D01*
X210309800Y-118131560D01*
X218289800Y-118131560D01*
X218289800Y-118596440D01*
X218380494Y-119052387D01*
X218558395Y-119481879D01*
X218816668Y-119868412D01*
X219145388Y-120197132D01*
X219531921Y-120455405D01*
X219961413Y-120633306D01*
X220417360Y-120724000D01*
X220882240Y-120724000D01*
X221338187Y-120633306D01*
X221767679Y-120455405D01*
X222154212Y-120197132D01*
X222482932Y-119868412D01*
X222741205Y-119481879D01*
X222879299Y-119148488D01*
X232599423Y-119148488D01*
X232599423Y-119611512D01*
X232689755Y-120065638D01*
X232866946Y-120493416D01*
X233124188Y-120878405D01*
X233451595Y-121205812D01*
X233836584Y-121463054D01*
X234264362Y-121640245D01*
X234718488Y-121730577D01*
X235181512Y-121730577D01*
X235635638Y-121640245D01*
X236063416Y-121463054D01*
X236448405Y-121205812D01*
X236775812Y-120878405D01*
X237033054Y-120493416D01*
X237210245Y-120065638D01*
X237300577Y-119611512D01*
X237300577Y-119148488D01*
X237210245Y-118694362D01*
X237033054Y-118266584D01*
X236775812Y-117881595D01*
X236448405Y-117554188D01*
X236063416Y-117296946D01*
X235635638Y-117119755D01*
X235181512Y-117029423D01*
X234718488Y-117029423D01*
X234264362Y-117119755D01*
X233836584Y-117296946D01*
X233451595Y-117554188D01*
X233124188Y-117881595D01*
X232866946Y-118266584D01*
X232689755Y-118694362D01*
X232599423Y-119148488D01*
X222879299Y-119148488D01*
X222919106Y-119052387D01*
X223009800Y-118596440D01*
X223009800Y-118131560D01*
X222919106Y-117675613D01*
X222741205Y-117246121D01*
X222482932Y-116859588D01*
X222154212Y-116530868D01*
X221767679Y-116272595D01*
X221338187Y-116094694D01*
X220882240Y-116004000D01*
X220417360Y-116004000D01*
X219961413Y-116094694D01*
X219531921Y-116272595D01*
X219145388Y-116530868D01*
X218816668Y-116859588D01*
X218558395Y-117246121D01*
X218380494Y-117675613D01*
X218289800Y-118131560D01*
X210309800Y-118131560D01*
X210219106Y-117675613D01*
X210041205Y-117246121D01*
X209782932Y-116859588D01*
X209454212Y-116530868D01*
X209067679Y-116272595D01*
X208709492Y-116124230D01*
X212442933Y-112390790D01*
X212481696Y-112358978D01*
X212608660Y-112204272D01*
X212703002Y-112027769D01*
X212761098Y-111836252D01*
X212765053Y-111796098D01*
X212780715Y-111637083D01*
X212775800Y-111587181D01*
X212775800Y-110687655D01*
X212844920Y-110618535D01*
X212997805Y-110389727D01*
X213029800Y-110312485D01*
X213061795Y-110389727D01*
X213214680Y-110618535D01*
X213409265Y-110813120D01*
X213638073Y-110966005D01*
X213892310Y-111071314D01*
X214162208Y-111125000D01*
X214437392Y-111125000D01*
X214707290Y-111071314D01*
X214961527Y-110966005D01*
X215190335Y-110813120D01*
X215384920Y-110618535D01*
X215537805Y-110389727D01*
X215569800Y-110312485D01*
X215601795Y-110389727D01*
X215754680Y-110618535D01*
X215949265Y-110813120D01*
X216178073Y-110966005D01*
X216432310Y-111071314D01*
X216702208Y-111125000D01*
X216977392Y-111125000D01*
X217247290Y-111071314D01*
X217501527Y-110966005D01*
X217730335Y-110813120D01*
X217924920Y-110618535D01*
X218077805Y-110389727D01*
X218183114Y-110135490D01*
X218236800Y-109865592D01*
X218236800Y-109590408D01*
X218183114Y-109320510D01*
X218077805Y-109066273D01*
X217924920Y-108837465D01*
X217855800Y-108768345D01*
X217855800Y-108431702D01*
X217860715Y-108381800D01*
X217841098Y-108182629D01*
X217783002Y-107991113D01*
X217688660Y-107814610D01*
X217593506Y-107698665D01*
X217561696Y-107659904D01*
X217522933Y-107628092D01*
X216907712Y-107012872D01*
X216875896Y-106974104D01*
X216721190Y-106847140D01*
X216544687Y-106752798D01*
X216353171Y-106694702D01*
X216203902Y-106680000D01*
X216154000Y-106675085D01*
X216104098Y-106680000D01*
X207694893Y-106680000D01*
X207644999Y-106675086D01*
X207595105Y-106680000D01*
X207595098Y-106680000D01*
X207465177Y-106692796D01*
X207445828Y-106694702D01*
X207387732Y-106712326D01*
X207254313Y-106752798D01*
X207077810Y-106847140D01*
X206923104Y-106974104D01*
X206891287Y-107012873D01*
X206453873Y-107450287D01*
X206415104Y-107482104D01*
X206288140Y-107636810D01*
X206193798Y-107813314D01*
X206139863Y-107991113D01*
X206135702Y-108004830D01*
X206116085Y-108204000D01*
X206121000Y-108253902D01*
X206121001Y-111466159D01*
X205954160Y-111633000D01*
X111936902Y-111633000D01*
X111887000Y-111628085D01*
X111837098Y-111633000D01*
X111687829Y-111647702D01*
X111496313Y-111705798D01*
X111319810Y-111800140D01*
X111165104Y-111927104D01*
X111133293Y-111965866D01*
X105998621Y-117100539D01*
X105959853Y-117132355D01*
X105832889Y-117287061D01*
X105738547Y-117463565D01*
X105700022Y-117590564D01*
X105680451Y-117655081D01*
X105660834Y-117854251D01*
X105665749Y-117904153D01*
X105665749Y-117947333D01*
X105604767Y-117953339D01*
X105485069Y-117989649D01*
X105374755Y-118048614D01*
X105278064Y-118127966D01*
X105198712Y-118224657D01*
X105139747Y-118334971D01*
X105103437Y-118454669D01*
X105091177Y-118579151D01*
X105091177Y-122226000D01*
X103192321Y-122226000D01*
X103192321Y-118579151D01*
X103180061Y-118454669D01*
X103143751Y-118334971D01*
X103084786Y-118224657D01*
X103005434Y-118127966D01*
X102908743Y-118048614D01*
X102798429Y-117989649D01*
X102678731Y-117953339D01*
X102554249Y-117941079D01*
X100649249Y-117941079D01*
X100524767Y-117953339D01*
X100405069Y-117989649D01*
X100331749Y-118028840D01*
X100258429Y-117989649D01*
X100138731Y-117953339D01*
X100077749Y-117947333D01*
X100077749Y-117907651D01*
X100082664Y-117857749D01*
X100063047Y-117658578D01*
X100004951Y-117467062D01*
X99984400Y-117428614D01*
X99910609Y-117290559D01*
X99783645Y-117135853D01*
X99744882Y-117104041D01*
X94225711Y-111584871D01*
X94225706Y-111584865D01*
X93463712Y-110822872D01*
X93431896Y-110784104D01*
X93277190Y-110657140D01*
X93100687Y-110562798D01*
X92909171Y-110504702D01*
X92759902Y-110490000D01*
X92710000Y-110485085D01*
X92660098Y-110490000D01*
X77498005Y-110490000D01*
X77565005Y-110389727D01*
X77670314Y-110135490D01*
X77724000Y-109865592D01*
X77724000Y-109590408D01*
X131191000Y-109590408D01*
X131191000Y-109865592D01*
X131244686Y-110135490D01*
X131349995Y-110389727D01*
X131502880Y-110618535D01*
X131697465Y-110813120D01*
X131926273Y-110966005D01*
X132180510Y-111071314D01*
X132450408Y-111125000D01*
X132725592Y-111125000D01*
X132995490Y-111071314D01*
X133249727Y-110966005D01*
X133478535Y-110813120D01*
X133673120Y-110618535D01*
X133826005Y-110389727D01*
X133931314Y-110135490D01*
X133985000Y-109865592D01*
X133985000Y-109767840D01*
X134786841Y-108966000D01*
X136496995Y-108966000D01*
X136429995Y-109066273D01*
X136324686Y-109320510D01*
X136271000Y-109590408D01*
X136271000Y-109865592D01*
X136324686Y-110135490D01*
X136429995Y-110389727D01*
X136582880Y-110618535D01*
X136777465Y-110813120D01*
X137006273Y-110966005D01*
X137260510Y-111071314D01*
X137530408Y-111125000D01*
X137805592Y-111125000D01*
X138075490Y-111071314D01*
X138329727Y-110966005D01*
X138558535Y-110813120D01*
X138753120Y-110618535D01*
X138906005Y-110389727D01*
X139011314Y-110135490D01*
X139065000Y-109865592D01*
X139065000Y-109590408D01*
X139011314Y-109320510D01*
X138906005Y-109066273D01*
X138839005Y-108966000D01*
X139279160Y-108966000D01*
X140619956Y-110306797D01*
X140674063Y-110387774D01*
X140818226Y-110531937D01*
X140987744Y-110645205D01*
X141176102Y-110723226D01*
X141376061Y-110763000D01*
X141579939Y-110763000D01*
X141779898Y-110723226D01*
X141968256Y-110645205D01*
X142137774Y-110531937D01*
X142281937Y-110387774D01*
X142395205Y-110218256D01*
X142473226Y-110029898D01*
X142513000Y-109829939D01*
X142513000Y-109626061D01*
X142473226Y-109426102D01*
X142395205Y-109237744D01*
X142281937Y-109068226D01*
X142137774Y-108924063D01*
X142056797Y-108869956D01*
X140453712Y-107266872D01*
X140421896Y-107228104D01*
X140267190Y-107101140D01*
X140090687Y-107006798D01*
X139899171Y-106948702D01*
X139749902Y-106934000D01*
X139700000Y-106929085D01*
X139650098Y-106934000D01*
X134415902Y-106934000D01*
X134366000Y-106929085D01*
X134316098Y-106934000D01*
X134166829Y-106948702D01*
X133975313Y-107006798D01*
X133798810Y-107101140D01*
X133644104Y-107228104D01*
X133612292Y-107266867D01*
X132548160Y-108331000D01*
X132450408Y-108331000D01*
X132180510Y-108384686D01*
X131926273Y-108489995D01*
X131697465Y-108642880D01*
X131502880Y-108837465D01*
X131349995Y-109066273D01*
X131244686Y-109320510D01*
X131191000Y-109590408D01*
X77724000Y-109590408D01*
X77670314Y-109320510D01*
X77565005Y-109066273D01*
X77412120Y-108837465D01*
X77217535Y-108642880D01*
X76988727Y-108489995D01*
X76734490Y-108384686D01*
X76464592Y-108331000D01*
X76366841Y-108331000D01*
X73651712Y-105615872D01*
X73619896Y-105577104D01*
X73465190Y-105450140D01*
X73288687Y-105355798D01*
X73097171Y-105297702D01*
X72947902Y-105283000D01*
X72898000Y-105278085D01*
X72848098Y-105283000D01*
X70682459Y-105283000D01*
X70586939Y-105264000D01*
X70383061Y-105264000D01*
X70183102Y-105303774D01*
X70104000Y-105336539D01*
X70104000Y-104941840D01*
X71063797Y-103982044D01*
X71144774Y-103927937D01*
X71288937Y-103783774D01*
X71402205Y-103614256D01*
X71480226Y-103425898D01*
X71520000Y-103225939D01*
X71520000Y-103022061D01*
X71480226Y-102822102D01*
X71402205Y-102633744D01*
X71288937Y-102464226D01*
X71286695Y-102461984D01*
X75473300Y-102461984D01*
X75473300Y-103178016D01*
X75612991Y-103880290D01*
X75887005Y-104541818D01*
X76284811Y-105137177D01*
X76791123Y-105643489D01*
X77386482Y-106041295D01*
X78048010Y-106315309D01*
X78750284Y-106455000D01*
X79466316Y-106455000D01*
X80168590Y-106315309D01*
X80830118Y-106041295D01*
X81425477Y-105643489D01*
X81931789Y-105137177D01*
X82329595Y-104541818D01*
X82362536Y-104462290D01*
X85344000Y-104462290D01*
X85344000Y-105087710D01*
X85466014Y-105701113D01*
X85705352Y-106278926D01*
X86052817Y-106798944D01*
X86495056Y-107241183D01*
X87015074Y-107588648D01*
X87592887Y-107827986D01*
X88206290Y-107950000D01*
X88831710Y-107950000D01*
X89445113Y-107827986D01*
X90022926Y-107588648D01*
X90542944Y-107241183D01*
X90985183Y-106798944D01*
X91332648Y-106278926D01*
X91571986Y-105701113D01*
X91694000Y-105087710D01*
X91694000Y-104462290D01*
X93218000Y-104462290D01*
X93218000Y-105087710D01*
X93340014Y-105701113D01*
X93579352Y-106278926D01*
X93926817Y-106798944D01*
X94369056Y-107241183D01*
X94889074Y-107588648D01*
X95466887Y-107827986D01*
X96080290Y-107950000D01*
X96705710Y-107950000D01*
X97319113Y-107827986D01*
X97896926Y-107588648D01*
X98416944Y-107241183D01*
X98859183Y-106798944D01*
X99206648Y-106278926D01*
X99445986Y-105701113D01*
X99568000Y-105087710D01*
X99568000Y-104462290D01*
X101092000Y-104462290D01*
X101092000Y-105087710D01*
X101214014Y-105701113D01*
X101453352Y-106278926D01*
X101800817Y-106798944D01*
X102243056Y-107241183D01*
X102763074Y-107588648D01*
X103340887Y-107827986D01*
X103954290Y-107950000D01*
X104579710Y-107950000D01*
X105193113Y-107827986D01*
X105770926Y-107588648D01*
X106290944Y-107241183D01*
X106733183Y-106798944D01*
X107080648Y-106278926D01*
X107319986Y-105701113D01*
X107442000Y-105087710D01*
X107442000Y-104902000D01*
X150349566Y-104902000D01*
X150423128Y-105648890D01*
X150640988Y-106367078D01*
X150994773Y-107028964D01*
X151470888Y-107609112D01*
X152051036Y-108085227D01*
X152712922Y-108439012D01*
X153431110Y-108656872D01*
X153990836Y-108712000D01*
X172975302Y-108712000D01*
X173089761Y-108746721D01*
X173836651Y-108820283D01*
X174583541Y-108746721D01*
X175301729Y-108528860D01*
X175963615Y-108175075D01*
X176398382Y-107818270D01*
X176488220Y-107728432D01*
X176633612Y-107609112D01*
X176752932Y-107463720D01*
X180975033Y-103241620D01*
X180955352Y-103271074D01*
X180716014Y-103848887D01*
X180594000Y-104462290D01*
X180594000Y-105087710D01*
X180716014Y-105701113D01*
X180955352Y-106278926D01*
X181302817Y-106798944D01*
X181745056Y-107241183D01*
X182265074Y-107588648D01*
X182842887Y-107827986D01*
X183456290Y-107950000D01*
X184081710Y-107950000D01*
X184695113Y-107827986D01*
X185272926Y-107588648D01*
X185792944Y-107241183D01*
X186235183Y-106798944D01*
X186582648Y-106278926D01*
X186821986Y-105701113D01*
X186944000Y-105087710D01*
X186944000Y-104462290D01*
X188468000Y-104462290D01*
X188468000Y-105087710D01*
X188590014Y-105701113D01*
X188829352Y-106278926D01*
X189176817Y-106798944D01*
X189619056Y-107241183D01*
X190139074Y-107588648D01*
X190716887Y-107827986D01*
X191330290Y-107950000D01*
X191955710Y-107950000D01*
X192569113Y-107827986D01*
X193146926Y-107588648D01*
X193666944Y-107241183D01*
X194109183Y-106798944D01*
X194456648Y-106278926D01*
X194695986Y-105701113D01*
X194818000Y-105087710D01*
X194818000Y-104462290D01*
X196342000Y-104462290D01*
X196342000Y-105087710D01*
X196464014Y-105701113D01*
X196703352Y-106278926D01*
X197050817Y-106798944D01*
X197493056Y-107241183D01*
X198013074Y-107588648D01*
X198590887Y-107827986D01*
X199204290Y-107950000D01*
X199829710Y-107950000D01*
X200443113Y-107827986D01*
X201020926Y-107588648D01*
X201540944Y-107241183D01*
X201983183Y-106798944D01*
X202330648Y-106278926D01*
X202569986Y-105701113D01*
X202692000Y-105087710D01*
X202692000Y-104462290D01*
X202569986Y-103848887D01*
X202330648Y-103271074D01*
X201983183Y-102751056D01*
X201540944Y-102308817D01*
X201020926Y-101961352D01*
X200443113Y-101722014D01*
X199829710Y-101600000D01*
X199204290Y-101600000D01*
X198590887Y-101722014D01*
X198013074Y-101961352D01*
X197493056Y-102308817D01*
X197050817Y-102751056D01*
X196703352Y-103271074D01*
X196464014Y-103848887D01*
X196342000Y-104462290D01*
X194818000Y-104462290D01*
X194695986Y-103848887D01*
X194456648Y-103271074D01*
X194109183Y-102751056D01*
X193666944Y-102308817D01*
X193146926Y-101961352D01*
X192569113Y-101722014D01*
X191955710Y-101600000D01*
X191330290Y-101600000D01*
X190716887Y-101722014D01*
X190139074Y-101961352D01*
X189619056Y-102308817D01*
X189176817Y-102751056D01*
X188829352Y-103271074D01*
X188590014Y-103848887D01*
X188468000Y-104462290D01*
X186944000Y-104462290D01*
X186821986Y-103848887D01*
X186582648Y-103271074D01*
X186235183Y-102751056D01*
X185792944Y-102308817D01*
X185272926Y-101961352D01*
X184695113Y-101722014D01*
X184081710Y-101600000D01*
X183456290Y-101600000D01*
X182842887Y-101722014D01*
X182265074Y-101961352D01*
X182235620Y-101981032D01*
X194009503Y-90207151D01*
X202740992Y-90207151D01*
X202788325Y-90238778D01*
X203577244Y-90565559D01*
X204414757Y-90732151D01*
X205268677Y-90732151D01*
X206106190Y-90565559D01*
X206895109Y-90238778D01*
X207605118Y-89764365D01*
X208208931Y-89160552D01*
X208683344Y-88450543D01*
X209010125Y-87661624D01*
X209176717Y-86824111D01*
X209176717Y-85970191D01*
X209010125Y-85132678D01*
X208683344Y-84343759D01*
X208208931Y-83633750D01*
X207605118Y-83029937D01*
X206895109Y-82555524D01*
X206106190Y-82228743D01*
X205268677Y-82062151D01*
X204414757Y-82062151D01*
X203577244Y-82228743D01*
X202788325Y-82555524D01*
X202740992Y-82587151D01*
X192618513Y-82587151D01*
X192431349Y-82568717D01*
X192244185Y-82587151D01*
X191684459Y-82642279D01*
X190966271Y-82860139D01*
X190304385Y-83213924D01*
X189724237Y-83690039D01*
X189604926Y-83835420D01*
X172348348Y-101092000D01*
X153990836Y-101092000D01*
X153431110Y-101147128D01*
X152712922Y-101364988D01*
X152051036Y-101718773D01*
X151470888Y-102194888D01*
X150994773Y-102775036D01*
X150640988Y-103436922D01*
X150423128Y-104155110D01*
X150349566Y-104902000D01*
X107442000Y-104902000D01*
X107442000Y-104462290D01*
X107319986Y-103848887D01*
X107080648Y-103271074D01*
X106733183Y-102751056D01*
X106290944Y-102308817D01*
X105770926Y-101961352D01*
X105193113Y-101722014D01*
X104579710Y-101600000D01*
X103954290Y-101600000D01*
X103340887Y-101722014D01*
X102763074Y-101961352D01*
X102243056Y-102308817D01*
X101800817Y-102751056D01*
X101453352Y-103271074D01*
X101214014Y-103848887D01*
X101092000Y-104462290D01*
X99568000Y-104462290D01*
X99445986Y-103848887D01*
X99206648Y-103271074D01*
X98859183Y-102751056D01*
X98416944Y-102308817D01*
X97896926Y-101961352D01*
X97319113Y-101722014D01*
X96705710Y-101600000D01*
X96080290Y-101600000D01*
X95466887Y-101722014D01*
X94889074Y-101961352D01*
X94369056Y-102308817D01*
X93926817Y-102751056D01*
X93579352Y-103271074D01*
X93340014Y-103848887D01*
X93218000Y-104462290D01*
X91694000Y-104462290D01*
X91571986Y-103848887D01*
X91332648Y-103271074D01*
X90985183Y-102751056D01*
X90542944Y-102308817D01*
X90022926Y-101961352D01*
X89445113Y-101722014D01*
X88831710Y-101600000D01*
X88206290Y-101600000D01*
X87592887Y-101722014D01*
X87015074Y-101961352D01*
X86495056Y-102308817D01*
X86052817Y-102751056D01*
X85705352Y-103271074D01*
X85466014Y-103848887D01*
X85344000Y-104462290D01*
X82362536Y-104462290D01*
X82603609Y-103880290D01*
X82743300Y-103178016D01*
X82743300Y-102461984D01*
X82603609Y-101759710D01*
X82329595Y-101098182D01*
X81931789Y-100502823D01*
X81425477Y-99996511D01*
X80830118Y-99598705D01*
X80168590Y-99324691D01*
X79466316Y-99185000D01*
X78750284Y-99185000D01*
X78048010Y-99324691D01*
X77386482Y-99598705D01*
X76791123Y-99996511D01*
X76284811Y-100502823D01*
X75887005Y-101098182D01*
X75612991Y-101759710D01*
X75473300Y-102461984D01*
X71286695Y-102461984D01*
X71144774Y-102320063D01*
X70975256Y-102206795D01*
X70786898Y-102128774D01*
X70586939Y-102089000D01*
X70383061Y-102089000D01*
X70183102Y-102128774D01*
X69994744Y-102206795D01*
X69825226Y-102320063D01*
X69681063Y-102464226D01*
X69626956Y-102545203D01*
X68961001Y-103211159D01*
X68961001Y-102909839D01*
X71063797Y-100807044D01*
X71144774Y-100752937D01*
X71288937Y-100608774D01*
X71402205Y-100439256D01*
X71480226Y-100250898D01*
X71520000Y-100050939D01*
X71520000Y-99847061D01*
X71480226Y-99647102D01*
X71402205Y-99458744D01*
X71288937Y-99289226D01*
X71144774Y-99145063D01*
X70975256Y-99031795D01*
X70786898Y-98953774D01*
X70586939Y-98914000D01*
X70383061Y-98914000D01*
X70183102Y-98953774D01*
X69994744Y-99031795D01*
X69825226Y-99145063D01*
X69681063Y-99289226D01*
X69626956Y-99370203D01*
X67261869Y-101735291D01*
X67223106Y-101767103D01*
X67096142Y-101921809D01*
X67075006Y-101961352D01*
X67001800Y-102098312D01*
X66943703Y-102289829D01*
X66924086Y-102488999D01*
X66929002Y-102538911D01*
X66929001Y-108916099D01*
X66924086Y-108966001D01*
X66931854Y-109044865D01*
X66943703Y-109165171D01*
X67001799Y-109356687D01*
X67096141Y-109533191D01*
X67223105Y-109687897D01*
X67261873Y-109719713D01*
X67310000Y-109767840D01*
X67310000Y-109865592D01*
X67363686Y-110135490D01*
X67468995Y-110389727D01*
X67621880Y-110618535D01*
X67691001Y-110687656D01*
X67691000Y-113488098D01*
X67686085Y-113538000D01*
X67691424Y-113592202D01*
X67705702Y-113737170D01*
X67763798Y-113928686D01*
X67858140Y-114105190D01*
X67985104Y-114259896D01*
X68023872Y-114291712D01*
X68715292Y-114983133D01*
X68747104Y-115021896D01*
X68901810Y-115148860D01*
X68995031Y-115198687D01*
X69078313Y-115243202D01*
X69269829Y-115301298D01*
X69469000Y-115320915D01*
X69518902Y-115316000D01*
X75322247Y-115316000D01*
X75292000Y-115468061D01*
X75292000Y-115671939D01*
X75331774Y-115871898D01*
X75409795Y-116060256D01*
X75523063Y-116229774D01*
X75667226Y-116373937D01*
X75836744Y-116487205D01*
X76025102Y-116565226D01*
X76225061Y-116605000D01*
X76428939Y-116605000D01*
X76524459Y-116586000D01*
X78577456Y-116586000D01*
X78303868Y-116859588D01*
X78045595Y-117246121D01*
X77867694Y-117675613D01*
X77777000Y-118131560D01*
X77777000Y-118596440D01*
X77867694Y-119052387D01*
X78045595Y-119481879D01*
X78303868Y-119868412D01*
X78632588Y-120197132D01*
X79019121Y-120455405D01*
X79448613Y-120633306D01*
X79904560Y-120724000D01*
X80369440Y-120724000D01*
X80825387Y-120633306D01*
X81254879Y-120455405D01*
X81641412Y-120197132D01*
X81970132Y-119868412D01*
X82228405Y-119481879D01*
X82406306Y-119052387D01*
X82497000Y-118596440D01*
X82497000Y-118131560D01*
X82406306Y-117675613D01*
X82228405Y-117246121D01*
X81970132Y-116859588D01*
X81696544Y-116586000D01*
X88479160Y-116586000D01*
X90030429Y-118137270D01*
X89958712Y-118224657D01*
X89899747Y-118334971D01*
X89863437Y-118454669D01*
X89851177Y-118579151D01*
X89851177Y-122226000D01*
X52104722Y-122226000D01*
X52011229Y-122216833D01*
X51954686Y-122199762D01*
X51902549Y-122172040D01*
X51856779Y-122134711D01*
X51819138Y-122089210D01*
X51791048Y-122037260D01*
X51773585Y-121980845D01*
X51764000Y-121889650D01*
X51764000Y-119148488D01*
X52259423Y-119148488D01*
X52259423Y-119611512D01*
X52349755Y-120065638D01*
X52526946Y-120493416D01*
X52784188Y-120878405D01*
X53111595Y-121205812D01*
X53496584Y-121463054D01*
X53924362Y-121640245D01*
X54378488Y-121730577D01*
X54841512Y-121730577D01*
X55295638Y-121640245D01*
X55723416Y-121463054D01*
X56108405Y-121205812D01*
X56435812Y-120878405D01*
X56693054Y-120493416D01*
X56870245Y-120065638D01*
X56960577Y-119611512D01*
X56960577Y-119148488D01*
X56870245Y-118694362D01*
X56693054Y-118266584D01*
X56602834Y-118131560D01*
X65077000Y-118131560D01*
X65077000Y-118596440D01*
X65167694Y-119052387D01*
X65345595Y-119481879D01*
X65603868Y-119868412D01*
X65932588Y-120197132D01*
X66319121Y-120455405D01*
X66748613Y-120633306D01*
X67204560Y-120724000D01*
X67669440Y-120724000D01*
X68125387Y-120633306D01*
X68554879Y-120455405D01*
X68941412Y-120197132D01*
X69270132Y-119868412D01*
X69528405Y-119481879D01*
X69706306Y-119052387D01*
X69797000Y-118596440D01*
X69797000Y-118131560D01*
X69706306Y-117675613D01*
X69528405Y-117246121D01*
X69270132Y-116859588D01*
X68941412Y-116530868D01*
X68554879Y-116272595D01*
X68125387Y-116094694D01*
X67669440Y-116004000D01*
X67204560Y-116004000D01*
X66748613Y-116094694D01*
X66319121Y-116272595D01*
X65932588Y-116530868D01*
X65603868Y-116859588D01*
X65345595Y-117246121D01*
X65167694Y-117675613D01*
X65077000Y-118131560D01*
X56602834Y-118131560D01*
X56435812Y-117881595D01*
X56108405Y-117554188D01*
X55723416Y-117296946D01*
X55295638Y-117119755D01*
X54841512Y-117029423D01*
X54378488Y-117029423D01*
X53924362Y-117119755D01*
X53496584Y-117296946D01*
X53111595Y-117554188D01*
X52784188Y-117881595D01*
X52526946Y-118266584D01*
X52349755Y-118694362D01*
X52259423Y-119148488D01*
X51764000Y-119148488D01*
X51764000Y-76222488D01*
X52259423Y-76222488D01*
X52259423Y-76685512D01*
X52349755Y-77139638D01*
X52526946Y-77567416D01*
X52784188Y-77952405D01*
X53111595Y-78279812D01*
X53496584Y-78537054D01*
X53924362Y-78714245D01*
X54378488Y-78804577D01*
X54841512Y-78804577D01*
X55295638Y-78714245D01*
X55723416Y-78537054D01*
X56108405Y-78279812D01*
X56435812Y-77952405D01*
X56693054Y-77567416D01*
X56870245Y-77139638D01*
X56960577Y-76685512D01*
X56960577Y-76667174D01*
X69506717Y-76667174D01*
X69506717Y-77127128D01*
X69596450Y-77578245D01*
X69772467Y-78003188D01*
X70028004Y-78385627D01*
X70353241Y-78710864D01*
X70735680Y-78966401D01*
X71160623Y-79142418D01*
X71611740Y-79232151D01*
X72071694Y-79232151D01*
X72522811Y-79142418D01*
X72947754Y-78966401D01*
X73330193Y-78710864D01*
X73655430Y-78385627D01*
X73910967Y-78003188D01*
X74086984Y-77578245D01*
X74176717Y-77127128D01*
X74176717Y-76667174D01*
X74086984Y-76216057D01*
X73910967Y-75791114D01*
X73655430Y-75408675D01*
X73330193Y-75083438D01*
X72947754Y-74827901D01*
X72522811Y-74651884D01*
X72071694Y-74562151D01*
X71611740Y-74562151D01*
X71160623Y-74651884D01*
X70735680Y-74827901D01*
X70353241Y-75083438D01*
X70028004Y-75408675D01*
X69772467Y-75791114D01*
X69596450Y-76216057D01*
X69506717Y-76667174D01*
X56960577Y-76667174D01*
X56960577Y-76222488D01*
X56870245Y-75768362D01*
X56693054Y-75340584D01*
X56435812Y-74955595D01*
X56108405Y-74628188D01*
X55723416Y-74370946D01*
X55295638Y-74193755D01*
X54841512Y-74103423D01*
X54378488Y-74103423D01*
X53924362Y-74193755D01*
X53496584Y-74370946D01*
X53111595Y-74628188D01*
X52784188Y-74955595D01*
X52526946Y-75340584D01*
X52349755Y-75768362D01*
X52259423Y-76222488D01*
X51764000Y-76222488D01*
X51764000Y-73948722D01*
X51773167Y-73855228D01*
X51790238Y-73798686D01*
X51817961Y-73746548D01*
X51855288Y-73700781D01*
X51900790Y-73663138D01*
X51952740Y-73635049D01*
X52009156Y-73617585D01*
X52100350Y-73608000D01*
X84209789Y-73608000D01*
X83578316Y-74029937D01*
G37*
X83578316Y-74029937D02*
X82974503Y-74633750D01*
X82500090Y-75343759D01*
X82173309Y-76132678D01*
X82006717Y-76970191D01*
X82006717Y-77824111D01*
X82173309Y-78661624D01*
X82500090Y-79450543D01*
X82974503Y-80160552D01*
X83578316Y-80764365D01*
X84288325Y-81238778D01*
X85077244Y-81565559D01*
X85914757Y-81732151D01*
X86768677Y-81732151D01*
X87606190Y-81565559D01*
X88395109Y-81238778D01*
X89105118Y-80764365D01*
X89708931Y-80160552D01*
X90183344Y-79450543D01*
X90510125Y-78661624D01*
X90676717Y-77824111D01*
X90676717Y-76970191D01*
X90510125Y-76132678D01*
X90183344Y-75343759D01*
X89708931Y-74633750D01*
X89105118Y-74029937D01*
X88473645Y-73608000D01*
X93709789Y-73608000D01*
X93078316Y-74029937D01*
X92474503Y-74633750D01*
X92000090Y-75343759D01*
X91673309Y-76132678D01*
X91506717Y-76970191D01*
X91506717Y-77824111D01*
X91673309Y-78661624D01*
X92000090Y-79450543D01*
X92474503Y-80160552D01*
X93078316Y-80764365D01*
X93788325Y-81238778D01*
X94577244Y-81565559D01*
X95414757Y-81732151D01*
X96268677Y-81732151D01*
X97106190Y-81565559D01*
X97895109Y-81238778D01*
X98605118Y-80764365D01*
X99208931Y-80160552D01*
X99683344Y-79450543D01*
X100010125Y-78661624D01*
X100176717Y-77824111D01*
X100176717Y-76970191D01*
X100010125Y-76132678D01*
X99683344Y-75343759D01*
X99208931Y-74633750D01*
X98605118Y-74029937D01*
X97973645Y-73608000D01*
X103209789Y-73608000D01*
X102578316Y-74029937D01*
X101974503Y-74633750D01*
X101500090Y-75343759D01*
X101173309Y-76132678D01*
X101006717Y-76970191D01*
X101006717Y-77824111D01*
X101173309Y-78661624D01*
X101500090Y-79450543D01*
X101974503Y-80160552D01*
X102578316Y-80764365D01*
X103288325Y-81238778D01*
X104077244Y-81565559D01*
X104914757Y-81732151D01*
X105768677Y-81732151D01*
X106606190Y-81565559D01*
X107395109Y-81238778D01*
X107809360Y-80961984D01*
X115364000Y-80961984D01*
X115364000Y-81678016D01*
X115503691Y-82380290D01*
X115777705Y-83041818D01*
X116175511Y-83637177D01*
X116681823Y-84143489D01*
X117277182Y-84541295D01*
X117938710Y-84815309D01*
X118640984Y-84955000D01*
X119357016Y-84955000D01*
X120059290Y-84815309D01*
X120720818Y-84541295D01*
X121316177Y-84143489D01*
X121822489Y-83637177D01*
X122220295Y-83041818D01*
X122494309Y-82380290D01*
X122634000Y-81678016D01*
X122634000Y-80961984D01*
X122494309Y-80259710D01*
X122220295Y-79598182D01*
X121822489Y-79002823D01*
X121316177Y-78496511D01*
X120720818Y-78098705D01*
X120059290Y-77824691D01*
X119357016Y-77685000D01*
X118640984Y-77685000D01*
X117938710Y-77824691D01*
X117277182Y-78098705D01*
X116681823Y-78496511D01*
X116175511Y-79002823D01*
X115777705Y-79598182D01*
X115503691Y-80259710D01*
X115364000Y-80961984D01*
X107809360Y-80961984D01*
X108105118Y-80764365D01*
X108708931Y-80160552D01*
X109183344Y-79450543D01*
X109510125Y-78661624D01*
X109676717Y-77824111D01*
X109676717Y-76970191D01*
X109510125Y-76132678D01*
X109183344Y-75343759D01*
X108708931Y-74633750D01*
X108105118Y-74029937D01*
X107473645Y-73608000D01*
X129209789Y-73608000D01*
X128578316Y-74029937D01*
X127974503Y-74633750D01*
X127500090Y-75343759D01*
X127173309Y-76132678D01*
X127006717Y-76970191D01*
X127006717Y-77824111D01*
X127173309Y-78661624D01*
X127500090Y-79450543D01*
X127974503Y-80160552D01*
X128039717Y-80225766D01*
X128039718Y-85476549D01*
X124870268Y-88646000D01*
X61559793Y-88646000D01*
X61074695Y-88693778D01*
X60452266Y-88882590D01*
X59878631Y-89189204D01*
X59375837Y-89601837D01*
X58963204Y-90104631D01*
X58656590Y-90678266D01*
X58467778Y-91300695D01*
X58404024Y-91948000D01*
X58467778Y-92595305D01*
X58656590Y-93217734D01*
X58963204Y-93791369D01*
X59375837Y-94294163D01*
X59878631Y-94706796D01*
X60452266Y-95013410D01*
X61074695Y-95202222D01*
X61559793Y-95250000D01*
X126075801Y-95250000D01*
X126238000Y-95265975D01*
X126400199Y-95250000D01*
X126400207Y-95250000D01*
X126885305Y-95202222D01*
X127507734Y-95013410D01*
X128081369Y-94706796D01*
X128584163Y-94294163D01*
X128687567Y-94168165D01*
X133561887Y-89293846D01*
X133687880Y-89190446D01*
X134100513Y-88687652D01*
X134407127Y-88114017D01*
X134595939Y-87491588D01*
X134643717Y-87006490D01*
X134643717Y-87006482D01*
X134659692Y-86844283D01*
X134643717Y-86682084D01*
X134643717Y-80225766D01*
X134708931Y-80160552D01*
X135183344Y-79450543D01*
X135510125Y-78661624D01*
X135676717Y-77824111D01*
X135676717Y-76970191D01*
X135510125Y-76132678D01*
X135183344Y-75343759D01*
X134708931Y-74633750D01*
X134105118Y-74029937D01*
X133473645Y-73608000D01*
X140709789Y-73608000D01*
X140078316Y-74029937D01*
X139474503Y-74633750D01*
X139000090Y-75343759D01*
X138673309Y-76132678D01*
X138506717Y-76970191D01*
X138506717Y-77824111D01*
X138673309Y-78661624D01*
X139000090Y-79450543D01*
X139474503Y-80160552D01*
X139539717Y-80225766D01*
X139539718Y-88454550D01*
X139348268Y-88646000D01*
X135473793Y-88646000D01*
X134988695Y-88693778D01*
X134366266Y-88882590D01*
X133792631Y-89189204D01*
X133289837Y-89601837D01*
X132877204Y-90104631D01*
X132570590Y-90678266D01*
X132381778Y-91300695D01*
X132318024Y-91948000D01*
X132381778Y-92595305D01*
X132570590Y-93217734D01*
X132877204Y-93791369D01*
X133289837Y-94294163D01*
X133792631Y-94706796D01*
X134366266Y-95013410D01*
X134988695Y-95202222D01*
X135473793Y-95250000D01*
X140553801Y-95250000D01*
X140716000Y-95265975D01*
X140878199Y-95250000D01*
X140878207Y-95250000D01*
X141363305Y-95202222D01*
X141985734Y-95013410D01*
X142559369Y-94706796D01*
X143062163Y-94294163D01*
X143165567Y-94168165D01*
X145061882Y-92271850D01*
X145187880Y-92168446D01*
X145600513Y-91665652D01*
X145907127Y-91092017D01*
X146095939Y-90469588D01*
X146143717Y-89984490D01*
X146143717Y-89984482D01*
X146159692Y-89822283D01*
X146143717Y-89660084D01*
X146143717Y-80225766D01*
X146208931Y-80160552D01*
X146683344Y-79450543D01*
X147010125Y-78661624D01*
X147176717Y-77824111D01*
X147176717Y-76970191D01*
X147010125Y-76132678D01*
X146683344Y-75343759D01*
X146208931Y-74633750D01*
X145605118Y-74029937D01*
X144973645Y-73608000D01*
X162709789Y-73608000D01*
X162078316Y-74029937D01*
X161474503Y-74633750D01*
X161000090Y-75343759D01*
X160673309Y-76132678D01*
X160506717Y-76970191D01*
X160506717Y-77824111D01*
X160673309Y-78661624D01*
X161000090Y-79450543D01*
X161474503Y-80160552D01*
X162078316Y-80764365D01*
X162788325Y-81238778D01*
X163577244Y-81565559D01*
X164414757Y-81732151D01*
X165268677Y-81732151D01*
X166106190Y-81565559D01*
X166895109Y-81238778D01*
X167605118Y-80764365D01*
X168208931Y-80160552D01*
X168683344Y-79450543D01*
X169010125Y-78661624D01*
X169176717Y-77824111D01*
X169176717Y-76970191D01*
X169010125Y-76132678D01*
X168683344Y-75343759D01*
X168208931Y-74633750D01*
X167605118Y-74029937D01*
X166973645Y-73608000D01*
X172209789Y-73608000D01*
X171578316Y-74029937D01*
X170974503Y-74633750D01*
X170500090Y-75343759D01*
X170173309Y-76132678D01*
X170006717Y-76970191D01*
X170006717Y-77824111D01*
X170173309Y-78661624D01*
X170500090Y-79450543D01*
X170974503Y-80160552D01*
X171578316Y-80764365D01*
X172288325Y-81238778D01*
X173077244Y-81565559D01*
X173914757Y-81732151D01*
X174768677Y-81732151D01*
X175606190Y-81565559D01*
X176395109Y-81238778D01*
X177105118Y-80764365D01*
X177708931Y-80160552D01*
X178183344Y-79450543D01*
X178510125Y-78661624D01*
X178676717Y-77824111D01*
X178676717Y-76970191D01*
X178510125Y-76132678D01*
X178183344Y-75343759D01*
X177708931Y-74633750D01*
X177105118Y-74029937D01*
X176473645Y-73608000D01*
X181709789Y-73608000D01*
X181078316Y-74029937D01*
X180474503Y-74633750D01*
X180000090Y-75343759D01*
X179673309Y-76132678D01*
X179506717Y-76970191D01*
X179506717Y-77824111D01*
X179673309Y-78661624D01*
X180000090Y-79450543D01*
X180474503Y-80160552D01*
X181078316Y-80764365D01*
X181788325Y-81238778D01*
X182577244Y-81565559D01*
X183414757Y-81732151D01*
X184268677Y-81732151D01*
X185106190Y-81565559D01*
X185895109Y-81238778D01*
X186605118Y-80764365D01*
X187208931Y-80160552D01*
X187683344Y-79450543D01*
X188010125Y-78661624D01*
X188176717Y-77824111D01*
X188176717Y-76970191D01*
X188116444Y-76667174D01*
X205006717Y-76667174D01*
X205006717Y-77127128D01*
X205096450Y-77578245D01*
X205272467Y-78003188D01*
X205528004Y-78385627D01*
X205853241Y-78710864D01*
X206235680Y-78966401D01*
X206660623Y-79142418D01*
X207111740Y-79232151D01*
X207571694Y-79232151D01*
X208022811Y-79142418D01*
X208447754Y-78966401D01*
X208830193Y-78710864D01*
X209155430Y-78385627D01*
X209410967Y-78003188D01*
X209586984Y-77578245D01*
X209676717Y-77127128D01*
X209676717Y-76667174D01*
X209586984Y-76216057D01*
X209484438Y-75968488D01*
X232599423Y-75968488D01*
X232599423Y-76431512D01*
X232689755Y-76885638D01*
X232866946Y-77313416D01*
X233124188Y-77698405D01*
X233451595Y-78025812D01*
X233836584Y-78283054D01*
X234264362Y-78460245D01*
X234718488Y-78550577D01*
X235181512Y-78550577D01*
X235635638Y-78460245D01*
X236063416Y-78283054D01*
X236448405Y-78025812D01*
X236775812Y-77698405D01*
X237033054Y-77313416D01*
X237210245Y-76885638D01*
X237300577Y-76431512D01*
X237300577Y-75968488D01*
X237210245Y-75514362D01*
X237033054Y-75086584D01*
X236775812Y-74701595D01*
X236448405Y-74374188D01*
X236063416Y-74116946D01*
X235635638Y-73939755D01*
X235181512Y-73849423D01*
X234718488Y-73849423D01*
X234264362Y-73939755D01*
X233836584Y-74116946D01*
X233451595Y-74374188D01*
X233124188Y-74701595D01*
X232866946Y-75086584D01*
X232689755Y-75514362D01*
X232599423Y-75968488D01*
X209484438Y-75968488D01*
X209410967Y-75791114D01*
X209155430Y-75408675D01*
X208830193Y-75083438D01*
X208447754Y-74827901D01*
X208022811Y-74651884D01*
X207571694Y-74562151D01*
X207111740Y-74562151D01*
X206660623Y-74651884D01*
X206235680Y-74827901D01*
X205853241Y-75083438D01*
X205528004Y-75408675D01*
X205272467Y-75791114D01*
X205096450Y-76216057D01*
X205006717Y-76667174D01*
X188116444Y-76667174D01*
X188010125Y-76132678D01*
X187683344Y-75343759D01*
X187208931Y-74633750D01*
X186605118Y-74029937D01*
X185973645Y-73608000D01*
X237709278Y-73608000D01*
X237802772Y-73617167D01*
X237859314Y-73634238D01*
X237911452Y-73661961D01*
X237957219Y-73699288D01*
X237994862Y-73744790D01*
X238022951Y-73796740D01*
X238040415Y-73853156D01*
X238050000Y-73944350D01*
X238050001Y-121885268D01*
X238040833Y-121978771D01*
X238023762Y-122035314D01*
X237996040Y-122087451D01*
X237958711Y-122133221D01*
X237913210Y-122170862D01*
X237861260Y-122198952D01*
X237804845Y-122216415D01*
X237713650Y-122226000D01*
X193652289Y-122226000D01*
X193652289Y-118579151D01*
X193640029Y-118454669D01*
X193603719Y-118334971D01*
X193544754Y-118224657D01*
X193465402Y-118127966D01*
X193368711Y-118048614D01*
X193258397Y-117989649D01*
X193138699Y-117953339D01*
X193014217Y-117941079D01*
X191109217Y-117941079D01*
X190984735Y-117953339D01*
X190865037Y-117989649D01*
X190791717Y-118028840D01*
X190718397Y-117989649D01*
X190598699Y-117953339D01*
X190474217Y-117941079D01*
X188569217Y-117941079D01*
X188444735Y-117953339D01*
X188325037Y-117989649D01*
X188214723Y-118048614D01*
X188118032Y-118127966D01*
X188038680Y-118224657D01*
X187979715Y-118334971D01*
X187943405Y-118454669D01*
X187931145Y-118579151D01*
X187931145Y-122226000D01*
X186032289Y-122226000D01*
X186032289Y-118579151D01*
X186020029Y-118454669D01*
X185983719Y-118334971D01*
X185924754Y-118224657D01*
X185845402Y-118127966D01*
X185748711Y-118048614D01*
X185638397Y-117989649D01*
X185518699Y-117953339D01*
X185394217Y-117941079D01*
X183489217Y-117941079D01*
X183364735Y-117953339D01*
X183245037Y-117989649D01*
X183171717Y-118028840D01*
X183098397Y-117989649D01*
X182978699Y-117953339D01*
X182854217Y-117941079D01*
X180949217Y-117941079D01*
X180824735Y-117953339D01*
X180705037Y-117989649D01*
X180631717Y-118028840D01*
X180558397Y-117989649D01*
X180438699Y-117953339D01*
X180314217Y-117941079D01*
X178409217Y-117941079D01*
X178284735Y-117953339D01*
X178165037Y-117989649D01*
X178091717Y-118028840D01*
X178018397Y-117989649D01*
X177898699Y-117953339D01*
X177774217Y-117941079D01*
X175869217Y-117941079D01*
X175744735Y-117953339D01*
X175625037Y-117989649D01*
X175551717Y-118028840D01*
X175478397Y-117989649D01*
X175358699Y-117953339D01*
X175234217Y-117941079D01*
X173329217Y-117941079D01*
X173204735Y-117953339D01*
X173085037Y-117989649D01*
X173011717Y-118028840D01*
X172938397Y-117989649D01*
X172818699Y-117953339D01*
X172694217Y-117941079D01*
X171998788Y-117941079D01*
X170770708Y-116713000D01*
X206263256Y-116713000D01*
X206116668Y-116859588D01*
X205858395Y-117246121D01*
X205680494Y-117675613D01*
X205589800Y-118131560D01*
X205589800Y-118596440D01*
X205680494Y-119052387D01*
X205858395Y-119481879D01*
X206116668Y-119868412D01*
X206445388Y-120197132D01*
X206831921Y-120455405D01*
X207261413Y-120633306D01*
X207717360Y-120724000D01*
X208182240Y-120724000D01*
X208638187Y-120633306D01*
X209067679Y-120455405D01*
X209454212Y-120197132D01*
X209782932Y-119868412D01*
X210041205Y-119481879D01*
X210219106Y-119052387D01*
X210309800Y-118596440D01*
X210309800Y-118131560D01*
X218289800Y-118131560D01*
X218289800Y-118596440D01*
X218380494Y-119052387D01*
X218558395Y-119481879D01*
X218816668Y-119868412D01*
X219145388Y-120197132D01*
X219531921Y-120455405D01*
X219961413Y-120633306D01*
X220417360Y-120724000D01*
X220882240Y-120724000D01*
X221338187Y-120633306D01*
X221767679Y-120455405D01*
X222154212Y-120197132D01*
X222482932Y-119868412D01*
X222741205Y-119481879D01*
X222879299Y-119148488D01*
X232599423Y-119148488D01*
X232599423Y-119611512D01*
X232689755Y-120065638D01*
X232866946Y-120493416D01*
X233124188Y-120878405D01*
X233451595Y-121205812D01*
X233836584Y-121463054D01*
X234264362Y-121640245D01*
X234718488Y-121730577D01*
X235181512Y-121730577D01*
X235635638Y-121640245D01*
X236063416Y-121463054D01*
X236448405Y-121205812D01*
X236775812Y-120878405D01*
X237033054Y-120493416D01*
X237210245Y-120065638D01*
X237300577Y-119611512D01*
X237300577Y-119148488D01*
X237210245Y-118694362D01*
X237033054Y-118266584D01*
X236775812Y-117881595D01*
X236448405Y-117554188D01*
X236063416Y-117296946D01*
X235635638Y-117119755D01*
X235181512Y-117029423D01*
X234718488Y-117029423D01*
X234264362Y-117119755D01*
X233836584Y-117296946D01*
X233451595Y-117554188D01*
X233124188Y-117881595D01*
X232866946Y-118266584D01*
X232689755Y-118694362D01*
X232599423Y-119148488D01*
X222879299Y-119148488D01*
X222919106Y-119052387D01*
X223009800Y-118596440D01*
X223009800Y-118131560D01*
X222919106Y-117675613D01*
X222741205Y-117246121D01*
X222482932Y-116859588D01*
X222154212Y-116530868D01*
X221767679Y-116272595D01*
X221338187Y-116094694D01*
X220882240Y-116004000D01*
X220417360Y-116004000D01*
X219961413Y-116094694D01*
X219531921Y-116272595D01*
X219145388Y-116530868D01*
X218816668Y-116859588D01*
X218558395Y-117246121D01*
X218380494Y-117675613D01*
X218289800Y-118131560D01*
X210309800Y-118131560D01*
X210219106Y-117675613D01*
X210041205Y-117246121D01*
X209782932Y-116859588D01*
X209454212Y-116530868D01*
X209067679Y-116272595D01*
X208709492Y-116124230D01*
X212442933Y-112390790D01*
X212481696Y-112358978D01*
X212608660Y-112204272D01*
X212703002Y-112027769D01*
X212761098Y-111836252D01*
X212765053Y-111796098D01*
X212780715Y-111637083D01*
X212775800Y-111587181D01*
X212775800Y-110687655D01*
X212844920Y-110618535D01*
X212997805Y-110389727D01*
X213029800Y-110312485D01*
X213061795Y-110389727D01*
X213214680Y-110618535D01*
X213409265Y-110813120D01*
X213638073Y-110966005D01*
X213892310Y-111071314D01*
X214162208Y-111125000D01*
X214437392Y-111125000D01*
X214707290Y-111071314D01*
X214961527Y-110966005D01*
X215190335Y-110813120D01*
X215384920Y-110618535D01*
X215537805Y-110389727D01*
X215569800Y-110312485D01*
X215601795Y-110389727D01*
X215754680Y-110618535D01*
X215949265Y-110813120D01*
X216178073Y-110966005D01*
X216432310Y-111071314D01*
X216702208Y-111125000D01*
X216977392Y-111125000D01*
X217247290Y-111071314D01*
X217501527Y-110966005D01*
X217730335Y-110813120D01*
X217924920Y-110618535D01*
X218077805Y-110389727D01*
X218183114Y-110135490D01*
X218236800Y-109865592D01*
X218236800Y-109590408D01*
X218183114Y-109320510D01*
X218077805Y-109066273D01*
X217924920Y-108837465D01*
X217855800Y-108768345D01*
X217855800Y-108431702D01*
X217860715Y-108381800D01*
X217841098Y-108182629D01*
X217783002Y-107991113D01*
X217688660Y-107814610D01*
X217593506Y-107698665D01*
X217561696Y-107659904D01*
X217522933Y-107628092D01*
X216907712Y-107012872D01*
X216875896Y-106974104D01*
X216721190Y-106847140D01*
X216544687Y-106752798D01*
X216353171Y-106694702D01*
X216203902Y-106680000D01*
X216154000Y-106675085D01*
X216104098Y-106680000D01*
X207694893Y-106680000D01*
X207644999Y-106675086D01*
X207595105Y-106680000D01*
X207595098Y-106680000D01*
X207465177Y-106692796D01*
X207445828Y-106694702D01*
X207387732Y-106712326D01*
X207254313Y-106752798D01*
X207077810Y-106847140D01*
X206923104Y-106974104D01*
X206891287Y-107012873D01*
X206453873Y-107450287D01*
X206415104Y-107482104D01*
X206288140Y-107636810D01*
X206193798Y-107813314D01*
X206139863Y-107991113D01*
X206135702Y-108004830D01*
X206116085Y-108204000D01*
X206121000Y-108253902D01*
X206121001Y-111466159D01*
X205954160Y-111633000D01*
X111936902Y-111633000D01*
X111887000Y-111628085D01*
X111837098Y-111633000D01*
X111687829Y-111647702D01*
X111496313Y-111705798D01*
X111319810Y-111800140D01*
X111165104Y-111927104D01*
X111133293Y-111965866D01*
X105998621Y-117100539D01*
X105959853Y-117132355D01*
X105832889Y-117287061D01*
X105738547Y-117463565D01*
X105700022Y-117590564D01*
X105680451Y-117655081D01*
X105660834Y-117854251D01*
X105665749Y-117904153D01*
X105665749Y-117947333D01*
X105604767Y-117953339D01*
X105485069Y-117989649D01*
X105374755Y-118048614D01*
X105278064Y-118127966D01*
X105198712Y-118224657D01*
X105139747Y-118334971D01*
X105103437Y-118454669D01*
X105091177Y-118579151D01*
X105091177Y-122226000D01*
X103192321Y-122226000D01*
X103192321Y-118579151D01*
X103180061Y-118454669D01*
X103143751Y-118334971D01*
X103084786Y-118224657D01*
X103005434Y-118127966D01*
X102908743Y-118048614D01*
X102798429Y-117989649D01*
X102678731Y-117953339D01*
X102554249Y-117941079D01*
X100649249Y-117941079D01*
X100524767Y-117953339D01*
X100405069Y-117989649D01*
X100331749Y-118028840D01*
X100258429Y-117989649D01*
X100138731Y-117953339D01*
X100077749Y-117947333D01*
X100077749Y-117907651D01*
X100082664Y-117857749D01*
X100063047Y-117658578D01*
X100004951Y-117467062D01*
X99984400Y-117428614D01*
X99910609Y-117290559D01*
X99783645Y-117135853D01*
X99744882Y-117104041D01*
X94225711Y-111584871D01*
X94225706Y-111584865D01*
X93463712Y-110822872D01*
X93431896Y-110784104D01*
X93277190Y-110657140D01*
X93100687Y-110562798D01*
X92909171Y-110504702D01*
X92759902Y-110490000D01*
X92710000Y-110485085D01*
X92660098Y-110490000D01*
X77498005Y-110490000D01*
X77565005Y-110389727D01*
X77670314Y-110135490D01*
X77724000Y-109865592D01*
X77724000Y-109590408D01*
X131191000Y-109590408D01*
X131191000Y-109865592D01*
X131244686Y-110135490D01*
X131349995Y-110389727D01*
X131502880Y-110618535D01*
X131697465Y-110813120D01*
X131926273Y-110966005D01*
X132180510Y-111071314D01*
X132450408Y-111125000D01*
X132725592Y-111125000D01*
X132995490Y-111071314D01*
X133249727Y-110966005D01*
X133478535Y-110813120D01*
X133673120Y-110618535D01*
X133826005Y-110389727D01*
X133931314Y-110135490D01*
X133985000Y-109865592D01*
X133985000Y-109767840D01*
X134786841Y-108966000D01*
X136496995Y-108966000D01*
X136429995Y-109066273D01*
X136324686Y-109320510D01*
X136271000Y-109590408D01*
X136271000Y-109865592D01*
X136324686Y-110135490D01*
X136429995Y-110389727D01*
X136582880Y-110618535D01*
X136777465Y-110813120D01*
X137006273Y-110966005D01*
X137260510Y-111071314D01*
X137530408Y-111125000D01*
X137805592Y-111125000D01*
X138075490Y-111071314D01*
X138329727Y-110966005D01*
X138558535Y-110813120D01*
X138753120Y-110618535D01*
X138906005Y-110389727D01*
X139011314Y-110135490D01*
X139065000Y-109865592D01*
X139065000Y-109590408D01*
X139011314Y-109320510D01*
X138906005Y-109066273D01*
X138839005Y-108966000D01*
X139279160Y-108966000D01*
X140619956Y-110306797D01*
X140674063Y-110387774D01*
X140818226Y-110531937D01*
X140987744Y-110645205D01*
X141176102Y-110723226D01*
X141376061Y-110763000D01*
X141579939Y-110763000D01*
X141779898Y-110723226D01*
X141968256Y-110645205D01*
X142137774Y-110531937D01*
X142281937Y-110387774D01*
X142395205Y-110218256D01*
X142473226Y-110029898D01*
X142513000Y-109829939D01*
X142513000Y-109626061D01*
X142473226Y-109426102D01*
X142395205Y-109237744D01*
X142281937Y-109068226D01*
X142137774Y-108924063D01*
X142056797Y-108869956D01*
X140453712Y-107266872D01*
X140421896Y-107228104D01*
X140267190Y-107101140D01*
X140090687Y-107006798D01*
X139899171Y-106948702D01*
X139749902Y-106934000D01*
X139700000Y-106929085D01*
X139650098Y-106934000D01*
X134415902Y-106934000D01*
X134366000Y-106929085D01*
X134316098Y-106934000D01*
X134166829Y-106948702D01*
X133975313Y-107006798D01*
X133798810Y-107101140D01*
X133644104Y-107228104D01*
X133612292Y-107266867D01*
X132548160Y-108331000D01*
X132450408Y-108331000D01*
X132180510Y-108384686D01*
X131926273Y-108489995D01*
X131697465Y-108642880D01*
X131502880Y-108837465D01*
X131349995Y-109066273D01*
X131244686Y-109320510D01*
X131191000Y-109590408D01*
X77724000Y-109590408D01*
X77670314Y-109320510D01*
X77565005Y-109066273D01*
X77412120Y-108837465D01*
X77217535Y-108642880D01*
X76988727Y-108489995D01*
X76734490Y-108384686D01*
X76464592Y-108331000D01*
X76366841Y-108331000D01*
X73651712Y-105615872D01*
X73619896Y-105577104D01*
X73465190Y-105450140D01*
X73288687Y-105355798D01*
X73097171Y-105297702D01*
X72947902Y-105283000D01*
X72898000Y-105278085D01*
X72848098Y-105283000D01*
X70682459Y-105283000D01*
X70586939Y-105264000D01*
X70383061Y-105264000D01*
X70183102Y-105303774D01*
X70104000Y-105336539D01*
X70104000Y-104941840D01*
X71063797Y-103982044D01*
X71144774Y-103927937D01*
X71288937Y-103783774D01*
X71402205Y-103614256D01*
X71480226Y-103425898D01*
X71520000Y-103225939D01*
X71520000Y-103022061D01*
X71480226Y-102822102D01*
X71402205Y-102633744D01*
X71288937Y-102464226D01*
X71286695Y-102461984D01*
X75473300Y-102461984D01*
X75473300Y-103178016D01*
X75612991Y-103880290D01*
X75887005Y-104541818D01*
X76284811Y-105137177D01*
X76791123Y-105643489D01*
X77386482Y-106041295D01*
X78048010Y-106315309D01*
X78750284Y-106455000D01*
X79466316Y-106455000D01*
X80168590Y-106315309D01*
X80830118Y-106041295D01*
X81425477Y-105643489D01*
X81931789Y-105137177D01*
X82329595Y-104541818D01*
X82362536Y-104462290D01*
X85344000Y-104462290D01*
X85344000Y-105087710D01*
X85466014Y-105701113D01*
X85705352Y-106278926D01*
X86052817Y-106798944D01*
X86495056Y-107241183D01*
X87015074Y-107588648D01*
X87592887Y-107827986D01*
X88206290Y-107950000D01*
X88831710Y-107950000D01*
X89445113Y-107827986D01*
X90022926Y-107588648D01*
X90542944Y-107241183D01*
X90985183Y-106798944D01*
X91332648Y-106278926D01*
X91571986Y-105701113D01*
X91694000Y-105087710D01*
X91694000Y-104462290D01*
X93218000Y-104462290D01*
X93218000Y-105087710D01*
X93340014Y-105701113D01*
X93579352Y-106278926D01*
X93926817Y-106798944D01*
X94369056Y-107241183D01*
X94889074Y-107588648D01*
X95466887Y-107827986D01*
X96080290Y-107950000D01*
X96705710Y-107950000D01*
X97319113Y-107827986D01*
X97896926Y-107588648D01*
X98416944Y-107241183D01*
X98859183Y-106798944D01*
X99206648Y-106278926D01*
X99445986Y-105701113D01*
X99568000Y-105087710D01*
X99568000Y-104462290D01*
X101092000Y-104462290D01*
X101092000Y-105087710D01*
X101214014Y-105701113D01*
X101453352Y-106278926D01*
X101800817Y-106798944D01*
X102243056Y-107241183D01*
X102763074Y-107588648D01*
X103340887Y-107827986D01*
X103954290Y-107950000D01*
X104579710Y-107950000D01*
X105193113Y-107827986D01*
X105770926Y-107588648D01*
X106290944Y-107241183D01*
X106733183Y-106798944D01*
X107080648Y-106278926D01*
X107319986Y-105701113D01*
X107442000Y-105087710D01*
X107442000Y-104902000D01*
X150349566Y-104902000D01*
X150423128Y-105648890D01*
X150640988Y-106367078D01*
X150994773Y-107028964D01*
X151470888Y-107609112D01*
X152051036Y-108085227D01*
X152712922Y-108439012D01*
X153431110Y-108656872D01*
X153990836Y-108712000D01*
X172975302Y-108712000D01*
X173089761Y-108746721D01*
X173836651Y-108820283D01*
X174583541Y-108746721D01*
X175301729Y-108528860D01*
X175963615Y-108175075D01*
X176398382Y-107818270D01*
X176488220Y-107728432D01*
X176633612Y-107609112D01*
X176752932Y-107463720D01*
X180975033Y-103241620D01*
X180955352Y-103271074D01*
X180716014Y-103848887D01*
X180594000Y-104462290D01*
X180594000Y-105087710D01*
X180716014Y-105701113D01*
X180955352Y-106278926D01*
X181302817Y-106798944D01*
X181745056Y-107241183D01*
X182265074Y-107588648D01*
X182842887Y-107827986D01*
X183456290Y-107950000D01*
X184081710Y-107950000D01*
X184695113Y-107827986D01*
X185272926Y-107588648D01*
X185792944Y-107241183D01*
X186235183Y-106798944D01*
X186582648Y-106278926D01*
X186821986Y-105701113D01*
X186944000Y-105087710D01*
X186944000Y-104462290D01*
X188468000Y-104462290D01*
X188468000Y-105087710D01*
X188590014Y-105701113D01*
X188829352Y-106278926D01*
X189176817Y-106798944D01*
X189619056Y-107241183D01*
X190139074Y-107588648D01*
X190716887Y-107827986D01*
X191330290Y-107950000D01*
X191955710Y-107950000D01*
X192569113Y-107827986D01*
X193146926Y-107588648D01*
X193666944Y-107241183D01*
X194109183Y-106798944D01*
X194456648Y-106278926D01*
X194695986Y-105701113D01*
X194818000Y-105087710D01*
X194818000Y-104462290D01*
X196342000Y-104462290D01*
X196342000Y-105087710D01*
X196464014Y-105701113D01*
X196703352Y-106278926D01*
X197050817Y-106798944D01*
X197493056Y-107241183D01*
X198013074Y-107588648D01*
X198590887Y-107827986D01*
X199204290Y-107950000D01*
X199829710Y-107950000D01*
X200443113Y-107827986D01*
X201020926Y-107588648D01*
X201540944Y-107241183D01*
X201983183Y-106798944D01*
X202330648Y-106278926D01*
X202569986Y-105701113D01*
X202692000Y-105087710D01*
X202692000Y-104462290D01*
X202569986Y-103848887D01*
X202330648Y-103271074D01*
X201983183Y-102751056D01*
X201540944Y-102308817D01*
X201020926Y-101961352D01*
X200443113Y-101722014D01*
X199829710Y-101600000D01*
X199204290Y-101600000D01*
X198590887Y-101722014D01*
X198013074Y-101961352D01*
X197493056Y-102308817D01*
X197050817Y-102751056D01*
X196703352Y-103271074D01*
X196464014Y-103848887D01*
X196342000Y-104462290D01*
X194818000Y-104462290D01*
X194695986Y-103848887D01*
X194456648Y-103271074D01*
X194109183Y-102751056D01*
X193666944Y-102308817D01*
X193146926Y-101961352D01*
X192569113Y-101722014D01*
X191955710Y-101600000D01*
X191330290Y-101600000D01*
X190716887Y-101722014D01*
X190139074Y-101961352D01*
X189619056Y-102308817D01*
X189176817Y-102751056D01*
X188829352Y-103271074D01*
X188590014Y-103848887D01*
X188468000Y-104462290D01*
X186944000Y-104462290D01*
X186821986Y-103848887D01*
X186582648Y-103271074D01*
X186235183Y-102751056D01*
X185792944Y-102308817D01*
X185272926Y-101961352D01*
X184695113Y-101722014D01*
X184081710Y-101600000D01*
X183456290Y-101600000D01*
X182842887Y-101722014D01*
X182265074Y-101961352D01*
X182235620Y-101981032D01*
X194009503Y-90207151D01*
X202740992Y-90207151D01*
X202788325Y-90238778D01*
X203577244Y-90565559D01*
X204414757Y-90732151D01*
X205268677Y-90732151D01*
X206106190Y-90565559D01*
X206895109Y-90238778D01*
X207605118Y-89764365D01*
X208208931Y-89160552D01*
X208683344Y-88450543D01*
X209010125Y-87661624D01*
X209176717Y-86824111D01*
X209176717Y-85970191D01*
X209010125Y-85132678D01*
X208683344Y-84343759D01*
X208208931Y-83633750D01*
X207605118Y-83029937D01*
X206895109Y-82555524D01*
X206106190Y-82228743D01*
X205268677Y-82062151D01*
X204414757Y-82062151D01*
X203577244Y-82228743D01*
X202788325Y-82555524D01*
X202740992Y-82587151D01*
X192618513Y-82587151D01*
X192431349Y-82568717D01*
X192244185Y-82587151D01*
X191684459Y-82642279D01*
X190966271Y-82860139D01*
X190304385Y-83213924D01*
X189724237Y-83690039D01*
X189604926Y-83835420D01*
X172348348Y-101092000D01*
X153990836Y-101092000D01*
X153431110Y-101147128D01*
X152712922Y-101364988D01*
X152051036Y-101718773D01*
X151470888Y-102194888D01*
X150994773Y-102775036D01*
X150640988Y-103436922D01*
X150423128Y-104155110D01*
X150349566Y-104902000D01*
X107442000Y-104902000D01*
X107442000Y-104462290D01*
X107319986Y-103848887D01*
X107080648Y-103271074D01*
X106733183Y-102751056D01*
X106290944Y-102308817D01*
X105770926Y-101961352D01*
X105193113Y-101722014D01*
X104579710Y-101600000D01*
X103954290Y-101600000D01*
X103340887Y-101722014D01*
X102763074Y-101961352D01*
X102243056Y-102308817D01*
X101800817Y-102751056D01*
X101453352Y-103271074D01*
X101214014Y-103848887D01*
X101092000Y-104462290D01*
X99568000Y-104462290D01*
X99445986Y-103848887D01*
X99206648Y-103271074D01*
X98859183Y-102751056D01*
X98416944Y-102308817D01*
X97896926Y-101961352D01*
X97319113Y-101722014D01*
X96705710Y-101600000D01*
X96080290Y-101600000D01*
X95466887Y-101722014D01*
X94889074Y-101961352D01*
X94369056Y-102308817D01*
X93926817Y-102751056D01*
X93579352Y-103271074D01*
X93340014Y-103848887D01*
X93218000Y-104462290D01*
X91694000Y-104462290D01*
X91571986Y-103848887D01*
X91332648Y-103271074D01*
X90985183Y-102751056D01*
X90542944Y-102308817D01*
X90022926Y-101961352D01*
X89445113Y-101722014D01*
X88831710Y-101600000D01*
X88206290Y-101600000D01*
X87592887Y-101722014D01*
X87015074Y-101961352D01*
X86495056Y-102308817D01*
X86052817Y-102751056D01*
X85705352Y-103271074D01*
X85466014Y-103848887D01*
X85344000Y-104462290D01*
X82362536Y-104462290D01*
X82603609Y-103880290D01*
X82743300Y-103178016D01*
X82743300Y-102461984D01*
X82603609Y-101759710D01*
X82329595Y-101098182D01*
X81931789Y-100502823D01*
X81425477Y-99996511D01*
X80830118Y-99598705D01*
X80168590Y-99324691D01*
X79466316Y-99185000D01*
X78750284Y-99185000D01*
X78048010Y-99324691D01*
X77386482Y-99598705D01*
X76791123Y-99996511D01*
X76284811Y-100502823D01*
X75887005Y-101098182D01*
X75612991Y-101759710D01*
X75473300Y-102461984D01*
X71286695Y-102461984D01*
X71144774Y-102320063D01*
X70975256Y-102206795D01*
X70786898Y-102128774D01*
X70586939Y-102089000D01*
X70383061Y-102089000D01*
X70183102Y-102128774D01*
X69994744Y-102206795D01*
X69825226Y-102320063D01*
X69681063Y-102464226D01*
X69626956Y-102545203D01*
X68961001Y-103211159D01*
X68961001Y-102909839D01*
X71063797Y-100807044D01*
X71144774Y-100752937D01*
X71288937Y-100608774D01*
X71402205Y-100439256D01*
X71480226Y-100250898D01*
X71520000Y-100050939D01*
X71520000Y-99847061D01*
X71480226Y-99647102D01*
X71402205Y-99458744D01*
X71288937Y-99289226D01*
X71144774Y-99145063D01*
X70975256Y-99031795D01*
X70786898Y-98953774D01*
X70586939Y-98914000D01*
X70383061Y-98914000D01*
X70183102Y-98953774D01*
X69994744Y-99031795D01*
X69825226Y-99145063D01*
X69681063Y-99289226D01*
X69626956Y-99370203D01*
X67261869Y-101735291D01*
X67223106Y-101767103D01*
X67096142Y-101921809D01*
X67075006Y-101961352D01*
X67001800Y-102098312D01*
X66943703Y-102289829D01*
X66924086Y-102488999D01*
X66929002Y-102538911D01*
X66929001Y-108916099D01*
X66924086Y-108966001D01*
X66931854Y-109044865D01*
X66943703Y-109165171D01*
X67001799Y-109356687D01*
X67096141Y-109533191D01*
X67223105Y-109687897D01*
X67261873Y-109719713D01*
X67310000Y-109767840D01*
X67310000Y-109865592D01*
X67363686Y-110135490D01*
X67468995Y-110389727D01*
X67621880Y-110618535D01*
X67691001Y-110687656D01*
X67691000Y-113488098D01*
X67686085Y-113538000D01*
X67691424Y-113592202D01*
X67705702Y-113737170D01*
X67763798Y-113928686D01*
X67858140Y-114105190D01*
X67985104Y-114259896D01*
X68023872Y-114291712D01*
X68715292Y-114983133D01*
X68747104Y-115021896D01*
X68901810Y-115148860D01*
X68995031Y-115198687D01*
X69078313Y-115243202D01*
X69269829Y-115301298D01*
X69469000Y-115320915D01*
X69518902Y-115316000D01*
X75322247Y-115316000D01*
X75292000Y-115468061D01*
X75292000Y-115671939D01*
X75331774Y-115871898D01*
X75409795Y-116060256D01*
X75523063Y-116229774D01*
X75667226Y-116373937D01*
X75836744Y-116487205D01*
X76025102Y-116565226D01*
X76225061Y-116605000D01*
X76428939Y-116605000D01*
X76524459Y-116586000D01*
X78577456Y-116586000D01*
X78303868Y-116859588D01*
X78045595Y-117246121D01*
X77867694Y-117675613D01*
X77777000Y-118131560D01*
X77777000Y-118596440D01*
X77867694Y-119052387D01*
X78045595Y-119481879D01*
X78303868Y-119868412D01*
X78632588Y-120197132D01*
X79019121Y-120455405D01*
X79448613Y-120633306D01*
X79904560Y-120724000D01*
X80369440Y-120724000D01*
X80825387Y-120633306D01*
X81254879Y-120455405D01*
X81641412Y-120197132D01*
X81970132Y-119868412D01*
X82228405Y-119481879D01*
X82406306Y-119052387D01*
X82497000Y-118596440D01*
X82497000Y-118131560D01*
X82406306Y-117675613D01*
X82228405Y-117246121D01*
X81970132Y-116859588D01*
X81696544Y-116586000D01*
X88479160Y-116586000D01*
X90030429Y-118137270D01*
X89958712Y-118224657D01*
X89899747Y-118334971D01*
X89863437Y-118454669D01*
X89851177Y-118579151D01*
X89851177Y-122226000D01*
X52104722Y-122226000D01*
X52011229Y-122216833D01*
X51954686Y-122199762D01*
X51902549Y-122172040D01*
X51856779Y-122134711D01*
X51819138Y-122089210D01*
X51791048Y-122037260D01*
X51773585Y-121980845D01*
X51764000Y-121889650D01*
X51764000Y-119148488D01*
X52259423Y-119148488D01*
X52259423Y-119611512D01*
X52349755Y-120065638D01*
X52526946Y-120493416D01*
X52784188Y-120878405D01*
X53111595Y-121205812D01*
X53496584Y-121463054D01*
X53924362Y-121640245D01*
X54378488Y-121730577D01*
X54841512Y-121730577D01*
X55295638Y-121640245D01*
X55723416Y-121463054D01*
X56108405Y-121205812D01*
X56435812Y-120878405D01*
X56693054Y-120493416D01*
X56870245Y-120065638D01*
X56960577Y-119611512D01*
X56960577Y-119148488D01*
X56870245Y-118694362D01*
X56693054Y-118266584D01*
X56602834Y-118131560D01*
X65077000Y-118131560D01*
X65077000Y-118596440D01*
X65167694Y-119052387D01*
X65345595Y-119481879D01*
X65603868Y-119868412D01*
X65932588Y-120197132D01*
X66319121Y-120455405D01*
X66748613Y-120633306D01*
X67204560Y-120724000D01*
X67669440Y-120724000D01*
X68125387Y-120633306D01*
X68554879Y-120455405D01*
X68941412Y-120197132D01*
X69270132Y-119868412D01*
X69528405Y-119481879D01*
X69706306Y-119052387D01*
X69797000Y-118596440D01*
X69797000Y-118131560D01*
X69706306Y-117675613D01*
X69528405Y-117246121D01*
X69270132Y-116859588D01*
X68941412Y-116530868D01*
X68554879Y-116272595D01*
X68125387Y-116094694D01*
X67669440Y-116004000D01*
X67204560Y-116004000D01*
X66748613Y-116094694D01*
X66319121Y-116272595D01*
X65932588Y-116530868D01*
X65603868Y-116859588D01*
X65345595Y-117246121D01*
X65167694Y-117675613D01*
X65077000Y-118131560D01*
X56602834Y-118131560D01*
X56435812Y-117881595D01*
X56108405Y-117554188D01*
X55723416Y-117296946D01*
X55295638Y-117119755D01*
X54841512Y-117029423D01*
X54378488Y-117029423D01*
X53924362Y-117119755D01*
X53496584Y-117296946D01*
X53111595Y-117554188D01*
X52784188Y-117881595D01*
X52526946Y-118266584D01*
X52349755Y-118694362D01*
X52259423Y-119148488D01*
X51764000Y-119148488D01*
X51764000Y-76222488D01*
X52259423Y-76222488D01*
X52259423Y-76685512D01*
X52349755Y-77139638D01*
X52526946Y-77567416D01*
X52784188Y-77952405D01*
X53111595Y-78279812D01*
X53496584Y-78537054D01*
X53924362Y-78714245D01*
X54378488Y-78804577D01*
X54841512Y-78804577D01*
X55295638Y-78714245D01*
X55723416Y-78537054D01*
X56108405Y-78279812D01*
X56435812Y-77952405D01*
X56693054Y-77567416D01*
X56870245Y-77139638D01*
X56960577Y-76685512D01*
X56960577Y-76667174D01*
X69506717Y-76667174D01*
X69506717Y-77127128D01*
X69596450Y-77578245D01*
X69772467Y-78003188D01*
X70028004Y-78385627D01*
X70353241Y-78710864D01*
X70735680Y-78966401D01*
X71160623Y-79142418D01*
X71611740Y-79232151D01*
X72071694Y-79232151D01*
X72522811Y-79142418D01*
X72947754Y-78966401D01*
X73330193Y-78710864D01*
X73655430Y-78385627D01*
X73910967Y-78003188D01*
X74086984Y-77578245D01*
X74176717Y-77127128D01*
X74176717Y-76667174D01*
X74086984Y-76216057D01*
X73910967Y-75791114D01*
X73655430Y-75408675D01*
X73330193Y-75083438D01*
X72947754Y-74827901D01*
X72522811Y-74651884D01*
X72071694Y-74562151D01*
X71611740Y-74562151D01*
X71160623Y-74651884D01*
X70735680Y-74827901D01*
X70353241Y-75083438D01*
X70028004Y-75408675D01*
X69772467Y-75791114D01*
X69596450Y-76216057D01*
X69506717Y-76667174D01*
X56960577Y-76667174D01*
X56960577Y-76222488D01*
X56870245Y-75768362D01*
X56693054Y-75340584D01*
X56435812Y-74955595D01*
X56108405Y-74628188D01*
X55723416Y-74370946D01*
X55295638Y-74193755D01*
X54841512Y-74103423D01*
X54378488Y-74103423D01*
X53924362Y-74193755D01*
X53496584Y-74370946D01*
X53111595Y-74628188D01*
X52784188Y-74955595D01*
X52526946Y-75340584D01*
X52349755Y-75768362D01*
X52259423Y-76222488D01*
X51764000Y-76222488D01*
X51764000Y-73948722D01*
X51773167Y-73855228D01*
X51790238Y-73798686D01*
X51817961Y-73746548D01*
X51855288Y-73700781D01*
X51900790Y-73663138D01*
X51952740Y-73635049D01*
X52009156Y-73617585D01*
X52100350Y-73608000D01*
X84209789Y-73608000D01*
X83578316Y-74029937D01*
M02*
