G04 #@! TF.GenerationSoftware,KiCad,Pcbnew,(5.0.2)-1*
G04 #@! TF.CreationDate,2019-03-05T00:15:57-06:00*
G04 #@! TF.ProjectId,ODriveInterfacingBoard,4f447269-7665-4496-9e74-657266616369,rev?*
G04 #@! TF.SameCoordinates,Original*
G04 #@! TF.FileFunction,Paste,Bot*
G04 #@! TF.FilePolarity,Positive*
%FSLAX46Y46*%
G04 Gerber Fmt 4.6, Leading zero omitted, Abs format (unit mm)*
G04 Created by KiCad (PCBNEW (5.0.2)-1) date 3/5/2019 12:15:57 AM*
%MOMM*%
%LPD*%
G01*
G04 APERTURE LIST*
%ADD10C,0.100000*%
%ADD11C,0.950000*%
G04 APERTURE END LIST*
D10*
G04 #@! TO.C,R16*
G36*
X90176779Y-55638144D02*
X90199834Y-55641563D01*
X90222443Y-55647227D01*
X90244387Y-55655079D01*
X90265457Y-55665044D01*
X90285448Y-55677026D01*
X90304168Y-55690910D01*
X90321438Y-55706562D01*
X90337090Y-55723832D01*
X90350974Y-55742552D01*
X90362956Y-55762543D01*
X90372921Y-55783613D01*
X90380773Y-55805557D01*
X90386437Y-55828166D01*
X90389856Y-55851221D01*
X90391000Y-55874500D01*
X90391000Y-56449500D01*
X90389856Y-56472779D01*
X90386437Y-56495834D01*
X90380773Y-56518443D01*
X90372921Y-56540387D01*
X90362956Y-56561457D01*
X90350974Y-56581448D01*
X90337090Y-56600168D01*
X90321438Y-56617438D01*
X90304168Y-56633090D01*
X90285448Y-56646974D01*
X90265457Y-56658956D01*
X90244387Y-56668921D01*
X90222443Y-56676773D01*
X90199834Y-56682437D01*
X90176779Y-56685856D01*
X90153500Y-56687000D01*
X89678500Y-56687000D01*
X89655221Y-56685856D01*
X89632166Y-56682437D01*
X89609557Y-56676773D01*
X89587613Y-56668921D01*
X89566543Y-56658956D01*
X89546552Y-56646974D01*
X89527832Y-56633090D01*
X89510562Y-56617438D01*
X89494910Y-56600168D01*
X89481026Y-56581448D01*
X89469044Y-56561457D01*
X89459079Y-56540387D01*
X89451227Y-56518443D01*
X89445563Y-56495834D01*
X89442144Y-56472779D01*
X89441000Y-56449500D01*
X89441000Y-55874500D01*
X89442144Y-55851221D01*
X89445563Y-55828166D01*
X89451227Y-55805557D01*
X89459079Y-55783613D01*
X89469044Y-55762543D01*
X89481026Y-55742552D01*
X89494910Y-55723832D01*
X89510562Y-55706562D01*
X89527832Y-55690910D01*
X89546552Y-55677026D01*
X89566543Y-55665044D01*
X89587613Y-55655079D01*
X89609557Y-55647227D01*
X89632166Y-55641563D01*
X89655221Y-55638144D01*
X89678500Y-55637000D01*
X90153500Y-55637000D01*
X90176779Y-55638144D01*
X90176779Y-55638144D01*
G37*
D11*
X89916000Y-56162000D03*
D10*
G36*
X90176779Y-57388144D02*
X90199834Y-57391563D01*
X90222443Y-57397227D01*
X90244387Y-57405079D01*
X90265457Y-57415044D01*
X90285448Y-57427026D01*
X90304168Y-57440910D01*
X90321438Y-57456562D01*
X90337090Y-57473832D01*
X90350974Y-57492552D01*
X90362956Y-57512543D01*
X90372921Y-57533613D01*
X90380773Y-57555557D01*
X90386437Y-57578166D01*
X90389856Y-57601221D01*
X90391000Y-57624500D01*
X90391000Y-58199500D01*
X90389856Y-58222779D01*
X90386437Y-58245834D01*
X90380773Y-58268443D01*
X90372921Y-58290387D01*
X90362956Y-58311457D01*
X90350974Y-58331448D01*
X90337090Y-58350168D01*
X90321438Y-58367438D01*
X90304168Y-58383090D01*
X90285448Y-58396974D01*
X90265457Y-58408956D01*
X90244387Y-58418921D01*
X90222443Y-58426773D01*
X90199834Y-58432437D01*
X90176779Y-58435856D01*
X90153500Y-58437000D01*
X89678500Y-58437000D01*
X89655221Y-58435856D01*
X89632166Y-58432437D01*
X89609557Y-58426773D01*
X89587613Y-58418921D01*
X89566543Y-58408956D01*
X89546552Y-58396974D01*
X89527832Y-58383090D01*
X89510562Y-58367438D01*
X89494910Y-58350168D01*
X89481026Y-58331448D01*
X89469044Y-58311457D01*
X89459079Y-58290387D01*
X89451227Y-58268443D01*
X89445563Y-58245834D01*
X89442144Y-58222779D01*
X89441000Y-58199500D01*
X89441000Y-57624500D01*
X89442144Y-57601221D01*
X89445563Y-57578166D01*
X89451227Y-57555557D01*
X89459079Y-57533613D01*
X89469044Y-57512543D01*
X89481026Y-57492552D01*
X89494910Y-57473832D01*
X89510562Y-57456562D01*
X89527832Y-57440910D01*
X89546552Y-57427026D01*
X89566543Y-57415044D01*
X89587613Y-57405079D01*
X89609557Y-57397227D01*
X89632166Y-57391563D01*
X89655221Y-57388144D01*
X89678500Y-57387000D01*
X90153500Y-57387000D01*
X90176779Y-57388144D01*
X90176779Y-57388144D01*
G37*
D11*
X89916000Y-57912000D03*
G04 #@! TD*
D10*
G04 #@! TO.C,R17*
G36*
X95256779Y-57388144D02*
X95279834Y-57391563D01*
X95302443Y-57397227D01*
X95324387Y-57405079D01*
X95345457Y-57415044D01*
X95365448Y-57427026D01*
X95384168Y-57440910D01*
X95401438Y-57456562D01*
X95417090Y-57473832D01*
X95430974Y-57492552D01*
X95442956Y-57512543D01*
X95452921Y-57533613D01*
X95460773Y-57555557D01*
X95466437Y-57578166D01*
X95469856Y-57601221D01*
X95471000Y-57624500D01*
X95471000Y-58199500D01*
X95469856Y-58222779D01*
X95466437Y-58245834D01*
X95460773Y-58268443D01*
X95452921Y-58290387D01*
X95442956Y-58311457D01*
X95430974Y-58331448D01*
X95417090Y-58350168D01*
X95401438Y-58367438D01*
X95384168Y-58383090D01*
X95365448Y-58396974D01*
X95345457Y-58408956D01*
X95324387Y-58418921D01*
X95302443Y-58426773D01*
X95279834Y-58432437D01*
X95256779Y-58435856D01*
X95233500Y-58437000D01*
X94758500Y-58437000D01*
X94735221Y-58435856D01*
X94712166Y-58432437D01*
X94689557Y-58426773D01*
X94667613Y-58418921D01*
X94646543Y-58408956D01*
X94626552Y-58396974D01*
X94607832Y-58383090D01*
X94590562Y-58367438D01*
X94574910Y-58350168D01*
X94561026Y-58331448D01*
X94549044Y-58311457D01*
X94539079Y-58290387D01*
X94531227Y-58268443D01*
X94525563Y-58245834D01*
X94522144Y-58222779D01*
X94521000Y-58199500D01*
X94521000Y-57624500D01*
X94522144Y-57601221D01*
X94525563Y-57578166D01*
X94531227Y-57555557D01*
X94539079Y-57533613D01*
X94549044Y-57512543D01*
X94561026Y-57492552D01*
X94574910Y-57473832D01*
X94590562Y-57456562D01*
X94607832Y-57440910D01*
X94626552Y-57427026D01*
X94646543Y-57415044D01*
X94667613Y-57405079D01*
X94689557Y-57397227D01*
X94712166Y-57391563D01*
X94735221Y-57388144D01*
X94758500Y-57387000D01*
X95233500Y-57387000D01*
X95256779Y-57388144D01*
X95256779Y-57388144D01*
G37*
D11*
X94996000Y-57912000D03*
D10*
G36*
X95256779Y-55638144D02*
X95279834Y-55641563D01*
X95302443Y-55647227D01*
X95324387Y-55655079D01*
X95345457Y-55665044D01*
X95365448Y-55677026D01*
X95384168Y-55690910D01*
X95401438Y-55706562D01*
X95417090Y-55723832D01*
X95430974Y-55742552D01*
X95442956Y-55762543D01*
X95452921Y-55783613D01*
X95460773Y-55805557D01*
X95466437Y-55828166D01*
X95469856Y-55851221D01*
X95471000Y-55874500D01*
X95471000Y-56449500D01*
X95469856Y-56472779D01*
X95466437Y-56495834D01*
X95460773Y-56518443D01*
X95452921Y-56540387D01*
X95442956Y-56561457D01*
X95430974Y-56581448D01*
X95417090Y-56600168D01*
X95401438Y-56617438D01*
X95384168Y-56633090D01*
X95365448Y-56646974D01*
X95345457Y-56658956D01*
X95324387Y-56668921D01*
X95302443Y-56676773D01*
X95279834Y-56682437D01*
X95256779Y-56685856D01*
X95233500Y-56687000D01*
X94758500Y-56687000D01*
X94735221Y-56685856D01*
X94712166Y-56682437D01*
X94689557Y-56676773D01*
X94667613Y-56668921D01*
X94646543Y-56658956D01*
X94626552Y-56646974D01*
X94607832Y-56633090D01*
X94590562Y-56617438D01*
X94574910Y-56600168D01*
X94561026Y-56581448D01*
X94549044Y-56561457D01*
X94539079Y-56540387D01*
X94531227Y-56518443D01*
X94525563Y-56495834D01*
X94522144Y-56472779D01*
X94521000Y-56449500D01*
X94521000Y-55874500D01*
X94522144Y-55851221D01*
X94525563Y-55828166D01*
X94531227Y-55805557D01*
X94539079Y-55783613D01*
X94549044Y-55762543D01*
X94561026Y-55742552D01*
X94574910Y-55723832D01*
X94590562Y-55706562D01*
X94607832Y-55690910D01*
X94626552Y-55677026D01*
X94646543Y-55665044D01*
X94667613Y-55655079D01*
X94689557Y-55647227D01*
X94712166Y-55641563D01*
X94735221Y-55638144D01*
X94758500Y-55637000D01*
X95233500Y-55637000D01*
X95256779Y-55638144D01*
X95256779Y-55638144D01*
G37*
D11*
X94996000Y-56162000D03*
G04 #@! TD*
M02*
