G04 #@! TF.GenerationSoftware,KiCad,Pcbnew,(5.0.2)-1*
G04 #@! TF.CreationDate,2019-03-05T00:15:57-06:00*
G04 #@! TF.ProjectId,ODriveInterfacingBoard,4f447269-7665-4496-9e74-657266616369,rev?*
G04 #@! TF.SameCoordinates,Original*
G04 #@! TF.FileFunction,Soldermask,Top*
G04 #@! TF.FilePolarity,Negative*
%FSLAX46Y46*%
G04 Gerber Fmt 4.6, Leading zero omitted, Abs format (unit mm)*
G04 Created by KiCad (PCBNEW (5.0.2)-1) date 3/5/2019 12:15:57 AM*
%MOMM*%
%LPD*%
G01*
G04 APERTURE LIST*
%ADD10C,0.100000*%
G04 APERTURE END LIST*
D10*
G36*
X144054605Y-143695621D02*
X144234991Y-143731501D01*
X144426079Y-143810653D01*
X144598053Y-143925562D01*
X144744306Y-144071815D01*
X144859215Y-144243789D01*
X144938367Y-144434877D01*
X144978717Y-144637735D01*
X144978717Y-144844567D01*
X144938367Y-145047425D01*
X144859215Y-145238513D01*
X144744306Y-145410487D01*
X144598053Y-145556740D01*
X144426079Y-145671649D01*
X144234991Y-145750801D01*
X144054605Y-145786681D01*
X144032134Y-145791151D01*
X143825300Y-145791151D01*
X143802829Y-145786681D01*
X143622443Y-145750801D01*
X143431355Y-145671649D01*
X143259381Y-145556740D01*
X143113128Y-145410487D01*
X142998219Y-145238513D01*
X142919067Y-145047425D01*
X142878717Y-144844567D01*
X142878717Y-144637735D01*
X142919067Y-144434877D01*
X142998219Y-144243789D01*
X143113128Y-144071815D01*
X143259381Y-143925562D01*
X143431355Y-143810653D01*
X143622443Y-143731501D01*
X143802829Y-143695621D01*
X143825300Y-143691151D01*
X144032134Y-143691151D01*
X144054605Y-143695621D01*
X144054605Y-143695621D01*
G37*
G36*
X146594605Y-143695621D02*
X146774991Y-143731501D01*
X146966079Y-143810653D01*
X147138053Y-143925562D01*
X147284306Y-144071815D01*
X147399215Y-144243789D01*
X147478367Y-144434877D01*
X147518717Y-144637735D01*
X147518717Y-144844567D01*
X147478367Y-145047425D01*
X147399215Y-145238513D01*
X147284306Y-145410487D01*
X147138053Y-145556740D01*
X146966079Y-145671649D01*
X146774991Y-145750801D01*
X146594605Y-145786681D01*
X146572134Y-145791151D01*
X146365300Y-145791151D01*
X146342829Y-145786681D01*
X146162443Y-145750801D01*
X145971355Y-145671649D01*
X145799381Y-145556740D01*
X145653128Y-145410487D01*
X145538219Y-145238513D01*
X145459067Y-145047425D01*
X145418717Y-144844567D01*
X145418717Y-144637735D01*
X145459067Y-144434877D01*
X145538219Y-144243789D01*
X145653128Y-144071815D01*
X145799381Y-143925562D01*
X145971355Y-143810653D01*
X146162443Y-143731501D01*
X146342829Y-143695621D01*
X146365300Y-143691151D01*
X146572134Y-143691151D01*
X146594605Y-143695621D01*
X146594605Y-143695621D01*
G37*
G36*
X164374605Y-143695621D02*
X164554991Y-143731501D01*
X164746079Y-143810653D01*
X164918053Y-143925562D01*
X165064306Y-144071815D01*
X165179215Y-144243789D01*
X165258367Y-144434877D01*
X165298717Y-144637735D01*
X165298717Y-144844567D01*
X165258367Y-145047425D01*
X165179215Y-145238513D01*
X165064306Y-145410487D01*
X164918053Y-145556740D01*
X164746079Y-145671649D01*
X164554991Y-145750801D01*
X164374605Y-145786681D01*
X164352134Y-145791151D01*
X164145300Y-145791151D01*
X164122829Y-145786681D01*
X163942443Y-145750801D01*
X163751355Y-145671649D01*
X163579381Y-145556740D01*
X163433128Y-145410487D01*
X163318219Y-145238513D01*
X163239067Y-145047425D01*
X163198717Y-144844567D01*
X163198717Y-144637735D01*
X163239067Y-144434877D01*
X163318219Y-144243789D01*
X163433128Y-144071815D01*
X163579381Y-143925562D01*
X163751355Y-143810653D01*
X163942443Y-143731501D01*
X164122829Y-143695621D01*
X164145300Y-143691151D01*
X164352134Y-143691151D01*
X164374605Y-143695621D01*
X164374605Y-143695621D01*
G37*
G36*
X161834605Y-143695621D02*
X162014991Y-143731501D01*
X162206079Y-143810653D01*
X162378053Y-143925562D01*
X162524306Y-144071815D01*
X162639215Y-144243789D01*
X162718367Y-144434877D01*
X162758717Y-144637735D01*
X162758717Y-144844567D01*
X162718367Y-145047425D01*
X162639215Y-145238513D01*
X162524306Y-145410487D01*
X162378053Y-145556740D01*
X162206079Y-145671649D01*
X162014991Y-145750801D01*
X161834605Y-145786681D01*
X161812134Y-145791151D01*
X161605300Y-145791151D01*
X161582829Y-145786681D01*
X161402443Y-145750801D01*
X161211355Y-145671649D01*
X161039381Y-145556740D01*
X160893128Y-145410487D01*
X160778219Y-145238513D01*
X160699067Y-145047425D01*
X160658717Y-144844567D01*
X160658717Y-144637735D01*
X160699067Y-144434877D01*
X160778219Y-144243789D01*
X160893128Y-144071815D01*
X161039381Y-143925562D01*
X161211355Y-143810653D01*
X161402443Y-143731501D01*
X161582829Y-143695621D01*
X161605300Y-143691151D01*
X161812134Y-143691151D01*
X161834605Y-143695621D01*
X161834605Y-143695621D01*
G37*
G36*
X159294605Y-143695621D02*
X159474991Y-143731501D01*
X159666079Y-143810653D01*
X159838053Y-143925562D01*
X159984306Y-144071815D01*
X160099215Y-144243789D01*
X160178367Y-144434877D01*
X160218717Y-144637735D01*
X160218717Y-144844567D01*
X160178367Y-145047425D01*
X160099215Y-145238513D01*
X159984306Y-145410487D01*
X159838053Y-145556740D01*
X159666079Y-145671649D01*
X159474991Y-145750801D01*
X159294605Y-145786681D01*
X159272134Y-145791151D01*
X159065300Y-145791151D01*
X159042829Y-145786681D01*
X158862443Y-145750801D01*
X158671355Y-145671649D01*
X158499381Y-145556740D01*
X158353128Y-145410487D01*
X158238219Y-145238513D01*
X158159067Y-145047425D01*
X158118717Y-144844567D01*
X158118717Y-144637735D01*
X158159067Y-144434877D01*
X158238219Y-144243789D01*
X158353128Y-144071815D01*
X158499381Y-143925562D01*
X158671355Y-143810653D01*
X158862443Y-143731501D01*
X159042829Y-143695621D01*
X159065300Y-143691151D01*
X159272134Y-143691151D01*
X159294605Y-143695621D01*
X159294605Y-143695621D01*
G37*
G36*
X156754605Y-143695621D02*
X156934991Y-143731501D01*
X157126079Y-143810653D01*
X157298053Y-143925562D01*
X157444306Y-144071815D01*
X157559215Y-144243789D01*
X157638367Y-144434877D01*
X157678717Y-144637735D01*
X157678717Y-144844567D01*
X157638367Y-145047425D01*
X157559215Y-145238513D01*
X157444306Y-145410487D01*
X157298053Y-145556740D01*
X157126079Y-145671649D01*
X156934991Y-145750801D01*
X156754605Y-145786681D01*
X156732134Y-145791151D01*
X156525300Y-145791151D01*
X156502829Y-145786681D01*
X156322443Y-145750801D01*
X156131355Y-145671649D01*
X155959381Y-145556740D01*
X155813128Y-145410487D01*
X155698219Y-145238513D01*
X155619067Y-145047425D01*
X155578717Y-144844567D01*
X155578717Y-144637735D01*
X155619067Y-144434877D01*
X155698219Y-144243789D01*
X155813128Y-144071815D01*
X155959381Y-143925562D01*
X156131355Y-143810653D01*
X156322443Y-143731501D01*
X156502829Y-143695621D01*
X156525300Y-143691151D01*
X156732134Y-143691151D01*
X156754605Y-143695621D01*
X156754605Y-143695621D01*
G37*
G36*
X154214605Y-143695621D02*
X154394991Y-143731501D01*
X154586079Y-143810653D01*
X154758053Y-143925562D01*
X154904306Y-144071815D01*
X155019215Y-144243789D01*
X155098367Y-144434877D01*
X155138717Y-144637735D01*
X155138717Y-144844567D01*
X155098367Y-145047425D01*
X155019215Y-145238513D01*
X154904306Y-145410487D01*
X154758053Y-145556740D01*
X154586079Y-145671649D01*
X154394991Y-145750801D01*
X154214605Y-145786681D01*
X154192134Y-145791151D01*
X153985300Y-145791151D01*
X153962829Y-145786681D01*
X153782443Y-145750801D01*
X153591355Y-145671649D01*
X153419381Y-145556740D01*
X153273128Y-145410487D01*
X153158219Y-145238513D01*
X153079067Y-145047425D01*
X153038717Y-144844567D01*
X153038717Y-144637735D01*
X153079067Y-144434877D01*
X153158219Y-144243789D01*
X153273128Y-144071815D01*
X153419381Y-143925562D01*
X153591355Y-143810653D01*
X153782443Y-143731501D01*
X153962829Y-143695621D01*
X153985300Y-143691151D01*
X154192134Y-143691151D01*
X154214605Y-143695621D01*
X154214605Y-143695621D01*
G37*
G36*
X151674605Y-143695621D02*
X151854991Y-143731501D01*
X152046079Y-143810653D01*
X152218053Y-143925562D01*
X152364306Y-144071815D01*
X152479215Y-144243789D01*
X152558367Y-144434877D01*
X152598717Y-144637735D01*
X152598717Y-144844567D01*
X152558367Y-145047425D01*
X152479215Y-145238513D01*
X152364306Y-145410487D01*
X152218053Y-145556740D01*
X152046079Y-145671649D01*
X151854991Y-145750801D01*
X151674605Y-145786681D01*
X151652134Y-145791151D01*
X151445300Y-145791151D01*
X151422829Y-145786681D01*
X151242443Y-145750801D01*
X151051355Y-145671649D01*
X150879381Y-145556740D01*
X150733128Y-145410487D01*
X150618219Y-145238513D01*
X150539067Y-145047425D01*
X150498717Y-144844567D01*
X150498717Y-144637735D01*
X150539067Y-144434877D01*
X150618219Y-144243789D01*
X150733128Y-144071815D01*
X150879381Y-143925562D01*
X151051355Y-143810653D01*
X151242443Y-143731501D01*
X151422829Y-143695621D01*
X151445300Y-143691151D01*
X151652134Y-143691151D01*
X151674605Y-143695621D01*
X151674605Y-143695621D01*
G37*
G36*
X149134605Y-143695621D02*
X149314991Y-143731501D01*
X149506079Y-143810653D01*
X149678053Y-143925562D01*
X149824306Y-144071815D01*
X149939215Y-144243789D01*
X150018367Y-144434877D01*
X150058717Y-144637735D01*
X150058717Y-144844567D01*
X150018367Y-145047425D01*
X149939215Y-145238513D01*
X149824306Y-145410487D01*
X149678053Y-145556740D01*
X149506079Y-145671649D01*
X149314991Y-145750801D01*
X149134605Y-145786681D01*
X149112134Y-145791151D01*
X148905300Y-145791151D01*
X148882829Y-145786681D01*
X148702443Y-145750801D01*
X148511355Y-145671649D01*
X148339381Y-145556740D01*
X148193128Y-145410487D01*
X148078219Y-145238513D01*
X147999067Y-145047425D01*
X147958717Y-144844567D01*
X147958717Y-144637735D01*
X147999067Y-144434877D01*
X148078219Y-144243789D01*
X148193128Y-144071815D01*
X148339381Y-143925562D01*
X148511355Y-143810653D01*
X148702443Y-143731501D01*
X148882829Y-143695621D01*
X148905300Y-143691151D01*
X149112134Y-143691151D01*
X149134605Y-143695621D01*
X149134605Y-143695621D01*
G37*
G36*
X123734605Y-143695621D02*
X123914991Y-143731501D01*
X124106079Y-143810653D01*
X124278053Y-143925562D01*
X124424306Y-144071815D01*
X124539215Y-144243789D01*
X124618367Y-144434877D01*
X124658717Y-144637735D01*
X124658717Y-144844567D01*
X124618367Y-145047425D01*
X124539215Y-145238513D01*
X124424306Y-145410487D01*
X124278053Y-145556740D01*
X124106079Y-145671649D01*
X123914991Y-145750801D01*
X123734605Y-145786681D01*
X123712134Y-145791151D01*
X123505300Y-145791151D01*
X123482829Y-145786681D01*
X123302443Y-145750801D01*
X123111355Y-145671649D01*
X122939381Y-145556740D01*
X122793128Y-145410487D01*
X122678219Y-145238513D01*
X122599067Y-145047425D01*
X122558717Y-144844567D01*
X122558717Y-144637735D01*
X122599067Y-144434877D01*
X122678219Y-144243789D01*
X122793128Y-144071815D01*
X122939381Y-143925562D01*
X123111355Y-143810653D01*
X123302443Y-143731501D01*
X123482829Y-143695621D01*
X123505300Y-143691151D01*
X123712134Y-143691151D01*
X123734605Y-143695621D01*
X123734605Y-143695621D01*
G37*
G36*
X141514605Y-143695621D02*
X141694991Y-143731501D01*
X141886079Y-143810653D01*
X142058053Y-143925562D01*
X142204306Y-144071815D01*
X142319215Y-144243789D01*
X142398367Y-144434877D01*
X142438717Y-144637735D01*
X142438717Y-144844567D01*
X142398367Y-145047425D01*
X142319215Y-145238513D01*
X142204306Y-145410487D01*
X142058053Y-145556740D01*
X141886079Y-145671649D01*
X141694991Y-145750801D01*
X141514605Y-145786681D01*
X141492134Y-145791151D01*
X141285300Y-145791151D01*
X141262829Y-145786681D01*
X141082443Y-145750801D01*
X140891355Y-145671649D01*
X140719381Y-145556740D01*
X140573128Y-145410487D01*
X140458219Y-145238513D01*
X140379067Y-145047425D01*
X140338717Y-144844567D01*
X140338717Y-144637735D01*
X140379067Y-144434877D01*
X140458219Y-144243789D01*
X140573128Y-144071815D01*
X140719381Y-143925562D01*
X140891355Y-143810653D01*
X141082443Y-143731501D01*
X141262829Y-143695621D01*
X141285300Y-143691151D01*
X141492134Y-143691151D01*
X141514605Y-143695621D01*
X141514605Y-143695621D01*
G37*
G36*
X138974605Y-143695621D02*
X139154991Y-143731501D01*
X139346079Y-143810653D01*
X139518053Y-143925562D01*
X139664306Y-144071815D01*
X139779215Y-144243789D01*
X139858367Y-144434877D01*
X139898717Y-144637735D01*
X139898717Y-144844567D01*
X139858367Y-145047425D01*
X139779215Y-145238513D01*
X139664306Y-145410487D01*
X139518053Y-145556740D01*
X139346079Y-145671649D01*
X139154991Y-145750801D01*
X138974605Y-145786681D01*
X138952134Y-145791151D01*
X138745300Y-145791151D01*
X138722829Y-145786681D01*
X138542443Y-145750801D01*
X138351355Y-145671649D01*
X138179381Y-145556740D01*
X138033128Y-145410487D01*
X137918219Y-145238513D01*
X137839067Y-145047425D01*
X137798717Y-144844567D01*
X137798717Y-144637735D01*
X137839067Y-144434877D01*
X137918219Y-144243789D01*
X138033128Y-144071815D01*
X138179381Y-143925562D01*
X138351355Y-143810653D01*
X138542443Y-143731501D01*
X138722829Y-143695621D01*
X138745300Y-143691151D01*
X138952134Y-143691151D01*
X138974605Y-143695621D01*
X138974605Y-143695621D01*
G37*
G36*
X136434605Y-143695621D02*
X136614991Y-143731501D01*
X136806079Y-143810653D01*
X136978053Y-143925562D01*
X137124306Y-144071815D01*
X137239215Y-144243789D01*
X137318367Y-144434877D01*
X137358717Y-144637735D01*
X137358717Y-144844567D01*
X137318367Y-145047425D01*
X137239215Y-145238513D01*
X137124306Y-145410487D01*
X136978053Y-145556740D01*
X136806079Y-145671649D01*
X136614991Y-145750801D01*
X136434605Y-145786681D01*
X136412134Y-145791151D01*
X136205300Y-145791151D01*
X136182829Y-145786681D01*
X136002443Y-145750801D01*
X135811355Y-145671649D01*
X135639381Y-145556740D01*
X135493128Y-145410487D01*
X135378219Y-145238513D01*
X135299067Y-145047425D01*
X135258717Y-144844567D01*
X135258717Y-144637735D01*
X135299067Y-144434877D01*
X135378219Y-144243789D01*
X135493128Y-144071815D01*
X135639381Y-143925562D01*
X135811355Y-143810653D01*
X136002443Y-143731501D01*
X136182829Y-143695621D01*
X136205300Y-143691151D01*
X136412134Y-143691151D01*
X136434605Y-143695621D01*
X136434605Y-143695621D01*
G37*
G36*
X133894605Y-143695621D02*
X134074991Y-143731501D01*
X134266079Y-143810653D01*
X134438053Y-143925562D01*
X134584306Y-144071815D01*
X134699215Y-144243789D01*
X134778367Y-144434877D01*
X134818717Y-144637735D01*
X134818717Y-144844567D01*
X134778367Y-145047425D01*
X134699215Y-145238513D01*
X134584306Y-145410487D01*
X134438053Y-145556740D01*
X134266079Y-145671649D01*
X134074991Y-145750801D01*
X133894605Y-145786681D01*
X133872134Y-145791151D01*
X133665300Y-145791151D01*
X133642829Y-145786681D01*
X133462443Y-145750801D01*
X133271355Y-145671649D01*
X133099381Y-145556740D01*
X132953128Y-145410487D01*
X132838219Y-145238513D01*
X132759067Y-145047425D01*
X132718717Y-144844567D01*
X132718717Y-144637735D01*
X132759067Y-144434877D01*
X132838219Y-144243789D01*
X132953128Y-144071815D01*
X133099381Y-143925562D01*
X133271355Y-143810653D01*
X133462443Y-143731501D01*
X133642829Y-143695621D01*
X133665300Y-143691151D01*
X133872134Y-143691151D01*
X133894605Y-143695621D01*
X133894605Y-143695621D01*
G37*
G36*
X131354605Y-143695621D02*
X131534991Y-143731501D01*
X131726079Y-143810653D01*
X131898053Y-143925562D01*
X132044306Y-144071815D01*
X132159215Y-144243789D01*
X132238367Y-144434877D01*
X132278717Y-144637735D01*
X132278717Y-144844567D01*
X132238367Y-145047425D01*
X132159215Y-145238513D01*
X132044306Y-145410487D01*
X131898053Y-145556740D01*
X131726079Y-145671649D01*
X131534991Y-145750801D01*
X131354605Y-145786681D01*
X131332134Y-145791151D01*
X131125300Y-145791151D01*
X131102829Y-145786681D01*
X130922443Y-145750801D01*
X130731355Y-145671649D01*
X130559381Y-145556740D01*
X130413128Y-145410487D01*
X130298219Y-145238513D01*
X130219067Y-145047425D01*
X130178717Y-144844567D01*
X130178717Y-144637735D01*
X130219067Y-144434877D01*
X130298219Y-144243789D01*
X130413128Y-144071815D01*
X130559381Y-143925562D01*
X130731355Y-143810653D01*
X130922443Y-143731501D01*
X131102829Y-143695621D01*
X131125300Y-143691151D01*
X131332134Y-143691151D01*
X131354605Y-143695621D01*
X131354605Y-143695621D01*
G37*
G36*
X128814605Y-143695621D02*
X128994991Y-143731501D01*
X129186079Y-143810653D01*
X129358053Y-143925562D01*
X129504306Y-144071815D01*
X129619215Y-144243789D01*
X129698367Y-144434877D01*
X129738717Y-144637735D01*
X129738717Y-144844567D01*
X129698367Y-145047425D01*
X129619215Y-145238513D01*
X129504306Y-145410487D01*
X129358053Y-145556740D01*
X129186079Y-145671649D01*
X128994991Y-145750801D01*
X128814605Y-145786681D01*
X128792134Y-145791151D01*
X128585300Y-145791151D01*
X128562829Y-145786681D01*
X128382443Y-145750801D01*
X128191355Y-145671649D01*
X128019381Y-145556740D01*
X127873128Y-145410487D01*
X127758219Y-145238513D01*
X127679067Y-145047425D01*
X127638717Y-144844567D01*
X127638717Y-144637735D01*
X127679067Y-144434877D01*
X127758219Y-144243789D01*
X127873128Y-144071815D01*
X128019381Y-143925562D01*
X128191355Y-143810653D01*
X128382443Y-143731501D01*
X128562829Y-143695621D01*
X128585300Y-143691151D01*
X128792134Y-143691151D01*
X128814605Y-143695621D01*
X128814605Y-143695621D01*
G37*
G36*
X66294637Y-143695621D02*
X66475023Y-143731501D01*
X66666111Y-143810653D01*
X66838085Y-143925562D01*
X66984338Y-144071815D01*
X67099247Y-144243789D01*
X67178399Y-144434877D01*
X67218749Y-144637735D01*
X67218749Y-144844567D01*
X67178399Y-145047425D01*
X67099247Y-145238513D01*
X66984338Y-145410487D01*
X66838085Y-145556740D01*
X66666111Y-145671649D01*
X66475023Y-145750801D01*
X66294637Y-145786681D01*
X66272166Y-145791151D01*
X66065332Y-145791151D01*
X66042861Y-145786681D01*
X65862475Y-145750801D01*
X65671387Y-145671649D01*
X65499413Y-145556740D01*
X65353160Y-145410487D01*
X65238251Y-145238513D01*
X65159099Y-145047425D01*
X65118749Y-144844567D01*
X65118749Y-144637735D01*
X65159099Y-144434877D01*
X65238251Y-144243789D01*
X65353160Y-144071815D01*
X65499413Y-143925562D01*
X65671387Y-143810653D01*
X65862475Y-143731501D01*
X66042861Y-143695621D01*
X66065332Y-143691151D01*
X66272166Y-143691151D01*
X66294637Y-143695621D01*
X66294637Y-143695621D01*
G37*
G36*
X81534637Y-143695621D02*
X81715023Y-143731501D01*
X81906111Y-143810653D01*
X82078085Y-143925562D01*
X82224338Y-144071815D01*
X82339247Y-144243789D01*
X82418399Y-144434877D01*
X82458749Y-144637735D01*
X82458749Y-144844567D01*
X82418399Y-145047425D01*
X82339247Y-145238513D01*
X82224338Y-145410487D01*
X82078085Y-145556740D01*
X81906111Y-145671649D01*
X81715023Y-145750801D01*
X81534637Y-145786681D01*
X81512166Y-145791151D01*
X81305332Y-145791151D01*
X81282861Y-145786681D01*
X81102475Y-145750801D01*
X80911387Y-145671649D01*
X80739413Y-145556740D01*
X80593160Y-145410487D01*
X80478251Y-145238513D01*
X80399099Y-145047425D01*
X80358749Y-144844567D01*
X80358749Y-144637735D01*
X80399099Y-144434877D01*
X80478251Y-144243789D01*
X80593160Y-144071815D01*
X80739413Y-143925562D01*
X80911387Y-143810653D01*
X81102475Y-143731501D01*
X81282861Y-143695621D01*
X81305332Y-143691151D01*
X81512166Y-143691151D01*
X81534637Y-143695621D01*
X81534637Y-143695621D01*
G37*
G36*
X84074637Y-143695621D02*
X84255023Y-143731501D01*
X84446111Y-143810653D01*
X84618085Y-143925562D01*
X84764338Y-144071815D01*
X84879247Y-144243789D01*
X84958399Y-144434877D01*
X84998749Y-144637735D01*
X84998749Y-144844567D01*
X84958399Y-145047425D01*
X84879247Y-145238513D01*
X84764338Y-145410487D01*
X84618085Y-145556740D01*
X84446111Y-145671649D01*
X84255023Y-145750801D01*
X84074637Y-145786681D01*
X84052166Y-145791151D01*
X83845332Y-145791151D01*
X83822861Y-145786681D01*
X83642475Y-145750801D01*
X83451387Y-145671649D01*
X83279413Y-145556740D01*
X83133160Y-145410487D01*
X83018251Y-145238513D01*
X82939099Y-145047425D01*
X82898749Y-144844567D01*
X82898749Y-144637735D01*
X82939099Y-144434877D01*
X83018251Y-144243789D01*
X83133160Y-144071815D01*
X83279413Y-143925562D01*
X83451387Y-143810653D01*
X83642475Y-143731501D01*
X83822861Y-143695621D01*
X83845332Y-143691151D01*
X84052166Y-143691151D01*
X84074637Y-143695621D01*
X84074637Y-143695621D01*
G37*
G36*
X121194605Y-143695621D02*
X121374991Y-143731501D01*
X121566079Y-143810653D01*
X121738053Y-143925562D01*
X121884306Y-144071815D01*
X121999215Y-144243789D01*
X122078367Y-144434877D01*
X122118717Y-144637735D01*
X122118717Y-144844567D01*
X122078367Y-145047425D01*
X121999215Y-145238513D01*
X121884306Y-145410487D01*
X121738053Y-145556740D01*
X121566079Y-145671649D01*
X121374991Y-145750801D01*
X121194605Y-145786681D01*
X121172134Y-145791151D01*
X120965300Y-145791151D01*
X120942829Y-145786681D01*
X120762443Y-145750801D01*
X120571355Y-145671649D01*
X120399381Y-145556740D01*
X120253128Y-145410487D01*
X120138219Y-145238513D01*
X120059067Y-145047425D01*
X120018717Y-144844567D01*
X120018717Y-144637735D01*
X120059067Y-144434877D01*
X120138219Y-144243789D01*
X120253128Y-144071815D01*
X120399381Y-143925562D01*
X120571355Y-143810653D01*
X120762443Y-143731501D01*
X120942829Y-143695621D01*
X120965300Y-143691151D01*
X121172134Y-143691151D01*
X121194605Y-143695621D01*
X121194605Y-143695621D01*
G37*
G36*
X118654605Y-143695621D02*
X118834991Y-143731501D01*
X119026079Y-143810653D01*
X119198053Y-143925562D01*
X119344306Y-144071815D01*
X119459215Y-144243789D01*
X119538367Y-144434877D01*
X119578717Y-144637735D01*
X119578717Y-144844567D01*
X119538367Y-145047425D01*
X119459215Y-145238513D01*
X119344306Y-145410487D01*
X119198053Y-145556740D01*
X119026079Y-145671649D01*
X118834991Y-145750801D01*
X118654605Y-145786681D01*
X118632134Y-145791151D01*
X118425300Y-145791151D01*
X118402829Y-145786681D01*
X118222443Y-145750801D01*
X118031355Y-145671649D01*
X117859381Y-145556740D01*
X117713128Y-145410487D01*
X117598219Y-145238513D01*
X117519067Y-145047425D01*
X117478717Y-144844567D01*
X117478717Y-144637735D01*
X117519067Y-144434877D01*
X117598219Y-144243789D01*
X117713128Y-144071815D01*
X117859381Y-143925562D01*
X118031355Y-143810653D01*
X118222443Y-143731501D01*
X118402829Y-143695621D01*
X118425300Y-143691151D01*
X118632134Y-143691151D01*
X118654605Y-143695621D01*
X118654605Y-143695621D01*
G37*
G36*
X116114605Y-143695621D02*
X116294991Y-143731501D01*
X116486079Y-143810653D01*
X116658053Y-143925562D01*
X116804306Y-144071815D01*
X116919215Y-144243789D01*
X116998367Y-144434877D01*
X117038717Y-144637735D01*
X117038717Y-144844567D01*
X116998367Y-145047425D01*
X116919215Y-145238513D01*
X116804306Y-145410487D01*
X116658053Y-145556740D01*
X116486079Y-145671649D01*
X116294991Y-145750801D01*
X116114605Y-145786681D01*
X116092134Y-145791151D01*
X115885300Y-145791151D01*
X115862829Y-145786681D01*
X115682443Y-145750801D01*
X115491355Y-145671649D01*
X115319381Y-145556740D01*
X115173128Y-145410487D01*
X115058219Y-145238513D01*
X114979067Y-145047425D01*
X114938717Y-144844567D01*
X114938717Y-144637735D01*
X114979067Y-144434877D01*
X115058219Y-144243789D01*
X115173128Y-144071815D01*
X115319381Y-143925562D01*
X115491355Y-143810653D01*
X115682443Y-143731501D01*
X115862829Y-143695621D01*
X115885300Y-143691151D01*
X116092134Y-143691151D01*
X116114605Y-143695621D01*
X116114605Y-143695621D01*
G37*
G36*
X56134637Y-143695621D02*
X56315023Y-143731501D01*
X56506111Y-143810653D01*
X56678085Y-143925562D01*
X56824338Y-144071815D01*
X56939247Y-144243789D01*
X57018399Y-144434877D01*
X57058749Y-144637735D01*
X57058749Y-144844567D01*
X57018399Y-145047425D01*
X56939247Y-145238513D01*
X56824338Y-145410487D01*
X56678085Y-145556740D01*
X56506111Y-145671649D01*
X56315023Y-145750801D01*
X56134637Y-145786681D01*
X56112166Y-145791151D01*
X55905332Y-145791151D01*
X55882861Y-145786681D01*
X55702475Y-145750801D01*
X55511387Y-145671649D01*
X55339413Y-145556740D01*
X55193160Y-145410487D01*
X55078251Y-145238513D01*
X54999099Y-145047425D01*
X54958749Y-144844567D01*
X54958749Y-144637735D01*
X54999099Y-144434877D01*
X55078251Y-144243789D01*
X55193160Y-144071815D01*
X55339413Y-143925562D01*
X55511387Y-143810653D01*
X55702475Y-143731501D01*
X55882861Y-143695621D01*
X55905332Y-143691151D01*
X56112166Y-143691151D01*
X56134637Y-143695621D01*
X56134637Y-143695621D01*
G37*
G36*
X58674637Y-143695621D02*
X58855023Y-143731501D01*
X59046111Y-143810653D01*
X59218085Y-143925562D01*
X59364338Y-144071815D01*
X59479247Y-144243789D01*
X59558399Y-144434877D01*
X59598749Y-144637735D01*
X59598749Y-144844567D01*
X59558399Y-145047425D01*
X59479247Y-145238513D01*
X59364338Y-145410487D01*
X59218085Y-145556740D01*
X59046111Y-145671649D01*
X58855023Y-145750801D01*
X58674637Y-145786681D01*
X58652166Y-145791151D01*
X58445332Y-145791151D01*
X58422861Y-145786681D01*
X58242475Y-145750801D01*
X58051387Y-145671649D01*
X57879413Y-145556740D01*
X57733160Y-145410487D01*
X57618251Y-145238513D01*
X57539099Y-145047425D01*
X57498749Y-144844567D01*
X57498749Y-144637735D01*
X57539099Y-144434877D01*
X57618251Y-144243789D01*
X57733160Y-144071815D01*
X57879413Y-143925562D01*
X58051387Y-143810653D01*
X58242475Y-143731501D01*
X58422861Y-143695621D01*
X58445332Y-143691151D01*
X58652166Y-143691151D01*
X58674637Y-143695621D01*
X58674637Y-143695621D01*
G37*
G36*
X61214637Y-143695621D02*
X61395023Y-143731501D01*
X61586111Y-143810653D01*
X61758085Y-143925562D01*
X61904338Y-144071815D01*
X62019247Y-144243789D01*
X62098399Y-144434877D01*
X62138749Y-144637735D01*
X62138749Y-144844567D01*
X62098399Y-145047425D01*
X62019247Y-145238513D01*
X61904338Y-145410487D01*
X61758085Y-145556740D01*
X61586111Y-145671649D01*
X61395023Y-145750801D01*
X61214637Y-145786681D01*
X61192166Y-145791151D01*
X60985332Y-145791151D01*
X60962861Y-145786681D01*
X60782475Y-145750801D01*
X60591387Y-145671649D01*
X60419413Y-145556740D01*
X60273160Y-145410487D01*
X60158251Y-145238513D01*
X60079099Y-145047425D01*
X60038749Y-144844567D01*
X60038749Y-144637735D01*
X60079099Y-144434877D01*
X60158251Y-144243789D01*
X60273160Y-144071815D01*
X60419413Y-143925562D01*
X60591387Y-143810653D01*
X60782475Y-143731501D01*
X60962861Y-143695621D01*
X60985332Y-143691151D01*
X61192166Y-143691151D01*
X61214637Y-143695621D01*
X61214637Y-143695621D01*
G37*
G36*
X126274605Y-143695621D02*
X126454991Y-143731501D01*
X126646079Y-143810653D01*
X126818053Y-143925562D01*
X126964306Y-144071815D01*
X127079215Y-144243789D01*
X127158367Y-144434877D01*
X127198717Y-144637735D01*
X127198717Y-144844567D01*
X127158367Y-145047425D01*
X127079215Y-145238513D01*
X126964306Y-145410487D01*
X126818053Y-145556740D01*
X126646079Y-145671649D01*
X126454991Y-145750801D01*
X126274605Y-145786681D01*
X126252134Y-145791151D01*
X126045300Y-145791151D01*
X126022829Y-145786681D01*
X125842443Y-145750801D01*
X125651355Y-145671649D01*
X125479381Y-145556740D01*
X125333128Y-145410487D01*
X125218219Y-145238513D01*
X125139067Y-145047425D01*
X125098717Y-144844567D01*
X125098717Y-144637735D01*
X125139067Y-144434877D01*
X125218219Y-144243789D01*
X125333128Y-144071815D01*
X125479381Y-143925562D01*
X125651355Y-143810653D01*
X125842443Y-143731501D01*
X126022829Y-143695621D01*
X126045300Y-143691151D01*
X126252134Y-143691151D01*
X126274605Y-143695621D01*
X126274605Y-143695621D01*
G37*
G36*
X68834637Y-143695621D02*
X69015023Y-143731501D01*
X69206111Y-143810653D01*
X69378085Y-143925562D01*
X69524338Y-144071815D01*
X69639247Y-144243789D01*
X69718399Y-144434877D01*
X69758749Y-144637735D01*
X69758749Y-144844567D01*
X69718399Y-145047425D01*
X69639247Y-145238513D01*
X69524338Y-145410487D01*
X69378085Y-145556740D01*
X69206111Y-145671649D01*
X69015023Y-145750801D01*
X68834637Y-145786681D01*
X68812166Y-145791151D01*
X68605332Y-145791151D01*
X68582861Y-145786681D01*
X68402475Y-145750801D01*
X68211387Y-145671649D01*
X68039413Y-145556740D01*
X67893160Y-145410487D01*
X67778251Y-145238513D01*
X67699099Y-145047425D01*
X67658749Y-144844567D01*
X67658749Y-144637735D01*
X67699099Y-144434877D01*
X67778251Y-144243789D01*
X67893160Y-144071815D01*
X68039413Y-143925562D01*
X68211387Y-143810653D01*
X68402475Y-143731501D01*
X68582861Y-143695621D01*
X68605332Y-143691151D01*
X68812166Y-143691151D01*
X68834637Y-143695621D01*
X68834637Y-143695621D01*
G37*
G36*
X71374637Y-143695621D02*
X71555023Y-143731501D01*
X71746111Y-143810653D01*
X71918085Y-143925562D01*
X72064338Y-144071815D01*
X72179247Y-144243789D01*
X72258399Y-144434877D01*
X72298749Y-144637735D01*
X72298749Y-144844567D01*
X72258399Y-145047425D01*
X72179247Y-145238513D01*
X72064338Y-145410487D01*
X71918085Y-145556740D01*
X71746111Y-145671649D01*
X71555023Y-145750801D01*
X71374637Y-145786681D01*
X71352166Y-145791151D01*
X71145332Y-145791151D01*
X71122861Y-145786681D01*
X70942475Y-145750801D01*
X70751387Y-145671649D01*
X70579413Y-145556740D01*
X70433160Y-145410487D01*
X70318251Y-145238513D01*
X70239099Y-145047425D01*
X70198749Y-144844567D01*
X70198749Y-144637735D01*
X70239099Y-144434877D01*
X70318251Y-144243789D01*
X70433160Y-144071815D01*
X70579413Y-143925562D01*
X70751387Y-143810653D01*
X70942475Y-143731501D01*
X71122861Y-143695621D01*
X71145332Y-143691151D01*
X71352166Y-143691151D01*
X71374637Y-143695621D01*
X71374637Y-143695621D01*
G37*
G36*
X73914637Y-143695621D02*
X74095023Y-143731501D01*
X74286111Y-143810653D01*
X74458085Y-143925562D01*
X74604338Y-144071815D01*
X74719247Y-144243789D01*
X74798399Y-144434877D01*
X74838749Y-144637735D01*
X74838749Y-144844567D01*
X74798399Y-145047425D01*
X74719247Y-145238513D01*
X74604338Y-145410487D01*
X74458085Y-145556740D01*
X74286111Y-145671649D01*
X74095023Y-145750801D01*
X73914637Y-145786681D01*
X73892166Y-145791151D01*
X73685332Y-145791151D01*
X73662861Y-145786681D01*
X73482475Y-145750801D01*
X73291387Y-145671649D01*
X73119413Y-145556740D01*
X72973160Y-145410487D01*
X72858251Y-145238513D01*
X72779099Y-145047425D01*
X72738749Y-144844567D01*
X72738749Y-144637735D01*
X72779099Y-144434877D01*
X72858251Y-144243789D01*
X72973160Y-144071815D01*
X73119413Y-143925562D01*
X73291387Y-143810653D01*
X73482475Y-143731501D01*
X73662861Y-143695621D01*
X73685332Y-143691151D01*
X73892166Y-143691151D01*
X73914637Y-143695621D01*
X73914637Y-143695621D01*
G37*
G36*
X76454637Y-143695621D02*
X76635023Y-143731501D01*
X76826111Y-143810653D01*
X76998085Y-143925562D01*
X77144338Y-144071815D01*
X77259247Y-144243789D01*
X77338399Y-144434877D01*
X77378749Y-144637735D01*
X77378749Y-144844567D01*
X77338399Y-145047425D01*
X77259247Y-145238513D01*
X77144338Y-145410487D01*
X76998085Y-145556740D01*
X76826111Y-145671649D01*
X76635023Y-145750801D01*
X76454637Y-145786681D01*
X76432166Y-145791151D01*
X76225332Y-145791151D01*
X76202861Y-145786681D01*
X76022475Y-145750801D01*
X75831387Y-145671649D01*
X75659413Y-145556740D01*
X75513160Y-145410487D01*
X75398251Y-145238513D01*
X75319099Y-145047425D01*
X75278749Y-144844567D01*
X75278749Y-144637735D01*
X75319099Y-144434877D01*
X75398251Y-144243789D01*
X75513160Y-144071815D01*
X75659413Y-143925562D01*
X75831387Y-143810653D01*
X76022475Y-143731501D01*
X76202861Y-143695621D01*
X76225332Y-143691151D01*
X76432166Y-143691151D01*
X76454637Y-143695621D01*
X76454637Y-143695621D01*
G37*
G36*
X78994637Y-143695621D02*
X79175023Y-143731501D01*
X79366111Y-143810653D01*
X79538085Y-143925562D01*
X79684338Y-144071815D01*
X79799247Y-144243789D01*
X79878399Y-144434877D01*
X79918749Y-144637735D01*
X79918749Y-144844567D01*
X79878399Y-145047425D01*
X79799247Y-145238513D01*
X79684338Y-145410487D01*
X79538085Y-145556740D01*
X79366111Y-145671649D01*
X79175023Y-145750801D01*
X78994637Y-145786681D01*
X78972166Y-145791151D01*
X78765332Y-145791151D01*
X78742861Y-145786681D01*
X78562475Y-145750801D01*
X78371387Y-145671649D01*
X78199413Y-145556740D01*
X78053160Y-145410487D01*
X77938251Y-145238513D01*
X77859099Y-145047425D01*
X77818749Y-144844567D01*
X77818749Y-144637735D01*
X77859099Y-144434877D01*
X77938251Y-144243789D01*
X78053160Y-144071815D01*
X78199413Y-143925562D01*
X78371387Y-143810653D01*
X78562475Y-143731501D01*
X78742861Y-143695621D01*
X78765332Y-143691151D01*
X78972166Y-143691151D01*
X78994637Y-143695621D01*
X78994637Y-143695621D01*
G37*
G36*
X63754637Y-143695621D02*
X63935023Y-143731501D01*
X64126111Y-143810653D01*
X64298085Y-143925562D01*
X64444338Y-144071815D01*
X64559247Y-144243789D01*
X64638399Y-144434877D01*
X64678749Y-144637735D01*
X64678749Y-144844567D01*
X64638399Y-145047425D01*
X64559247Y-145238513D01*
X64444338Y-145410487D01*
X64298085Y-145556740D01*
X64126111Y-145671649D01*
X63935023Y-145750801D01*
X63754637Y-145786681D01*
X63732166Y-145791151D01*
X63525332Y-145791151D01*
X63502861Y-145786681D01*
X63322475Y-145750801D01*
X63131387Y-145671649D01*
X62959413Y-145556740D01*
X62813160Y-145410487D01*
X62698251Y-145238513D01*
X62619099Y-145047425D01*
X62578749Y-144844567D01*
X62578749Y-144637735D01*
X62619099Y-144434877D01*
X62698251Y-144243789D01*
X62813160Y-144071815D01*
X62959413Y-143925562D01*
X63131387Y-143810653D01*
X63322475Y-143731501D01*
X63502861Y-143695621D01*
X63525332Y-143691151D01*
X63732166Y-143691151D01*
X63754637Y-143695621D01*
X63754637Y-143695621D01*
G37*
G36*
X39502926Y-141684167D02*
X39848703Y-141827392D01*
X40159899Y-142035327D01*
X40424541Y-142299969D01*
X40632476Y-142611165D01*
X40775701Y-142956942D01*
X40848717Y-143324016D01*
X40848717Y-143698286D01*
X40775701Y-144065360D01*
X40632476Y-144411137D01*
X40424541Y-144722333D01*
X40159899Y-144986975D01*
X39848703Y-145194910D01*
X39502926Y-145338135D01*
X39135852Y-145411151D01*
X38761582Y-145411151D01*
X38394508Y-145338135D01*
X38048731Y-145194910D01*
X37737535Y-144986975D01*
X37472893Y-144722333D01*
X37264958Y-144411137D01*
X37121733Y-144065360D01*
X37048717Y-143698286D01*
X37048717Y-143324016D01*
X37121733Y-142956942D01*
X37264958Y-142611165D01*
X37472893Y-142299969D01*
X37737535Y-142035327D01*
X38048731Y-141827392D01*
X38394508Y-141684167D01*
X38761582Y-141611151D01*
X39135852Y-141611151D01*
X39502926Y-141684167D01*
X39502926Y-141684167D01*
G37*
G36*
X175002926Y-141684167D02*
X175348703Y-141827392D01*
X175659899Y-142035327D01*
X175924541Y-142299969D01*
X176132476Y-142611165D01*
X176275701Y-142956942D01*
X176348717Y-143324016D01*
X176348717Y-143698286D01*
X176275701Y-144065360D01*
X176132476Y-144411137D01*
X175924541Y-144722333D01*
X175659899Y-144986975D01*
X175348703Y-145194910D01*
X175002926Y-145338135D01*
X174635852Y-145411151D01*
X174261582Y-145411151D01*
X173894508Y-145338135D01*
X173548731Y-145194910D01*
X173237535Y-144986975D01*
X172972893Y-144722333D01*
X172764958Y-144411137D01*
X172621733Y-144065360D01*
X172548717Y-143698286D01*
X172548717Y-143324016D01*
X172621733Y-142956942D01*
X172764958Y-142611165D01*
X172972893Y-142299969D01*
X173237535Y-142035327D01*
X173548731Y-141827392D01*
X173894508Y-141684167D01*
X174261582Y-141611151D01*
X174635852Y-141611151D01*
X175002926Y-141684167D01*
X175002926Y-141684167D01*
G37*
G36*
X99513530Y-132630877D02*
X99565010Y-132646493D01*
X99612442Y-132671846D01*
X99654027Y-132705973D01*
X99688154Y-132747558D01*
X99713507Y-132794990D01*
X99729123Y-132846470D01*
X99735000Y-132906140D01*
X99735000Y-133793860D01*
X99729123Y-133853530D01*
X99713507Y-133905010D01*
X99688154Y-133952442D01*
X99654027Y-133994027D01*
X99612442Y-134028154D01*
X99565010Y-134053507D01*
X99513530Y-134069123D01*
X99453860Y-134075000D01*
X98666140Y-134075000D01*
X98606470Y-134069123D01*
X98554990Y-134053507D01*
X98507558Y-134028154D01*
X98465973Y-133994027D01*
X98431846Y-133952442D01*
X98406493Y-133905010D01*
X98390877Y-133853530D01*
X98385000Y-133793860D01*
X98385000Y-132906140D01*
X98390877Y-132846470D01*
X98406493Y-132794990D01*
X98431846Y-132747558D01*
X98465973Y-132705973D01*
X98507558Y-132671846D01*
X98554990Y-132646493D01*
X98606470Y-132630877D01*
X98666140Y-132625000D01*
X99453860Y-132625000D01*
X99513530Y-132630877D01*
X99513530Y-132630877D01*
G37*
G36*
X101291530Y-132630877D02*
X101343010Y-132646493D01*
X101390442Y-132671846D01*
X101432027Y-132705973D01*
X101466154Y-132747558D01*
X101491507Y-132794990D01*
X101507123Y-132846470D01*
X101513000Y-132906140D01*
X101513000Y-133793860D01*
X101507123Y-133853530D01*
X101491507Y-133905010D01*
X101466154Y-133952442D01*
X101432027Y-133994027D01*
X101390442Y-134028154D01*
X101343010Y-134053507D01*
X101291530Y-134069123D01*
X101231860Y-134075000D01*
X100444140Y-134075000D01*
X100384470Y-134069123D01*
X100332990Y-134053507D01*
X100285558Y-134028154D01*
X100243973Y-133994027D01*
X100209846Y-133952442D01*
X100184493Y-133905010D01*
X100168877Y-133853530D01*
X100163000Y-133793860D01*
X100163000Y-132906140D01*
X100168877Y-132846470D01*
X100184493Y-132794990D01*
X100209846Y-132747558D01*
X100243973Y-132705973D01*
X100285558Y-132671846D01*
X100332990Y-132646493D01*
X100384470Y-132630877D01*
X100444140Y-132625000D01*
X101231860Y-132625000D01*
X101291530Y-132630877D01*
X101291530Y-132630877D01*
G37*
G36*
X97735530Y-132630877D02*
X97787010Y-132646493D01*
X97834442Y-132671846D01*
X97876027Y-132705973D01*
X97910154Y-132747558D01*
X97935507Y-132794990D01*
X97951123Y-132846470D01*
X97957000Y-132906140D01*
X97957000Y-133793860D01*
X97951123Y-133853530D01*
X97935507Y-133905010D01*
X97910154Y-133952442D01*
X97876027Y-133994027D01*
X97834442Y-134028154D01*
X97787010Y-134053507D01*
X97735530Y-134069123D01*
X97675860Y-134075000D01*
X96888140Y-134075000D01*
X96828470Y-134069123D01*
X96776990Y-134053507D01*
X96729558Y-134028154D01*
X96687973Y-133994027D01*
X96653846Y-133952442D01*
X96628493Y-133905010D01*
X96612877Y-133853530D01*
X96607000Y-133793860D01*
X96607000Y-132906140D01*
X96612877Y-132846470D01*
X96628493Y-132794990D01*
X96653846Y-132747558D01*
X96687973Y-132705973D01*
X96729558Y-132671846D01*
X96776990Y-132646493D01*
X96828470Y-132630877D01*
X96888140Y-132625000D01*
X97675860Y-132625000D01*
X97735530Y-132630877D01*
X97735530Y-132630877D01*
G37*
G36*
X97735530Y-130880877D02*
X97787010Y-130896493D01*
X97834442Y-130921846D01*
X97876027Y-130955973D01*
X97910154Y-130997558D01*
X97935507Y-131044990D01*
X97951123Y-131096470D01*
X97957000Y-131156140D01*
X97957000Y-132043860D01*
X97951123Y-132103530D01*
X97935507Y-132155010D01*
X97910154Y-132202442D01*
X97876027Y-132244027D01*
X97834442Y-132278154D01*
X97787010Y-132303507D01*
X97735530Y-132319123D01*
X97675860Y-132325000D01*
X96888140Y-132325000D01*
X96828470Y-132319123D01*
X96776990Y-132303507D01*
X96729558Y-132278154D01*
X96687973Y-132244027D01*
X96653846Y-132202442D01*
X96628493Y-132155010D01*
X96612877Y-132103530D01*
X96607000Y-132043860D01*
X96607000Y-131156140D01*
X96612877Y-131096470D01*
X96628493Y-131044990D01*
X96653846Y-130997558D01*
X96687973Y-130955973D01*
X96729558Y-130921846D01*
X96776990Y-130896493D01*
X96828470Y-130880877D01*
X96888140Y-130875000D01*
X97675860Y-130875000D01*
X97735530Y-130880877D01*
X97735530Y-130880877D01*
G37*
G36*
X99513530Y-130880877D02*
X99565010Y-130896493D01*
X99612442Y-130921846D01*
X99654027Y-130955973D01*
X99688154Y-130997558D01*
X99713507Y-131044990D01*
X99729123Y-131096470D01*
X99735000Y-131156140D01*
X99735000Y-132043860D01*
X99729123Y-132103530D01*
X99713507Y-132155010D01*
X99688154Y-132202442D01*
X99654027Y-132244027D01*
X99612442Y-132278154D01*
X99565010Y-132303507D01*
X99513530Y-132319123D01*
X99453860Y-132325000D01*
X98666140Y-132325000D01*
X98606470Y-132319123D01*
X98554990Y-132303507D01*
X98507558Y-132278154D01*
X98465973Y-132244027D01*
X98431846Y-132202442D01*
X98406493Y-132155010D01*
X98390877Y-132103530D01*
X98385000Y-132043860D01*
X98385000Y-131156140D01*
X98390877Y-131096470D01*
X98406493Y-131044990D01*
X98431846Y-130997558D01*
X98465973Y-130955973D01*
X98507558Y-130921846D01*
X98554990Y-130896493D01*
X98606470Y-130880877D01*
X98666140Y-130875000D01*
X99453860Y-130875000D01*
X99513530Y-130880877D01*
X99513530Y-130880877D01*
G37*
G36*
X101291530Y-130880877D02*
X101343010Y-130896493D01*
X101390442Y-130921846D01*
X101432027Y-130955973D01*
X101466154Y-130997558D01*
X101491507Y-131044990D01*
X101507123Y-131096470D01*
X101513000Y-131156140D01*
X101513000Y-132043860D01*
X101507123Y-132103530D01*
X101491507Y-132155010D01*
X101466154Y-132202442D01*
X101432027Y-132244027D01*
X101390442Y-132278154D01*
X101343010Y-132303507D01*
X101291530Y-132319123D01*
X101231860Y-132325000D01*
X100444140Y-132325000D01*
X100384470Y-132319123D01*
X100332990Y-132303507D01*
X100285558Y-132278154D01*
X100243973Y-132244027D01*
X100209846Y-132202442D01*
X100184493Y-132155010D01*
X100168877Y-132103530D01*
X100163000Y-132043860D01*
X100163000Y-131156140D01*
X100168877Y-131096470D01*
X100184493Y-131044990D01*
X100209846Y-130997558D01*
X100243973Y-130955973D01*
X100285558Y-130921846D01*
X100332990Y-130896493D01*
X100384470Y-130880877D01*
X100444140Y-130875000D01*
X101231860Y-130875000D01*
X101291530Y-130880877D01*
X101291530Y-130880877D01*
G37*
G36*
X172835148Y-116211068D02*
X173086305Y-116261026D01*
X173796060Y-116555016D01*
X174426318Y-116976142D01*
X174434825Y-116981826D01*
X174978042Y-117525043D01*
X175404853Y-118163810D01*
X175698842Y-118873564D01*
X175848717Y-119627033D01*
X175848717Y-120395269D01*
X175698842Y-121148738D01*
X175404853Y-121858492D01*
X174978042Y-122497259D01*
X174434825Y-123040476D01*
X174434822Y-123040478D01*
X173796060Y-123467286D01*
X173086305Y-123761276D01*
X172835148Y-123811234D01*
X172332835Y-123911151D01*
X171564599Y-123911151D01*
X171062286Y-123811234D01*
X170811129Y-123761276D01*
X170101374Y-123467286D01*
X169462612Y-123040478D01*
X169462609Y-123040476D01*
X168919392Y-122497259D01*
X168492581Y-121858492D01*
X168198592Y-121148738D01*
X168048717Y-120395269D01*
X168048717Y-119627033D01*
X168198592Y-118873564D01*
X168492581Y-118163810D01*
X168919392Y-117525043D01*
X169462609Y-116981826D01*
X169471116Y-116976142D01*
X170101374Y-116555016D01*
X170811129Y-116261026D01*
X171062286Y-116211068D01*
X171564599Y-116111151D01*
X172332835Y-116111151D01*
X172835148Y-116211068D01*
X172835148Y-116211068D01*
G37*
G36*
X172835148Y-105711068D02*
X173086305Y-105761026D01*
X173796060Y-106055016D01*
X174426318Y-106476142D01*
X174434825Y-106481826D01*
X174978042Y-107025043D01*
X175404853Y-107663810D01*
X175698842Y-108373564D01*
X175848717Y-109127033D01*
X175848717Y-109895269D01*
X175698842Y-110648738D01*
X175404853Y-111358492D01*
X174978042Y-111997259D01*
X174434825Y-112540476D01*
X174434822Y-112540478D01*
X173796060Y-112967286D01*
X173086305Y-113261276D01*
X172835148Y-113311234D01*
X172332835Y-113411151D01*
X171564599Y-113411151D01*
X171062286Y-113311234D01*
X170811129Y-113261276D01*
X170101374Y-112967286D01*
X169462612Y-112540478D01*
X169462609Y-112540476D01*
X168919392Y-111997259D01*
X168492581Y-111358492D01*
X168198592Y-110648738D01*
X168048717Y-109895269D01*
X168048717Y-109127033D01*
X168198592Y-108373564D01*
X168492581Y-107663810D01*
X168919392Y-107025043D01*
X169462609Y-106481826D01*
X169471116Y-106476142D01*
X170101374Y-106055016D01*
X170811129Y-105761026D01*
X171062286Y-105711068D01*
X171564599Y-105611151D01*
X172332835Y-105611151D01*
X172835148Y-105711068D01*
X172835148Y-105711068D01*
G37*
G36*
X132835148Y-96711068D02*
X133086305Y-96761026D01*
X133796060Y-97055016D01*
X134426318Y-97476142D01*
X134434825Y-97481826D01*
X134978042Y-98025043D01*
X134978044Y-98025046D01*
X135319004Y-98535327D01*
X135404853Y-98663810D01*
X135698842Y-99373564D01*
X135848717Y-100127033D01*
X135848717Y-100895269D01*
X135748800Y-101397582D01*
X135698842Y-101648739D01*
X135590147Y-101911151D01*
X135404853Y-102358492D01*
X134978042Y-102997259D01*
X134434825Y-103540476D01*
X134434822Y-103540478D01*
X133796060Y-103967286D01*
X133086305Y-104261276D01*
X132835148Y-104311234D01*
X132332835Y-104411151D01*
X131564599Y-104411151D01*
X131062286Y-104311234D01*
X130811129Y-104261276D01*
X130101374Y-103967286D01*
X129462612Y-103540478D01*
X129462609Y-103540476D01*
X128919392Y-102997259D01*
X128492581Y-102358492D01*
X128307287Y-101911151D01*
X128198592Y-101648739D01*
X128148634Y-101397582D01*
X128048717Y-100895269D01*
X128048717Y-100127033D01*
X128198592Y-99373564D01*
X128492581Y-98663810D01*
X128578431Y-98535327D01*
X128919390Y-98025046D01*
X128919392Y-98025043D01*
X129462609Y-97481826D01*
X129471116Y-97476142D01*
X130101374Y-97055016D01*
X130811129Y-96761026D01*
X131062286Y-96711068D01*
X131564599Y-96611151D01*
X132332835Y-96611151D01*
X132835148Y-96711068D01*
X132835148Y-96711068D01*
G37*
G36*
X99335148Y-96711068D02*
X99586305Y-96761026D01*
X100296060Y-97055016D01*
X100926318Y-97476142D01*
X100934825Y-97481826D01*
X101478042Y-98025043D01*
X101478044Y-98025046D01*
X101819004Y-98535327D01*
X101904853Y-98663810D01*
X102198842Y-99373564D01*
X102348717Y-100127033D01*
X102348717Y-100895269D01*
X102248800Y-101397582D01*
X102198842Y-101648739D01*
X102090147Y-101911151D01*
X101904853Y-102358492D01*
X101478042Y-102997259D01*
X100934825Y-103540476D01*
X100934822Y-103540478D01*
X100296060Y-103967286D01*
X99586305Y-104261276D01*
X99335148Y-104311234D01*
X98832835Y-104411151D01*
X98064599Y-104411151D01*
X97562286Y-104311234D01*
X97311129Y-104261276D01*
X96601374Y-103967286D01*
X95962612Y-103540478D01*
X95962609Y-103540476D01*
X95419392Y-102997259D01*
X94992581Y-102358492D01*
X94807287Y-101911151D01*
X94698592Y-101648739D01*
X94648634Y-101397582D01*
X94548717Y-100895269D01*
X94548717Y-100127033D01*
X94698592Y-99373564D01*
X94992581Y-98663810D01*
X95078431Y-98535327D01*
X95419390Y-98025046D01*
X95419392Y-98025043D01*
X95962609Y-97481826D01*
X95971116Y-97476142D01*
X96601374Y-97055016D01*
X97311129Y-96761026D01*
X97562286Y-96711068D01*
X98064599Y-96611151D01*
X98832835Y-96611151D01*
X99335148Y-96711068D01*
X99335148Y-96711068D01*
G37*
G36*
X73335148Y-96711068D02*
X73586305Y-96761026D01*
X74296060Y-97055016D01*
X74926318Y-97476142D01*
X74934825Y-97481826D01*
X75478042Y-98025043D01*
X75478044Y-98025046D01*
X75819004Y-98535327D01*
X75904853Y-98663810D01*
X76198842Y-99373564D01*
X76348717Y-100127033D01*
X76348717Y-100895269D01*
X76248800Y-101397582D01*
X76198842Y-101648739D01*
X76090147Y-101911151D01*
X75904853Y-102358492D01*
X75478042Y-102997259D01*
X74934825Y-103540476D01*
X74934822Y-103540478D01*
X74296060Y-103967286D01*
X73586305Y-104261276D01*
X73335148Y-104311234D01*
X72832835Y-104411151D01*
X72064599Y-104411151D01*
X71562286Y-104311234D01*
X71311129Y-104261276D01*
X70601374Y-103967286D01*
X69962612Y-103540478D01*
X69962609Y-103540476D01*
X69419392Y-102997259D01*
X68992581Y-102358492D01*
X68807287Y-101911151D01*
X68698592Y-101648739D01*
X68648634Y-101397582D01*
X68548717Y-100895269D01*
X68548717Y-100127033D01*
X68698592Y-99373564D01*
X68992581Y-98663810D01*
X69078431Y-98535327D01*
X69419390Y-98025046D01*
X69419392Y-98025043D01*
X69962609Y-97481826D01*
X69971116Y-97476142D01*
X70601374Y-97055016D01*
X71311129Y-96761026D01*
X71562286Y-96711068D01*
X72064599Y-96611151D01*
X72832835Y-96611151D01*
X73335148Y-96711068D01*
X73335148Y-96711068D01*
G37*
G36*
X63835148Y-96711068D02*
X64086305Y-96761026D01*
X64796060Y-97055016D01*
X65426318Y-97476142D01*
X65434825Y-97481826D01*
X65978042Y-98025043D01*
X65978044Y-98025046D01*
X66319004Y-98535327D01*
X66404853Y-98663810D01*
X66698842Y-99373564D01*
X66848717Y-100127033D01*
X66848717Y-100895269D01*
X66748800Y-101397582D01*
X66698842Y-101648739D01*
X66590147Y-101911151D01*
X66404853Y-102358492D01*
X65978042Y-102997259D01*
X65434825Y-103540476D01*
X65434822Y-103540478D01*
X64796060Y-103967286D01*
X64086305Y-104261276D01*
X63835148Y-104311234D01*
X63332835Y-104411151D01*
X62564599Y-104411151D01*
X62062286Y-104311234D01*
X61811129Y-104261276D01*
X61101374Y-103967286D01*
X60462612Y-103540478D01*
X60462609Y-103540476D01*
X59919392Y-102997259D01*
X59492581Y-102358492D01*
X59307287Y-101911151D01*
X59198592Y-101648739D01*
X59148634Y-101397582D01*
X59048717Y-100895269D01*
X59048717Y-100127033D01*
X59198592Y-99373564D01*
X59492581Y-98663810D01*
X59578431Y-98535327D01*
X59919390Y-98025046D01*
X59919392Y-98025043D01*
X60462609Y-97481826D01*
X60471116Y-97476142D01*
X61101374Y-97055016D01*
X61811129Y-96761026D01*
X62062286Y-96711068D01*
X62564599Y-96611151D01*
X63332835Y-96611151D01*
X63835148Y-96711068D01*
X63835148Y-96711068D01*
G37*
G36*
X54335148Y-96711068D02*
X54586305Y-96761026D01*
X55296060Y-97055016D01*
X55926318Y-97476142D01*
X55934825Y-97481826D01*
X56478042Y-98025043D01*
X56478044Y-98025046D01*
X56819004Y-98535327D01*
X56904853Y-98663810D01*
X57198842Y-99373564D01*
X57348717Y-100127033D01*
X57348717Y-100895269D01*
X57248800Y-101397582D01*
X57198842Y-101648739D01*
X57090147Y-101911151D01*
X56904853Y-102358492D01*
X56478042Y-102997259D01*
X55934825Y-103540476D01*
X55934822Y-103540478D01*
X55296060Y-103967286D01*
X54586305Y-104261276D01*
X54335148Y-104311234D01*
X53832835Y-104411151D01*
X53064599Y-104411151D01*
X52562286Y-104311234D01*
X52311129Y-104261276D01*
X51601374Y-103967286D01*
X50962612Y-103540478D01*
X50962609Y-103540476D01*
X50419392Y-102997259D01*
X49992581Y-102358492D01*
X49807287Y-101911151D01*
X49698592Y-101648739D01*
X49648634Y-101397582D01*
X49548717Y-100895269D01*
X49548717Y-100127033D01*
X49698592Y-99373564D01*
X49992581Y-98663810D01*
X50078431Y-98535327D01*
X50419390Y-98025046D01*
X50419392Y-98025043D01*
X50962609Y-97481826D01*
X50971116Y-97476142D01*
X51601374Y-97055016D01*
X52311129Y-96761026D01*
X52562286Y-96711068D01*
X53064599Y-96611151D01*
X53832835Y-96611151D01*
X54335148Y-96711068D01*
X54335148Y-96711068D01*
G37*
G36*
X110835148Y-96711068D02*
X111086305Y-96761026D01*
X111796060Y-97055016D01*
X112426318Y-97476142D01*
X112434825Y-97481826D01*
X112978042Y-98025043D01*
X112978044Y-98025046D01*
X113319004Y-98535327D01*
X113404853Y-98663810D01*
X113698842Y-99373564D01*
X113848717Y-100127033D01*
X113848717Y-100895269D01*
X113748800Y-101397582D01*
X113698842Y-101648739D01*
X113590147Y-101911151D01*
X113404853Y-102358492D01*
X112978042Y-102997259D01*
X112434825Y-103540476D01*
X112434822Y-103540478D01*
X111796060Y-103967286D01*
X111086305Y-104261276D01*
X110835148Y-104311234D01*
X110332835Y-104411151D01*
X109564599Y-104411151D01*
X109062286Y-104311234D01*
X108811129Y-104261276D01*
X108101374Y-103967286D01*
X107462612Y-103540478D01*
X107462609Y-103540476D01*
X106919392Y-102997259D01*
X106492581Y-102358492D01*
X106307287Y-101911151D01*
X106198592Y-101648739D01*
X106148634Y-101397582D01*
X106048717Y-100895269D01*
X106048717Y-100127033D01*
X106198592Y-99373564D01*
X106492581Y-98663810D01*
X106578431Y-98535327D01*
X106919390Y-98025046D01*
X106919392Y-98025043D01*
X107462609Y-97481826D01*
X107471116Y-97476142D01*
X108101374Y-97055016D01*
X108811129Y-96761026D01*
X109062286Y-96711068D01*
X109564599Y-96611151D01*
X110332835Y-96611151D01*
X110835148Y-96711068D01*
X110835148Y-96711068D01*
G37*
G36*
X142335148Y-96711068D02*
X142586305Y-96761026D01*
X143296060Y-97055016D01*
X143926318Y-97476142D01*
X143934825Y-97481826D01*
X144478042Y-98025043D01*
X144478044Y-98025046D01*
X144819004Y-98535327D01*
X144904853Y-98663810D01*
X145198842Y-99373564D01*
X145348717Y-100127033D01*
X145348717Y-100895269D01*
X145248800Y-101397582D01*
X145198842Y-101648739D01*
X145090147Y-101911151D01*
X144904853Y-102358492D01*
X144478042Y-102997259D01*
X143934825Y-103540476D01*
X143934822Y-103540478D01*
X143296060Y-103967286D01*
X142586305Y-104261276D01*
X142335148Y-104311234D01*
X141832835Y-104411151D01*
X141064599Y-104411151D01*
X140562286Y-104311234D01*
X140311129Y-104261276D01*
X139601374Y-103967286D01*
X138962612Y-103540478D01*
X138962609Y-103540476D01*
X138419392Y-102997259D01*
X137992581Y-102358492D01*
X137807287Y-101911151D01*
X137698592Y-101648739D01*
X137648634Y-101397582D01*
X137548717Y-100895269D01*
X137548717Y-100127033D01*
X137698592Y-99373564D01*
X137992581Y-98663810D01*
X138078431Y-98535327D01*
X138419390Y-98025046D01*
X138419392Y-98025043D01*
X138962609Y-97481826D01*
X138971116Y-97476142D01*
X139601374Y-97055016D01*
X140311129Y-96761026D01*
X140562286Y-96711068D01*
X141064599Y-96611151D01*
X141832835Y-96611151D01*
X142335148Y-96711068D01*
X142335148Y-96711068D01*
G37*
G36*
X151835148Y-96711068D02*
X152086305Y-96761026D01*
X152796060Y-97055016D01*
X153426318Y-97476142D01*
X153434825Y-97481826D01*
X153978042Y-98025043D01*
X153978044Y-98025046D01*
X154319004Y-98535327D01*
X154404853Y-98663810D01*
X154698842Y-99373564D01*
X154848717Y-100127033D01*
X154848717Y-100895269D01*
X154748800Y-101397582D01*
X154698842Y-101648739D01*
X154590147Y-101911151D01*
X154404853Y-102358492D01*
X153978042Y-102997259D01*
X153434825Y-103540476D01*
X153434822Y-103540478D01*
X152796060Y-103967286D01*
X152086305Y-104261276D01*
X151835148Y-104311234D01*
X151332835Y-104411151D01*
X150564599Y-104411151D01*
X150062286Y-104311234D01*
X149811129Y-104261276D01*
X149101374Y-103967286D01*
X148462612Y-103540478D01*
X148462609Y-103540476D01*
X147919392Y-102997259D01*
X147492581Y-102358492D01*
X147307287Y-101911151D01*
X147198592Y-101648739D01*
X147148634Y-101397582D01*
X147048717Y-100895269D01*
X147048717Y-100127033D01*
X147198592Y-99373564D01*
X147492581Y-98663810D01*
X147578431Y-98535327D01*
X147919390Y-98025046D01*
X147919392Y-98025043D01*
X148462609Y-97481826D01*
X148471116Y-97476142D01*
X149101374Y-97055016D01*
X149811129Y-96761026D01*
X150062286Y-96711068D01*
X150564599Y-96611151D01*
X151332835Y-96611151D01*
X151835148Y-96711068D01*
X151835148Y-96711068D01*
G37*
G36*
X175002926Y-98184167D02*
X175348703Y-98327392D01*
X175659899Y-98535327D01*
X175924541Y-98799969D01*
X176132476Y-99111165D01*
X176275701Y-99456942D01*
X176348717Y-99824016D01*
X176348717Y-100198286D01*
X176275701Y-100565360D01*
X176132476Y-100911137D01*
X175924541Y-101222333D01*
X175659899Y-101486975D01*
X175348703Y-101694910D01*
X175002926Y-101838135D01*
X174635852Y-101911151D01*
X174261582Y-101911151D01*
X173894508Y-101838135D01*
X173548731Y-101694910D01*
X173237535Y-101486975D01*
X172972893Y-101222333D01*
X172764958Y-100911137D01*
X172621733Y-100565360D01*
X172548717Y-100198286D01*
X172548717Y-99824016D01*
X172621733Y-99456942D01*
X172764958Y-99111165D01*
X172972893Y-98799969D01*
X173237535Y-98535327D01*
X173548731Y-98327392D01*
X173894508Y-98184167D01*
X174261582Y-98111151D01*
X174635852Y-98111151D01*
X175002926Y-98184167D01*
X175002926Y-98184167D01*
G37*
G36*
X39502926Y-98184167D02*
X39848703Y-98327392D01*
X40159899Y-98535327D01*
X40424541Y-98799969D01*
X40632476Y-99111165D01*
X40775701Y-99456942D01*
X40848717Y-99824016D01*
X40848717Y-100198286D01*
X40775701Y-100565360D01*
X40632476Y-100911137D01*
X40424541Y-101222333D01*
X40159899Y-101486975D01*
X39848703Y-101694910D01*
X39502926Y-101838135D01*
X39135852Y-101911151D01*
X38761582Y-101911151D01*
X38394508Y-101838135D01*
X38048731Y-101694910D01*
X37737535Y-101486975D01*
X37472893Y-101222333D01*
X37264958Y-100911137D01*
X37121733Y-100565360D01*
X37048717Y-100198286D01*
X37048717Y-99824016D01*
X37121733Y-99456942D01*
X37264958Y-99111165D01*
X37472893Y-98799969D01*
X37737535Y-98535327D01*
X38048731Y-98327392D01*
X38394508Y-98184167D01*
X38761582Y-98111151D01*
X39135852Y-98111151D01*
X39502926Y-98184167D01*
X39502926Y-98184167D01*
G37*
G36*
X53900665Y-88884843D02*
X54139229Y-88932296D01*
X54637877Y-89138843D01*
X55083621Y-89436681D01*
X55086651Y-89438705D01*
X55468295Y-89820349D01*
X55468297Y-89820352D01*
X55768157Y-90269123D01*
X55974704Y-90767771D01*
X56080000Y-91297134D01*
X56080000Y-91836866D01*
X55974704Y-92366229D01*
X55768157Y-92864877D01*
X55470319Y-93310621D01*
X55468295Y-93313651D01*
X55086651Y-93695295D01*
X55086648Y-93695297D01*
X54637877Y-93995157D01*
X54139229Y-94201704D01*
X53962775Y-94236803D01*
X53609868Y-94307000D01*
X53070132Y-94307000D01*
X52717225Y-94236803D01*
X52540771Y-94201704D01*
X52042123Y-93995157D01*
X51593352Y-93695297D01*
X51593349Y-93695295D01*
X51211705Y-93313651D01*
X51209681Y-93310621D01*
X50911843Y-92864877D01*
X50705296Y-92366229D01*
X50600000Y-91836866D01*
X50600000Y-91297134D01*
X50705296Y-90767771D01*
X50911843Y-90269123D01*
X51211703Y-89820352D01*
X51211705Y-89820349D01*
X51593349Y-89438705D01*
X51596379Y-89436681D01*
X52042123Y-89138843D01*
X52540771Y-88932296D01*
X52779335Y-88884843D01*
X53070132Y-88827000D01*
X53609868Y-88827000D01*
X53900665Y-88884843D01*
X53900665Y-88884843D01*
G37*
G36*
X161658775Y-88643197D02*
X161835229Y-88678296D01*
X162333877Y-88884843D01*
X162714014Y-89138843D01*
X162782651Y-89184705D01*
X163164295Y-89566349D01*
X163164297Y-89566352D01*
X163464157Y-90015123D01*
X163670704Y-90513771D01*
X163776000Y-91043134D01*
X163776000Y-91582866D01*
X163670704Y-92112229D01*
X163464157Y-92610877D01*
X163294440Y-92864876D01*
X163164295Y-93059651D01*
X162782651Y-93441295D01*
X162782648Y-93441297D01*
X162333877Y-93741157D01*
X161835229Y-93947704D01*
X161658775Y-93982803D01*
X161305868Y-94053000D01*
X160766132Y-94053000D01*
X160413225Y-93982803D01*
X160236771Y-93947704D01*
X159738123Y-93741157D01*
X159289352Y-93441297D01*
X159289349Y-93441295D01*
X158907705Y-93059651D01*
X158777560Y-92864876D01*
X158607843Y-92610877D01*
X158401296Y-92112229D01*
X158296000Y-91582866D01*
X158296000Y-91043134D01*
X158401296Y-90513771D01*
X158607843Y-90015123D01*
X158907703Y-89566352D01*
X158907705Y-89566349D01*
X159289349Y-89184705D01*
X159357986Y-89138843D01*
X159738123Y-88884843D01*
X160236771Y-88678296D01*
X160413225Y-88643197D01*
X160766132Y-88573000D01*
X161305868Y-88573000D01*
X161658775Y-88643197D01*
X161658775Y-88643197D01*
G37*
G36*
X53900665Y-81010843D02*
X54139229Y-81058296D01*
X54637877Y-81264843D01*
X55083621Y-81562681D01*
X55086651Y-81564705D01*
X55468295Y-81946349D01*
X55468297Y-81946352D01*
X55768157Y-82395123D01*
X55974704Y-82893771D01*
X56080000Y-83423134D01*
X56080000Y-83962866D01*
X55974704Y-84492229D01*
X55768157Y-84990877D01*
X55581917Y-85269604D01*
X55468295Y-85439651D01*
X55086651Y-85821295D01*
X55086648Y-85821297D01*
X54637877Y-86121157D01*
X54139229Y-86327704D01*
X53962775Y-86362803D01*
X53609868Y-86433000D01*
X53070132Y-86433000D01*
X52717225Y-86362803D01*
X52540771Y-86327704D01*
X52042123Y-86121157D01*
X51593352Y-85821297D01*
X51593349Y-85821295D01*
X51211705Y-85439651D01*
X51098083Y-85269604D01*
X50911843Y-84990877D01*
X50705296Y-84492229D01*
X50600000Y-83962866D01*
X50600000Y-83423134D01*
X50705296Y-82893771D01*
X50911843Y-82395123D01*
X51211703Y-81946352D01*
X51211705Y-81946349D01*
X51593349Y-81564705D01*
X51596379Y-81562681D01*
X52042123Y-81264843D01*
X52540771Y-81058296D01*
X52779335Y-81010843D01*
X53070132Y-80953000D01*
X53609868Y-80953000D01*
X53900665Y-81010843D01*
X53900665Y-81010843D01*
G37*
G36*
X161658775Y-80769197D02*
X161835229Y-80804296D01*
X162333877Y-81010843D01*
X162714014Y-81264843D01*
X162782651Y-81310705D01*
X163164295Y-81692349D01*
X163164297Y-81692352D01*
X163464157Y-82141123D01*
X163670704Y-82639771D01*
X163776000Y-83169134D01*
X163776000Y-83708866D01*
X163670704Y-84238229D01*
X163464157Y-84736877D01*
X163342197Y-84919402D01*
X163164295Y-85185651D01*
X162782651Y-85567295D01*
X162782648Y-85567297D01*
X162333877Y-85867157D01*
X161835229Y-86073704D01*
X161658775Y-86108803D01*
X161305868Y-86179000D01*
X160766132Y-86179000D01*
X160413225Y-86108803D01*
X160236771Y-86073704D01*
X159738123Y-85867157D01*
X159289352Y-85567297D01*
X159289349Y-85567295D01*
X158907705Y-85185651D01*
X158729803Y-84919402D01*
X158607843Y-84736877D01*
X158401296Y-84238229D01*
X158296000Y-83708866D01*
X158296000Y-83169134D01*
X158401296Y-82639771D01*
X158607843Y-82141123D01*
X158907703Y-81692352D01*
X158907705Y-81692349D01*
X159289349Y-81310705D01*
X159357986Y-81264843D01*
X159738123Y-81010843D01*
X160236771Y-80804296D01*
X160413225Y-80769197D01*
X160766132Y-80699000D01*
X161305868Y-80699000D01*
X161658775Y-80769197D01*
X161658775Y-80769197D01*
G37*
G36*
X89579405Y-79356774D02*
X90161767Y-79597996D01*
X90685884Y-79948200D01*
X91131600Y-80393916D01*
X91481804Y-80918033D01*
X91723026Y-81500395D01*
X91846000Y-82118626D01*
X91846000Y-82748974D01*
X91723026Y-83367205D01*
X91481804Y-83949567D01*
X91131600Y-84473684D01*
X90685884Y-84919400D01*
X90161767Y-85269604D01*
X89579405Y-85510826D01*
X88961174Y-85633800D01*
X88330826Y-85633800D01*
X87712595Y-85510826D01*
X87130233Y-85269604D01*
X86606116Y-84919400D01*
X86160400Y-84473684D01*
X85810196Y-83949567D01*
X85568974Y-83367205D01*
X85446000Y-82748974D01*
X85446000Y-82118626D01*
X85568974Y-81500395D01*
X85810196Y-80918033D01*
X86160400Y-80393916D01*
X86606116Y-79948200D01*
X87130233Y-79597996D01*
X87712595Y-79356774D01*
X88330826Y-79233800D01*
X88961174Y-79233800D01*
X89579405Y-79356774D01*
X89579405Y-79356774D01*
G37*
G36*
X53900665Y-73136843D02*
X54139229Y-73184296D01*
X54637877Y-73390843D01*
X55083621Y-73688681D01*
X55086651Y-73690705D01*
X55468295Y-74072349D01*
X55468297Y-74072352D01*
X55768157Y-74521123D01*
X55974704Y-75019771D01*
X56080000Y-75549134D01*
X56080000Y-76088866D01*
X55974704Y-76618229D01*
X55768157Y-77116877D01*
X55470319Y-77562621D01*
X55468295Y-77565651D01*
X55086651Y-77947295D01*
X55086648Y-77947297D01*
X54637877Y-78247157D01*
X54139229Y-78453704D01*
X53962775Y-78488803D01*
X53609868Y-78559000D01*
X53070132Y-78559000D01*
X52717225Y-78488803D01*
X52540771Y-78453704D01*
X52042123Y-78247157D01*
X51593352Y-77947297D01*
X51593349Y-77947295D01*
X51211705Y-77565651D01*
X51209681Y-77562621D01*
X50911843Y-77116877D01*
X50705296Y-76618229D01*
X50600000Y-76088866D01*
X50600000Y-75549134D01*
X50705296Y-75019771D01*
X50911843Y-74521123D01*
X51211703Y-74072352D01*
X51211705Y-74072349D01*
X51593349Y-73690705D01*
X51596379Y-73688681D01*
X52042123Y-73390843D01*
X52540771Y-73184296D01*
X52779335Y-73136843D01*
X53070132Y-73079000D01*
X53609868Y-73079000D01*
X53900665Y-73136843D01*
X53900665Y-73136843D01*
G37*
G36*
X161658775Y-72895197D02*
X161835229Y-72930296D01*
X162333877Y-73136843D01*
X162606514Y-73319014D01*
X162782651Y-73436705D01*
X163164295Y-73818349D01*
X163164297Y-73818352D01*
X163464157Y-74267123D01*
X163670704Y-74765771D01*
X163776000Y-75295134D01*
X163776000Y-75834866D01*
X163670704Y-76364229D01*
X163464157Y-76862877D01*
X163294440Y-77116876D01*
X163164295Y-77311651D01*
X162782651Y-77693295D01*
X162782648Y-77693297D01*
X162333877Y-77993157D01*
X161835229Y-78199704D01*
X161658775Y-78234803D01*
X161305868Y-78305000D01*
X160766132Y-78305000D01*
X160413225Y-78234803D01*
X160236771Y-78199704D01*
X159738123Y-77993157D01*
X159289352Y-77693297D01*
X159289349Y-77693295D01*
X158907705Y-77311651D01*
X158777560Y-77116876D01*
X158607843Y-76862877D01*
X158401296Y-76364229D01*
X158296000Y-75834866D01*
X158296000Y-75295134D01*
X158401296Y-74765771D01*
X158607843Y-74267123D01*
X158907703Y-73818352D01*
X158907705Y-73818349D01*
X159289349Y-73436705D01*
X159465486Y-73319014D01*
X159738123Y-73136843D01*
X160236771Y-72930296D01*
X160413225Y-72895197D01*
X160766132Y-72825000D01*
X161305868Y-72825000D01*
X161658775Y-72895197D01*
X161658775Y-72895197D01*
G37*
G36*
X72362686Y-72559519D02*
X72544020Y-72614527D01*
X72711147Y-72703858D01*
X72857628Y-72824072D01*
X72977842Y-72970553D01*
X73067173Y-73137680D01*
X73122181Y-73319014D01*
X73140754Y-73507600D01*
X73122181Y-73696186D01*
X73067173Y-73877520D01*
X72977842Y-74044647D01*
X72857628Y-74191128D01*
X72711147Y-74311342D01*
X72544020Y-74400673D01*
X72362686Y-74455681D01*
X72221357Y-74469600D01*
X71110843Y-74469600D01*
X70969514Y-74455681D01*
X70788180Y-74400673D01*
X70621053Y-74311342D01*
X70474572Y-74191128D01*
X70354358Y-74044647D01*
X70265027Y-73877520D01*
X70210019Y-73696186D01*
X70191446Y-73507600D01*
X70210019Y-73319014D01*
X70265027Y-73137680D01*
X70354358Y-72970553D01*
X70474572Y-72824072D01*
X70621053Y-72703858D01*
X70788180Y-72614527D01*
X70969514Y-72559519D01*
X71110843Y-72545600D01*
X72221357Y-72545600D01*
X72362686Y-72559519D01*
X72362686Y-72559519D01*
G37*
G36*
X146200486Y-72559519D02*
X146381820Y-72614527D01*
X146548947Y-72703858D01*
X146695428Y-72824072D01*
X146815642Y-72970553D01*
X146904973Y-73137680D01*
X146959981Y-73319014D01*
X146978554Y-73507600D01*
X146959981Y-73696186D01*
X146904973Y-73877520D01*
X146815642Y-74044647D01*
X146695428Y-74191128D01*
X146548947Y-74311342D01*
X146381820Y-74400673D01*
X146200486Y-74455681D01*
X146059157Y-74469600D01*
X144948643Y-74469600D01*
X144807314Y-74455681D01*
X144625980Y-74400673D01*
X144458853Y-74311342D01*
X144312372Y-74191128D01*
X144192158Y-74044647D01*
X144102827Y-73877520D01*
X144047819Y-73696186D01*
X144029246Y-73507600D01*
X144047819Y-73319014D01*
X144102827Y-73137680D01*
X144192158Y-72970553D01*
X144312372Y-72824072D01*
X144458853Y-72703858D01*
X144625980Y-72614527D01*
X144807314Y-72559519D01*
X144948643Y-72545600D01*
X146059157Y-72545600D01*
X146200486Y-72559519D01*
X146200486Y-72559519D01*
G37*
G36*
X72362686Y-69155919D02*
X72544020Y-69210927D01*
X72711147Y-69300258D01*
X72857628Y-69420472D01*
X72977842Y-69566953D01*
X73067173Y-69734080D01*
X73122181Y-69915414D01*
X73140754Y-70104000D01*
X73122181Y-70292586D01*
X73067173Y-70473920D01*
X72977842Y-70641047D01*
X72857628Y-70787528D01*
X72711147Y-70907742D01*
X72544020Y-70997073D01*
X72362686Y-71052081D01*
X72221357Y-71066000D01*
X71110843Y-71066000D01*
X70969514Y-71052081D01*
X70788180Y-70997073D01*
X70621053Y-70907742D01*
X70474572Y-70787528D01*
X70354358Y-70641047D01*
X70265027Y-70473920D01*
X70210019Y-70292586D01*
X70191446Y-70104000D01*
X70210019Y-69915414D01*
X70265027Y-69734080D01*
X70354358Y-69566953D01*
X70474572Y-69420472D01*
X70621053Y-69300258D01*
X70788180Y-69210927D01*
X70969514Y-69155919D01*
X71110843Y-69142000D01*
X72221357Y-69142000D01*
X72362686Y-69155919D01*
X72362686Y-69155919D01*
G37*
G36*
X146200486Y-69155919D02*
X146381820Y-69210927D01*
X146548947Y-69300258D01*
X146695428Y-69420472D01*
X146815642Y-69566953D01*
X146904973Y-69734080D01*
X146959981Y-69915414D01*
X146978554Y-70104000D01*
X146959981Y-70292586D01*
X146904973Y-70473920D01*
X146815642Y-70641047D01*
X146695428Y-70787528D01*
X146548947Y-70907742D01*
X146381820Y-70997073D01*
X146200486Y-71052081D01*
X146059157Y-71066000D01*
X144948643Y-71066000D01*
X144807314Y-71052081D01*
X144625980Y-70997073D01*
X144458853Y-70907742D01*
X144312372Y-70787528D01*
X144192158Y-70641047D01*
X144102827Y-70473920D01*
X144047819Y-70292586D01*
X144029246Y-70104000D01*
X144047819Y-69915414D01*
X144102827Y-69734080D01*
X144192158Y-69566953D01*
X144312372Y-69420472D01*
X144458853Y-69300258D01*
X144625980Y-69210927D01*
X144807314Y-69155919D01*
X144948643Y-69142000D01*
X146059157Y-69142000D01*
X146200486Y-69155919D01*
X146200486Y-69155919D01*
G37*
G36*
X161658775Y-63878197D02*
X161835229Y-63913296D01*
X162333877Y-64119843D01*
X162684526Y-64354140D01*
X162782651Y-64419705D01*
X163164295Y-64801349D01*
X163164297Y-64801352D01*
X163464157Y-65250123D01*
X163574500Y-65516515D01*
X163670704Y-65748772D01*
X163776000Y-66278132D01*
X163776000Y-66817868D01*
X163735091Y-67023530D01*
X163670704Y-67347229D01*
X163464157Y-67845877D01*
X163166319Y-68291621D01*
X163164295Y-68294651D01*
X162782651Y-68676295D01*
X162782648Y-68676297D01*
X162333877Y-68976157D01*
X161835229Y-69182704D01*
X161693341Y-69210927D01*
X161305868Y-69288000D01*
X160766132Y-69288000D01*
X160378659Y-69210927D01*
X160236771Y-69182704D01*
X159738123Y-68976157D01*
X159289352Y-68676297D01*
X159289349Y-68676295D01*
X158907705Y-68294651D01*
X158905681Y-68291621D01*
X158607843Y-67845877D01*
X158401296Y-67347229D01*
X158336909Y-67023530D01*
X158296000Y-66817868D01*
X158296000Y-66278132D01*
X158401296Y-65748772D01*
X158497500Y-65516515D01*
X158607843Y-65250123D01*
X158907703Y-64801352D01*
X158907705Y-64801349D01*
X159289349Y-64419705D01*
X159387474Y-64354140D01*
X159738123Y-64119843D01*
X160236771Y-63913296D01*
X160413225Y-63878197D01*
X160766132Y-63808000D01*
X161305868Y-63808000D01*
X161658775Y-63878197D01*
X161658775Y-63878197D01*
G37*
G36*
X153784775Y-63878197D02*
X153961229Y-63913296D01*
X154459877Y-64119843D01*
X154810526Y-64354140D01*
X154908651Y-64419705D01*
X155290295Y-64801349D01*
X155290297Y-64801352D01*
X155590157Y-65250123D01*
X155700500Y-65516515D01*
X155796704Y-65748772D01*
X155902000Y-66278132D01*
X155902000Y-66817868D01*
X155861091Y-67023530D01*
X155796704Y-67347229D01*
X155590157Y-67845877D01*
X155292319Y-68291621D01*
X155290295Y-68294651D01*
X154908651Y-68676295D01*
X154908648Y-68676297D01*
X154459877Y-68976157D01*
X153961229Y-69182704D01*
X153819341Y-69210927D01*
X153431868Y-69288000D01*
X152892132Y-69288000D01*
X152504659Y-69210927D01*
X152362771Y-69182704D01*
X151864123Y-68976157D01*
X151415352Y-68676297D01*
X151415349Y-68676295D01*
X151033705Y-68294651D01*
X151031681Y-68291621D01*
X150733843Y-67845877D01*
X150527296Y-67347229D01*
X150462909Y-67023530D01*
X150422000Y-66817868D01*
X150422000Y-66278132D01*
X150527296Y-65748772D01*
X150623500Y-65516515D01*
X150733843Y-65250123D01*
X151033703Y-64801352D01*
X151033705Y-64801349D01*
X151415349Y-64419705D01*
X151513474Y-64354140D01*
X151864123Y-64119843D01*
X152362771Y-63913296D01*
X152539225Y-63878197D01*
X152892132Y-63808000D01*
X153431868Y-63808000D01*
X153784775Y-63878197D01*
X153784775Y-63878197D01*
G37*
G36*
X40839530Y-65828877D02*
X40891010Y-65844493D01*
X40938442Y-65869846D01*
X40980027Y-65903973D01*
X41014154Y-65945558D01*
X41039507Y-65992990D01*
X41055123Y-66044470D01*
X41061000Y-66104140D01*
X41061000Y-66991860D01*
X41055123Y-67051530D01*
X41039507Y-67103010D01*
X41014154Y-67150442D01*
X40980027Y-67192027D01*
X40938442Y-67226154D01*
X40891010Y-67251507D01*
X40839530Y-67267123D01*
X40779860Y-67273000D01*
X39992140Y-67273000D01*
X39932470Y-67267123D01*
X39880990Y-67251507D01*
X39833558Y-67226154D01*
X39791973Y-67192027D01*
X39757846Y-67150442D01*
X39732493Y-67103010D01*
X39716877Y-67051530D01*
X39711000Y-66991860D01*
X39711000Y-66104140D01*
X39716877Y-66044470D01*
X39732493Y-65992990D01*
X39757846Y-65945558D01*
X39791973Y-65903973D01*
X39833558Y-65869846D01*
X39880990Y-65844493D01*
X39932470Y-65828877D01*
X39992140Y-65823000D01*
X40779860Y-65823000D01*
X40839530Y-65828877D01*
X40839530Y-65828877D01*
G37*
G36*
X37283530Y-65828877D02*
X37335010Y-65844493D01*
X37382442Y-65869846D01*
X37424027Y-65903973D01*
X37458154Y-65945558D01*
X37483507Y-65992990D01*
X37499123Y-66044470D01*
X37505000Y-66104140D01*
X37505000Y-66991860D01*
X37499123Y-67051530D01*
X37483507Y-67103010D01*
X37458154Y-67150442D01*
X37424027Y-67192027D01*
X37382442Y-67226154D01*
X37335010Y-67251507D01*
X37283530Y-67267123D01*
X37223860Y-67273000D01*
X36436140Y-67273000D01*
X36376470Y-67267123D01*
X36324990Y-67251507D01*
X36277558Y-67226154D01*
X36235973Y-67192027D01*
X36201846Y-67150442D01*
X36176493Y-67103010D01*
X36160877Y-67051530D01*
X36155000Y-66991860D01*
X36155000Y-66104140D01*
X36160877Y-66044470D01*
X36176493Y-65992990D01*
X36201846Y-65945558D01*
X36235973Y-65903973D01*
X36277558Y-65869846D01*
X36324990Y-65844493D01*
X36376470Y-65828877D01*
X36436140Y-65823000D01*
X37223860Y-65823000D01*
X37283530Y-65828877D01*
X37283530Y-65828877D01*
G37*
G36*
X39061530Y-65828877D02*
X39113010Y-65844493D01*
X39160442Y-65869846D01*
X39202027Y-65903973D01*
X39236154Y-65945558D01*
X39261507Y-65992990D01*
X39277123Y-66044470D01*
X39283000Y-66104140D01*
X39283000Y-66991860D01*
X39277123Y-67051530D01*
X39261507Y-67103010D01*
X39236154Y-67150442D01*
X39202027Y-67192027D01*
X39160442Y-67226154D01*
X39113010Y-67251507D01*
X39061530Y-67267123D01*
X39001860Y-67273000D01*
X38214140Y-67273000D01*
X38154470Y-67267123D01*
X38102990Y-67251507D01*
X38055558Y-67226154D01*
X38013973Y-67192027D01*
X37979846Y-67150442D01*
X37954493Y-67103010D01*
X37938877Y-67051530D01*
X37933000Y-66991860D01*
X37933000Y-66104140D01*
X37938877Y-66044470D01*
X37954493Y-65992990D01*
X37979846Y-65945558D01*
X38013973Y-65903973D01*
X38055558Y-65869846D01*
X38102990Y-65844493D01*
X38154470Y-65828877D01*
X38214140Y-65823000D01*
X39001860Y-65823000D01*
X39061530Y-65828877D01*
X39061530Y-65828877D01*
G37*
G36*
X44395530Y-65800877D02*
X44447010Y-65816493D01*
X44494442Y-65841846D01*
X44536027Y-65875973D01*
X44570154Y-65917558D01*
X44595507Y-65964990D01*
X44611123Y-66016470D01*
X44617000Y-66076140D01*
X44617000Y-66963860D01*
X44611123Y-67023530D01*
X44595507Y-67075010D01*
X44570154Y-67122442D01*
X44536027Y-67164027D01*
X44494442Y-67198154D01*
X44447010Y-67223507D01*
X44395530Y-67239123D01*
X44335860Y-67245000D01*
X43548140Y-67245000D01*
X43488470Y-67239123D01*
X43436990Y-67223507D01*
X43389558Y-67198154D01*
X43347973Y-67164027D01*
X43313846Y-67122442D01*
X43288493Y-67075010D01*
X43272877Y-67023530D01*
X43267000Y-66963860D01*
X43267000Y-66076140D01*
X43272877Y-66016470D01*
X43288493Y-65964990D01*
X43313846Y-65917558D01*
X43347973Y-65875973D01*
X43389558Y-65841846D01*
X43436990Y-65816493D01*
X43488470Y-65800877D01*
X43548140Y-65795000D01*
X44335860Y-65795000D01*
X44395530Y-65800877D01*
X44395530Y-65800877D01*
G37*
G36*
X46173530Y-65800877D02*
X46225010Y-65816493D01*
X46272442Y-65841846D01*
X46314027Y-65875973D01*
X46348154Y-65917558D01*
X46373507Y-65964990D01*
X46389123Y-66016470D01*
X46395000Y-66076140D01*
X46395000Y-66963860D01*
X46389123Y-67023530D01*
X46373507Y-67075010D01*
X46348154Y-67122442D01*
X46314027Y-67164027D01*
X46272442Y-67198154D01*
X46225010Y-67223507D01*
X46173530Y-67239123D01*
X46113860Y-67245000D01*
X45326140Y-67245000D01*
X45266470Y-67239123D01*
X45214990Y-67223507D01*
X45167558Y-67198154D01*
X45125973Y-67164027D01*
X45091846Y-67122442D01*
X45066493Y-67075010D01*
X45050877Y-67023530D01*
X45045000Y-66963860D01*
X45045000Y-66076140D01*
X45050877Y-66016470D01*
X45066493Y-65964990D01*
X45091846Y-65917558D01*
X45125973Y-65875973D01*
X45167558Y-65841846D01*
X45214990Y-65816493D01*
X45266470Y-65800877D01*
X45326140Y-65795000D01*
X46113860Y-65795000D01*
X46173530Y-65800877D01*
X46173530Y-65800877D01*
G37*
G36*
X59635530Y-65800877D02*
X59687010Y-65816493D01*
X59734442Y-65841846D01*
X59776027Y-65875973D01*
X59810154Y-65917558D01*
X59835507Y-65964990D01*
X59851123Y-66016470D01*
X59857000Y-66076140D01*
X59857000Y-66963860D01*
X59851123Y-67023530D01*
X59835507Y-67075010D01*
X59810154Y-67122442D01*
X59776027Y-67164027D01*
X59734442Y-67198154D01*
X59687010Y-67223507D01*
X59635530Y-67239123D01*
X59575860Y-67245000D01*
X58788140Y-67245000D01*
X58728470Y-67239123D01*
X58676990Y-67223507D01*
X58629558Y-67198154D01*
X58587973Y-67164027D01*
X58553846Y-67122442D01*
X58528493Y-67075010D01*
X58512877Y-67023530D01*
X58507000Y-66963860D01*
X58507000Y-66076140D01*
X58512877Y-66016470D01*
X58528493Y-65964990D01*
X58553846Y-65917558D01*
X58587973Y-65875973D01*
X58629558Y-65841846D01*
X58676990Y-65816493D01*
X58728470Y-65800877D01*
X58788140Y-65795000D01*
X59575860Y-65795000D01*
X59635530Y-65800877D01*
X59635530Y-65800877D01*
G37*
G36*
X72081530Y-65800877D02*
X72133010Y-65816493D01*
X72180442Y-65841846D01*
X72222027Y-65875973D01*
X72256154Y-65917558D01*
X72281507Y-65964990D01*
X72297123Y-66016470D01*
X72303000Y-66076140D01*
X72303000Y-66963860D01*
X72297123Y-67023530D01*
X72281507Y-67075010D01*
X72256154Y-67122442D01*
X72222027Y-67164027D01*
X72180442Y-67198154D01*
X72133010Y-67223507D01*
X72081530Y-67239123D01*
X72021860Y-67245000D01*
X71234140Y-67245000D01*
X71174470Y-67239123D01*
X71122990Y-67223507D01*
X71075558Y-67198154D01*
X71033973Y-67164027D01*
X70999846Y-67122442D01*
X70974493Y-67075010D01*
X70958877Y-67023530D01*
X70953000Y-66963860D01*
X70953000Y-66076140D01*
X70958877Y-66016470D01*
X70974493Y-65964990D01*
X70999846Y-65917558D01*
X71033973Y-65875973D01*
X71075558Y-65841846D01*
X71122990Y-65816493D01*
X71174470Y-65800877D01*
X71234140Y-65795000D01*
X72021860Y-65795000D01*
X72081530Y-65800877D01*
X72081530Y-65800877D01*
G37*
G36*
X68525530Y-65800877D02*
X68577010Y-65816493D01*
X68624442Y-65841846D01*
X68666027Y-65875973D01*
X68700154Y-65917558D01*
X68725507Y-65964990D01*
X68741123Y-66016470D01*
X68747000Y-66076140D01*
X68747000Y-66963860D01*
X68741123Y-67023530D01*
X68725507Y-67075010D01*
X68700154Y-67122442D01*
X68666027Y-67164027D01*
X68624442Y-67198154D01*
X68577010Y-67223507D01*
X68525530Y-67239123D01*
X68465860Y-67245000D01*
X67678140Y-67245000D01*
X67618470Y-67239123D01*
X67566990Y-67223507D01*
X67519558Y-67198154D01*
X67477973Y-67164027D01*
X67443846Y-67122442D01*
X67418493Y-67075010D01*
X67402877Y-67023530D01*
X67397000Y-66963860D01*
X67397000Y-66076140D01*
X67402877Y-66016470D01*
X67418493Y-65964990D01*
X67443846Y-65917558D01*
X67477973Y-65875973D01*
X67519558Y-65841846D01*
X67566990Y-65816493D01*
X67618470Y-65800877D01*
X67678140Y-65795000D01*
X68465860Y-65795000D01*
X68525530Y-65800877D01*
X68525530Y-65800877D01*
G37*
G36*
X66747530Y-65800877D02*
X66799010Y-65816493D01*
X66846442Y-65841846D01*
X66888027Y-65875973D01*
X66922154Y-65917558D01*
X66947507Y-65964990D01*
X66963123Y-66016470D01*
X66969000Y-66076140D01*
X66969000Y-66963860D01*
X66963123Y-67023530D01*
X66947507Y-67075010D01*
X66922154Y-67122442D01*
X66888027Y-67164027D01*
X66846442Y-67198154D01*
X66799010Y-67223507D01*
X66747530Y-67239123D01*
X66687860Y-67245000D01*
X65900140Y-67245000D01*
X65840470Y-67239123D01*
X65788990Y-67223507D01*
X65741558Y-67198154D01*
X65699973Y-67164027D01*
X65665846Y-67122442D01*
X65640493Y-67075010D01*
X65624877Y-67023530D01*
X65619000Y-66963860D01*
X65619000Y-66076140D01*
X65624877Y-66016470D01*
X65640493Y-65964990D01*
X65665846Y-65917558D01*
X65699973Y-65875973D01*
X65741558Y-65841846D01*
X65788990Y-65816493D01*
X65840470Y-65800877D01*
X65900140Y-65795000D01*
X66687860Y-65795000D01*
X66747530Y-65800877D01*
X66747530Y-65800877D01*
G37*
G36*
X63191530Y-65800877D02*
X63243010Y-65816493D01*
X63290442Y-65841846D01*
X63332027Y-65875973D01*
X63366154Y-65917558D01*
X63391507Y-65964990D01*
X63407123Y-66016470D01*
X63413000Y-66076140D01*
X63413000Y-66963860D01*
X63407123Y-67023530D01*
X63391507Y-67075010D01*
X63366154Y-67122442D01*
X63332027Y-67164027D01*
X63290442Y-67198154D01*
X63243010Y-67223507D01*
X63191530Y-67239123D01*
X63131860Y-67245000D01*
X62344140Y-67245000D01*
X62284470Y-67239123D01*
X62232990Y-67223507D01*
X62185558Y-67198154D01*
X62143973Y-67164027D01*
X62109846Y-67122442D01*
X62084493Y-67075010D01*
X62068877Y-67023530D01*
X62063000Y-66963860D01*
X62063000Y-66076140D01*
X62068877Y-66016470D01*
X62084493Y-65964990D01*
X62109846Y-65917558D01*
X62143973Y-65875973D01*
X62185558Y-65841846D01*
X62232990Y-65816493D01*
X62284470Y-65800877D01*
X62344140Y-65795000D01*
X63131860Y-65795000D01*
X63191530Y-65800877D01*
X63191530Y-65800877D01*
G37*
G36*
X47951530Y-65800877D02*
X48003010Y-65816493D01*
X48050442Y-65841846D01*
X48092027Y-65875973D01*
X48126154Y-65917558D01*
X48151507Y-65964990D01*
X48167123Y-66016470D01*
X48173000Y-66076140D01*
X48173000Y-66963860D01*
X48167123Y-67023530D01*
X48151507Y-67075010D01*
X48126154Y-67122442D01*
X48092027Y-67164027D01*
X48050442Y-67198154D01*
X48003010Y-67223507D01*
X47951530Y-67239123D01*
X47891860Y-67245000D01*
X47104140Y-67245000D01*
X47044470Y-67239123D01*
X46992990Y-67223507D01*
X46945558Y-67198154D01*
X46903973Y-67164027D01*
X46869846Y-67122442D01*
X46844493Y-67075010D01*
X46828877Y-67023530D01*
X46823000Y-66963860D01*
X46823000Y-66076140D01*
X46828877Y-66016470D01*
X46844493Y-65964990D01*
X46869846Y-65917558D01*
X46903973Y-65875973D01*
X46945558Y-65841846D01*
X46992990Y-65816493D01*
X47044470Y-65800877D01*
X47104140Y-65795000D01*
X47891860Y-65795000D01*
X47951530Y-65800877D01*
X47951530Y-65800877D01*
G37*
G36*
X70303530Y-65800877D02*
X70355010Y-65816493D01*
X70402442Y-65841846D01*
X70444027Y-65875973D01*
X70478154Y-65917558D01*
X70503507Y-65964990D01*
X70519123Y-66016470D01*
X70525000Y-66076140D01*
X70525000Y-66963860D01*
X70519123Y-67023530D01*
X70503507Y-67075010D01*
X70478154Y-67122442D01*
X70444027Y-67164027D01*
X70402442Y-67198154D01*
X70355010Y-67223507D01*
X70303530Y-67239123D01*
X70243860Y-67245000D01*
X69456140Y-67245000D01*
X69396470Y-67239123D01*
X69344990Y-67223507D01*
X69297558Y-67198154D01*
X69255973Y-67164027D01*
X69221846Y-67122442D01*
X69196493Y-67075010D01*
X69180877Y-67023530D01*
X69175000Y-66963860D01*
X69175000Y-66076140D01*
X69180877Y-66016470D01*
X69196493Y-65964990D01*
X69221846Y-65917558D01*
X69255973Y-65875973D01*
X69297558Y-65841846D01*
X69344990Y-65816493D01*
X69396470Y-65800877D01*
X69456140Y-65795000D01*
X70243860Y-65795000D01*
X70303530Y-65800877D01*
X70303530Y-65800877D01*
G37*
G36*
X42617530Y-65800877D02*
X42669010Y-65816493D01*
X42716442Y-65841846D01*
X42758027Y-65875973D01*
X42792154Y-65917558D01*
X42817507Y-65964990D01*
X42833123Y-66016470D01*
X42839000Y-66076140D01*
X42839000Y-66963860D01*
X42833123Y-67023530D01*
X42817507Y-67075010D01*
X42792154Y-67122442D01*
X42758027Y-67164027D01*
X42716442Y-67198154D01*
X42669010Y-67223507D01*
X42617530Y-67239123D01*
X42557860Y-67245000D01*
X41770140Y-67245000D01*
X41710470Y-67239123D01*
X41658990Y-67223507D01*
X41611558Y-67198154D01*
X41569973Y-67164027D01*
X41535846Y-67122442D01*
X41510493Y-67075010D01*
X41494877Y-67023530D01*
X41489000Y-66963860D01*
X41489000Y-66076140D01*
X41494877Y-66016470D01*
X41510493Y-65964990D01*
X41535846Y-65917558D01*
X41569973Y-65875973D01*
X41611558Y-65841846D01*
X41658990Y-65816493D01*
X41710470Y-65800877D01*
X41770140Y-65795000D01*
X42557860Y-65795000D01*
X42617530Y-65800877D01*
X42617530Y-65800877D01*
G37*
G36*
X51507530Y-65800877D02*
X51559010Y-65816493D01*
X51606442Y-65841846D01*
X51648027Y-65875973D01*
X51682154Y-65917558D01*
X51707507Y-65964990D01*
X51723123Y-66016470D01*
X51729000Y-66076140D01*
X51729000Y-66963860D01*
X51723123Y-67023530D01*
X51707507Y-67075010D01*
X51682154Y-67122442D01*
X51648027Y-67164027D01*
X51606442Y-67198154D01*
X51559010Y-67223507D01*
X51507530Y-67239123D01*
X51447860Y-67245000D01*
X50660140Y-67245000D01*
X50600470Y-67239123D01*
X50548990Y-67223507D01*
X50501558Y-67198154D01*
X50459973Y-67164027D01*
X50425846Y-67122442D01*
X50400493Y-67075010D01*
X50384877Y-67023530D01*
X50379000Y-66963860D01*
X50379000Y-66076140D01*
X50384877Y-66016470D01*
X50400493Y-65964990D01*
X50425846Y-65917558D01*
X50459973Y-65875973D01*
X50501558Y-65841846D01*
X50548990Y-65816493D01*
X50600470Y-65800877D01*
X50660140Y-65795000D01*
X51447860Y-65795000D01*
X51507530Y-65800877D01*
X51507530Y-65800877D01*
G37*
G36*
X49729530Y-65800877D02*
X49781010Y-65816493D01*
X49828442Y-65841846D01*
X49870027Y-65875973D01*
X49904154Y-65917558D01*
X49929507Y-65964990D01*
X49945123Y-66016470D01*
X49951000Y-66076140D01*
X49951000Y-66963860D01*
X49945123Y-67023530D01*
X49929507Y-67075010D01*
X49904154Y-67122442D01*
X49870027Y-67164027D01*
X49828442Y-67198154D01*
X49781010Y-67223507D01*
X49729530Y-67239123D01*
X49669860Y-67245000D01*
X48882140Y-67245000D01*
X48822470Y-67239123D01*
X48770990Y-67223507D01*
X48723558Y-67198154D01*
X48681973Y-67164027D01*
X48647846Y-67122442D01*
X48622493Y-67075010D01*
X48606877Y-67023530D01*
X48601000Y-66963860D01*
X48601000Y-66076140D01*
X48606877Y-66016470D01*
X48622493Y-65964990D01*
X48647846Y-65917558D01*
X48681973Y-65875973D01*
X48723558Y-65841846D01*
X48770990Y-65816493D01*
X48822470Y-65800877D01*
X48882140Y-65795000D01*
X49669860Y-65795000D01*
X49729530Y-65800877D01*
X49729530Y-65800877D01*
G37*
G36*
X74113530Y-65800877D02*
X74165010Y-65816493D01*
X74212442Y-65841846D01*
X74254027Y-65875973D01*
X74288154Y-65917558D01*
X74313507Y-65964990D01*
X74329123Y-66016470D01*
X74335000Y-66076140D01*
X74335000Y-66963860D01*
X74329123Y-67023530D01*
X74313507Y-67075010D01*
X74288154Y-67122442D01*
X74254027Y-67164027D01*
X74212442Y-67198154D01*
X74165010Y-67223507D01*
X74113530Y-67239123D01*
X74053860Y-67245000D01*
X73266140Y-67245000D01*
X73206470Y-67239123D01*
X73154990Y-67223507D01*
X73107558Y-67198154D01*
X73065973Y-67164027D01*
X73031846Y-67122442D01*
X73006493Y-67075010D01*
X72990877Y-67023530D01*
X72985000Y-66963860D01*
X72985000Y-66076140D01*
X72990877Y-66016470D01*
X73006493Y-65964990D01*
X73031846Y-65917558D01*
X73065973Y-65875973D01*
X73107558Y-65841846D01*
X73154990Y-65816493D01*
X73206470Y-65800877D01*
X73266140Y-65795000D01*
X74053860Y-65795000D01*
X74113530Y-65800877D01*
X74113530Y-65800877D01*
G37*
G36*
X53793530Y-65800877D02*
X53845010Y-65816493D01*
X53892442Y-65841846D01*
X53934027Y-65875973D01*
X53968154Y-65917558D01*
X53993507Y-65964990D01*
X54009123Y-66016470D01*
X54015000Y-66076140D01*
X54015000Y-66963860D01*
X54009123Y-67023530D01*
X53993507Y-67075010D01*
X53968154Y-67122442D01*
X53934027Y-67164027D01*
X53892442Y-67198154D01*
X53845010Y-67223507D01*
X53793530Y-67239123D01*
X53733860Y-67245000D01*
X52946140Y-67245000D01*
X52886470Y-67239123D01*
X52834990Y-67223507D01*
X52787558Y-67198154D01*
X52745973Y-67164027D01*
X52711846Y-67122442D01*
X52686493Y-67075010D01*
X52670877Y-67023530D01*
X52665000Y-66963860D01*
X52665000Y-66076140D01*
X52670877Y-66016470D01*
X52686493Y-65964990D01*
X52711846Y-65917558D01*
X52745973Y-65875973D01*
X52787558Y-65841846D01*
X52834990Y-65816493D01*
X52886470Y-65800877D01*
X52946140Y-65795000D01*
X53733860Y-65795000D01*
X53793530Y-65800877D01*
X53793530Y-65800877D01*
G37*
G36*
X55571530Y-65800877D02*
X55623010Y-65816493D01*
X55670442Y-65841846D01*
X55712027Y-65875973D01*
X55746154Y-65917558D01*
X55771507Y-65964990D01*
X55787123Y-66016470D01*
X55793000Y-66076140D01*
X55793000Y-66963860D01*
X55787123Y-67023530D01*
X55771507Y-67075010D01*
X55746154Y-67122442D01*
X55712027Y-67164027D01*
X55670442Y-67198154D01*
X55623010Y-67223507D01*
X55571530Y-67239123D01*
X55511860Y-67245000D01*
X54724140Y-67245000D01*
X54664470Y-67239123D01*
X54612990Y-67223507D01*
X54565558Y-67198154D01*
X54523973Y-67164027D01*
X54489846Y-67122442D01*
X54464493Y-67075010D01*
X54448877Y-67023530D01*
X54443000Y-66963860D01*
X54443000Y-66076140D01*
X54448877Y-66016470D01*
X54464493Y-65964990D01*
X54489846Y-65917558D01*
X54523973Y-65875973D01*
X54565558Y-65841846D01*
X54612990Y-65816493D01*
X54664470Y-65800877D01*
X54724140Y-65795000D01*
X55511860Y-65795000D01*
X55571530Y-65800877D01*
X55571530Y-65800877D01*
G37*
G36*
X57349530Y-65800877D02*
X57401010Y-65816493D01*
X57448442Y-65841846D01*
X57490027Y-65875973D01*
X57524154Y-65917558D01*
X57549507Y-65964990D01*
X57565123Y-66016470D01*
X57571000Y-66076140D01*
X57571000Y-66963860D01*
X57565123Y-67023530D01*
X57549507Y-67075010D01*
X57524154Y-67122442D01*
X57490027Y-67164027D01*
X57448442Y-67198154D01*
X57401010Y-67223507D01*
X57349530Y-67239123D01*
X57289860Y-67245000D01*
X56502140Y-67245000D01*
X56442470Y-67239123D01*
X56390990Y-67223507D01*
X56343558Y-67198154D01*
X56301973Y-67164027D01*
X56267846Y-67122442D01*
X56242493Y-67075010D01*
X56226877Y-67023530D01*
X56221000Y-66963860D01*
X56221000Y-66076140D01*
X56226877Y-66016470D01*
X56242493Y-65964990D01*
X56267846Y-65917558D01*
X56301973Y-65875973D01*
X56343558Y-65841846D01*
X56390990Y-65816493D01*
X56442470Y-65800877D01*
X56502140Y-65795000D01*
X57289860Y-65795000D01*
X57349530Y-65800877D01*
X57349530Y-65800877D01*
G37*
G36*
X61413530Y-65800877D02*
X61465010Y-65816493D01*
X61512442Y-65841846D01*
X61554027Y-65875973D01*
X61588154Y-65917558D01*
X61613507Y-65964990D01*
X61629123Y-66016470D01*
X61635000Y-66076140D01*
X61635000Y-66963860D01*
X61629123Y-67023530D01*
X61613507Y-67075010D01*
X61588154Y-67122442D01*
X61554027Y-67164027D01*
X61512442Y-67198154D01*
X61465010Y-67223507D01*
X61413530Y-67239123D01*
X61353860Y-67245000D01*
X60566140Y-67245000D01*
X60506470Y-67239123D01*
X60454990Y-67223507D01*
X60407558Y-67198154D01*
X60365973Y-67164027D01*
X60331846Y-67122442D01*
X60306493Y-67075010D01*
X60290877Y-67023530D01*
X60285000Y-66963860D01*
X60285000Y-66076140D01*
X60290877Y-66016470D01*
X60306493Y-65964990D01*
X60331846Y-65917558D01*
X60365973Y-65875973D01*
X60407558Y-65841846D01*
X60454990Y-65816493D01*
X60506470Y-65800877D01*
X60566140Y-65795000D01*
X61353860Y-65795000D01*
X61413530Y-65800877D01*
X61413530Y-65800877D01*
G37*
G36*
X64969530Y-65800877D02*
X65021010Y-65816493D01*
X65068442Y-65841846D01*
X65110027Y-65875973D01*
X65144154Y-65917558D01*
X65169507Y-65964990D01*
X65185123Y-66016470D01*
X65191000Y-66076140D01*
X65191000Y-66963860D01*
X65185123Y-67023530D01*
X65169507Y-67075010D01*
X65144154Y-67122442D01*
X65110027Y-67164027D01*
X65068442Y-67198154D01*
X65021010Y-67223507D01*
X64969530Y-67239123D01*
X64909860Y-67245000D01*
X64122140Y-67245000D01*
X64062470Y-67239123D01*
X64010990Y-67223507D01*
X63963558Y-67198154D01*
X63921973Y-67164027D01*
X63887846Y-67122442D01*
X63862493Y-67075010D01*
X63846877Y-67023530D01*
X63841000Y-66963860D01*
X63841000Y-66076140D01*
X63846877Y-66016470D01*
X63862493Y-65964990D01*
X63887846Y-65917558D01*
X63921973Y-65875973D01*
X63963558Y-65841846D01*
X64010990Y-65816493D01*
X64062470Y-65800877D01*
X64122140Y-65795000D01*
X64909860Y-65795000D01*
X64969530Y-65800877D01*
X64969530Y-65800877D01*
G37*
G36*
X39061530Y-64078877D02*
X39113010Y-64094493D01*
X39160442Y-64119846D01*
X39202027Y-64153973D01*
X39236154Y-64195558D01*
X39261507Y-64242990D01*
X39277123Y-64294470D01*
X39283000Y-64354140D01*
X39283000Y-65241860D01*
X39277123Y-65301530D01*
X39261507Y-65353010D01*
X39236154Y-65400442D01*
X39202027Y-65442027D01*
X39160442Y-65476154D01*
X39113010Y-65501507D01*
X39061530Y-65517123D01*
X39001860Y-65523000D01*
X38214140Y-65523000D01*
X38154470Y-65517123D01*
X38102990Y-65501507D01*
X38055558Y-65476154D01*
X38013973Y-65442027D01*
X37979846Y-65400442D01*
X37954493Y-65353010D01*
X37938877Y-65301530D01*
X37933000Y-65241860D01*
X37933000Y-64354140D01*
X37938877Y-64294470D01*
X37954493Y-64242990D01*
X37979846Y-64195558D01*
X38013973Y-64153973D01*
X38055558Y-64119846D01*
X38102990Y-64094493D01*
X38154470Y-64078877D01*
X38214140Y-64073000D01*
X39001860Y-64073000D01*
X39061530Y-64078877D01*
X39061530Y-64078877D01*
G37*
G36*
X37283530Y-64078877D02*
X37335010Y-64094493D01*
X37382442Y-64119846D01*
X37424027Y-64153973D01*
X37458154Y-64195558D01*
X37483507Y-64242990D01*
X37499123Y-64294470D01*
X37505000Y-64354140D01*
X37505000Y-65241860D01*
X37499123Y-65301530D01*
X37483507Y-65353010D01*
X37458154Y-65400442D01*
X37424027Y-65442027D01*
X37382442Y-65476154D01*
X37335010Y-65501507D01*
X37283530Y-65517123D01*
X37223860Y-65523000D01*
X36436140Y-65523000D01*
X36376470Y-65517123D01*
X36324990Y-65501507D01*
X36277558Y-65476154D01*
X36235973Y-65442027D01*
X36201846Y-65400442D01*
X36176493Y-65353010D01*
X36160877Y-65301530D01*
X36155000Y-65241860D01*
X36155000Y-64354140D01*
X36160877Y-64294470D01*
X36176493Y-64242990D01*
X36201846Y-64195558D01*
X36235973Y-64153973D01*
X36277558Y-64119846D01*
X36324990Y-64094493D01*
X36376470Y-64078877D01*
X36436140Y-64073000D01*
X37223860Y-64073000D01*
X37283530Y-64078877D01*
X37283530Y-64078877D01*
G37*
G36*
X40839530Y-64078877D02*
X40891010Y-64094493D01*
X40938442Y-64119846D01*
X40980027Y-64153973D01*
X41014154Y-64195558D01*
X41039507Y-64242990D01*
X41055123Y-64294470D01*
X41061000Y-64354140D01*
X41061000Y-65241860D01*
X41055123Y-65301530D01*
X41039507Y-65353010D01*
X41014154Y-65400442D01*
X40980027Y-65442027D01*
X40938442Y-65476154D01*
X40891010Y-65501507D01*
X40839530Y-65517123D01*
X40779860Y-65523000D01*
X39992140Y-65523000D01*
X39932470Y-65517123D01*
X39880990Y-65501507D01*
X39833558Y-65476154D01*
X39791973Y-65442027D01*
X39757846Y-65400442D01*
X39732493Y-65353010D01*
X39716877Y-65301530D01*
X39711000Y-65241860D01*
X39711000Y-64354140D01*
X39716877Y-64294470D01*
X39732493Y-64242990D01*
X39757846Y-64195558D01*
X39791973Y-64153973D01*
X39833558Y-64119846D01*
X39880990Y-64094493D01*
X39932470Y-64078877D01*
X39992140Y-64073000D01*
X40779860Y-64073000D01*
X40839530Y-64078877D01*
X40839530Y-64078877D01*
G37*
G36*
X51507530Y-64050877D02*
X51559010Y-64066493D01*
X51606442Y-64091846D01*
X51648027Y-64125973D01*
X51682154Y-64167558D01*
X51707507Y-64214990D01*
X51723123Y-64266470D01*
X51729000Y-64326140D01*
X51729000Y-65213860D01*
X51723123Y-65273530D01*
X51707507Y-65325010D01*
X51682154Y-65372442D01*
X51648027Y-65414027D01*
X51606442Y-65448154D01*
X51559010Y-65473507D01*
X51507530Y-65489123D01*
X51447860Y-65495000D01*
X50660140Y-65495000D01*
X50600470Y-65489123D01*
X50548990Y-65473507D01*
X50501558Y-65448154D01*
X50459973Y-65414027D01*
X50425846Y-65372442D01*
X50400493Y-65325010D01*
X50384877Y-65273530D01*
X50379000Y-65213860D01*
X50379000Y-64326140D01*
X50384877Y-64266470D01*
X50400493Y-64214990D01*
X50425846Y-64167558D01*
X50459973Y-64125973D01*
X50501558Y-64091846D01*
X50548990Y-64066493D01*
X50600470Y-64050877D01*
X50660140Y-64045000D01*
X51447860Y-64045000D01*
X51507530Y-64050877D01*
X51507530Y-64050877D01*
G37*
G36*
X64969530Y-64050877D02*
X65021010Y-64066493D01*
X65068442Y-64091846D01*
X65110027Y-64125973D01*
X65144154Y-64167558D01*
X65169507Y-64214990D01*
X65185123Y-64266470D01*
X65191000Y-64326140D01*
X65191000Y-65213860D01*
X65185123Y-65273530D01*
X65169507Y-65325010D01*
X65144154Y-65372442D01*
X65110027Y-65414027D01*
X65068442Y-65448154D01*
X65021010Y-65473507D01*
X64969530Y-65489123D01*
X64909860Y-65495000D01*
X64122140Y-65495000D01*
X64062470Y-65489123D01*
X64010990Y-65473507D01*
X63963558Y-65448154D01*
X63921973Y-65414027D01*
X63887846Y-65372442D01*
X63862493Y-65325010D01*
X63846877Y-65273530D01*
X63841000Y-65213860D01*
X63841000Y-64326140D01*
X63846877Y-64266470D01*
X63862493Y-64214990D01*
X63887846Y-64167558D01*
X63921973Y-64125973D01*
X63963558Y-64091846D01*
X64010990Y-64066493D01*
X64062470Y-64050877D01*
X64122140Y-64045000D01*
X64909860Y-64045000D01*
X64969530Y-64050877D01*
X64969530Y-64050877D01*
G37*
G36*
X70303530Y-64050877D02*
X70355010Y-64066493D01*
X70402442Y-64091846D01*
X70444027Y-64125973D01*
X70478154Y-64167558D01*
X70503507Y-64214990D01*
X70519123Y-64266470D01*
X70525000Y-64326140D01*
X70525000Y-65213860D01*
X70519123Y-65273530D01*
X70503507Y-65325010D01*
X70478154Y-65372442D01*
X70444027Y-65414027D01*
X70402442Y-65448154D01*
X70355010Y-65473507D01*
X70303530Y-65489123D01*
X70243860Y-65495000D01*
X69456140Y-65495000D01*
X69396470Y-65489123D01*
X69344990Y-65473507D01*
X69297558Y-65448154D01*
X69255973Y-65414027D01*
X69221846Y-65372442D01*
X69196493Y-65325010D01*
X69180877Y-65273530D01*
X69175000Y-65213860D01*
X69175000Y-64326140D01*
X69180877Y-64266470D01*
X69196493Y-64214990D01*
X69221846Y-64167558D01*
X69255973Y-64125973D01*
X69297558Y-64091846D01*
X69344990Y-64066493D01*
X69396470Y-64050877D01*
X69456140Y-64045000D01*
X70243860Y-64045000D01*
X70303530Y-64050877D01*
X70303530Y-64050877D01*
G37*
G36*
X59635530Y-64050877D02*
X59687010Y-64066493D01*
X59734442Y-64091846D01*
X59776027Y-64125973D01*
X59810154Y-64167558D01*
X59835507Y-64214990D01*
X59851123Y-64266470D01*
X59857000Y-64326140D01*
X59857000Y-65213860D01*
X59851123Y-65273530D01*
X59835507Y-65325010D01*
X59810154Y-65372442D01*
X59776027Y-65414027D01*
X59734442Y-65448154D01*
X59687010Y-65473507D01*
X59635530Y-65489123D01*
X59575860Y-65495000D01*
X58788140Y-65495000D01*
X58728470Y-65489123D01*
X58676990Y-65473507D01*
X58629558Y-65448154D01*
X58587973Y-65414027D01*
X58553846Y-65372442D01*
X58528493Y-65325010D01*
X58512877Y-65273530D01*
X58507000Y-65213860D01*
X58507000Y-64326140D01*
X58512877Y-64266470D01*
X58528493Y-64214990D01*
X58553846Y-64167558D01*
X58587973Y-64125973D01*
X58629558Y-64091846D01*
X58676990Y-64066493D01*
X58728470Y-64050877D01*
X58788140Y-64045000D01*
X59575860Y-64045000D01*
X59635530Y-64050877D01*
X59635530Y-64050877D01*
G37*
G36*
X53793530Y-64050877D02*
X53845010Y-64066493D01*
X53892442Y-64091846D01*
X53934027Y-64125973D01*
X53968154Y-64167558D01*
X53993507Y-64214990D01*
X54009123Y-64266470D01*
X54015000Y-64326140D01*
X54015000Y-65213860D01*
X54009123Y-65273530D01*
X53993507Y-65325010D01*
X53968154Y-65372442D01*
X53934027Y-65414027D01*
X53892442Y-65448154D01*
X53845010Y-65473507D01*
X53793530Y-65489123D01*
X53733860Y-65495000D01*
X52946140Y-65495000D01*
X52886470Y-65489123D01*
X52834990Y-65473507D01*
X52787558Y-65448154D01*
X52745973Y-65414027D01*
X52711846Y-65372442D01*
X52686493Y-65325010D01*
X52670877Y-65273530D01*
X52665000Y-65213860D01*
X52665000Y-64326140D01*
X52670877Y-64266470D01*
X52686493Y-64214990D01*
X52711846Y-64167558D01*
X52745973Y-64125973D01*
X52787558Y-64091846D01*
X52834990Y-64066493D01*
X52886470Y-64050877D01*
X52946140Y-64045000D01*
X53733860Y-64045000D01*
X53793530Y-64050877D01*
X53793530Y-64050877D01*
G37*
G36*
X61413530Y-64050877D02*
X61465010Y-64066493D01*
X61512442Y-64091846D01*
X61554027Y-64125973D01*
X61588154Y-64167558D01*
X61613507Y-64214990D01*
X61629123Y-64266470D01*
X61635000Y-64326140D01*
X61635000Y-65213860D01*
X61629123Y-65273530D01*
X61613507Y-65325010D01*
X61588154Y-65372442D01*
X61554027Y-65414027D01*
X61512442Y-65448154D01*
X61465010Y-65473507D01*
X61413530Y-65489123D01*
X61353860Y-65495000D01*
X60566140Y-65495000D01*
X60506470Y-65489123D01*
X60454990Y-65473507D01*
X60407558Y-65448154D01*
X60365973Y-65414027D01*
X60331846Y-65372442D01*
X60306493Y-65325010D01*
X60290877Y-65273530D01*
X60285000Y-65213860D01*
X60285000Y-64326140D01*
X60290877Y-64266470D01*
X60306493Y-64214990D01*
X60331846Y-64167558D01*
X60365973Y-64125973D01*
X60407558Y-64091846D01*
X60454990Y-64066493D01*
X60506470Y-64050877D01*
X60566140Y-64045000D01*
X61353860Y-64045000D01*
X61413530Y-64050877D01*
X61413530Y-64050877D01*
G37*
G36*
X57349530Y-64050877D02*
X57401010Y-64066493D01*
X57448442Y-64091846D01*
X57490027Y-64125973D01*
X57524154Y-64167558D01*
X57549507Y-64214990D01*
X57565123Y-64266470D01*
X57571000Y-64326140D01*
X57571000Y-65213860D01*
X57565123Y-65273530D01*
X57549507Y-65325010D01*
X57524154Y-65372442D01*
X57490027Y-65414027D01*
X57448442Y-65448154D01*
X57401010Y-65473507D01*
X57349530Y-65489123D01*
X57289860Y-65495000D01*
X56502140Y-65495000D01*
X56442470Y-65489123D01*
X56390990Y-65473507D01*
X56343558Y-65448154D01*
X56301973Y-65414027D01*
X56267846Y-65372442D01*
X56242493Y-65325010D01*
X56226877Y-65273530D01*
X56221000Y-65213860D01*
X56221000Y-64326140D01*
X56226877Y-64266470D01*
X56242493Y-64214990D01*
X56267846Y-64167558D01*
X56301973Y-64125973D01*
X56343558Y-64091846D01*
X56390990Y-64066493D01*
X56442470Y-64050877D01*
X56502140Y-64045000D01*
X57289860Y-64045000D01*
X57349530Y-64050877D01*
X57349530Y-64050877D01*
G37*
G36*
X66747530Y-64050877D02*
X66799010Y-64066493D01*
X66846442Y-64091846D01*
X66888027Y-64125973D01*
X66922154Y-64167558D01*
X66947507Y-64214990D01*
X66963123Y-64266470D01*
X66969000Y-64326140D01*
X66969000Y-65213860D01*
X66963123Y-65273530D01*
X66947507Y-65325010D01*
X66922154Y-65372442D01*
X66888027Y-65414027D01*
X66846442Y-65448154D01*
X66799010Y-65473507D01*
X66747530Y-65489123D01*
X66687860Y-65495000D01*
X65900140Y-65495000D01*
X65840470Y-65489123D01*
X65788990Y-65473507D01*
X65741558Y-65448154D01*
X65699973Y-65414027D01*
X65665846Y-65372442D01*
X65640493Y-65325010D01*
X65624877Y-65273530D01*
X65619000Y-65213860D01*
X65619000Y-64326140D01*
X65624877Y-64266470D01*
X65640493Y-64214990D01*
X65665846Y-64167558D01*
X65699973Y-64125973D01*
X65741558Y-64091846D01*
X65788990Y-64066493D01*
X65840470Y-64050877D01*
X65900140Y-64045000D01*
X66687860Y-64045000D01*
X66747530Y-64050877D01*
X66747530Y-64050877D01*
G37*
G36*
X55571530Y-64050877D02*
X55623010Y-64066493D01*
X55670442Y-64091846D01*
X55712027Y-64125973D01*
X55746154Y-64167558D01*
X55771507Y-64214990D01*
X55787123Y-64266470D01*
X55793000Y-64326140D01*
X55793000Y-65213860D01*
X55787123Y-65273530D01*
X55771507Y-65325010D01*
X55746154Y-65372442D01*
X55712027Y-65414027D01*
X55670442Y-65448154D01*
X55623010Y-65473507D01*
X55571530Y-65489123D01*
X55511860Y-65495000D01*
X54724140Y-65495000D01*
X54664470Y-65489123D01*
X54612990Y-65473507D01*
X54565558Y-65448154D01*
X54523973Y-65414027D01*
X54489846Y-65372442D01*
X54464493Y-65325010D01*
X54448877Y-65273530D01*
X54443000Y-65213860D01*
X54443000Y-64326140D01*
X54448877Y-64266470D01*
X54464493Y-64214990D01*
X54489846Y-64167558D01*
X54523973Y-64125973D01*
X54565558Y-64091846D01*
X54612990Y-64066493D01*
X54664470Y-64050877D01*
X54724140Y-64045000D01*
X55511860Y-64045000D01*
X55571530Y-64050877D01*
X55571530Y-64050877D01*
G37*
G36*
X68525530Y-64050877D02*
X68577010Y-64066493D01*
X68624442Y-64091846D01*
X68666027Y-64125973D01*
X68700154Y-64167558D01*
X68725507Y-64214990D01*
X68741123Y-64266470D01*
X68747000Y-64326140D01*
X68747000Y-65213860D01*
X68741123Y-65273530D01*
X68725507Y-65325010D01*
X68700154Y-65372442D01*
X68666027Y-65414027D01*
X68624442Y-65448154D01*
X68577010Y-65473507D01*
X68525530Y-65489123D01*
X68465860Y-65495000D01*
X67678140Y-65495000D01*
X67618470Y-65489123D01*
X67566990Y-65473507D01*
X67519558Y-65448154D01*
X67477973Y-65414027D01*
X67443846Y-65372442D01*
X67418493Y-65325010D01*
X67402877Y-65273530D01*
X67397000Y-65213860D01*
X67397000Y-64326140D01*
X67402877Y-64266470D01*
X67418493Y-64214990D01*
X67443846Y-64167558D01*
X67477973Y-64125973D01*
X67519558Y-64091846D01*
X67566990Y-64066493D01*
X67618470Y-64050877D01*
X67678140Y-64045000D01*
X68465860Y-64045000D01*
X68525530Y-64050877D01*
X68525530Y-64050877D01*
G37*
G36*
X63191530Y-64050877D02*
X63243010Y-64066493D01*
X63290442Y-64091846D01*
X63332027Y-64125973D01*
X63366154Y-64167558D01*
X63391507Y-64214990D01*
X63407123Y-64266470D01*
X63413000Y-64326140D01*
X63413000Y-65213860D01*
X63407123Y-65273530D01*
X63391507Y-65325010D01*
X63366154Y-65372442D01*
X63332027Y-65414027D01*
X63290442Y-65448154D01*
X63243010Y-65473507D01*
X63191530Y-65489123D01*
X63131860Y-65495000D01*
X62344140Y-65495000D01*
X62284470Y-65489123D01*
X62232990Y-65473507D01*
X62185558Y-65448154D01*
X62143973Y-65414027D01*
X62109846Y-65372442D01*
X62084493Y-65325010D01*
X62068877Y-65273530D01*
X62063000Y-65213860D01*
X62063000Y-64326140D01*
X62068877Y-64266470D01*
X62084493Y-64214990D01*
X62109846Y-64167558D01*
X62143973Y-64125973D01*
X62185558Y-64091846D01*
X62232990Y-64066493D01*
X62284470Y-64050877D01*
X62344140Y-64045000D01*
X63131860Y-64045000D01*
X63191530Y-64050877D01*
X63191530Y-64050877D01*
G37*
G36*
X72081530Y-64050877D02*
X72133010Y-64066493D01*
X72180442Y-64091846D01*
X72222027Y-64125973D01*
X72256154Y-64167558D01*
X72281507Y-64214990D01*
X72297123Y-64266470D01*
X72303000Y-64326140D01*
X72303000Y-65213860D01*
X72297123Y-65273530D01*
X72281507Y-65325010D01*
X72256154Y-65372442D01*
X72222027Y-65414027D01*
X72180442Y-65448154D01*
X72133010Y-65473507D01*
X72081530Y-65489123D01*
X72021860Y-65495000D01*
X71234140Y-65495000D01*
X71174470Y-65489123D01*
X71122990Y-65473507D01*
X71075558Y-65448154D01*
X71033973Y-65414027D01*
X70999846Y-65372442D01*
X70974493Y-65325010D01*
X70958877Y-65273530D01*
X70953000Y-65213860D01*
X70953000Y-64326140D01*
X70958877Y-64266470D01*
X70974493Y-64214990D01*
X70999846Y-64167558D01*
X71033973Y-64125973D01*
X71075558Y-64091846D01*
X71122990Y-64066493D01*
X71174470Y-64050877D01*
X71234140Y-64045000D01*
X72021860Y-64045000D01*
X72081530Y-64050877D01*
X72081530Y-64050877D01*
G37*
G36*
X44395530Y-64050877D02*
X44447010Y-64066493D01*
X44494442Y-64091846D01*
X44536027Y-64125973D01*
X44570154Y-64167558D01*
X44595507Y-64214990D01*
X44611123Y-64266470D01*
X44617000Y-64326140D01*
X44617000Y-65213860D01*
X44611123Y-65273530D01*
X44595507Y-65325010D01*
X44570154Y-65372442D01*
X44536027Y-65414027D01*
X44494442Y-65448154D01*
X44447010Y-65473507D01*
X44395530Y-65489123D01*
X44335860Y-65495000D01*
X43548140Y-65495000D01*
X43488470Y-65489123D01*
X43436990Y-65473507D01*
X43389558Y-65448154D01*
X43347973Y-65414027D01*
X43313846Y-65372442D01*
X43288493Y-65325010D01*
X43272877Y-65273530D01*
X43267000Y-65213860D01*
X43267000Y-64326140D01*
X43272877Y-64266470D01*
X43288493Y-64214990D01*
X43313846Y-64167558D01*
X43347973Y-64125973D01*
X43389558Y-64091846D01*
X43436990Y-64066493D01*
X43488470Y-64050877D01*
X43548140Y-64045000D01*
X44335860Y-64045000D01*
X44395530Y-64050877D01*
X44395530Y-64050877D01*
G37*
G36*
X46173530Y-64050877D02*
X46225010Y-64066493D01*
X46272442Y-64091846D01*
X46314027Y-64125973D01*
X46348154Y-64167558D01*
X46373507Y-64214990D01*
X46389123Y-64266470D01*
X46395000Y-64326140D01*
X46395000Y-65213860D01*
X46389123Y-65273530D01*
X46373507Y-65325010D01*
X46348154Y-65372442D01*
X46314027Y-65414027D01*
X46272442Y-65448154D01*
X46225010Y-65473507D01*
X46173530Y-65489123D01*
X46113860Y-65495000D01*
X45326140Y-65495000D01*
X45266470Y-65489123D01*
X45214990Y-65473507D01*
X45167558Y-65448154D01*
X45125973Y-65414027D01*
X45091846Y-65372442D01*
X45066493Y-65325010D01*
X45050877Y-65273530D01*
X45045000Y-65213860D01*
X45045000Y-64326140D01*
X45050877Y-64266470D01*
X45066493Y-64214990D01*
X45091846Y-64167558D01*
X45125973Y-64125973D01*
X45167558Y-64091846D01*
X45214990Y-64066493D01*
X45266470Y-64050877D01*
X45326140Y-64045000D01*
X46113860Y-64045000D01*
X46173530Y-64050877D01*
X46173530Y-64050877D01*
G37*
G36*
X74113530Y-64050877D02*
X74165010Y-64066493D01*
X74212442Y-64091846D01*
X74254027Y-64125973D01*
X74288154Y-64167558D01*
X74313507Y-64214990D01*
X74329123Y-64266470D01*
X74335000Y-64326140D01*
X74335000Y-65213860D01*
X74329123Y-65273530D01*
X74313507Y-65325010D01*
X74288154Y-65372442D01*
X74254027Y-65414027D01*
X74212442Y-65448154D01*
X74165010Y-65473507D01*
X74113530Y-65489123D01*
X74053860Y-65495000D01*
X73266140Y-65495000D01*
X73206470Y-65489123D01*
X73154990Y-65473507D01*
X73107558Y-65448154D01*
X73065973Y-65414027D01*
X73031846Y-65372442D01*
X73006493Y-65325010D01*
X72990877Y-65273530D01*
X72985000Y-65213860D01*
X72985000Y-64326140D01*
X72990877Y-64266470D01*
X73006493Y-64214990D01*
X73031846Y-64167558D01*
X73065973Y-64125973D01*
X73107558Y-64091846D01*
X73154990Y-64066493D01*
X73206470Y-64050877D01*
X73266140Y-64045000D01*
X74053860Y-64045000D01*
X74113530Y-64050877D01*
X74113530Y-64050877D01*
G37*
G36*
X49729530Y-64050877D02*
X49781010Y-64066493D01*
X49828442Y-64091846D01*
X49870027Y-64125973D01*
X49904154Y-64167558D01*
X49929507Y-64214990D01*
X49945123Y-64266470D01*
X49951000Y-64326140D01*
X49951000Y-65213860D01*
X49945123Y-65273530D01*
X49929507Y-65325010D01*
X49904154Y-65372442D01*
X49870027Y-65414027D01*
X49828442Y-65448154D01*
X49781010Y-65473507D01*
X49729530Y-65489123D01*
X49669860Y-65495000D01*
X48882140Y-65495000D01*
X48822470Y-65489123D01*
X48770990Y-65473507D01*
X48723558Y-65448154D01*
X48681973Y-65414027D01*
X48647846Y-65372442D01*
X48622493Y-65325010D01*
X48606877Y-65273530D01*
X48601000Y-65213860D01*
X48601000Y-64326140D01*
X48606877Y-64266470D01*
X48622493Y-64214990D01*
X48647846Y-64167558D01*
X48681973Y-64125973D01*
X48723558Y-64091846D01*
X48770990Y-64066493D01*
X48822470Y-64050877D01*
X48882140Y-64045000D01*
X49669860Y-64045000D01*
X49729530Y-64050877D01*
X49729530Y-64050877D01*
G37*
G36*
X47951530Y-64050877D02*
X48003010Y-64066493D01*
X48050442Y-64091846D01*
X48092027Y-64125973D01*
X48126154Y-64167558D01*
X48151507Y-64214990D01*
X48167123Y-64266470D01*
X48173000Y-64326140D01*
X48173000Y-65213860D01*
X48167123Y-65273530D01*
X48151507Y-65325010D01*
X48126154Y-65372442D01*
X48092027Y-65414027D01*
X48050442Y-65448154D01*
X48003010Y-65473507D01*
X47951530Y-65489123D01*
X47891860Y-65495000D01*
X47104140Y-65495000D01*
X47044470Y-65489123D01*
X46992990Y-65473507D01*
X46945558Y-65448154D01*
X46903973Y-65414027D01*
X46869846Y-65372442D01*
X46844493Y-65325010D01*
X46828877Y-65273530D01*
X46823000Y-65213860D01*
X46823000Y-64326140D01*
X46828877Y-64266470D01*
X46844493Y-64214990D01*
X46869846Y-64167558D01*
X46903973Y-64125973D01*
X46945558Y-64091846D01*
X46992990Y-64066493D01*
X47044470Y-64050877D01*
X47104140Y-64045000D01*
X47891860Y-64045000D01*
X47951530Y-64050877D01*
X47951530Y-64050877D01*
G37*
G36*
X42617530Y-64050877D02*
X42669010Y-64066493D01*
X42716442Y-64091846D01*
X42758027Y-64125973D01*
X42792154Y-64167558D01*
X42817507Y-64214990D01*
X42833123Y-64266470D01*
X42839000Y-64326140D01*
X42839000Y-65213860D01*
X42833123Y-65273530D01*
X42817507Y-65325010D01*
X42792154Y-65372442D01*
X42758027Y-65414027D01*
X42716442Y-65448154D01*
X42669010Y-65473507D01*
X42617530Y-65489123D01*
X42557860Y-65495000D01*
X41770140Y-65495000D01*
X41710470Y-65489123D01*
X41658990Y-65473507D01*
X41611558Y-65448154D01*
X41569973Y-65414027D01*
X41535846Y-65372442D01*
X41510493Y-65325010D01*
X41494877Y-65273530D01*
X41489000Y-65213860D01*
X41489000Y-64326140D01*
X41494877Y-64266470D01*
X41510493Y-64214990D01*
X41535846Y-64167558D01*
X41569973Y-64125973D01*
X41611558Y-64091846D01*
X41658990Y-64066493D01*
X41710470Y-64050877D01*
X41770140Y-64045000D01*
X42557860Y-64045000D01*
X42617530Y-64050877D01*
X42617530Y-64050877D01*
G37*
G36*
X102978530Y-63084877D02*
X103030010Y-63100493D01*
X103077442Y-63125846D01*
X103119027Y-63159973D01*
X103153154Y-63201558D01*
X103178507Y-63248990D01*
X103194123Y-63300470D01*
X103200000Y-63360140D01*
X103200000Y-64147860D01*
X103194123Y-64207530D01*
X103178507Y-64259010D01*
X103153154Y-64306442D01*
X103119027Y-64348027D01*
X103077442Y-64382154D01*
X103030010Y-64407507D01*
X102978530Y-64423123D01*
X102918860Y-64429000D01*
X102031140Y-64429000D01*
X101971470Y-64423123D01*
X101919990Y-64407507D01*
X101872558Y-64382154D01*
X101830973Y-64348027D01*
X101796846Y-64306442D01*
X101771493Y-64259010D01*
X101755877Y-64207530D01*
X101750000Y-64147860D01*
X101750000Y-63360140D01*
X101755877Y-63300470D01*
X101771493Y-63248990D01*
X101796846Y-63201558D01*
X101830973Y-63159973D01*
X101872558Y-63125846D01*
X101919990Y-63100493D01*
X101971470Y-63084877D01*
X102031140Y-63079000D01*
X102918860Y-63079000D01*
X102978530Y-63084877D01*
X102978530Y-63084877D01*
G37*
G36*
X101228530Y-63084877D02*
X101280010Y-63100493D01*
X101327442Y-63125846D01*
X101369027Y-63159973D01*
X101403154Y-63201558D01*
X101428507Y-63248990D01*
X101444123Y-63300470D01*
X101450000Y-63360140D01*
X101450000Y-64147860D01*
X101444123Y-64207530D01*
X101428507Y-64259010D01*
X101403154Y-64306442D01*
X101369027Y-64348027D01*
X101327442Y-64382154D01*
X101280010Y-64407507D01*
X101228530Y-64423123D01*
X101168860Y-64429000D01*
X100281140Y-64429000D01*
X100221470Y-64423123D01*
X100169990Y-64407507D01*
X100122558Y-64382154D01*
X100080973Y-64348027D01*
X100046846Y-64306442D01*
X100021493Y-64259010D01*
X100005877Y-64207530D01*
X100000000Y-64147860D01*
X100000000Y-63360140D01*
X100005877Y-63300470D01*
X100021493Y-63248990D01*
X100046846Y-63201558D01*
X100080973Y-63159973D01*
X100122558Y-63125846D01*
X100169990Y-63100493D01*
X100221470Y-63084877D01*
X100281140Y-63079000D01*
X101168860Y-63079000D01*
X101228530Y-63084877D01*
X101228530Y-63084877D01*
G37*
G36*
X129470105Y-57856774D02*
X130052467Y-58097996D01*
X130576584Y-58448200D01*
X131022300Y-58893916D01*
X131372504Y-59418033D01*
X131613726Y-60000395D01*
X131736700Y-60618626D01*
X131736700Y-61248974D01*
X131613726Y-61867205D01*
X131372504Y-62449567D01*
X131022300Y-62973684D01*
X130576584Y-63419400D01*
X130052467Y-63769604D01*
X129470105Y-64010826D01*
X128851874Y-64133800D01*
X128221526Y-64133800D01*
X127603295Y-64010826D01*
X127020933Y-63769604D01*
X126496816Y-63419400D01*
X126051100Y-62973684D01*
X125700896Y-62449567D01*
X125459674Y-61867205D01*
X125336700Y-61248974D01*
X125336700Y-60618626D01*
X125459674Y-60000395D01*
X125700896Y-59418033D01*
X126051100Y-58893916D01*
X126496816Y-58448200D01*
X127020933Y-58097996D01*
X127603295Y-57856774D01*
X128221526Y-57733800D01*
X128851874Y-57733800D01*
X129470105Y-57856774D01*
X129470105Y-57856774D01*
G37*
G36*
X101907000Y-62349000D02*
X99957000Y-62349000D01*
X99957000Y-61349000D01*
X101907000Y-61349000D01*
X101907000Y-62349000D01*
X101907000Y-62349000D01*
G37*
G36*
X107307000Y-62349000D02*
X105357000Y-62349000D01*
X105357000Y-61349000D01*
X107307000Y-61349000D01*
X107307000Y-62349000D01*
X107307000Y-62349000D01*
G37*
G36*
X101907000Y-61079000D02*
X99957000Y-61079000D01*
X99957000Y-60079000D01*
X101907000Y-60079000D01*
X101907000Y-61079000D01*
X101907000Y-61079000D01*
G37*
G36*
X107307000Y-61079000D02*
X105357000Y-61079000D01*
X105357000Y-60079000D01*
X107307000Y-60079000D01*
X107307000Y-61079000D01*
X107307000Y-61079000D01*
G37*
G36*
X101907000Y-59809000D02*
X99957000Y-59809000D01*
X99957000Y-58809000D01*
X101907000Y-58809000D01*
X101907000Y-59809000D01*
X101907000Y-59809000D01*
G37*
G36*
X107307000Y-59809000D02*
X105357000Y-59809000D01*
X105357000Y-58809000D01*
X107307000Y-58809000D01*
X107307000Y-59809000D01*
X107307000Y-59809000D01*
G37*
G36*
X101907000Y-58539000D02*
X99957000Y-58539000D01*
X99957000Y-57539000D01*
X101907000Y-57539000D01*
X101907000Y-58539000D01*
X101907000Y-58539000D01*
G37*
G36*
X107307000Y-58539000D02*
X105357000Y-58539000D01*
X105357000Y-57539000D01*
X107307000Y-57539000D01*
X107307000Y-58539000D01*
X107307000Y-58539000D01*
G37*
G36*
X104756530Y-55464877D02*
X104808010Y-55480493D01*
X104855442Y-55505846D01*
X104897027Y-55539973D01*
X104931154Y-55581558D01*
X104956507Y-55628990D01*
X104972123Y-55680470D01*
X104978000Y-55740140D01*
X104978000Y-56527860D01*
X104972123Y-56587530D01*
X104956507Y-56639010D01*
X104931154Y-56686442D01*
X104897027Y-56728027D01*
X104855442Y-56762154D01*
X104808010Y-56787507D01*
X104756530Y-56803123D01*
X104696860Y-56809000D01*
X103809140Y-56809000D01*
X103749470Y-56803123D01*
X103697990Y-56787507D01*
X103650558Y-56762154D01*
X103608973Y-56728027D01*
X103574846Y-56686442D01*
X103549493Y-56639010D01*
X103533877Y-56587530D01*
X103528000Y-56527860D01*
X103528000Y-55740140D01*
X103533877Y-55680470D01*
X103549493Y-55628990D01*
X103574846Y-55581558D01*
X103608973Y-55539973D01*
X103650558Y-55505846D01*
X103697990Y-55480493D01*
X103749470Y-55464877D01*
X103809140Y-55459000D01*
X104696860Y-55459000D01*
X104756530Y-55464877D01*
X104756530Y-55464877D01*
G37*
G36*
X103006530Y-55464877D02*
X103058010Y-55480493D01*
X103105442Y-55505846D01*
X103147027Y-55539973D01*
X103181154Y-55581558D01*
X103206507Y-55628990D01*
X103222123Y-55680470D01*
X103228000Y-55740140D01*
X103228000Y-56527860D01*
X103222123Y-56587530D01*
X103206507Y-56639010D01*
X103181154Y-56686442D01*
X103147027Y-56728027D01*
X103105442Y-56762154D01*
X103058010Y-56787507D01*
X103006530Y-56803123D01*
X102946860Y-56809000D01*
X102059140Y-56809000D01*
X101999470Y-56803123D01*
X101947990Y-56787507D01*
X101900558Y-56762154D01*
X101858973Y-56728027D01*
X101824846Y-56686442D01*
X101799493Y-56639010D01*
X101783877Y-56587530D01*
X101778000Y-56527860D01*
X101778000Y-55740140D01*
X101783877Y-55680470D01*
X101799493Y-55628990D01*
X101824846Y-55581558D01*
X101858973Y-55539973D01*
X101900558Y-55505846D01*
X101947990Y-55480493D01*
X101999470Y-55464877D01*
X102059140Y-55459000D01*
X102946860Y-55459000D01*
X103006530Y-55464877D01*
X103006530Y-55464877D01*
G37*
G36*
X53112603Y-52922968D02*
X53112606Y-52922969D01*
X53112605Y-52922969D01*
X53287678Y-52995486D01*
X53287679Y-52995487D01*
X53445241Y-53100767D01*
X53579233Y-53234759D01*
X53632232Y-53314077D01*
X53684514Y-53392322D01*
X53702088Y-53434750D01*
X53757032Y-53567397D01*
X53794000Y-53753250D01*
X53794000Y-53942750D01*
X53757032Y-54128603D01*
X53757031Y-54128605D01*
X53684514Y-54303678D01*
X53684513Y-54303679D01*
X53579233Y-54461241D01*
X53445241Y-54595233D01*
X53365923Y-54648232D01*
X53287678Y-54700514D01*
X53152266Y-54756603D01*
X53112603Y-54773032D01*
X52926750Y-54810000D01*
X52737250Y-54810000D01*
X52551397Y-54773032D01*
X52511734Y-54756603D01*
X52376322Y-54700514D01*
X52298077Y-54648232D01*
X52218759Y-54595233D01*
X52084767Y-54461241D01*
X51979487Y-54303679D01*
X51979486Y-54303678D01*
X51906969Y-54128605D01*
X51906968Y-54128603D01*
X51870000Y-53942750D01*
X51870000Y-53753250D01*
X51906968Y-53567397D01*
X51961912Y-53434750D01*
X51979486Y-53392322D01*
X52031768Y-53314077D01*
X52084767Y-53234759D01*
X52218759Y-53100767D01*
X52376321Y-52995487D01*
X52376322Y-52995486D01*
X52551395Y-52922969D01*
X52551394Y-52922969D01*
X52551397Y-52922968D01*
X52737250Y-52886000D01*
X52926750Y-52886000D01*
X53112603Y-52922968D01*
X53112603Y-52922968D01*
G37*
G36*
X107468603Y-52922968D02*
X107468606Y-52922969D01*
X107468605Y-52922969D01*
X107643678Y-52995486D01*
X107643679Y-52995487D01*
X107801241Y-53100767D01*
X107935233Y-53234759D01*
X107988232Y-53314077D01*
X108040514Y-53392322D01*
X108058088Y-53434750D01*
X108113032Y-53567397D01*
X108150000Y-53753250D01*
X108150000Y-53942750D01*
X108113032Y-54128603D01*
X108113031Y-54128605D01*
X108040514Y-54303678D01*
X108040513Y-54303679D01*
X107935233Y-54461241D01*
X107801241Y-54595233D01*
X107721923Y-54648232D01*
X107643678Y-54700514D01*
X107508266Y-54756603D01*
X107468603Y-54773032D01*
X107282750Y-54810000D01*
X107093250Y-54810000D01*
X106907397Y-54773032D01*
X106867734Y-54756603D01*
X106732322Y-54700514D01*
X106654077Y-54648232D01*
X106574759Y-54595233D01*
X106440767Y-54461241D01*
X106335487Y-54303679D01*
X106335486Y-54303678D01*
X106262969Y-54128605D01*
X106262968Y-54128603D01*
X106226000Y-53942750D01*
X106226000Y-53753250D01*
X106262968Y-53567397D01*
X106317912Y-53434750D01*
X106335486Y-53392322D01*
X106387768Y-53314077D01*
X106440767Y-53234759D01*
X106574759Y-53100767D01*
X106732321Y-52995487D01*
X106732322Y-52995486D01*
X106907395Y-52922969D01*
X106907394Y-52922969D01*
X106907397Y-52922968D01*
X107093250Y-52886000D01*
X107282750Y-52886000D01*
X107468603Y-52922968D01*
X107468603Y-52922968D01*
G37*
G36*
X55652603Y-52922968D02*
X55652606Y-52922969D01*
X55652605Y-52922969D01*
X55827678Y-52995486D01*
X55827679Y-52995487D01*
X55985241Y-53100767D01*
X56119233Y-53234759D01*
X56172232Y-53314077D01*
X56224514Y-53392322D01*
X56242088Y-53434750D01*
X56297032Y-53567397D01*
X56334000Y-53753250D01*
X56334000Y-53942750D01*
X56297032Y-54128603D01*
X56297031Y-54128605D01*
X56224514Y-54303678D01*
X56224513Y-54303679D01*
X56119233Y-54461241D01*
X55985241Y-54595233D01*
X55905923Y-54648232D01*
X55827678Y-54700514D01*
X55692266Y-54756603D01*
X55652603Y-54773032D01*
X55466750Y-54810000D01*
X55277250Y-54810000D01*
X55091397Y-54773032D01*
X55051734Y-54756603D01*
X54916322Y-54700514D01*
X54838077Y-54648232D01*
X54758759Y-54595233D01*
X54624767Y-54461241D01*
X54519487Y-54303679D01*
X54519486Y-54303678D01*
X54446969Y-54128605D01*
X54446968Y-54128603D01*
X54410000Y-53942750D01*
X54410000Y-53753250D01*
X54446968Y-53567397D01*
X54501912Y-53434750D01*
X54519486Y-53392322D01*
X54571768Y-53314077D01*
X54624767Y-53234759D01*
X54758759Y-53100767D01*
X54916321Y-52995487D01*
X54916322Y-52995486D01*
X55091395Y-52922969D01*
X55091394Y-52922969D01*
X55091397Y-52922968D01*
X55277250Y-52886000D01*
X55466750Y-52886000D01*
X55652603Y-52922968D01*
X55652603Y-52922968D01*
G37*
G36*
X58192603Y-52922968D02*
X58192606Y-52922969D01*
X58192605Y-52922969D01*
X58367678Y-52995486D01*
X58367679Y-52995487D01*
X58525241Y-53100767D01*
X58659233Y-53234759D01*
X58712232Y-53314077D01*
X58764514Y-53392322D01*
X58782088Y-53434750D01*
X58837032Y-53567397D01*
X58874000Y-53753250D01*
X58874000Y-53942750D01*
X58837032Y-54128603D01*
X58837031Y-54128605D01*
X58764514Y-54303678D01*
X58764513Y-54303679D01*
X58659233Y-54461241D01*
X58525241Y-54595233D01*
X58445923Y-54648232D01*
X58367678Y-54700514D01*
X58232266Y-54756603D01*
X58192603Y-54773032D01*
X58006750Y-54810000D01*
X57817250Y-54810000D01*
X57631397Y-54773032D01*
X57591734Y-54756603D01*
X57456322Y-54700514D01*
X57378077Y-54648232D01*
X57298759Y-54595233D01*
X57164767Y-54461241D01*
X57059487Y-54303679D01*
X57059486Y-54303678D01*
X56986969Y-54128605D01*
X56986968Y-54128603D01*
X56950000Y-53942750D01*
X56950000Y-53753250D01*
X56986968Y-53567397D01*
X57041912Y-53434750D01*
X57059486Y-53392322D01*
X57111768Y-53314077D01*
X57164767Y-53234759D01*
X57298759Y-53100767D01*
X57456321Y-52995487D01*
X57456322Y-52995486D01*
X57631395Y-52922969D01*
X57631394Y-52922969D01*
X57631397Y-52922968D01*
X57817250Y-52886000D01*
X58006750Y-52886000D01*
X58192603Y-52922968D01*
X58192603Y-52922968D01*
G37*
G36*
X60732603Y-52922968D02*
X60732606Y-52922969D01*
X60732605Y-52922969D01*
X60907678Y-52995486D01*
X60907679Y-52995487D01*
X61065241Y-53100767D01*
X61199233Y-53234759D01*
X61252232Y-53314077D01*
X61304514Y-53392322D01*
X61322088Y-53434750D01*
X61377032Y-53567397D01*
X61414000Y-53753250D01*
X61414000Y-53942750D01*
X61377032Y-54128603D01*
X61377031Y-54128605D01*
X61304514Y-54303678D01*
X61304513Y-54303679D01*
X61199233Y-54461241D01*
X61065241Y-54595233D01*
X60985923Y-54648232D01*
X60907678Y-54700514D01*
X60772266Y-54756603D01*
X60732603Y-54773032D01*
X60546750Y-54810000D01*
X60357250Y-54810000D01*
X60171397Y-54773032D01*
X60131734Y-54756603D01*
X59996322Y-54700514D01*
X59918077Y-54648232D01*
X59838759Y-54595233D01*
X59704767Y-54461241D01*
X59599487Y-54303679D01*
X59599486Y-54303678D01*
X59526969Y-54128605D01*
X59526968Y-54128603D01*
X59490000Y-53942750D01*
X59490000Y-53753250D01*
X59526968Y-53567397D01*
X59581912Y-53434750D01*
X59599486Y-53392322D01*
X59651768Y-53314077D01*
X59704767Y-53234759D01*
X59838759Y-53100767D01*
X59996321Y-52995487D01*
X59996322Y-52995486D01*
X60171395Y-52922969D01*
X60171394Y-52922969D01*
X60171397Y-52922968D01*
X60357250Y-52886000D01*
X60546750Y-52886000D01*
X60732603Y-52922968D01*
X60732603Y-52922968D01*
G37*
G36*
X67844603Y-52922968D02*
X67844606Y-52922969D01*
X67844605Y-52922969D01*
X68019678Y-52995486D01*
X68019679Y-52995487D01*
X68177241Y-53100767D01*
X68311233Y-53234759D01*
X68364232Y-53314077D01*
X68416514Y-53392322D01*
X68434088Y-53434750D01*
X68489032Y-53567397D01*
X68526000Y-53753250D01*
X68526000Y-53942750D01*
X68489032Y-54128603D01*
X68489031Y-54128605D01*
X68416514Y-54303678D01*
X68416513Y-54303679D01*
X68311233Y-54461241D01*
X68177241Y-54595233D01*
X68097923Y-54648232D01*
X68019678Y-54700514D01*
X67884266Y-54756603D01*
X67844603Y-54773032D01*
X67658750Y-54810000D01*
X67469250Y-54810000D01*
X67283397Y-54773032D01*
X67243734Y-54756603D01*
X67108322Y-54700514D01*
X67030077Y-54648232D01*
X66950759Y-54595233D01*
X66816767Y-54461241D01*
X66711487Y-54303679D01*
X66711486Y-54303678D01*
X66638969Y-54128605D01*
X66638968Y-54128603D01*
X66602000Y-53942750D01*
X66602000Y-53753250D01*
X66638968Y-53567397D01*
X66693912Y-53434750D01*
X66711486Y-53392322D01*
X66763768Y-53314077D01*
X66816767Y-53234759D01*
X66950759Y-53100767D01*
X67108321Y-52995487D01*
X67108322Y-52995486D01*
X67283395Y-52922969D01*
X67283394Y-52922969D01*
X67283397Y-52922968D01*
X67469250Y-52886000D01*
X67658750Y-52886000D01*
X67844603Y-52922968D01*
X67844603Y-52922968D01*
G37*
G36*
X70384603Y-52922968D02*
X70384606Y-52922969D01*
X70384605Y-52922969D01*
X70559678Y-52995486D01*
X70559679Y-52995487D01*
X70717241Y-53100767D01*
X70851233Y-53234759D01*
X70904232Y-53314077D01*
X70956514Y-53392322D01*
X70974088Y-53434750D01*
X71029032Y-53567397D01*
X71066000Y-53753250D01*
X71066000Y-53942750D01*
X71029032Y-54128603D01*
X71029031Y-54128605D01*
X70956514Y-54303678D01*
X70956513Y-54303679D01*
X70851233Y-54461241D01*
X70717241Y-54595233D01*
X70637923Y-54648232D01*
X70559678Y-54700514D01*
X70424266Y-54756603D01*
X70384603Y-54773032D01*
X70198750Y-54810000D01*
X70009250Y-54810000D01*
X69823397Y-54773032D01*
X69783734Y-54756603D01*
X69648322Y-54700514D01*
X69570077Y-54648232D01*
X69490759Y-54595233D01*
X69356767Y-54461241D01*
X69251487Y-54303679D01*
X69251486Y-54303678D01*
X69178969Y-54128605D01*
X69178968Y-54128603D01*
X69142000Y-53942750D01*
X69142000Y-53753250D01*
X69178968Y-53567397D01*
X69233912Y-53434750D01*
X69251486Y-53392322D01*
X69303768Y-53314077D01*
X69356767Y-53234759D01*
X69490759Y-53100767D01*
X69648321Y-52995487D01*
X69648322Y-52995486D01*
X69823395Y-52922969D01*
X69823394Y-52922969D01*
X69823397Y-52922968D01*
X70009250Y-52886000D01*
X70198750Y-52886000D01*
X70384603Y-52922968D01*
X70384603Y-52922968D01*
G37*
G36*
X174270603Y-52922968D02*
X174270606Y-52922969D01*
X174270605Y-52922969D01*
X174445678Y-52995486D01*
X174445679Y-52995487D01*
X174603241Y-53100767D01*
X174737233Y-53234759D01*
X174790232Y-53314077D01*
X174842514Y-53392322D01*
X174860088Y-53434750D01*
X174915032Y-53567397D01*
X174952000Y-53753250D01*
X174952000Y-53942750D01*
X174915032Y-54128603D01*
X174915031Y-54128605D01*
X174842514Y-54303678D01*
X174842513Y-54303679D01*
X174737233Y-54461241D01*
X174603241Y-54595233D01*
X174523923Y-54648232D01*
X174445678Y-54700514D01*
X174310266Y-54756603D01*
X174270603Y-54773032D01*
X174084750Y-54810000D01*
X173895250Y-54810000D01*
X173709397Y-54773032D01*
X173669734Y-54756603D01*
X173534322Y-54700514D01*
X173456077Y-54648232D01*
X173376759Y-54595233D01*
X173242767Y-54461241D01*
X173137487Y-54303679D01*
X173137486Y-54303678D01*
X173064969Y-54128605D01*
X173064968Y-54128603D01*
X173028000Y-53942750D01*
X173028000Y-53753250D01*
X173064968Y-53567397D01*
X173119912Y-53434750D01*
X173137486Y-53392322D01*
X173189768Y-53314077D01*
X173242767Y-53234759D01*
X173376759Y-53100767D01*
X173534321Y-52995487D01*
X173534322Y-52995486D01*
X173709395Y-52922969D01*
X173709394Y-52922969D01*
X173709397Y-52922968D01*
X173895250Y-52886000D01*
X174084750Y-52886000D01*
X174270603Y-52922968D01*
X174270603Y-52922968D01*
G37*
G36*
X171730603Y-52922968D02*
X171730606Y-52922969D01*
X171730605Y-52922969D01*
X171905678Y-52995486D01*
X171905679Y-52995487D01*
X172063241Y-53100767D01*
X172197233Y-53234759D01*
X172250232Y-53314077D01*
X172302514Y-53392322D01*
X172320088Y-53434750D01*
X172375032Y-53567397D01*
X172412000Y-53753250D01*
X172412000Y-53942750D01*
X172375032Y-54128603D01*
X172375031Y-54128605D01*
X172302514Y-54303678D01*
X172302513Y-54303679D01*
X172197233Y-54461241D01*
X172063241Y-54595233D01*
X171983923Y-54648232D01*
X171905678Y-54700514D01*
X171770266Y-54756603D01*
X171730603Y-54773032D01*
X171544750Y-54810000D01*
X171355250Y-54810000D01*
X171169397Y-54773032D01*
X171129734Y-54756603D01*
X170994322Y-54700514D01*
X170916077Y-54648232D01*
X170836759Y-54595233D01*
X170702767Y-54461241D01*
X170597487Y-54303679D01*
X170597486Y-54303678D01*
X170524969Y-54128605D01*
X170524968Y-54128603D01*
X170488000Y-53942750D01*
X170488000Y-53753250D01*
X170524968Y-53567397D01*
X170579912Y-53434750D01*
X170597486Y-53392322D01*
X170649768Y-53314077D01*
X170702767Y-53234759D01*
X170836759Y-53100767D01*
X170994321Y-52995487D01*
X170994322Y-52995486D01*
X171169395Y-52922969D01*
X171169394Y-52922969D01*
X171169397Y-52922968D01*
X171355250Y-52886000D01*
X171544750Y-52886000D01*
X171730603Y-52922968D01*
X171730603Y-52922968D01*
G37*
G36*
X164872603Y-52922968D02*
X164872606Y-52922969D01*
X164872605Y-52922969D01*
X165047678Y-52995486D01*
X165047679Y-52995487D01*
X165205241Y-53100767D01*
X165339233Y-53234759D01*
X165392232Y-53314077D01*
X165444514Y-53392322D01*
X165462088Y-53434750D01*
X165517032Y-53567397D01*
X165554000Y-53753250D01*
X165554000Y-53942750D01*
X165517032Y-54128603D01*
X165517031Y-54128605D01*
X165444514Y-54303678D01*
X165444513Y-54303679D01*
X165339233Y-54461241D01*
X165205241Y-54595233D01*
X165125923Y-54648232D01*
X165047678Y-54700514D01*
X164912266Y-54756603D01*
X164872603Y-54773032D01*
X164686750Y-54810000D01*
X164497250Y-54810000D01*
X164311397Y-54773032D01*
X164271734Y-54756603D01*
X164136322Y-54700514D01*
X164058077Y-54648232D01*
X163978759Y-54595233D01*
X163844767Y-54461241D01*
X163739487Y-54303679D01*
X163739486Y-54303678D01*
X163666969Y-54128605D01*
X163666968Y-54128603D01*
X163630000Y-53942750D01*
X163630000Y-53753250D01*
X163666968Y-53567397D01*
X163721912Y-53434750D01*
X163739486Y-53392322D01*
X163791768Y-53314077D01*
X163844767Y-53234759D01*
X163978759Y-53100767D01*
X164136321Y-52995487D01*
X164136322Y-52995486D01*
X164311395Y-52922969D01*
X164311394Y-52922969D01*
X164311397Y-52922968D01*
X164497250Y-52886000D01*
X164686750Y-52886000D01*
X164872603Y-52922968D01*
X164872603Y-52922968D01*
G37*
G36*
X162332603Y-52922968D02*
X162332606Y-52922969D01*
X162332605Y-52922969D01*
X162507678Y-52995486D01*
X162507679Y-52995487D01*
X162665241Y-53100767D01*
X162799233Y-53234759D01*
X162852232Y-53314077D01*
X162904514Y-53392322D01*
X162922088Y-53434750D01*
X162977032Y-53567397D01*
X163014000Y-53753250D01*
X163014000Y-53942750D01*
X162977032Y-54128603D01*
X162977031Y-54128605D01*
X162904514Y-54303678D01*
X162904513Y-54303679D01*
X162799233Y-54461241D01*
X162665241Y-54595233D01*
X162585923Y-54648232D01*
X162507678Y-54700514D01*
X162372266Y-54756603D01*
X162332603Y-54773032D01*
X162146750Y-54810000D01*
X161957250Y-54810000D01*
X161771397Y-54773032D01*
X161731734Y-54756603D01*
X161596322Y-54700514D01*
X161518077Y-54648232D01*
X161438759Y-54595233D01*
X161304767Y-54461241D01*
X161199487Y-54303679D01*
X161199486Y-54303678D01*
X161126969Y-54128605D01*
X161126968Y-54128603D01*
X161090000Y-53942750D01*
X161090000Y-53753250D01*
X161126968Y-53567397D01*
X161181912Y-53434750D01*
X161199486Y-53392322D01*
X161251768Y-53314077D01*
X161304767Y-53234759D01*
X161438759Y-53100767D01*
X161596321Y-52995487D01*
X161596322Y-52995486D01*
X161771395Y-52922969D01*
X161771394Y-52922969D01*
X161771397Y-52922968D01*
X161957250Y-52886000D01*
X162146750Y-52886000D01*
X162332603Y-52922968D01*
X162332603Y-52922968D01*
G37*
G36*
X159792603Y-52922968D02*
X159792606Y-52922969D01*
X159792605Y-52922969D01*
X159967678Y-52995486D01*
X159967679Y-52995487D01*
X160125241Y-53100767D01*
X160259233Y-53234759D01*
X160312232Y-53314077D01*
X160364514Y-53392322D01*
X160382088Y-53434750D01*
X160437032Y-53567397D01*
X160474000Y-53753250D01*
X160474000Y-53942750D01*
X160437032Y-54128603D01*
X160437031Y-54128605D01*
X160364514Y-54303678D01*
X160364513Y-54303679D01*
X160259233Y-54461241D01*
X160125241Y-54595233D01*
X160045923Y-54648232D01*
X159967678Y-54700514D01*
X159832266Y-54756603D01*
X159792603Y-54773032D01*
X159606750Y-54810000D01*
X159417250Y-54810000D01*
X159231397Y-54773032D01*
X159191734Y-54756603D01*
X159056322Y-54700514D01*
X158978077Y-54648232D01*
X158898759Y-54595233D01*
X158764767Y-54461241D01*
X158659487Y-54303679D01*
X158659486Y-54303678D01*
X158586969Y-54128605D01*
X158586968Y-54128603D01*
X158550000Y-53942750D01*
X158550000Y-53753250D01*
X158586968Y-53567397D01*
X158641912Y-53434750D01*
X158659486Y-53392322D01*
X158711768Y-53314077D01*
X158764767Y-53234759D01*
X158898759Y-53100767D01*
X159056321Y-52995487D01*
X159056322Y-52995486D01*
X159231395Y-52922969D01*
X159231394Y-52922969D01*
X159231397Y-52922968D01*
X159417250Y-52886000D01*
X159606750Y-52886000D01*
X159792603Y-52922968D01*
X159792603Y-52922968D01*
G37*
G36*
X157252603Y-52922968D02*
X157252606Y-52922969D01*
X157252605Y-52922969D01*
X157427678Y-52995486D01*
X157427679Y-52995487D01*
X157585241Y-53100767D01*
X157719233Y-53234759D01*
X157772232Y-53314077D01*
X157824514Y-53392322D01*
X157842088Y-53434750D01*
X157897032Y-53567397D01*
X157934000Y-53753250D01*
X157934000Y-53942750D01*
X157897032Y-54128603D01*
X157897031Y-54128605D01*
X157824514Y-54303678D01*
X157824513Y-54303679D01*
X157719233Y-54461241D01*
X157585241Y-54595233D01*
X157505923Y-54648232D01*
X157427678Y-54700514D01*
X157292266Y-54756603D01*
X157252603Y-54773032D01*
X157066750Y-54810000D01*
X156877250Y-54810000D01*
X156691397Y-54773032D01*
X156651734Y-54756603D01*
X156516322Y-54700514D01*
X156438077Y-54648232D01*
X156358759Y-54595233D01*
X156224767Y-54461241D01*
X156119487Y-54303679D01*
X156119486Y-54303678D01*
X156046969Y-54128605D01*
X156046968Y-54128603D01*
X156010000Y-53942750D01*
X156010000Y-53753250D01*
X156046968Y-53567397D01*
X156101912Y-53434750D01*
X156119486Y-53392322D01*
X156171768Y-53314077D01*
X156224767Y-53234759D01*
X156358759Y-53100767D01*
X156516321Y-52995487D01*
X156516322Y-52995486D01*
X156691395Y-52922969D01*
X156691394Y-52922969D01*
X156691397Y-52922968D01*
X156877250Y-52886000D01*
X157066750Y-52886000D01*
X157252603Y-52922968D01*
X157252603Y-52922968D01*
G37*
G36*
X154712603Y-52922968D02*
X154712606Y-52922969D01*
X154712605Y-52922969D01*
X154887678Y-52995486D01*
X154887679Y-52995487D01*
X155045241Y-53100767D01*
X155179233Y-53234759D01*
X155232232Y-53314077D01*
X155284514Y-53392322D01*
X155302088Y-53434750D01*
X155357032Y-53567397D01*
X155394000Y-53753250D01*
X155394000Y-53942750D01*
X155357032Y-54128603D01*
X155357031Y-54128605D01*
X155284514Y-54303678D01*
X155284513Y-54303679D01*
X155179233Y-54461241D01*
X155045241Y-54595233D01*
X154965923Y-54648232D01*
X154887678Y-54700514D01*
X154752266Y-54756603D01*
X154712603Y-54773032D01*
X154526750Y-54810000D01*
X154337250Y-54810000D01*
X154151397Y-54773032D01*
X154111734Y-54756603D01*
X153976322Y-54700514D01*
X153898077Y-54648232D01*
X153818759Y-54595233D01*
X153684767Y-54461241D01*
X153579487Y-54303679D01*
X153579486Y-54303678D01*
X153506969Y-54128605D01*
X153506968Y-54128603D01*
X153470000Y-53942750D01*
X153470000Y-53753250D01*
X153506968Y-53567397D01*
X153561912Y-53434750D01*
X153579486Y-53392322D01*
X153631768Y-53314077D01*
X153684767Y-53234759D01*
X153818759Y-53100767D01*
X153976321Y-52995487D01*
X153976322Y-52995486D01*
X154151395Y-52922969D01*
X154151394Y-52922969D01*
X154151397Y-52922968D01*
X154337250Y-52886000D01*
X154526750Y-52886000D01*
X154712603Y-52922968D01*
X154712603Y-52922968D01*
G37*
G36*
X152172603Y-52922968D02*
X152172606Y-52922969D01*
X152172605Y-52922969D01*
X152347678Y-52995486D01*
X152347679Y-52995487D01*
X152505241Y-53100767D01*
X152639233Y-53234759D01*
X152692232Y-53314077D01*
X152744514Y-53392322D01*
X152762088Y-53434750D01*
X152817032Y-53567397D01*
X152854000Y-53753250D01*
X152854000Y-53942750D01*
X152817032Y-54128603D01*
X152817031Y-54128605D01*
X152744514Y-54303678D01*
X152744513Y-54303679D01*
X152639233Y-54461241D01*
X152505241Y-54595233D01*
X152425923Y-54648232D01*
X152347678Y-54700514D01*
X152212266Y-54756603D01*
X152172603Y-54773032D01*
X151986750Y-54810000D01*
X151797250Y-54810000D01*
X151611397Y-54773032D01*
X151571734Y-54756603D01*
X151436322Y-54700514D01*
X151358077Y-54648232D01*
X151278759Y-54595233D01*
X151144767Y-54461241D01*
X151039487Y-54303679D01*
X151039486Y-54303678D01*
X150966969Y-54128605D01*
X150966968Y-54128603D01*
X150930000Y-53942750D01*
X150930000Y-53753250D01*
X150966968Y-53567397D01*
X151021912Y-53434750D01*
X151039486Y-53392322D01*
X151091768Y-53314077D01*
X151144767Y-53234759D01*
X151278759Y-53100767D01*
X151436321Y-52995487D01*
X151436322Y-52995486D01*
X151611395Y-52922969D01*
X151611394Y-52922969D01*
X151611397Y-52922968D01*
X151797250Y-52886000D01*
X151986750Y-52886000D01*
X152172603Y-52922968D01*
X152172603Y-52922968D01*
G37*
G36*
X149632603Y-52922968D02*
X149632606Y-52922969D01*
X149632605Y-52922969D01*
X149807678Y-52995486D01*
X149807679Y-52995487D01*
X149965241Y-53100767D01*
X150099233Y-53234759D01*
X150152232Y-53314077D01*
X150204514Y-53392322D01*
X150222088Y-53434750D01*
X150277032Y-53567397D01*
X150314000Y-53753250D01*
X150314000Y-53942750D01*
X150277032Y-54128603D01*
X150277031Y-54128605D01*
X150204514Y-54303678D01*
X150204513Y-54303679D01*
X150099233Y-54461241D01*
X149965241Y-54595233D01*
X149885923Y-54648232D01*
X149807678Y-54700514D01*
X149672266Y-54756603D01*
X149632603Y-54773032D01*
X149446750Y-54810000D01*
X149257250Y-54810000D01*
X149071397Y-54773032D01*
X149031734Y-54756603D01*
X148896322Y-54700514D01*
X148818077Y-54648232D01*
X148738759Y-54595233D01*
X148604767Y-54461241D01*
X148499487Y-54303679D01*
X148499486Y-54303678D01*
X148426969Y-54128605D01*
X148426968Y-54128603D01*
X148390000Y-53942750D01*
X148390000Y-53753250D01*
X148426968Y-53567397D01*
X148481912Y-53434750D01*
X148499486Y-53392322D01*
X148551768Y-53314077D01*
X148604767Y-53234759D01*
X148738759Y-53100767D01*
X148896321Y-52995487D01*
X148896322Y-52995486D01*
X149071395Y-52922969D01*
X149071394Y-52922969D01*
X149071397Y-52922968D01*
X149257250Y-52886000D01*
X149446750Y-52886000D01*
X149632603Y-52922968D01*
X149632603Y-52922968D01*
G37*
G36*
X72924603Y-52922968D02*
X72924606Y-52922969D01*
X72924605Y-52922969D01*
X73099678Y-52995486D01*
X73099679Y-52995487D01*
X73257241Y-53100767D01*
X73391233Y-53234759D01*
X73444232Y-53314077D01*
X73496514Y-53392322D01*
X73514088Y-53434750D01*
X73569032Y-53567397D01*
X73606000Y-53753250D01*
X73606000Y-53942750D01*
X73569032Y-54128603D01*
X73569031Y-54128605D01*
X73496514Y-54303678D01*
X73496513Y-54303679D01*
X73391233Y-54461241D01*
X73257241Y-54595233D01*
X73177923Y-54648232D01*
X73099678Y-54700514D01*
X72964266Y-54756603D01*
X72924603Y-54773032D01*
X72738750Y-54810000D01*
X72549250Y-54810000D01*
X72363397Y-54773032D01*
X72323734Y-54756603D01*
X72188322Y-54700514D01*
X72110077Y-54648232D01*
X72030759Y-54595233D01*
X71896767Y-54461241D01*
X71791487Y-54303679D01*
X71791486Y-54303678D01*
X71718969Y-54128605D01*
X71718968Y-54128603D01*
X71682000Y-53942750D01*
X71682000Y-53753250D01*
X71718968Y-53567397D01*
X71773912Y-53434750D01*
X71791486Y-53392322D01*
X71843768Y-53314077D01*
X71896767Y-53234759D01*
X72030759Y-53100767D01*
X72188321Y-52995487D01*
X72188322Y-52995486D01*
X72363395Y-52922969D01*
X72363394Y-52922969D01*
X72363397Y-52922968D01*
X72549250Y-52886000D01*
X72738750Y-52886000D01*
X72924603Y-52922968D01*
X72924603Y-52922968D01*
G37*
G36*
X50572603Y-52922968D02*
X50572606Y-52922969D01*
X50572605Y-52922969D01*
X50747678Y-52995486D01*
X50747679Y-52995487D01*
X50905241Y-53100767D01*
X51039233Y-53234759D01*
X51092232Y-53314077D01*
X51144514Y-53392322D01*
X51162088Y-53434750D01*
X51217032Y-53567397D01*
X51254000Y-53753250D01*
X51254000Y-53942750D01*
X51217032Y-54128603D01*
X51217031Y-54128605D01*
X51144514Y-54303678D01*
X51144513Y-54303679D01*
X51039233Y-54461241D01*
X50905241Y-54595233D01*
X50825923Y-54648232D01*
X50747678Y-54700514D01*
X50612266Y-54756603D01*
X50572603Y-54773032D01*
X50386750Y-54810000D01*
X50197250Y-54810000D01*
X50011397Y-54773032D01*
X49971734Y-54756603D01*
X49836322Y-54700514D01*
X49758077Y-54648232D01*
X49678759Y-54595233D01*
X49544767Y-54461241D01*
X49439487Y-54303679D01*
X49439486Y-54303678D01*
X49366969Y-54128605D01*
X49366968Y-54128603D01*
X49330000Y-53942750D01*
X49330000Y-53753250D01*
X49366968Y-53567397D01*
X49421912Y-53434750D01*
X49439486Y-53392322D01*
X49491768Y-53314077D01*
X49544767Y-53234759D01*
X49678759Y-53100767D01*
X49836321Y-52995487D01*
X49836322Y-52995486D01*
X50011395Y-52922969D01*
X50011394Y-52922969D01*
X50011397Y-52922968D01*
X50197250Y-52886000D01*
X50386750Y-52886000D01*
X50572603Y-52922968D01*
X50572603Y-52922968D01*
G37*
G36*
X75464603Y-52922968D02*
X75464606Y-52922969D01*
X75464605Y-52922969D01*
X75639678Y-52995486D01*
X75639679Y-52995487D01*
X75797241Y-53100767D01*
X75931233Y-53234759D01*
X75984232Y-53314077D01*
X76036514Y-53392322D01*
X76054088Y-53434750D01*
X76109032Y-53567397D01*
X76146000Y-53753250D01*
X76146000Y-53942750D01*
X76109032Y-54128603D01*
X76109031Y-54128605D01*
X76036514Y-54303678D01*
X76036513Y-54303679D01*
X75931233Y-54461241D01*
X75797241Y-54595233D01*
X75717923Y-54648232D01*
X75639678Y-54700514D01*
X75504266Y-54756603D01*
X75464603Y-54773032D01*
X75278750Y-54810000D01*
X75089250Y-54810000D01*
X74903397Y-54773032D01*
X74863734Y-54756603D01*
X74728322Y-54700514D01*
X74650077Y-54648232D01*
X74570759Y-54595233D01*
X74436767Y-54461241D01*
X74331487Y-54303679D01*
X74331486Y-54303678D01*
X74258969Y-54128605D01*
X74258968Y-54128603D01*
X74222000Y-53942750D01*
X74222000Y-53753250D01*
X74258968Y-53567397D01*
X74313912Y-53434750D01*
X74331486Y-53392322D01*
X74383768Y-53314077D01*
X74436767Y-53234759D01*
X74570759Y-53100767D01*
X74728321Y-52995487D01*
X74728322Y-52995486D01*
X74903395Y-52922969D01*
X74903394Y-52922969D01*
X74903397Y-52922968D01*
X75089250Y-52886000D01*
X75278750Y-52886000D01*
X75464603Y-52922968D01*
X75464603Y-52922968D01*
G37*
G36*
X78004603Y-52922968D02*
X78004606Y-52922969D01*
X78004605Y-52922969D01*
X78179678Y-52995486D01*
X78179679Y-52995487D01*
X78337241Y-53100767D01*
X78471233Y-53234759D01*
X78524232Y-53314077D01*
X78576514Y-53392322D01*
X78594088Y-53434750D01*
X78649032Y-53567397D01*
X78686000Y-53753250D01*
X78686000Y-53942750D01*
X78649032Y-54128603D01*
X78649031Y-54128605D01*
X78576514Y-54303678D01*
X78576513Y-54303679D01*
X78471233Y-54461241D01*
X78337241Y-54595233D01*
X78257923Y-54648232D01*
X78179678Y-54700514D01*
X78044266Y-54756603D01*
X78004603Y-54773032D01*
X77818750Y-54810000D01*
X77629250Y-54810000D01*
X77443397Y-54773032D01*
X77403734Y-54756603D01*
X77268322Y-54700514D01*
X77190077Y-54648232D01*
X77110759Y-54595233D01*
X76976767Y-54461241D01*
X76871487Y-54303679D01*
X76871486Y-54303678D01*
X76798969Y-54128605D01*
X76798968Y-54128603D01*
X76762000Y-53942750D01*
X76762000Y-53753250D01*
X76798968Y-53567397D01*
X76853912Y-53434750D01*
X76871486Y-53392322D01*
X76923768Y-53314077D01*
X76976767Y-53234759D01*
X77110759Y-53100767D01*
X77268321Y-52995487D01*
X77268322Y-52995486D01*
X77443395Y-52922969D01*
X77443394Y-52922969D01*
X77443397Y-52922968D01*
X77629250Y-52886000D01*
X77818750Y-52886000D01*
X78004603Y-52922968D01*
X78004603Y-52922968D01*
G37*
G36*
X48032603Y-52922968D02*
X48032606Y-52922969D01*
X48032605Y-52922969D01*
X48207678Y-52995486D01*
X48207679Y-52995487D01*
X48365241Y-53100767D01*
X48499233Y-53234759D01*
X48552232Y-53314077D01*
X48604514Y-53392322D01*
X48622088Y-53434750D01*
X48677032Y-53567397D01*
X48714000Y-53753250D01*
X48714000Y-53942750D01*
X48677032Y-54128603D01*
X48677031Y-54128605D01*
X48604514Y-54303678D01*
X48604513Y-54303679D01*
X48499233Y-54461241D01*
X48365241Y-54595233D01*
X48285923Y-54648232D01*
X48207678Y-54700514D01*
X48072266Y-54756603D01*
X48032603Y-54773032D01*
X47846750Y-54810000D01*
X47657250Y-54810000D01*
X47471397Y-54773032D01*
X47431734Y-54756603D01*
X47296322Y-54700514D01*
X47218077Y-54648232D01*
X47138759Y-54595233D01*
X47004767Y-54461241D01*
X46899487Y-54303679D01*
X46899486Y-54303678D01*
X46826969Y-54128605D01*
X46826968Y-54128603D01*
X46790000Y-53942750D01*
X46790000Y-53753250D01*
X46826968Y-53567397D01*
X46881912Y-53434750D01*
X46899486Y-53392322D01*
X46951768Y-53314077D01*
X47004767Y-53234759D01*
X47138759Y-53100767D01*
X47296321Y-52995487D01*
X47296322Y-52995486D01*
X47471395Y-52922969D01*
X47471394Y-52922969D01*
X47471397Y-52922968D01*
X47657250Y-52886000D01*
X47846750Y-52886000D01*
X48032603Y-52922968D01*
X48032603Y-52922968D01*
G37*
G36*
X80544603Y-52922968D02*
X80544606Y-52922969D01*
X80544605Y-52922969D01*
X80719678Y-52995486D01*
X80719679Y-52995487D01*
X80877241Y-53100767D01*
X81011233Y-53234759D01*
X81064232Y-53314077D01*
X81116514Y-53392322D01*
X81134088Y-53434750D01*
X81189032Y-53567397D01*
X81226000Y-53753250D01*
X81226000Y-53942750D01*
X81189032Y-54128603D01*
X81189031Y-54128605D01*
X81116514Y-54303678D01*
X81116513Y-54303679D01*
X81011233Y-54461241D01*
X80877241Y-54595233D01*
X80797923Y-54648232D01*
X80719678Y-54700514D01*
X80584266Y-54756603D01*
X80544603Y-54773032D01*
X80358750Y-54810000D01*
X80169250Y-54810000D01*
X79983397Y-54773032D01*
X79943734Y-54756603D01*
X79808322Y-54700514D01*
X79730077Y-54648232D01*
X79650759Y-54595233D01*
X79516767Y-54461241D01*
X79411487Y-54303679D01*
X79411486Y-54303678D01*
X79338969Y-54128605D01*
X79338968Y-54128603D01*
X79302000Y-53942750D01*
X79302000Y-53753250D01*
X79338968Y-53567397D01*
X79393912Y-53434750D01*
X79411486Y-53392322D01*
X79463768Y-53314077D01*
X79516767Y-53234759D01*
X79650759Y-53100767D01*
X79808321Y-52995487D01*
X79808322Y-52995486D01*
X79983395Y-52922969D01*
X79983394Y-52922969D01*
X79983397Y-52922968D01*
X80169250Y-52886000D01*
X80358750Y-52886000D01*
X80544603Y-52922968D01*
X80544603Y-52922968D01*
G37*
G36*
X102388603Y-52922968D02*
X102388606Y-52922969D01*
X102388605Y-52922969D01*
X102563678Y-52995486D01*
X102563679Y-52995487D01*
X102721241Y-53100767D01*
X102855233Y-53234759D01*
X102908232Y-53314077D01*
X102960514Y-53392322D01*
X102978088Y-53434750D01*
X103033032Y-53567397D01*
X103070000Y-53753250D01*
X103070000Y-53942750D01*
X103033032Y-54128603D01*
X103033031Y-54128605D01*
X102960514Y-54303678D01*
X102960513Y-54303679D01*
X102855233Y-54461241D01*
X102721241Y-54595233D01*
X102641923Y-54648232D01*
X102563678Y-54700514D01*
X102428266Y-54756603D01*
X102388603Y-54773032D01*
X102202750Y-54810000D01*
X102013250Y-54810000D01*
X101827397Y-54773032D01*
X101787734Y-54756603D01*
X101652322Y-54700514D01*
X101574077Y-54648232D01*
X101494759Y-54595233D01*
X101360767Y-54461241D01*
X101255487Y-54303679D01*
X101255486Y-54303678D01*
X101182969Y-54128605D01*
X101182968Y-54128603D01*
X101146000Y-53942750D01*
X101146000Y-53753250D01*
X101182968Y-53567397D01*
X101237912Y-53434750D01*
X101255486Y-53392322D01*
X101307768Y-53314077D01*
X101360767Y-53234759D01*
X101494759Y-53100767D01*
X101652321Y-52995487D01*
X101652322Y-52995486D01*
X101827395Y-52922969D01*
X101827394Y-52922969D01*
X101827397Y-52922968D01*
X102013250Y-52886000D01*
X102202750Y-52886000D01*
X102388603Y-52922968D01*
X102388603Y-52922968D01*
G37*
G36*
X83084603Y-52922968D02*
X83084606Y-52922969D01*
X83084605Y-52922969D01*
X83259678Y-52995486D01*
X83259679Y-52995487D01*
X83417241Y-53100767D01*
X83551233Y-53234759D01*
X83604232Y-53314077D01*
X83656514Y-53392322D01*
X83674088Y-53434750D01*
X83729032Y-53567397D01*
X83766000Y-53753250D01*
X83766000Y-53942750D01*
X83729032Y-54128603D01*
X83729031Y-54128605D01*
X83656514Y-54303678D01*
X83656513Y-54303679D01*
X83551233Y-54461241D01*
X83417241Y-54595233D01*
X83337923Y-54648232D01*
X83259678Y-54700514D01*
X83124266Y-54756603D01*
X83084603Y-54773032D01*
X82898750Y-54810000D01*
X82709250Y-54810000D01*
X82523397Y-54773032D01*
X82483734Y-54756603D01*
X82348322Y-54700514D01*
X82270077Y-54648232D01*
X82190759Y-54595233D01*
X82056767Y-54461241D01*
X81951487Y-54303679D01*
X81951486Y-54303678D01*
X81878969Y-54128605D01*
X81878968Y-54128603D01*
X81842000Y-53942750D01*
X81842000Y-53753250D01*
X81878968Y-53567397D01*
X81933912Y-53434750D01*
X81951486Y-53392322D01*
X82003768Y-53314077D01*
X82056767Y-53234759D01*
X82190759Y-53100767D01*
X82348321Y-52995487D01*
X82348322Y-52995486D01*
X82523395Y-52922969D01*
X82523394Y-52922969D01*
X82523397Y-52922968D01*
X82709250Y-52886000D01*
X82898750Y-52886000D01*
X83084603Y-52922968D01*
X83084603Y-52922968D01*
G37*
G36*
X95276603Y-52922968D02*
X95276606Y-52922969D01*
X95276605Y-52922969D01*
X95451678Y-52995486D01*
X95451679Y-52995487D01*
X95609241Y-53100767D01*
X95743233Y-53234759D01*
X95796232Y-53314077D01*
X95848514Y-53392322D01*
X95866088Y-53434750D01*
X95921032Y-53567397D01*
X95958000Y-53753250D01*
X95958000Y-53942750D01*
X95921032Y-54128603D01*
X95921031Y-54128605D01*
X95848514Y-54303678D01*
X95848513Y-54303679D01*
X95743233Y-54461241D01*
X95609241Y-54595233D01*
X95529923Y-54648232D01*
X95451678Y-54700514D01*
X95316266Y-54756603D01*
X95276603Y-54773032D01*
X95090750Y-54810000D01*
X94901250Y-54810000D01*
X94715397Y-54773032D01*
X94675734Y-54756603D01*
X94540322Y-54700514D01*
X94462077Y-54648232D01*
X94382759Y-54595233D01*
X94248767Y-54461241D01*
X94143487Y-54303679D01*
X94143486Y-54303678D01*
X94070969Y-54128605D01*
X94070968Y-54128603D01*
X94034000Y-53942750D01*
X94034000Y-53753250D01*
X94070968Y-53567397D01*
X94125912Y-53434750D01*
X94143486Y-53392322D01*
X94195768Y-53314077D01*
X94248767Y-53234759D01*
X94382759Y-53100767D01*
X94540321Y-52995487D01*
X94540322Y-52995486D01*
X94715395Y-52922969D01*
X94715394Y-52922969D01*
X94715397Y-52922968D01*
X94901250Y-52886000D01*
X95090750Y-52886000D01*
X95276603Y-52922968D01*
X95276603Y-52922968D01*
G37*
G36*
X92736603Y-52922968D02*
X92736606Y-52922969D01*
X92736605Y-52922969D01*
X92911678Y-52995486D01*
X92911679Y-52995487D01*
X93069241Y-53100767D01*
X93203233Y-53234759D01*
X93256232Y-53314077D01*
X93308514Y-53392322D01*
X93326088Y-53434750D01*
X93381032Y-53567397D01*
X93418000Y-53753250D01*
X93418000Y-53942750D01*
X93381032Y-54128603D01*
X93381031Y-54128605D01*
X93308514Y-54303678D01*
X93308513Y-54303679D01*
X93203233Y-54461241D01*
X93069241Y-54595233D01*
X92989923Y-54648232D01*
X92911678Y-54700514D01*
X92776266Y-54756603D01*
X92736603Y-54773032D01*
X92550750Y-54810000D01*
X92361250Y-54810000D01*
X92175397Y-54773032D01*
X92135734Y-54756603D01*
X92000322Y-54700514D01*
X91922077Y-54648232D01*
X91842759Y-54595233D01*
X91708767Y-54461241D01*
X91603487Y-54303679D01*
X91603486Y-54303678D01*
X91530969Y-54128605D01*
X91530968Y-54128603D01*
X91494000Y-53942750D01*
X91494000Y-53753250D01*
X91530968Y-53567397D01*
X91585912Y-53434750D01*
X91603486Y-53392322D01*
X91655768Y-53314077D01*
X91708767Y-53234759D01*
X91842759Y-53100767D01*
X92000321Y-52995487D01*
X92000322Y-52995486D01*
X92175395Y-52922969D01*
X92175394Y-52922969D01*
X92175397Y-52922968D01*
X92361250Y-52886000D01*
X92550750Y-52886000D01*
X92736603Y-52922968D01*
X92736603Y-52922968D01*
G37*
G36*
X45492603Y-52922968D02*
X45492606Y-52922969D01*
X45492605Y-52922969D01*
X45667678Y-52995486D01*
X45667679Y-52995487D01*
X45825241Y-53100767D01*
X45959233Y-53234759D01*
X46012232Y-53314077D01*
X46064514Y-53392322D01*
X46082088Y-53434750D01*
X46137032Y-53567397D01*
X46174000Y-53753250D01*
X46174000Y-53942750D01*
X46137032Y-54128603D01*
X46137031Y-54128605D01*
X46064514Y-54303678D01*
X46064513Y-54303679D01*
X45959233Y-54461241D01*
X45825241Y-54595233D01*
X45745923Y-54648232D01*
X45667678Y-54700514D01*
X45532266Y-54756603D01*
X45492603Y-54773032D01*
X45306750Y-54810000D01*
X45117250Y-54810000D01*
X44931397Y-54773032D01*
X44891734Y-54756603D01*
X44756322Y-54700514D01*
X44678077Y-54648232D01*
X44598759Y-54595233D01*
X44464767Y-54461241D01*
X44359487Y-54303679D01*
X44359486Y-54303678D01*
X44286969Y-54128605D01*
X44286968Y-54128603D01*
X44250000Y-53942750D01*
X44250000Y-53753250D01*
X44286968Y-53567397D01*
X44341912Y-53434750D01*
X44359486Y-53392322D01*
X44411768Y-53314077D01*
X44464767Y-53234759D01*
X44598759Y-53100767D01*
X44756321Y-52995487D01*
X44756322Y-52995486D01*
X44931395Y-52922969D01*
X44931394Y-52922969D01*
X44931397Y-52922968D01*
X45117250Y-52886000D01*
X45306750Y-52886000D01*
X45492603Y-52922968D01*
X45492603Y-52922968D01*
G37*
G36*
X112548603Y-52922968D02*
X112548606Y-52922969D01*
X112548605Y-52922969D01*
X112723678Y-52995486D01*
X112723679Y-52995487D01*
X112881241Y-53100767D01*
X113015233Y-53234759D01*
X113068232Y-53314077D01*
X113120514Y-53392322D01*
X113138088Y-53434750D01*
X113193032Y-53567397D01*
X113230000Y-53753250D01*
X113230000Y-53942750D01*
X113193032Y-54128603D01*
X113193031Y-54128605D01*
X113120514Y-54303678D01*
X113120513Y-54303679D01*
X113015233Y-54461241D01*
X112881241Y-54595233D01*
X112801923Y-54648232D01*
X112723678Y-54700514D01*
X112588266Y-54756603D01*
X112548603Y-54773032D01*
X112362750Y-54810000D01*
X112173250Y-54810000D01*
X111987397Y-54773032D01*
X111947734Y-54756603D01*
X111812322Y-54700514D01*
X111734077Y-54648232D01*
X111654759Y-54595233D01*
X111520767Y-54461241D01*
X111415487Y-54303679D01*
X111415486Y-54303678D01*
X111342969Y-54128605D01*
X111342968Y-54128603D01*
X111306000Y-53942750D01*
X111306000Y-53753250D01*
X111342968Y-53567397D01*
X111397912Y-53434750D01*
X111415486Y-53392322D01*
X111467768Y-53314077D01*
X111520767Y-53234759D01*
X111654759Y-53100767D01*
X111812321Y-52995487D01*
X111812322Y-52995486D01*
X111987395Y-52922969D01*
X111987394Y-52922969D01*
X111987397Y-52922968D01*
X112173250Y-52886000D01*
X112362750Y-52886000D01*
X112548603Y-52922968D01*
X112548603Y-52922968D01*
G37*
G36*
X110008603Y-52922968D02*
X110008606Y-52922969D01*
X110008605Y-52922969D01*
X110183678Y-52995486D01*
X110183679Y-52995487D01*
X110341241Y-53100767D01*
X110475233Y-53234759D01*
X110528232Y-53314077D01*
X110580514Y-53392322D01*
X110598088Y-53434750D01*
X110653032Y-53567397D01*
X110690000Y-53753250D01*
X110690000Y-53942750D01*
X110653032Y-54128603D01*
X110653031Y-54128605D01*
X110580514Y-54303678D01*
X110580513Y-54303679D01*
X110475233Y-54461241D01*
X110341241Y-54595233D01*
X110261923Y-54648232D01*
X110183678Y-54700514D01*
X110048266Y-54756603D01*
X110008603Y-54773032D01*
X109822750Y-54810000D01*
X109633250Y-54810000D01*
X109447397Y-54773032D01*
X109407734Y-54756603D01*
X109272322Y-54700514D01*
X109194077Y-54648232D01*
X109114759Y-54595233D01*
X108980767Y-54461241D01*
X108875487Y-54303679D01*
X108875486Y-54303678D01*
X108802969Y-54128605D01*
X108802968Y-54128603D01*
X108766000Y-53942750D01*
X108766000Y-53753250D01*
X108802968Y-53567397D01*
X108857912Y-53434750D01*
X108875486Y-53392322D01*
X108927768Y-53314077D01*
X108980767Y-53234759D01*
X109114759Y-53100767D01*
X109272321Y-52995487D01*
X109272322Y-52995486D01*
X109447395Y-52922969D01*
X109447394Y-52922969D01*
X109447397Y-52922968D01*
X109633250Y-52886000D01*
X109822750Y-52886000D01*
X110008603Y-52922968D01*
X110008603Y-52922968D01*
G37*
G36*
X104928603Y-52922968D02*
X104928606Y-52922969D01*
X104928605Y-52922969D01*
X105103678Y-52995486D01*
X105103679Y-52995487D01*
X105261241Y-53100767D01*
X105395233Y-53234759D01*
X105448232Y-53314077D01*
X105500514Y-53392322D01*
X105518088Y-53434750D01*
X105573032Y-53567397D01*
X105610000Y-53753250D01*
X105610000Y-53942750D01*
X105573032Y-54128603D01*
X105573031Y-54128605D01*
X105500514Y-54303678D01*
X105500513Y-54303679D01*
X105395233Y-54461241D01*
X105261241Y-54595233D01*
X105181923Y-54648232D01*
X105103678Y-54700514D01*
X104968266Y-54756603D01*
X104928603Y-54773032D01*
X104742750Y-54810000D01*
X104553250Y-54810000D01*
X104367397Y-54773032D01*
X104327734Y-54756603D01*
X104192322Y-54700514D01*
X104114077Y-54648232D01*
X104034759Y-54595233D01*
X103900767Y-54461241D01*
X103795487Y-54303679D01*
X103795486Y-54303678D01*
X103722969Y-54128605D01*
X103722968Y-54128603D01*
X103686000Y-53942750D01*
X103686000Y-53753250D01*
X103722968Y-53567397D01*
X103777912Y-53434750D01*
X103795486Y-53392322D01*
X103847768Y-53314077D01*
X103900767Y-53234759D01*
X104034759Y-53100767D01*
X104192321Y-52995487D01*
X104192322Y-52995486D01*
X104367395Y-52922969D01*
X104367394Y-52922969D01*
X104367397Y-52922968D01*
X104553250Y-52886000D01*
X104742750Y-52886000D01*
X104928603Y-52922968D01*
X104928603Y-52922968D01*
G37*
G36*
X90196603Y-52922968D02*
X90196606Y-52922969D01*
X90196605Y-52922969D01*
X90371678Y-52995486D01*
X90371679Y-52995487D01*
X90529241Y-53100767D01*
X90663233Y-53234759D01*
X90716232Y-53314077D01*
X90768514Y-53392322D01*
X90786088Y-53434750D01*
X90841032Y-53567397D01*
X90878000Y-53753250D01*
X90878000Y-53942750D01*
X90841032Y-54128603D01*
X90841031Y-54128605D01*
X90768514Y-54303678D01*
X90768513Y-54303679D01*
X90663233Y-54461241D01*
X90529241Y-54595233D01*
X90449923Y-54648232D01*
X90371678Y-54700514D01*
X90236266Y-54756603D01*
X90196603Y-54773032D01*
X90010750Y-54810000D01*
X89821250Y-54810000D01*
X89635397Y-54773032D01*
X89595734Y-54756603D01*
X89460322Y-54700514D01*
X89382077Y-54648232D01*
X89302759Y-54595233D01*
X89168767Y-54461241D01*
X89063487Y-54303679D01*
X89063486Y-54303678D01*
X88990969Y-54128605D01*
X88990968Y-54128603D01*
X88954000Y-53942750D01*
X88954000Y-53753250D01*
X88990968Y-53567397D01*
X89045912Y-53434750D01*
X89063486Y-53392322D01*
X89115768Y-53314077D01*
X89168767Y-53234759D01*
X89302759Y-53100767D01*
X89460321Y-52995487D01*
X89460322Y-52995486D01*
X89635395Y-52922969D01*
X89635394Y-52922969D01*
X89635397Y-52922968D01*
X89821250Y-52886000D01*
X90010750Y-52886000D01*
X90196603Y-52922968D01*
X90196603Y-52922968D01*
G37*
G36*
X134392603Y-52414968D02*
X134392606Y-52414969D01*
X134392605Y-52414969D01*
X134567678Y-52487486D01*
X134567679Y-52487487D01*
X134725241Y-52592767D01*
X134859233Y-52726759D01*
X134859234Y-52726761D01*
X134964514Y-52884322D01*
X134980522Y-52922969D01*
X135037032Y-53059397D01*
X135074000Y-53245250D01*
X135074000Y-53434750D01*
X135037032Y-53620603D01*
X135037031Y-53620605D01*
X134964514Y-53795678D01*
X134964513Y-53795679D01*
X134859233Y-53953241D01*
X134725241Y-54087233D01*
X134663327Y-54128603D01*
X134567678Y-54192514D01*
X134432266Y-54248603D01*
X134392603Y-54265032D01*
X134206750Y-54302000D01*
X134017250Y-54302000D01*
X133831397Y-54265032D01*
X133791734Y-54248603D01*
X133656322Y-54192514D01*
X133560673Y-54128603D01*
X133498759Y-54087233D01*
X133364767Y-53953241D01*
X133259487Y-53795679D01*
X133259486Y-53795678D01*
X133186969Y-53620605D01*
X133186968Y-53620603D01*
X133150000Y-53434750D01*
X133150000Y-53245250D01*
X133186968Y-53059397D01*
X133243478Y-52922969D01*
X133259486Y-52884322D01*
X133364766Y-52726761D01*
X133364767Y-52726759D01*
X133498759Y-52592767D01*
X133656321Y-52487487D01*
X133656322Y-52487486D01*
X133831395Y-52414969D01*
X133831394Y-52414969D01*
X133831397Y-52414968D01*
X134017250Y-52378000D01*
X134206750Y-52378000D01*
X134392603Y-52414968D01*
X134392603Y-52414968D01*
G37*
G36*
X129312603Y-52414968D02*
X129312606Y-52414969D01*
X129312605Y-52414969D01*
X129487678Y-52487486D01*
X129487679Y-52487487D01*
X129645241Y-52592767D01*
X129779233Y-52726759D01*
X129779234Y-52726761D01*
X129884514Y-52884322D01*
X129900522Y-52922969D01*
X129957032Y-53059397D01*
X129994000Y-53245250D01*
X129994000Y-53434750D01*
X129957032Y-53620603D01*
X129957031Y-53620605D01*
X129884514Y-53795678D01*
X129884513Y-53795679D01*
X129779233Y-53953241D01*
X129645241Y-54087233D01*
X129583327Y-54128603D01*
X129487678Y-54192514D01*
X129352266Y-54248603D01*
X129312603Y-54265032D01*
X129126750Y-54302000D01*
X128937250Y-54302000D01*
X128751397Y-54265032D01*
X128711734Y-54248603D01*
X128576322Y-54192514D01*
X128480673Y-54128603D01*
X128418759Y-54087233D01*
X128284767Y-53953241D01*
X128179487Y-53795679D01*
X128179486Y-53795678D01*
X128106969Y-53620605D01*
X128106968Y-53620603D01*
X128070000Y-53434750D01*
X128070000Y-53245250D01*
X128106968Y-53059397D01*
X128163478Y-52922969D01*
X128179486Y-52884322D01*
X128284766Y-52726761D01*
X128284767Y-52726759D01*
X128418759Y-52592767D01*
X128576321Y-52487487D01*
X128576322Y-52487486D01*
X128751395Y-52414969D01*
X128751394Y-52414969D01*
X128751397Y-52414968D01*
X128937250Y-52378000D01*
X129126750Y-52378000D01*
X129312603Y-52414968D01*
X129312603Y-52414968D01*
G37*
G36*
X131852603Y-52414968D02*
X131852606Y-52414969D01*
X131852605Y-52414969D01*
X132027678Y-52487486D01*
X132027679Y-52487487D01*
X132185241Y-52592767D01*
X132319233Y-52726759D01*
X132319234Y-52726761D01*
X132424514Y-52884322D01*
X132440522Y-52922969D01*
X132497032Y-53059397D01*
X132534000Y-53245250D01*
X132534000Y-53434750D01*
X132497032Y-53620603D01*
X132497031Y-53620605D01*
X132424514Y-53795678D01*
X132424513Y-53795679D01*
X132319233Y-53953241D01*
X132185241Y-54087233D01*
X132123327Y-54128603D01*
X132027678Y-54192514D01*
X131892266Y-54248603D01*
X131852603Y-54265032D01*
X131666750Y-54302000D01*
X131477250Y-54302000D01*
X131291397Y-54265032D01*
X131251734Y-54248603D01*
X131116322Y-54192514D01*
X131020673Y-54128603D01*
X130958759Y-54087233D01*
X130824767Y-53953241D01*
X130719487Y-53795679D01*
X130719486Y-53795678D01*
X130646969Y-53620605D01*
X130646968Y-53620603D01*
X130610000Y-53434750D01*
X130610000Y-53245250D01*
X130646968Y-53059397D01*
X130703478Y-52922969D01*
X130719486Y-52884322D01*
X130824766Y-52726761D01*
X130824767Y-52726759D01*
X130958759Y-52592767D01*
X131116321Y-52487487D01*
X131116322Y-52487486D01*
X131291395Y-52414969D01*
X131291394Y-52414969D01*
X131291397Y-52414968D01*
X131477250Y-52378000D01*
X131666750Y-52378000D01*
X131852603Y-52414968D01*
X131852603Y-52414968D01*
G37*
G36*
X136932603Y-52414968D02*
X136932606Y-52414969D01*
X136932605Y-52414969D01*
X137107678Y-52487486D01*
X137107679Y-52487487D01*
X137265241Y-52592767D01*
X137399233Y-52726759D01*
X137399234Y-52726761D01*
X137504514Y-52884322D01*
X137520522Y-52922969D01*
X137577032Y-53059397D01*
X137614000Y-53245250D01*
X137614000Y-53434750D01*
X137577032Y-53620603D01*
X137577031Y-53620605D01*
X137504514Y-53795678D01*
X137504513Y-53795679D01*
X137399233Y-53953241D01*
X137265241Y-54087233D01*
X137203327Y-54128603D01*
X137107678Y-54192514D01*
X136972266Y-54248603D01*
X136932603Y-54265032D01*
X136746750Y-54302000D01*
X136557250Y-54302000D01*
X136371397Y-54265032D01*
X136331734Y-54248603D01*
X136196322Y-54192514D01*
X136100673Y-54128603D01*
X136038759Y-54087233D01*
X135904767Y-53953241D01*
X135799487Y-53795679D01*
X135799486Y-53795678D01*
X135726969Y-53620605D01*
X135726968Y-53620603D01*
X135690000Y-53434750D01*
X135690000Y-53245250D01*
X135726968Y-53059397D01*
X135783478Y-52922969D01*
X135799486Y-52884322D01*
X135904766Y-52726761D01*
X135904767Y-52726759D01*
X136038759Y-52592767D01*
X136196321Y-52487487D01*
X136196322Y-52487486D01*
X136371395Y-52414969D01*
X136371394Y-52414969D01*
X136371397Y-52414968D01*
X136557250Y-52378000D01*
X136746750Y-52378000D01*
X136932603Y-52414968D01*
X136932603Y-52414968D01*
G37*
G36*
X139472603Y-52414968D02*
X139472606Y-52414969D01*
X139472605Y-52414969D01*
X139647678Y-52487486D01*
X139647679Y-52487487D01*
X139805241Y-52592767D01*
X139939233Y-52726759D01*
X139939234Y-52726761D01*
X140044514Y-52884322D01*
X140060522Y-52922969D01*
X140117032Y-53059397D01*
X140154000Y-53245250D01*
X140154000Y-53434750D01*
X140117032Y-53620603D01*
X140117031Y-53620605D01*
X140044514Y-53795678D01*
X140044513Y-53795679D01*
X139939233Y-53953241D01*
X139805241Y-54087233D01*
X139743327Y-54128603D01*
X139647678Y-54192514D01*
X139512266Y-54248603D01*
X139472603Y-54265032D01*
X139286750Y-54302000D01*
X139097250Y-54302000D01*
X138911397Y-54265032D01*
X138871734Y-54248603D01*
X138736322Y-54192514D01*
X138640673Y-54128603D01*
X138578759Y-54087233D01*
X138444767Y-53953241D01*
X138339487Y-53795679D01*
X138339486Y-53795678D01*
X138266969Y-53620605D01*
X138266968Y-53620603D01*
X138230000Y-53434750D01*
X138230000Y-53245250D01*
X138266968Y-53059397D01*
X138323478Y-52922969D01*
X138339486Y-52884322D01*
X138444766Y-52726761D01*
X138444767Y-52726759D01*
X138578759Y-52592767D01*
X138736321Y-52487487D01*
X138736322Y-52487486D01*
X138911395Y-52414969D01*
X138911394Y-52414969D01*
X138911397Y-52414968D01*
X139097250Y-52378000D01*
X139286750Y-52378000D01*
X139472603Y-52414968D01*
X139472603Y-52414968D01*
G37*
G36*
X175694499Y-43360976D02*
X175694501Y-43360977D01*
X175694502Y-43360977D01*
X176044829Y-43506087D01*
X176044830Y-43506088D01*
X176360119Y-43716757D01*
X176628243Y-43984881D01*
X176628245Y-43984884D01*
X176838913Y-44300171D01*
X176966938Y-44609251D01*
X176984024Y-44650501D01*
X177058000Y-45022403D01*
X177058000Y-45401597D01*
X176984820Y-45769499D01*
X176984023Y-45773502D01*
X176838913Y-46123829D01*
X176838912Y-46123830D01*
X176628243Y-46439119D01*
X176360119Y-46707243D01*
X176360116Y-46707245D01*
X176044829Y-46917913D01*
X175694502Y-47063023D01*
X175694501Y-47063023D01*
X175694499Y-47063024D01*
X175322597Y-47137000D01*
X174943403Y-47137000D01*
X174571501Y-47063024D01*
X174571499Y-47063023D01*
X174571498Y-47063023D01*
X174221171Y-46917913D01*
X173905884Y-46707245D01*
X173905881Y-46707243D01*
X173637757Y-46439119D01*
X173427088Y-46123830D01*
X173427087Y-46123829D01*
X173281977Y-45773502D01*
X173281181Y-45769499D01*
X173208000Y-45401597D01*
X173208000Y-45022403D01*
X173281976Y-44650501D01*
X173299062Y-44609251D01*
X173427087Y-44300171D01*
X173637755Y-43984884D01*
X173637757Y-43984881D01*
X173905881Y-43716757D01*
X174221170Y-43506088D01*
X174221171Y-43506087D01*
X174571498Y-43360977D01*
X174571499Y-43360977D01*
X174571501Y-43360976D01*
X174943403Y-43287000D01*
X175322597Y-43287000D01*
X175694499Y-43360976D01*
X175694499Y-43360976D01*
G37*
G36*
X84635499Y-43360976D02*
X84635501Y-43360977D01*
X84635502Y-43360977D01*
X84985829Y-43506087D01*
X84985830Y-43506088D01*
X85301119Y-43716757D01*
X85569243Y-43984881D01*
X85569245Y-43984884D01*
X85779913Y-44300171D01*
X85907938Y-44609251D01*
X85925024Y-44650501D01*
X85999000Y-45022403D01*
X85999000Y-45401597D01*
X85925820Y-45769499D01*
X85925023Y-45773502D01*
X85779913Y-46123829D01*
X85779912Y-46123830D01*
X85569243Y-46439119D01*
X85301119Y-46707243D01*
X85301116Y-46707245D01*
X84985829Y-46917913D01*
X84635502Y-47063023D01*
X84635501Y-47063023D01*
X84635499Y-47063024D01*
X84263597Y-47137000D01*
X83884403Y-47137000D01*
X83512501Y-47063024D01*
X83512499Y-47063023D01*
X83512498Y-47063023D01*
X83162171Y-46917913D01*
X82846884Y-46707245D01*
X82846881Y-46707243D01*
X82578757Y-46439119D01*
X82368088Y-46123830D01*
X82368087Y-46123829D01*
X82222977Y-45773502D01*
X82222181Y-45769499D01*
X82149000Y-45401597D01*
X82149000Y-45022403D01*
X82222976Y-44650501D01*
X82240062Y-44609251D01*
X82368087Y-44300171D01*
X82578755Y-43984884D01*
X82578757Y-43984881D01*
X82846881Y-43716757D01*
X83162170Y-43506088D01*
X83162171Y-43506087D01*
X83512498Y-43360977D01*
X83512499Y-43360977D01*
X83512501Y-43360976D01*
X83884403Y-43287000D01*
X84263597Y-43287000D01*
X84635499Y-43360976D01*
X84635499Y-43360976D01*
G37*
G36*
X101399499Y-43360976D02*
X101399501Y-43360977D01*
X101399502Y-43360977D01*
X101749829Y-43506087D01*
X101749830Y-43506088D01*
X102065119Y-43716757D01*
X102333243Y-43984881D01*
X102333245Y-43984884D01*
X102543913Y-44300171D01*
X102671938Y-44609251D01*
X102689024Y-44650501D01*
X102763000Y-45022403D01*
X102763000Y-45401597D01*
X102689820Y-45769499D01*
X102689023Y-45773502D01*
X102543913Y-46123829D01*
X102543912Y-46123830D01*
X102333243Y-46439119D01*
X102065119Y-46707243D01*
X102065116Y-46707245D01*
X101749829Y-46917913D01*
X101399502Y-47063023D01*
X101399501Y-47063023D01*
X101399499Y-47063024D01*
X101027597Y-47137000D01*
X100648403Y-47137000D01*
X100276501Y-47063024D01*
X100276499Y-47063023D01*
X100276498Y-47063023D01*
X99926171Y-46917913D01*
X99610884Y-46707245D01*
X99610881Y-46707243D01*
X99342757Y-46439119D01*
X99132088Y-46123830D01*
X99132087Y-46123829D01*
X98986977Y-45773502D01*
X98986181Y-45769499D01*
X98913000Y-45401597D01*
X98913000Y-45022403D01*
X98986976Y-44650501D01*
X99004062Y-44609251D01*
X99132087Y-44300171D01*
X99342755Y-43984884D01*
X99342757Y-43984881D01*
X99610881Y-43716757D01*
X99926170Y-43506088D01*
X99926171Y-43506087D01*
X100276498Y-43360977D01*
X100276499Y-43360977D01*
X100276501Y-43360976D01*
X100648403Y-43287000D01*
X101027597Y-43287000D01*
X101399499Y-43360976D01*
X101399499Y-43360976D01*
G37*
G36*
X114099499Y-43360976D02*
X114099501Y-43360977D01*
X114099502Y-43360977D01*
X114449829Y-43506087D01*
X114449830Y-43506088D01*
X114765119Y-43716757D01*
X115033243Y-43984881D01*
X115033245Y-43984884D01*
X115243913Y-44300171D01*
X115371938Y-44609251D01*
X115389024Y-44650501D01*
X115463000Y-45022403D01*
X115463000Y-45401597D01*
X115389820Y-45769499D01*
X115389023Y-45773502D01*
X115243913Y-46123829D01*
X115243912Y-46123830D01*
X115033243Y-46439119D01*
X114765119Y-46707243D01*
X114765116Y-46707245D01*
X114449829Y-46917913D01*
X114099502Y-47063023D01*
X114099501Y-47063023D01*
X114099499Y-47063024D01*
X113727597Y-47137000D01*
X113348403Y-47137000D01*
X112976501Y-47063024D01*
X112976499Y-47063023D01*
X112976498Y-47063023D01*
X112626171Y-46917913D01*
X112310884Y-46707245D01*
X112310881Y-46707243D01*
X112042757Y-46439119D01*
X111832088Y-46123830D01*
X111832087Y-46123829D01*
X111686977Y-45773502D01*
X111686181Y-45769499D01*
X111613000Y-45401597D01*
X111613000Y-45022403D01*
X111686976Y-44650501D01*
X111704062Y-44609251D01*
X111832087Y-44300171D01*
X112042755Y-43984884D01*
X112042757Y-43984881D01*
X112310881Y-43716757D01*
X112626170Y-43506088D01*
X112626171Y-43506087D01*
X112976498Y-43360977D01*
X112976499Y-43360977D01*
X112976501Y-43360976D01*
X113348403Y-43287000D01*
X113727597Y-43287000D01*
X114099499Y-43360976D01*
X114099499Y-43360976D01*
G37*
G36*
X166423499Y-43360976D02*
X166423501Y-43360977D01*
X166423502Y-43360977D01*
X166773829Y-43506087D01*
X166773830Y-43506088D01*
X167089119Y-43716757D01*
X167357243Y-43984881D01*
X167357245Y-43984884D01*
X167567913Y-44300171D01*
X167695938Y-44609251D01*
X167713024Y-44650501D01*
X167787000Y-45022403D01*
X167787000Y-45401597D01*
X167713820Y-45769499D01*
X167713023Y-45773502D01*
X167567913Y-46123829D01*
X167567912Y-46123830D01*
X167357243Y-46439119D01*
X167089119Y-46707243D01*
X167089116Y-46707245D01*
X166773829Y-46917913D01*
X166423502Y-47063023D01*
X166423501Y-47063023D01*
X166423499Y-47063024D01*
X166051597Y-47137000D01*
X165672403Y-47137000D01*
X165300501Y-47063024D01*
X165300499Y-47063023D01*
X165300498Y-47063023D01*
X164950171Y-46917913D01*
X164634884Y-46707245D01*
X164634881Y-46707243D01*
X164366757Y-46439119D01*
X164156088Y-46123830D01*
X164156087Y-46123829D01*
X164010977Y-45773502D01*
X164010181Y-45769499D01*
X163937000Y-45401597D01*
X163937000Y-45022403D01*
X164010976Y-44650501D01*
X164028062Y-44609251D01*
X164156087Y-44300171D01*
X164366755Y-43984884D01*
X164366757Y-43984881D01*
X164634881Y-43716757D01*
X164950170Y-43506088D01*
X164950171Y-43506087D01*
X165300498Y-43360977D01*
X165300499Y-43360977D01*
X165300501Y-43360976D01*
X165672403Y-43287000D01*
X166051597Y-43287000D01*
X166423499Y-43360976D01*
X166423499Y-43360976D01*
G37*
G36*
X96827499Y-43360976D02*
X96827501Y-43360977D01*
X96827502Y-43360977D01*
X97177829Y-43506087D01*
X97177830Y-43506088D01*
X97493119Y-43716757D01*
X97761243Y-43984881D01*
X97761245Y-43984884D01*
X97971913Y-44300171D01*
X98099938Y-44609251D01*
X98117024Y-44650501D01*
X98191000Y-45022403D01*
X98191000Y-45401597D01*
X98117820Y-45769499D01*
X98117023Y-45773502D01*
X97971913Y-46123829D01*
X97971912Y-46123830D01*
X97761243Y-46439119D01*
X97493119Y-46707243D01*
X97493116Y-46707245D01*
X97177829Y-46917913D01*
X96827502Y-47063023D01*
X96827501Y-47063023D01*
X96827499Y-47063024D01*
X96455597Y-47137000D01*
X96076403Y-47137000D01*
X95704501Y-47063024D01*
X95704499Y-47063023D01*
X95704498Y-47063023D01*
X95354171Y-46917913D01*
X95038884Y-46707245D01*
X95038881Y-46707243D01*
X94770757Y-46439119D01*
X94560088Y-46123830D01*
X94560087Y-46123829D01*
X94414977Y-45773502D01*
X94414181Y-45769499D01*
X94341000Y-45401597D01*
X94341000Y-45022403D01*
X94414976Y-44650501D01*
X94432062Y-44609251D01*
X94560087Y-44300171D01*
X94770755Y-43984884D01*
X94770757Y-43984881D01*
X95038881Y-43716757D01*
X95354170Y-43506088D01*
X95354171Y-43506087D01*
X95704498Y-43360977D01*
X95704499Y-43360977D01*
X95704501Y-43360976D01*
X96076403Y-43287000D01*
X96455597Y-43287000D01*
X96827499Y-43360976D01*
X96827499Y-43360976D01*
G37*
G36*
X89207499Y-43360976D02*
X89207501Y-43360977D01*
X89207502Y-43360977D01*
X89557829Y-43506087D01*
X89557830Y-43506088D01*
X89873119Y-43716757D01*
X90141243Y-43984881D01*
X90141245Y-43984884D01*
X90351913Y-44300171D01*
X90479938Y-44609251D01*
X90497024Y-44650501D01*
X90571000Y-45022403D01*
X90571000Y-45401597D01*
X90497820Y-45769499D01*
X90497023Y-45773502D01*
X90351913Y-46123829D01*
X90351912Y-46123830D01*
X90141243Y-46439119D01*
X89873119Y-46707243D01*
X89873116Y-46707245D01*
X89557829Y-46917913D01*
X89207502Y-47063023D01*
X89207501Y-47063023D01*
X89207499Y-47063024D01*
X88835597Y-47137000D01*
X88456403Y-47137000D01*
X88084501Y-47063024D01*
X88084499Y-47063023D01*
X88084498Y-47063023D01*
X87734171Y-46917913D01*
X87418884Y-46707245D01*
X87418881Y-46707243D01*
X87150757Y-46439119D01*
X86940088Y-46123830D01*
X86940087Y-46123829D01*
X86794977Y-45773502D01*
X86794181Y-45769499D01*
X86721000Y-45401597D01*
X86721000Y-45022403D01*
X86794976Y-44650501D01*
X86812062Y-44609251D01*
X86940087Y-44300171D01*
X87150755Y-43984884D01*
X87150757Y-43984881D01*
X87418881Y-43716757D01*
X87734170Y-43506088D01*
X87734171Y-43506087D01*
X88084498Y-43360977D01*
X88084499Y-43360977D01*
X88084501Y-43360976D01*
X88456403Y-43287000D01*
X88835597Y-43287000D01*
X89207499Y-43360976D01*
X89207499Y-43360976D01*
G37*
G36*
X66855499Y-43360976D02*
X66855501Y-43360977D01*
X66855502Y-43360977D01*
X67205829Y-43506087D01*
X67205830Y-43506088D01*
X67521119Y-43716757D01*
X67789243Y-43984881D01*
X67789245Y-43984884D01*
X67999913Y-44300171D01*
X68127938Y-44609251D01*
X68145024Y-44650501D01*
X68219000Y-45022403D01*
X68219000Y-45401597D01*
X68145820Y-45769499D01*
X68145023Y-45773502D01*
X67999913Y-46123829D01*
X67999912Y-46123830D01*
X67789243Y-46439119D01*
X67521119Y-46707243D01*
X67521116Y-46707245D01*
X67205829Y-46917913D01*
X66855502Y-47063023D01*
X66855501Y-47063023D01*
X66855499Y-47063024D01*
X66483597Y-47137000D01*
X66104403Y-47137000D01*
X65732501Y-47063024D01*
X65732499Y-47063023D01*
X65732498Y-47063023D01*
X65382171Y-46917913D01*
X65066884Y-46707245D01*
X65066881Y-46707243D01*
X64798757Y-46439119D01*
X64588088Y-46123830D01*
X64588087Y-46123829D01*
X64442977Y-45773502D01*
X64442181Y-45769499D01*
X64369000Y-45401597D01*
X64369000Y-45022403D01*
X64442976Y-44650501D01*
X64460062Y-44609251D01*
X64588087Y-44300171D01*
X64798755Y-43984884D01*
X64798757Y-43984881D01*
X65066881Y-43716757D01*
X65382170Y-43506088D01*
X65382171Y-43506087D01*
X65732498Y-43360977D01*
X65732499Y-43360977D01*
X65732501Y-43360976D01*
X66104403Y-43287000D01*
X66483597Y-43287000D01*
X66855499Y-43360976D01*
X66855499Y-43360976D01*
G37*
G36*
X148643499Y-43360976D02*
X148643501Y-43360977D01*
X148643502Y-43360977D01*
X148993829Y-43506087D01*
X148993830Y-43506088D01*
X149309119Y-43716757D01*
X149577243Y-43984881D01*
X149577245Y-43984884D01*
X149787913Y-44300171D01*
X149915938Y-44609251D01*
X149933024Y-44650501D01*
X150007000Y-45022403D01*
X150007000Y-45401597D01*
X149933820Y-45769499D01*
X149933023Y-45773502D01*
X149787913Y-46123829D01*
X149787912Y-46123830D01*
X149577243Y-46439119D01*
X149309119Y-46707243D01*
X149309116Y-46707245D01*
X148993829Y-46917913D01*
X148643502Y-47063023D01*
X148643501Y-47063023D01*
X148643499Y-47063024D01*
X148271597Y-47137000D01*
X147892403Y-47137000D01*
X147520501Y-47063024D01*
X147520499Y-47063023D01*
X147520498Y-47063023D01*
X147170171Y-46917913D01*
X146854884Y-46707245D01*
X146854881Y-46707243D01*
X146586757Y-46439119D01*
X146376088Y-46123830D01*
X146376087Y-46123829D01*
X146230977Y-45773502D01*
X146230181Y-45769499D01*
X146157000Y-45401597D01*
X146157000Y-45022403D01*
X146230976Y-44650501D01*
X146248062Y-44609251D01*
X146376087Y-44300171D01*
X146586755Y-43984884D01*
X146586757Y-43984881D01*
X146854881Y-43716757D01*
X147170170Y-43506088D01*
X147170171Y-43506087D01*
X147520498Y-43360977D01*
X147520499Y-43360977D01*
X147520501Y-43360976D01*
X147892403Y-43287000D01*
X148271597Y-43287000D01*
X148643499Y-43360976D01*
X148643499Y-43360976D01*
G37*
G36*
X62283499Y-43360976D02*
X62283501Y-43360977D01*
X62283502Y-43360977D01*
X62633829Y-43506087D01*
X62633830Y-43506088D01*
X62949119Y-43716757D01*
X63217243Y-43984881D01*
X63217245Y-43984884D01*
X63427913Y-44300171D01*
X63555938Y-44609251D01*
X63573024Y-44650501D01*
X63647000Y-45022403D01*
X63647000Y-45401597D01*
X63573820Y-45769499D01*
X63573023Y-45773502D01*
X63427913Y-46123829D01*
X63427912Y-46123830D01*
X63217243Y-46439119D01*
X62949119Y-46707243D01*
X62949116Y-46707245D01*
X62633829Y-46917913D01*
X62283502Y-47063023D01*
X62283501Y-47063023D01*
X62283499Y-47063024D01*
X61911597Y-47137000D01*
X61532403Y-47137000D01*
X61160501Y-47063024D01*
X61160499Y-47063023D01*
X61160498Y-47063023D01*
X60810171Y-46917913D01*
X60494884Y-46707245D01*
X60494881Y-46707243D01*
X60226757Y-46439119D01*
X60016088Y-46123830D01*
X60016087Y-46123829D01*
X59870977Y-45773502D01*
X59870181Y-45769499D01*
X59797000Y-45401597D01*
X59797000Y-45022403D01*
X59870976Y-44650501D01*
X59888062Y-44609251D01*
X60016087Y-44300171D01*
X60226755Y-43984884D01*
X60226757Y-43984881D01*
X60494881Y-43716757D01*
X60810170Y-43506088D01*
X60810171Y-43506087D01*
X61160498Y-43360977D01*
X61160499Y-43360977D01*
X61160501Y-43360976D01*
X61532403Y-43287000D01*
X61911597Y-43287000D01*
X62283499Y-43360976D01*
X62283499Y-43360976D01*
G37*
G36*
X44503499Y-43360976D02*
X44503501Y-43360977D01*
X44503502Y-43360977D01*
X44853829Y-43506087D01*
X44853830Y-43506088D01*
X45169119Y-43716757D01*
X45437243Y-43984881D01*
X45437245Y-43984884D01*
X45647913Y-44300171D01*
X45775938Y-44609251D01*
X45793024Y-44650501D01*
X45867000Y-45022403D01*
X45867000Y-45401597D01*
X45793820Y-45769499D01*
X45793023Y-45773502D01*
X45647913Y-46123829D01*
X45647912Y-46123830D01*
X45437243Y-46439119D01*
X45169119Y-46707243D01*
X45169116Y-46707245D01*
X44853829Y-46917913D01*
X44503502Y-47063023D01*
X44503501Y-47063023D01*
X44503499Y-47063024D01*
X44131597Y-47137000D01*
X43752403Y-47137000D01*
X43380501Y-47063024D01*
X43380499Y-47063023D01*
X43380498Y-47063023D01*
X43030171Y-46917913D01*
X42714884Y-46707245D01*
X42714881Y-46707243D01*
X42446757Y-46439119D01*
X42236088Y-46123830D01*
X42236087Y-46123829D01*
X42090977Y-45773502D01*
X42090181Y-45769499D01*
X42017000Y-45401597D01*
X42017000Y-45022403D01*
X42090976Y-44650501D01*
X42108062Y-44609251D01*
X42236087Y-44300171D01*
X42446755Y-43984884D01*
X42446757Y-43984881D01*
X42714881Y-43716757D01*
X43030170Y-43506088D01*
X43030171Y-43506087D01*
X43380498Y-43360977D01*
X43380499Y-43360977D01*
X43380501Y-43360976D01*
X43752403Y-43287000D01*
X44131597Y-43287000D01*
X44503499Y-43360976D01*
X44503499Y-43360976D01*
G37*
G36*
X170866499Y-43356976D02*
X170866501Y-43356977D01*
X170866502Y-43356977D01*
X171216829Y-43502087D01*
X171527868Y-43709916D01*
X171532119Y-43712757D01*
X171800243Y-43980881D01*
X171800245Y-43980884D01*
X172010913Y-44296171D01*
X172140594Y-44609250D01*
X172156024Y-44646501D01*
X172230000Y-45018403D01*
X172230000Y-45397597D01*
X172183965Y-45629032D01*
X172156023Y-45769502D01*
X172010913Y-46119829D01*
X171803084Y-46430868D01*
X171800243Y-46435119D01*
X171532119Y-46703243D01*
X171532116Y-46703245D01*
X171216829Y-46913913D01*
X170866502Y-47059023D01*
X170866501Y-47059023D01*
X170866499Y-47059024D01*
X170494597Y-47133000D01*
X170115403Y-47133000D01*
X169743501Y-47059024D01*
X169743499Y-47059023D01*
X169743498Y-47059023D01*
X169393171Y-46913913D01*
X169077884Y-46703245D01*
X169077881Y-46703243D01*
X168809757Y-46435119D01*
X168806916Y-46430868D01*
X168599087Y-46119829D01*
X168453977Y-45769502D01*
X168426036Y-45629032D01*
X168380000Y-45397597D01*
X168380000Y-45018403D01*
X168453976Y-44646501D01*
X168469406Y-44609250D01*
X168599087Y-44296171D01*
X168809755Y-43980884D01*
X168809757Y-43980881D01*
X169077881Y-43712757D01*
X169082132Y-43709916D01*
X169393171Y-43502087D01*
X169743498Y-43356977D01*
X169743499Y-43356977D01*
X169743501Y-43356976D01*
X170115403Y-43283000D01*
X170494597Y-43283000D01*
X170866499Y-43356976D01*
X170866499Y-43356976D01*
G37*
G36*
X139472603Y-43778968D02*
X139472606Y-43778969D01*
X139472605Y-43778969D01*
X139647678Y-43851486D01*
X139647679Y-43851487D01*
X139805241Y-43956767D01*
X139939233Y-44090759D01*
X139939234Y-44090761D01*
X140044514Y-44248322D01*
X140065990Y-44300170D01*
X140117032Y-44423397D01*
X140154000Y-44609250D01*
X140154000Y-44798750D01*
X140117032Y-44984603D01*
X140117031Y-44984605D01*
X140044514Y-45159678D01*
X140044513Y-45159679D01*
X139939233Y-45317241D01*
X139805241Y-45451233D01*
X139725923Y-45504232D01*
X139647678Y-45556514D01*
X139512266Y-45612603D01*
X139472603Y-45629032D01*
X139286750Y-45666000D01*
X139097250Y-45666000D01*
X138911397Y-45629032D01*
X138871734Y-45612603D01*
X138736322Y-45556514D01*
X138658077Y-45504232D01*
X138578759Y-45451233D01*
X138444767Y-45317241D01*
X138339487Y-45159679D01*
X138339486Y-45159678D01*
X138266969Y-44984605D01*
X138266968Y-44984603D01*
X138230000Y-44798750D01*
X138230000Y-44609250D01*
X138266968Y-44423397D01*
X138318010Y-44300170D01*
X138339486Y-44248322D01*
X138444766Y-44090761D01*
X138444767Y-44090759D01*
X138578759Y-43956767D01*
X138736321Y-43851487D01*
X138736322Y-43851486D01*
X138911395Y-43778969D01*
X138911394Y-43778969D01*
X138911397Y-43778968D01*
X139097250Y-43742000D01*
X139286750Y-43742000D01*
X139472603Y-43778968D01*
X139472603Y-43778968D01*
G37*
G36*
X119152603Y-43778968D02*
X119152606Y-43778969D01*
X119152605Y-43778969D01*
X119327678Y-43851486D01*
X119327679Y-43851487D01*
X119485241Y-43956767D01*
X119619233Y-44090759D01*
X119619234Y-44090761D01*
X119724514Y-44248322D01*
X119745990Y-44300170D01*
X119797032Y-44423397D01*
X119834000Y-44609250D01*
X119834000Y-44798750D01*
X119797032Y-44984603D01*
X119797031Y-44984605D01*
X119724514Y-45159678D01*
X119724513Y-45159679D01*
X119619233Y-45317241D01*
X119485241Y-45451233D01*
X119405923Y-45504232D01*
X119327678Y-45556514D01*
X119192266Y-45612603D01*
X119152603Y-45629032D01*
X118966750Y-45666000D01*
X118777250Y-45666000D01*
X118591397Y-45629032D01*
X118551734Y-45612603D01*
X118416322Y-45556514D01*
X118338077Y-45504232D01*
X118258759Y-45451233D01*
X118124767Y-45317241D01*
X118019487Y-45159679D01*
X118019486Y-45159678D01*
X117946969Y-44984605D01*
X117946968Y-44984603D01*
X117910000Y-44798750D01*
X117910000Y-44609250D01*
X117946968Y-44423397D01*
X117998010Y-44300170D01*
X118019486Y-44248322D01*
X118124766Y-44090761D01*
X118124767Y-44090759D01*
X118258759Y-43956767D01*
X118416321Y-43851487D01*
X118416322Y-43851486D01*
X118591395Y-43778969D01*
X118591394Y-43778969D01*
X118591397Y-43778968D01*
X118777250Y-43742000D01*
X118966750Y-43742000D01*
X119152603Y-43778968D01*
X119152603Y-43778968D01*
G37*
G36*
X121692603Y-43778968D02*
X121692606Y-43778969D01*
X121692605Y-43778969D01*
X121867678Y-43851486D01*
X121867679Y-43851487D01*
X122025241Y-43956767D01*
X122159233Y-44090759D01*
X122159234Y-44090761D01*
X122264514Y-44248322D01*
X122285990Y-44300170D01*
X122337032Y-44423397D01*
X122374000Y-44609250D01*
X122374000Y-44798750D01*
X122337032Y-44984603D01*
X122337031Y-44984605D01*
X122264514Y-45159678D01*
X122264513Y-45159679D01*
X122159233Y-45317241D01*
X122025241Y-45451233D01*
X121945923Y-45504232D01*
X121867678Y-45556514D01*
X121732266Y-45612603D01*
X121692603Y-45629032D01*
X121506750Y-45666000D01*
X121317250Y-45666000D01*
X121131397Y-45629032D01*
X121091734Y-45612603D01*
X120956322Y-45556514D01*
X120878077Y-45504232D01*
X120798759Y-45451233D01*
X120664767Y-45317241D01*
X120559487Y-45159679D01*
X120559486Y-45159678D01*
X120486969Y-44984605D01*
X120486968Y-44984603D01*
X120450000Y-44798750D01*
X120450000Y-44609250D01*
X120486968Y-44423397D01*
X120538010Y-44300170D01*
X120559486Y-44248322D01*
X120664766Y-44090761D01*
X120664767Y-44090759D01*
X120798759Y-43956767D01*
X120956321Y-43851487D01*
X120956322Y-43851486D01*
X121131395Y-43778969D01*
X121131394Y-43778969D01*
X121131397Y-43778968D01*
X121317250Y-43742000D01*
X121506750Y-43742000D01*
X121692603Y-43778968D01*
X121692603Y-43778968D01*
G37*
G36*
X124232603Y-43778968D02*
X124232606Y-43778969D01*
X124232605Y-43778969D01*
X124407678Y-43851486D01*
X124407679Y-43851487D01*
X124565241Y-43956767D01*
X124699233Y-44090759D01*
X124699234Y-44090761D01*
X124804514Y-44248322D01*
X124825990Y-44300170D01*
X124877032Y-44423397D01*
X124914000Y-44609250D01*
X124914000Y-44798750D01*
X124877032Y-44984603D01*
X124877031Y-44984605D01*
X124804514Y-45159678D01*
X124804513Y-45159679D01*
X124699233Y-45317241D01*
X124565241Y-45451233D01*
X124485923Y-45504232D01*
X124407678Y-45556514D01*
X124272266Y-45612603D01*
X124232603Y-45629032D01*
X124046750Y-45666000D01*
X123857250Y-45666000D01*
X123671397Y-45629032D01*
X123631734Y-45612603D01*
X123496322Y-45556514D01*
X123418077Y-45504232D01*
X123338759Y-45451233D01*
X123204767Y-45317241D01*
X123099487Y-45159679D01*
X123099486Y-45159678D01*
X123026969Y-44984605D01*
X123026968Y-44984603D01*
X122990000Y-44798750D01*
X122990000Y-44609250D01*
X123026968Y-44423397D01*
X123078010Y-44300170D01*
X123099486Y-44248322D01*
X123204766Y-44090761D01*
X123204767Y-44090759D01*
X123338759Y-43956767D01*
X123496321Y-43851487D01*
X123496322Y-43851486D01*
X123671395Y-43778969D01*
X123671394Y-43778969D01*
X123671397Y-43778968D01*
X123857250Y-43742000D01*
X124046750Y-43742000D01*
X124232603Y-43778968D01*
X124232603Y-43778968D01*
G37*
G36*
X126772603Y-43778968D02*
X126772606Y-43778969D01*
X126772605Y-43778969D01*
X126947678Y-43851486D01*
X126947679Y-43851487D01*
X127105241Y-43956767D01*
X127239233Y-44090759D01*
X127239234Y-44090761D01*
X127344514Y-44248322D01*
X127365990Y-44300170D01*
X127417032Y-44423397D01*
X127454000Y-44609250D01*
X127454000Y-44798750D01*
X127417032Y-44984603D01*
X127417031Y-44984605D01*
X127344514Y-45159678D01*
X127344513Y-45159679D01*
X127239233Y-45317241D01*
X127105241Y-45451233D01*
X127025923Y-45504232D01*
X126947678Y-45556514D01*
X126812266Y-45612603D01*
X126772603Y-45629032D01*
X126586750Y-45666000D01*
X126397250Y-45666000D01*
X126211397Y-45629032D01*
X126171734Y-45612603D01*
X126036322Y-45556514D01*
X125958077Y-45504232D01*
X125878759Y-45451233D01*
X125744767Y-45317241D01*
X125639487Y-45159679D01*
X125639486Y-45159678D01*
X125566969Y-44984605D01*
X125566968Y-44984603D01*
X125530000Y-44798750D01*
X125530000Y-44609250D01*
X125566968Y-44423397D01*
X125618010Y-44300170D01*
X125639486Y-44248322D01*
X125744766Y-44090761D01*
X125744767Y-44090759D01*
X125878759Y-43956767D01*
X126036321Y-43851487D01*
X126036322Y-43851486D01*
X126211395Y-43778969D01*
X126211394Y-43778969D01*
X126211397Y-43778968D01*
X126397250Y-43742000D01*
X126586750Y-43742000D01*
X126772603Y-43778968D01*
X126772603Y-43778968D01*
G37*
G36*
X129312603Y-43778968D02*
X129312606Y-43778969D01*
X129312605Y-43778969D01*
X129487678Y-43851486D01*
X129487679Y-43851487D01*
X129645241Y-43956767D01*
X129779233Y-44090759D01*
X129779234Y-44090761D01*
X129884514Y-44248322D01*
X129905990Y-44300170D01*
X129957032Y-44423397D01*
X129994000Y-44609250D01*
X129994000Y-44798750D01*
X129957032Y-44984603D01*
X129957031Y-44984605D01*
X129884514Y-45159678D01*
X129884513Y-45159679D01*
X129779233Y-45317241D01*
X129645241Y-45451233D01*
X129565923Y-45504232D01*
X129487678Y-45556514D01*
X129352266Y-45612603D01*
X129312603Y-45629032D01*
X129126750Y-45666000D01*
X128937250Y-45666000D01*
X128751397Y-45629032D01*
X128711734Y-45612603D01*
X128576322Y-45556514D01*
X128498077Y-45504232D01*
X128418759Y-45451233D01*
X128284767Y-45317241D01*
X128179487Y-45159679D01*
X128179486Y-45159678D01*
X128106969Y-44984605D01*
X128106968Y-44984603D01*
X128070000Y-44798750D01*
X128070000Y-44609250D01*
X128106968Y-44423397D01*
X128158010Y-44300170D01*
X128179486Y-44248322D01*
X128284766Y-44090761D01*
X128284767Y-44090759D01*
X128418759Y-43956767D01*
X128576321Y-43851487D01*
X128576322Y-43851486D01*
X128751395Y-43778969D01*
X128751394Y-43778969D01*
X128751397Y-43778968D01*
X128937250Y-43742000D01*
X129126750Y-43742000D01*
X129312603Y-43778968D01*
X129312603Y-43778968D01*
G37*
G36*
X131852603Y-43778968D02*
X131852606Y-43778969D01*
X131852605Y-43778969D01*
X132027678Y-43851486D01*
X132027679Y-43851487D01*
X132185241Y-43956767D01*
X132319233Y-44090759D01*
X132319234Y-44090761D01*
X132424514Y-44248322D01*
X132445990Y-44300170D01*
X132497032Y-44423397D01*
X132534000Y-44609250D01*
X132534000Y-44798750D01*
X132497032Y-44984603D01*
X132497031Y-44984605D01*
X132424514Y-45159678D01*
X132424513Y-45159679D01*
X132319233Y-45317241D01*
X132185241Y-45451233D01*
X132105923Y-45504232D01*
X132027678Y-45556514D01*
X131892266Y-45612603D01*
X131852603Y-45629032D01*
X131666750Y-45666000D01*
X131477250Y-45666000D01*
X131291397Y-45629032D01*
X131251734Y-45612603D01*
X131116322Y-45556514D01*
X131038077Y-45504232D01*
X130958759Y-45451233D01*
X130824767Y-45317241D01*
X130719487Y-45159679D01*
X130719486Y-45159678D01*
X130646969Y-44984605D01*
X130646968Y-44984603D01*
X130610000Y-44798750D01*
X130610000Y-44609250D01*
X130646968Y-44423397D01*
X130698010Y-44300170D01*
X130719486Y-44248322D01*
X130824766Y-44090761D01*
X130824767Y-44090759D01*
X130958759Y-43956767D01*
X131116321Y-43851487D01*
X131116322Y-43851486D01*
X131291395Y-43778969D01*
X131291394Y-43778969D01*
X131291397Y-43778968D01*
X131477250Y-43742000D01*
X131666750Y-43742000D01*
X131852603Y-43778968D01*
X131852603Y-43778968D01*
G37*
G36*
X134392603Y-43778968D02*
X134392606Y-43778969D01*
X134392605Y-43778969D01*
X134567678Y-43851486D01*
X134567679Y-43851487D01*
X134725241Y-43956767D01*
X134859233Y-44090759D01*
X134859234Y-44090761D01*
X134964514Y-44248322D01*
X134985990Y-44300170D01*
X135037032Y-44423397D01*
X135074000Y-44609250D01*
X135074000Y-44798750D01*
X135037032Y-44984603D01*
X135037031Y-44984605D01*
X134964514Y-45159678D01*
X134964513Y-45159679D01*
X134859233Y-45317241D01*
X134725241Y-45451233D01*
X134645923Y-45504232D01*
X134567678Y-45556514D01*
X134432266Y-45612603D01*
X134392603Y-45629032D01*
X134206750Y-45666000D01*
X134017250Y-45666000D01*
X133831397Y-45629032D01*
X133791734Y-45612603D01*
X133656322Y-45556514D01*
X133578077Y-45504232D01*
X133498759Y-45451233D01*
X133364767Y-45317241D01*
X133259487Y-45159679D01*
X133259486Y-45159678D01*
X133186969Y-44984605D01*
X133186968Y-44984603D01*
X133150000Y-44798750D01*
X133150000Y-44609250D01*
X133186968Y-44423397D01*
X133238010Y-44300170D01*
X133259486Y-44248322D01*
X133364766Y-44090761D01*
X133364767Y-44090759D01*
X133498759Y-43956767D01*
X133656321Y-43851487D01*
X133656322Y-43851486D01*
X133831395Y-43778969D01*
X133831394Y-43778969D01*
X133831397Y-43778968D01*
X134017250Y-43742000D01*
X134206750Y-43742000D01*
X134392603Y-43778968D01*
X134392603Y-43778968D01*
G37*
G36*
X136932603Y-43778968D02*
X136932606Y-43778969D01*
X136932605Y-43778969D01*
X137107678Y-43851486D01*
X137107679Y-43851487D01*
X137265241Y-43956767D01*
X137399233Y-44090759D01*
X137399234Y-44090761D01*
X137504514Y-44248322D01*
X137525990Y-44300170D01*
X137577032Y-44423397D01*
X137614000Y-44609250D01*
X137614000Y-44798750D01*
X137577032Y-44984603D01*
X137577031Y-44984605D01*
X137504514Y-45159678D01*
X137504513Y-45159679D01*
X137399233Y-45317241D01*
X137265241Y-45451233D01*
X137185923Y-45504232D01*
X137107678Y-45556514D01*
X136972266Y-45612603D01*
X136932603Y-45629032D01*
X136746750Y-45666000D01*
X136557250Y-45666000D01*
X136371397Y-45629032D01*
X136331734Y-45612603D01*
X136196322Y-45556514D01*
X136118077Y-45504232D01*
X136038759Y-45451233D01*
X135904767Y-45317241D01*
X135799487Y-45159679D01*
X135799486Y-45159678D01*
X135726969Y-44984605D01*
X135726968Y-44984603D01*
X135690000Y-44798750D01*
X135690000Y-44609250D01*
X135726968Y-44423397D01*
X135778010Y-44300170D01*
X135799486Y-44248322D01*
X135904766Y-44090761D01*
X135904767Y-44090759D01*
X136038759Y-43956767D01*
X136196321Y-43851487D01*
X136196322Y-43851486D01*
X136371395Y-43778969D01*
X136371394Y-43778969D01*
X136371397Y-43778968D01*
X136557250Y-43742000D01*
X136746750Y-43742000D01*
X136932603Y-43778968D01*
X136932603Y-43778968D01*
G37*
M02*
