G04 #@! TF.GenerationSoftware,KiCad,Pcbnew,(5.0.0)*
G04 #@! TF.CreationDate,2019-04-05T17:45:58-05:00*
G04 #@! TF.ProjectId,ODriveInterfacingBoard,4F4472697665496E746572666163696E,rev?*
G04 #@! TF.SameCoordinates,Original*
G04 #@! TF.FileFunction,Copper,L2,Bot,Signal*
G04 #@! TF.FilePolarity,Positive*
%FSLAX46Y46*%
G04 Gerber Fmt 4.6, Leading zero omitted, Abs format (unit mm)*
G04 Created by KiCad (PCBNEW (5.0.0)) date 04/05/19 17:45:58*
%MOMM*%
%LPD*%
G01*
G04 APERTURE LIST*
G04 #@! TA.AperFunction,ComponentPad*
%ADD10C,1.700000*%
G04 #@! TD*
G04 #@! TA.AperFunction,ComponentPad*
%ADD11C,7.400000*%
G04 #@! TD*
G04 #@! TA.AperFunction,ComponentPad*
%ADD12O,2.540000X1.524000*%
G04 #@! TD*
G04 #@! TA.AperFunction,ComponentPad*
%ADD13C,5.080000*%
G04 #@! TD*
G04 #@! TA.AperFunction,ComponentPad*
%ADD14C,1.524000*%
G04 #@! TD*
G04 #@! TA.AperFunction,ViaPad*
%ADD15C,0.800000*%
G04 #@! TD*
G04 #@! TA.AperFunction,Conductor*
%ADD16C,2.286000*%
G04 #@! TD*
G04 #@! TA.AperFunction,Conductor*
%ADD17C,0.381000*%
G04 #@! TD*
G04 #@! TA.AperFunction,Conductor*
%ADD18C,7.400000*%
G04 #@! TD*
G04 #@! TA.AperFunction,Conductor*
%ADD19C,0.762000*%
G04 #@! TD*
G04 #@! TA.AperFunction,Conductor*
%ADD20C,0.254000*%
G04 #@! TD*
G04 APERTURE END LIST*
D10*
G04 #@! TO.P,U1,E1_3V3*
G04 #@! TO.N,+3V3*
X83948749Y-144741151D03*
G04 #@! TO.P,U1,E1_5V*
G04 #@! TO.N,/E1_5V*
X81408749Y-144741151D03*
G04 #@! TO.P,U1,E1_A*
G04 #@! TO.N,/E1_A*
X78868749Y-144741151D03*
G04 #@! TO.P,U1,E1_B*
G04 #@! TO.N,/E1_B*
X76328749Y-144741151D03*
G04 #@! TO.P,U1,E1_Z*
G04 #@! TO.N,/E1_Z*
X73788749Y-144741151D03*
G04 #@! TO.P,U1,E1_GND*
G04 #@! TO.N,/E1_GND*
X71248749Y-144741151D03*
G04 #@! TO.P,U1,E0_3V3*
G04 #@! TO.N,+3V3*
X68708749Y-144741151D03*
G04 #@! TO.P,U1,E0_5V*
G04 #@! TO.N,/E0_5V*
X66168749Y-144741151D03*
G04 #@! TO.P,U1,E0_A*
G04 #@! TO.N,/E0_A*
X63628749Y-144741151D03*
G04 #@! TO.P,U1,E0_B*
G04 #@! TO.N,/E0_B*
X61088749Y-144741151D03*
G04 #@! TO.P,U1,E0_Z*
G04 #@! TO.N,/E0_Z*
X58548749Y-144741151D03*
G04 #@! TO.P,U1,E0_GND*
G04 #@! TO.N,/E0_GND*
X56008749Y-144741151D03*
G04 #@! TO.P,U1,GND3*
G04 #@! TO.N,GND*
X115988717Y-144741151D03*
G04 #@! TO.P,U1,GND2*
X118528717Y-144741151D03*
G04 #@! TO.P,U1,GPIO8*
G04 #@! TO.N,GPIO_8*
X121068717Y-144741151D03*
G04 #@! TO.P,U1,GPIO7*
G04 #@! TO.N,GPIO_7*
X123608717Y-144741151D03*
G04 #@! TO.P,U1,GPIO6*
G04 #@! TO.N,GPIO_6*
X126148717Y-144741151D03*
G04 #@! TO.P,U1,GPIO5*
G04 #@! TO.N,GPIO_5*
X128688717Y-144741151D03*
G04 #@! TO.P,U1,GPIO4*
G04 #@! TO.N,GPIO_4*
X131228717Y-144741151D03*
G04 #@! TO.P,U1,GPIO3*
G04 #@! TO.N,GPIO_3*
X133768717Y-144741151D03*
G04 #@! TO.P,U1,GPIO2*
G04 #@! TO.N,Rx*
X136308717Y-144741151D03*
G04 #@! TO.P,U1,GPIO1*
G04 #@! TO.N,Tx*
X138848717Y-144741151D03*
G04 #@! TO.P,U1,MOSI*
G04 #@! TO.N,MOSI*
X141388717Y-144741151D03*
G04 #@! TO.P,U1,MISO*
G04 #@! TO.N,MISO*
X143928717Y-144741151D03*
G04 #@! TO.P,U1,SCK*
G04 #@! TO.N,SCK*
X146468717Y-144741151D03*
G04 #@! TO.P,U1,AGND*
G04 #@! TO.N,Net-(Conn1-Pad1)*
X149008717Y-144741151D03*
G04 #@! TO.P,U1,AVCC*
G04 #@! TO.N,Net-(Conn1-Pad2)*
X151548717Y-144741151D03*
G04 #@! TO.P,U1,GND1*
G04 #@! TO.N,GND*
X154088717Y-144741151D03*
G04 #@! TO.P,U1,CAN_L*
G04 #@! TO.N,CAN_L*
X156628717Y-144741151D03*
G04 #@! TO.P,U1,CAN_H*
G04 #@! TO.N,CAN_H*
X159168717Y-144741151D03*
G04 #@! TO.P,U1,GND0*
G04 #@! TO.N,GND*
X161708717Y-144741151D03*
G04 #@! TO.P,U1,3V3*
G04 #@! TO.N,+3V3*
X164248717Y-144741151D03*
D11*
G04 #@! TO.P,U1,M0_A*
G04 #@! TO.N,M0_A*
X53448717Y-100511151D03*
G04 #@! TO.P,U1,M0_B*
G04 #@! TO.N,M0_B*
X62948717Y-100511151D03*
G04 #@! TO.P,U1,M0_C*
G04 #@! TO.N,M0_C*
X72448717Y-100511151D03*
G04 #@! TO.P,U1,AUX_V+*
G04 #@! TO.N,Net-(50W2RJ1-Pad1)*
X98448717Y-100511151D03*
G04 #@! TO.P,U1,AUX_V-*
G04 #@! TO.N,Net-(50W2RJ1-Pad2)*
X109948717Y-100511151D03*
G04 #@! TO.P,U1,M1_A*
G04 #@! TO.N,M1_A*
X131948717Y-100511151D03*
G04 #@! TO.P,U1,M1_B*
G04 #@! TO.N,M1_B*
X141448717Y-100511151D03*
G04 #@! TO.P,U1,M1_C*
G04 #@! TO.N,M1_C*
X150948717Y-100511151D03*
G04 #@! TO.P,U1,PV+*
G04 #@! TO.N,/PV+*
X171948717Y-109511151D03*
G04 #@! TO.P,U1,GND*
G04 #@! TO.N,N/C*
X171948717Y-120011151D03*
G04 #@! TD*
D12*
G04 #@! TO.P,50W2RJ1,V+*
G04 #@! TO.N,Net-(50W2RJ1-Pad2)*
X142602900Y-74345800D03*
X142602900Y-70942200D03*
G04 #@! TO.P,50W2RJ1,V-*
G04 #@! TO.N,Net-(50W2RJ1-Pad1)*
X71265100Y-74345800D03*
X71265100Y-70942200D03*
G04 #@! TD*
D13*
G04 #@! TO.P,Conn3,1*
G04 #@! TO.N,/PV+*
X161036000Y-66548000D03*
G04 #@! TO.P,Conn3,4*
G04 #@! TO.N,GND*
X153162000Y-66548000D03*
G04 #@! TD*
G04 #@! TO.P,Conn7,3*
G04 #@! TO.N,M0_A*
X53340000Y-91567000D03*
G04 #@! TO.P,Conn7,2*
G04 #@! TO.N,M0_B*
X53340000Y-83693000D03*
G04 #@! TO.P,Conn7,1*
G04 #@! TO.N,M0_C*
X53340000Y-75819000D03*
G04 #@! TD*
G04 #@! TO.P,Conn8,1*
G04 #@! TO.N,M1_C*
X161036000Y-91313000D03*
G04 #@! TO.P,Conn8,2*
G04 #@! TO.N,M1_B*
X161036000Y-83439000D03*
G04 #@! TO.P,Conn8,3*
G04 #@! TO.N,M1_A*
X161036000Y-75565000D03*
G04 #@! TD*
D14*
G04 #@! TO.P,Conn9,1*
G04 #@! TO.N,Tx*
X103124000Y-61468000D03*
G04 #@! TO.P,Conn9,2*
G04 #@! TO.N,GND*
X105664000Y-61468000D03*
G04 #@! TO.P,Conn9,3*
G04 #@! TO.N,Rx*
X108204000Y-61468000D03*
G04 #@! TD*
D15*
G04 #@! TO.N,+3V3*
X164338000Y-135890000D03*
X105156000Y-135890000D03*
X101600000Y-65278000D03*
X105156000Y-65786000D03*
G04 #@! TO.N,GND*
X175260000Y-66040000D03*
X175260000Y-76200000D03*
X175260000Y-83820000D03*
X175260000Y-91440000D03*
X177800000Y-101600000D03*
X177800000Y-109220000D03*
X177800000Y-124460000D03*
X177800000Y-132080000D03*
X177800000Y-139700000D03*
X177800000Y-147320000D03*
X170180000Y-147320000D03*
X155067000Y-140462000D03*
X154940000Y-149860000D03*
X154940000Y-170180000D03*
X144780000Y-170180000D03*
X134620000Y-170180000D03*
X124460000Y-170180000D03*
X114300000Y-170180000D03*
X104140000Y-170180000D03*
X93980000Y-170180000D03*
X83820000Y-170180000D03*
X73660000Y-170180000D03*
X63500000Y-170180000D03*
X53340000Y-170180000D03*
X43180000Y-170180000D03*
X43180000Y-160020000D03*
X43180000Y-149860000D03*
X53340000Y-149860000D03*
X63500000Y-149860000D03*
X73660000Y-149860000D03*
X83820000Y-149860000D03*
X93980000Y-149860000D03*
X104140000Y-149860000D03*
X114300000Y-149860000D03*
X124460000Y-149860000D03*
X134620000Y-149860000D03*
X144780000Y-149860000D03*
X154940000Y-160020000D03*
X144780000Y-160020000D03*
X124460000Y-160020000D03*
X73660000Y-160020000D03*
X79756000Y-61214000D03*
X73152000Y-61214000D03*
X68580000Y-50800000D03*
X55880000Y-50800000D03*
X38100000Y-50800000D03*
X38100000Y-66040000D03*
X48260000Y-66040000D03*
X38100000Y-76200000D03*
X38100000Y-83820000D03*
X38100000Y-91440000D03*
X48260000Y-83820000D03*
X121920000Y-71120000D03*
X116840000Y-66040000D03*
X111760000Y-71120000D03*
X99060000Y-68580000D03*
X88900000Y-68580000D03*
X93980000Y-78740000D03*
X100838000Y-86360000D03*
X177800000Y-116840000D03*
X162560000Y-99060000D03*
X154940000Y-106680000D03*
X147320000Y-106680000D03*
X139700000Y-106680000D03*
X116840000Y-106680000D03*
X124460000Y-106680000D03*
X78740000Y-93980000D03*
X86360000Y-101600000D03*
X93980000Y-93980000D03*
X76200000Y-109220000D03*
X45720000Y-109220000D03*
X68580000Y-116840000D03*
X60960000Y-109220000D03*
X92710000Y-109220000D03*
X53340000Y-116840000D03*
X38100000Y-116840000D03*
X76200000Y-139700000D03*
X60960000Y-139700000D03*
X68580000Y-132080000D03*
X45720000Y-139700000D03*
X38100000Y-132080000D03*
X76200000Y-124460000D03*
X60960000Y-124460000D03*
X53340000Y-132080000D03*
X45720000Y-124460000D03*
X124460000Y-139700000D03*
X93980000Y-139700000D03*
X114300000Y-139700000D03*
X104140000Y-139700000D03*
X85090000Y-116840000D03*
X85090000Y-132080000D03*
X92710000Y-124460000D03*
X109220000Y-116840000D03*
X109220000Y-132080000D03*
X124460000Y-116840000D03*
X116840000Y-124460000D03*
X124460000Y-132080000D03*
X139700000Y-132080000D03*
X154940000Y-132080000D03*
X154940000Y-116840000D03*
X139700000Y-116840000D03*
X162560000Y-124460000D03*
X147320000Y-124460000D03*
X132080000Y-124460000D03*
X170180000Y-139700000D03*
X170180000Y-132080000D03*
X137160000Y-66040000D03*
X152400000Y-60960000D03*
X142240000Y-60960000D03*
X162560000Y-50800000D03*
X162560000Y-60960000D03*
X167640000Y-55880000D03*
X157480000Y-55880000D03*
X172720000Y-50800000D03*
X172720000Y-60960000D03*
X127000000Y-55880000D03*
X121920000Y-50800000D03*
X147320000Y-55880000D03*
X152400000Y-50800000D03*
X132080000Y-50800000D03*
X121920000Y-60960000D03*
X116840000Y-55880000D03*
X111760000Y-50800000D03*
X111760000Y-60960000D03*
X99060000Y-50800000D03*
X88900000Y-50800000D03*
X99060000Y-60960000D03*
X88900000Y-60960000D03*
X93980000Y-55880000D03*
X132080000Y-60960000D03*
X142240000Y-50800000D03*
X137160000Y-55880000D03*
X124460000Y-78740000D03*
X116840000Y-86360000D03*
X124460000Y-93980000D03*
X78740000Y-78740000D03*
X63500000Y-68580000D03*
X137160000Y-78740000D03*
G04 #@! TO.N,M1_B*
X76454000Y-61214000D03*
X141224000Y-110998000D03*
G04 #@! TO.N,M1_A*
X69850000Y-61214000D03*
X132080000Y-112014000D03*
G04 #@! TO.N,M1_C*
X83058000Y-61214000D03*
G04 #@! TO.N,Tx*
X138874500Y-133350000D03*
X103124000Y-133350000D03*
G04 #@! TO.N,Rx*
X136271000Y-134620000D03*
X104140000Y-134620000D03*
X100330000Y-64008000D03*
G04 #@! TD*
D16*
G04 #@! TO.N,Net-(50W2RJ1-Pad1)*
X96086517Y-74345800D02*
X71265100Y-74345800D01*
X98448717Y-100511151D02*
X98448717Y-76708000D01*
X98448717Y-76708000D02*
X96086517Y-74345800D01*
X71265100Y-70942200D02*
X71265100Y-74345800D01*
G04 #@! TO.N,Net-(50W2RJ1-Pad2)*
X112183917Y-74345800D02*
X142602900Y-74345800D01*
X109948717Y-100511151D02*
X109948717Y-76581000D01*
X109948717Y-76581000D02*
X112183917Y-74345800D01*
X142602900Y-70942200D02*
X142602900Y-74345800D01*
D17*
G04 #@! TO.N,+3V3*
X107188000Y-135890000D02*
X105156000Y-135890000D01*
X107188000Y-135890000D02*
X164338000Y-135890000D01*
X68708749Y-144741151D02*
X70271598Y-146304000D01*
X82385900Y-146304000D02*
X83948749Y-144741151D01*
X70271598Y-146304000D02*
X82385900Y-146304000D01*
X92799900Y-135890000D02*
X90513900Y-138176000D01*
X105156000Y-135890000D02*
X92799900Y-135890000D01*
X83948749Y-144741151D02*
X90513900Y-138176000D01*
X90513900Y-138176000D02*
X90767900Y-137922000D01*
X101600000Y-65278000D02*
X104648000Y-65278000D01*
X104648000Y-65278000D02*
X105156000Y-65786000D01*
D18*
G04 #@! TO.N,M0_A*
X53340000Y-91567000D02*
X53340000Y-100402434D01*
G04 #@! TO.N,M0_B*
X62948717Y-100511151D02*
X62948717Y-89709615D01*
X62948717Y-89709615D02*
X56932102Y-83693000D01*
X56932102Y-83693000D02*
X53340000Y-83693000D01*
G04 #@! TO.N,M0_C*
X72448717Y-95278561D02*
X72448717Y-100511151D01*
X72448717Y-85148717D02*
X72448717Y-95278561D01*
X53340000Y-75819000D02*
X63119000Y-75819000D01*
X63119000Y-75819000D02*
X72448717Y-85148717D01*
G04 #@! TO.N,M1_B*
X156591000Y-83439000D02*
X161036000Y-83439000D01*
X141448717Y-98581283D02*
X156591000Y-83439000D01*
X141448717Y-100511151D02*
X141448717Y-98581283D01*
D19*
X76454000Y-61214000D02*
X76454000Y-68997514D01*
X76454000Y-68997514D02*
X78576486Y-71120000D01*
X97626486Y-71120000D02*
X97680478Y-71173992D01*
X78576486Y-71120000D02*
X97626486Y-71120000D01*
X97680478Y-71173992D02*
X104086010Y-77579523D01*
X104086010Y-77579523D02*
X104086010Y-107043524D01*
X104086010Y-107043524D02*
X106090243Y-109047757D01*
X106090243Y-109047757D02*
X108040486Y-110998000D01*
X108040486Y-110998000D02*
X132515882Y-110998000D01*
X132515882Y-110998000D02*
X141224000Y-110998000D01*
D18*
G04 #@! TO.N,M1_A*
X157443898Y-75565000D02*
X161036000Y-75565000D01*
X131948717Y-100511151D02*
X131948717Y-95278561D01*
X151662278Y-75565000D02*
X157443898Y-75565000D01*
X131948717Y-95278561D02*
X151662278Y-75565000D01*
D19*
X69850000Y-61214000D02*
X69850000Y-63754000D01*
X69850000Y-63754000D02*
X78232000Y-72136000D01*
X78232000Y-72136000D02*
X96314835Y-72136000D01*
X96314835Y-72136000D02*
X97282000Y-72136000D01*
X97282000Y-72136000D02*
X100584000Y-75438000D01*
X100584000Y-75438000D02*
X103124000Y-77978000D01*
X103124000Y-77978000D02*
X103124000Y-105664000D01*
X103124000Y-105664000D02*
X103124000Y-107442000D01*
X103124000Y-107442000D02*
X107696000Y-112014000D01*
X107696000Y-112014000D02*
X132080000Y-112014000D01*
D18*
G04 #@! TO.N,M1_C*
X151837849Y-100511151D02*
X161036000Y-91313000D01*
X150948717Y-100511151D02*
X151837849Y-100511151D01*
D19*
X83058000Y-61214000D02*
X83058000Y-68580000D01*
X83058000Y-68580000D02*
X84635990Y-70157990D01*
X92710000Y-70157990D02*
X93418010Y-70157990D01*
X84635990Y-70157990D02*
X92710000Y-70157990D01*
X98097990Y-70231017D02*
X98097990Y-70157990D01*
X150948717Y-100511151D02*
X150948717Y-107369283D01*
X150948717Y-107369283D02*
X148336000Y-109982000D01*
X148336000Y-109982000D02*
X108384972Y-109982000D01*
X108384972Y-109982000D02*
X105048020Y-106645048D01*
X105048020Y-106645048D02*
X105048020Y-77181046D01*
X98097990Y-70157990D02*
X92710000Y-70157990D01*
X105048020Y-77181046D02*
X98097990Y-70231017D01*
D17*
G04 #@! TO.N,Tx*
X138938000Y-133350000D02*
X105664000Y-133350000D01*
X105664000Y-133350000D02*
X103124000Y-133350000D01*
G04 #@! TO.N,Rx*
X106680000Y-134620000D02*
X104140000Y-134620000D01*
X106680000Y-134620000D02*
X106299000Y-134620000D01*
X136271000Y-134620000D02*
X106680000Y-134620000D01*
X105664000Y-64008000D02*
X108204000Y-61468000D01*
X100330000Y-64008000D02*
X105664000Y-64008000D01*
D18*
G04 #@! TO.N,/PV+*
X168636010Y-70555908D02*
X164628102Y-66548000D01*
X164628102Y-66548000D02*
X161036000Y-66548000D01*
X171948717Y-109511151D02*
X168636010Y-106198444D01*
X168636010Y-106198444D02*
X168636010Y-70555908D01*
G04 #@! TD*
D20*
G04 #@! TO.N,GND*
G36*
X177661009Y-48776090D02*
X178000352Y-48930381D01*
X178282752Y-49173712D01*
X178485506Y-49486523D01*
X178599348Y-49867184D01*
X178614001Y-50064363D01*
X178614000Y-52000074D01*
X178614000Y-52000075D01*
X178614001Y-147269412D01*
X178553910Y-147689009D01*
X178399619Y-148028352D01*
X178156288Y-148310752D01*
X177843479Y-148513506D01*
X177462815Y-148627348D01*
X177265649Y-148642000D01*
X161474074Y-148642000D01*
X161448085Y-148647170D01*
X161191033Y-148666272D01*
X161120288Y-148681826D01*
X161048544Y-148691654D01*
X161040219Y-148694088D01*
X160488241Y-148859164D01*
X160400769Y-148899582D01*
X160312806Y-148938929D01*
X160305502Y-148943601D01*
X160305498Y-148943603D01*
X160305499Y-148943603D01*
X159822040Y-149256966D01*
X159749447Y-149320293D01*
X159676045Y-149382763D01*
X159670343Y-149389300D01*
X159294266Y-149825759D01*
X159242347Y-149906942D01*
X159189446Y-149987475D01*
X159185808Y-149995350D01*
X158947347Y-150519817D01*
X158920300Y-150612309D01*
X158892129Y-150704452D01*
X158890847Y-150713031D01*
X158811893Y-151264340D01*
X158802000Y-151314075D01*
X158802001Y-158901281D01*
X158716491Y-158927423D01*
X158624033Y-158954460D01*
X158616159Y-158958098D01*
X158094644Y-159202948D01*
X158014075Y-159255872D01*
X157932927Y-159307768D01*
X157926390Y-159313470D01*
X157494558Y-159694851D01*
X157432096Y-159768244D01*
X157368760Y-159840847D01*
X157364087Y-159848154D01*
X157056654Y-160335407D01*
X157017298Y-160423387D01*
X156976889Y-160510840D01*
X156974457Y-160519160D01*
X156974454Y-160519166D01*
X156974453Y-160519173D01*
X156816134Y-161073118D01*
X156803056Y-161168586D01*
X156788813Y-161263890D01*
X156788813Y-161272564D01*
X156792333Y-161848687D01*
X156806588Y-161944068D01*
X156819654Y-162039455D01*
X156822088Y-162047781D01*
X156987164Y-162599758D01*
X157027591Y-162687250D01*
X157066930Y-162775194D01*
X157071603Y-162782501D01*
X157384966Y-163265961D01*
X157448328Y-163338594D01*
X157510763Y-163411955D01*
X157517296Y-163417654D01*
X157517300Y-163417658D01*
X157517305Y-163417661D01*
X157953759Y-163793734D01*
X158034942Y-163845653D01*
X158115475Y-163898554D01*
X158123346Y-163902190D01*
X158123349Y-163902192D01*
X158123352Y-163902193D01*
X158647817Y-164140653D01*
X158740309Y-164167700D01*
X158802000Y-164186561D01*
X158802001Y-172161412D01*
X158741910Y-172581009D01*
X158587619Y-172920352D01*
X158344288Y-173202752D01*
X158031479Y-173405506D01*
X157650815Y-173519348D01*
X157453649Y-173534000D01*
X37134581Y-173534000D01*
X36714991Y-173473910D01*
X36375648Y-173319619D01*
X36093248Y-173076288D01*
X35890494Y-172763479D01*
X35776652Y-172382815D01*
X35762000Y-172185649D01*
X35762000Y-164186719D01*
X35847509Y-164160577D01*
X35939967Y-164133540D01*
X35947841Y-164129902D01*
X36469356Y-163885052D01*
X36549925Y-163832128D01*
X36631073Y-163780232D01*
X36637610Y-163774530D01*
X37069442Y-163393149D01*
X37131887Y-163319776D01*
X37195240Y-163247153D01*
X37199913Y-163239846D01*
X37507346Y-162752593D01*
X37546687Y-162664645D01*
X37587111Y-162577160D01*
X37589545Y-162568835D01*
X37747866Y-162014882D01*
X37760943Y-161919421D01*
X37775187Y-161824111D01*
X37775187Y-161815436D01*
X37771667Y-161239313D01*
X37757414Y-161143943D01*
X37744346Y-161048544D01*
X37741912Y-161040219D01*
X37576836Y-160488241D01*
X37536418Y-160400769D01*
X37497071Y-160312806D01*
X37492397Y-160305499D01*
X37179034Y-159822040D01*
X37115707Y-159749447D01*
X37053237Y-159676045D01*
X37046700Y-159670343D01*
X36610241Y-159294266D01*
X36529058Y-159242347D01*
X36448525Y-159189446D01*
X36440654Y-159185810D01*
X36440651Y-159185808D01*
X36440648Y-159185807D01*
X35916183Y-158947347D01*
X35823691Y-158920300D01*
X35762000Y-158901439D01*
X35762000Y-143046691D01*
X36613717Y-143046691D01*
X36613717Y-143975611D01*
X36969200Y-144833822D01*
X37626046Y-145490668D01*
X38484257Y-145846151D01*
X39413177Y-145846151D01*
X40271388Y-145490668D01*
X40928234Y-144833822D01*
X41088972Y-144445766D01*
X54523749Y-144445766D01*
X54523749Y-145036536D01*
X54749827Y-145582336D01*
X55167564Y-146000073D01*
X55713364Y-146226151D01*
X56304134Y-146226151D01*
X56849934Y-146000073D01*
X57267671Y-145582336D01*
X57278749Y-145555591D01*
X57289827Y-145582336D01*
X57707564Y-146000073D01*
X58253364Y-146226151D01*
X58844134Y-146226151D01*
X59389934Y-146000073D01*
X59807671Y-145582336D01*
X59818749Y-145555591D01*
X59829827Y-145582336D01*
X60247564Y-146000073D01*
X60793364Y-146226151D01*
X61384134Y-146226151D01*
X61929934Y-146000073D01*
X62347671Y-145582336D01*
X62358749Y-145555591D01*
X62369827Y-145582336D01*
X62787564Y-146000073D01*
X63333364Y-146226151D01*
X63924134Y-146226151D01*
X64469934Y-146000073D01*
X64887671Y-145582336D01*
X64898749Y-145555591D01*
X64909827Y-145582336D01*
X65327564Y-146000073D01*
X65873364Y-146226151D01*
X66464134Y-146226151D01*
X67009934Y-146000073D01*
X67427671Y-145582336D01*
X67438749Y-145555591D01*
X67449827Y-145582336D01*
X67867564Y-146000073D01*
X68413364Y-146226151D01*
X69004134Y-146226151D01*
X69019819Y-146219654D01*
X69630391Y-146830226D01*
X69676446Y-146899152D01*
X69949504Y-147081604D01*
X70190295Y-147129500D01*
X70190299Y-147129500D01*
X70271597Y-147145671D01*
X70352895Y-147129500D01*
X82304599Y-147129500D01*
X82385900Y-147145672D01*
X82467201Y-147129500D01*
X82467203Y-147129500D01*
X82707994Y-147081604D01*
X82981052Y-146899152D01*
X83027109Y-146830223D01*
X83637679Y-146219654D01*
X83653364Y-146226151D01*
X84244134Y-146226151D01*
X84789934Y-146000073D01*
X85207671Y-145582336D01*
X85433749Y-145036536D01*
X85433749Y-144445766D01*
X119583717Y-144445766D01*
X119583717Y-145036536D01*
X119809795Y-145582336D01*
X120227532Y-146000073D01*
X120773332Y-146226151D01*
X121364102Y-146226151D01*
X121909902Y-146000073D01*
X122327639Y-145582336D01*
X122338717Y-145555591D01*
X122349795Y-145582336D01*
X122767532Y-146000073D01*
X123313332Y-146226151D01*
X123904102Y-146226151D01*
X124449902Y-146000073D01*
X124867639Y-145582336D01*
X124878717Y-145555591D01*
X124889795Y-145582336D01*
X125307532Y-146000073D01*
X125853332Y-146226151D01*
X126444102Y-146226151D01*
X126989902Y-146000073D01*
X127407639Y-145582336D01*
X127418717Y-145555591D01*
X127429795Y-145582336D01*
X127847532Y-146000073D01*
X128393332Y-146226151D01*
X128984102Y-146226151D01*
X129529902Y-146000073D01*
X129947639Y-145582336D01*
X129958717Y-145555591D01*
X129969795Y-145582336D01*
X130387532Y-146000073D01*
X130933332Y-146226151D01*
X131524102Y-146226151D01*
X132069902Y-146000073D01*
X132487639Y-145582336D01*
X132498717Y-145555591D01*
X132509795Y-145582336D01*
X132927532Y-146000073D01*
X133473332Y-146226151D01*
X134064102Y-146226151D01*
X134609902Y-146000073D01*
X135027639Y-145582336D01*
X135038717Y-145555591D01*
X135049795Y-145582336D01*
X135467532Y-146000073D01*
X136013332Y-146226151D01*
X136604102Y-146226151D01*
X137149902Y-146000073D01*
X137567639Y-145582336D01*
X137578717Y-145555591D01*
X137589795Y-145582336D01*
X138007532Y-146000073D01*
X138553332Y-146226151D01*
X139144102Y-146226151D01*
X139689902Y-146000073D01*
X140107639Y-145582336D01*
X140118717Y-145555591D01*
X140129795Y-145582336D01*
X140547532Y-146000073D01*
X141093332Y-146226151D01*
X141684102Y-146226151D01*
X142229902Y-146000073D01*
X142647639Y-145582336D01*
X142658717Y-145555591D01*
X142669795Y-145582336D01*
X143087532Y-146000073D01*
X143633332Y-146226151D01*
X144224102Y-146226151D01*
X144769902Y-146000073D01*
X145187639Y-145582336D01*
X145198717Y-145555591D01*
X145209795Y-145582336D01*
X145627532Y-146000073D01*
X146173332Y-146226151D01*
X146764102Y-146226151D01*
X147309902Y-146000073D01*
X147727639Y-145582336D01*
X147738717Y-145555591D01*
X147749795Y-145582336D01*
X148167532Y-146000073D01*
X148713332Y-146226151D01*
X149304102Y-146226151D01*
X149849902Y-146000073D01*
X150267639Y-145582336D01*
X150278717Y-145555591D01*
X150289795Y-145582336D01*
X150707532Y-146000073D01*
X151253332Y-146226151D01*
X151844102Y-146226151D01*
X152389902Y-146000073D01*
X152807639Y-145582336D01*
X153033717Y-145036536D01*
X153033717Y-144445766D01*
X155143717Y-144445766D01*
X155143717Y-145036536D01*
X155369795Y-145582336D01*
X155787532Y-146000073D01*
X156333332Y-146226151D01*
X156924102Y-146226151D01*
X157469902Y-146000073D01*
X157887639Y-145582336D01*
X157898717Y-145555591D01*
X157909795Y-145582336D01*
X158327532Y-146000073D01*
X158873332Y-146226151D01*
X159464102Y-146226151D01*
X160009902Y-146000073D01*
X160427639Y-145582336D01*
X160653717Y-145036536D01*
X160653717Y-144445766D01*
X162763717Y-144445766D01*
X162763717Y-145036536D01*
X162989795Y-145582336D01*
X163407532Y-146000073D01*
X163953332Y-146226151D01*
X164544102Y-146226151D01*
X165089902Y-146000073D01*
X165507639Y-145582336D01*
X165733717Y-145036536D01*
X165733717Y-144445766D01*
X165507639Y-143899966D01*
X165089902Y-143482229D01*
X164544102Y-143256151D01*
X163953332Y-143256151D01*
X163407532Y-143482229D01*
X162989795Y-143899966D01*
X162763717Y-144445766D01*
X160653717Y-144445766D01*
X160427639Y-143899966D01*
X160009902Y-143482229D01*
X159464102Y-143256151D01*
X158873332Y-143256151D01*
X158327532Y-143482229D01*
X157909795Y-143899966D01*
X157898717Y-143926711D01*
X157887639Y-143899966D01*
X157469902Y-143482229D01*
X156924102Y-143256151D01*
X156333332Y-143256151D01*
X155787532Y-143482229D01*
X155369795Y-143899966D01*
X155143717Y-144445766D01*
X153033717Y-144445766D01*
X152807639Y-143899966D01*
X152389902Y-143482229D01*
X151844102Y-143256151D01*
X151253332Y-143256151D01*
X150707532Y-143482229D01*
X150289795Y-143899966D01*
X150278717Y-143926711D01*
X150267639Y-143899966D01*
X149849902Y-143482229D01*
X149304102Y-143256151D01*
X148713332Y-143256151D01*
X148167532Y-143482229D01*
X147749795Y-143899966D01*
X147738717Y-143926711D01*
X147727639Y-143899966D01*
X147309902Y-143482229D01*
X146764102Y-143256151D01*
X146173332Y-143256151D01*
X145627532Y-143482229D01*
X145209795Y-143899966D01*
X145198717Y-143926711D01*
X145187639Y-143899966D01*
X144769902Y-143482229D01*
X144224102Y-143256151D01*
X143633332Y-143256151D01*
X143087532Y-143482229D01*
X142669795Y-143899966D01*
X142658717Y-143926711D01*
X142647639Y-143899966D01*
X142229902Y-143482229D01*
X141684102Y-143256151D01*
X141093332Y-143256151D01*
X140547532Y-143482229D01*
X140129795Y-143899966D01*
X140118717Y-143926711D01*
X140107639Y-143899966D01*
X139689902Y-143482229D01*
X139144102Y-143256151D01*
X138553332Y-143256151D01*
X138007532Y-143482229D01*
X137589795Y-143899966D01*
X137578717Y-143926711D01*
X137567639Y-143899966D01*
X137149902Y-143482229D01*
X136604102Y-143256151D01*
X136013332Y-143256151D01*
X135467532Y-143482229D01*
X135049795Y-143899966D01*
X135038717Y-143926711D01*
X135027639Y-143899966D01*
X134609902Y-143482229D01*
X134064102Y-143256151D01*
X133473332Y-143256151D01*
X132927532Y-143482229D01*
X132509795Y-143899966D01*
X132498717Y-143926711D01*
X132487639Y-143899966D01*
X132069902Y-143482229D01*
X131524102Y-143256151D01*
X130933332Y-143256151D01*
X130387532Y-143482229D01*
X129969795Y-143899966D01*
X129958717Y-143926711D01*
X129947639Y-143899966D01*
X129529902Y-143482229D01*
X128984102Y-143256151D01*
X128393332Y-143256151D01*
X127847532Y-143482229D01*
X127429795Y-143899966D01*
X127418717Y-143926711D01*
X127407639Y-143899966D01*
X126989902Y-143482229D01*
X126444102Y-143256151D01*
X125853332Y-143256151D01*
X125307532Y-143482229D01*
X124889795Y-143899966D01*
X124878717Y-143926711D01*
X124867639Y-143899966D01*
X124449902Y-143482229D01*
X123904102Y-143256151D01*
X123313332Y-143256151D01*
X122767532Y-143482229D01*
X122349795Y-143899966D01*
X122338717Y-143926711D01*
X122327639Y-143899966D01*
X121909902Y-143482229D01*
X121364102Y-143256151D01*
X120773332Y-143256151D01*
X120227532Y-143482229D01*
X119809795Y-143899966D01*
X119583717Y-144445766D01*
X85433749Y-144445766D01*
X85427252Y-144430080D01*
X86810641Y-143046691D01*
X172113717Y-143046691D01*
X172113717Y-143975611D01*
X172469200Y-144833822D01*
X173126046Y-145490668D01*
X173984257Y-145846151D01*
X174913177Y-145846151D01*
X175771388Y-145490668D01*
X176428234Y-144833822D01*
X176783717Y-143975611D01*
X176783717Y-143046691D01*
X176428234Y-142188480D01*
X175771388Y-141531634D01*
X174913177Y-141176151D01*
X173984257Y-141176151D01*
X173126046Y-141531634D01*
X172469200Y-142188480D01*
X172113717Y-143046691D01*
X86810641Y-143046691D01*
X91155106Y-138702227D01*
X91155108Y-138702224D01*
X93141833Y-136715500D01*
X104517789Y-136715500D01*
X104569720Y-136767431D01*
X104950126Y-136925000D01*
X105361874Y-136925000D01*
X105742280Y-136767431D01*
X105794211Y-136715500D01*
X163699789Y-136715500D01*
X163751720Y-136767431D01*
X164132126Y-136925000D01*
X164543874Y-136925000D01*
X164924280Y-136767431D01*
X165215431Y-136476280D01*
X165373000Y-136095874D01*
X165373000Y-135684126D01*
X165215431Y-135303720D01*
X164924280Y-135012569D01*
X164543874Y-134855000D01*
X164132126Y-134855000D01*
X163751720Y-135012569D01*
X163699789Y-135064500D01*
X137207158Y-135064500D01*
X137306000Y-134825874D01*
X137306000Y-134414126D01*
X137207158Y-134175500D01*
X138236289Y-134175500D01*
X138288220Y-134227431D01*
X138668626Y-134385000D01*
X139080374Y-134385000D01*
X139460780Y-134227431D01*
X139751931Y-133936280D01*
X139909500Y-133555874D01*
X139909500Y-133144126D01*
X139751931Y-132763720D01*
X139460780Y-132472569D01*
X139080374Y-132315000D01*
X138668626Y-132315000D01*
X138288220Y-132472569D01*
X138236289Y-132524500D01*
X103762211Y-132524500D01*
X103710280Y-132472569D01*
X103329874Y-132315000D01*
X102918126Y-132315000D01*
X102537720Y-132472569D01*
X102246569Y-132763720D01*
X102089000Y-133144126D01*
X102089000Y-133555874D01*
X102246569Y-133936280D01*
X102537720Y-134227431D01*
X102918126Y-134385000D01*
X103117064Y-134385000D01*
X103105000Y-134414126D01*
X103105000Y-134825874D01*
X103203842Y-135064500D01*
X92881197Y-135064500D01*
X92799899Y-135048329D01*
X92718601Y-135064500D01*
X92718597Y-135064500D01*
X92477806Y-135112396D01*
X92204748Y-135294848D01*
X92158693Y-135363774D01*
X90241674Y-137280794D01*
X89987676Y-137534792D01*
X89987673Y-137534794D01*
X84259820Y-143262648D01*
X84244134Y-143256151D01*
X83653364Y-143256151D01*
X83107564Y-143482229D01*
X82689827Y-143899966D01*
X82678749Y-143926711D01*
X82667671Y-143899966D01*
X82249934Y-143482229D01*
X81704134Y-143256151D01*
X81113364Y-143256151D01*
X80567564Y-143482229D01*
X80149827Y-143899966D01*
X80138749Y-143926711D01*
X80127671Y-143899966D01*
X79709934Y-143482229D01*
X79164134Y-143256151D01*
X78573364Y-143256151D01*
X78027564Y-143482229D01*
X77609827Y-143899966D01*
X77598749Y-143926711D01*
X77587671Y-143899966D01*
X77169934Y-143482229D01*
X76624134Y-143256151D01*
X76033364Y-143256151D01*
X75487564Y-143482229D01*
X75069827Y-143899966D01*
X75058749Y-143926711D01*
X75047671Y-143899966D01*
X74629934Y-143482229D01*
X74084134Y-143256151D01*
X73493364Y-143256151D01*
X72947564Y-143482229D01*
X72529827Y-143899966D01*
X72518749Y-143926711D01*
X72507671Y-143899966D01*
X72089934Y-143482229D01*
X71544134Y-143256151D01*
X70953364Y-143256151D01*
X70407564Y-143482229D01*
X69989827Y-143899966D01*
X69978749Y-143926711D01*
X69967671Y-143899966D01*
X69549934Y-143482229D01*
X69004134Y-143256151D01*
X68413364Y-143256151D01*
X67867564Y-143482229D01*
X67449827Y-143899966D01*
X67438749Y-143926711D01*
X67427671Y-143899966D01*
X67009934Y-143482229D01*
X66464134Y-143256151D01*
X65873364Y-143256151D01*
X65327564Y-143482229D01*
X64909827Y-143899966D01*
X64898749Y-143926711D01*
X64887671Y-143899966D01*
X64469934Y-143482229D01*
X63924134Y-143256151D01*
X63333364Y-143256151D01*
X62787564Y-143482229D01*
X62369827Y-143899966D01*
X62358749Y-143926711D01*
X62347671Y-143899966D01*
X61929934Y-143482229D01*
X61384134Y-143256151D01*
X60793364Y-143256151D01*
X60247564Y-143482229D01*
X59829827Y-143899966D01*
X59818749Y-143926711D01*
X59807671Y-143899966D01*
X59389934Y-143482229D01*
X58844134Y-143256151D01*
X58253364Y-143256151D01*
X57707564Y-143482229D01*
X57289827Y-143899966D01*
X57278749Y-143926711D01*
X57267671Y-143899966D01*
X56849934Y-143482229D01*
X56304134Y-143256151D01*
X55713364Y-143256151D01*
X55167564Y-143482229D01*
X54749827Y-143899966D01*
X54523749Y-144445766D01*
X41088972Y-144445766D01*
X41283717Y-143975611D01*
X41283717Y-143046691D01*
X40928234Y-142188480D01*
X40271388Y-141531634D01*
X39413177Y-141176151D01*
X38484257Y-141176151D01*
X37626046Y-141531634D01*
X36969200Y-142188480D01*
X36613717Y-143046691D01*
X35762000Y-143046691D01*
X35762000Y-119148866D01*
X167613717Y-119148866D01*
X167613717Y-120873436D01*
X168273681Y-122466731D01*
X169493137Y-123686187D01*
X171086432Y-124346151D01*
X172811002Y-124346151D01*
X174404297Y-123686187D01*
X175623753Y-122466731D01*
X176283717Y-120873436D01*
X176283717Y-119148866D01*
X175623753Y-117555571D01*
X174404297Y-116336115D01*
X172811002Y-115676151D01*
X171086432Y-115676151D01*
X169493137Y-116336115D01*
X168273681Y-117555571D01*
X167613717Y-119148866D01*
X35762000Y-119148866D01*
X35762000Y-99546691D01*
X36613717Y-99546691D01*
X36613717Y-100475611D01*
X36969200Y-101333822D01*
X37626046Y-101990668D01*
X38484257Y-102346151D01*
X39413177Y-102346151D01*
X40271388Y-101990668D01*
X40928234Y-101333822D01*
X41283717Y-100475611D01*
X41283717Y-99546691D01*
X40928234Y-98688480D01*
X40271388Y-98031634D01*
X39413177Y-97676151D01*
X38484257Y-97676151D01*
X37626046Y-98031634D01*
X36969200Y-98688480D01*
X36613717Y-99546691D01*
X35762000Y-99546691D01*
X35762000Y-75819000D01*
X48920073Y-75819000D01*
X49256520Y-77510433D01*
X50214640Y-78944360D01*
X51429344Y-79756000D01*
X50214640Y-80567640D01*
X49256520Y-82001567D01*
X48920073Y-83693000D01*
X49256520Y-85384433D01*
X50214640Y-86818360D01*
X51429344Y-87630000D01*
X50214640Y-88441640D01*
X49256520Y-89875568D01*
X49005000Y-91140044D01*
X49005001Y-100829391D01*
X49256521Y-102093867D01*
X49665923Y-102706580D01*
X49773681Y-102966731D01*
X49972793Y-103165843D01*
X50214641Y-103527794D01*
X50576592Y-103769642D01*
X50993137Y-104186187D01*
X51537377Y-104411618D01*
X51648568Y-104485914D01*
X51779728Y-104512003D01*
X52586432Y-104846151D01*
X54311002Y-104846151D01*
X55904297Y-104186187D01*
X57123753Y-102966731D01*
X57783717Y-101373436D01*
X57783717Y-99648866D01*
X57675000Y-99386400D01*
X57675000Y-91140043D01*
X57532591Y-90424105D01*
X58613718Y-91505232D01*
X58613717Y-99648866D01*
X58613717Y-101373436D01*
X58780310Y-101775628D01*
X58865237Y-102202583D01*
X59107087Y-102564537D01*
X59273681Y-102966731D01*
X59581507Y-103274557D01*
X59823357Y-103636511D01*
X60185311Y-103878361D01*
X60493137Y-104186187D01*
X60895329Y-104352780D01*
X61257284Y-104594631D01*
X61684241Y-104679558D01*
X62086432Y-104846151D01*
X62521760Y-104846151D01*
X62948717Y-104931078D01*
X63375674Y-104846151D01*
X63811002Y-104846151D01*
X64213194Y-104679558D01*
X64640149Y-104594631D01*
X65002103Y-104352781D01*
X65404297Y-104186187D01*
X65712123Y-103878361D01*
X66074077Y-103636511D01*
X66315927Y-103274557D01*
X66623753Y-102966731D01*
X66790346Y-102564539D01*
X67032197Y-102202584D01*
X67117124Y-101775627D01*
X67283717Y-101373436D01*
X67283717Y-90136568D01*
X67368643Y-89709615D01*
X67283717Y-89282662D01*
X67283717Y-89282658D01*
X67032197Y-88018182D01*
X66869040Y-87774000D01*
X66315929Y-86946211D01*
X66315927Y-86946209D01*
X66074077Y-86584255D01*
X65712122Y-86342405D01*
X60299314Y-80929597D01*
X60057462Y-80567640D01*
X59438406Y-80154000D01*
X61323385Y-80154000D01*
X68113717Y-86944332D01*
X68113718Y-94851600D01*
X68113717Y-94851605D01*
X68113717Y-101373436D01*
X68280311Y-101775630D01*
X68365238Y-102202584D01*
X68607086Y-102564535D01*
X68773681Y-102966731D01*
X69081510Y-103274560D01*
X69323358Y-103636511D01*
X69685309Y-103878359D01*
X69993137Y-104186187D01*
X70395332Y-104352781D01*
X70757285Y-104594631D01*
X71184240Y-104679558D01*
X71586432Y-104846151D01*
X72021760Y-104846151D01*
X72448717Y-104931078D01*
X72875674Y-104846151D01*
X73311002Y-104846151D01*
X73713193Y-104679558D01*
X74140150Y-104594631D01*
X74502105Y-104352780D01*
X74904297Y-104186187D01*
X75212123Y-103878361D01*
X75574077Y-103636511D01*
X75815927Y-103274557D01*
X76123753Y-102966731D01*
X76290346Y-102564539D01*
X76532197Y-102202584D01*
X76617124Y-101775627D01*
X76783717Y-101373436D01*
X76783717Y-85575668D01*
X76868643Y-85148716D01*
X76783717Y-84721764D01*
X76783717Y-84721760D01*
X76532197Y-83457284D01*
X75925270Y-82548954D01*
X83360000Y-82548954D01*
X83360000Y-83995046D01*
X83913396Y-85331062D01*
X84935938Y-86353604D01*
X86271954Y-86907000D01*
X87718046Y-86907000D01*
X89054062Y-86353604D01*
X90076604Y-85331062D01*
X90630000Y-83995046D01*
X90630000Y-82548954D01*
X90076604Y-81212938D01*
X89054062Y-80190396D01*
X87718046Y-79637000D01*
X86271954Y-79637000D01*
X84935938Y-80190396D01*
X83913396Y-81212938D01*
X83360000Y-82548954D01*
X75925270Y-82548954D01*
X75574077Y-82023357D01*
X75212120Y-81781505D01*
X66486212Y-73055597D01*
X66244360Y-72693640D01*
X64810433Y-71735520D01*
X63545957Y-71484000D01*
X63545953Y-71484000D01*
X63119000Y-71399074D01*
X62692047Y-71484000D01*
X52913043Y-71484000D01*
X51648567Y-71735520D01*
X50214640Y-72693640D01*
X49256520Y-74127567D01*
X48920073Y-75819000D01*
X35762000Y-75819000D01*
X35762000Y-63754000D01*
X68814096Y-63754000D01*
X68834458Y-63856365D01*
X68892950Y-64150423D01*
X69117506Y-64486495D01*
X69202338Y-64543178D01*
X77226959Y-72567800D01*
X73043100Y-72567800D01*
X73043100Y-71556042D01*
X73089044Y-71487282D01*
X73197468Y-70942200D01*
X73089044Y-70397118D01*
X72780280Y-69935020D01*
X72690361Y-69874938D01*
X72546967Y-69660333D01*
X71958840Y-69267361D01*
X71265100Y-69129367D01*
X70571359Y-69267361D01*
X69983233Y-69660333D01*
X69839839Y-69874938D01*
X69749920Y-69935020D01*
X69441156Y-70397118D01*
X69332732Y-70942200D01*
X69441156Y-71487282D01*
X69487100Y-71556042D01*
X69487101Y-73731957D01*
X69441156Y-73800718D01*
X69332732Y-74345800D01*
X69441156Y-74890882D01*
X69749920Y-75352980D01*
X69839839Y-75413062D01*
X69983233Y-75627667D01*
X70571359Y-76020639D01*
X71089983Y-76123800D01*
X71265100Y-76158633D01*
X71440217Y-76123800D01*
X95350046Y-76123800D01*
X96670718Y-77444473D01*
X96670717Y-96555452D01*
X95993137Y-96836115D01*
X94773681Y-98055571D01*
X94113717Y-99648866D01*
X94113717Y-101373436D01*
X94773681Y-102966731D01*
X95993137Y-104186187D01*
X97586432Y-104846151D01*
X99311002Y-104846151D01*
X100904297Y-104186187D01*
X102108001Y-102982483D01*
X102108001Y-105563931D01*
X102108000Y-105563936D01*
X102108001Y-107341932D01*
X102088096Y-107442000D01*
X102119942Y-107602099D01*
X102166950Y-107838423D01*
X102391506Y-108174495D01*
X102476338Y-108231178D01*
X106906822Y-112661663D01*
X106963505Y-112746495D01*
X107160858Y-112878362D01*
X107299575Y-112971050D01*
X107299576Y-112971050D01*
X107299577Y-112971051D01*
X107595935Y-113030000D01*
X107695999Y-113049904D01*
X107796063Y-113030000D01*
X131828256Y-113030000D01*
X131874126Y-113049000D01*
X132285874Y-113049000D01*
X132471877Y-112971955D01*
X132476423Y-112971051D01*
X132480277Y-112968476D01*
X132666280Y-112891431D01*
X132808641Y-112749070D01*
X132812495Y-112746495D01*
X132815070Y-112742641D01*
X132957431Y-112600280D01*
X133034476Y-112414277D01*
X133037051Y-112410423D01*
X133037955Y-112405877D01*
X133115000Y-112219874D01*
X133115000Y-112018545D01*
X133115904Y-112014000D01*
X140972256Y-112014000D01*
X141018126Y-112033000D01*
X141429874Y-112033000D01*
X141615877Y-111955955D01*
X141620423Y-111955051D01*
X141624277Y-111952476D01*
X141810280Y-111875431D01*
X141952641Y-111733070D01*
X141956495Y-111730495D01*
X141959070Y-111726641D01*
X142101431Y-111584280D01*
X142178476Y-111398277D01*
X142181051Y-111394423D01*
X142181955Y-111389877D01*
X142259000Y-111203874D01*
X142259000Y-111002545D01*
X142259904Y-110998000D01*
X148235937Y-110998000D01*
X148336000Y-111017904D01*
X148436063Y-110998000D01*
X148436065Y-110998000D01*
X148732423Y-110939051D01*
X149068495Y-110714495D01*
X149125180Y-110629660D01*
X151596380Y-108158461D01*
X151681212Y-108101778D01*
X151905768Y-107765706D01*
X151964717Y-107469348D01*
X151964717Y-107469347D01*
X151984621Y-107369283D01*
X151964717Y-107269220D01*
X151964717Y-104905841D01*
X152264802Y-104846151D01*
X152264806Y-104846151D01*
X153529282Y-104594631D01*
X154963209Y-103636511D01*
X155205061Y-103274554D01*
X164301010Y-94178606D01*
X164301010Y-105771491D01*
X164216084Y-106198444D01*
X164301010Y-106625397D01*
X164301010Y-106625400D01*
X164552530Y-107889876D01*
X165510650Y-109323804D01*
X165872607Y-109565656D01*
X168273680Y-111966729D01*
X168273681Y-111966731D01*
X169493137Y-113186187D01*
X169895330Y-113352781D01*
X170257284Y-113594631D01*
X170684240Y-113679558D01*
X171086432Y-113846151D01*
X171521763Y-113846151D01*
X171948716Y-113931077D01*
X172375669Y-113846151D01*
X172811002Y-113846151D01*
X173213196Y-113679557D01*
X173640149Y-113594631D01*
X174002103Y-113352781D01*
X174404297Y-113186187D01*
X174712123Y-112878361D01*
X175074077Y-112636511D01*
X175315927Y-112274557D01*
X175623753Y-111966731D01*
X175790347Y-111564537D01*
X176032197Y-111202583D01*
X176117123Y-110775630D01*
X176283717Y-110373436D01*
X176283717Y-109938103D01*
X176368643Y-109511150D01*
X176283717Y-109084197D01*
X176283717Y-108648866D01*
X176117124Y-108246674D01*
X176032197Y-107819718D01*
X175790347Y-107457764D01*
X175623753Y-107055571D01*
X174404297Y-105836115D01*
X174404295Y-105836114D01*
X172971010Y-104402829D01*
X172971010Y-101835632D01*
X173126046Y-101990668D01*
X173984257Y-102346151D01*
X174913177Y-102346151D01*
X175771388Y-101990668D01*
X176428234Y-101333822D01*
X176783717Y-100475611D01*
X176783717Y-99546691D01*
X176428234Y-98688480D01*
X175771388Y-98031634D01*
X174913177Y-97676151D01*
X173984257Y-97676151D01*
X173126046Y-98031634D01*
X172971010Y-98186670D01*
X172971010Y-70982861D01*
X173055936Y-70555908D01*
X172971010Y-70128955D01*
X172971010Y-70128951D01*
X172719490Y-68864475D01*
X172529410Y-68580000D01*
X172003222Y-67792504D01*
X172003220Y-67792502D01*
X171761370Y-67430548D01*
X171399415Y-67188697D01*
X167995314Y-63784597D01*
X167753462Y-63422640D01*
X166319535Y-62464520D01*
X165055059Y-62213000D01*
X165055055Y-62213000D01*
X164628102Y-62128074D01*
X164201149Y-62213000D01*
X160609043Y-62213000D01*
X159344567Y-62464520D01*
X157910640Y-63422640D01*
X156952520Y-64856567D01*
X156616073Y-66548000D01*
X156952520Y-68239433D01*
X157910640Y-69673360D01*
X159344567Y-70631480D01*
X160609043Y-70883000D01*
X162832487Y-70883000D01*
X164301011Y-72351525D01*
X164301011Y-72648642D01*
X164161360Y-72439640D01*
X162727433Y-71481520D01*
X161462957Y-71230000D01*
X152089229Y-71230000D01*
X151662277Y-71145074D01*
X151235325Y-71230000D01*
X151235321Y-71230000D01*
X149970845Y-71481520D01*
X148536918Y-72439640D01*
X148295066Y-72801597D01*
X129185312Y-91911351D01*
X128823358Y-92153201D01*
X128581508Y-92515155D01*
X128581505Y-92515158D01*
X127865237Y-93587129D01*
X127757345Y-94129541D01*
X127613717Y-94851604D01*
X127613717Y-94851608D01*
X127528791Y-95278561D01*
X127613717Y-95705514D01*
X127613717Y-101373436D01*
X127780310Y-101775628D01*
X127865237Y-102202583D01*
X128107087Y-102564537D01*
X128273681Y-102966731D01*
X128581507Y-103274557D01*
X128823357Y-103636511D01*
X129185311Y-103878361D01*
X129493137Y-104186187D01*
X129895329Y-104352780D01*
X130257284Y-104594631D01*
X130684241Y-104679558D01*
X131086432Y-104846151D01*
X131521760Y-104846151D01*
X131948717Y-104931078D01*
X132375674Y-104846151D01*
X132811002Y-104846151D01*
X133213194Y-104679558D01*
X133640149Y-104594631D01*
X134002103Y-104352781D01*
X134404297Y-104186187D01*
X134712123Y-103878361D01*
X135074077Y-103636511D01*
X135315927Y-103274557D01*
X135623753Y-102966731D01*
X135790346Y-102564539D01*
X136032197Y-102202584D01*
X136117124Y-101775627D01*
X136283717Y-101373436D01*
X136283717Y-97074176D01*
X153457893Y-79900000D01*
X154084695Y-79900000D01*
X153827596Y-80071788D01*
X153827594Y-80071790D01*
X153465640Y-80313640D01*
X153223790Y-80675594D01*
X138685312Y-95214073D01*
X138323358Y-95455923D01*
X138081507Y-95817878D01*
X138081505Y-95817880D01*
X137842116Y-96176151D01*
X137365237Y-96889850D01*
X137113717Y-98154326D01*
X137113717Y-98154330D01*
X137028791Y-98581283D01*
X137113717Y-99008236D01*
X137113717Y-101373436D01*
X137280310Y-101775628D01*
X137365237Y-102202583D01*
X137607087Y-102564537D01*
X137773681Y-102966731D01*
X138081507Y-103274557D01*
X138323357Y-103636511D01*
X138685311Y-103878361D01*
X138993137Y-104186187D01*
X139395329Y-104352780D01*
X139757284Y-104594631D01*
X140184241Y-104679558D01*
X140586432Y-104846151D01*
X141021760Y-104846151D01*
X141448717Y-104931078D01*
X141875674Y-104846151D01*
X142311002Y-104846151D01*
X142713194Y-104679558D01*
X143140149Y-104594631D01*
X143502103Y-104352781D01*
X143904297Y-104186187D01*
X144212123Y-103878361D01*
X144574077Y-103636511D01*
X144815927Y-103274557D01*
X145123753Y-102966731D01*
X145290346Y-102564539D01*
X145532197Y-102202584D01*
X145617124Y-101775627D01*
X145783717Y-101373436D01*
X145783717Y-100376898D01*
X146685819Y-99474796D01*
X146613717Y-99648866D01*
X146613717Y-100084194D01*
X146528790Y-100511151D01*
X146613717Y-100938107D01*
X146613717Y-101373436D01*
X146780310Y-101775627D01*
X146865237Y-102202584D01*
X147107088Y-102564539D01*
X147273681Y-102966731D01*
X147581507Y-103274557D01*
X147823357Y-103636511D01*
X148185311Y-103878361D01*
X148493137Y-104186187D01*
X148895329Y-104352780D01*
X149257284Y-104594631D01*
X149684241Y-104679558D01*
X149932718Y-104782480D01*
X149932718Y-106948441D01*
X147915160Y-108966000D01*
X108805813Y-108966000D01*
X106064020Y-106224208D01*
X106064020Y-102460564D01*
X106273681Y-102966731D01*
X107493137Y-104186187D01*
X109086432Y-104846151D01*
X110811002Y-104846151D01*
X112404297Y-104186187D01*
X113623753Y-102966731D01*
X114283717Y-101373436D01*
X114283717Y-99648866D01*
X113623753Y-98055571D01*
X112404297Y-96836115D01*
X111726717Y-96555452D01*
X111726717Y-77317471D01*
X112920389Y-76123800D01*
X142427783Y-76123800D01*
X142602900Y-76158633D01*
X143296641Y-76020639D01*
X143884767Y-75627667D01*
X144028161Y-75413062D01*
X144118080Y-75352980D01*
X144426844Y-74890882D01*
X144535268Y-74345800D01*
X144426844Y-73800718D01*
X144380900Y-73731958D01*
X144380900Y-71556042D01*
X144426844Y-71487282D01*
X144535268Y-70942200D01*
X144426844Y-70397118D01*
X144118080Y-69935020D01*
X144028161Y-69874938D01*
X143884767Y-69660333D01*
X143296640Y-69267361D01*
X142602900Y-69129367D01*
X141909159Y-69267361D01*
X141321033Y-69660333D01*
X141177639Y-69874938D01*
X141087720Y-69935020D01*
X140778956Y-70397118D01*
X140670532Y-70942200D01*
X140778956Y-71487282D01*
X140824900Y-71556042D01*
X140824900Y-72567800D01*
X112359032Y-72567800D01*
X112183916Y-72532967D01*
X112008800Y-72567800D01*
X111490176Y-72670961D01*
X110902050Y-73063933D01*
X110802853Y-73212392D01*
X108815309Y-75199937D01*
X108666851Y-75299133D01*
X108546528Y-75479210D01*
X108273879Y-75887259D01*
X108135884Y-76581000D01*
X108170718Y-76756121D01*
X108170717Y-96555452D01*
X107493137Y-96836115D01*
X106273681Y-98055571D01*
X106064020Y-98561738D01*
X106064020Y-77281109D01*
X106083924Y-77181045D01*
X106036394Y-76942096D01*
X106005071Y-76784623D01*
X105780515Y-76448551D01*
X105695683Y-76391868D01*
X99034222Y-69730408D01*
X98830485Y-69425495D01*
X98494413Y-69200939D01*
X98198055Y-69141990D01*
X98097990Y-69122086D01*
X97997926Y-69141990D01*
X85056831Y-69141990D01*
X84074000Y-68159160D01*
X84074000Y-63802126D01*
X99295000Y-63802126D01*
X99295000Y-64213874D01*
X99452569Y-64594280D01*
X99743720Y-64885431D01*
X100124126Y-65043000D01*
X100535874Y-65043000D01*
X100585595Y-65022405D01*
X100565000Y-65072126D01*
X100565000Y-65483874D01*
X100722569Y-65864280D01*
X101013720Y-66155431D01*
X101394126Y-66313000D01*
X101805874Y-66313000D01*
X102186280Y-66155431D01*
X102238211Y-66103500D01*
X104167237Y-66103500D01*
X104278569Y-66372280D01*
X104569720Y-66663431D01*
X104950126Y-66821000D01*
X105361874Y-66821000D01*
X105742280Y-66663431D01*
X106033431Y-66372280D01*
X106191000Y-65991874D01*
X106191000Y-65580126D01*
X106033431Y-65199720D01*
X105742280Y-64908569D01*
X105561047Y-64833500D01*
X105582699Y-64833500D01*
X105664000Y-64849672D01*
X105745301Y-64833500D01*
X105745303Y-64833500D01*
X105986094Y-64785604D01*
X106259152Y-64603152D01*
X106305209Y-64534223D01*
X107974433Y-62865000D01*
X108481881Y-62865000D01*
X108995337Y-62652320D01*
X109388320Y-62259337D01*
X109601000Y-61745881D01*
X109601000Y-61190119D01*
X109542528Y-61048954D01*
X123250700Y-61048954D01*
X123250700Y-62495046D01*
X123804096Y-63831062D01*
X124826638Y-64853604D01*
X126162654Y-65407000D01*
X127608746Y-65407000D01*
X128944762Y-64853604D01*
X129967304Y-63831062D01*
X130520700Y-62495046D01*
X130520700Y-61048954D01*
X129967304Y-59712938D01*
X128944762Y-58690396D01*
X127608746Y-58137000D01*
X126162654Y-58137000D01*
X124826638Y-58690396D01*
X123804096Y-59712938D01*
X123250700Y-61048954D01*
X109542528Y-61048954D01*
X109388320Y-60676663D01*
X108995337Y-60283680D01*
X108481881Y-60071000D01*
X107926119Y-60071000D01*
X107412663Y-60283680D01*
X107019680Y-60676663D01*
X106807000Y-61190119D01*
X106807000Y-61697567D01*
X105322068Y-63182500D01*
X100968211Y-63182500D01*
X100916280Y-63130569D01*
X100535874Y-62973000D01*
X100124126Y-62973000D01*
X99743720Y-63130569D01*
X99452569Y-63421720D01*
X99295000Y-63802126D01*
X84074000Y-63802126D01*
X84074000Y-61465744D01*
X84093000Y-61419874D01*
X84093000Y-61190119D01*
X101727000Y-61190119D01*
X101727000Y-61745881D01*
X101939680Y-62259337D01*
X102332663Y-62652320D01*
X102846119Y-62865000D01*
X103401881Y-62865000D01*
X103915337Y-62652320D01*
X104308320Y-62259337D01*
X104521000Y-61745881D01*
X104521000Y-61190119D01*
X104308320Y-60676663D01*
X103915337Y-60283680D01*
X103401881Y-60071000D01*
X102846119Y-60071000D01*
X102332663Y-60283680D01*
X101939680Y-60676663D01*
X101727000Y-61190119D01*
X84093000Y-61190119D01*
X84093000Y-61008126D01*
X84015955Y-60822123D01*
X84015051Y-60817577D01*
X84012476Y-60813723D01*
X83935431Y-60627720D01*
X83793070Y-60485359D01*
X83790495Y-60481505D01*
X83786641Y-60478930D01*
X83644280Y-60336569D01*
X83458275Y-60259523D01*
X83454422Y-60256949D01*
X83449878Y-60256045D01*
X83263874Y-60179000D01*
X83062545Y-60179000D01*
X83058000Y-60178096D01*
X83053455Y-60179000D01*
X82852126Y-60179000D01*
X82666123Y-60256045D01*
X82661577Y-60256949D01*
X82657723Y-60259524D01*
X82471720Y-60336569D01*
X82329359Y-60478930D01*
X82325505Y-60481505D01*
X82322930Y-60485359D01*
X82180569Y-60627720D01*
X82103523Y-60813725D01*
X82100949Y-60817578D01*
X82100045Y-60822122D01*
X82023000Y-61008126D01*
X82023000Y-61419874D01*
X82042000Y-61465744D01*
X82042001Y-68479932D01*
X82022096Y-68580000D01*
X82078682Y-68864475D01*
X82100950Y-68976423D01*
X82325506Y-69312495D01*
X82410337Y-69369178D01*
X83145159Y-70104000D01*
X78997327Y-70104000D01*
X77470000Y-68576674D01*
X77470000Y-61465744D01*
X77489000Y-61419874D01*
X77489000Y-61008126D01*
X77411955Y-60822123D01*
X77411051Y-60817577D01*
X77408476Y-60813723D01*
X77331431Y-60627720D01*
X77189070Y-60485359D01*
X77186495Y-60481505D01*
X77182641Y-60478930D01*
X77040280Y-60336569D01*
X76854275Y-60259523D01*
X76850422Y-60256949D01*
X76845878Y-60256045D01*
X76659874Y-60179000D01*
X76458545Y-60179000D01*
X76454000Y-60178096D01*
X76449455Y-60179000D01*
X76248126Y-60179000D01*
X76062123Y-60256045D01*
X76057577Y-60256949D01*
X76053723Y-60259524D01*
X75867720Y-60336569D01*
X75725359Y-60478930D01*
X75721505Y-60481505D01*
X75718930Y-60485359D01*
X75576569Y-60627720D01*
X75499523Y-60813725D01*
X75496949Y-60817578D01*
X75496045Y-60822122D01*
X75419000Y-61008126D01*
X75419000Y-61419874D01*
X75438000Y-61465744D01*
X75438001Y-67905160D01*
X70866000Y-63333160D01*
X70866000Y-61465744D01*
X70885000Y-61419874D01*
X70885000Y-61008126D01*
X70807955Y-60822123D01*
X70807051Y-60817577D01*
X70804476Y-60813723D01*
X70727431Y-60627720D01*
X70585070Y-60485359D01*
X70582495Y-60481505D01*
X70578641Y-60478930D01*
X70436280Y-60336569D01*
X70250275Y-60259523D01*
X70246422Y-60256949D01*
X70241878Y-60256045D01*
X70055874Y-60179000D01*
X69854545Y-60179000D01*
X69850000Y-60178096D01*
X69845455Y-60179000D01*
X69644126Y-60179000D01*
X69458123Y-60256045D01*
X69453577Y-60256949D01*
X69449723Y-60259524D01*
X69263720Y-60336569D01*
X69121359Y-60478930D01*
X69117505Y-60481505D01*
X69114930Y-60485359D01*
X68972569Y-60627720D01*
X68895523Y-60813725D01*
X68892949Y-60817578D01*
X68892045Y-60822122D01*
X68815000Y-61008126D01*
X68815000Y-61419874D01*
X68834000Y-61465744D01*
X68834001Y-63653932D01*
X68814096Y-63754000D01*
X35762000Y-63754000D01*
X35762000Y-52362567D01*
X99494000Y-52362567D01*
X99494000Y-53301433D01*
X99853289Y-54168833D01*
X100517167Y-54832711D01*
X101384567Y-55192000D01*
X102323433Y-55192000D01*
X103190833Y-54832711D01*
X103854711Y-54168833D01*
X104214000Y-53301433D01*
X104214000Y-52362567D01*
X107114000Y-52362567D01*
X107114000Y-53301433D01*
X107473289Y-54168833D01*
X108137167Y-54832711D01*
X109004567Y-55192000D01*
X109943433Y-55192000D01*
X110810833Y-54832711D01*
X111474711Y-54168833D01*
X111834000Y-53301433D01*
X111834000Y-52362567D01*
X111474711Y-51495167D01*
X110810833Y-50831289D01*
X109943433Y-50472000D01*
X109004567Y-50472000D01*
X108137167Y-50831289D01*
X107473289Y-51495167D01*
X107114000Y-52362567D01*
X104214000Y-52362567D01*
X103854711Y-51495167D01*
X103190833Y-50831289D01*
X102323433Y-50472000D01*
X101384567Y-50472000D01*
X100517167Y-50831289D01*
X99853289Y-51495167D01*
X99494000Y-52362567D01*
X35762000Y-52362567D01*
X35762000Y-50088581D01*
X35822090Y-49668991D01*
X35976381Y-49329648D01*
X36219712Y-49047248D01*
X36532523Y-48844494D01*
X36913184Y-48730652D01*
X37110350Y-48716000D01*
X177241419Y-48716000D01*
X177661009Y-48776090D01*
X177661009Y-48776090D01*
G37*
X177661009Y-48776090D02*
X178000352Y-48930381D01*
X178282752Y-49173712D01*
X178485506Y-49486523D01*
X178599348Y-49867184D01*
X178614001Y-50064363D01*
X178614000Y-52000074D01*
X178614000Y-52000075D01*
X178614001Y-147269412D01*
X178553910Y-147689009D01*
X178399619Y-148028352D01*
X178156288Y-148310752D01*
X177843479Y-148513506D01*
X177462815Y-148627348D01*
X177265649Y-148642000D01*
X161474074Y-148642000D01*
X161448085Y-148647170D01*
X161191033Y-148666272D01*
X161120288Y-148681826D01*
X161048544Y-148691654D01*
X161040219Y-148694088D01*
X160488241Y-148859164D01*
X160400769Y-148899582D01*
X160312806Y-148938929D01*
X160305502Y-148943601D01*
X160305498Y-148943603D01*
X160305499Y-148943603D01*
X159822040Y-149256966D01*
X159749447Y-149320293D01*
X159676045Y-149382763D01*
X159670343Y-149389300D01*
X159294266Y-149825759D01*
X159242347Y-149906942D01*
X159189446Y-149987475D01*
X159185808Y-149995350D01*
X158947347Y-150519817D01*
X158920300Y-150612309D01*
X158892129Y-150704452D01*
X158890847Y-150713031D01*
X158811893Y-151264340D01*
X158802000Y-151314075D01*
X158802001Y-158901281D01*
X158716491Y-158927423D01*
X158624033Y-158954460D01*
X158616159Y-158958098D01*
X158094644Y-159202948D01*
X158014075Y-159255872D01*
X157932927Y-159307768D01*
X157926390Y-159313470D01*
X157494558Y-159694851D01*
X157432096Y-159768244D01*
X157368760Y-159840847D01*
X157364087Y-159848154D01*
X157056654Y-160335407D01*
X157017298Y-160423387D01*
X156976889Y-160510840D01*
X156974457Y-160519160D01*
X156974454Y-160519166D01*
X156974453Y-160519173D01*
X156816134Y-161073118D01*
X156803056Y-161168586D01*
X156788813Y-161263890D01*
X156788813Y-161272564D01*
X156792333Y-161848687D01*
X156806588Y-161944068D01*
X156819654Y-162039455D01*
X156822088Y-162047781D01*
X156987164Y-162599758D01*
X157027591Y-162687250D01*
X157066930Y-162775194D01*
X157071603Y-162782501D01*
X157384966Y-163265961D01*
X157448328Y-163338594D01*
X157510763Y-163411955D01*
X157517296Y-163417654D01*
X157517300Y-163417658D01*
X157517305Y-163417661D01*
X157953759Y-163793734D01*
X158034942Y-163845653D01*
X158115475Y-163898554D01*
X158123346Y-163902190D01*
X158123349Y-163902192D01*
X158123352Y-163902193D01*
X158647817Y-164140653D01*
X158740309Y-164167700D01*
X158802000Y-164186561D01*
X158802001Y-172161412D01*
X158741910Y-172581009D01*
X158587619Y-172920352D01*
X158344288Y-173202752D01*
X158031479Y-173405506D01*
X157650815Y-173519348D01*
X157453649Y-173534000D01*
X37134581Y-173534000D01*
X36714991Y-173473910D01*
X36375648Y-173319619D01*
X36093248Y-173076288D01*
X35890494Y-172763479D01*
X35776652Y-172382815D01*
X35762000Y-172185649D01*
X35762000Y-164186719D01*
X35847509Y-164160577D01*
X35939967Y-164133540D01*
X35947841Y-164129902D01*
X36469356Y-163885052D01*
X36549925Y-163832128D01*
X36631073Y-163780232D01*
X36637610Y-163774530D01*
X37069442Y-163393149D01*
X37131887Y-163319776D01*
X37195240Y-163247153D01*
X37199913Y-163239846D01*
X37507346Y-162752593D01*
X37546687Y-162664645D01*
X37587111Y-162577160D01*
X37589545Y-162568835D01*
X37747866Y-162014882D01*
X37760943Y-161919421D01*
X37775187Y-161824111D01*
X37775187Y-161815436D01*
X37771667Y-161239313D01*
X37757414Y-161143943D01*
X37744346Y-161048544D01*
X37741912Y-161040219D01*
X37576836Y-160488241D01*
X37536418Y-160400769D01*
X37497071Y-160312806D01*
X37492397Y-160305499D01*
X37179034Y-159822040D01*
X37115707Y-159749447D01*
X37053237Y-159676045D01*
X37046700Y-159670343D01*
X36610241Y-159294266D01*
X36529058Y-159242347D01*
X36448525Y-159189446D01*
X36440654Y-159185810D01*
X36440651Y-159185808D01*
X36440648Y-159185807D01*
X35916183Y-158947347D01*
X35823691Y-158920300D01*
X35762000Y-158901439D01*
X35762000Y-143046691D01*
X36613717Y-143046691D01*
X36613717Y-143975611D01*
X36969200Y-144833822D01*
X37626046Y-145490668D01*
X38484257Y-145846151D01*
X39413177Y-145846151D01*
X40271388Y-145490668D01*
X40928234Y-144833822D01*
X41088972Y-144445766D01*
X54523749Y-144445766D01*
X54523749Y-145036536D01*
X54749827Y-145582336D01*
X55167564Y-146000073D01*
X55713364Y-146226151D01*
X56304134Y-146226151D01*
X56849934Y-146000073D01*
X57267671Y-145582336D01*
X57278749Y-145555591D01*
X57289827Y-145582336D01*
X57707564Y-146000073D01*
X58253364Y-146226151D01*
X58844134Y-146226151D01*
X59389934Y-146000073D01*
X59807671Y-145582336D01*
X59818749Y-145555591D01*
X59829827Y-145582336D01*
X60247564Y-146000073D01*
X60793364Y-146226151D01*
X61384134Y-146226151D01*
X61929934Y-146000073D01*
X62347671Y-145582336D01*
X62358749Y-145555591D01*
X62369827Y-145582336D01*
X62787564Y-146000073D01*
X63333364Y-146226151D01*
X63924134Y-146226151D01*
X64469934Y-146000073D01*
X64887671Y-145582336D01*
X64898749Y-145555591D01*
X64909827Y-145582336D01*
X65327564Y-146000073D01*
X65873364Y-146226151D01*
X66464134Y-146226151D01*
X67009934Y-146000073D01*
X67427671Y-145582336D01*
X67438749Y-145555591D01*
X67449827Y-145582336D01*
X67867564Y-146000073D01*
X68413364Y-146226151D01*
X69004134Y-146226151D01*
X69019819Y-146219654D01*
X69630391Y-146830226D01*
X69676446Y-146899152D01*
X69949504Y-147081604D01*
X70190295Y-147129500D01*
X70190299Y-147129500D01*
X70271597Y-147145671D01*
X70352895Y-147129500D01*
X82304599Y-147129500D01*
X82385900Y-147145672D01*
X82467201Y-147129500D01*
X82467203Y-147129500D01*
X82707994Y-147081604D01*
X82981052Y-146899152D01*
X83027109Y-146830223D01*
X83637679Y-146219654D01*
X83653364Y-146226151D01*
X84244134Y-146226151D01*
X84789934Y-146000073D01*
X85207671Y-145582336D01*
X85433749Y-145036536D01*
X85433749Y-144445766D01*
X119583717Y-144445766D01*
X119583717Y-145036536D01*
X119809795Y-145582336D01*
X120227532Y-146000073D01*
X120773332Y-146226151D01*
X121364102Y-146226151D01*
X121909902Y-146000073D01*
X122327639Y-145582336D01*
X122338717Y-145555591D01*
X122349795Y-145582336D01*
X122767532Y-146000073D01*
X123313332Y-146226151D01*
X123904102Y-146226151D01*
X124449902Y-146000073D01*
X124867639Y-145582336D01*
X124878717Y-145555591D01*
X124889795Y-145582336D01*
X125307532Y-146000073D01*
X125853332Y-146226151D01*
X126444102Y-146226151D01*
X126989902Y-146000073D01*
X127407639Y-145582336D01*
X127418717Y-145555591D01*
X127429795Y-145582336D01*
X127847532Y-146000073D01*
X128393332Y-146226151D01*
X128984102Y-146226151D01*
X129529902Y-146000073D01*
X129947639Y-145582336D01*
X129958717Y-145555591D01*
X129969795Y-145582336D01*
X130387532Y-146000073D01*
X130933332Y-146226151D01*
X131524102Y-146226151D01*
X132069902Y-146000073D01*
X132487639Y-145582336D01*
X132498717Y-145555591D01*
X132509795Y-145582336D01*
X132927532Y-146000073D01*
X133473332Y-146226151D01*
X134064102Y-146226151D01*
X134609902Y-146000073D01*
X135027639Y-145582336D01*
X135038717Y-145555591D01*
X135049795Y-145582336D01*
X135467532Y-146000073D01*
X136013332Y-146226151D01*
X136604102Y-146226151D01*
X137149902Y-146000073D01*
X137567639Y-145582336D01*
X137578717Y-145555591D01*
X137589795Y-145582336D01*
X138007532Y-146000073D01*
X138553332Y-146226151D01*
X139144102Y-146226151D01*
X139689902Y-146000073D01*
X140107639Y-145582336D01*
X140118717Y-145555591D01*
X140129795Y-145582336D01*
X140547532Y-146000073D01*
X141093332Y-146226151D01*
X141684102Y-146226151D01*
X142229902Y-146000073D01*
X142647639Y-145582336D01*
X142658717Y-145555591D01*
X142669795Y-145582336D01*
X143087532Y-146000073D01*
X143633332Y-146226151D01*
X144224102Y-146226151D01*
X144769902Y-146000073D01*
X145187639Y-145582336D01*
X145198717Y-145555591D01*
X145209795Y-145582336D01*
X145627532Y-146000073D01*
X146173332Y-146226151D01*
X146764102Y-146226151D01*
X147309902Y-146000073D01*
X147727639Y-145582336D01*
X147738717Y-145555591D01*
X147749795Y-145582336D01*
X148167532Y-146000073D01*
X148713332Y-146226151D01*
X149304102Y-146226151D01*
X149849902Y-146000073D01*
X150267639Y-145582336D01*
X150278717Y-145555591D01*
X150289795Y-145582336D01*
X150707532Y-146000073D01*
X151253332Y-146226151D01*
X151844102Y-146226151D01*
X152389902Y-146000073D01*
X152807639Y-145582336D01*
X153033717Y-145036536D01*
X153033717Y-144445766D01*
X155143717Y-144445766D01*
X155143717Y-145036536D01*
X155369795Y-145582336D01*
X155787532Y-146000073D01*
X156333332Y-146226151D01*
X156924102Y-146226151D01*
X157469902Y-146000073D01*
X157887639Y-145582336D01*
X157898717Y-145555591D01*
X157909795Y-145582336D01*
X158327532Y-146000073D01*
X158873332Y-146226151D01*
X159464102Y-146226151D01*
X160009902Y-146000073D01*
X160427639Y-145582336D01*
X160653717Y-145036536D01*
X160653717Y-144445766D01*
X162763717Y-144445766D01*
X162763717Y-145036536D01*
X162989795Y-145582336D01*
X163407532Y-146000073D01*
X163953332Y-146226151D01*
X164544102Y-146226151D01*
X165089902Y-146000073D01*
X165507639Y-145582336D01*
X165733717Y-145036536D01*
X165733717Y-144445766D01*
X165507639Y-143899966D01*
X165089902Y-143482229D01*
X164544102Y-143256151D01*
X163953332Y-143256151D01*
X163407532Y-143482229D01*
X162989795Y-143899966D01*
X162763717Y-144445766D01*
X160653717Y-144445766D01*
X160427639Y-143899966D01*
X160009902Y-143482229D01*
X159464102Y-143256151D01*
X158873332Y-143256151D01*
X158327532Y-143482229D01*
X157909795Y-143899966D01*
X157898717Y-143926711D01*
X157887639Y-143899966D01*
X157469902Y-143482229D01*
X156924102Y-143256151D01*
X156333332Y-143256151D01*
X155787532Y-143482229D01*
X155369795Y-143899966D01*
X155143717Y-144445766D01*
X153033717Y-144445766D01*
X152807639Y-143899966D01*
X152389902Y-143482229D01*
X151844102Y-143256151D01*
X151253332Y-143256151D01*
X150707532Y-143482229D01*
X150289795Y-143899966D01*
X150278717Y-143926711D01*
X150267639Y-143899966D01*
X149849902Y-143482229D01*
X149304102Y-143256151D01*
X148713332Y-143256151D01*
X148167532Y-143482229D01*
X147749795Y-143899966D01*
X147738717Y-143926711D01*
X147727639Y-143899966D01*
X147309902Y-143482229D01*
X146764102Y-143256151D01*
X146173332Y-143256151D01*
X145627532Y-143482229D01*
X145209795Y-143899966D01*
X145198717Y-143926711D01*
X145187639Y-143899966D01*
X144769902Y-143482229D01*
X144224102Y-143256151D01*
X143633332Y-143256151D01*
X143087532Y-143482229D01*
X142669795Y-143899966D01*
X142658717Y-143926711D01*
X142647639Y-143899966D01*
X142229902Y-143482229D01*
X141684102Y-143256151D01*
X141093332Y-143256151D01*
X140547532Y-143482229D01*
X140129795Y-143899966D01*
X140118717Y-143926711D01*
X140107639Y-143899966D01*
X139689902Y-143482229D01*
X139144102Y-143256151D01*
X138553332Y-143256151D01*
X138007532Y-143482229D01*
X137589795Y-143899966D01*
X137578717Y-143926711D01*
X137567639Y-143899966D01*
X137149902Y-143482229D01*
X136604102Y-143256151D01*
X136013332Y-143256151D01*
X135467532Y-143482229D01*
X135049795Y-143899966D01*
X135038717Y-143926711D01*
X135027639Y-143899966D01*
X134609902Y-143482229D01*
X134064102Y-143256151D01*
X133473332Y-143256151D01*
X132927532Y-143482229D01*
X132509795Y-143899966D01*
X132498717Y-143926711D01*
X132487639Y-143899966D01*
X132069902Y-143482229D01*
X131524102Y-143256151D01*
X130933332Y-143256151D01*
X130387532Y-143482229D01*
X129969795Y-143899966D01*
X129958717Y-143926711D01*
X129947639Y-143899966D01*
X129529902Y-143482229D01*
X128984102Y-143256151D01*
X128393332Y-143256151D01*
X127847532Y-143482229D01*
X127429795Y-143899966D01*
X127418717Y-143926711D01*
X127407639Y-143899966D01*
X126989902Y-143482229D01*
X126444102Y-143256151D01*
X125853332Y-143256151D01*
X125307532Y-143482229D01*
X124889795Y-143899966D01*
X124878717Y-143926711D01*
X124867639Y-143899966D01*
X124449902Y-143482229D01*
X123904102Y-143256151D01*
X123313332Y-143256151D01*
X122767532Y-143482229D01*
X122349795Y-143899966D01*
X122338717Y-143926711D01*
X122327639Y-143899966D01*
X121909902Y-143482229D01*
X121364102Y-143256151D01*
X120773332Y-143256151D01*
X120227532Y-143482229D01*
X119809795Y-143899966D01*
X119583717Y-144445766D01*
X85433749Y-144445766D01*
X85427252Y-144430080D01*
X86810641Y-143046691D01*
X172113717Y-143046691D01*
X172113717Y-143975611D01*
X172469200Y-144833822D01*
X173126046Y-145490668D01*
X173984257Y-145846151D01*
X174913177Y-145846151D01*
X175771388Y-145490668D01*
X176428234Y-144833822D01*
X176783717Y-143975611D01*
X176783717Y-143046691D01*
X176428234Y-142188480D01*
X175771388Y-141531634D01*
X174913177Y-141176151D01*
X173984257Y-141176151D01*
X173126046Y-141531634D01*
X172469200Y-142188480D01*
X172113717Y-143046691D01*
X86810641Y-143046691D01*
X91155106Y-138702227D01*
X91155108Y-138702224D01*
X93141833Y-136715500D01*
X104517789Y-136715500D01*
X104569720Y-136767431D01*
X104950126Y-136925000D01*
X105361874Y-136925000D01*
X105742280Y-136767431D01*
X105794211Y-136715500D01*
X163699789Y-136715500D01*
X163751720Y-136767431D01*
X164132126Y-136925000D01*
X164543874Y-136925000D01*
X164924280Y-136767431D01*
X165215431Y-136476280D01*
X165373000Y-136095874D01*
X165373000Y-135684126D01*
X165215431Y-135303720D01*
X164924280Y-135012569D01*
X164543874Y-134855000D01*
X164132126Y-134855000D01*
X163751720Y-135012569D01*
X163699789Y-135064500D01*
X137207158Y-135064500D01*
X137306000Y-134825874D01*
X137306000Y-134414126D01*
X137207158Y-134175500D01*
X138236289Y-134175500D01*
X138288220Y-134227431D01*
X138668626Y-134385000D01*
X139080374Y-134385000D01*
X139460780Y-134227431D01*
X139751931Y-133936280D01*
X139909500Y-133555874D01*
X139909500Y-133144126D01*
X139751931Y-132763720D01*
X139460780Y-132472569D01*
X139080374Y-132315000D01*
X138668626Y-132315000D01*
X138288220Y-132472569D01*
X138236289Y-132524500D01*
X103762211Y-132524500D01*
X103710280Y-132472569D01*
X103329874Y-132315000D01*
X102918126Y-132315000D01*
X102537720Y-132472569D01*
X102246569Y-132763720D01*
X102089000Y-133144126D01*
X102089000Y-133555874D01*
X102246569Y-133936280D01*
X102537720Y-134227431D01*
X102918126Y-134385000D01*
X103117064Y-134385000D01*
X103105000Y-134414126D01*
X103105000Y-134825874D01*
X103203842Y-135064500D01*
X92881197Y-135064500D01*
X92799899Y-135048329D01*
X92718601Y-135064500D01*
X92718597Y-135064500D01*
X92477806Y-135112396D01*
X92204748Y-135294848D01*
X92158693Y-135363774D01*
X90241674Y-137280794D01*
X89987676Y-137534792D01*
X89987673Y-137534794D01*
X84259820Y-143262648D01*
X84244134Y-143256151D01*
X83653364Y-143256151D01*
X83107564Y-143482229D01*
X82689827Y-143899966D01*
X82678749Y-143926711D01*
X82667671Y-143899966D01*
X82249934Y-143482229D01*
X81704134Y-143256151D01*
X81113364Y-143256151D01*
X80567564Y-143482229D01*
X80149827Y-143899966D01*
X80138749Y-143926711D01*
X80127671Y-143899966D01*
X79709934Y-143482229D01*
X79164134Y-143256151D01*
X78573364Y-143256151D01*
X78027564Y-143482229D01*
X77609827Y-143899966D01*
X77598749Y-143926711D01*
X77587671Y-143899966D01*
X77169934Y-143482229D01*
X76624134Y-143256151D01*
X76033364Y-143256151D01*
X75487564Y-143482229D01*
X75069827Y-143899966D01*
X75058749Y-143926711D01*
X75047671Y-143899966D01*
X74629934Y-143482229D01*
X74084134Y-143256151D01*
X73493364Y-143256151D01*
X72947564Y-143482229D01*
X72529827Y-143899966D01*
X72518749Y-143926711D01*
X72507671Y-143899966D01*
X72089934Y-143482229D01*
X71544134Y-143256151D01*
X70953364Y-143256151D01*
X70407564Y-143482229D01*
X69989827Y-143899966D01*
X69978749Y-143926711D01*
X69967671Y-143899966D01*
X69549934Y-143482229D01*
X69004134Y-143256151D01*
X68413364Y-143256151D01*
X67867564Y-143482229D01*
X67449827Y-143899966D01*
X67438749Y-143926711D01*
X67427671Y-143899966D01*
X67009934Y-143482229D01*
X66464134Y-143256151D01*
X65873364Y-143256151D01*
X65327564Y-143482229D01*
X64909827Y-143899966D01*
X64898749Y-143926711D01*
X64887671Y-143899966D01*
X64469934Y-143482229D01*
X63924134Y-143256151D01*
X63333364Y-143256151D01*
X62787564Y-143482229D01*
X62369827Y-143899966D01*
X62358749Y-143926711D01*
X62347671Y-143899966D01*
X61929934Y-143482229D01*
X61384134Y-143256151D01*
X60793364Y-143256151D01*
X60247564Y-143482229D01*
X59829827Y-143899966D01*
X59818749Y-143926711D01*
X59807671Y-143899966D01*
X59389934Y-143482229D01*
X58844134Y-143256151D01*
X58253364Y-143256151D01*
X57707564Y-143482229D01*
X57289827Y-143899966D01*
X57278749Y-143926711D01*
X57267671Y-143899966D01*
X56849934Y-143482229D01*
X56304134Y-143256151D01*
X55713364Y-143256151D01*
X55167564Y-143482229D01*
X54749827Y-143899966D01*
X54523749Y-144445766D01*
X41088972Y-144445766D01*
X41283717Y-143975611D01*
X41283717Y-143046691D01*
X40928234Y-142188480D01*
X40271388Y-141531634D01*
X39413177Y-141176151D01*
X38484257Y-141176151D01*
X37626046Y-141531634D01*
X36969200Y-142188480D01*
X36613717Y-143046691D01*
X35762000Y-143046691D01*
X35762000Y-119148866D01*
X167613717Y-119148866D01*
X167613717Y-120873436D01*
X168273681Y-122466731D01*
X169493137Y-123686187D01*
X171086432Y-124346151D01*
X172811002Y-124346151D01*
X174404297Y-123686187D01*
X175623753Y-122466731D01*
X176283717Y-120873436D01*
X176283717Y-119148866D01*
X175623753Y-117555571D01*
X174404297Y-116336115D01*
X172811002Y-115676151D01*
X171086432Y-115676151D01*
X169493137Y-116336115D01*
X168273681Y-117555571D01*
X167613717Y-119148866D01*
X35762000Y-119148866D01*
X35762000Y-99546691D01*
X36613717Y-99546691D01*
X36613717Y-100475611D01*
X36969200Y-101333822D01*
X37626046Y-101990668D01*
X38484257Y-102346151D01*
X39413177Y-102346151D01*
X40271388Y-101990668D01*
X40928234Y-101333822D01*
X41283717Y-100475611D01*
X41283717Y-99546691D01*
X40928234Y-98688480D01*
X40271388Y-98031634D01*
X39413177Y-97676151D01*
X38484257Y-97676151D01*
X37626046Y-98031634D01*
X36969200Y-98688480D01*
X36613717Y-99546691D01*
X35762000Y-99546691D01*
X35762000Y-75819000D01*
X48920073Y-75819000D01*
X49256520Y-77510433D01*
X50214640Y-78944360D01*
X51429344Y-79756000D01*
X50214640Y-80567640D01*
X49256520Y-82001567D01*
X48920073Y-83693000D01*
X49256520Y-85384433D01*
X50214640Y-86818360D01*
X51429344Y-87630000D01*
X50214640Y-88441640D01*
X49256520Y-89875568D01*
X49005000Y-91140044D01*
X49005001Y-100829391D01*
X49256521Y-102093867D01*
X49665923Y-102706580D01*
X49773681Y-102966731D01*
X49972793Y-103165843D01*
X50214641Y-103527794D01*
X50576592Y-103769642D01*
X50993137Y-104186187D01*
X51537377Y-104411618D01*
X51648568Y-104485914D01*
X51779728Y-104512003D01*
X52586432Y-104846151D01*
X54311002Y-104846151D01*
X55904297Y-104186187D01*
X57123753Y-102966731D01*
X57783717Y-101373436D01*
X57783717Y-99648866D01*
X57675000Y-99386400D01*
X57675000Y-91140043D01*
X57532591Y-90424105D01*
X58613718Y-91505232D01*
X58613717Y-99648866D01*
X58613717Y-101373436D01*
X58780310Y-101775628D01*
X58865237Y-102202583D01*
X59107087Y-102564537D01*
X59273681Y-102966731D01*
X59581507Y-103274557D01*
X59823357Y-103636511D01*
X60185311Y-103878361D01*
X60493137Y-104186187D01*
X60895329Y-104352780D01*
X61257284Y-104594631D01*
X61684241Y-104679558D01*
X62086432Y-104846151D01*
X62521760Y-104846151D01*
X62948717Y-104931078D01*
X63375674Y-104846151D01*
X63811002Y-104846151D01*
X64213194Y-104679558D01*
X64640149Y-104594631D01*
X65002103Y-104352781D01*
X65404297Y-104186187D01*
X65712123Y-103878361D01*
X66074077Y-103636511D01*
X66315927Y-103274557D01*
X66623753Y-102966731D01*
X66790346Y-102564539D01*
X67032197Y-102202584D01*
X67117124Y-101775627D01*
X67283717Y-101373436D01*
X67283717Y-90136568D01*
X67368643Y-89709615D01*
X67283717Y-89282662D01*
X67283717Y-89282658D01*
X67032197Y-88018182D01*
X66869040Y-87774000D01*
X66315929Y-86946211D01*
X66315927Y-86946209D01*
X66074077Y-86584255D01*
X65712122Y-86342405D01*
X60299314Y-80929597D01*
X60057462Y-80567640D01*
X59438406Y-80154000D01*
X61323385Y-80154000D01*
X68113717Y-86944332D01*
X68113718Y-94851600D01*
X68113717Y-94851605D01*
X68113717Y-101373436D01*
X68280311Y-101775630D01*
X68365238Y-102202584D01*
X68607086Y-102564535D01*
X68773681Y-102966731D01*
X69081510Y-103274560D01*
X69323358Y-103636511D01*
X69685309Y-103878359D01*
X69993137Y-104186187D01*
X70395332Y-104352781D01*
X70757285Y-104594631D01*
X71184240Y-104679558D01*
X71586432Y-104846151D01*
X72021760Y-104846151D01*
X72448717Y-104931078D01*
X72875674Y-104846151D01*
X73311002Y-104846151D01*
X73713193Y-104679558D01*
X74140150Y-104594631D01*
X74502105Y-104352780D01*
X74904297Y-104186187D01*
X75212123Y-103878361D01*
X75574077Y-103636511D01*
X75815927Y-103274557D01*
X76123753Y-102966731D01*
X76290346Y-102564539D01*
X76532197Y-102202584D01*
X76617124Y-101775627D01*
X76783717Y-101373436D01*
X76783717Y-85575668D01*
X76868643Y-85148716D01*
X76783717Y-84721764D01*
X76783717Y-84721760D01*
X76532197Y-83457284D01*
X75925270Y-82548954D01*
X83360000Y-82548954D01*
X83360000Y-83995046D01*
X83913396Y-85331062D01*
X84935938Y-86353604D01*
X86271954Y-86907000D01*
X87718046Y-86907000D01*
X89054062Y-86353604D01*
X90076604Y-85331062D01*
X90630000Y-83995046D01*
X90630000Y-82548954D01*
X90076604Y-81212938D01*
X89054062Y-80190396D01*
X87718046Y-79637000D01*
X86271954Y-79637000D01*
X84935938Y-80190396D01*
X83913396Y-81212938D01*
X83360000Y-82548954D01*
X75925270Y-82548954D01*
X75574077Y-82023357D01*
X75212120Y-81781505D01*
X66486212Y-73055597D01*
X66244360Y-72693640D01*
X64810433Y-71735520D01*
X63545957Y-71484000D01*
X63545953Y-71484000D01*
X63119000Y-71399074D01*
X62692047Y-71484000D01*
X52913043Y-71484000D01*
X51648567Y-71735520D01*
X50214640Y-72693640D01*
X49256520Y-74127567D01*
X48920073Y-75819000D01*
X35762000Y-75819000D01*
X35762000Y-63754000D01*
X68814096Y-63754000D01*
X68834458Y-63856365D01*
X68892950Y-64150423D01*
X69117506Y-64486495D01*
X69202338Y-64543178D01*
X77226959Y-72567800D01*
X73043100Y-72567800D01*
X73043100Y-71556042D01*
X73089044Y-71487282D01*
X73197468Y-70942200D01*
X73089044Y-70397118D01*
X72780280Y-69935020D01*
X72690361Y-69874938D01*
X72546967Y-69660333D01*
X71958840Y-69267361D01*
X71265100Y-69129367D01*
X70571359Y-69267361D01*
X69983233Y-69660333D01*
X69839839Y-69874938D01*
X69749920Y-69935020D01*
X69441156Y-70397118D01*
X69332732Y-70942200D01*
X69441156Y-71487282D01*
X69487100Y-71556042D01*
X69487101Y-73731957D01*
X69441156Y-73800718D01*
X69332732Y-74345800D01*
X69441156Y-74890882D01*
X69749920Y-75352980D01*
X69839839Y-75413062D01*
X69983233Y-75627667D01*
X70571359Y-76020639D01*
X71089983Y-76123800D01*
X71265100Y-76158633D01*
X71440217Y-76123800D01*
X95350046Y-76123800D01*
X96670718Y-77444473D01*
X96670717Y-96555452D01*
X95993137Y-96836115D01*
X94773681Y-98055571D01*
X94113717Y-99648866D01*
X94113717Y-101373436D01*
X94773681Y-102966731D01*
X95993137Y-104186187D01*
X97586432Y-104846151D01*
X99311002Y-104846151D01*
X100904297Y-104186187D01*
X102108001Y-102982483D01*
X102108001Y-105563931D01*
X102108000Y-105563936D01*
X102108001Y-107341932D01*
X102088096Y-107442000D01*
X102119942Y-107602099D01*
X102166950Y-107838423D01*
X102391506Y-108174495D01*
X102476338Y-108231178D01*
X106906822Y-112661663D01*
X106963505Y-112746495D01*
X107160858Y-112878362D01*
X107299575Y-112971050D01*
X107299576Y-112971050D01*
X107299577Y-112971051D01*
X107595935Y-113030000D01*
X107695999Y-113049904D01*
X107796063Y-113030000D01*
X131828256Y-113030000D01*
X131874126Y-113049000D01*
X132285874Y-113049000D01*
X132471877Y-112971955D01*
X132476423Y-112971051D01*
X132480277Y-112968476D01*
X132666280Y-112891431D01*
X132808641Y-112749070D01*
X132812495Y-112746495D01*
X132815070Y-112742641D01*
X132957431Y-112600280D01*
X133034476Y-112414277D01*
X133037051Y-112410423D01*
X133037955Y-112405877D01*
X133115000Y-112219874D01*
X133115000Y-112018545D01*
X133115904Y-112014000D01*
X140972256Y-112014000D01*
X141018126Y-112033000D01*
X141429874Y-112033000D01*
X141615877Y-111955955D01*
X141620423Y-111955051D01*
X141624277Y-111952476D01*
X141810280Y-111875431D01*
X141952641Y-111733070D01*
X141956495Y-111730495D01*
X141959070Y-111726641D01*
X142101431Y-111584280D01*
X142178476Y-111398277D01*
X142181051Y-111394423D01*
X142181955Y-111389877D01*
X142259000Y-111203874D01*
X142259000Y-111002545D01*
X142259904Y-110998000D01*
X148235937Y-110998000D01*
X148336000Y-111017904D01*
X148436063Y-110998000D01*
X148436065Y-110998000D01*
X148732423Y-110939051D01*
X149068495Y-110714495D01*
X149125180Y-110629660D01*
X151596380Y-108158461D01*
X151681212Y-108101778D01*
X151905768Y-107765706D01*
X151964717Y-107469348D01*
X151964717Y-107469347D01*
X151984621Y-107369283D01*
X151964717Y-107269220D01*
X151964717Y-104905841D01*
X152264802Y-104846151D01*
X152264806Y-104846151D01*
X153529282Y-104594631D01*
X154963209Y-103636511D01*
X155205061Y-103274554D01*
X164301010Y-94178606D01*
X164301010Y-105771491D01*
X164216084Y-106198444D01*
X164301010Y-106625397D01*
X164301010Y-106625400D01*
X164552530Y-107889876D01*
X165510650Y-109323804D01*
X165872607Y-109565656D01*
X168273680Y-111966729D01*
X168273681Y-111966731D01*
X169493137Y-113186187D01*
X169895330Y-113352781D01*
X170257284Y-113594631D01*
X170684240Y-113679558D01*
X171086432Y-113846151D01*
X171521763Y-113846151D01*
X171948716Y-113931077D01*
X172375669Y-113846151D01*
X172811002Y-113846151D01*
X173213196Y-113679557D01*
X173640149Y-113594631D01*
X174002103Y-113352781D01*
X174404297Y-113186187D01*
X174712123Y-112878361D01*
X175074077Y-112636511D01*
X175315927Y-112274557D01*
X175623753Y-111966731D01*
X175790347Y-111564537D01*
X176032197Y-111202583D01*
X176117123Y-110775630D01*
X176283717Y-110373436D01*
X176283717Y-109938103D01*
X176368643Y-109511150D01*
X176283717Y-109084197D01*
X176283717Y-108648866D01*
X176117124Y-108246674D01*
X176032197Y-107819718D01*
X175790347Y-107457764D01*
X175623753Y-107055571D01*
X174404297Y-105836115D01*
X174404295Y-105836114D01*
X172971010Y-104402829D01*
X172971010Y-101835632D01*
X173126046Y-101990668D01*
X173984257Y-102346151D01*
X174913177Y-102346151D01*
X175771388Y-101990668D01*
X176428234Y-101333822D01*
X176783717Y-100475611D01*
X176783717Y-99546691D01*
X176428234Y-98688480D01*
X175771388Y-98031634D01*
X174913177Y-97676151D01*
X173984257Y-97676151D01*
X173126046Y-98031634D01*
X172971010Y-98186670D01*
X172971010Y-70982861D01*
X173055936Y-70555908D01*
X172971010Y-70128955D01*
X172971010Y-70128951D01*
X172719490Y-68864475D01*
X172529410Y-68580000D01*
X172003222Y-67792504D01*
X172003220Y-67792502D01*
X171761370Y-67430548D01*
X171399415Y-67188697D01*
X167995314Y-63784597D01*
X167753462Y-63422640D01*
X166319535Y-62464520D01*
X165055059Y-62213000D01*
X165055055Y-62213000D01*
X164628102Y-62128074D01*
X164201149Y-62213000D01*
X160609043Y-62213000D01*
X159344567Y-62464520D01*
X157910640Y-63422640D01*
X156952520Y-64856567D01*
X156616073Y-66548000D01*
X156952520Y-68239433D01*
X157910640Y-69673360D01*
X159344567Y-70631480D01*
X160609043Y-70883000D01*
X162832487Y-70883000D01*
X164301011Y-72351525D01*
X164301011Y-72648642D01*
X164161360Y-72439640D01*
X162727433Y-71481520D01*
X161462957Y-71230000D01*
X152089229Y-71230000D01*
X151662277Y-71145074D01*
X151235325Y-71230000D01*
X151235321Y-71230000D01*
X149970845Y-71481520D01*
X148536918Y-72439640D01*
X148295066Y-72801597D01*
X129185312Y-91911351D01*
X128823358Y-92153201D01*
X128581508Y-92515155D01*
X128581505Y-92515158D01*
X127865237Y-93587129D01*
X127757345Y-94129541D01*
X127613717Y-94851604D01*
X127613717Y-94851608D01*
X127528791Y-95278561D01*
X127613717Y-95705514D01*
X127613717Y-101373436D01*
X127780310Y-101775628D01*
X127865237Y-102202583D01*
X128107087Y-102564537D01*
X128273681Y-102966731D01*
X128581507Y-103274557D01*
X128823357Y-103636511D01*
X129185311Y-103878361D01*
X129493137Y-104186187D01*
X129895329Y-104352780D01*
X130257284Y-104594631D01*
X130684241Y-104679558D01*
X131086432Y-104846151D01*
X131521760Y-104846151D01*
X131948717Y-104931078D01*
X132375674Y-104846151D01*
X132811002Y-104846151D01*
X133213194Y-104679558D01*
X133640149Y-104594631D01*
X134002103Y-104352781D01*
X134404297Y-104186187D01*
X134712123Y-103878361D01*
X135074077Y-103636511D01*
X135315927Y-103274557D01*
X135623753Y-102966731D01*
X135790346Y-102564539D01*
X136032197Y-102202584D01*
X136117124Y-101775627D01*
X136283717Y-101373436D01*
X136283717Y-97074176D01*
X153457893Y-79900000D01*
X154084695Y-79900000D01*
X153827596Y-80071788D01*
X153827594Y-80071790D01*
X153465640Y-80313640D01*
X153223790Y-80675594D01*
X138685312Y-95214073D01*
X138323358Y-95455923D01*
X138081507Y-95817878D01*
X138081505Y-95817880D01*
X137842116Y-96176151D01*
X137365237Y-96889850D01*
X137113717Y-98154326D01*
X137113717Y-98154330D01*
X137028791Y-98581283D01*
X137113717Y-99008236D01*
X137113717Y-101373436D01*
X137280310Y-101775628D01*
X137365237Y-102202583D01*
X137607087Y-102564537D01*
X137773681Y-102966731D01*
X138081507Y-103274557D01*
X138323357Y-103636511D01*
X138685311Y-103878361D01*
X138993137Y-104186187D01*
X139395329Y-104352780D01*
X139757284Y-104594631D01*
X140184241Y-104679558D01*
X140586432Y-104846151D01*
X141021760Y-104846151D01*
X141448717Y-104931078D01*
X141875674Y-104846151D01*
X142311002Y-104846151D01*
X142713194Y-104679558D01*
X143140149Y-104594631D01*
X143502103Y-104352781D01*
X143904297Y-104186187D01*
X144212123Y-103878361D01*
X144574077Y-103636511D01*
X144815927Y-103274557D01*
X145123753Y-102966731D01*
X145290346Y-102564539D01*
X145532197Y-102202584D01*
X145617124Y-101775627D01*
X145783717Y-101373436D01*
X145783717Y-100376898D01*
X146685819Y-99474796D01*
X146613717Y-99648866D01*
X146613717Y-100084194D01*
X146528790Y-100511151D01*
X146613717Y-100938107D01*
X146613717Y-101373436D01*
X146780310Y-101775627D01*
X146865237Y-102202584D01*
X147107088Y-102564539D01*
X147273681Y-102966731D01*
X147581507Y-103274557D01*
X147823357Y-103636511D01*
X148185311Y-103878361D01*
X148493137Y-104186187D01*
X148895329Y-104352780D01*
X149257284Y-104594631D01*
X149684241Y-104679558D01*
X149932718Y-104782480D01*
X149932718Y-106948441D01*
X147915160Y-108966000D01*
X108805813Y-108966000D01*
X106064020Y-106224208D01*
X106064020Y-102460564D01*
X106273681Y-102966731D01*
X107493137Y-104186187D01*
X109086432Y-104846151D01*
X110811002Y-104846151D01*
X112404297Y-104186187D01*
X113623753Y-102966731D01*
X114283717Y-101373436D01*
X114283717Y-99648866D01*
X113623753Y-98055571D01*
X112404297Y-96836115D01*
X111726717Y-96555452D01*
X111726717Y-77317471D01*
X112920389Y-76123800D01*
X142427783Y-76123800D01*
X142602900Y-76158633D01*
X143296641Y-76020639D01*
X143884767Y-75627667D01*
X144028161Y-75413062D01*
X144118080Y-75352980D01*
X144426844Y-74890882D01*
X144535268Y-74345800D01*
X144426844Y-73800718D01*
X144380900Y-73731958D01*
X144380900Y-71556042D01*
X144426844Y-71487282D01*
X144535268Y-70942200D01*
X144426844Y-70397118D01*
X144118080Y-69935020D01*
X144028161Y-69874938D01*
X143884767Y-69660333D01*
X143296640Y-69267361D01*
X142602900Y-69129367D01*
X141909159Y-69267361D01*
X141321033Y-69660333D01*
X141177639Y-69874938D01*
X141087720Y-69935020D01*
X140778956Y-70397118D01*
X140670532Y-70942200D01*
X140778956Y-71487282D01*
X140824900Y-71556042D01*
X140824900Y-72567800D01*
X112359032Y-72567800D01*
X112183916Y-72532967D01*
X112008800Y-72567800D01*
X111490176Y-72670961D01*
X110902050Y-73063933D01*
X110802853Y-73212392D01*
X108815309Y-75199937D01*
X108666851Y-75299133D01*
X108546528Y-75479210D01*
X108273879Y-75887259D01*
X108135884Y-76581000D01*
X108170718Y-76756121D01*
X108170717Y-96555452D01*
X107493137Y-96836115D01*
X106273681Y-98055571D01*
X106064020Y-98561738D01*
X106064020Y-77281109D01*
X106083924Y-77181045D01*
X106036394Y-76942096D01*
X106005071Y-76784623D01*
X105780515Y-76448551D01*
X105695683Y-76391868D01*
X99034222Y-69730408D01*
X98830485Y-69425495D01*
X98494413Y-69200939D01*
X98198055Y-69141990D01*
X98097990Y-69122086D01*
X97997926Y-69141990D01*
X85056831Y-69141990D01*
X84074000Y-68159160D01*
X84074000Y-63802126D01*
X99295000Y-63802126D01*
X99295000Y-64213874D01*
X99452569Y-64594280D01*
X99743720Y-64885431D01*
X100124126Y-65043000D01*
X100535874Y-65043000D01*
X100585595Y-65022405D01*
X100565000Y-65072126D01*
X100565000Y-65483874D01*
X100722569Y-65864280D01*
X101013720Y-66155431D01*
X101394126Y-66313000D01*
X101805874Y-66313000D01*
X102186280Y-66155431D01*
X102238211Y-66103500D01*
X104167237Y-66103500D01*
X104278569Y-66372280D01*
X104569720Y-66663431D01*
X104950126Y-66821000D01*
X105361874Y-66821000D01*
X105742280Y-66663431D01*
X106033431Y-66372280D01*
X106191000Y-65991874D01*
X106191000Y-65580126D01*
X106033431Y-65199720D01*
X105742280Y-64908569D01*
X105561047Y-64833500D01*
X105582699Y-64833500D01*
X105664000Y-64849672D01*
X105745301Y-64833500D01*
X105745303Y-64833500D01*
X105986094Y-64785604D01*
X106259152Y-64603152D01*
X106305209Y-64534223D01*
X107974433Y-62865000D01*
X108481881Y-62865000D01*
X108995337Y-62652320D01*
X109388320Y-62259337D01*
X109601000Y-61745881D01*
X109601000Y-61190119D01*
X109542528Y-61048954D01*
X123250700Y-61048954D01*
X123250700Y-62495046D01*
X123804096Y-63831062D01*
X124826638Y-64853604D01*
X126162654Y-65407000D01*
X127608746Y-65407000D01*
X128944762Y-64853604D01*
X129967304Y-63831062D01*
X130520700Y-62495046D01*
X130520700Y-61048954D01*
X129967304Y-59712938D01*
X128944762Y-58690396D01*
X127608746Y-58137000D01*
X126162654Y-58137000D01*
X124826638Y-58690396D01*
X123804096Y-59712938D01*
X123250700Y-61048954D01*
X109542528Y-61048954D01*
X109388320Y-60676663D01*
X108995337Y-60283680D01*
X108481881Y-60071000D01*
X107926119Y-60071000D01*
X107412663Y-60283680D01*
X107019680Y-60676663D01*
X106807000Y-61190119D01*
X106807000Y-61697567D01*
X105322068Y-63182500D01*
X100968211Y-63182500D01*
X100916280Y-63130569D01*
X100535874Y-62973000D01*
X100124126Y-62973000D01*
X99743720Y-63130569D01*
X99452569Y-63421720D01*
X99295000Y-63802126D01*
X84074000Y-63802126D01*
X84074000Y-61465744D01*
X84093000Y-61419874D01*
X84093000Y-61190119D01*
X101727000Y-61190119D01*
X101727000Y-61745881D01*
X101939680Y-62259337D01*
X102332663Y-62652320D01*
X102846119Y-62865000D01*
X103401881Y-62865000D01*
X103915337Y-62652320D01*
X104308320Y-62259337D01*
X104521000Y-61745881D01*
X104521000Y-61190119D01*
X104308320Y-60676663D01*
X103915337Y-60283680D01*
X103401881Y-60071000D01*
X102846119Y-60071000D01*
X102332663Y-60283680D01*
X101939680Y-60676663D01*
X101727000Y-61190119D01*
X84093000Y-61190119D01*
X84093000Y-61008126D01*
X84015955Y-60822123D01*
X84015051Y-60817577D01*
X84012476Y-60813723D01*
X83935431Y-60627720D01*
X83793070Y-60485359D01*
X83790495Y-60481505D01*
X83786641Y-60478930D01*
X83644280Y-60336569D01*
X83458275Y-60259523D01*
X83454422Y-60256949D01*
X83449878Y-60256045D01*
X83263874Y-60179000D01*
X83062545Y-60179000D01*
X83058000Y-60178096D01*
X83053455Y-60179000D01*
X82852126Y-60179000D01*
X82666123Y-60256045D01*
X82661577Y-60256949D01*
X82657723Y-60259524D01*
X82471720Y-60336569D01*
X82329359Y-60478930D01*
X82325505Y-60481505D01*
X82322930Y-60485359D01*
X82180569Y-60627720D01*
X82103523Y-60813725D01*
X82100949Y-60817578D01*
X82100045Y-60822122D01*
X82023000Y-61008126D01*
X82023000Y-61419874D01*
X82042000Y-61465744D01*
X82042001Y-68479932D01*
X82022096Y-68580000D01*
X82078682Y-68864475D01*
X82100950Y-68976423D01*
X82325506Y-69312495D01*
X82410337Y-69369178D01*
X83145159Y-70104000D01*
X78997327Y-70104000D01*
X77470000Y-68576674D01*
X77470000Y-61465744D01*
X77489000Y-61419874D01*
X77489000Y-61008126D01*
X77411955Y-60822123D01*
X77411051Y-60817577D01*
X77408476Y-60813723D01*
X77331431Y-60627720D01*
X77189070Y-60485359D01*
X77186495Y-60481505D01*
X77182641Y-60478930D01*
X77040280Y-60336569D01*
X76854275Y-60259523D01*
X76850422Y-60256949D01*
X76845878Y-60256045D01*
X76659874Y-60179000D01*
X76458545Y-60179000D01*
X76454000Y-60178096D01*
X76449455Y-60179000D01*
X76248126Y-60179000D01*
X76062123Y-60256045D01*
X76057577Y-60256949D01*
X76053723Y-60259524D01*
X75867720Y-60336569D01*
X75725359Y-60478930D01*
X75721505Y-60481505D01*
X75718930Y-60485359D01*
X75576569Y-60627720D01*
X75499523Y-60813725D01*
X75496949Y-60817578D01*
X75496045Y-60822122D01*
X75419000Y-61008126D01*
X75419000Y-61419874D01*
X75438000Y-61465744D01*
X75438001Y-67905160D01*
X70866000Y-63333160D01*
X70866000Y-61465744D01*
X70885000Y-61419874D01*
X70885000Y-61008126D01*
X70807955Y-60822123D01*
X70807051Y-60817577D01*
X70804476Y-60813723D01*
X70727431Y-60627720D01*
X70585070Y-60485359D01*
X70582495Y-60481505D01*
X70578641Y-60478930D01*
X70436280Y-60336569D01*
X70250275Y-60259523D01*
X70246422Y-60256949D01*
X70241878Y-60256045D01*
X70055874Y-60179000D01*
X69854545Y-60179000D01*
X69850000Y-60178096D01*
X69845455Y-60179000D01*
X69644126Y-60179000D01*
X69458123Y-60256045D01*
X69453577Y-60256949D01*
X69449723Y-60259524D01*
X69263720Y-60336569D01*
X69121359Y-60478930D01*
X69117505Y-60481505D01*
X69114930Y-60485359D01*
X68972569Y-60627720D01*
X68895523Y-60813725D01*
X68892949Y-60817578D01*
X68892045Y-60822122D01*
X68815000Y-61008126D01*
X68815000Y-61419874D01*
X68834000Y-61465744D01*
X68834001Y-63653932D01*
X68814096Y-63754000D01*
X35762000Y-63754000D01*
X35762000Y-52362567D01*
X99494000Y-52362567D01*
X99494000Y-53301433D01*
X99853289Y-54168833D01*
X100517167Y-54832711D01*
X101384567Y-55192000D01*
X102323433Y-55192000D01*
X103190833Y-54832711D01*
X103854711Y-54168833D01*
X104214000Y-53301433D01*
X104214000Y-52362567D01*
X107114000Y-52362567D01*
X107114000Y-53301433D01*
X107473289Y-54168833D01*
X108137167Y-54832711D01*
X109004567Y-55192000D01*
X109943433Y-55192000D01*
X110810833Y-54832711D01*
X111474711Y-54168833D01*
X111834000Y-53301433D01*
X111834000Y-52362567D01*
X111474711Y-51495167D01*
X110810833Y-50831289D01*
X109943433Y-50472000D01*
X109004567Y-50472000D01*
X108137167Y-50831289D01*
X107473289Y-51495167D01*
X107114000Y-52362567D01*
X104214000Y-52362567D01*
X103854711Y-51495167D01*
X103190833Y-50831289D01*
X102323433Y-50472000D01*
X101384567Y-50472000D01*
X100517167Y-50831289D01*
X99853289Y-51495167D01*
X99494000Y-52362567D01*
X35762000Y-52362567D01*
X35762000Y-50088581D01*
X35822090Y-49668991D01*
X35976381Y-49329648D01*
X36219712Y-49047248D01*
X36532523Y-48844494D01*
X36913184Y-48730652D01*
X37110350Y-48716000D01*
X177241419Y-48716000D01*
X177661009Y-48776090D01*
G36*
X102108000Y-78398841D02*
X102108001Y-98039819D01*
X100904297Y-96836115D01*
X100226717Y-96555452D01*
X100226717Y-76883115D01*
X100261550Y-76707999D01*
X100222911Y-76513752D01*
X102108000Y-78398841D01*
X102108000Y-78398841D01*
G37*
X102108000Y-78398841D02*
X102108001Y-98039819D01*
X100904297Y-96836115D01*
X100226717Y-96555452D01*
X100226717Y-76883115D01*
X100261550Y-76707999D01*
X100222911Y-76513752D01*
X102108000Y-78398841D01*
G04 #@! TD*
M02*
