G04 #@! TF.GenerationSoftware,KiCad,Pcbnew,(5.0.2)-1*
G04 #@! TF.CreationDate,2019-03-05T00:17:48-06:00*
G04 #@! TF.ProjectId,ODriveInterfacingBoard,4f447269-7665-4496-9e74-657266616369,rev?*
G04 #@! TF.SameCoordinates,Original*
G04 #@! TF.FileFunction,Paste,Top*
G04 #@! TF.FilePolarity,Positive*
%FSLAX46Y46*%
G04 Gerber Fmt 4.6, Leading zero omitted, Abs format (unit mm)*
G04 Created by KiCad (PCBNEW (5.0.2)-1) date 3/5/2019 12:17:48 AM*
%MOMM*%
%LPD*%
G01*
G04 APERTURE LIST*
%ADD10C,5.080000*%
%ADD11C,0.100000*%
%ADD12C,0.950000*%
%ADD13R,1.550000X0.600000*%
G04 APERTURE END LIST*
D10*
G04 #@! TO.C,Conn3*
X161036000Y-66548000D03*
X153162000Y-66548000D03*
G04 #@! TD*
D11*
G04 #@! TO.C,D1*
G36*
X69765779Y-60105144D02*
X69788834Y-60108563D01*
X69811443Y-60114227D01*
X69833387Y-60122079D01*
X69854457Y-60132044D01*
X69874448Y-60144026D01*
X69893168Y-60157910D01*
X69910438Y-60173562D01*
X69926090Y-60190832D01*
X69939974Y-60209552D01*
X69951956Y-60229543D01*
X69961921Y-60250613D01*
X69969773Y-60272557D01*
X69975437Y-60295166D01*
X69978856Y-60318221D01*
X69980000Y-60341500D01*
X69980000Y-60816500D01*
X69978856Y-60839779D01*
X69975437Y-60862834D01*
X69969773Y-60885443D01*
X69961921Y-60907387D01*
X69951956Y-60928457D01*
X69939974Y-60948448D01*
X69926090Y-60967168D01*
X69910438Y-60984438D01*
X69893168Y-61000090D01*
X69874448Y-61013974D01*
X69854457Y-61025956D01*
X69833387Y-61035921D01*
X69811443Y-61043773D01*
X69788834Y-61049437D01*
X69765779Y-61052856D01*
X69742500Y-61054000D01*
X69167500Y-61054000D01*
X69144221Y-61052856D01*
X69121166Y-61049437D01*
X69098557Y-61043773D01*
X69076613Y-61035921D01*
X69055543Y-61025956D01*
X69035552Y-61013974D01*
X69016832Y-61000090D01*
X68999562Y-60984438D01*
X68983910Y-60967168D01*
X68970026Y-60948448D01*
X68958044Y-60928457D01*
X68948079Y-60907387D01*
X68940227Y-60885443D01*
X68934563Y-60862834D01*
X68931144Y-60839779D01*
X68930000Y-60816500D01*
X68930000Y-60341500D01*
X68931144Y-60318221D01*
X68934563Y-60295166D01*
X68940227Y-60272557D01*
X68948079Y-60250613D01*
X68958044Y-60229543D01*
X68970026Y-60209552D01*
X68983910Y-60190832D01*
X68999562Y-60173562D01*
X69016832Y-60157910D01*
X69035552Y-60144026D01*
X69055543Y-60132044D01*
X69076613Y-60122079D01*
X69098557Y-60114227D01*
X69121166Y-60108563D01*
X69144221Y-60105144D01*
X69167500Y-60104000D01*
X69742500Y-60104000D01*
X69765779Y-60105144D01*
X69765779Y-60105144D01*
G37*
D12*
X69455000Y-60579000D03*
D11*
G36*
X68015779Y-60105144D02*
X68038834Y-60108563D01*
X68061443Y-60114227D01*
X68083387Y-60122079D01*
X68104457Y-60132044D01*
X68124448Y-60144026D01*
X68143168Y-60157910D01*
X68160438Y-60173562D01*
X68176090Y-60190832D01*
X68189974Y-60209552D01*
X68201956Y-60229543D01*
X68211921Y-60250613D01*
X68219773Y-60272557D01*
X68225437Y-60295166D01*
X68228856Y-60318221D01*
X68230000Y-60341500D01*
X68230000Y-60816500D01*
X68228856Y-60839779D01*
X68225437Y-60862834D01*
X68219773Y-60885443D01*
X68211921Y-60907387D01*
X68201956Y-60928457D01*
X68189974Y-60948448D01*
X68176090Y-60967168D01*
X68160438Y-60984438D01*
X68143168Y-61000090D01*
X68124448Y-61013974D01*
X68104457Y-61025956D01*
X68083387Y-61035921D01*
X68061443Y-61043773D01*
X68038834Y-61049437D01*
X68015779Y-61052856D01*
X67992500Y-61054000D01*
X67417500Y-61054000D01*
X67394221Y-61052856D01*
X67371166Y-61049437D01*
X67348557Y-61043773D01*
X67326613Y-61035921D01*
X67305543Y-61025956D01*
X67285552Y-61013974D01*
X67266832Y-61000090D01*
X67249562Y-60984438D01*
X67233910Y-60967168D01*
X67220026Y-60948448D01*
X67208044Y-60928457D01*
X67198079Y-60907387D01*
X67190227Y-60885443D01*
X67184563Y-60862834D01*
X67181144Y-60839779D01*
X67180000Y-60816500D01*
X67180000Y-60341500D01*
X67181144Y-60318221D01*
X67184563Y-60295166D01*
X67190227Y-60272557D01*
X67198079Y-60250613D01*
X67208044Y-60229543D01*
X67220026Y-60209552D01*
X67233910Y-60190832D01*
X67249562Y-60173562D01*
X67266832Y-60157910D01*
X67285552Y-60144026D01*
X67305543Y-60132044D01*
X67326613Y-60122079D01*
X67348557Y-60114227D01*
X67371166Y-60108563D01*
X67394221Y-60105144D01*
X67417500Y-60104000D01*
X67992500Y-60104000D01*
X68015779Y-60105144D01*
X68015779Y-60105144D01*
G37*
D12*
X67705000Y-60579000D03*
G04 #@! TD*
D11*
G04 #@! TO.C,D2*
G36*
X69765779Y-57311144D02*
X69788834Y-57314563D01*
X69811443Y-57320227D01*
X69833387Y-57328079D01*
X69854457Y-57338044D01*
X69874448Y-57350026D01*
X69893168Y-57363910D01*
X69910438Y-57379562D01*
X69926090Y-57396832D01*
X69939974Y-57415552D01*
X69951956Y-57435543D01*
X69961921Y-57456613D01*
X69969773Y-57478557D01*
X69975437Y-57501166D01*
X69978856Y-57524221D01*
X69980000Y-57547500D01*
X69980000Y-58022500D01*
X69978856Y-58045779D01*
X69975437Y-58068834D01*
X69969773Y-58091443D01*
X69961921Y-58113387D01*
X69951956Y-58134457D01*
X69939974Y-58154448D01*
X69926090Y-58173168D01*
X69910438Y-58190438D01*
X69893168Y-58206090D01*
X69874448Y-58219974D01*
X69854457Y-58231956D01*
X69833387Y-58241921D01*
X69811443Y-58249773D01*
X69788834Y-58255437D01*
X69765779Y-58258856D01*
X69742500Y-58260000D01*
X69167500Y-58260000D01*
X69144221Y-58258856D01*
X69121166Y-58255437D01*
X69098557Y-58249773D01*
X69076613Y-58241921D01*
X69055543Y-58231956D01*
X69035552Y-58219974D01*
X69016832Y-58206090D01*
X68999562Y-58190438D01*
X68983910Y-58173168D01*
X68970026Y-58154448D01*
X68958044Y-58134457D01*
X68948079Y-58113387D01*
X68940227Y-58091443D01*
X68934563Y-58068834D01*
X68931144Y-58045779D01*
X68930000Y-58022500D01*
X68930000Y-57547500D01*
X68931144Y-57524221D01*
X68934563Y-57501166D01*
X68940227Y-57478557D01*
X68948079Y-57456613D01*
X68958044Y-57435543D01*
X68970026Y-57415552D01*
X68983910Y-57396832D01*
X68999562Y-57379562D01*
X69016832Y-57363910D01*
X69035552Y-57350026D01*
X69055543Y-57338044D01*
X69076613Y-57328079D01*
X69098557Y-57320227D01*
X69121166Y-57314563D01*
X69144221Y-57311144D01*
X69167500Y-57310000D01*
X69742500Y-57310000D01*
X69765779Y-57311144D01*
X69765779Y-57311144D01*
G37*
D12*
X69455000Y-57785000D03*
D11*
G36*
X68015779Y-57311144D02*
X68038834Y-57314563D01*
X68061443Y-57320227D01*
X68083387Y-57328079D01*
X68104457Y-57338044D01*
X68124448Y-57350026D01*
X68143168Y-57363910D01*
X68160438Y-57379562D01*
X68176090Y-57396832D01*
X68189974Y-57415552D01*
X68201956Y-57435543D01*
X68211921Y-57456613D01*
X68219773Y-57478557D01*
X68225437Y-57501166D01*
X68228856Y-57524221D01*
X68230000Y-57547500D01*
X68230000Y-58022500D01*
X68228856Y-58045779D01*
X68225437Y-58068834D01*
X68219773Y-58091443D01*
X68211921Y-58113387D01*
X68201956Y-58134457D01*
X68189974Y-58154448D01*
X68176090Y-58173168D01*
X68160438Y-58190438D01*
X68143168Y-58206090D01*
X68124448Y-58219974D01*
X68104457Y-58231956D01*
X68083387Y-58241921D01*
X68061443Y-58249773D01*
X68038834Y-58255437D01*
X68015779Y-58258856D01*
X67992500Y-58260000D01*
X67417500Y-58260000D01*
X67394221Y-58258856D01*
X67371166Y-58255437D01*
X67348557Y-58249773D01*
X67326613Y-58241921D01*
X67305543Y-58231956D01*
X67285552Y-58219974D01*
X67266832Y-58206090D01*
X67249562Y-58190438D01*
X67233910Y-58173168D01*
X67220026Y-58154448D01*
X67208044Y-58134457D01*
X67198079Y-58113387D01*
X67190227Y-58091443D01*
X67184563Y-58068834D01*
X67181144Y-58045779D01*
X67180000Y-58022500D01*
X67180000Y-57547500D01*
X67181144Y-57524221D01*
X67184563Y-57501166D01*
X67190227Y-57478557D01*
X67198079Y-57456613D01*
X67208044Y-57435543D01*
X67220026Y-57415552D01*
X67233910Y-57396832D01*
X67249562Y-57379562D01*
X67266832Y-57363910D01*
X67285552Y-57350026D01*
X67305543Y-57338044D01*
X67326613Y-57328079D01*
X67348557Y-57320227D01*
X67371166Y-57314563D01*
X67394221Y-57311144D01*
X67417500Y-57310000D01*
X67992500Y-57310000D01*
X68015779Y-57311144D01*
X68015779Y-57311144D01*
G37*
D12*
X67705000Y-57785000D03*
G04 #@! TD*
D11*
G04 #@! TO.C,D3*
G36*
X145443779Y-55279144D02*
X145466834Y-55282563D01*
X145489443Y-55288227D01*
X145511387Y-55296079D01*
X145532457Y-55306044D01*
X145552448Y-55318026D01*
X145571168Y-55331910D01*
X145588438Y-55347562D01*
X145604090Y-55364832D01*
X145617974Y-55383552D01*
X145629956Y-55403543D01*
X145639921Y-55424613D01*
X145647773Y-55446557D01*
X145653437Y-55469166D01*
X145656856Y-55492221D01*
X145658000Y-55515500D01*
X145658000Y-55990500D01*
X145656856Y-56013779D01*
X145653437Y-56036834D01*
X145647773Y-56059443D01*
X145639921Y-56081387D01*
X145629956Y-56102457D01*
X145617974Y-56122448D01*
X145604090Y-56141168D01*
X145588438Y-56158438D01*
X145571168Y-56174090D01*
X145552448Y-56187974D01*
X145532457Y-56199956D01*
X145511387Y-56209921D01*
X145489443Y-56217773D01*
X145466834Y-56223437D01*
X145443779Y-56226856D01*
X145420500Y-56228000D01*
X144845500Y-56228000D01*
X144822221Y-56226856D01*
X144799166Y-56223437D01*
X144776557Y-56217773D01*
X144754613Y-56209921D01*
X144733543Y-56199956D01*
X144713552Y-56187974D01*
X144694832Y-56174090D01*
X144677562Y-56158438D01*
X144661910Y-56141168D01*
X144648026Y-56122448D01*
X144636044Y-56102457D01*
X144626079Y-56081387D01*
X144618227Y-56059443D01*
X144612563Y-56036834D01*
X144609144Y-56013779D01*
X144608000Y-55990500D01*
X144608000Y-55515500D01*
X144609144Y-55492221D01*
X144612563Y-55469166D01*
X144618227Y-55446557D01*
X144626079Y-55424613D01*
X144636044Y-55403543D01*
X144648026Y-55383552D01*
X144661910Y-55364832D01*
X144677562Y-55347562D01*
X144694832Y-55331910D01*
X144713552Y-55318026D01*
X144733543Y-55306044D01*
X144754613Y-55296079D01*
X144776557Y-55288227D01*
X144799166Y-55282563D01*
X144822221Y-55279144D01*
X144845500Y-55278000D01*
X145420500Y-55278000D01*
X145443779Y-55279144D01*
X145443779Y-55279144D01*
G37*
D12*
X145133000Y-55753000D03*
D11*
G36*
X143693779Y-55279144D02*
X143716834Y-55282563D01*
X143739443Y-55288227D01*
X143761387Y-55296079D01*
X143782457Y-55306044D01*
X143802448Y-55318026D01*
X143821168Y-55331910D01*
X143838438Y-55347562D01*
X143854090Y-55364832D01*
X143867974Y-55383552D01*
X143879956Y-55403543D01*
X143889921Y-55424613D01*
X143897773Y-55446557D01*
X143903437Y-55469166D01*
X143906856Y-55492221D01*
X143908000Y-55515500D01*
X143908000Y-55990500D01*
X143906856Y-56013779D01*
X143903437Y-56036834D01*
X143897773Y-56059443D01*
X143889921Y-56081387D01*
X143879956Y-56102457D01*
X143867974Y-56122448D01*
X143854090Y-56141168D01*
X143838438Y-56158438D01*
X143821168Y-56174090D01*
X143802448Y-56187974D01*
X143782457Y-56199956D01*
X143761387Y-56209921D01*
X143739443Y-56217773D01*
X143716834Y-56223437D01*
X143693779Y-56226856D01*
X143670500Y-56228000D01*
X143095500Y-56228000D01*
X143072221Y-56226856D01*
X143049166Y-56223437D01*
X143026557Y-56217773D01*
X143004613Y-56209921D01*
X142983543Y-56199956D01*
X142963552Y-56187974D01*
X142944832Y-56174090D01*
X142927562Y-56158438D01*
X142911910Y-56141168D01*
X142898026Y-56122448D01*
X142886044Y-56102457D01*
X142876079Y-56081387D01*
X142868227Y-56059443D01*
X142862563Y-56036834D01*
X142859144Y-56013779D01*
X142858000Y-55990500D01*
X142858000Y-55515500D01*
X142859144Y-55492221D01*
X142862563Y-55469166D01*
X142868227Y-55446557D01*
X142876079Y-55424613D01*
X142886044Y-55403543D01*
X142898026Y-55383552D01*
X142911910Y-55364832D01*
X142927562Y-55347562D01*
X142944832Y-55331910D01*
X142963552Y-55318026D01*
X142983543Y-55306044D01*
X143004613Y-55296079D01*
X143026557Y-55288227D01*
X143049166Y-55282563D01*
X143072221Y-55279144D01*
X143095500Y-55278000D01*
X143670500Y-55278000D01*
X143693779Y-55279144D01*
X143693779Y-55279144D01*
G37*
D12*
X143383000Y-55753000D03*
G04 #@! TD*
D11*
G04 #@! TO.C,D4*
G36*
X69765779Y-54517144D02*
X69788834Y-54520563D01*
X69811443Y-54526227D01*
X69833387Y-54534079D01*
X69854457Y-54544044D01*
X69874448Y-54556026D01*
X69893168Y-54569910D01*
X69910438Y-54585562D01*
X69926090Y-54602832D01*
X69939974Y-54621552D01*
X69951956Y-54641543D01*
X69961921Y-54662613D01*
X69969773Y-54684557D01*
X69975437Y-54707166D01*
X69978856Y-54730221D01*
X69980000Y-54753500D01*
X69980000Y-55228500D01*
X69978856Y-55251779D01*
X69975437Y-55274834D01*
X69969773Y-55297443D01*
X69961921Y-55319387D01*
X69951956Y-55340457D01*
X69939974Y-55360448D01*
X69926090Y-55379168D01*
X69910438Y-55396438D01*
X69893168Y-55412090D01*
X69874448Y-55425974D01*
X69854457Y-55437956D01*
X69833387Y-55447921D01*
X69811443Y-55455773D01*
X69788834Y-55461437D01*
X69765779Y-55464856D01*
X69742500Y-55466000D01*
X69167500Y-55466000D01*
X69144221Y-55464856D01*
X69121166Y-55461437D01*
X69098557Y-55455773D01*
X69076613Y-55447921D01*
X69055543Y-55437956D01*
X69035552Y-55425974D01*
X69016832Y-55412090D01*
X68999562Y-55396438D01*
X68983910Y-55379168D01*
X68970026Y-55360448D01*
X68958044Y-55340457D01*
X68948079Y-55319387D01*
X68940227Y-55297443D01*
X68934563Y-55274834D01*
X68931144Y-55251779D01*
X68930000Y-55228500D01*
X68930000Y-54753500D01*
X68931144Y-54730221D01*
X68934563Y-54707166D01*
X68940227Y-54684557D01*
X68948079Y-54662613D01*
X68958044Y-54641543D01*
X68970026Y-54621552D01*
X68983910Y-54602832D01*
X68999562Y-54585562D01*
X69016832Y-54569910D01*
X69035552Y-54556026D01*
X69055543Y-54544044D01*
X69076613Y-54534079D01*
X69098557Y-54526227D01*
X69121166Y-54520563D01*
X69144221Y-54517144D01*
X69167500Y-54516000D01*
X69742500Y-54516000D01*
X69765779Y-54517144D01*
X69765779Y-54517144D01*
G37*
D12*
X69455000Y-54991000D03*
D11*
G36*
X68015779Y-54517144D02*
X68038834Y-54520563D01*
X68061443Y-54526227D01*
X68083387Y-54534079D01*
X68104457Y-54544044D01*
X68124448Y-54556026D01*
X68143168Y-54569910D01*
X68160438Y-54585562D01*
X68176090Y-54602832D01*
X68189974Y-54621552D01*
X68201956Y-54641543D01*
X68211921Y-54662613D01*
X68219773Y-54684557D01*
X68225437Y-54707166D01*
X68228856Y-54730221D01*
X68230000Y-54753500D01*
X68230000Y-55228500D01*
X68228856Y-55251779D01*
X68225437Y-55274834D01*
X68219773Y-55297443D01*
X68211921Y-55319387D01*
X68201956Y-55340457D01*
X68189974Y-55360448D01*
X68176090Y-55379168D01*
X68160438Y-55396438D01*
X68143168Y-55412090D01*
X68124448Y-55425974D01*
X68104457Y-55437956D01*
X68083387Y-55447921D01*
X68061443Y-55455773D01*
X68038834Y-55461437D01*
X68015779Y-55464856D01*
X67992500Y-55466000D01*
X67417500Y-55466000D01*
X67394221Y-55464856D01*
X67371166Y-55461437D01*
X67348557Y-55455773D01*
X67326613Y-55447921D01*
X67305543Y-55437956D01*
X67285552Y-55425974D01*
X67266832Y-55412090D01*
X67249562Y-55396438D01*
X67233910Y-55379168D01*
X67220026Y-55360448D01*
X67208044Y-55340457D01*
X67198079Y-55319387D01*
X67190227Y-55297443D01*
X67184563Y-55274834D01*
X67181144Y-55251779D01*
X67180000Y-55228500D01*
X67180000Y-54753500D01*
X67181144Y-54730221D01*
X67184563Y-54707166D01*
X67190227Y-54684557D01*
X67198079Y-54662613D01*
X67208044Y-54641543D01*
X67220026Y-54621552D01*
X67233910Y-54602832D01*
X67249562Y-54585562D01*
X67266832Y-54569910D01*
X67285552Y-54556026D01*
X67305543Y-54544044D01*
X67326613Y-54534079D01*
X67348557Y-54526227D01*
X67371166Y-54520563D01*
X67394221Y-54517144D01*
X67417500Y-54516000D01*
X67992500Y-54516000D01*
X68015779Y-54517144D01*
X68015779Y-54517144D01*
G37*
D12*
X67705000Y-54991000D03*
G04 #@! TD*
D11*
G04 #@! TO.C,D5*
G36*
X143707779Y-57565144D02*
X143730834Y-57568563D01*
X143753443Y-57574227D01*
X143775387Y-57582079D01*
X143796457Y-57592044D01*
X143816448Y-57604026D01*
X143835168Y-57617910D01*
X143852438Y-57633562D01*
X143868090Y-57650832D01*
X143881974Y-57669552D01*
X143893956Y-57689543D01*
X143903921Y-57710613D01*
X143911773Y-57732557D01*
X143917437Y-57755166D01*
X143920856Y-57778221D01*
X143922000Y-57801500D01*
X143922000Y-58276500D01*
X143920856Y-58299779D01*
X143917437Y-58322834D01*
X143911773Y-58345443D01*
X143903921Y-58367387D01*
X143893956Y-58388457D01*
X143881974Y-58408448D01*
X143868090Y-58427168D01*
X143852438Y-58444438D01*
X143835168Y-58460090D01*
X143816448Y-58473974D01*
X143796457Y-58485956D01*
X143775387Y-58495921D01*
X143753443Y-58503773D01*
X143730834Y-58509437D01*
X143707779Y-58512856D01*
X143684500Y-58514000D01*
X143109500Y-58514000D01*
X143086221Y-58512856D01*
X143063166Y-58509437D01*
X143040557Y-58503773D01*
X143018613Y-58495921D01*
X142997543Y-58485956D01*
X142977552Y-58473974D01*
X142958832Y-58460090D01*
X142941562Y-58444438D01*
X142925910Y-58427168D01*
X142912026Y-58408448D01*
X142900044Y-58388457D01*
X142890079Y-58367387D01*
X142882227Y-58345443D01*
X142876563Y-58322834D01*
X142873144Y-58299779D01*
X142872000Y-58276500D01*
X142872000Y-57801500D01*
X142873144Y-57778221D01*
X142876563Y-57755166D01*
X142882227Y-57732557D01*
X142890079Y-57710613D01*
X142900044Y-57689543D01*
X142912026Y-57669552D01*
X142925910Y-57650832D01*
X142941562Y-57633562D01*
X142958832Y-57617910D01*
X142977552Y-57604026D01*
X142997543Y-57592044D01*
X143018613Y-57582079D01*
X143040557Y-57574227D01*
X143063166Y-57568563D01*
X143086221Y-57565144D01*
X143109500Y-57564000D01*
X143684500Y-57564000D01*
X143707779Y-57565144D01*
X143707779Y-57565144D01*
G37*
D12*
X143397000Y-58039000D03*
D11*
G36*
X145457779Y-57565144D02*
X145480834Y-57568563D01*
X145503443Y-57574227D01*
X145525387Y-57582079D01*
X145546457Y-57592044D01*
X145566448Y-57604026D01*
X145585168Y-57617910D01*
X145602438Y-57633562D01*
X145618090Y-57650832D01*
X145631974Y-57669552D01*
X145643956Y-57689543D01*
X145653921Y-57710613D01*
X145661773Y-57732557D01*
X145667437Y-57755166D01*
X145670856Y-57778221D01*
X145672000Y-57801500D01*
X145672000Y-58276500D01*
X145670856Y-58299779D01*
X145667437Y-58322834D01*
X145661773Y-58345443D01*
X145653921Y-58367387D01*
X145643956Y-58388457D01*
X145631974Y-58408448D01*
X145618090Y-58427168D01*
X145602438Y-58444438D01*
X145585168Y-58460090D01*
X145566448Y-58473974D01*
X145546457Y-58485956D01*
X145525387Y-58495921D01*
X145503443Y-58503773D01*
X145480834Y-58509437D01*
X145457779Y-58512856D01*
X145434500Y-58514000D01*
X144859500Y-58514000D01*
X144836221Y-58512856D01*
X144813166Y-58509437D01*
X144790557Y-58503773D01*
X144768613Y-58495921D01*
X144747543Y-58485956D01*
X144727552Y-58473974D01*
X144708832Y-58460090D01*
X144691562Y-58444438D01*
X144675910Y-58427168D01*
X144662026Y-58408448D01*
X144650044Y-58388457D01*
X144640079Y-58367387D01*
X144632227Y-58345443D01*
X144626563Y-58322834D01*
X144623144Y-58299779D01*
X144622000Y-58276500D01*
X144622000Y-57801500D01*
X144623144Y-57778221D01*
X144626563Y-57755166D01*
X144632227Y-57732557D01*
X144640079Y-57710613D01*
X144650044Y-57689543D01*
X144662026Y-57669552D01*
X144675910Y-57650832D01*
X144691562Y-57633562D01*
X144708832Y-57617910D01*
X144727552Y-57604026D01*
X144747543Y-57592044D01*
X144768613Y-57582079D01*
X144790557Y-57574227D01*
X144813166Y-57568563D01*
X144836221Y-57565144D01*
X144859500Y-57564000D01*
X145434500Y-57564000D01*
X145457779Y-57565144D01*
X145457779Y-57565144D01*
G37*
D12*
X145147000Y-58039000D03*
G04 #@! TD*
D11*
G04 #@! TO.C,D6*
G36*
X38184779Y-58200144D02*
X38207834Y-58203563D01*
X38230443Y-58209227D01*
X38252387Y-58217079D01*
X38273457Y-58227044D01*
X38293448Y-58239026D01*
X38312168Y-58252910D01*
X38329438Y-58268562D01*
X38345090Y-58285832D01*
X38358974Y-58304552D01*
X38370956Y-58324543D01*
X38380921Y-58345613D01*
X38388773Y-58367557D01*
X38394437Y-58390166D01*
X38397856Y-58413221D01*
X38399000Y-58436500D01*
X38399000Y-58911500D01*
X38397856Y-58934779D01*
X38394437Y-58957834D01*
X38388773Y-58980443D01*
X38380921Y-59002387D01*
X38370956Y-59023457D01*
X38358974Y-59043448D01*
X38345090Y-59062168D01*
X38329438Y-59079438D01*
X38312168Y-59095090D01*
X38293448Y-59108974D01*
X38273457Y-59120956D01*
X38252387Y-59130921D01*
X38230443Y-59138773D01*
X38207834Y-59144437D01*
X38184779Y-59147856D01*
X38161500Y-59149000D01*
X37586500Y-59149000D01*
X37563221Y-59147856D01*
X37540166Y-59144437D01*
X37517557Y-59138773D01*
X37495613Y-59130921D01*
X37474543Y-59120956D01*
X37454552Y-59108974D01*
X37435832Y-59095090D01*
X37418562Y-59079438D01*
X37402910Y-59062168D01*
X37389026Y-59043448D01*
X37377044Y-59023457D01*
X37367079Y-59002387D01*
X37359227Y-58980443D01*
X37353563Y-58957834D01*
X37350144Y-58934779D01*
X37349000Y-58911500D01*
X37349000Y-58436500D01*
X37350144Y-58413221D01*
X37353563Y-58390166D01*
X37359227Y-58367557D01*
X37367079Y-58345613D01*
X37377044Y-58324543D01*
X37389026Y-58304552D01*
X37402910Y-58285832D01*
X37418562Y-58268562D01*
X37435832Y-58252910D01*
X37454552Y-58239026D01*
X37474543Y-58227044D01*
X37495613Y-58217079D01*
X37517557Y-58209227D01*
X37540166Y-58203563D01*
X37563221Y-58200144D01*
X37586500Y-58199000D01*
X38161500Y-58199000D01*
X38184779Y-58200144D01*
X38184779Y-58200144D01*
G37*
D12*
X37874000Y-58674000D03*
D11*
G36*
X39934779Y-58200144D02*
X39957834Y-58203563D01*
X39980443Y-58209227D01*
X40002387Y-58217079D01*
X40023457Y-58227044D01*
X40043448Y-58239026D01*
X40062168Y-58252910D01*
X40079438Y-58268562D01*
X40095090Y-58285832D01*
X40108974Y-58304552D01*
X40120956Y-58324543D01*
X40130921Y-58345613D01*
X40138773Y-58367557D01*
X40144437Y-58390166D01*
X40147856Y-58413221D01*
X40149000Y-58436500D01*
X40149000Y-58911500D01*
X40147856Y-58934779D01*
X40144437Y-58957834D01*
X40138773Y-58980443D01*
X40130921Y-59002387D01*
X40120956Y-59023457D01*
X40108974Y-59043448D01*
X40095090Y-59062168D01*
X40079438Y-59079438D01*
X40062168Y-59095090D01*
X40043448Y-59108974D01*
X40023457Y-59120956D01*
X40002387Y-59130921D01*
X39980443Y-59138773D01*
X39957834Y-59144437D01*
X39934779Y-59147856D01*
X39911500Y-59149000D01*
X39336500Y-59149000D01*
X39313221Y-59147856D01*
X39290166Y-59144437D01*
X39267557Y-59138773D01*
X39245613Y-59130921D01*
X39224543Y-59120956D01*
X39204552Y-59108974D01*
X39185832Y-59095090D01*
X39168562Y-59079438D01*
X39152910Y-59062168D01*
X39139026Y-59043448D01*
X39127044Y-59023457D01*
X39117079Y-59002387D01*
X39109227Y-58980443D01*
X39103563Y-58957834D01*
X39100144Y-58934779D01*
X39099000Y-58911500D01*
X39099000Y-58436500D01*
X39100144Y-58413221D01*
X39103563Y-58390166D01*
X39109227Y-58367557D01*
X39117079Y-58345613D01*
X39127044Y-58324543D01*
X39139026Y-58304552D01*
X39152910Y-58285832D01*
X39168562Y-58268562D01*
X39185832Y-58252910D01*
X39204552Y-58239026D01*
X39224543Y-58227044D01*
X39245613Y-58217079D01*
X39267557Y-58209227D01*
X39290166Y-58203563D01*
X39313221Y-58200144D01*
X39336500Y-58199000D01*
X39911500Y-58199000D01*
X39934779Y-58200144D01*
X39934779Y-58200144D01*
G37*
D12*
X39624000Y-58674000D03*
G04 #@! TD*
D11*
G04 #@! TO.C,D7*
G36*
X148773779Y-55279144D02*
X148796834Y-55282563D01*
X148819443Y-55288227D01*
X148841387Y-55296079D01*
X148862457Y-55306044D01*
X148882448Y-55318026D01*
X148901168Y-55331910D01*
X148918438Y-55347562D01*
X148934090Y-55364832D01*
X148947974Y-55383552D01*
X148959956Y-55403543D01*
X148969921Y-55424613D01*
X148977773Y-55446557D01*
X148983437Y-55469166D01*
X148986856Y-55492221D01*
X148988000Y-55515500D01*
X148988000Y-55990500D01*
X148986856Y-56013779D01*
X148983437Y-56036834D01*
X148977773Y-56059443D01*
X148969921Y-56081387D01*
X148959956Y-56102457D01*
X148947974Y-56122448D01*
X148934090Y-56141168D01*
X148918438Y-56158438D01*
X148901168Y-56174090D01*
X148882448Y-56187974D01*
X148862457Y-56199956D01*
X148841387Y-56209921D01*
X148819443Y-56217773D01*
X148796834Y-56223437D01*
X148773779Y-56226856D01*
X148750500Y-56228000D01*
X148175500Y-56228000D01*
X148152221Y-56226856D01*
X148129166Y-56223437D01*
X148106557Y-56217773D01*
X148084613Y-56209921D01*
X148063543Y-56199956D01*
X148043552Y-56187974D01*
X148024832Y-56174090D01*
X148007562Y-56158438D01*
X147991910Y-56141168D01*
X147978026Y-56122448D01*
X147966044Y-56102457D01*
X147956079Y-56081387D01*
X147948227Y-56059443D01*
X147942563Y-56036834D01*
X147939144Y-56013779D01*
X147938000Y-55990500D01*
X147938000Y-55515500D01*
X147939144Y-55492221D01*
X147942563Y-55469166D01*
X147948227Y-55446557D01*
X147956079Y-55424613D01*
X147966044Y-55403543D01*
X147978026Y-55383552D01*
X147991910Y-55364832D01*
X148007562Y-55347562D01*
X148024832Y-55331910D01*
X148043552Y-55318026D01*
X148063543Y-55306044D01*
X148084613Y-55296079D01*
X148106557Y-55288227D01*
X148129166Y-55282563D01*
X148152221Y-55279144D01*
X148175500Y-55278000D01*
X148750500Y-55278000D01*
X148773779Y-55279144D01*
X148773779Y-55279144D01*
G37*
D12*
X148463000Y-55753000D03*
D11*
G36*
X150523779Y-55279144D02*
X150546834Y-55282563D01*
X150569443Y-55288227D01*
X150591387Y-55296079D01*
X150612457Y-55306044D01*
X150632448Y-55318026D01*
X150651168Y-55331910D01*
X150668438Y-55347562D01*
X150684090Y-55364832D01*
X150697974Y-55383552D01*
X150709956Y-55403543D01*
X150719921Y-55424613D01*
X150727773Y-55446557D01*
X150733437Y-55469166D01*
X150736856Y-55492221D01*
X150738000Y-55515500D01*
X150738000Y-55990500D01*
X150736856Y-56013779D01*
X150733437Y-56036834D01*
X150727773Y-56059443D01*
X150719921Y-56081387D01*
X150709956Y-56102457D01*
X150697974Y-56122448D01*
X150684090Y-56141168D01*
X150668438Y-56158438D01*
X150651168Y-56174090D01*
X150632448Y-56187974D01*
X150612457Y-56199956D01*
X150591387Y-56209921D01*
X150569443Y-56217773D01*
X150546834Y-56223437D01*
X150523779Y-56226856D01*
X150500500Y-56228000D01*
X149925500Y-56228000D01*
X149902221Y-56226856D01*
X149879166Y-56223437D01*
X149856557Y-56217773D01*
X149834613Y-56209921D01*
X149813543Y-56199956D01*
X149793552Y-56187974D01*
X149774832Y-56174090D01*
X149757562Y-56158438D01*
X149741910Y-56141168D01*
X149728026Y-56122448D01*
X149716044Y-56102457D01*
X149706079Y-56081387D01*
X149698227Y-56059443D01*
X149692563Y-56036834D01*
X149689144Y-56013779D01*
X149688000Y-55990500D01*
X149688000Y-55515500D01*
X149689144Y-55492221D01*
X149692563Y-55469166D01*
X149698227Y-55446557D01*
X149706079Y-55424613D01*
X149716044Y-55403543D01*
X149728026Y-55383552D01*
X149741910Y-55364832D01*
X149757562Y-55347562D01*
X149774832Y-55331910D01*
X149793552Y-55318026D01*
X149813543Y-55306044D01*
X149834613Y-55296079D01*
X149856557Y-55288227D01*
X149879166Y-55282563D01*
X149902221Y-55279144D01*
X149925500Y-55278000D01*
X150500500Y-55278000D01*
X150523779Y-55279144D01*
X150523779Y-55279144D01*
G37*
D12*
X150213000Y-55753000D03*
G04 #@! TD*
D11*
G04 #@! TO.C,D8*
G36*
X39934779Y-60994144D02*
X39957834Y-60997563D01*
X39980443Y-61003227D01*
X40002387Y-61011079D01*
X40023457Y-61021044D01*
X40043448Y-61033026D01*
X40062168Y-61046910D01*
X40079438Y-61062562D01*
X40095090Y-61079832D01*
X40108974Y-61098552D01*
X40120956Y-61118543D01*
X40130921Y-61139613D01*
X40138773Y-61161557D01*
X40144437Y-61184166D01*
X40147856Y-61207221D01*
X40149000Y-61230500D01*
X40149000Y-61705500D01*
X40147856Y-61728779D01*
X40144437Y-61751834D01*
X40138773Y-61774443D01*
X40130921Y-61796387D01*
X40120956Y-61817457D01*
X40108974Y-61837448D01*
X40095090Y-61856168D01*
X40079438Y-61873438D01*
X40062168Y-61889090D01*
X40043448Y-61902974D01*
X40023457Y-61914956D01*
X40002387Y-61924921D01*
X39980443Y-61932773D01*
X39957834Y-61938437D01*
X39934779Y-61941856D01*
X39911500Y-61943000D01*
X39336500Y-61943000D01*
X39313221Y-61941856D01*
X39290166Y-61938437D01*
X39267557Y-61932773D01*
X39245613Y-61924921D01*
X39224543Y-61914956D01*
X39204552Y-61902974D01*
X39185832Y-61889090D01*
X39168562Y-61873438D01*
X39152910Y-61856168D01*
X39139026Y-61837448D01*
X39127044Y-61817457D01*
X39117079Y-61796387D01*
X39109227Y-61774443D01*
X39103563Y-61751834D01*
X39100144Y-61728779D01*
X39099000Y-61705500D01*
X39099000Y-61230500D01*
X39100144Y-61207221D01*
X39103563Y-61184166D01*
X39109227Y-61161557D01*
X39117079Y-61139613D01*
X39127044Y-61118543D01*
X39139026Y-61098552D01*
X39152910Y-61079832D01*
X39168562Y-61062562D01*
X39185832Y-61046910D01*
X39204552Y-61033026D01*
X39224543Y-61021044D01*
X39245613Y-61011079D01*
X39267557Y-61003227D01*
X39290166Y-60997563D01*
X39313221Y-60994144D01*
X39336500Y-60993000D01*
X39911500Y-60993000D01*
X39934779Y-60994144D01*
X39934779Y-60994144D01*
G37*
D12*
X39624000Y-61468000D03*
D11*
G36*
X38184779Y-60994144D02*
X38207834Y-60997563D01*
X38230443Y-61003227D01*
X38252387Y-61011079D01*
X38273457Y-61021044D01*
X38293448Y-61033026D01*
X38312168Y-61046910D01*
X38329438Y-61062562D01*
X38345090Y-61079832D01*
X38358974Y-61098552D01*
X38370956Y-61118543D01*
X38380921Y-61139613D01*
X38388773Y-61161557D01*
X38394437Y-61184166D01*
X38397856Y-61207221D01*
X38399000Y-61230500D01*
X38399000Y-61705500D01*
X38397856Y-61728779D01*
X38394437Y-61751834D01*
X38388773Y-61774443D01*
X38380921Y-61796387D01*
X38370956Y-61817457D01*
X38358974Y-61837448D01*
X38345090Y-61856168D01*
X38329438Y-61873438D01*
X38312168Y-61889090D01*
X38293448Y-61902974D01*
X38273457Y-61914956D01*
X38252387Y-61924921D01*
X38230443Y-61932773D01*
X38207834Y-61938437D01*
X38184779Y-61941856D01*
X38161500Y-61943000D01*
X37586500Y-61943000D01*
X37563221Y-61941856D01*
X37540166Y-61938437D01*
X37517557Y-61932773D01*
X37495613Y-61924921D01*
X37474543Y-61914956D01*
X37454552Y-61902974D01*
X37435832Y-61889090D01*
X37418562Y-61873438D01*
X37402910Y-61856168D01*
X37389026Y-61837448D01*
X37377044Y-61817457D01*
X37367079Y-61796387D01*
X37359227Y-61774443D01*
X37353563Y-61751834D01*
X37350144Y-61728779D01*
X37349000Y-61705500D01*
X37349000Y-61230500D01*
X37350144Y-61207221D01*
X37353563Y-61184166D01*
X37359227Y-61161557D01*
X37367079Y-61139613D01*
X37377044Y-61118543D01*
X37389026Y-61098552D01*
X37402910Y-61079832D01*
X37418562Y-61062562D01*
X37435832Y-61046910D01*
X37454552Y-61033026D01*
X37474543Y-61021044D01*
X37495613Y-61011079D01*
X37517557Y-61003227D01*
X37540166Y-60997563D01*
X37563221Y-60994144D01*
X37586500Y-60993000D01*
X38161500Y-60993000D01*
X38184779Y-60994144D01*
X38184779Y-60994144D01*
G37*
D12*
X37874000Y-61468000D03*
G04 #@! TD*
D11*
G04 #@! TO.C,D9*
G36*
X148773779Y-57565144D02*
X148796834Y-57568563D01*
X148819443Y-57574227D01*
X148841387Y-57582079D01*
X148862457Y-57592044D01*
X148882448Y-57604026D01*
X148901168Y-57617910D01*
X148918438Y-57633562D01*
X148934090Y-57650832D01*
X148947974Y-57669552D01*
X148959956Y-57689543D01*
X148969921Y-57710613D01*
X148977773Y-57732557D01*
X148983437Y-57755166D01*
X148986856Y-57778221D01*
X148988000Y-57801500D01*
X148988000Y-58276500D01*
X148986856Y-58299779D01*
X148983437Y-58322834D01*
X148977773Y-58345443D01*
X148969921Y-58367387D01*
X148959956Y-58388457D01*
X148947974Y-58408448D01*
X148934090Y-58427168D01*
X148918438Y-58444438D01*
X148901168Y-58460090D01*
X148882448Y-58473974D01*
X148862457Y-58485956D01*
X148841387Y-58495921D01*
X148819443Y-58503773D01*
X148796834Y-58509437D01*
X148773779Y-58512856D01*
X148750500Y-58514000D01*
X148175500Y-58514000D01*
X148152221Y-58512856D01*
X148129166Y-58509437D01*
X148106557Y-58503773D01*
X148084613Y-58495921D01*
X148063543Y-58485956D01*
X148043552Y-58473974D01*
X148024832Y-58460090D01*
X148007562Y-58444438D01*
X147991910Y-58427168D01*
X147978026Y-58408448D01*
X147966044Y-58388457D01*
X147956079Y-58367387D01*
X147948227Y-58345443D01*
X147942563Y-58322834D01*
X147939144Y-58299779D01*
X147938000Y-58276500D01*
X147938000Y-57801500D01*
X147939144Y-57778221D01*
X147942563Y-57755166D01*
X147948227Y-57732557D01*
X147956079Y-57710613D01*
X147966044Y-57689543D01*
X147978026Y-57669552D01*
X147991910Y-57650832D01*
X148007562Y-57633562D01*
X148024832Y-57617910D01*
X148043552Y-57604026D01*
X148063543Y-57592044D01*
X148084613Y-57582079D01*
X148106557Y-57574227D01*
X148129166Y-57568563D01*
X148152221Y-57565144D01*
X148175500Y-57564000D01*
X148750500Y-57564000D01*
X148773779Y-57565144D01*
X148773779Y-57565144D01*
G37*
D12*
X148463000Y-58039000D03*
D11*
G36*
X150523779Y-57565144D02*
X150546834Y-57568563D01*
X150569443Y-57574227D01*
X150591387Y-57582079D01*
X150612457Y-57592044D01*
X150632448Y-57604026D01*
X150651168Y-57617910D01*
X150668438Y-57633562D01*
X150684090Y-57650832D01*
X150697974Y-57669552D01*
X150709956Y-57689543D01*
X150719921Y-57710613D01*
X150727773Y-57732557D01*
X150733437Y-57755166D01*
X150736856Y-57778221D01*
X150738000Y-57801500D01*
X150738000Y-58276500D01*
X150736856Y-58299779D01*
X150733437Y-58322834D01*
X150727773Y-58345443D01*
X150719921Y-58367387D01*
X150709956Y-58388457D01*
X150697974Y-58408448D01*
X150684090Y-58427168D01*
X150668438Y-58444438D01*
X150651168Y-58460090D01*
X150632448Y-58473974D01*
X150612457Y-58485956D01*
X150591387Y-58495921D01*
X150569443Y-58503773D01*
X150546834Y-58509437D01*
X150523779Y-58512856D01*
X150500500Y-58514000D01*
X149925500Y-58514000D01*
X149902221Y-58512856D01*
X149879166Y-58509437D01*
X149856557Y-58503773D01*
X149834613Y-58495921D01*
X149813543Y-58485956D01*
X149793552Y-58473974D01*
X149774832Y-58460090D01*
X149757562Y-58444438D01*
X149741910Y-58427168D01*
X149728026Y-58408448D01*
X149716044Y-58388457D01*
X149706079Y-58367387D01*
X149698227Y-58345443D01*
X149692563Y-58322834D01*
X149689144Y-58299779D01*
X149688000Y-58276500D01*
X149688000Y-57801500D01*
X149689144Y-57778221D01*
X149692563Y-57755166D01*
X149698227Y-57732557D01*
X149706079Y-57710613D01*
X149716044Y-57689543D01*
X149728026Y-57669552D01*
X149741910Y-57650832D01*
X149757562Y-57633562D01*
X149774832Y-57617910D01*
X149793552Y-57604026D01*
X149813543Y-57592044D01*
X149834613Y-57582079D01*
X149856557Y-57574227D01*
X149879166Y-57568563D01*
X149902221Y-57565144D01*
X149925500Y-57564000D01*
X150500500Y-57564000D01*
X150523779Y-57565144D01*
X150523779Y-57565144D01*
G37*
D12*
X150213000Y-58039000D03*
G04 #@! TD*
D11*
G04 #@! TO.C,D10*
G36*
X42756779Y-58200144D02*
X42779834Y-58203563D01*
X42802443Y-58209227D01*
X42824387Y-58217079D01*
X42845457Y-58227044D01*
X42865448Y-58239026D01*
X42884168Y-58252910D01*
X42901438Y-58268562D01*
X42917090Y-58285832D01*
X42930974Y-58304552D01*
X42942956Y-58324543D01*
X42952921Y-58345613D01*
X42960773Y-58367557D01*
X42966437Y-58390166D01*
X42969856Y-58413221D01*
X42971000Y-58436500D01*
X42971000Y-58911500D01*
X42969856Y-58934779D01*
X42966437Y-58957834D01*
X42960773Y-58980443D01*
X42952921Y-59002387D01*
X42942956Y-59023457D01*
X42930974Y-59043448D01*
X42917090Y-59062168D01*
X42901438Y-59079438D01*
X42884168Y-59095090D01*
X42865448Y-59108974D01*
X42845457Y-59120956D01*
X42824387Y-59130921D01*
X42802443Y-59138773D01*
X42779834Y-59144437D01*
X42756779Y-59147856D01*
X42733500Y-59149000D01*
X42158500Y-59149000D01*
X42135221Y-59147856D01*
X42112166Y-59144437D01*
X42089557Y-59138773D01*
X42067613Y-59130921D01*
X42046543Y-59120956D01*
X42026552Y-59108974D01*
X42007832Y-59095090D01*
X41990562Y-59079438D01*
X41974910Y-59062168D01*
X41961026Y-59043448D01*
X41949044Y-59023457D01*
X41939079Y-59002387D01*
X41931227Y-58980443D01*
X41925563Y-58957834D01*
X41922144Y-58934779D01*
X41921000Y-58911500D01*
X41921000Y-58436500D01*
X41922144Y-58413221D01*
X41925563Y-58390166D01*
X41931227Y-58367557D01*
X41939079Y-58345613D01*
X41949044Y-58324543D01*
X41961026Y-58304552D01*
X41974910Y-58285832D01*
X41990562Y-58268562D01*
X42007832Y-58252910D01*
X42026552Y-58239026D01*
X42046543Y-58227044D01*
X42067613Y-58217079D01*
X42089557Y-58209227D01*
X42112166Y-58203563D01*
X42135221Y-58200144D01*
X42158500Y-58199000D01*
X42733500Y-58199000D01*
X42756779Y-58200144D01*
X42756779Y-58200144D01*
G37*
D12*
X42446000Y-58674000D03*
D11*
G36*
X44506779Y-58200144D02*
X44529834Y-58203563D01*
X44552443Y-58209227D01*
X44574387Y-58217079D01*
X44595457Y-58227044D01*
X44615448Y-58239026D01*
X44634168Y-58252910D01*
X44651438Y-58268562D01*
X44667090Y-58285832D01*
X44680974Y-58304552D01*
X44692956Y-58324543D01*
X44702921Y-58345613D01*
X44710773Y-58367557D01*
X44716437Y-58390166D01*
X44719856Y-58413221D01*
X44721000Y-58436500D01*
X44721000Y-58911500D01*
X44719856Y-58934779D01*
X44716437Y-58957834D01*
X44710773Y-58980443D01*
X44702921Y-59002387D01*
X44692956Y-59023457D01*
X44680974Y-59043448D01*
X44667090Y-59062168D01*
X44651438Y-59079438D01*
X44634168Y-59095090D01*
X44615448Y-59108974D01*
X44595457Y-59120956D01*
X44574387Y-59130921D01*
X44552443Y-59138773D01*
X44529834Y-59144437D01*
X44506779Y-59147856D01*
X44483500Y-59149000D01*
X43908500Y-59149000D01*
X43885221Y-59147856D01*
X43862166Y-59144437D01*
X43839557Y-59138773D01*
X43817613Y-59130921D01*
X43796543Y-59120956D01*
X43776552Y-59108974D01*
X43757832Y-59095090D01*
X43740562Y-59079438D01*
X43724910Y-59062168D01*
X43711026Y-59043448D01*
X43699044Y-59023457D01*
X43689079Y-59002387D01*
X43681227Y-58980443D01*
X43675563Y-58957834D01*
X43672144Y-58934779D01*
X43671000Y-58911500D01*
X43671000Y-58436500D01*
X43672144Y-58413221D01*
X43675563Y-58390166D01*
X43681227Y-58367557D01*
X43689079Y-58345613D01*
X43699044Y-58324543D01*
X43711026Y-58304552D01*
X43724910Y-58285832D01*
X43740562Y-58268562D01*
X43757832Y-58252910D01*
X43776552Y-58239026D01*
X43796543Y-58227044D01*
X43817613Y-58217079D01*
X43839557Y-58209227D01*
X43862166Y-58203563D01*
X43885221Y-58200144D01*
X43908500Y-58199000D01*
X44483500Y-58199000D01*
X44506779Y-58200144D01*
X44506779Y-58200144D01*
G37*
D12*
X44196000Y-58674000D03*
G04 #@! TD*
D11*
G04 #@! TO.C,D11*
G36*
X154135779Y-55279144D02*
X154158834Y-55282563D01*
X154181443Y-55288227D01*
X154203387Y-55296079D01*
X154224457Y-55306044D01*
X154244448Y-55318026D01*
X154263168Y-55331910D01*
X154280438Y-55347562D01*
X154296090Y-55364832D01*
X154309974Y-55383552D01*
X154321956Y-55403543D01*
X154331921Y-55424613D01*
X154339773Y-55446557D01*
X154345437Y-55469166D01*
X154348856Y-55492221D01*
X154350000Y-55515500D01*
X154350000Y-55990500D01*
X154348856Y-56013779D01*
X154345437Y-56036834D01*
X154339773Y-56059443D01*
X154331921Y-56081387D01*
X154321956Y-56102457D01*
X154309974Y-56122448D01*
X154296090Y-56141168D01*
X154280438Y-56158438D01*
X154263168Y-56174090D01*
X154244448Y-56187974D01*
X154224457Y-56199956D01*
X154203387Y-56209921D01*
X154181443Y-56217773D01*
X154158834Y-56223437D01*
X154135779Y-56226856D01*
X154112500Y-56228000D01*
X153537500Y-56228000D01*
X153514221Y-56226856D01*
X153491166Y-56223437D01*
X153468557Y-56217773D01*
X153446613Y-56209921D01*
X153425543Y-56199956D01*
X153405552Y-56187974D01*
X153386832Y-56174090D01*
X153369562Y-56158438D01*
X153353910Y-56141168D01*
X153340026Y-56122448D01*
X153328044Y-56102457D01*
X153318079Y-56081387D01*
X153310227Y-56059443D01*
X153304563Y-56036834D01*
X153301144Y-56013779D01*
X153300000Y-55990500D01*
X153300000Y-55515500D01*
X153301144Y-55492221D01*
X153304563Y-55469166D01*
X153310227Y-55446557D01*
X153318079Y-55424613D01*
X153328044Y-55403543D01*
X153340026Y-55383552D01*
X153353910Y-55364832D01*
X153369562Y-55347562D01*
X153386832Y-55331910D01*
X153405552Y-55318026D01*
X153425543Y-55306044D01*
X153446613Y-55296079D01*
X153468557Y-55288227D01*
X153491166Y-55282563D01*
X153514221Y-55279144D01*
X153537500Y-55278000D01*
X154112500Y-55278000D01*
X154135779Y-55279144D01*
X154135779Y-55279144D01*
G37*
D12*
X153825000Y-55753000D03*
D11*
G36*
X155885779Y-55279144D02*
X155908834Y-55282563D01*
X155931443Y-55288227D01*
X155953387Y-55296079D01*
X155974457Y-55306044D01*
X155994448Y-55318026D01*
X156013168Y-55331910D01*
X156030438Y-55347562D01*
X156046090Y-55364832D01*
X156059974Y-55383552D01*
X156071956Y-55403543D01*
X156081921Y-55424613D01*
X156089773Y-55446557D01*
X156095437Y-55469166D01*
X156098856Y-55492221D01*
X156100000Y-55515500D01*
X156100000Y-55990500D01*
X156098856Y-56013779D01*
X156095437Y-56036834D01*
X156089773Y-56059443D01*
X156081921Y-56081387D01*
X156071956Y-56102457D01*
X156059974Y-56122448D01*
X156046090Y-56141168D01*
X156030438Y-56158438D01*
X156013168Y-56174090D01*
X155994448Y-56187974D01*
X155974457Y-56199956D01*
X155953387Y-56209921D01*
X155931443Y-56217773D01*
X155908834Y-56223437D01*
X155885779Y-56226856D01*
X155862500Y-56228000D01*
X155287500Y-56228000D01*
X155264221Y-56226856D01*
X155241166Y-56223437D01*
X155218557Y-56217773D01*
X155196613Y-56209921D01*
X155175543Y-56199956D01*
X155155552Y-56187974D01*
X155136832Y-56174090D01*
X155119562Y-56158438D01*
X155103910Y-56141168D01*
X155090026Y-56122448D01*
X155078044Y-56102457D01*
X155068079Y-56081387D01*
X155060227Y-56059443D01*
X155054563Y-56036834D01*
X155051144Y-56013779D01*
X155050000Y-55990500D01*
X155050000Y-55515500D01*
X155051144Y-55492221D01*
X155054563Y-55469166D01*
X155060227Y-55446557D01*
X155068079Y-55424613D01*
X155078044Y-55403543D01*
X155090026Y-55383552D01*
X155103910Y-55364832D01*
X155119562Y-55347562D01*
X155136832Y-55331910D01*
X155155552Y-55318026D01*
X155175543Y-55306044D01*
X155196613Y-55296079D01*
X155218557Y-55288227D01*
X155241166Y-55282563D01*
X155264221Y-55279144D01*
X155287500Y-55278000D01*
X155862500Y-55278000D01*
X155885779Y-55279144D01*
X155885779Y-55279144D01*
G37*
D12*
X155575000Y-55753000D03*
G04 #@! TD*
D11*
G04 #@! TO.C,D12*
G36*
X42756779Y-60994144D02*
X42779834Y-60997563D01*
X42802443Y-61003227D01*
X42824387Y-61011079D01*
X42845457Y-61021044D01*
X42865448Y-61033026D01*
X42884168Y-61046910D01*
X42901438Y-61062562D01*
X42917090Y-61079832D01*
X42930974Y-61098552D01*
X42942956Y-61118543D01*
X42952921Y-61139613D01*
X42960773Y-61161557D01*
X42966437Y-61184166D01*
X42969856Y-61207221D01*
X42971000Y-61230500D01*
X42971000Y-61705500D01*
X42969856Y-61728779D01*
X42966437Y-61751834D01*
X42960773Y-61774443D01*
X42952921Y-61796387D01*
X42942956Y-61817457D01*
X42930974Y-61837448D01*
X42917090Y-61856168D01*
X42901438Y-61873438D01*
X42884168Y-61889090D01*
X42865448Y-61902974D01*
X42845457Y-61914956D01*
X42824387Y-61924921D01*
X42802443Y-61932773D01*
X42779834Y-61938437D01*
X42756779Y-61941856D01*
X42733500Y-61943000D01*
X42158500Y-61943000D01*
X42135221Y-61941856D01*
X42112166Y-61938437D01*
X42089557Y-61932773D01*
X42067613Y-61924921D01*
X42046543Y-61914956D01*
X42026552Y-61902974D01*
X42007832Y-61889090D01*
X41990562Y-61873438D01*
X41974910Y-61856168D01*
X41961026Y-61837448D01*
X41949044Y-61817457D01*
X41939079Y-61796387D01*
X41931227Y-61774443D01*
X41925563Y-61751834D01*
X41922144Y-61728779D01*
X41921000Y-61705500D01*
X41921000Y-61230500D01*
X41922144Y-61207221D01*
X41925563Y-61184166D01*
X41931227Y-61161557D01*
X41939079Y-61139613D01*
X41949044Y-61118543D01*
X41961026Y-61098552D01*
X41974910Y-61079832D01*
X41990562Y-61062562D01*
X42007832Y-61046910D01*
X42026552Y-61033026D01*
X42046543Y-61021044D01*
X42067613Y-61011079D01*
X42089557Y-61003227D01*
X42112166Y-60997563D01*
X42135221Y-60994144D01*
X42158500Y-60993000D01*
X42733500Y-60993000D01*
X42756779Y-60994144D01*
X42756779Y-60994144D01*
G37*
D12*
X42446000Y-61468000D03*
D11*
G36*
X44506779Y-60994144D02*
X44529834Y-60997563D01*
X44552443Y-61003227D01*
X44574387Y-61011079D01*
X44595457Y-61021044D01*
X44615448Y-61033026D01*
X44634168Y-61046910D01*
X44651438Y-61062562D01*
X44667090Y-61079832D01*
X44680974Y-61098552D01*
X44692956Y-61118543D01*
X44702921Y-61139613D01*
X44710773Y-61161557D01*
X44716437Y-61184166D01*
X44719856Y-61207221D01*
X44721000Y-61230500D01*
X44721000Y-61705500D01*
X44719856Y-61728779D01*
X44716437Y-61751834D01*
X44710773Y-61774443D01*
X44702921Y-61796387D01*
X44692956Y-61817457D01*
X44680974Y-61837448D01*
X44667090Y-61856168D01*
X44651438Y-61873438D01*
X44634168Y-61889090D01*
X44615448Y-61902974D01*
X44595457Y-61914956D01*
X44574387Y-61924921D01*
X44552443Y-61932773D01*
X44529834Y-61938437D01*
X44506779Y-61941856D01*
X44483500Y-61943000D01*
X43908500Y-61943000D01*
X43885221Y-61941856D01*
X43862166Y-61938437D01*
X43839557Y-61932773D01*
X43817613Y-61924921D01*
X43796543Y-61914956D01*
X43776552Y-61902974D01*
X43757832Y-61889090D01*
X43740562Y-61873438D01*
X43724910Y-61856168D01*
X43711026Y-61837448D01*
X43699044Y-61817457D01*
X43689079Y-61796387D01*
X43681227Y-61774443D01*
X43675563Y-61751834D01*
X43672144Y-61728779D01*
X43671000Y-61705500D01*
X43671000Y-61230500D01*
X43672144Y-61207221D01*
X43675563Y-61184166D01*
X43681227Y-61161557D01*
X43689079Y-61139613D01*
X43699044Y-61118543D01*
X43711026Y-61098552D01*
X43724910Y-61079832D01*
X43740562Y-61062562D01*
X43757832Y-61046910D01*
X43776552Y-61033026D01*
X43796543Y-61021044D01*
X43817613Y-61011079D01*
X43839557Y-61003227D01*
X43862166Y-60997563D01*
X43885221Y-60994144D01*
X43908500Y-60993000D01*
X44483500Y-60993000D01*
X44506779Y-60994144D01*
X44506779Y-60994144D01*
G37*
D12*
X44196000Y-61468000D03*
G04 #@! TD*
D11*
G04 #@! TO.C,D13*
G36*
X154135779Y-57565144D02*
X154158834Y-57568563D01*
X154181443Y-57574227D01*
X154203387Y-57582079D01*
X154224457Y-57592044D01*
X154244448Y-57604026D01*
X154263168Y-57617910D01*
X154280438Y-57633562D01*
X154296090Y-57650832D01*
X154309974Y-57669552D01*
X154321956Y-57689543D01*
X154331921Y-57710613D01*
X154339773Y-57732557D01*
X154345437Y-57755166D01*
X154348856Y-57778221D01*
X154350000Y-57801500D01*
X154350000Y-58276500D01*
X154348856Y-58299779D01*
X154345437Y-58322834D01*
X154339773Y-58345443D01*
X154331921Y-58367387D01*
X154321956Y-58388457D01*
X154309974Y-58408448D01*
X154296090Y-58427168D01*
X154280438Y-58444438D01*
X154263168Y-58460090D01*
X154244448Y-58473974D01*
X154224457Y-58485956D01*
X154203387Y-58495921D01*
X154181443Y-58503773D01*
X154158834Y-58509437D01*
X154135779Y-58512856D01*
X154112500Y-58514000D01*
X153537500Y-58514000D01*
X153514221Y-58512856D01*
X153491166Y-58509437D01*
X153468557Y-58503773D01*
X153446613Y-58495921D01*
X153425543Y-58485956D01*
X153405552Y-58473974D01*
X153386832Y-58460090D01*
X153369562Y-58444438D01*
X153353910Y-58427168D01*
X153340026Y-58408448D01*
X153328044Y-58388457D01*
X153318079Y-58367387D01*
X153310227Y-58345443D01*
X153304563Y-58322834D01*
X153301144Y-58299779D01*
X153300000Y-58276500D01*
X153300000Y-57801500D01*
X153301144Y-57778221D01*
X153304563Y-57755166D01*
X153310227Y-57732557D01*
X153318079Y-57710613D01*
X153328044Y-57689543D01*
X153340026Y-57669552D01*
X153353910Y-57650832D01*
X153369562Y-57633562D01*
X153386832Y-57617910D01*
X153405552Y-57604026D01*
X153425543Y-57592044D01*
X153446613Y-57582079D01*
X153468557Y-57574227D01*
X153491166Y-57568563D01*
X153514221Y-57565144D01*
X153537500Y-57564000D01*
X154112500Y-57564000D01*
X154135779Y-57565144D01*
X154135779Y-57565144D01*
G37*
D12*
X153825000Y-58039000D03*
D11*
G36*
X155885779Y-57565144D02*
X155908834Y-57568563D01*
X155931443Y-57574227D01*
X155953387Y-57582079D01*
X155974457Y-57592044D01*
X155994448Y-57604026D01*
X156013168Y-57617910D01*
X156030438Y-57633562D01*
X156046090Y-57650832D01*
X156059974Y-57669552D01*
X156071956Y-57689543D01*
X156081921Y-57710613D01*
X156089773Y-57732557D01*
X156095437Y-57755166D01*
X156098856Y-57778221D01*
X156100000Y-57801500D01*
X156100000Y-58276500D01*
X156098856Y-58299779D01*
X156095437Y-58322834D01*
X156089773Y-58345443D01*
X156081921Y-58367387D01*
X156071956Y-58388457D01*
X156059974Y-58408448D01*
X156046090Y-58427168D01*
X156030438Y-58444438D01*
X156013168Y-58460090D01*
X155994448Y-58473974D01*
X155974457Y-58485956D01*
X155953387Y-58495921D01*
X155931443Y-58503773D01*
X155908834Y-58509437D01*
X155885779Y-58512856D01*
X155862500Y-58514000D01*
X155287500Y-58514000D01*
X155264221Y-58512856D01*
X155241166Y-58509437D01*
X155218557Y-58503773D01*
X155196613Y-58495921D01*
X155175543Y-58485956D01*
X155155552Y-58473974D01*
X155136832Y-58460090D01*
X155119562Y-58444438D01*
X155103910Y-58427168D01*
X155090026Y-58408448D01*
X155078044Y-58388457D01*
X155068079Y-58367387D01*
X155060227Y-58345443D01*
X155054563Y-58322834D01*
X155051144Y-58299779D01*
X155050000Y-58276500D01*
X155050000Y-57801500D01*
X155051144Y-57778221D01*
X155054563Y-57755166D01*
X155060227Y-57732557D01*
X155068079Y-57710613D01*
X155078044Y-57689543D01*
X155090026Y-57669552D01*
X155103910Y-57650832D01*
X155119562Y-57633562D01*
X155136832Y-57617910D01*
X155155552Y-57604026D01*
X155175543Y-57592044D01*
X155196613Y-57582079D01*
X155218557Y-57574227D01*
X155241166Y-57568563D01*
X155264221Y-57565144D01*
X155287500Y-57564000D01*
X155862500Y-57564000D01*
X155885779Y-57565144D01*
X155885779Y-57565144D01*
G37*
D12*
X155575000Y-58039000D03*
G04 #@! TD*
D11*
G04 #@! TO.C,D14*
G36*
X49304779Y-58200144D02*
X49327834Y-58203563D01*
X49350443Y-58209227D01*
X49372387Y-58217079D01*
X49393457Y-58227044D01*
X49413448Y-58239026D01*
X49432168Y-58252910D01*
X49449438Y-58268562D01*
X49465090Y-58285832D01*
X49478974Y-58304552D01*
X49490956Y-58324543D01*
X49500921Y-58345613D01*
X49508773Y-58367557D01*
X49514437Y-58390166D01*
X49517856Y-58413221D01*
X49519000Y-58436500D01*
X49519000Y-58911500D01*
X49517856Y-58934779D01*
X49514437Y-58957834D01*
X49508773Y-58980443D01*
X49500921Y-59002387D01*
X49490956Y-59023457D01*
X49478974Y-59043448D01*
X49465090Y-59062168D01*
X49449438Y-59079438D01*
X49432168Y-59095090D01*
X49413448Y-59108974D01*
X49393457Y-59120956D01*
X49372387Y-59130921D01*
X49350443Y-59138773D01*
X49327834Y-59144437D01*
X49304779Y-59147856D01*
X49281500Y-59149000D01*
X48706500Y-59149000D01*
X48683221Y-59147856D01*
X48660166Y-59144437D01*
X48637557Y-59138773D01*
X48615613Y-59130921D01*
X48594543Y-59120956D01*
X48574552Y-59108974D01*
X48555832Y-59095090D01*
X48538562Y-59079438D01*
X48522910Y-59062168D01*
X48509026Y-59043448D01*
X48497044Y-59023457D01*
X48487079Y-59002387D01*
X48479227Y-58980443D01*
X48473563Y-58957834D01*
X48470144Y-58934779D01*
X48469000Y-58911500D01*
X48469000Y-58436500D01*
X48470144Y-58413221D01*
X48473563Y-58390166D01*
X48479227Y-58367557D01*
X48487079Y-58345613D01*
X48497044Y-58324543D01*
X48509026Y-58304552D01*
X48522910Y-58285832D01*
X48538562Y-58268562D01*
X48555832Y-58252910D01*
X48574552Y-58239026D01*
X48594543Y-58227044D01*
X48615613Y-58217079D01*
X48637557Y-58209227D01*
X48660166Y-58203563D01*
X48683221Y-58200144D01*
X48706500Y-58199000D01*
X49281500Y-58199000D01*
X49304779Y-58200144D01*
X49304779Y-58200144D01*
G37*
D12*
X48994000Y-58674000D03*
D11*
G36*
X47554779Y-58200144D02*
X47577834Y-58203563D01*
X47600443Y-58209227D01*
X47622387Y-58217079D01*
X47643457Y-58227044D01*
X47663448Y-58239026D01*
X47682168Y-58252910D01*
X47699438Y-58268562D01*
X47715090Y-58285832D01*
X47728974Y-58304552D01*
X47740956Y-58324543D01*
X47750921Y-58345613D01*
X47758773Y-58367557D01*
X47764437Y-58390166D01*
X47767856Y-58413221D01*
X47769000Y-58436500D01*
X47769000Y-58911500D01*
X47767856Y-58934779D01*
X47764437Y-58957834D01*
X47758773Y-58980443D01*
X47750921Y-59002387D01*
X47740956Y-59023457D01*
X47728974Y-59043448D01*
X47715090Y-59062168D01*
X47699438Y-59079438D01*
X47682168Y-59095090D01*
X47663448Y-59108974D01*
X47643457Y-59120956D01*
X47622387Y-59130921D01*
X47600443Y-59138773D01*
X47577834Y-59144437D01*
X47554779Y-59147856D01*
X47531500Y-59149000D01*
X46956500Y-59149000D01*
X46933221Y-59147856D01*
X46910166Y-59144437D01*
X46887557Y-59138773D01*
X46865613Y-59130921D01*
X46844543Y-59120956D01*
X46824552Y-59108974D01*
X46805832Y-59095090D01*
X46788562Y-59079438D01*
X46772910Y-59062168D01*
X46759026Y-59043448D01*
X46747044Y-59023457D01*
X46737079Y-59002387D01*
X46729227Y-58980443D01*
X46723563Y-58957834D01*
X46720144Y-58934779D01*
X46719000Y-58911500D01*
X46719000Y-58436500D01*
X46720144Y-58413221D01*
X46723563Y-58390166D01*
X46729227Y-58367557D01*
X46737079Y-58345613D01*
X46747044Y-58324543D01*
X46759026Y-58304552D01*
X46772910Y-58285832D01*
X46788562Y-58268562D01*
X46805832Y-58252910D01*
X46824552Y-58239026D01*
X46844543Y-58227044D01*
X46865613Y-58217079D01*
X46887557Y-58209227D01*
X46910166Y-58203563D01*
X46933221Y-58200144D01*
X46956500Y-58199000D01*
X47531500Y-58199000D01*
X47554779Y-58200144D01*
X47554779Y-58200144D01*
G37*
D12*
X47244000Y-58674000D03*
G04 #@! TD*
D11*
G04 #@! TO.C,D15*
G36*
X49332779Y-60994144D02*
X49355834Y-60997563D01*
X49378443Y-61003227D01*
X49400387Y-61011079D01*
X49421457Y-61021044D01*
X49441448Y-61033026D01*
X49460168Y-61046910D01*
X49477438Y-61062562D01*
X49493090Y-61079832D01*
X49506974Y-61098552D01*
X49518956Y-61118543D01*
X49528921Y-61139613D01*
X49536773Y-61161557D01*
X49542437Y-61184166D01*
X49545856Y-61207221D01*
X49547000Y-61230500D01*
X49547000Y-61705500D01*
X49545856Y-61728779D01*
X49542437Y-61751834D01*
X49536773Y-61774443D01*
X49528921Y-61796387D01*
X49518956Y-61817457D01*
X49506974Y-61837448D01*
X49493090Y-61856168D01*
X49477438Y-61873438D01*
X49460168Y-61889090D01*
X49441448Y-61902974D01*
X49421457Y-61914956D01*
X49400387Y-61924921D01*
X49378443Y-61932773D01*
X49355834Y-61938437D01*
X49332779Y-61941856D01*
X49309500Y-61943000D01*
X48734500Y-61943000D01*
X48711221Y-61941856D01*
X48688166Y-61938437D01*
X48665557Y-61932773D01*
X48643613Y-61924921D01*
X48622543Y-61914956D01*
X48602552Y-61902974D01*
X48583832Y-61889090D01*
X48566562Y-61873438D01*
X48550910Y-61856168D01*
X48537026Y-61837448D01*
X48525044Y-61817457D01*
X48515079Y-61796387D01*
X48507227Y-61774443D01*
X48501563Y-61751834D01*
X48498144Y-61728779D01*
X48497000Y-61705500D01*
X48497000Y-61230500D01*
X48498144Y-61207221D01*
X48501563Y-61184166D01*
X48507227Y-61161557D01*
X48515079Y-61139613D01*
X48525044Y-61118543D01*
X48537026Y-61098552D01*
X48550910Y-61079832D01*
X48566562Y-61062562D01*
X48583832Y-61046910D01*
X48602552Y-61033026D01*
X48622543Y-61021044D01*
X48643613Y-61011079D01*
X48665557Y-61003227D01*
X48688166Y-60997563D01*
X48711221Y-60994144D01*
X48734500Y-60993000D01*
X49309500Y-60993000D01*
X49332779Y-60994144D01*
X49332779Y-60994144D01*
G37*
D12*
X49022000Y-61468000D03*
D11*
G36*
X47582779Y-60994144D02*
X47605834Y-60997563D01*
X47628443Y-61003227D01*
X47650387Y-61011079D01*
X47671457Y-61021044D01*
X47691448Y-61033026D01*
X47710168Y-61046910D01*
X47727438Y-61062562D01*
X47743090Y-61079832D01*
X47756974Y-61098552D01*
X47768956Y-61118543D01*
X47778921Y-61139613D01*
X47786773Y-61161557D01*
X47792437Y-61184166D01*
X47795856Y-61207221D01*
X47797000Y-61230500D01*
X47797000Y-61705500D01*
X47795856Y-61728779D01*
X47792437Y-61751834D01*
X47786773Y-61774443D01*
X47778921Y-61796387D01*
X47768956Y-61817457D01*
X47756974Y-61837448D01*
X47743090Y-61856168D01*
X47727438Y-61873438D01*
X47710168Y-61889090D01*
X47691448Y-61902974D01*
X47671457Y-61914956D01*
X47650387Y-61924921D01*
X47628443Y-61932773D01*
X47605834Y-61938437D01*
X47582779Y-61941856D01*
X47559500Y-61943000D01*
X46984500Y-61943000D01*
X46961221Y-61941856D01*
X46938166Y-61938437D01*
X46915557Y-61932773D01*
X46893613Y-61924921D01*
X46872543Y-61914956D01*
X46852552Y-61902974D01*
X46833832Y-61889090D01*
X46816562Y-61873438D01*
X46800910Y-61856168D01*
X46787026Y-61837448D01*
X46775044Y-61817457D01*
X46765079Y-61796387D01*
X46757227Y-61774443D01*
X46751563Y-61751834D01*
X46748144Y-61728779D01*
X46747000Y-61705500D01*
X46747000Y-61230500D01*
X46748144Y-61207221D01*
X46751563Y-61184166D01*
X46757227Y-61161557D01*
X46765079Y-61139613D01*
X46775044Y-61118543D01*
X46787026Y-61098552D01*
X46800910Y-61079832D01*
X46816562Y-61062562D01*
X46833832Y-61046910D01*
X46852552Y-61033026D01*
X46872543Y-61021044D01*
X46893613Y-61011079D01*
X46915557Y-61003227D01*
X46938166Y-60997563D01*
X46961221Y-60994144D01*
X46984500Y-60993000D01*
X47559500Y-60993000D01*
X47582779Y-60994144D01*
X47582779Y-60994144D01*
G37*
D12*
X47272000Y-61468000D03*
G04 #@! TD*
D11*
G04 #@! TO.C,R1*
G36*
X64395779Y-63738144D02*
X64418834Y-63741563D01*
X64441443Y-63747227D01*
X64463387Y-63755079D01*
X64484457Y-63765044D01*
X64504448Y-63777026D01*
X64523168Y-63790910D01*
X64540438Y-63806562D01*
X64556090Y-63823832D01*
X64569974Y-63842552D01*
X64581956Y-63862543D01*
X64591921Y-63883613D01*
X64599773Y-63905557D01*
X64605437Y-63928166D01*
X64608856Y-63951221D01*
X64610000Y-63974500D01*
X64610000Y-64549500D01*
X64608856Y-64572779D01*
X64605437Y-64595834D01*
X64599773Y-64618443D01*
X64591921Y-64640387D01*
X64581956Y-64661457D01*
X64569974Y-64681448D01*
X64556090Y-64700168D01*
X64540438Y-64717438D01*
X64523168Y-64733090D01*
X64504448Y-64746974D01*
X64484457Y-64758956D01*
X64463387Y-64768921D01*
X64441443Y-64776773D01*
X64418834Y-64782437D01*
X64395779Y-64785856D01*
X64372500Y-64787000D01*
X63897500Y-64787000D01*
X63874221Y-64785856D01*
X63851166Y-64782437D01*
X63828557Y-64776773D01*
X63806613Y-64768921D01*
X63785543Y-64758956D01*
X63765552Y-64746974D01*
X63746832Y-64733090D01*
X63729562Y-64717438D01*
X63713910Y-64700168D01*
X63700026Y-64681448D01*
X63688044Y-64661457D01*
X63678079Y-64640387D01*
X63670227Y-64618443D01*
X63664563Y-64595834D01*
X63661144Y-64572779D01*
X63660000Y-64549500D01*
X63660000Y-63974500D01*
X63661144Y-63951221D01*
X63664563Y-63928166D01*
X63670227Y-63905557D01*
X63678079Y-63883613D01*
X63688044Y-63862543D01*
X63700026Y-63842552D01*
X63713910Y-63823832D01*
X63729562Y-63806562D01*
X63746832Y-63790910D01*
X63765552Y-63777026D01*
X63785543Y-63765044D01*
X63806613Y-63755079D01*
X63828557Y-63747227D01*
X63851166Y-63741563D01*
X63874221Y-63738144D01*
X63897500Y-63737000D01*
X64372500Y-63737000D01*
X64395779Y-63738144D01*
X64395779Y-63738144D01*
G37*
D12*
X64135000Y-64262000D03*
D11*
G36*
X64395779Y-61988144D02*
X64418834Y-61991563D01*
X64441443Y-61997227D01*
X64463387Y-62005079D01*
X64484457Y-62015044D01*
X64504448Y-62027026D01*
X64523168Y-62040910D01*
X64540438Y-62056562D01*
X64556090Y-62073832D01*
X64569974Y-62092552D01*
X64581956Y-62112543D01*
X64591921Y-62133613D01*
X64599773Y-62155557D01*
X64605437Y-62178166D01*
X64608856Y-62201221D01*
X64610000Y-62224500D01*
X64610000Y-62799500D01*
X64608856Y-62822779D01*
X64605437Y-62845834D01*
X64599773Y-62868443D01*
X64591921Y-62890387D01*
X64581956Y-62911457D01*
X64569974Y-62931448D01*
X64556090Y-62950168D01*
X64540438Y-62967438D01*
X64523168Y-62983090D01*
X64504448Y-62996974D01*
X64484457Y-63008956D01*
X64463387Y-63018921D01*
X64441443Y-63026773D01*
X64418834Y-63032437D01*
X64395779Y-63035856D01*
X64372500Y-63037000D01*
X63897500Y-63037000D01*
X63874221Y-63035856D01*
X63851166Y-63032437D01*
X63828557Y-63026773D01*
X63806613Y-63018921D01*
X63785543Y-63008956D01*
X63765552Y-62996974D01*
X63746832Y-62983090D01*
X63729562Y-62967438D01*
X63713910Y-62950168D01*
X63700026Y-62931448D01*
X63688044Y-62911457D01*
X63678079Y-62890387D01*
X63670227Y-62868443D01*
X63664563Y-62845834D01*
X63661144Y-62822779D01*
X63660000Y-62799500D01*
X63660000Y-62224500D01*
X63661144Y-62201221D01*
X63664563Y-62178166D01*
X63670227Y-62155557D01*
X63678079Y-62133613D01*
X63688044Y-62112543D01*
X63700026Y-62092552D01*
X63713910Y-62073832D01*
X63729562Y-62056562D01*
X63746832Y-62040910D01*
X63765552Y-62027026D01*
X63785543Y-62015044D01*
X63806613Y-62005079D01*
X63828557Y-61997227D01*
X63851166Y-61991563D01*
X63874221Y-61988144D01*
X63897500Y-61987000D01*
X64372500Y-61987000D01*
X64395779Y-61988144D01*
X64395779Y-61988144D01*
G37*
D12*
X64135000Y-62512000D03*
G04 #@! TD*
D11*
G04 #@! TO.C,R2*
G36*
X62617779Y-61988144D02*
X62640834Y-61991563D01*
X62663443Y-61997227D01*
X62685387Y-62005079D01*
X62706457Y-62015044D01*
X62726448Y-62027026D01*
X62745168Y-62040910D01*
X62762438Y-62056562D01*
X62778090Y-62073832D01*
X62791974Y-62092552D01*
X62803956Y-62112543D01*
X62813921Y-62133613D01*
X62821773Y-62155557D01*
X62827437Y-62178166D01*
X62830856Y-62201221D01*
X62832000Y-62224500D01*
X62832000Y-62799500D01*
X62830856Y-62822779D01*
X62827437Y-62845834D01*
X62821773Y-62868443D01*
X62813921Y-62890387D01*
X62803956Y-62911457D01*
X62791974Y-62931448D01*
X62778090Y-62950168D01*
X62762438Y-62967438D01*
X62745168Y-62983090D01*
X62726448Y-62996974D01*
X62706457Y-63008956D01*
X62685387Y-63018921D01*
X62663443Y-63026773D01*
X62640834Y-63032437D01*
X62617779Y-63035856D01*
X62594500Y-63037000D01*
X62119500Y-63037000D01*
X62096221Y-63035856D01*
X62073166Y-63032437D01*
X62050557Y-63026773D01*
X62028613Y-63018921D01*
X62007543Y-63008956D01*
X61987552Y-62996974D01*
X61968832Y-62983090D01*
X61951562Y-62967438D01*
X61935910Y-62950168D01*
X61922026Y-62931448D01*
X61910044Y-62911457D01*
X61900079Y-62890387D01*
X61892227Y-62868443D01*
X61886563Y-62845834D01*
X61883144Y-62822779D01*
X61882000Y-62799500D01*
X61882000Y-62224500D01*
X61883144Y-62201221D01*
X61886563Y-62178166D01*
X61892227Y-62155557D01*
X61900079Y-62133613D01*
X61910044Y-62112543D01*
X61922026Y-62092552D01*
X61935910Y-62073832D01*
X61951562Y-62056562D01*
X61968832Y-62040910D01*
X61987552Y-62027026D01*
X62007543Y-62015044D01*
X62028613Y-62005079D01*
X62050557Y-61997227D01*
X62073166Y-61991563D01*
X62096221Y-61988144D01*
X62119500Y-61987000D01*
X62594500Y-61987000D01*
X62617779Y-61988144D01*
X62617779Y-61988144D01*
G37*
D12*
X62357000Y-62512000D03*
D11*
G36*
X62617779Y-63738144D02*
X62640834Y-63741563D01*
X62663443Y-63747227D01*
X62685387Y-63755079D01*
X62706457Y-63765044D01*
X62726448Y-63777026D01*
X62745168Y-63790910D01*
X62762438Y-63806562D01*
X62778090Y-63823832D01*
X62791974Y-63842552D01*
X62803956Y-63862543D01*
X62813921Y-63883613D01*
X62821773Y-63905557D01*
X62827437Y-63928166D01*
X62830856Y-63951221D01*
X62832000Y-63974500D01*
X62832000Y-64549500D01*
X62830856Y-64572779D01*
X62827437Y-64595834D01*
X62821773Y-64618443D01*
X62813921Y-64640387D01*
X62803956Y-64661457D01*
X62791974Y-64681448D01*
X62778090Y-64700168D01*
X62762438Y-64717438D01*
X62745168Y-64733090D01*
X62726448Y-64746974D01*
X62706457Y-64758956D01*
X62685387Y-64768921D01*
X62663443Y-64776773D01*
X62640834Y-64782437D01*
X62617779Y-64785856D01*
X62594500Y-64787000D01*
X62119500Y-64787000D01*
X62096221Y-64785856D01*
X62073166Y-64782437D01*
X62050557Y-64776773D01*
X62028613Y-64768921D01*
X62007543Y-64758956D01*
X61987552Y-64746974D01*
X61968832Y-64733090D01*
X61951562Y-64717438D01*
X61935910Y-64700168D01*
X61922026Y-64681448D01*
X61910044Y-64661457D01*
X61900079Y-64640387D01*
X61892227Y-64618443D01*
X61886563Y-64595834D01*
X61883144Y-64572779D01*
X61882000Y-64549500D01*
X61882000Y-63974500D01*
X61883144Y-63951221D01*
X61886563Y-63928166D01*
X61892227Y-63905557D01*
X61900079Y-63883613D01*
X61910044Y-63862543D01*
X61922026Y-63842552D01*
X61935910Y-63823832D01*
X61951562Y-63806562D01*
X61968832Y-63790910D01*
X61987552Y-63777026D01*
X62007543Y-63765044D01*
X62028613Y-63755079D01*
X62050557Y-63747227D01*
X62073166Y-63741563D01*
X62096221Y-63738144D01*
X62119500Y-63737000D01*
X62594500Y-63737000D01*
X62617779Y-63738144D01*
X62617779Y-63738144D01*
G37*
D12*
X62357000Y-64262000D03*
G04 #@! TD*
D11*
G04 #@! TO.C,R3*
G36*
X141252779Y-63661144D02*
X141275834Y-63664563D01*
X141298443Y-63670227D01*
X141320387Y-63678079D01*
X141341457Y-63688044D01*
X141361448Y-63700026D01*
X141380168Y-63713910D01*
X141397438Y-63729562D01*
X141413090Y-63746832D01*
X141426974Y-63765552D01*
X141438956Y-63785543D01*
X141448921Y-63806613D01*
X141456773Y-63828557D01*
X141462437Y-63851166D01*
X141465856Y-63874221D01*
X141467000Y-63897500D01*
X141467000Y-64372500D01*
X141465856Y-64395779D01*
X141462437Y-64418834D01*
X141456773Y-64441443D01*
X141448921Y-64463387D01*
X141438956Y-64484457D01*
X141426974Y-64504448D01*
X141413090Y-64523168D01*
X141397438Y-64540438D01*
X141380168Y-64556090D01*
X141361448Y-64569974D01*
X141341457Y-64581956D01*
X141320387Y-64591921D01*
X141298443Y-64599773D01*
X141275834Y-64605437D01*
X141252779Y-64608856D01*
X141229500Y-64610000D01*
X140654500Y-64610000D01*
X140631221Y-64608856D01*
X140608166Y-64605437D01*
X140585557Y-64599773D01*
X140563613Y-64591921D01*
X140542543Y-64581956D01*
X140522552Y-64569974D01*
X140503832Y-64556090D01*
X140486562Y-64540438D01*
X140470910Y-64523168D01*
X140457026Y-64504448D01*
X140445044Y-64484457D01*
X140435079Y-64463387D01*
X140427227Y-64441443D01*
X140421563Y-64418834D01*
X140418144Y-64395779D01*
X140417000Y-64372500D01*
X140417000Y-63897500D01*
X140418144Y-63874221D01*
X140421563Y-63851166D01*
X140427227Y-63828557D01*
X140435079Y-63806613D01*
X140445044Y-63785543D01*
X140457026Y-63765552D01*
X140470910Y-63746832D01*
X140486562Y-63729562D01*
X140503832Y-63713910D01*
X140522552Y-63700026D01*
X140542543Y-63688044D01*
X140563613Y-63678079D01*
X140585557Y-63670227D01*
X140608166Y-63664563D01*
X140631221Y-63661144D01*
X140654500Y-63660000D01*
X141229500Y-63660000D01*
X141252779Y-63661144D01*
X141252779Y-63661144D01*
G37*
D12*
X140942000Y-64135000D03*
D11*
G36*
X139502779Y-63661144D02*
X139525834Y-63664563D01*
X139548443Y-63670227D01*
X139570387Y-63678079D01*
X139591457Y-63688044D01*
X139611448Y-63700026D01*
X139630168Y-63713910D01*
X139647438Y-63729562D01*
X139663090Y-63746832D01*
X139676974Y-63765552D01*
X139688956Y-63785543D01*
X139698921Y-63806613D01*
X139706773Y-63828557D01*
X139712437Y-63851166D01*
X139715856Y-63874221D01*
X139717000Y-63897500D01*
X139717000Y-64372500D01*
X139715856Y-64395779D01*
X139712437Y-64418834D01*
X139706773Y-64441443D01*
X139698921Y-64463387D01*
X139688956Y-64484457D01*
X139676974Y-64504448D01*
X139663090Y-64523168D01*
X139647438Y-64540438D01*
X139630168Y-64556090D01*
X139611448Y-64569974D01*
X139591457Y-64581956D01*
X139570387Y-64591921D01*
X139548443Y-64599773D01*
X139525834Y-64605437D01*
X139502779Y-64608856D01*
X139479500Y-64610000D01*
X138904500Y-64610000D01*
X138881221Y-64608856D01*
X138858166Y-64605437D01*
X138835557Y-64599773D01*
X138813613Y-64591921D01*
X138792543Y-64581956D01*
X138772552Y-64569974D01*
X138753832Y-64556090D01*
X138736562Y-64540438D01*
X138720910Y-64523168D01*
X138707026Y-64504448D01*
X138695044Y-64484457D01*
X138685079Y-64463387D01*
X138677227Y-64441443D01*
X138671563Y-64418834D01*
X138668144Y-64395779D01*
X138667000Y-64372500D01*
X138667000Y-63897500D01*
X138668144Y-63874221D01*
X138671563Y-63851166D01*
X138677227Y-63828557D01*
X138685079Y-63806613D01*
X138695044Y-63785543D01*
X138707026Y-63765552D01*
X138720910Y-63746832D01*
X138736562Y-63729562D01*
X138753832Y-63713910D01*
X138772552Y-63700026D01*
X138792543Y-63688044D01*
X138813613Y-63678079D01*
X138835557Y-63670227D01*
X138858166Y-63664563D01*
X138881221Y-63661144D01*
X138904500Y-63660000D01*
X139479500Y-63660000D01*
X139502779Y-63661144D01*
X139502779Y-63661144D01*
G37*
D12*
X139192000Y-64135000D03*
G04 #@! TD*
D11*
G04 #@! TO.C,R4*
G36*
X60839779Y-63738144D02*
X60862834Y-63741563D01*
X60885443Y-63747227D01*
X60907387Y-63755079D01*
X60928457Y-63765044D01*
X60948448Y-63777026D01*
X60967168Y-63790910D01*
X60984438Y-63806562D01*
X61000090Y-63823832D01*
X61013974Y-63842552D01*
X61025956Y-63862543D01*
X61035921Y-63883613D01*
X61043773Y-63905557D01*
X61049437Y-63928166D01*
X61052856Y-63951221D01*
X61054000Y-63974500D01*
X61054000Y-64549500D01*
X61052856Y-64572779D01*
X61049437Y-64595834D01*
X61043773Y-64618443D01*
X61035921Y-64640387D01*
X61025956Y-64661457D01*
X61013974Y-64681448D01*
X61000090Y-64700168D01*
X60984438Y-64717438D01*
X60967168Y-64733090D01*
X60948448Y-64746974D01*
X60928457Y-64758956D01*
X60907387Y-64768921D01*
X60885443Y-64776773D01*
X60862834Y-64782437D01*
X60839779Y-64785856D01*
X60816500Y-64787000D01*
X60341500Y-64787000D01*
X60318221Y-64785856D01*
X60295166Y-64782437D01*
X60272557Y-64776773D01*
X60250613Y-64768921D01*
X60229543Y-64758956D01*
X60209552Y-64746974D01*
X60190832Y-64733090D01*
X60173562Y-64717438D01*
X60157910Y-64700168D01*
X60144026Y-64681448D01*
X60132044Y-64661457D01*
X60122079Y-64640387D01*
X60114227Y-64618443D01*
X60108563Y-64595834D01*
X60105144Y-64572779D01*
X60104000Y-64549500D01*
X60104000Y-63974500D01*
X60105144Y-63951221D01*
X60108563Y-63928166D01*
X60114227Y-63905557D01*
X60122079Y-63883613D01*
X60132044Y-63862543D01*
X60144026Y-63842552D01*
X60157910Y-63823832D01*
X60173562Y-63806562D01*
X60190832Y-63790910D01*
X60209552Y-63777026D01*
X60229543Y-63765044D01*
X60250613Y-63755079D01*
X60272557Y-63747227D01*
X60295166Y-63741563D01*
X60318221Y-63738144D01*
X60341500Y-63737000D01*
X60816500Y-63737000D01*
X60839779Y-63738144D01*
X60839779Y-63738144D01*
G37*
D12*
X60579000Y-64262000D03*
D11*
G36*
X60839779Y-61988144D02*
X60862834Y-61991563D01*
X60885443Y-61997227D01*
X60907387Y-62005079D01*
X60928457Y-62015044D01*
X60948448Y-62027026D01*
X60967168Y-62040910D01*
X60984438Y-62056562D01*
X61000090Y-62073832D01*
X61013974Y-62092552D01*
X61025956Y-62112543D01*
X61035921Y-62133613D01*
X61043773Y-62155557D01*
X61049437Y-62178166D01*
X61052856Y-62201221D01*
X61054000Y-62224500D01*
X61054000Y-62799500D01*
X61052856Y-62822779D01*
X61049437Y-62845834D01*
X61043773Y-62868443D01*
X61035921Y-62890387D01*
X61025956Y-62911457D01*
X61013974Y-62931448D01*
X61000090Y-62950168D01*
X60984438Y-62967438D01*
X60967168Y-62983090D01*
X60948448Y-62996974D01*
X60928457Y-63008956D01*
X60907387Y-63018921D01*
X60885443Y-63026773D01*
X60862834Y-63032437D01*
X60839779Y-63035856D01*
X60816500Y-63037000D01*
X60341500Y-63037000D01*
X60318221Y-63035856D01*
X60295166Y-63032437D01*
X60272557Y-63026773D01*
X60250613Y-63018921D01*
X60229543Y-63008956D01*
X60209552Y-62996974D01*
X60190832Y-62983090D01*
X60173562Y-62967438D01*
X60157910Y-62950168D01*
X60144026Y-62931448D01*
X60132044Y-62911457D01*
X60122079Y-62890387D01*
X60114227Y-62868443D01*
X60108563Y-62845834D01*
X60105144Y-62822779D01*
X60104000Y-62799500D01*
X60104000Y-62224500D01*
X60105144Y-62201221D01*
X60108563Y-62178166D01*
X60114227Y-62155557D01*
X60122079Y-62133613D01*
X60132044Y-62112543D01*
X60144026Y-62092552D01*
X60157910Y-62073832D01*
X60173562Y-62056562D01*
X60190832Y-62040910D01*
X60209552Y-62027026D01*
X60229543Y-62015044D01*
X60250613Y-62005079D01*
X60272557Y-61997227D01*
X60295166Y-61991563D01*
X60318221Y-61988144D01*
X60341500Y-61987000D01*
X60816500Y-61987000D01*
X60839779Y-61988144D01*
X60839779Y-61988144D01*
G37*
D12*
X60579000Y-62512000D03*
G04 #@! TD*
D11*
G04 #@! TO.C,R5*
G36*
X143213779Y-62010144D02*
X143236834Y-62013563D01*
X143259443Y-62019227D01*
X143281387Y-62027079D01*
X143302457Y-62037044D01*
X143322448Y-62049026D01*
X143341168Y-62062910D01*
X143358438Y-62078562D01*
X143374090Y-62095832D01*
X143387974Y-62114552D01*
X143399956Y-62134543D01*
X143409921Y-62155613D01*
X143417773Y-62177557D01*
X143423437Y-62200166D01*
X143426856Y-62223221D01*
X143428000Y-62246500D01*
X143428000Y-62721500D01*
X143426856Y-62744779D01*
X143423437Y-62767834D01*
X143417773Y-62790443D01*
X143409921Y-62812387D01*
X143399956Y-62833457D01*
X143387974Y-62853448D01*
X143374090Y-62872168D01*
X143358438Y-62889438D01*
X143341168Y-62905090D01*
X143322448Y-62918974D01*
X143302457Y-62930956D01*
X143281387Y-62940921D01*
X143259443Y-62948773D01*
X143236834Y-62954437D01*
X143213779Y-62957856D01*
X143190500Y-62959000D01*
X142615500Y-62959000D01*
X142592221Y-62957856D01*
X142569166Y-62954437D01*
X142546557Y-62948773D01*
X142524613Y-62940921D01*
X142503543Y-62930956D01*
X142483552Y-62918974D01*
X142464832Y-62905090D01*
X142447562Y-62889438D01*
X142431910Y-62872168D01*
X142418026Y-62853448D01*
X142406044Y-62833457D01*
X142396079Y-62812387D01*
X142388227Y-62790443D01*
X142382563Y-62767834D01*
X142379144Y-62744779D01*
X142378000Y-62721500D01*
X142378000Y-62246500D01*
X142379144Y-62223221D01*
X142382563Y-62200166D01*
X142388227Y-62177557D01*
X142396079Y-62155613D01*
X142406044Y-62134543D01*
X142418026Y-62114552D01*
X142431910Y-62095832D01*
X142447562Y-62078562D01*
X142464832Y-62062910D01*
X142483552Y-62049026D01*
X142503543Y-62037044D01*
X142524613Y-62027079D01*
X142546557Y-62019227D01*
X142569166Y-62013563D01*
X142592221Y-62010144D01*
X142615500Y-62009000D01*
X143190500Y-62009000D01*
X143213779Y-62010144D01*
X143213779Y-62010144D01*
G37*
D12*
X142903000Y-62484000D03*
D11*
G36*
X144963779Y-62010144D02*
X144986834Y-62013563D01*
X145009443Y-62019227D01*
X145031387Y-62027079D01*
X145052457Y-62037044D01*
X145072448Y-62049026D01*
X145091168Y-62062910D01*
X145108438Y-62078562D01*
X145124090Y-62095832D01*
X145137974Y-62114552D01*
X145149956Y-62134543D01*
X145159921Y-62155613D01*
X145167773Y-62177557D01*
X145173437Y-62200166D01*
X145176856Y-62223221D01*
X145178000Y-62246500D01*
X145178000Y-62721500D01*
X145176856Y-62744779D01*
X145173437Y-62767834D01*
X145167773Y-62790443D01*
X145159921Y-62812387D01*
X145149956Y-62833457D01*
X145137974Y-62853448D01*
X145124090Y-62872168D01*
X145108438Y-62889438D01*
X145091168Y-62905090D01*
X145072448Y-62918974D01*
X145052457Y-62930956D01*
X145031387Y-62940921D01*
X145009443Y-62948773D01*
X144986834Y-62954437D01*
X144963779Y-62957856D01*
X144940500Y-62959000D01*
X144365500Y-62959000D01*
X144342221Y-62957856D01*
X144319166Y-62954437D01*
X144296557Y-62948773D01*
X144274613Y-62940921D01*
X144253543Y-62930956D01*
X144233552Y-62918974D01*
X144214832Y-62905090D01*
X144197562Y-62889438D01*
X144181910Y-62872168D01*
X144168026Y-62853448D01*
X144156044Y-62833457D01*
X144146079Y-62812387D01*
X144138227Y-62790443D01*
X144132563Y-62767834D01*
X144129144Y-62744779D01*
X144128000Y-62721500D01*
X144128000Y-62246500D01*
X144129144Y-62223221D01*
X144132563Y-62200166D01*
X144138227Y-62177557D01*
X144146079Y-62155613D01*
X144156044Y-62134543D01*
X144168026Y-62114552D01*
X144181910Y-62095832D01*
X144197562Y-62078562D01*
X144214832Y-62062910D01*
X144233552Y-62049026D01*
X144253543Y-62037044D01*
X144274613Y-62027079D01*
X144296557Y-62019227D01*
X144319166Y-62013563D01*
X144342221Y-62010144D01*
X144365500Y-62009000D01*
X144940500Y-62009000D01*
X144963779Y-62010144D01*
X144963779Y-62010144D01*
G37*
D12*
X144653000Y-62484000D03*
G04 #@! TD*
D11*
G04 #@! TO.C,R6*
G36*
X48796779Y-64550144D02*
X48819834Y-64553563D01*
X48842443Y-64559227D01*
X48864387Y-64567079D01*
X48885457Y-64577044D01*
X48905448Y-64589026D01*
X48924168Y-64602910D01*
X48941438Y-64618562D01*
X48957090Y-64635832D01*
X48970974Y-64654552D01*
X48982956Y-64674543D01*
X48992921Y-64695613D01*
X49000773Y-64717557D01*
X49006437Y-64740166D01*
X49009856Y-64763221D01*
X49011000Y-64786500D01*
X49011000Y-65261500D01*
X49009856Y-65284779D01*
X49006437Y-65307834D01*
X49000773Y-65330443D01*
X48992921Y-65352387D01*
X48982956Y-65373457D01*
X48970974Y-65393448D01*
X48957090Y-65412168D01*
X48941438Y-65429438D01*
X48924168Y-65445090D01*
X48905448Y-65458974D01*
X48885457Y-65470956D01*
X48864387Y-65480921D01*
X48842443Y-65488773D01*
X48819834Y-65494437D01*
X48796779Y-65497856D01*
X48773500Y-65499000D01*
X48198500Y-65499000D01*
X48175221Y-65497856D01*
X48152166Y-65494437D01*
X48129557Y-65488773D01*
X48107613Y-65480921D01*
X48086543Y-65470956D01*
X48066552Y-65458974D01*
X48047832Y-65445090D01*
X48030562Y-65429438D01*
X48014910Y-65412168D01*
X48001026Y-65393448D01*
X47989044Y-65373457D01*
X47979079Y-65352387D01*
X47971227Y-65330443D01*
X47965563Y-65307834D01*
X47962144Y-65284779D01*
X47961000Y-65261500D01*
X47961000Y-64786500D01*
X47962144Y-64763221D01*
X47965563Y-64740166D01*
X47971227Y-64717557D01*
X47979079Y-64695613D01*
X47989044Y-64674543D01*
X48001026Y-64654552D01*
X48014910Y-64635832D01*
X48030562Y-64618562D01*
X48047832Y-64602910D01*
X48066552Y-64589026D01*
X48086543Y-64577044D01*
X48107613Y-64567079D01*
X48129557Y-64559227D01*
X48152166Y-64553563D01*
X48175221Y-64550144D01*
X48198500Y-64549000D01*
X48773500Y-64549000D01*
X48796779Y-64550144D01*
X48796779Y-64550144D01*
G37*
D12*
X48486000Y-65024000D03*
D11*
G36*
X47046779Y-64550144D02*
X47069834Y-64553563D01*
X47092443Y-64559227D01*
X47114387Y-64567079D01*
X47135457Y-64577044D01*
X47155448Y-64589026D01*
X47174168Y-64602910D01*
X47191438Y-64618562D01*
X47207090Y-64635832D01*
X47220974Y-64654552D01*
X47232956Y-64674543D01*
X47242921Y-64695613D01*
X47250773Y-64717557D01*
X47256437Y-64740166D01*
X47259856Y-64763221D01*
X47261000Y-64786500D01*
X47261000Y-65261500D01*
X47259856Y-65284779D01*
X47256437Y-65307834D01*
X47250773Y-65330443D01*
X47242921Y-65352387D01*
X47232956Y-65373457D01*
X47220974Y-65393448D01*
X47207090Y-65412168D01*
X47191438Y-65429438D01*
X47174168Y-65445090D01*
X47155448Y-65458974D01*
X47135457Y-65470956D01*
X47114387Y-65480921D01*
X47092443Y-65488773D01*
X47069834Y-65494437D01*
X47046779Y-65497856D01*
X47023500Y-65499000D01*
X46448500Y-65499000D01*
X46425221Y-65497856D01*
X46402166Y-65494437D01*
X46379557Y-65488773D01*
X46357613Y-65480921D01*
X46336543Y-65470956D01*
X46316552Y-65458974D01*
X46297832Y-65445090D01*
X46280562Y-65429438D01*
X46264910Y-65412168D01*
X46251026Y-65393448D01*
X46239044Y-65373457D01*
X46229079Y-65352387D01*
X46221227Y-65330443D01*
X46215563Y-65307834D01*
X46212144Y-65284779D01*
X46211000Y-65261500D01*
X46211000Y-64786500D01*
X46212144Y-64763221D01*
X46215563Y-64740166D01*
X46221227Y-64717557D01*
X46229079Y-64695613D01*
X46239044Y-64674543D01*
X46251026Y-64654552D01*
X46264910Y-64635832D01*
X46280562Y-64618562D01*
X46297832Y-64602910D01*
X46316552Y-64589026D01*
X46336543Y-64577044D01*
X46357613Y-64567079D01*
X46379557Y-64559227D01*
X46402166Y-64553563D01*
X46425221Y-64550144D01*
X46448500Y-64549000D01*
X47023500Y-64549000D01*
X47046779Y-64550144D01*
X47046779Y-64550144D01*
G37*
D12*
X46736000Y-65024000D03*
G04 #@! TD*
D11*
G04 #@! TO.C,R7*
G36*
X144935779Y-63661144D02*
X144958834Y-63664563D01*
X144981443Y-63670227D01*
X145003387Y-63678079D01*
X145024457Y-63688044D01*
X145044448Y-63700026D01*
X145063168Y-63713910D01*
X145080438Y-63729562D01*
X145096090Y-63746832D01*
X145109974Y-63765552D01*
X145121956Y-63785543D01*
X145131921Y-63806613D01*
X145139773Y-63828557D01*
X145145437Y-63851166D01*
X145148856Y-63874221D01*
X145150000Y-63897500D01*
X145150000Y-64372500D01*
X145148856Y-64395779D01*
X145145437Y-64418834D01*
X145139773Y-64441443D01*
X145131921Y-64463387D01*
X145121956Y-64484457D01*
X145109974Y-64504448D01*
X145096090Y-64523168D01*
X145080438Y-64540438D01*
X145063168Y-64556090D01*
X145044448Y-64569974D01*
X145024457Y-64581956D01*
X145003387Y-64591921D01*
X144981443Y-64599773D01*
X144958834Y-64605437D01*
X144935779Y-64608856D01*
X144912500Y-64610000D01*
X144337500Y-64610000D01*
X144314221Y-64608856D01*
X144291166Y-64605437D01*
X144268557Y-64599773D01*
X144246613Y-64591921D01*
X144225543Y-64581956D01*
X144205552Y-64569974D01*
X144186832Y-64556090D01*
X144169562Y-64540438D01*
X144153910Y-64523168D01*
X144140026Y-64504448D01*
X144128044Y-64484457D01*
X144118079Y-64463387D01*
X144110227Y-64441443D01*
X144104563Y-64418834D01*
X144101144Y-64395779D01*
X144100000Y-64372500D01*
X144100000Y-63897500D01*
X144101144Y-63874221D01*
X144104563Y-63851166D01*
X144110227Y-63828557D01*
X144118079Y-63806613D01*
X144128044Y-63785543D01*
X144140026Y-63765552D01*
X144153910Y-63746832D01*
X144169562Y-63729562D01*
X144186832Y-63713910D01*
X144205552Y-63700026D01*
X144225543Y-63688044D01*
X144246613Y-63678079D01*
X144268557Y-63670227D01*
X144291166Y-63664563D01*
X144314221Y-63661144D01*
X144337500Y-63660000D01*
X144912500Y-63660000D01*
X144935779Y-63661144D01*
X144935779Y-63661144D01*
G37*
D12*
X144625000Y-64135000D03*
D11*
G36*
X143185779Y-63661144D02*
X143208834Y-63664563D01*
X143231443Y-63670227D01*
X143253387Y-63678079D01*
X143274457Y-63688044D01*
X143294448Y-63700026D01*
X143313168Y-63713910D01*
X143330438Y-63729562D01*
X143346090Y-63746832D01*
X143359974Y-63765552D01*
X143371956Y-63785543D01*
X143381921Y-63806613D01*
X143389773Y-63828557D01*
X143395437Y-63851166D01*
X143398856Y-63874221D01*
X143400000Y-63897500D01*
X143400000Y-64372500D01*
X143398856Y-64395779D01*
X143395437Y-64418834D01*
X143389773Y-64441443D01*
X143381921Y-64463387D01*
X143371956Y-64484457D01*
X143359974Y-64504448D01*
X143346090Y-64523168D01*
X143330438Y-64540438D01*
X143313168Y-64556090D01*
X143294448Y-64569974D01*
X143274457Y-64581956D01*
X143253387Y-64591921D01*
X143231443Y-64599773D01*
X143208834Y-64605437D01*
X143185779Y-64608856D01*
X143162500Y-64610000D01*
X142587500Y-64610000D01*
X142564221Y-64608856D01*
X142541166Y-64605437D01*
X142518557Y-64599773D01*
X142496613Y-64591921D01*
X142475543Y-64581956D01*
X142455552Y-64569974D01*
X142436832Y-64556090D01*
X142419562Y-64540438D01*
X142403910Y-64523168D01*
X142390026Y-64504448D01*
X142378044Y-64484457D01*
X142368079Y-64463387D01*
X142360227Y-64441443D01*
X142354563Y-64418834D01*
X142351144Y-64395779D01*
X142350000Y-64372500D01*
X142350000Y-63897500D01*
X142351144Y-63874221D01*
X142354563Y-63851166D01*
X142360227Y-63828557D01*
X142368079Y-63806613D01*
X142378044Y-63785543D01*
X142390026Y-63765552D01*
X142403910Y-63746832D01*
X142419562Y-63729562D01*
X142436832Y-63713910D01*
X142455552Y-63700026D01*
X142475543Y-63688044D01*
X142496613Y-63678079D01*
X142518557Y-63670227D01*
X142541166Y-63664563D01*
X142564221Y-63661144D01*
X142587500Y-63660000D01*
X143162500Y-63660000D01*
X143185779Y-63661144D01*
X143185779Y-63661144D01*
G37*
D12*
X142875000Y-64135000D03*
G04 #@! TD*
D11*
G04 #@! TO.C,R8*
G36*
X39934779Y-64550144D02*
X39957834Y-64553563D01*
X39980443Y-64559227D01*
X40002387Y-64567079D01*
X40023457Y-64577044D01*
X40043448Y-64589026D01*
X40062168Y-64602910D01*
X40079438Y-64618562D01*
X40095090Y-64635832D01*
X40108974Y-64654552D01*
X40120956Y-64674543D01*
X40130921Y-64695613D01*
X40138773Y-64717557D01*
X40144437Y-64740166D01*
X40147856Y-64763221D01*
X40149000Y-64786500D01*
X40149000Y-65261500D01*
X40147856Y-65284779D01*
X40144437Y-65307834D01*
X40138773Y-65330443D01*
X40130921Y-65352387D01*
X40120956Y-65373457D01*
X40108974Y-65393448D01*
X40095090Y-65412168D01*
X40079438Y-65429438D01*
X40062168Y-65445090D01*
X40043448Y-65458974D01*
X40023457Y-65470956D01*
X40002387Y-65480921D01*
X39980443Y-65488773D01*
X39957834Y-65494437D01*
X39934779Y-65497856D01*
X39911500Y-65499000D01*
X39336500Y-65499000D01*
X39313221Y-65497856D01*
X39290166Y-65494437D01*
X39267557Y-65488773D01*
X39245613Y-65480921D01*
X39224543Y-65470956D01*
X39204552Y-65458974D01*
X39185832Y-65445090D01*
X39168562Y-65429438D01*
X39152910Y-65412168D01*
X39139026Y-65393448D01*
X39127044Y-65373457D01*
X39117079Y-65352387D01*
X39109227Y-65330443D01*
X39103563Y-65307834D01*
X39100144Y-65284779D01*
X39099000Y-65261500D01*
X39099000Y-64786500D01*
X39100144Y-64763221D01*
X39103563Y-64740166D01*
X39109227Y-64717557D01*
X39117079Y-64695613D01*
X39127044Y-64674543D01*
X39139026Y-64654552D01*
X39152910Y-64635832D01*
X39168562Y-64618562D01*
X39185832Y-64602910D01*
X39204552Y-64589026D01*
X39224543Y-64577044D01*
X39245613Y-64567079D01*
X39267557Y-64559227D01*
X39290166Y-64553563D01*
X39313221Y-64550144D01*
X39336500Y-64549000D01*
X39911500Y-64549000D01*
X39934779Y-64550144D01*
X39934779Y-64550144D01*
G37*
D12*
X39624000Y-65024000D03*
D11*
G36*
X38184779Y-64550144D02*
X38207834Y-64553563D01*
X38230443Y-64559227D01*
X38252387Y-64567079D01*
X38273457Y-64577044D01*
X38293448Y-64589026D01*
X38312168Y-64602910D01*
X38329438Y-64618562D01*
X38345090Y-64635832D01*
X38358974Y-64654552D01*
X38370956Y-64674543D01*
X38380921Y-64695613D01*
X38388773Y-64717557D01*
X38394437Y-64740166D01*
X38397856Y-64763221D01*
X38399000Y-64786500D01*
X38399000Y-65261500D01*
X38397856Y-65284779D01*
X38394437Y-65307834D01*
X38388773Y-65330443D01*
X38380921Y-65352387D01*
X38370956Y-65373457D01*
X38358974Y-65393448D01*
X38345090Y-65412168D01*
X38329438Y-65429438D01*
X38312168Y-65445090D01*
X38293448Y-65458974D01*
X38273457Y-65470956D01*
X38252387Y-65480921D01*
X38230443Y-65488773D01*
X38207834Y-65494437D01*
X38184779Y-65497856D01*
X38161500Y-65499000D01*
X37586500Y-65499000D01*
X37563221Y-65497856D01*
X37540166Y-65494437D01*
X37517557Y-65488773D01*
X37495613Y-65480921D01*
X37474543Y-65470956D01*
X37454552Y-65458974D01*
X37435832Y-65445090D01*
X37418562Y-65429438D01*
X37402910Y-65412168D01*
X37389026Y-65393448D01*
X37377044Y-65373457D01*
X37367079Y-65352387D01*
X37359227Y-65330443D01*
X37353563Y-65307834D01*
X37350144Y-65284779D01*
X37349000Y-65261500D01*
X37349000Y-64786500D01*
X37350144Y-64763221D01*
X37353563Y-64740166D01*
X37359227Y-64717557D01*
X37367079Y-64695613D01*
X37377044Y-64674543D01*
X37389026Y-64654552D01*
X37402910Y-64635832D01*
X37418562Y-64618562D01*
X37435832Y-64602910D01*
X37454552Y-64589026D01*
X37474543Y-64577044D01*
X37495613Y-64567079D01*
X37517557Y-64559227D01*
X37540166Y-64553563D01*
X37563221Y-64550144D01*
X37586500Y-64549000D01*
X38161500Y-64549000D01*
X38184779Y-64550144D01*
X38184779Y-64550144D01*
G37*
D12*
X37874000Y-65024000D03*
G04 #@! TD*
D11*
G04 #@! TO.C,R9*
G36*
X141280779Y-62010144D02*
X141303834Y-62013563D01*
X141326443Y-62019227D01*
X141348387Y-62027079D01*
X141369457Y-62037044D01*
X141389448Y-62049026D01*
X141408168Y-62062910D01*
X141425438Y-62078562D01*
X141441090Y-62095832D01*
X141454974Y-62114552D01*
X141466956Y-62134543D01*
X141476921Y-62155613D01*
X141484773Y-62177557D01*
X141490437Y-62200166D01*
X141493856Y-62223221D01*
X141495000Y-62246500D01*
X141495000Y-62721500D01*
X141493856Y-62744779D01*
X141490437Y-62767834D01*
X141484773Y-62790443D01*
X141476921Y-62812387D01*
X141466956Y-62833457D01*
X141454974Y-62853448D01*
X141441090Y-62872168D01*
X141425438Y-62889438D01*
X141408168Y-62905090D01*
X141389448Y-62918974D01*
X141369457Y-62930956D01*
X141348387Y-62940921D01*
X141326443Y-62948773D01*
X141303834Y-62954437D01*
X141280779Y-62957856D01*
X141257500Y-62959000D01*
X140682500Y-62959000D01*
X140659221Y-62957856D01*
X140636166Y-62954437D01*
X140613557Y-62948773D01*
X140591613Y-62940921D01*
X140570543Y-62930956D01*
X140550552Y-62918974D01*
X140531832Y-62905090D01*
X140514562Y-62889438D01*
X140498910Y-62872168D01*
X140485026Y-62853448D01*
X140473044Y-62833457D01*
X140463079Y-62812387D01*
X140455227Y-62790443D01*
X140449563Y-62767834D01*
X140446144Y-62744779D01*
X140445000Y-62721500D01*
X140445000Y-62246500D01*
X140446144Y-62223221D01*
X140449563Y-62200166D01*
X140455227Y-62177557D01*
X140463079Y-62155613D01*
X140473044Y-62134543D01*
X140485026Y-62114552D01*
X140498910Y-62095832D01*
X140514562Y-62078562D01*
X140531832Y-62062910D01*
X140550552Y-62049026D01*
X140570543Y-62037044D01*
X140591613Y-62027079D01*
X140613557Y-62019227D01*
X140636166Y-62013563D01*
X140659221Y-62010144D01*
X140682500Y-62009000D01*
X141257500Y-62009000D01*
X141280779Y-62010144D01*
X141280779Y-62010144D01*
G37*
D12*
X140970000Y-62484000D03*
D11*
G36*
X139530779Y-62010144D02*
X139553834Y-62013563D01*
X139576443Y-62019227D01*
X139598387Y-62027079D01*
X139619457Y-62037044D01*
X139639448Y-62049026D01*
X139658168Y-62062910D01*
X139675438Y-62078562D01*
X139691090Y-62095832D01*
X139704974Y-62114552D01*
X139716956Y-62134543D01*
X139726921Y-62155613D01*
X139734773Y-62177557D01*
X139740437Y-62200166D01*
X139743856Y-62223221D01*
X139745000Y-62246500D01*
X139745000Y-62721500D01*
X139743856Y-62744779D01*
X139740437Y-62767834D01*
X139734773Y-62790443D01*
X139726921Y-62812387D01*
X139716956Y-62833457D01*
X139704974Y-62853448D01*
X139691090Y-62872168D01*
X139675438Y-62889438D01*
X139658168Y-62905090D01*
X139639448Y-62918974D01*
X139619457Y-62930956D01*
X139598387Y-62940921D01*
X139576443Y-62948773D01*
X139553834Y-62954437D01*
X139530779Y-62957856D01*
X139507500Y-62959000D01*
X138932500Y-62959000D01*
X138909221Y-62957856D01*
X138886166Y-62954437D01*
X138863557Y-62948773D01*
X138841613Y-62940921D01*
X138820543Y-62930956D01*
X138800552Y-62918974D01*
X138781832Y-62905090D01*
X138764562Y-62889438D01*
X138748910Y-62872168D01*
X138735026Y-62853448D01*
X138723044Y-62833457D01*
X138713079Y-62812387D01*
X138705227Y-62790443D01*
X138699563Y-62767834D01*
X138696144Y-62744779D01*
X138695000Y-62721500D01*
X138695000Y-62246500D01*
X138696144Y-62223221D01*
X138699563Y-62200166D01*
X138705227Y-62177557D01*
X138713079Y-62155613D01*
X138723044Y-62134543D01*
X138735026Y-62114552D01*
X138748910Y-62095832D01*
X138764562Y-62078562D01*
X138781832Y-62062910D01*
X138800552Y-62049026D01*
X138820543Y-62037044D01*
X138841613Y-62027079D01*
X138863557Y-62019227D01*
X138886166Y-62013563D01*
X138909221Y-62010144D01*
X138932500Y-62009000D01*
X139507500Y-62009000D01*
X139530779Y-62010144D01*
X139530779Y-62010144D01*
G37*
D12*
X139220000Y-62484000D03*
G04 #@! TD*
D11*
G04 #@! TO.C,R10*
G36*
X53283779Y-54898144D02*
X53306834Y-54901563D01*
X53329443Y-54907227D01*
X53351387Y-54915079D01*
X53372457Y-54925044D01*
X53392448Y-54937026D01*
X53411168Y-54950910D01*
X53428438Y-54966562D01*
X53444090Y-54983832D01*
X53457974Y-55002552D01*
X53469956Y-55022543D01*
X53479921Y-55043613D01*
X53487773Y-55065557D01*
X53493437Y-55088166D01*
X53496856Y-55111221D01*
X53498000Y-55134500D01*
X53498000Y-55609500D01*
X53496856Y-55632779D01*
X53493437Y-55655834D01*
X53487773Y-55678443D01*
X53479921Y-55700387D01*
X53469956Y-55721457D01*
X53457974Y-55741448D01*
X53444090Y-55760168D01*
X53428438Y-55777438D01*
X53411168Y-55793090D01*
X53392448Y-55806974D01*
X53372457Y-55818956D01*
X53351387Y-55828921D01*
X53329443Y-55836773D01*
X53306834Y-55842437D01*
X53283779Y-55845856D01*
X53260500Y-55847000D01*
X52685500Y-55847000D01*
X52662221Y-55845856D01*
X52639166Y-55842437D01*
X52616557Y-55836773D01*
X52594613Y-55828921D01*
X52573543Y-55818956D01*
X52553552Y-55806974D01*
X52534832Y-55793090D01*
X52517562Y-55777438D01*
X52501910Y-55760168D01*
X52488026Y-55741448D01*
X52476044Y-55721457D01*
X52466079Y-55700387D01*
X52458227Y-55678443D01*
X52452563Y-55655834D01*
X52449144Y-55632779D01*
X52448000Y-55609500D01*
X52448000Y-55134500D01*
X52449144Y-55111221D01*
X52452563Y-55088166D01*
X52458227Y-55065557D01*
X52466079Y-55043613D01*
X52476044Y-55022543D01*
X52488026Y-55002552D01*
X52501910Y-54983832D01*
X52517562Y-54966562D01*
X52534832Y-54950910D01*
X52553552Y-54937026D01*
X52573543Y-54925044D01*
X52594613Y-54915079D01*
X52616557Y-54907227D01*
X52639166Y-54901563D01*
X52662221Y-54898144D01*
X52685500Y-54897000D01*
X53260500Y-54897000D01*
X53283779Y-54898144D01*
X53283779Y-54898144D01*
G37*
D12*
X52973000Y-55372000D03*
D11*
G36*
X55033779Y-54898144D02*
X55056834Y-54901563D01*
X55079443Y-54907227D01*
X55101387Y-54915079D01*
X55122457Y-54925044D01*
X55142448Y-54937026D01*
X55161168Y-54950910D01*
X55178438Y-54966562D01*
X55194090Y-54983832D01*
X55207974Y-55002552D01*
X55219956Y-55022543D01*
X55229921Y-55043613D01*
X55237773Y-55065557D01*
X55243437Y-55088166D01*
X55246856Y-55111221D01*
X55248000Y-55134500D01*
X55248000Y-55609500D01*
X55246856Y-55632779D01*
X55243437Y-55655834D01*
X55237773Y-55678443D01*
X55229921Y-55700387D01*
X55219956Y-55721457D01*
X55207974Y-55741448D01*
X55194090Y-55760168D01*
X55178438Y-55777438D01*
X55161168Y-55793090D01*
X55142448Y-55806974D01*
X55122457Y-55818956D01*
X55101387Y-55828921D01*
X55079443Y-55836773D01*
X55056834Y-55842437D01*
X55033779Y-55845856D01*
X55010500Y-55847000D01*
X54435500Y-55847000D01*
X54412221Y-55845856D01*
X54389166Y-55842437D01*
X54366557Y-55836773D01*
X54344613Y-55828921D01*
X54323543Y-55818956D01*
X54303552Y-55806974D01*
X54284832Y-55793090D01*
X54267562Y-55777438D01*
X54251910Y-55760168D01*
X54238026Y-55741448D01*
X54226044Y-55721457D01*
X54216079Y-55700387D01*
X54208227Y-55678443D01*
X54202563Y-55655834D01*
X54199144Y-55632779D01*
X54198000Y-55609500D01*
X54198000Y-55134500D01*
X54199144Y-55111221D01*
X54202563Y-55088166D01*
X54208227Y-55065557D01*
X54216079Y-55043613D01*
X54226044Y-55022543D01*
X54238026Y-55002552D01*
X54251910Y-54983832D01*
X54267562Y-54966562D01*
X54284832Y-54950910D01*
X54303552Y-54937026D01*
X54323543Y-54925044D01*
X54344613Y-54915079D01*
X54366557Y-54907227D01*
X54389166Y-54901563D01*
X54412221Y-54898144D01*
X54435500Y-54897000D01*
X55010500Y-54897000D01*
X55033779Y-54898144D01*
X55033779Y-54898144D01*
G37*
D12*
X54723000Y-55372000D03*
G04 #@! TD*
D11*
G04 #@! TO.C,R11*
G36*
X146896779Y-62010144D02*
X146919834Y-62013563D01*
X146942443Y-62019227D01*
X146964387Y-62027079D01*
X146985457Y-62037044D01*
X147005448Y-62049026D01*
X147024168Y-62062910D01*
X147041438Y-62078562D01*
X147057090Y-62095832D01*
X147070974Y-62114552D01*
X147082956Y-62134543D01*
X147092921Y-62155613D01*
X147100773Y-62177557D01*
X147106437Y-62200166D01*
X147109856Y-62223221D01*
X147111000Y-62246500D01*
X147111000Y-62721500D01*
X147109856Y-62744779D01*
X147106437Y-62767834D01*
X147100773Y-62790443D01*
X147092921Y-62812387D01*
X147082956Y-62833457D01*
X147070974Y-62853448D01*
X147057090Y-62872168D01*
X147041438Y-62889438D01*
X147024168Y-62905090D01*
X147005448Y-62918974D01*
X146985457Y-62930956D01*
X146964387Y-62940921D01*
X146942443Y-62948773D01*
X146919834Y-62954437D01*
X146896779Y-62957856D01*
X146873500Y-62959000D01*
X146298500Y-62959000D01*
X146275221Y-62957856D01*
X146252166Y-62954437D01*
X146229557Y-62948773D01*
X146207613Y-62940921D01*
X146186543Y-62930956D01*
X146166552Y-62918974D01*
X146147832Y-62905090D01*
X146130562Y-62889438D01*
X146114910Y-62872168D01*
X146101026Y-62853448D01*
X146089044Y-62833457D01*
X146079079Y-62812387D01*
X146071227Y-62790443D01*
X146065563Y-62767834D01*
X146062144Y-62744779D01*
X146061000Y-62721500D01*
X146061000Y-62246500D01*
X146062144Y-62223221D01*
X146065563Y-62200166D01*
X146071227Y-62177557D01*
X146079079Y-62155613D01*
X146089044Y-62134543D01*
X146101026Y-62114552D01*
X146114910Y-62095832D01*
X146130562Y-62078562D01*
X146147832Y-62062910D01*
X146166552Y-62049026D01*
X146186543Y-62037044D01*
X146207613Y-62027079D01*
X146229557Y-62019227D01*
X146252166Y-62013563D01*
X146275221Y-62010144D01*
X146298500Y-62009000D01*
X146873500Y-62009000D01*
X146896779Y-62010144D01*
X146896779Y-62010144D01*
G37*
D12*
X146586000Y-62484000D03*
D11*
G36*
X148646779Y-62010144D02*
X148669834Y-62013563D01*
X148692443Y-62019227D01*
X148714387Y-62027079D01*
X148735457Y-62037044D01*
X148755448Y-62049026D01*
X148774168Y-62062910D01*
X148791438Y-62078562D01*
X148807090Y-62095832D01*
X148820974Y-62114552D01*
X148832956Y-62134543D01*
X148842921Y-62155613D01*
X148850773Y-62177557D01*
X148856437Y-62200166D01*
X148859856Y-62223221D01*
X148861000Y-62246500D01*
X148861000Y-62721500D01*
X148859856Y-62744779D01*
X148856437Y-62767834D01*
X148850773Y-62790443D01*
X148842921Y-62812387D01*
X148832956Y-62833457D01*
X148820974Y-62853448D01*
X148807090Y-62872168D01*
X148791438Y-62889438D01*
X148774168Y-62905090D01*
X148755448Y-62918974D01*
X148735457Y-62930956D01*
X148714387Y-62940921D01*
X148692443Y-62948773D01*
X148669834Y-62954437D01*
X148646779Y-62957856D01*
X148623500Y-62959000D01*
X148048500Y-62959000D01*
X148025221Y-62957856D01*
X148002166Y-62954437D01*
X147979557Y-62948773D01*
X147957613Y-62940921D01*
X147936543Y-62930956D01*
X147916552Y-62918974D01*
X147897832Y-62905090D01*
X147880562Y-62889438D01*
X147864910Y-62872168D01*
X147851026Y-62853448D01*
X147839044Y-62833457D01*
X147829079Y-62812387D01*
X147821227Y-62790443D01*
X147815563Y-62767834D01*
X147812144Y-62744779D01*
X147811000Y-62721500D01*
X147811000Y-62246500D01*
X147812144Y-62223221D01*
X147815563Y-62200166D01*
X147821227Y-62177557D01*
X147829079Y-62155613D01*
X147839044Y-62134543D01*
X147851026Y-62114552D01*
X147864910Y-62095832D01*
X147880562Y-62078562D01*
X147897832Y-62062910D01*
X147916552Y-62049026D01*
X147936543Y-62037044D01*
X147957613Y-62027079D01*
X147979557Y-62019227D01*
X148002166Y-62013563D01*
X148025221Y-62010144D01*
X148048500Y-62009000D01*
X148623500Y-62009000D01*
X148646779Y-62010144D01*
X148646779Y-62010144D01*
G37*
D12*
X148336000Y-62484000D03*
G04 #@! TD*
D11*
G04 #@! TO.C,R12*
G36*
X42728779Y-64550144D02*
X42751834Y-64553563D01*
X42774443Y-64559227D01*
X42796387Y-64567079D01*
X42817457Y-64577044D01*
X42837448Y-64589026D01*
X42856168Y-64602910D01*
X42873438Y-64618562D01*
X42889090Y-64635832D01*
X42902974Y-64654552D01*
X42914956Y-64674543D01*
X42924921Y-64695613D01*
X42932773Y-64717557D01*
X42938437Y-64740166D01*
X42941856Y-64763221D01*
X42943000Y-64786500D01*
X42943000Y-65261500D01*
X42941856Y-65284779D01*
X42938437Y-65307834D01*
X42932773Y-65330443D01*
X42924921Y-65352387D01*
X42914956Y-65373457D01*
X42902974Y-65393448D01*
X42889090Y-65412168D01*
X42873438Y-65429438D01*
X42856168Y-65445090D01*
X42837448Y-65458974D01*
X42817457Y-65470956D01*
X42796387Y-65480921D01*
X42774443Y-65488773D01*
X42751834Y-65494437D01*
X42728779Y-65497856D01*
X42705500Y-65499000D01*
X42130500Y-65499000D01*
X42107221Y-65497856D01*
X42084166Y-65494437D01*
X42061557Y-65488773D01*
X42039613Y-65480921D01*
X42018543Y-65470956D01*
X41998552Y-65458974D01*
X41979832Y-65445090D01*
X41962562Y-65429438D01*
X41946910Y-65412168D01*
X41933026Y-65393448D01*
X41921044Y-65373457D01*
X41911079Y-65352387D01*
X41903227Y-65330443D01*
X41897563Y-65307834D01*
X41894144Y-65284779D01*
X41893000Y-65261500D01*
X41893000Y-64786500D01*
X41894144Y-64763221D01*
X41897563Y-64740166D01*
X41903227Y-64717557D01*
X41911079Y-64695613D01*
X41921044Y-64674543D01*
X41933026Y-64654552D01*
X41946910Y-64635832D01*
X41962562Y-64618562D01*
X41979832Y-64602910D01*
X41998552Y-64589026D01*
X42018543Y-64577044D01*
X42039613Y-64567079D01*
X42061557Y-64559227D01*
X42084166Y-64553563D01*
X42107221Y-64550144D01*
X42130500Y-64549000D01*
X42705500Y-64549000D01*
X42728779Y-64550144D01*
X42728779Y-64550144D01*
G37*
D12*
X42418000Y-65024000D03*
D11*
G36*
X44478779Y-64550144D02*
X44501834Y-64553563D01*
X44524443Y-64559227D01*
X44546387Y-64567079D01*
X44567457Y-64577044D01*
X44587448Y-64589026D01*
X44606168Y-64602910D01*
X44623438Y-64618562D01*
X44639090Y-64635832D01*
X44652974Y-64654552D01*
X44664956Y-64674543D01*
X44674921Y-64695613D01*
X44682773Y-64717557D01*
X44688437Y-64740166D01*
X44691856Y-64763221D01*
X44693000Y-64786500D01*
X44693000Y-65261500D01*
X44691856Y-65284779D01*
X44688437Y-65307834D01*
X44682773Y-65330443D01*
X44674921Y-65352387D01*
X44664956Y-65373457D01*
X44652974Y-65393448D01*
X44639090Y-65412168D01*
X44623438Y-65429438D01*
X44606168Y-65445090D01*
X44587448Y-65458974D01*
X44567457Y-65470956D01*
X44546387Y-65480921D01*
X44524443Y-65488773D01*
X44501834Y-65494437D01*
X44478779Y-65497856D01*
X44455500Y-65499000D01*
X43880500Y-65499000D01*
X43857221Y-65497856D01*
X43834166Y-65494437D01*
X43811557Y-65488773D01*
X43789613Y-65480921D01*
X43768543Y-65470956D01*
X43748552Y-65458974D01*
X43729832Y-65445090D01*
X43712562Y-65429438D01*
X43696910Y-65412168D01*
X43683026Y-65393448D01*
X43671044Y-65373457D01*
X43661079Y-65352387D01*
X43653227Y-65330443D01*
X43647563Y-65307834D01*
X43644144Y-65284779D01*
X43643000Y-65261500D01*
X43643000Y-64786500D01*
X43644144Y-64763221D01*
X43647563Y-64740166D01*
X43653227Y-64717557D01*
X43661079Y-64695613D01*
X43671044Y-64674543D01*
X43683026Y-64654552D01*
X43696910Y-64635832D01*
X43712562Y-64618562D01*
X43729832Y-64602910D01*
X43748552Y-64589026D01*
X43768543Y-64577044D01*
X43789613Y-64567079D01*
X43811557Y-64559227D01*
X43834166Y-64553563D01*
X43857221Y-64550144D01*
X43880500Y-64549000D01*
X44455500Y-64549000D01*
X44478779Y-64550144D01*
X44478779Y-64550144D01*
G37*
D12*
X44168000Y-65024000D03*
G04 #@! TD*
D11*
G04 #@! TO.C,R13*
G36*
X148632779Y-63661144D02*
X148655834Y-63664563D01*
X148678443Y-63670227D01*
X148700387Y-63678079D01*
X148721457Y-63688044D01*
X148741448Y-63700026D01*
X148760168Y-63713910D01*
X148777438Y-63729562D01*
X148793090Y-63746832D01*
X148806974Y-63765552D01*
X148818956Y-63785543D01*
X148828921Y-63806613D01*
X148836773Y-63828557D01*
X148842437Y-63851166D01*
X148845856Y-63874221D01*
X148847000Y-63897500D01*
X148847000Y-64372500D01*
X148845856Y-64395779D01*
X148842437Y-64418834D01*
X148836773Y-64441443D01*
X148828921Y-64463387D01*
X148818956Y-64484457D01*
X148806974Y-64504448D01*
X148793090Y-64523168D01*
X148777438Y-64540438D01*
X148760168Y-64556090D01*
X148741448Y-64569974D01*
X148721457Y-64581956D01*
X148700387Y-64591921D01*
X148678443Y-64599773D01*
X148655834Y-64605437D01*
X148632779Y-64608856D01*
X148609500Y-64610000D01*
X148034500Y-64610000D01*
X148011221Y-64608856D01*
X147988166Y-64605437D01*
X147965557Y-64599773D01*
X147943613Y-64591921D01*
X147922543Y-64581956D01*
X147902552Y-64569974D01*
X147883832Y-64556090D01*
X147866562Y-64540438D01*
X147850910Y-64523168D01*
X147837026Y-64504448D01*
X147825044Y-64484457D01*
X147815079Y-64463387D01*
X147807227Y-64441443D01*
X147801563Y-64418834D01*
X147798144Y-64395779D01*
X147797000Y-64372500D01*
X147797000Y-63897500D01*
X147798144Y-63874221D01*
X147801563Y-63851166D01*
X147807227Y-63828557D01*
X147815079Y-63806613D01*
X147825044Y-63785543D01*
X147837026Y-63765552D01*
X147850910Y-63746832D01*
X147866562Y-63729562D01*
X147883832Y-63713910D01*
X147902552Y-63700026D01*
X147922543Y-63688044D01*
X147943613Y-63678079D01*
X147965557Y-63670227D01*
X147988166Y-63664563D01*
X148011221Y-63661144D01*
X148034500Y-63660000D01*
X148609500Y-63660000D01*
X148632779Y-63661144D01*
X148632779Y-63661144D01*
G37*
D12*
X148322000Y-64135000D03*
D11*
G36*
X146882779Y-63661144D02*
X146905834Y-63664563D01*
X146928443Y-63670227D01*
X146950387Y-63678079D01*
X146971457Y-63688044D01*
X146991448Y-63700026D01*
X147010168Y-63713910D01*
X147027438Y-63729562D01*
X147043090Y-63746832D01*
X147056974Y-63765552D01*
X147068956Y-63785543D01*
X147078921Y-63806613D01*
X147086773Y-63828557D01*
X147092437Y-63851166D01*
X147095856Y-63874221D01*
X147097000Y-63897500D01*
X147097000Y-64372500D01*
X147095856Y-64395779D01*
X147092437Y-64418834D01*
X147086773Y-64441443D01*
X147078921Y-64463387D01*
X147068956Y-64484457D01*
X147056974Y-64504448D01*
X147043090Y-64523168D01*
X147027438Y-64540438D01*
X147010168Y-64556090D01*
X146991448Y-64569974D01*
X146971457Y-64581956D01*
X146950387Y-64591921D01*
X146928443Y-64599773D01*
X146905834Y-64605437D01*
X146882779Y-64608856D01*
X146859500Y-64610000D01*
X146284500Y-64610000D01*
X146261221Y-64608856D01*
X146238166Y-64605437D01*
X146215557Y-64599773D01*
X146193613Y-64591921D01*
X146172543Y-64581956D01*
X146152552Y-64569974D01*
X146133832Y-64556090D01*
X146116562Y-64540438D01*
X146100910Y-64523168D01*
X146087026Y-64504448D01*
X146075044Y-64484457D01*
X146065079Y-64463387D01*
X146057227Y-64441443D01*
X146051563Y-64418834D01*
X146048144Y-64395779D01*
X146047000Y-64372500D01*
X146047000Y-63897500D01*
X146048144Y-63874221D01*
X146051563Y-63851166D01*
X146057227Y-63828557D01*
X146065079Y-63806613D01*
X146075044Y-63785543D01*
X146087026Y-63765552D01*
X146100910Y-63746832D01*
X146116562Y-63729562D01*
X146133832Y-63713910D01*
X146152552Y-63700026D01*
X146172543Y-63688044D01*
X146193613Y-63678079D01*
X146215557Y-63670227D01*
X146238166Y-63664563D01*
X146261221Y-63661144D01*
X146284500Y-63660000D01*
X146859500Y-63660000D01*
X146882779Y-63661144D01*
X146882779Y-63661144D01*
G37*
D12*
X146572000Y-64135000D03*
G04 #@! TD*
D11*
G04 #@! TO.C,R14*
G36*
X54892779Y-57692144D02*
X54915834Y-57695563D01*
X54938443Y-57701227D01*
X54960387Y-57709079D01*
X54981457Y-57719044D01*
X55001448Y-57731026D01*
X55020168Y-57744910D01*
X55037438Y-57760562D01*
X55053090Y-57777832D01*
X55066974Y-57796552D01*
X55078956Y-57816543D01*
X55088921Y-57837613D01*
X55096773Y-57859557D01*
X55102437Y-57882166D01*
X55105856Y-57905221D01*
X55107000Y-57928500D01*
X55107000Y-58403500D01*
X55105856Y-58426779D01*
X55102437Y-58449834D01*
X55096773Y-58472443D01*
X55088921Y-58494387D01*
X55078956Y-58515457D01*
X55066974Y-58535448D01*
X55053090Y-58554168D01*
X55037438Y-58571438D01*
X55020168Y-58587090D01*
X55001448Y-58600974D01*
X54981457Y-58612956D01*
X54960387Y-58622921D01*
X54938443Y-58630773D01*
X54915834Y-58636437D01*
X54892779Y-58639856D01*
X54869500Y-58641000D01*
X54294500Y-58641000D01*
X54271221Y-58639856D01*
X54248166Y-58636437D01*
X54225557Y-58630773D01*
X54203613Y-58622921D01*
X54182543Y-58612956D01*
X54162552Y-58600974D01*
X54143832Y-58587090D01*
X54126562Y-58571438D01*
X54110910Y-58554168D01*
X54097026Y-58535448D01*
X54085044Y-58515457D01*
X54075079Y-58494387D01*
X54067227Y-58472443D01*
X54061563Y-58449834D01*
X54058144Y-58426779D01*
X54057000Y-58403500D01*
X54057000Y-57928500D01*
X54058144Y-57905221D01*
X54061563Y-57882166D01*
X54067227Y-57859557D01*
X54075079Y-57837613D01*
X54085044Y-57816543D01*
X54097026Y-57796552D01*
X54110910Y-57777832D01*
X54126562Y-57760562D01*
X54143832Y-57744910D01*
X54162552Y-57731026D01*
X54182543Y-57719044D01*
X54203613Y-57709079D01*
X54225557Y-57701227D01*
X54248166Y-57695563D01*
X54271221Y-57692144D01*
X54294500Y-57691000D01*
X54869500Y-57691000D01*
X54892779Y-57692144D01*
X54892779Y-57692144D01*
G37*
D12*
X54582000Y-58166000D03*
D11*
G36*
X53142779Y-57692144D02*
X53165834Y-57695563D01*
X53188443Y-57701227D01*
X53210387Y-57709079D01*
X53231457Y-57719044D01*
X53251448Y-57731026D01*
X53270168Y-57744910D01*
X53287438Y-57760562D01*
X53303090Y-57777832D01*
X53316974Y-57796552D01*
X53328956Y-57816543D01*
X53338921Y-57837613D01*
X53346773Y-57859557D01*
X53352437Y-57882166D01*
X53355856Y-57905221D01*
X53357000Y-57928500D01*
X53357000Y-58403500D01*
X53355856Y-58426779D01*
X53352437Y-58449834D01*
X53346773Y-58472443D01*
X53338921Y-58494387D01*
X53328956Y-58515457D01*
X53316974Y-58535448D01*
X53303090Y-58554168D01*
X53287438Y-58571438D01*
X53270168Y-58587090D01*
X53251448Y-58600974D01*
X53231457Y-58612956D01*
X53210387Y-58622921D01*
X53188443Y-58630773D01*
X53165834Y-58636437D01*
X53142779Y-58639856D01*
X53119500Y-58641000D01*
X52544500Y-58641000D01*
X52521221Y-58639856D01*
X52498166Y-58636437D01*
X52475557Y-58630773D01*
X52453613Y-58622921D01*
X52432543Y-58612956D01*
X52412552Y-58600974D01*
X52393832Y-58587090D01*
X52376562Y-58571438D01*
X52360910Y-58554168D01*
X52347026Y-58535448D01*
X52335044Y-58515457D01*
X52325079Y-58494387D01*
X52317227Y-58472443D01*
X52311563Y-58449834D01*
X52308144Y-58426779D01*
X52307000Y-58403500D01*
X52307000Y-57928500D01*
X52308144Y-57905221D01*
X52311563Y-57882166D01*
X52317227Y-57859557D01*
X52325079Y-57837613D01*
X52335044Y-57816543D01*
X52347026Y-57796552D01*
X52360910Y-57777832D01*
X52376562Y-57760562D01*
X52393832Y-57744910D01*
X52412552Y-57731026D01*
X52432543Y-57719044D01*
X52453613Y-57709079D01*
X52475557Y-57701227D01*
X52498166Y-57695563D01*
X52521221Y-57692144D01*
X52544500Y-57691000D01*
X53119500Y-57691000D01*
X53142779Y-57692144D01*
X53142779Y-57692144D01*
G37*
D12*
X52832000Y-58166000D03*
G04 #@! TD*
D11*
G04 #@! TO.C,R15*
G36*
X55033779Y-62010144D02*
X55056834Y-62013563D01*
X55079443Y-62019227D01*
X55101387Y-62027079D01*
X55122457Y-62037044D01*
X55142448Y-62049026D01*
X55161168Y-62062910D01*
X55178438Y-62078562D01*
X55194090Y-62095832D01*
X55207974Y-62114552D01*
X55219956Y-62134543D01*
X55229921Y-62155613D01*
X55237773Y-62177557D01*
X55243437Y-62200166D01*
X55246856Y-62223221D01*
X55248000Y-62246500D01*
X55248000Y-62721500D01*
X55246856Y-62744779D01*
X55243437Y-62767834D01*
X55237773Y-62790443D01*
X55229921Y-62812387D01*
X55219956Y-62833457D01*
X55207974Y-62853448D01*
X55194090Y-62872168D01*
X55178438Y-62889438D01*
X55161168Y-62905090D01*
X55142448Y-62918974D01*
X55122457Y-62930956D01*
X55101387Y-62940921D01*
X55079443Y-62948773D01*
X55056834Y-62954437D01*
X55033779Y-62957856D01*
X55010500Y-62959000D01*
X54435500Y-62959000D01*
X54412221Y-62957856D01*
X54389166Y-62954437D01*
X54366557Y-62948773D01*
X54344613Y-62940921D01*
X54323543Y-62930956D01*
X54303552Y-62918974D01*
X54284832Y-62905090D01*
X54267562Y-62889438D01*
X54251910Y-62872168D01*
X54238026Y-62853448D01*
X54226044Y-62833457D01*
X54216079Y-62812387D01*
X54208227Y-62790443D01*
X54202563Y-62767834D01*
X54199144Y-62744779D01*
X54198000Y-62721500D01*
X54198000Y-62246500D01*
X54199144Y-62223221D01*
X54202563Y-62200166D01*
X54208227Y-62177557D01*
X54216079Y-62155613D01*
X54226044Y-62134543D01*
X54238026Y-62114552D01*
X54251910Y-62095832D01*
X54267562Y-62078562D01*
X54284832Y-62062910D01*
X54303552Y-62049026D01*
X54323543Y-62037044D01*
X54344613Y-62027079D01*
X54366557Y-62019227D01*
X54389166Y-62013563D01*
X54412221Y-62010144D01*
X54435500Y-62009000D01*
X55010500Y-62009000D01*
X55033779Y-62010144D01*
X55033779Y-62010144D01*
G37*
D12*
X54723000Y-62484000D03*
D11*
G36*
X53283779Y-62010144D02*
X53306834Y-62013563D01*
X53329443Y-62019227D01*
X53351387Y-62027079D01*
X53372457Y-62037044D01*
X53392448Y-62049026D01*
X53411168Y-62062910D01*
X53428438Y-62078562D01*
X53444090Y-62095832D01*
X53457974Y-62114552D01*
X53469956Y-62134543D01*
X53479921Y-62155613D01*
X53487773Y-62177557D01*
X53493437Y-62200166D01*
X53496856Y-62223221D01*
X53498000Y-62246500D01*
X53498000Y-62721500D01*
X53496856Y-62744779D01*
X53493437Y-62767834D01*
X53487773Y-62790443D01*
X53479921Y-62812387D01*
X53469956Y-62833457D01*
X53457974Y-62853448D01*
X53444090Y-62872168D01*
X53428438Y-62889438D01*
X53411168Y-62905090D01*
X53392448Y-62918974D01*
X53372457Y-62930956D01*
X53351387Y-62940921D01*
X53329443Y-62948773D01*
X53306834Y-62954437D01*
X53283779Y-62957856D01*
X53260500Y-62959000D01*
X52685500Y-62959000D01*
X52662221Y-62957856D01*
X52639166Y-62954437D01*
X52616557Y-62948773D01*
X52594613Y-62940921D01*
X52573543Y-62930956D01*
X52553552Y-62918974D01*
X52534832Y-62905090D01*
X52517562Y-62889438D01*
X52501910Y-62872168D01*
X52488026Y-62853448D01*
X52476044Y-62833457D01*
X52466079Y-62812387D01*
X52458227Y-62790443D01*
X52452563Y-62767834D01*
X52449144Y-62744779D01*
X52448000Y-62721500D01*
X52448000Y-62246500D01*
X52449144Y-62223221D01*
X52452563Y-62200166D01*
X52458227Y-62177557D01*
X52466079Y-62155613D01*
X52476044Y-62134543D01*
X52488026Y-62114552D01*
X52501910Y-62095832D01*
X52517562Y-62078562D01*
X52534832Y-62062910D01*
X52553552Y-62049026D01*
X52573543Y-62037044D01*
X52594613Y-62027079D01*
X52616557Y-62019227D01*
X52639166Y-62013563D01*
X52662221Y-62010144D01*
X52685500Y-62009000D01*
X53260500Y-62009000D01*
X53283779Y-62010144D01*
X53283779Y-62010144D01*
G37*
D12*
X52973000Y-62484000D03*
G04 #@! TD*
D10*
G04 #@! TO.C,Conn7*
X53340000Y-91567000D03*
X53340000Y-83693000D03*
X53340000Y-75819000D03*
G04 #@! TD*
G04 #@! TO.C,Conn8*
X161036000Y-91313000D03*
X161036000Y-83439000D03*
X161036000Y-75565000D03*
G04 #@! TD*
D11*
G04 #@! TO.C,C1*
G36*
X108528779Y-129447144D02*
X108551834Y-129450563D01*
X108574443Y-129456227D01*
X108596387Y-129464079D01*
X108617457Y-129474044D01*
X108637448Y-129486026D01*
X108656168Y-129499910D01*
X108673438Y-129515562D01*
X108689090Y-129532832D01*
X108702974Y-129551552D01*
X108714956Y-129571543D01*
X108724921Y-129592613D01*
X108732773Y-129614557D01*
X108738437Y-129637166D01*
X108741856Y-129660221D01*
X108743000Y-129683500D01*
X108743000Y-130158500D01*
X108741856Y-130181779D01*
X108738437Y-130204834D01*
X108732773Y-130227443D01*
X108724921Y-130249387D01*
X108714956Y-130270457D01*
X108702974Y-130290448D01*
X108689090Y-130309168D01*
X108673438Y-130326438D01*
X108656168Y-130342090D01*
X108637448Y-130355974D01*
X108617457Y-130367956D01*
X108596387Y-130377921D01*
X108574443Y-130385773D01*
X108551834Y-130391437D01*
X108528779Y-130394856D01*
X108505500Y-130396000D01*
X107930500Y-130396000D01*
X107907221Y-130394856D01*
X107884166Y-130391437D01*
X107861557Y-130385773D01*
X107839613Y-130377921D01*
X107818543Y-130367956D01*
X107798552Y-130355974D01*
X107779832Y-130342090D01*
X107762562Y-130326438D01*
X107746910Y-130309168D01*
X107733026Y-130290448D01*
X107721044Y-130270457D01*
X107711079Y-130249387D01*
X107703227Y-130227443D01*
X107697563Y-130204834D01*
X107694144Y-130181779D01*
X107693000Y-130158500D01*
X107693000Y-129683500D01*
X107694144Y-129660221D01*
X107697563Y-129637166D01*
X107703227Y-129614557D01*
X107711079Y-129592613D01*
X107721044Y-129571543D01*
X107733026Y-129551552D01*
X107746910Y-129532832D01*
X107762562Y-129515562D01*
X107779832Y-129499910D01*
X107798552Y-129486026D01*
X107818543Y-129474044D01*
X107839613Y-129464079D01*
X107861557Y-129456227D01*
X107884166Y-129450563D01*
X107907221Y-129447144D01*
X107930500Y-129446000D01*
X108505500Y-129446000D01*
X108528779Y-129447144D01*
X108528779Y-129447144D01*
G37*
D12*
X108218000Y-129921000D03*
D11*
G36*
X110278779Y-129447144D02*
X110301834Y-129450563D01*
X110324443Y-129456227D01*
X110346387Y-129464079D01*
X110367457Y-129474044D01*
X110387448Y-129486026D01*
X110406168Y-129499910D01*
X110423438Y-129515562D01*
X110439090Y-129532832D01*
X110452974Y-129551552D01*
X110464956Y-129571543D01*
X110474921Y-129592613D01*
X110482773Y-129614557D01*
X110488437Y-129637166D01*
X110491856Y-129660221D01*
X110493000Y-129683500D01*
X110493000Y-130158500D01*
X110491856Y-130181779D01*
X110488437Y-130204834D01*
X110482773Y-130227443D01*
X110474921Y-130249387D01*
X110464956Y-130270457D01*
X110452974Y-130290448D01*
X110439090Y-130309168D01*
X110423438Y-130326438D01*
X110406168Y-130342090D01*
X110387448Y-130355974D01*
X110367457Y-130367956D01*
X110346387Y-130377921D01*
X110324443Y-130385773D01*
X110301834Y-130391437D01*
X110278779Y-130394856D01*
X110255500Y-130396000D01*
X109680500Y-130396000D01*
X109657221Y-130394856D01*
X109634166Y-130391437D01*
X109611557Y-130385773D01*
X109589613Y-130377921D01*
X109568543Y-130367956D01*
X109548552Y-130355974D01*
X109529832Y-130342090D01*
X109512562Y-130326438D01*
X109496910Y-130309168D01*
X109483026Y-130290448D01*
X109471044Y-130270457D01*
X109461079Y-130249387D01*
X109453227Y-130227443D01*
X109447563Y-130204834D01*
X109444144Y-130181779D01*
X109443000Y-130158500D01*
X109443000Y-129683500D01*
X109444144Y-129660221D01*
X109447563Y-129637166D01*
X109453227Y-129614557D01*
X109461079Y-129592613D01*
X109471044Y-129571543D01*
X109483026Y-129551552D01*
X109496910Y-129532832D01*
X109512562Y-129515562D01*
X109529832Y-129499910D01*
X109548552Y-129486026D01*
X109568543Y-129474044D01*
X109589613Y-129464079D01*
X109611557Y-129456227D01*
X109634166Y-129450563D01*
X109657221Y-129447144D01*
X109680500Y-129446000D01*
X110255500Y-129446000D01*
X110278779Y-129447144D01*
X110278779Y-129447144D01*
G37*
D12*
X109968000Y-129921000D03*
G04 #@! TD*
D11*
G04 #@! TO.C,R16*
G36*
X139198779Y-139204144D02*
X139221834Y-139207563D01*
X139244443Y-139213227D01*
X139266387Y-139221079D01*
X139287457Y-139231044D01*
X139307448Y-139243026D01*
X139326168Y-139256910D01*
X139343438Y-139272562D01*
X139359090Y-139289832D01*
X139372974Y-139308552D01*
X139384956Y-139328543D01*
X139394921Y-139349613D01*
X139402773Y-139371557D01*
X139408437Y-139394166D01*
X139411856Y-139417221D01*
X139413000Y-139440500D01*
X139413000Y-140015500D01*
X139411856Y-140038779D01*
X139408437Y-140061834D01*
X139402773Y-140084443D01*
X139394921Y-140106387D01*
X139384956Y-140127457D01*
X139372974Y-140147448D01*
X139359090Y-140166168D01*
X139343438Y-140183438D01*
X139326168Y-140199090D01*
X139307448Y-140212974D01*
X139287457Y-140224956D01*
X139266387Y-140234921D01*
X139244443Y-140242773D01*
X139221834Y-140248437D01*
X139198779Y-140251856D01*
X139175500Y-140253000D01*
X138700500Y-140253000D01*
X138677221Y-140251856D01*
X138654166Y-140248437D01*
X138631557Y-140242773D01*
X138609613Y-140234921D01*
X138588543Y-140224956D01*
X138568552Y-140212974D01*
X138549832Y-140199090D01*
X138532562Y-140183438D01*
X138516910Y-140166168D01*
X138503026Y-140147448D01*
X138491044Y-140127457D01*
X138481079Y-140106387D01*
X138473227Y-140084443D01*
X138467563Y-140061834D01*
X138464144Y-140038779D01*
X138463000Y-140015500D01*
X138463000Y-139440500D01*
X138464144Y-139417221D01*
X138467563Y-139394166D01*
X138473227Y-139371557D01*
X138481079Y-139349613D01*
X138491044Y-139328543D01*
X138503026Y-139308552D01*
X138516910Y-139289832D01*
X138532562Y-139272562D01*
X138549832Y-139256910D01*
X138568552Y-139243026D01*
X138588543Y-139231044D01*
X138609613Y-139221079D01*
X138631557Y-139213227D01*
X138654166Y-139207563D01*
X138677221Y-139204144D01*
X138700500Y-139203000D01*
X139175500Y-139203000D01*
X139198779Y-139204144D01*
X139198779Y-139204144D01*
G37*
D12*
X138938000Y-139728000D03*
D11*
G36*
X139198779Y-140954144D02*
X139221834Y-140957563D01*
X139244443Y-140963227D01*
X139266387Y-140971079D01*
X139287457Y-140981044D01*
X139307448Y-140993026D01*
X139326168Y-141006910D01*
X139343438Y-141022562D01*
X139359090Y-141039832D01*
X139372974Y-141058552D01*
X139384956Y-141078543D01*
X139394921Y-141099613D01*
X139402773Y-141121557D01*
X139408437Y-141144166D01*
X139411856Y-141167221D01*
X139413000Y-141190500D01*
X139413000Y-141765500D01*
X139411856Y-141788779D01*
X139408437Y-141811834D01*
X139402773Y-141834443D01*
X139394921Y-141856387D01*
X139384956Y-141877457D01*
X139372974Y-141897448D01*
X139359090Y-141916168D01*
X139343438Y-141933438D01*
X139326168Y-141949090D01*
X139307448Y-141962974D01*
X139287457Y-141974956D01*
X139266387Y-141984921D01*
X139244443Y-141992773D01*
X139221834Y-141998437D01*
X139198779Y-142001856D01*
X139175500Y-142003000D01*
X138700500Y-142003000D01*
X138677221Y-142001856D01*
X138654166Y-141998437D01*
X138631557Y-141992773D01*
X138609613Y-141984921D01*
X138588543Y-141974956D01*
X138568552Y-141962974D01*
X138549832Y-141949090D01*
X138532562Y-141933438D01*
X138516910Y-141916168D01*
X138503026Y-141897448D01*
X138491044Y-141877457D01*
X138481079Y-141856387D01*
X138473227Y-141834443D01*
X138467563Y-141811834D01*
X138464144Y-141788779D01*
X138463000Y-141765500D01*
X138463000Y-141190500D01*
X138464144Y-141167221D01*
X138467563Y-141144166D01*
X138473227Y-141121557D01*
X138481079Y-141099613D01*
X138491044Y-141078543D01*
X138503026Y-141058552D01*
X138516910Y-141039832D01*
X138532562Y-141022562D01*
X138549832Y-141006910D01*
X138568552Y-140993026D01*
X138588543Y-140981044D01*
X138609613Y-140971079D01*
X138631557Y-140963227D01*
X138654166Y-140957563D01*
X138677221Y-140954144D01*
X138700500Y-140953000D01*
X139175500Y-140953000D01*
X139198779Y-140954144D01*
X139198779Y-140954144D01*
G37*
D12*
X138938000Y-141478000D03*
G04 #@! TD*
D11*
G04 #@! TO.C,R17*
G36*
X136531779Y-139204144D02*
X136554834Y-139207563D01*
X136577443Y-139213227D01*
X136599387Y-139221079D01*
X136620457Y-139231044D01*
X136640448Y-139243026D01*
X136659168Y-139256910D01*
X136676438Y-139272562D01*
X136692090Y-139289832D01*
X136705974Y-139308552D01*
X136717956Y-139328543D01*
X136727921Y-139349613D01*
X136735773Y-139371557D01*
X136741437Y-139394166D01*
X136744856Y-139417221D01*
X136746000Y-139440500D01*
X136746000Y-140015500D01*
X136744856Y-140038779D01*
X136741437Y-140061834D01*
X136735773Y-140084443D01*
X136727921Y-140106387D01*
X136717956Y-140127457D01*
X136705974Y-140147448D01*
X136692090Y-140166168D01*
X136676438Y-140183438D01*
X136659168Y-140199090D01*
X136640448Y-140212974D01*
X136620457Y-140224956D01*
X136599387Y-140234921D01*
X136577443Y-140242773D01*
X136554834Y-140248437D01*
X136531779Y-140251856D01*
X136508500Y-140253000D01*
X136033500Y-140253000D01*
X136010221Y-140251856D01*
X135987166Y-140248437D01*
X135964557Y-140242773D01*
X135942613Y-140234921D01*
X135921543Y-140224956D01*
X135901552Y-140212974D01*
X135882832Y-140199090D01*
X135865562Y-140183438D01*
X135849910Y-140166168D01*
X135836026Y-140147448D01*
X135824044Y-140127457D01*
X135814079Y-140106387D01*
X135806227Y-140084443D01*
X135800563Y-140061834D01*
X135797144Y-140038779D01*
X135796000Y-140015500D01*
X135796000Y-139440500D01*
X135797144Y-139417221D01*
X135800563Y-139394166D01*
X135806227Y-139371557D01*
X135814079Y-139349613D01*
X135824044Y-139328543D01*
X135836026Y-139308552D01*
X135849910Y-139289832D01*
X135865562Y-139272562D01*
X135882832Y-139256910D01*
X135901552Y-139243026D01*
X135921543Y-139231044D01*
X135942613Y-139221079D01*
X135964557Y-139213227D01*
X135987166Y-139207563D01*
X136010221Y-139204144D01*
X136033500Y-139203000D01*
X136508500Y-139203000D01*
X136531779Y-139204144D01*
X136531779Y-139204144D01*
G37*
D12*
X136271000Y-139728000D03*
D11*
G36*
X136531779Y-140954144D02*
X136554834Y-140957563D01*
X136577443Y-140963227D01*
X136599387Y-140971079D01*
X136620457Y-140981044D01*
X136640448Y-140993026D01*
X136659168Y-141006910D01*
X136676438Y-141022562D01*
X136692090Y-141039832D01*
X136705974Y-141058552D01*
X136717956Y-141078543D01*
X136727921Y-141099613D01*
X136735773Y-141121557D01*
X136741437Y-141144166D01*
X136744856Y-141167221D01*
X136746000Y-141190500D01*
X136746000Y-141765500D01*
X136744856Y-141788779D01*
X136741437Y-141811834D01*
X136735773Y-141834443D01*
X136727921Y-141856387D01*
X136717956Y-141877457D01*
X136705974Y-141897448D01*
X136692090Y-141916168D01*
X136676438Y-141933438D01*
X136659168Y-141949090D01*
X136640448Y-141962974D01*
X136620457Y-141974956D01*
X136599387Y-141984921D01*
X136577443Y-141992773D01*
X136554834Y-141998437D01*
X136531779Y-142001856D01*
X136508500Y-142003000D01*
X136033500Y-142003000D01*
X136010221Y-142001856D01*
X135987166Y-141998437D01*
X135964557Y-141992773D01*
X135942613Y-141984921D01*
X135921543Y-141974956D01*
X135901552Y-141962974D01*
X135882832Y-141949090D01*
X135865562Y-141933438D01*
X135849910Y-141916168D01*
X135836026Y-141897448D01*
X135824044Y-141877457D01*
X135814079Y-141856387D01*
X135806227Y-141834443D01*
X135800563Y-141811834D01*
X135797144Y-141788779D01*
X135796000Y-141765500D01*
X135796000Y-141190500D01*
X135797144Y-141167221D01*
X135800563Y-141144166D01*
X135806227Y-141121557D01*
X135814079Y-141099613D01*
X135824044Y-141078543D01*
X135836026Y-141058552D01*
X135849910Y-141039832D01*
X135865562Y-141022562D01*
X135882832Y-141006910D01*
X135901552Y-140993026D01*
X135921543Y-140981044D01*
X135942613Y-140971079D01*
X135964557Y-140963227D01*
X135987166Y-140957563D01*
X136010221Y-140954144D01*
X136033500Y-140953000D01*
X136508500Y-140953000D01*
X136531779Y-140954144D01*
X136531779Y-140954144D01*
G37*
D12*
X136271000Y-141478000D03*
G04 #@! TD*
D13*
G04 #@! TO.C,U2*
X108552000Y-122936000D03*
X108552000Y-124206000D03*
X108552000Y-125476000D03*
X108552000Y-126746000D03*
X113952000Y-126746000D03*
X113952000Y-125476000D03*
X113952000Y-124206000D03*
X113952000Y-122936000D03*
G04 #@! TD*
D11*
G04 #@! TO.C,R18*
G36*
X117150779Y-118398144D02*
X117173834Y-118401563D01*
X117196443Y-118407227D01*
X117218387Y-118415079D01*
X117239457Y-118425044D01*
X117259448Y-118437026D01*
X117278168Y-118450910D01*
X117295438Y-118466562D01*
X117311090Y-118483832D01*
X117324974Y-118502552D01*
X117336956Y-118522543D01*
X117346921Y-118543613D01*
X117354773Y-118565557D01*
X117360437Y-118588166D01*
X117363856Y-118611221D01*
X117365000Y-118634500D01*
X117365000Y-119109500D01*
X117363856Y-119132779D01*
X117360437Y-119155834D01*
X117354773Y-119178443D01*
X117346921Y-119200387D01*
X117336956Y-119221457D01*
X117324974Y-119241448D01*
X117311090Y-119260168D01*
X117295438Y-119277438D01*
X117278168Y-119293090D01*
X117259448Y-119306974D01*
X117239457Y-119318956D01*
X117218387Y-119328921D01*
X117196443Y-119336773D01*
X117173834Y-119342437D01*
X117150779Y-119345856D01*
X117127500Y-119347000D01*
X116552500Y-119347000D01*
X116529221Y-119345856D01*
X116506166Y-119342437D01*
X116483557Y-119336773D01*
X116461613Y-119328921D01*
X116440543Y-119318956D01*
X116420552Y-119306974D01*
X116401832Y-119293090D01*
X116384562Y-119277438D01*
X116368910Y-119260168D01*
X116355026Y-119241448D01*
X116343044Y-119221457D01*
X116333079Y-119200387D01*
X116325227Y-119178443D01*
X116319563Y-119155834D01*
X116316144Y-119132779D01*
X116315000Y-119109500D01*
X116315000Y-118634500D01*
X116316144Y-118611221D01*
X116319563Y-118588166D01*
X116325227Y-118565557D01*
X116333079Y-118543613D01*
X116343044Y-118522543D01*
X116355026Y-118502552D01*
X116368910Y-118483832D01*
X116384562Y-118466562D01*
X116401832Y-118450910D01*
X116420552Y-118437026D01*
X116440543Y-118425044D01*
X116461613Y-118415079D01*
X116483557Y-118407227D01*
X116506166Y-118401563D01*
X116529221Y-118398144D01*
X116552500Y-118397000D01*
X117127500Y-118397000D01*
X117150779Y-118398144D01*
X117150779Y-118398144D01*
G37*
D12*
X116840000Y-118872000D03*
D11*
G36*
X115400779Y-118398144D02*
X115423834Y-118401563D01*
X115446443Y-118407227D01*
X115468387Y-118415079D01*
X115489457Y-118425044D01*
X115509448Y-118437026D01*
X115528168Y-118450910D01*
X115545438Y-118466562D01*
X115561090Y-118483832D01*
X115574974Y-118502552D01*
X115586956Y-118522543D01*
X115596921Y-118543613D01*
X115604773Y-118565557D01*
X115610437Y-118588166D01*
X115613856Y-118611221D01*
X115615000Y-118634500D01*
X115615000Y-119109500D01*
X115613856Y-119132779D01*
X115610437Y-119155834D01*
X115604773Y-119178443D01*
X115596921Y-119200387D01*
X115586956Y-119221457D01*
X115574974Y-119241448D01*
X115561090Y-119260168D01*
X115545438Y-119277438D01*
X115528168Y-119293090D01*
X115509448Y-119306974D01*
X115489457Y-119318956D01*
X115468387Y-119328921D01*
X115446443Y-119336773D01*
X115423834Y-119342437D01*
X115400779Y-119345856D01*
X115377500Y-119347000D01*
X114802500Y-119347000D01*
X114779221Y-119345856D01*
X114756166Y-119342437D01*
X114733557Y-119336773D01*
X114711613Y-119328921D01*
X114690543Y-119318956D01*
X114670552Y-119306974D01*
X114651832Y-119293090D01*
X114634562Y-119277438D01*
X114618910Y-119260168D01*
X114605026Y-119241448D01*
X114593044Y-119221457D01*
X114583079Y-119200387D01*
X114575227Y-119178443D01*
X114569563Y-119155834D01*
X114566144Y-119132779D01*
X114565000Y-119109500D01*
X114565000Y-118634500D01*
X114566144Y-118611221D01*
X114569563Y-118588166D01*
X114575227Y-118565557D01*
X114583079Y-118543613D01*
X114593044Y-118522543D01*
X114605026Y-118502552D01*
X114618910Y-118483832D01*
X114634562Y-118466562D01*
X114651832Y-118450910D01*
X114670552Y-118437026D01*
X114690543Y-118425044D01*
X114711613Y-118415079D01*
X114733557Y-118407227D01*
X114756166Y-118401563D01*
X114779221Y-118398144D01*
X114802500Y-118397000D01*
X115377500Y-118397000D01*
X115400779Y-118398144D01*
X115400779Y-118398144D01*
G37*
D12*
X115090000Y-118872000D03*
G04 #@! TD*
M02*
