G04 #@! TF.GenerationSoftware,KiCad,Pcbnew,(5.0.2)-1*
G04 #@! TF.CreationDate,2019-03-05T00:17:48-06:00*
G04 #@! TF.ProjectId,ODriveInterfacingBoard,4f447269-7665-4496-9e74-657266616369,rev?*
G04 #@! TF.SameCoordinates,Original*
G04 #@! TF.FileFunction,Legend,Bot*
G04 #@! TF.FilePolarity,Positive*
%FSLAX46Y46*%
G04 Gerber Fmt 4.6, Leading zero omitted, Abs format (unit mm)*
G04 Created by KiCad (PCBNEW (5.0.2)-1) date 3/5/2019 12:17:48 AM*
%MOMM*%
%LPD*%
G01*
G04 APERTURE LIST*
%ADD10C,0.300000*%
G04 APERTURE END LIST*
D10*
X88388000Y-58316857D02*
X88388000Y-59031142D01*
X88816571Y-58174000D02*
X87316571Y-58674000D01*
X88816571Y-59174000D01*
X98262285Y-58674000D02*
X98976571Y-58674000D01*
X97476571Y-58174000D02*
X98262285Y-58674000D01*
X97476571Y-59174000D01*
X90570857Y-58781142D02*
X90642285Y-58995428D01*
X90713714Y-59066857D01*
X90856571Y-59138285D01*
X91070857Y-59138285D01*
X91213714Y-59066857D01*
X91285142Y-58995428D01*
X91356571Y-58852571D01*
X91356571Y-58281142D01*
X89856571Y-58281142D01*
X89856571Y-58781142D01*
X89928000Y-58924000D01*
X89999428Y-58995428D01*
X90142285Y-59066857D01*
X90285142Y-59066857D01*
X90428000Y-58995428D01*
X90499428Y-58924000D01*
X90570857Y-58781142D01*
X90570857Y-58281142D01*
X94936571Y-58174000D02*
X94936571Y-59174000D01*
X96436571Y-58174000D01*
X96436571Y-59174000D01*
X93325142Y-58102571D02*
X93325142Y-59245428D01*
X81704571Y-58785142D02*
X80990285Y-58285142D01*
X81704571Y-57928000D02*
X80204571Y-57928000D01*
X80204571Y-58499428D01*
X80276000Y-58642285D01*
X80347428Y-58713714D01*
X80490285Y-58785142D01*
X80704571Y-58785142D01*
X80847428Y-58713714D01*
X80918857Y-58642285D01*
X80990285Y-58499428D01*
X80990285Y-57928000D01*
X81704571Y-59285142D02*
X80704571Y-60070857D01*
X80704571Y-59285142D02*
X81704571Y-60070857D01*
X78593142Y-58356571D02*
X78593142Y-59499428D01*
X75124571Y-57892285D02*
X75124571Y-58749428D01*
X76624571Y-58320857D02*
X75124571Y-58320857D01*
X76624571Y-59106571D02*
X75624571Y-59892285D01*
X75624571Y-59106571D02*
X76624571Y-59892285D01*
M02*
