M48
;DRILL file {KiCad (5.0.2)-1} date 3/5/2019 12:17:50 AM
;FORMAT={-:-/ absolute / inch / decimal}
FMAT,2
INCH,TZ
T1C0.0157
T2C0.0300
T3C0.0354
T4C0.1339
T5C0.1598
%
G90
G05
T1
X1.46Y-2.25
X1.5Y-2.
X1.5Y-3.
X1.5Y-3.3
X1.5Y-3.6
X1.5Y-4.3
X1.5Y-4.6
X1.5Y-4.9
X1.5Y-5.2
X1.5Y-5.5
X1.56Y-2.66
X1.6Y-2.25
X1.7Y-5.9
X1.7Y-6.3
X1.7Y-6.7
X1.8Y-4.6
X1.8Y-4.9
X1.8Y-5.2
X1.8Y-5.5
X1.97Y-2.1
X1.98Y-2.56
X1.99Y-2.42
X2.1Y-4.9
X2.1Y-5.2
X2.1Y-5.5
X2.1Y-5.9
X2.1Y-6.7
X2.35Y-5.49
X2.4Y-4.9
X2.4Y-5.2
X2.46Y-5.49
X2.5Y-5.9
X2.5Y-6.7
X2.7Y-4.9
X2.7Y-5.2
X2.7Y-5.5
X2.9Y-5.9
X2.9Y-6.3
X2.9Y-6.7
X2.95Y-5.49
X3.Y-4.9
X3.Y-5.2
X3.05Y-2.67
X3.06Y-5.49
X3.105Y-2.635
X3.16Y-5.49
X3.3Y-5.5
X3.3Y-5.9
X3.3Y-6.7
X3.4Y-3.1
X3.4Y-3.7
X3.4Y-4.
X3.4Y-4.9
X3.4Y-5.2
X3.65Y-2.1
X3.7Y-3.1
X3.7Y-3.4
X3.7Y-3.7
X3.7Y-4.9
X3.7Y-5.2
X3.7Y-5.5
X3.7Y-5.9
X3.7Y-6.7
X3.99Y-5.25
X4.09Y-5.25
X4.1Y-5.3
X4.1Y-5.5
X4.1Y-5.9
X4.1Y-6.7
X4.14Y-4.84
X4.14Y-5.115
X4.14Y-5.35
X4.5Y-3.3
X4.5Y-3.6
X4.5Y-5.5
X4.5Y-5.9
X4.5Y-6.7
X4.82Y-5.53
X4.9Y-5.9
X4.9Y-6.3
X4.9Y-6.7
X4.92Y-5.53
X4.98Y-3.11
X4.98Y-3.39
X5.02Y-5.53
X5.1Y-4.6
X5.1Y-4.8
X5.12Y-5.53
X5.22Y-5.53
X5.3Y-5.9
X5.3Y-6.7
X5.365Y-5.3
X5.4Y-4.6
X5.4Y-4.8
X5.47Y-5.25
X5.49Y-2.715
X5.53Y-2.195
X5.55Y-2.355
X5.55Y-2.6
X5.635Y-2.635
X5.64Y-3.04
X5.7Y-4.6
X5.7Y-4.8
X5.7Y-5.9
X5.7Y-6.3
X5.7Y-6.7
X5.715Y-2.345
X5.77Y-2.64
X5.775Y-2.34
X5.83Y-2.645
X5.845Y-2.345
X5.98Y-2.28
X5.985Y-2.335
X6.Y-4.6
X6.Y-4.8
X6.1Y-4.2
X6.1Y-5.8
X6.1Y-5.9
X6.1Y-6.7
X6.235Y-2.285
X6.3Y-4.
X6.4Y-5.1
X6.4Y-5.8
X6.47Y-5.35
X6.6Y-4.9
X6.6Y-5.2
X6.7Y-5.5
X6.7Y-5.8
X6.9Y-2.6
X6.9Y-3.
X6.9Y-3.3
X6.9Y-3.6
X6.9Y-4.9
X6.9Y-5.2
X7.Y-4.
X7.Y-4.3
X7.Y-4.6
X7.Y-4.9
X7.Y-5.2
X7.Y-5.5
X7.Y-5.8
T2
X3.19Y-2.42
T3
X2.99Y-2.42
X3.09Y-2.42
X3.47Y-2.42
X3.57Y-2.42
X3.67Y-2.42
X3.77Y-2.42
X3.87Y-2.42
X2.2051Y-5.6985
X2.3051Y-5.6985
X2.4051Y-5.6985
X2.5051Y-5.6985
X2.6051Y-5.6985
X2.7051Y-5.6985
X2.8051Y-5.6985
X2.9051Y-5.6985
X3.0051Y-5.6985
X3.1051Y-5.6985
X3.2051Y-5.6985
X3.3051Y-5.6985
X4.5665Y-5.6985
X4.6665Y-5.6985
X4.7665Y-5.6985
X4.8665Y-5.6985
X4.9665Y-5.6985
X5.0665Y-5.6985
X5.1665Y-5.6985
X5.2665Y-5.6985
X5.3665Y-5.6985
X5.4665Y-5.6985
X5.5665Y-5.6985
X5.6665Y-5.6985
X5.7665Y-5.6985
X5.8665Y-5.6985
X5.9665Y-5.6985
X6.0665Y-5.6985
X6.1665Y-5.6985
X6.2665Y-5.6985
X6.3665Y-5.6985
X6.4665Y-5.6985
T4
X2.1043Y-3.9571
X2.4783Y-3.9571
X2.8523Y-3.9571
X3.8759Y-3.9571
X4.3287Y-3.9571
X5.1948Y-3.9571
X5.5688Y-3.9571
X5.9429Y-3.9571
X6.7696Y-4.3115
X6.7696Y-4.7248
T5
X6.03Y-2.62
X6.34Y-2.62
X6.34Y-2.975
X6.34Y-3.285
X6.34Y-3.595
X2.1Y-2.985
X2.1Y-3.295
X2.1Y-3.605
T2
X2.7565Y-2.813G85X2.7965Y-2.813
G05
X2.7565Y-2.947G85X2.7965Y-2.947
G05
X5.6635Y-2.813G85X5.7035Y-2.813
G05
X5.6635Y-2.947G85X5.7035Y-2.947
G05
T0
M30
