G04 #@! TF.GenerationSoftware,KiCad,Pcbnew,(5.1.2)-1*
G04 #@! TF.CreationDate,2020-03-03T11:05:45-06:00*
G04 #@! TF.ProjectId,ODriveInterfacingBoard,4f447269-7665-4496-9e74-657266616369,rev?*
G04 #@! TF.SameCoordinates,Original*
G04 #@! TF.FileFunction,Soldermask,Top*
G04 #@! TF.FilePolarity,Negative*
%FSLAX46Y46*%
G04 Gerber Fmt 4.6, Leading zero omitted, Abs format (unit mm)*
G04 Created by KiCad (PCBNEW (5.1.2)-1) date 2020-03-03 11:05:45*
%MOMM*%
%LPD*%
G04 APERTURE LIST*
%ADD10C,0.100000*%
G04 APERTURE END LIST*
D10*
G36*
X131879501Y-116512976D02*
G01*
X132084718Y-116597980D01*
X132229829Y-116658087D01*
X132545116Y-116868755D01*
X132813245Y-117136884D01*
X133023913Y-117452171D01*
X133029641Y-117466000D01*
X133169024Y-117802499D01*
X133243000Y-118174403D01*
X133243000Y-118553597D01*
X133169024Y-118925501D01*
X133167018Y-118930343D01*
X133023913Y-119275829D01*
X132813245Y-119591116D01*
X132545116Y-119859245D01*
X132229829Y-120069913D01*
X132084718Y-120130020D01*
X131879501Y-120215024D01*
X131507597Y-120289000D01*
X131128403Y-120289000D01*
X130756499Y-120215024D01*
X130551282Y-120130020D01*
X130406171Y-120069913D01*
X130090884Y-119859245D01*
X129822755Y-119591116D01*
X129612087Y-119275829D01*
X129468982Y-118930343D01*
X129466976Y-118925501D01*
X129393000Y-118553597D01*
X129393000Y-118174403D01*
X129466976Y-117802499D01*
X129606359Y-117466000D01*
X129612087Y-117452171D01*
X129822755Y-117136884D01*
X130090884Y-116868755D01*
X130406171Y-116658087D01*
X130551282Y-116597980D01*
X130756499Y-116512976D01*
X131128403Y-116439000D01*
X131507597Y-116439000D01*
X131879501Y-116512976D01*
X131879501Y-116512976D01*
G37*
G36*
X208511301Y-116512976D02*
G01*
X208716518Y-116597980D01*
X208861629Y-116658087D01*
X209176916Y-116868755D01*
X209445045Y-117136884D01*
X209655713Y-117452171D01*
X209661441Y-117466000D01*
X209800824Y-117802499D01*
X209874800Y-118174403D01*
X209874800Y-118553597D01*
X209800824Y-118925501D01*
X209798818Y-118930343D01*
X209655713Y-119275829D01*
X209445045Y-119591116D01*
X209176916Y-119859245D01*
X208861629Y-120069913D01*
X208716518Y-120130020D01*
X208511301Y-120215024D01*
X208139397Y-120289000D01*
X207760203Y-120289000D01*
X207388299Y-120215024D01*
X207183082Y-120130020D01*
X207037971Y-120069913D01*
X206722684Y-119859245D01*
X206454555Y-119591116D01*
X206243887Y-119275829D01*
X206100782Y-118930343D01*
X206098776Y-118925501D01*
X206024800Y-118553597D01*
X206024800Y-118174403D01*
X206098776Y-117802499D01*
X206238159Y-117466000D01*
X206243887Y-117452171D01*
X206454555Y-117136884D01*
X206722684Y-116868755D01*
X207037971Y-116658087D01*
X207183082Y-116597980D01*
X207388299Y-116512976D01*
X207760203Y-116439000D01*
X208139397Y-116439000D01*
X208511301Y-116512976D01*
X208511301Y-116512976D01*
G37*
G36*
X80698501Y-116512976D02*
G01*
X80903718Y-116597980D01*
X81048829Y-116658087D01*
X81364116Y-116868755D01*
X81632245Y-117136884D01*
X81842913Y-117452171D01*
X81848641Y-117466000D01*
X81988024Y-117802499D01*
X82062000Y-118174403D01*
X82062000Y-118553597D01*
X81988024Y-118925501D01*
X81986018Y-118930343D01*
X81842913Y-119275829D01*
X81632245Y-119591116D01*
X81364116Y-119859245D01*
X81048829Y-120069913D01*
X80903718Y-120130020D01*
X80698501Y-120215024D01*
X80326597Y-120289000D01*
X79947403Y-120289000D01*
X79575499Y-120215024D01*
X79370282Y-120130020D01*
X79225171Y-120069913D01*
X78909884Y-119859245D01*
X78641755Y-119591116D01*
X78431087Y-119275829D01*
X78287982Y-118930343D01*
X78285976Y-118925501D01*
X78212000Y-118553597D01*
X78212000Y-118174403D01*
X78285976Y-117802499D01*
X78425359Y-117466000D01*
X78431087Y-117452171D01*
X78641755Y-117136884D01*
X78909884Y-116868755D01*
X79225171Y-116658087D01*
X79370282Y-116597980D01*
X79575499Y-116512976D01*
X79947403Y-116439000D01*
X80326597Y-116439000D01*
X80698501Y-116512976D01*
X80698501Y-116512976D01*
G37*
G36*
X67998501Y-116512976D02*
G01*
X68203718Y-116597980D01*
X68348829Y-116658087D01*
X68664116Y-116868755D01*
X68932245Y-117136884D01*
X69142913Y-117452171D01*
X69148641Y-117466000D01*
X69288024Y-117802499D01*
X69362000Y-118174403D01*
X69362000Y-118553597D01*
X69288024Y-118925501D01*
X69286018Y-118930343D01*
X69142913Y-119275829D01*
X68932245Y-119591116D01*
X68664116Y-119859245D01*
X68348829Y-120069913D01*
X68203718Y-120130020D01*
X67998501Y-120215024D01*
X67626597Y-120289000D01*
X67247403Y-120289000D01*
X66875499Y-120215024D01*
X66670282Y-120130020D01*
X66525171Y-120069913D01*
X66209884Y-119859245D01*
X65941755Y-119591116D01*
X65731087Y-119275829D01*
X65587982Y-118930343D01*
X65585976Y-118925501D01*
X65512000Y-118553597D01*
X65512000Y-118174403D01*
X65585976Y-117802499D01*
X65725359Y-117466000D01*
X65731087Y-117452171D01*
X65941755Y-117136884D01*
X66209884Y-116868755D01*
X66525171Y-116658087D01*
X66670282Y-116597980D01*
X66875499Y-116512976D01*
X67247403Y-116439000D01*
X67626597Y-116439000D01*
X67998501Y-116512976D01*
X67998501Y-116512976D01*
G37*
G36*
X139499501Y-116512976D02*
G01*
X139704718Y-116597980D01*
X139849829Y-116658087D01*
X140165116Y-116868755D01*
X140433245Y-117136884D01*
X140643913Y-117452171D01*
X140649641Y-117466000D01*
X140789024Y-117802499D01*
X140863000Y-118174403D01*
X140863000Y-118553597D01*
X140789024Y-118925501D01*
X140787018Y-118930343D01*
X140643913Y-119275829D01*
X140433245Y-119591116D01*
X140165116Y-119859245D01*
X139849829Y-120069913D01*
X139704718Y-120130020D01*
X139499501Y-120215024D01*
X139127597Y-120289000D01*
X138748403Y-120289000D01*
X138376499Y-120215024D01*
X138171282Y-120130020D01*
X138026171Y-120069913D01*
X137710884Y-119859245D01*
X137442755Y-119591116D01*
X137232087Y-119275829D01*
X137088982Y-118930343D01*
X137086976Y-118925501D01*
X137013000Y-118553597D01*
X137013000Y-118174403D01*
X137086976Y-117802499D01*
X137226359Y-117466000D01*
X137232087Y-117452171D01*
X137442755Y-117136884D01*
X137710884Y-116868755D01*
X138026171Y-116658087D01*
X138171282Y-116597980D01*
X138376499Y-116512976D01*
X138748403Y-116439000D01*
X139127597Y-116439000D01*
X139499501Y-116512976D01*
X139499501Y-116512976D01*
G37*
G36*
X221211301Y-116512976D02*
G01*
X221416518Y-116597980D01*
X221561629Y-116658087D01*
X221876916Y-116868755D01*
X222145045Y-117136884D01*
X222355713Y-117452171D01*
X222361441Y-117466000D01*
X222500824Y-117802499D01*
X222574800Y-118174403D01*
X222574800Y-118553597D01*
X222500824Y-118925501D01*
X222498818Y-118930343D01*
X222355713Y-119275829D01*
X222145045Y-119591116D01*
X221876916Y-119859245D01*
X221561629Y-120069913D01*
X221416518Y-120130020D01*
X221211301Y-120215024D01*
X220839397Y-120289000D01*
X220460203Y-120289000D01*
X220088299Y-120215024D01*
X219883082Y-120130020D01*
X219737971Y-120069913D01*
X219422684Y-119859245D01*
X219154555Y-119591116D01*
X218943887Y-119275829D01*
X218800782Y-118930343D01*
X218798776Y-118925501D01*
X218724800Y-118553597D01*
X218724800Y-118174403D01*
X218798776Y-117802499D01*
X218938159Y-117466000D01*
X218943887Y-117452171D01*
X219154555Y-117136884D01*
X219422684Y-116868755D01*
X219737971Y-116658087D01*
X219883082Y-116597980D01*
X220088299Y-116512976D01*
X220460203Y-116439000D01*
X220839397Y-116439000D01*
X221211301Y-116512976D01*
X221211301Y-116512976D01*
G37*
G36*
X124913530Y-117771877D02*
G01*
X124965010Y-117787493D01*
X125012445Y-117812848D01*
X125054027Y-117846973D01*
X125088152Y-117888555D01*
X125113507Y-117935990D01*
X125129123Y-117987470D01*
X125135000Y-118047140D01*
X125135000Y-118934860D01*
X125129123Y-118994530D01*
X125113507Y-119046010D01*
X125088152Y-119093445D01*
X125054027Y-119135027D01*
X125012445Y-119169152D01*
X124965010Y-119194507D01*
X124913530Y-119210123D01*
X124853860Y-119216000D01*
X124066140Y-119216000D01*
X124006470Y-119210123D01*
X123954990Y-119194507D01*
X123907555Y-119169152D01*
X123865973Y-119135027D01*
X123831848Y-119093445D01*
X123806493Y-119046010D01*
X123790877Y-118994530D01*
X123785000Y-118934860D01*
X123785000Y-118047140D01*
X123790877Y-117987470D01*
X123806493Y-117935990D01*
X123831848Y-117888555D01*
X123865973Y-117846973D01*
X123907555Y-117812848D01*
X123954990Y-117787493D01*
X124006470Y-117771877D01*
X124066140Y-117766000D01*
X124853860Y-117766000D01*
X124913530Y-117771877D01*
X124913530Y-117771877D01*
G37*
G36*
X120214530Y-117771877D02*
G01*
X120266010Y-117787493D01*
X120313445Y-117812848D01*
X120355027Y-117846973D01*
X120389152Y-117888555D01*
X120414507Y-117935990D01*
X120430123Y-117987470D01*
X120436000Y-118047140D01*
X120436000Y-118934860D01*
X120430123Y-118994530D01*
X120414507Y-119046010D01*
X120389152Y-119093445D01*
X120355027Y-119135027D01*
X120313445Y-119169152D01*
X120266010Y-119194507D01*
X120214530Y-119210123D01*
X120154860Y-119216000D01*
X119367140Y-119216000D01*
X119307470Y-119210123D01*
X119255990Y-119194507D01*
X119208555Y-119169152D01*
X119166973Y-119135027D01*
X119132848Y-119093445D01*
X119107493Y-119046010D01*
X119091877Y-118994530D01*
X119086000Y-118934860D01*
X119086000Y-118047140D01*
X119091877Y-117987470D01*
X119107493Y-117935990D01*
X119132848Y-117888555D01*
X119166973Y-117846973D01*
X119208555Y-117812848D01*
X119255990Y-117787493D01*
X119307470Y-117771877D01*
X119367140Y-117766000D01*
X120154860Y-117766000D01*
X120214530Y-117771877D01*
X120214530Y-117771877D01*
G37*
G36*
X168601530Y-117757877D02*
G01*
X168653010Y-117773493D01*
X168700445Y-117798848D01*
X168742027Y-117832973D01*
X168776152Y-117874555D01*
X168801507Y-117921990D01*
X168817123Y-117973470D01*
X168823000Y-118033140D01*
X168823000Y-118920860D01*
X168817123Y-118980530D01*
X168801507Y-119032010D01*
X168776152Y-119079445D01*
X168742027Y-119121027D01*
X168700445Y-119155152D01*
X168653010Y-119180507D01*
X168601530Y-119196123D01*
X168541860Y-119202000D01*
X167754140Y-119202000D01*
X167694470Y-119196123D01*
X167642990Y-119180507D01*
X167595555Y-119155152D01*
X167553973Y-119121027D01*
X167519848Y-119079445D01*
X167494493Y-119032010D01*
X167478877Y-118980530D01*
X167473000Y-118920860D01*
X167473000Y-118033140D01*
X167478877Y-117973470D01*
X167494493Y-117921990D01*
X167519848Y-117874555D01*
X167553973Y-117832973D01*
X167595555Y-117798848D01*
X167642990Y-117773493D01*
X167694470Y-117757877D01*
X167754140Y-117752000D01*
X168541860Y-117752000D01*
X168601530Y-117757877D01*
X168601530Y-117757877D01*
G37*
G36*
X170379530Y-117757877D02*
G01*
X170431010Y-117773493D01*
X170478445Y-117798848D01*
X170520027Y-117832973D01*
X170554152Y-117874555D01*
X170579507Y-117921990D01*
X170595123Y-117973470D01*
X170601000Y-118033140D01*
X170601000Y-118920860D01*
X170595123Y-118980530D01*
X170579507Y-119032010D01*
X170554152Y-119079445D01*
X170520027Y-119121027D01*
X170478445Y-119155152D01*
X170431010Y-119180507D01*
X170379530Y-119196123D01*
X170319860Y-119202000D01*
X169532140Y-119202000D01*
X169472470Y-119196123D01*
X169420990Y-119180507D01*
X169373555Y-119155152D01*
X169331973Y-119121027D01*
X169297848Y-119079445D01*
X169272493Y-119032010D01*
X169256877Y-118980530D01*
X169251000Y-118920860D01*
X169251000Y-118033140D01*
X169256877Y-117973470D01*
X169272493Y-117921990D01*
X169297848Y-117874555D01*
X169331973Y-117832973D01*
X169373555Y-117798848D01*
X169420990Y-117773493D01*
X169472470Y-117757877D01*
X169532140Y-117752000D01*
X170319860Y-117752000D01*
X170379530Y-117757877D01*
X170379530Y-117757877D01*
G37*
G36*
X112086530Y-117757877D02*
G01*
X112138010Y-117773493D01*
X112185445Y-117798848D01*
X112227027Y-117832973D01*
X112261152Y-117874555D01*
X112286507Y-117921990D01*
X112302123Y-117973470D01*
X112308000Y-118033140D01*
X112308000Y-118920860D01*
X112302123Y-118980530D01*
X112286507Y-119032010D01*
X112261152Y-119079445D01*
X112227027Y-119121027D01*
X112185445Y-119155152D01*
X112138010Y-119180507D01*
X112086530Y-119196123D01*
X112026860Y-119202000D01*
X111239140Y-119202000D01*
X111179470Y-119196123D01*
X111127990Y-119180507D01*
X111080555Y-119155152D01*
X111038973Y-119121027D01*
X111004848Y-119079445D01*
X110979493Y-119032010D01*
X110963877Y-118980530D01*
X110958000Y-118920860D01*
X110958000Y-118033140D01*
X110963877Y-117973470D01*
X110979493Y-117921990D01*
X111004848Y-117874555D01*
X111038973Y-117832973D01*
X111080555Y-117798848D01*
X111127990Y-117773493D01*
X111179470Y-117757877D01*
X111239140Y-117752000D01*
X112026860Y-117752000D01*
X112086530Y-117757877D01*
X112086530Y-117757877D01*
G37*
G36*
X164029530Y-117757877D02*
G01*
X164081010Y-117773493D01*
X164128445Y-117798848D01*
X164170027Y-117832973D01*
X164204152Y-117874555D01*
X164229507Y-117921990D01*
X164245123Y-117973470D01*
X164251000Y-118033140D01*
X164251000Y-118920860D01*
X164245123Y-118980530D01*
X164229507Y-119032010D01*
X164204152Y-119079445D01*
X164170027Y-119121027D01*
X164128445Y-119155152D01*
X164081010Y-119180507D01*
X164029530Y-119196123D01*
X163969860Y-119202000D01*
X163182140Y-119202000D01*
X163122470Y-119196123D01*
X163070990Y-119180507D01*
X163023555Y-119155152D01*
X162981973Y-119121027D01*
X162947848Y-119079445D01*
X162922493Y-119032010D01*
X162906877Y-118980530D01*
X162901000Y-118920860D01*
X162901000Y-118033140D01*
X162906877Y-117973470D01*
X162922493Y-117921990D01*
X162947848Y-117874555D01*
X162981973Y-117832973D01*
X163023555Y-117798848D01*
X163070990Y-117773493D01*
X163122470Y-117757877D01*
X163182140Y-117752000D01*
X163969860Y-117752000D01*
X164029530Y-117757877D01*
X164029530Y-117757877D01*
G37*
G36*
X162251530Y-117757877D02*
G01*
X162303010Y-117773493D01*
X162350445Y-117798848D01*
X162392027Y-117832973D01*
X162426152Y-117874555D01*
X162451507Y-117921990D01*
X162467123Y-117973470D01*
X162473000Y-118033140D01*
X162473000Y-118920860D01*
X162467123Y-118980530D01*
X162451507Y-119032010D01*
X162426152Y-119079445D01*
X162392027Y-119121027D01*
X162350445Y-119155152D01*
X162303010Y-119180507D01*
X162251530Y-119196123D01*
X162191860Y-119202000D01*
X161404140Y-119202000D01*
X161344470Y-119196123D01*
X161292990Y-119180507D01*
X161245555Y-119155152D01*
X161203973Y-119121027D01*
X161169848Y-119079445D01*
X161144493Y-119032010D01*
X161128877Y-118980530D01*
X161123000Y-118920860D01*
X161123000Y-118033140D01*
X161128877Y-117973470D01*
X161144493Y-117921990D01*
X161169848Y-117874555D01*
X161203973Y-117832973D01*
X161245555Y-117798848D01*
X161292990Y-117773493D01*
X161344470Y-117757877D01*
X161404140Y-117752000D01*
X162191860Y-117752000D01*
X162251530Y-117757877D01*
X162251530Y-117757877D01*
G37*
G36*
X145233530Y-117757877D02*
G01*
X145285010Y-117773493D01*
X145332445Y-117798848D01*
X145374027Y-117832973D01*
X145408152Y-117874555D01*
X145433507Y-117921990D01*
X145449123Y-117973470D01*
X145455000Y-118033140D01*
X145455000Y-118920860D01*
X145449123Y-118980530D01*
X145433507Y-119032010D01*
X145408152Y-119079445D01*
X145374027Y-119121027D01*
X145332445Y-119155152D01*
X145285010Y-119180507D01*
X145233530Y-119196123D01*
X145173860Y-119202000D01*
X144386140Y-119202000D01*
X144326470Y-119196123D01*
X144274990Y-119180507D01*
X144227555Y-119155152D01*
X144185973Y-119121027D01*
X144151848Y-119079445D01*
X144126493Y-119032010D01*
X144110877Y-118980530D01*
X144105000Y-118920860D01*
X144105000Y-118033140D01*
X144110877Y-117973470D01*
X144126493Y-117921990D01*
X144151848Y-117874555D01*
X144185973Y-117832973D01*
X144227555Y-117798848D01*
X144274990Y-117773493D01*
X144326470Y-117757877D01*
X144386140Y-117752000D01*
X145173860Y-117752000D01*
X145233530Y-117757877D01*
X145233530Y-117757877D01*
G37*
G36*
X175078530Y-117757877D02*
G01*
X175130010Y-117773493D01*
X175177445Y-117798848D01*
X175219027Y-117832973D01*
X175253152Y-117874555D01*
X175278507Y-117921990D01*
X175294123Y-117973470D01*
X175300000Y-118033140D01*
X175300000Y-118920860D01*
X175294123Y-118980530D01*
X175278507Y-119032010D01*
X175253152Y-119079445D01*
X175219027Y-119121027D01*
X175177445Y-119155152D01*
X175130010Y-119180507D01*
X175078530Y-119196123D01*
X175018860Y-119202000D01*
X174231140Y-119202000D01*
X174171470Y-119196123D01*
X174119990Y-119180507D01*
X174072555Y-119155152D01*
X174030973Y-119121027D01*
X173996848Y-119079445D01*
X173971493Y-119032010D01*
X173955877Y-118980530D01*
X173950000Y-118920860D01*
X173950000Y-118033140D01*
X173955877Y-117973470D01*
X173971493Y-117921990D01*
X173996848Y-117874555D01*
X174030973Y-117832973D01*
X174072555Y-117798848D01*
X174119990Y-117773493D01*
X174171470Y-117757877D01*
X174231140Y-117752000D01*
X175018860Y-117752000D01*
X175078530Y-117757877D01*
X175078530Y-117757877D01*
G37*
G36*
X126691530Y-117757877D02*
G01*
X126743010Y-117773493D01*
X126790445Y-117798848D01*
X126832027Y-117832973D01*
X126866152Y-117874555D01*
X126891507Y-117921990D01*
X126907123Y-117973470D01*
X126913000Y-118033140D01*
X126913000Y-118920860D01*
X126907123Y-118980530D01*
X126891507Y-119032010D01*
X126866152Y-119079445D01*
X126832027Y-119121027D01*
X126790445Y-119155152D01*
X126743010Y-119180507D01*
X126691530Y-119196123D01*
X126631860Y-119202000D01*
X125844140Y-119202000D01*
X125784470Y-119196123D01*
X125732990Y-119180507D01*
X125685555Y-119155152D01*
X125643973Y-119121027D01*
X125609848Y-119079445D01*
X125584493Y-119032010D01*
X125568877Y-118980530D01*
X125563000Y-118920860D01*
X125563000Y-118033140D01*
X125568877Y-117973470D01*
X125584493Y-117921990D01*
X125609848Y-117874555D01*
X125643973Y-117832973D01*
X125685555Y-117798848D01*
X125732990Y-117773493D01*
X125784470Y-117757877D01*
X125844140Y-117752000D01*
X126631860Y-117752000D01*
X126691530Y-117757877D01*
X126691530Y-117757877D01*
G37*
G36*
X148789530Y-117757877D02*
G01*
X148841010Y-117773493D01*
X148888445Y-117798848D01*
X148930027Y-117832973D01*
X148964152Y-117874555D01*
X148989507Y-117921990D01*
X149005123Y-117973470D01*
X149011000Y-118033140D01*
X149011000Y-118920860D01*
X149005123Y-118980530D01*
X148989507Y-119032010D01*
X148964152Y-119079445D01*
X148930027Y-119121027D01*
X148888445Y-119155152D01*
X148841010Y-119180507D01*
X148789530Y-119196123D01*
X148729860Y-119202000D01*
X147942140Y-119202000D01*
X147882470Y-119196123D01*
X147830990Y-119180507D01*
X147783555Y-119155152D01*
X147741973Y-119121027D01*
X147707848Y-119079445D01*
X147682493Y-119032010D01*
X147666877Y-118980530D01*
X147661000Y-118920860D01*
X147661000Y-118033140D01*
X147666877Y-117973470D01*
X147682493Y-117921990D01*
X147707848Y-117874555D01*
X147741973Y-117832973D01*
X147783555Y-117798848D01*
X147830990Y-117773493D01*
X147882470Y-117757877D01*
X147942140Y-117752000D01*
X148729860Y-117752000D01*
X148789530Y-117757877D01*
X148789530Y-117757877D01*
G37*
G36*
X143455530Y-117757877D02*
G01*
X143507010Y-117773493D01*
X143554445Y-117798848D01*
X143596027Y-117832973D01*
X143630152Y-117874555D01*
X143655507Y-117921990D01*
X143671123Y-117973470D01*
X143677000Y-118033140D01*
X143677000Y-118920860D01*
X143671123Y-118980530D01*
X143655507Y-119032010D01*
X143630152Y-119079445D01*
X143596027Y-119121027D01*
X143554445Y-119155152D01*
X143507010Y-119180507D01*
X143455530Y-119196123D01*
X143395860Y-119202000D01*
X142608140Y-119202000D01*
X142548470Y-119196123D01*
X142496990Y-119180507D01*
X142449555Y-119155152D01*
X142407973Y-119121027D01*
X142373848Y-119079445D01*
X142348493Y-119032010D01*
X142332877Y-118980530D01*
X142327000Y-118920860D01*
X142327000Y-118033140D01*
X142332877Y-117973470D01*
X142348493Y-117921990D01*
X142373848Y-117874555D01*
X142407973Y-117832973D01*
X142449555Y-117798848D01*
X142496990Y-117773493D01*
X142548470Y-117757877D01*
X142608140Y-117752000D01*
X143395860Y-117752000D01*
X143455530Y-117757877D01*
X143455530Y-117757877D01*
G37*
G36*
X176856530Y-117757877D02*
G01*
X176908010Y-117773493D01*
X176955445Y-117798848D01*
X176997027Y-117832973D01*
X177031152Y-117874555D01*
X177056507Y-117921990D01*
X177072123Y-117973470D01*
X177078000Y-118033140D01*
X177078000Y-118920860D01*
X177072123Y-118980530D01*
X177056507Y-119032010D01*
X177031152Y-119079445D01*
X176997027Y-119121027D01*
X176955445Y-119155152D01*
X176908010Y-119180507D01*
X176856530Y-119196123D01*
X176796860Y-119202000D01*
X176009140Y-119202000D01*
X175949470Y-119196123D01*
X175897990Y-119180507D01*
X175850555Y-119155152D01*
X175808973Y-119121027D01*
X175774848Y-119079445D01*
X175749493Y-119032010D01*
X175733877Y-118980530D01*
X175728000Y-118920860D01*
X175728000Y-118033140D01*
X175733877Y-117973470D01*
X175749493Y-117921990D01*
X175774848Y-117874555D01*
X175808973Y-117832973D01*
X175850555Y-117798848D01*
X175897990Y-117773493D01*
X175949470Y-117757877D01*
X176009140Y-117752000D01*
X176796860Y-117752000D01*
X176856530Y-117757877D01*
X176856530Y-117757877D01*
G37*
G36*
X118436530Y-117757877D02*
G01*
X118488010Y-117773493D01*
X118535445Y-117798848D01*
X118577027Y-117832973D01*
X118611152Y-117874555D01*
X118636507Y-117921990D01*
X118652123Y-117973470D01*
X118658000Y-118033140D01*
X118658000Y-118920860D01*
X118652123Y-118980530D01*
X118636507Y-119032010D01*
X118611152Y-119079445D01*
X118577027Y-119121027D01*
X118535445Y-119155152D01*
X118488010Y-119180507D01*
X118436530Y-119196123D01*
X118376860Y-119202000D01*
X117589140Y-119202000D01*
X117529470Y-119196123D01*
X117477990Y-119180507D01*
X117430555Y-119155152D01*
X117388973Y-119121027D01*
X117354848Y-119079445D01*
X117329493Y-119032010D01*
X117313877Y-118980530D01*
X117308000Y-118920860D01*
X117308000Y-118033140D01*
X117313877Y-117973470D01*
X117329493Y-117921990D01*
X117354848Y-117874555D01*
X117388973Y-117832973D01*
X117430555Y-117798848D01*
X117477990Y-117773493D01*
X117529470Y-117757877D01*
X117589140Y-117752000D01*
X118376860Y-117752000D01*
X118436530Y-117757877D01*
X118436530Y-117757877D01*
G37*
G36*
X147011530Y-117757877D02*
G01*
X147063010Y-117773493D01*
X147110445Y-117798848D01*
X147152027Y-117832973D01*
X147186152Y-117874555D01*
X147211507Y-117921990D01*
X147227123Y-117973470D01*
X147233000Y-118033140D01*
X147233000Y-118920860D01*
X147227123Y-118980530D01*
X147211507Y-119032010D01*
X147186152Y-119079445D01*
X147152027Y-119121027D01*
X147110445Y-119155152D01*
X147063010Y-119180507D01*
X147011530Y-119196123D01*
X146951860Y-119202000D01*
X146164140Y-119202000D01*
X146104470Y-119196123D01*
X146052990Y-119180507D01*
X146005555Y-119155152D01*
X145963973Y-119121027D01*
X145929848Y-119079445D01*
X145904493Y-119032010D01*
X145888877Y-118980530D01*
X145883000Y-118920860D01*
X145883000Y-118033140D01*
X145888877Y-117973470D01*
X145904493Y-117921990D01*
X145929848Y-117874555D01*
X145963973Y-117832973D01*
X146005555Y-117798848D01*
X146052990Y-117773493D01*
X146104470Y-117757877D01*
X146164140Y-117752000D01*
X146951860Y-117752000D01*
X147011530Y-117757877D01*
X147011530Y-117757877D01*
G37*
G36*
X113864530Y-117743877D02*
G01*
X113916010Y-117759493D01*
X113963445Y-117784848D01*
X114005027Y-117818973D01*
X114039152Y-117860555D01*
X114064507Y-117907990D01*
X114080123Y-117959470D01*
X114086000Y-118019140D01*
X114086000Y-118906860D01*
X114080123Y-118966530D01*
X114064507Y-119018010D01*
X114039152Y-119065445D01*
X114005027Y-119107027D01*
X113963445Y-119141152D01*
X113916010Y-119166507D01*
X113864530Y-119182123D01*
X113804860Y-119188000D01*
X113017140Y-119188000D01*
X112957470Y-119182123D01*
X112905990Y-119166507D01*
X112858555Y-119141152D01*
X112816973Y-119107027D01*
X112782848Y-119065445D01*
X112757493Y-119018010D01*
X112741877Y-118966530D01*
X112736000Y-118906860D01*
X112736000Y-118019140D01*
X112741877Y-117959470D01*
X112757493Y-117907990D01*
X112782848Y-117860555D01*
X112816973Y-117818973D01*
X112858555Y-117784848D01*
X112905990Y-117759493D01*
X112957470Y-117743877D01*
X113017140Y-117738000D01*
X113804860Y-117738000D01*
X113864530Y-117743877D01*
X113864530Y-117743877D01*
G37*
G36*
X120214530Y-116021877D02*
G01*
X120266010Y-116037493D01*
X120313445Y-116062848D01*
X120355027Y-116096973D01*
X120389152Y-116138555D01*
X120414507Y-116185990D01*
X120430123Y-116237470D01*
X120436000Y-116297140D01*
X120436000Y-117184860D01*
X120430123Y-117244530D01*
X120414507Y-117296010D01*
X120389152Y-117343445D01*
X120355027Y-117385027D01*
X120313445Y-117419152D01*
X120266010Y-117444507D01*
X120214530Y-117460123D01*
X120154860Y-117466000D01*
X119367140Y-117466000D01*
X119307470Y-117460123D01*
X119255990Y-117444507D01*
X119208555Y-117419152D01*
X119166973Y-117385027D01*
X119132848Y-117343445D01*
X119107493Y-117296010D01*
X119091877Y-117244530D01*
X119086000Y-117184860D01*
X119086000Y-116297140D01*
X119091877Y-116237470D01*
X119107493Y-116185990D01*
X119132848Y-116138555D01*
X119166973Y-116096973D01*
X119208555Y-116062848D01*
X119255990Y-116037493D01*
X119307470Y-116021877D01*
X119367140Y-116016000D01*
X120154860Y-116016000D01*
X120214530Y-116021877D01*
X120214530Y-116021877D01*
G37*
G36*
X124913530Y-116021877D02*
G01*
X124965010Y-116037493D01*
X125012445Y-116062848D01*
X125054027Y-116096973D01*
X125088152Y-116138555D01*
X125113507Y-116185990D01*
X125129123Y-116237470D01*
X125135000Y-116297140D01*
X125135000Y-117184860D01*
X125129123Y-117244530D01*
X125113507Y-117296010D01*
X125088152Y-117343445D01*
X125054027Y-117385027D01*
X125012445Y-117419152D01*
X124965010Y-117444507D01*
X124913530Y-117460123D01*
X124853860Y-117466000D01*
X124066140Y-117466000D01*
X124006470Y-117460123D01*
X123954990Y-117444507D01*
X123907555Y-117419152D01*
X123865973Y-117385027D01*
X123831848Y-117343445D01*
X123806493Y-117296010D01*
X123790877Y-117244530D01*
X123785000Y-117184860D01*
X123785000Y-116297140D01*
X123790877Y-116237470D01*
X123806493Y-116185990D01*
X123831848Y-116138555D01*
X123865973Y-116096973D01*
X123907555Y-116062848D01*
X123954990Y-116037493D01*
X124006470Y-116021877D01*
X124066140Y-116016000D01*
X124853860Y-116016000D01*
X124913530Y-116021877D01*
X124913530Y-116021877D01*
G37*
G36*
X143455530Y-116007877D02*
G01*
X143507010Y-116023493D01*
X143554445Y-116048848D01*
X143596027Y-116082973D01*
X143630152Y-116124555D01*
X143655507Y-116171990D01*
X143671123Y-116223470D01*
X143677000Y-116283140D01*
X143677000Y-117170860D01*
X143671123Y-117230530D01*
X143655507Y-117282010D01*
X143630152Y-117329445D01*
X143596027Y-117371027D01*
X143554445Y-117405152D01*
X143507010Y-117430507D01*
X143455530Y-117446123D01*
X143395860Y-117452000D01*
X142608140Y-117452000D01*
X142548470Y-117446123D01*
X142496990Y-117430507D01*
X142449555Y-117405152D01*
X142407973Y-117371027D01*
X142373848Y-117329445D01*
X142348493Y-117282010D01*
X142332877Y-117230530D01*
X142327000Y-117170860D01*
X142327000Y-116283140D01*
X142332877Y-116223470D01*
X142348493Y-116171990D01*
X142373848Y-116124555D01*
X142407973Y-116082973D01*
X142449555Y-116048848D01*
X142496990Y-116023493D01*
X142548470Y-116007877D01*
X142608140Y-116002000D01*
X143395860Y-116002000D01*
X143455530Y-116007877D01*
X143455530Y-116007877D01*
G37*
G36*
X126691530Y-116007877D02*
G01*
X126743010Y-116023493D01*
X126790445Y-116048848D01*
X126832027Y-116082973D01*
X126866152Y-116124555D01*
X126891507Y-116171990D01*
X126907123Y-116223470D01*
X126913000Y-116283140D01*
X126913000Y-117170860D01*
X126907123Y-117230530D01*
X126891507Y-117282010D01*
X126866152Y-117329445D01*
X126832027Y-117371027D01*
X126790445Y-117405152D01*
X126743010Y-117430507D01*
X126691530Y-117446123D01*
X126631860Y-117452000D01*
X125844140Y-117452000D01*
X125784470Y-117446123D01*
X125732990Y-117430507D01*
X125685555Y-117405152D01*
X125643973Y-117371027D01*
X125609848Y-117329445D01*
X125584493Y-117282010D01*
X125568877Y-117230530D01*
X125563000Y-117170860D01*
X125563000Y-116283140D01*
X125568877Y-116223470D01*
X125584493Y-116171990D01*
X125609848Y-116124555D01*
X125643973Y-116082973D01*
X125685555Y-116048848D01*
X125732990Y-116023493D01*
X125784470Y-116007877D01*
X125844140Y-116002000D01*
X126631860Y-116002000D01*
X126691530Y-116007877D01*
X126691530Y-116007877D01*
G37*
G36*
X148789530Y-116007877D02*
G01*
X148841010Y-116023493D01*
X148888445Y-116048848D01*
X148930027Y-116082973D01*
X148964152Y-116124555D01*
X148989507Y-116171990D01*
X149005123Y-116223470D01*
X149011000Y-116283140D01*
X149011000Y-117170860D01*
X149005123Y-117230530D01*
X148989507Y-117282010D01*
X148964152Y-117329445D01*
X148930027Y-117371027D01*
X148888445Y-117405152D01*
X148841010Y-117430507D01*
X148789530Y-117446123D01*
X148729860Y-117452000D01*
X147942140Y-117452000D01*
X147882470Y-117446123D01*
X147830990Y-117430507D01*
X147783555Y-117405152D01*
X147741973Y-117371027D01*
X147707848Y-117329445D01*
X147682493Y-117282010D01*
X147666877Y-117230530D01*
X147661000Y-117170860D01*
X147661000Y-116283140D01*
X147666877Y-116223470D01*
X147682493Y-116171990D01*
X147707848Y-116124555D01*
X147741973Y-116082973D01*
X147783555Y-116048848D01*
X147830990Y-116023493D01*
X147882470Y-116007877D01*
X147942140Y-116002000D01*
X148729860Y-116002000D01*
X148789530Y-116007877D01*
X148789530Y-116007877D01*
G37*
G36*
X170379530Y-116007877D02*
G01*
X170431010Y-116023493D01*
X170478445Y-116048848D01*
X170520027Y-116082973D01*
X170554152Y-116124555D01*
X170579507Y-116171990D01*
X170595123Y-116223470D01*
X170601000Y-116283140D01*
X170601000Y-117170860D01*
X170595123Y-117230530D01*
X170579507Y-117282010D01*
X170554152Y-117329445D01*
X170520027Y-117371027D01*
X170478445Y-117405152D01*
X170431010Y-117430507D01*
X170379530Y-117446123D01*
X170319860Y-117452000D01*
X169532140Y-117452000D01*
X169472470Y-117446123D01*
X169420990Y-117430507D01*
X169373555Y-117405152D01*
X169331973Y-117371027D01*
X169297848Y-117329445D01*
X169272493Y-117282010D01*
X169256877Y-117230530D01*
X169251000Y-117170860D01*
X169251000Y-116283140D01*
X169256877Y-116223470D01*
X169272493Y-116171990D01*
X169297848Y-116124555D01*
X169331973Y-116082973D01*
X169373555Y-116048848D01*
X169420990Y-116023493D01*
X169472470Y-116007877D01*
X169532140Y-116002000D01*
X170319860Y-116002000D01*
X170379530Y-116007877D01*
X170379530Y-116007877D01*
G37*
G36*
X112086530Y-116007877D02*
G01*
X112138010Y-116023493D01*
X112185445Y-116048848D01*
X112227027Y-116082973D01*
X112261152Y-116124555D01*
X112286507Y-116171990D01*
X112302123Y-116223470D01*
X112308000Y-116283140D01*
X112308000Y-117170860D01*
X112302123Y-117230530D01*
X112286507Y-117282010D01*
X112261152Y-117329445D01*
X112227027Y-117371027D01*
X112185445Y-117405152D01*
X112138010Y-117430507D01*
X112086530Y-117446123D01*
X112026860Y-117452000D01*
X111239140Y-117452000D01*
X111179470Y-117446123D01*
X111127990Y-117430507D01*
X111080555Y-117405152D01*
X111038973Y-117371027D01*
X111004848Y-117329445D01*
X110979493Y-117282010D01*
X110963877Y-117230530D01*
X110958000Y-117170860D01*
X110958000Y-116283140D01*
X110963877Y-116223470D01*
X110979493Y-116171990D01*
X111004848Y-116124555D01*
X111038973Y-116082973D01*
X111080555Y-116048848D01*
X111127990Y-116023493D01*
X111179470Y-116007877D01*
X111239140Y-116002000D01*
X112026860Y-116002000D01*
X112086530Y-116007877D01*
X112086530Y-116007877D01*
G37*
G36*
X168601530Y-116007877D02*
G01*
X168653010Y-116023493D01*
X168700445Y-116048848D01*
X168742027Y-116082973D01*
X168776152Y-116124555D01*
X168801507Y-116171990D01*
X168817123Y-116223470D01*
X168823000Y-116283140D01*
X168823000Y-117170860D01*
X168817123Y-117230530D01*
X168801507Y-117282010D01*
X168776152Y-117329445D01*
X168742027Y-117371027D01*
X168700445Y-117405152D01*
X168653010Y-117430507D01*
X168601530Y-117446123D01*
X168541860Y-117452000D01*
X167754140Y-117452000D01*
X167694470Y-117446123D01*
X167642990Y-117430507D01*
X167595555Y-117405152D01*
X167553973Y-117371027D01*
X167519848Y-117329445D01*
X167494493Y-117282010D01*
X167478877Y-117230530D01*
X167473000Y-117170860D01*
X167473000Y-116283140D01*
X167478877Y-116223470D01*
X167494493Y-116171990D01*
X167519848Y-116124555D01*
X167553973Y-116082973D01*
X167595555Y-116048848D01*
X167642990Y-116023493D01*
X167694470Y-116007877D01*
X167754140Y-116002000D01*
X168541860Y-116002000D01*
X168601530Y-116007877D01*
X168601530Y-116007877D01*
G37*
G36*
X164029530Y-116007877D02*
G01*
X164081010Y-116023493D01*
X164128445Y-116048848D01*
X164170027Y-116082973D01*
X164204152Y-116124555D01*
X164229507Y-116171990D01*
X164245123Y-116223470D01*
X164251000Y-116283140D01*
X164251000Y-117170860D01*
X164245123Y-117230530D01*
X164229507Y-117282010D01*
X164204152Y-117329445D01*
X164170027Y-117371027D01*
X164128445Y-117405152D01*
X164081010Y-117430507D01*
X164029530Y-117446123D01*
X163969860Y-117452000D01*
X163182140Y-117452000D01*
X163122470Y-117446123D01*
X163070990Y-117430507D01*
X163023555Y-117405152D01*
X162981973Y-117371027D01*
X162947848Y-117329445D01*
X162922493Y-117282010D01*
X162906877Y-117230530D01*
X162901000Y-117170860D01*
X162901000Y-116283140D01*
X162906877Y-116223470D01*
X162922493Y-116171990D01*
X162947848Y-116124555D01*
X162981973Y-116082973D01*
X163023555Y-116048848D01*
X163070990Y-116023493D01*
X163122470Y-116007877D01*
X163182140Y-116002000D01*
X163969860Y-116002000D01*
X164029530Y-116007877D01*
X164029530Y-116007877D01*
G37*
G36*
X162251530Y-116007877D02*
G01*
X162303010Y-116023493D01*
X162350445Y-116048848D01*
X162392027Y-116082973D01*
X162426152Y-116124555D01*
X162451507Y-116171990D01*
X162467123Y-116223470D01*
X162473000Y-116283140D01*
X162473000Y-117170860D01*
X162467123Y-117230530D01*
X162451507Y-117282010D01*
X162426152Y-117329445D01*
X162392027Y-117371027D01*
X162350445Y-117405152D01*
X162303010Y-117430507D01*
X162251530Y-117446123D01*
X162191860Y-117452000D01*
X161404140Y-117452000D01*
X161344470Y-117446123D01*
X161292990Y-117430507D01*
X161245555Y-117405152D01*
X161203973Y-117371027D01*
X161169848Y-117329445D01*
X161144493Y-117282010D01*
X161128877Y-117230530D01*
X161123000Y-117170860D01*
X161123000Y-116283140D01*
X161128877Y-116223470D01*
X161144493Y-116171990D01*
X161169848Y-116124555D01*
X161203973Y-116082973D01*
X161245555Y-116048848D01*
X161292990Y-116023493D01*
X161344470Y-116007877D01*
X161404140Y-116002000D01*
X162191860Y-116002000D01*
X162251530Y-116007877D01*
X162251530Y-116007877D01*
G37*
G36*
X118436530Y-116007877D02*
G01*
X118488010Y-116023493D01*
X118535445Y-116048848D01*
X118577027Y-116082973D01*
X118611152Y-116124555D01*
X118636507Y-116171990D01*
X118652123Y-116223470D01*
X118658000Y-116283140D01*
X118658000Y-117170860D01*
X118652123Y-117230530D01*
X118636507Y-117282010D01*
X118611152Y-117329445D01*
X118577027Y-117371027D01*
X118535445Y-117405152D01*
X118488010Y-117430507D01*
X118436530Y-117446123D01*
X118376860Y-117452000D01*
X117589140Y-117452000D01*
X117529470Y-117446123D01*
X117477990Y-117430507D01*
X117430555Y-117405152D01*
X117388973Y-117371027D01*
X117354848Y-117329445D01*
X117329493Y-117282010D01*
X117313877Y-117230530D01*
X117308000Y-117170860D01*
X117308000Y-116283140D01*
X117313877Y-116223470D01*
X117329493Y-116171990D01*
X117354848Y-116124555D01*
X117388973Y-116082973D01*
X117430555Y-116048848D01*
X117477990Y-116023493D01*
X117529470Y-116007877D01*
X117589140Y-116002000D01*
X118376860Y-116002000D01*
X118436530Y-116007877D01*
X118436530Y-116007877D01*
G37*
G36*
X145233530Y-116007877D02*
G01*
X145285010Y-116023493D01*
X145332445Y-116048848D01*
X145374027Y-116082973D01*
X145408152Y-116124555D01*
X145433507Y-116171990D01*
X145449123Y-116223470D01*
X145455000Y-116283140D01*
X145455000Y-117170860D01*
X145449123Y-117230530D01*
X145433507Y-117282010D01*
X145408152Y-117329445D01*
X145374027Y-117371027D01*
X145332445Y-117405152D01*
X145285010Y-117430507D01*
X145233530Y-117446123D01*
X145173860Y-117452000D01*
X144386140Y-117452000D01*
X144326470Y-117446123D01*
X144274990Y-117430507D01*
X144227555Y-117405152D01*
X144185973Y-117371027D01*
X144151848Y-117329445D01*
X144126493Y-117282010D01*
X144110877Y-117230530D01*
X144105000Y-117170860D01*
X144105000Y-116283140D01*
X144110877Y-116223470D01*
X144126493Y-116171990D01*
X144151848Y-116124555D01*
X144185973Y-116082973D01*
X144227555Y-116048848D01*
X144274990Y-116023493D01*
X144326470Y-116007877D01*
X144386140Y-116002000D01*
X145173860Y-116002000D01*
X145233530Y-116007877D01*
X145233530Y-116007877D01*
G37*
G36*
X175078530Y-116007877D02*
G01*
X175130010Y-116023493D01*
X175177445Y-116048848D01*
X175219027Y-116082973D01*
X175253152Y-116124555D01*
X175278507Y-116171990D01*
X175294123Y-116223470D01*
X175300000Y-116283140D01*
X175300000Y-117170860D01*
X175294123Y-117230530D01*
X175278507Y-117282010D01*
X175253152Y-117329445D01*
X175219027Y-117371027D01*
X175177445Y-117405152D01*
X175130010Y-117430507D01*
X175078530Y-117446123D01*
X175018860Y-117452000D01*
X174231140Y-117452000D01*
X174171470Y-117446123D01*
X174119990Y-117430507D01*
X174072555Y-117405152D01*
X174030973Y-117371027D01*
X173996848Y-117329445D01*
X173971493Y-117282010D01*
X173955877Y-117230530D01*
X173950000Y-117170860D01*
X173950000Y-116283140D01*
X173955877Y-116223470D01*
X173971493Y-116171990D01*
X173996848Y-116124555D01*
X174030973Y-116082973D01*
X174072555Y-116048848D01*
X174119990Y-116023493D01*
X174171470Y-116007877D01*
X174231140Y-116002000D01*
X175018860Y-116002000D01*
X175078530Y-116007877D01*
X175078530Y-116007877D01*
G37*
G36*
X147011530Y-116007877D02*
G01*
X147063010Y-116023493D01*
X147110445Y-116048848D01*
X147152027Y-116082973D01*
X147186152Y-116124555D01*
X147211507Y-116171990D01*
X147227123Y-116223470D01*
X147233000Y-116283140D01*
X147233000Y-117170860D01*
X147227123Y-117230530D01*
X147211507Y-117282010D01*
X147186152Y-117329445D01*
X147152027Y-117371027D01*
X147110445Y-117405152D01*
X147063010Y-117430507D01*
X147011530Y-117446123D01*
X146951860Y-117452000D01*
X146164140Y-117452000D01*
X146104470Y-117446123D01*
X146052990Y-117430507D01*
X146005555Y-117405152D01*
X145963973Y-117371027D01*
X145929848Y-117329445D01*
X145904493Y-117282010D01*
X145888877Y-117230530D01*
X145883000Y-117170860D01*
X145883000Y-116283140D01*
X145888877Y-116223470D01*
X145904493Y-116171990D01*
X145929848Y-116124555D01*
X145963973Y-116082973D01*
X146005555Y-116048848D01*
X146052990Y-116023493D01*
X146104470Y-116007877D01*
X146164140Y-116002000D01*
X146951860Y-116002000D01*
X147011530Y-116007877D01*
X147011530Y-116007877D01*
G37*
G36*
X176856530Y-116007877D02*
G01*
X176908010Y-116023493D01*
X176955445Y-116048848D01*
X176997027Y-116082973D01*
X177031152Y-116124555D01*
X177056507Y-116171990D01*
X177072123Y-116223470D01*
X177078000Y-116283140D01*
X177078000Y-117170860D01*
X177072123Y-117230530D01*
X177056507Y-117282010D01*
X177031152Y-117329445D01*
X176997027Y-117371027D01*
X176955445Y-117405152D01*
X176908010Y-117430507D01*
X176856530Y-117446123D01*
X176796860Y-117452000D01*
X176009140Y-117452000D01*
X175949470Y-117446123D01*
X175897990Y-117430507D01*
X175850555Y-117405152D01*
X175808973Y-117371027D01*
X175774848Y-117329445D01*
X175749493Y-117282010D01*
X175733877Y-117230530D01*
X175728000Y-117170860D01*
X175728000Y-116283140D01*
X175733877Y-116223470D01*
X175749493Y-116171990D01*
X175774848Y-116124555D01*
X175808973Y-116082973D01*
X175850555Y-116048848D01*
X175897990Y-116023493D01*
X175949470Y-116007877D01*
X176009140Y-116002000D01*
X176796860Y-116002000D01*
X176856530Y-116007877D01*
X176856530Y-116007877D01*
G37*
G36*
X113864530Y-115993877D02*
G01*
X113916010Y-116009493D01*
X113963445Y-116034848D01*
X114005027Y-116068973D01*
X114039152Y-116110555D01*
X114064507Y-116157990D01*
X114080123Y-116209470D01*
X114086000Y-116269140D01*
X114086000Y-117156860D01*
X114080123Y-117216530D01*
X114064507Y-117268010D01*
X114039152Y-117315445D01*
X114005027Y-117357027D01*
X113963445Y-117391152D01*
X113916010Y-117416507D01*
X113864530Y-117432123D01*
X113804860Y-117438000D01*
X113017140Y-117438000D01*
X112957470Y-117432123D01*
X112905990Y-117416507D01*
X112858555Y-117391152D01*
X112816973Y-117357027D01*
X112782848Y-117315445D01*
X112757493Y-117268010D01*
X112741877Y-117216530D01*
X112736000Y-117156860D01*
X112736000Y-116269140D01*
X112741877Y-116209470D01*
X112757493Y-116157990D01*
X112782848Y-116110555D01*
X112816973Y-116068973D01*
X112858555Y-116034848D01*
X112905990Y-116009493D01*
X112957470Y-115993877D01*
X113017140Y-115988000D01*
X113804860Y-115988000D01*
X113864530Y-115993877D01*
X113864530Y-115993877D01*
G37*
G36*
X168665530Y-114265877D02*
G01*
X168717010Y-114281493D01*
X168764445Y-114306848D01*
X168806027Y-114340973D01*
X168840152Y-114382555D01*
X168865507Y-114429990D01*
X168881123Y-114481470D01*
X168887000Y-114541140D01*
X168887000Y-115328860D01*
X168881123Y-115388530D01*
X168865507Y-115440010D01*
X168840152Y-115487445D01*
X168806027Y-115529027D01*
X168764445Y-115563152D01*
X168717010Y-115588507D01*
X168665530Y-115604123D01*
X168605860Y-115610000D01*
X167718140Y-115610000D01*
X167658470Y-115604123D01*
X167606990Y-115588507D01*
X167559555Y-115563152D01*
X167517973Y-115529027D01*
X167483848Y-115487445D01*
X167458493Y-115440010D01*
X167442877Y-115388530D01*
X167437000Y-115328860D01*
X167437000Y-114541140D01*
X167442877Y-114481470D01*
X167458493Y-114429990D01*
X167483848Y-114382555D01*
X167517973Y-114340973D01*
X167559555Y-114306848D01*
X167606990Y-114281493D01*
X167658470Y-114265877D01*
X167718140Y-114260000D01*
X168605860Y-114260000D01*
X168665530Y-114265877D01*
X168665530Y-114265877D01*
G37*
G36*
X164065530Y-114265877D02*
G01*
X164117010Y-114281493D01*
X164164445Y-114306848D01*
X164206027Y-114340973D01*
X164240152Y-114382555D01*
X164265507Y-114429990D01*
X164281123Y-114481470D01*
X164287000Y-114541140D01*
X164287000Y-115328860D01*
X164281123Y-115388530D01*
X164265507Y-115440010D01*
X164240152Y-115487445D01*
X164206027Y-115529027D01*
X164164445Y-115563152D01*
X164117010Y-115588507D01*
X164065530Y-115604123D01*
X164005860Y-115610000D01*
X163118140Y-115610000D01*
X163058470Y-115604123D01*
X163006990Y-115588507D01*
X162959555Y-115563152D01*
X162917973Y-115529027D01*
X162883848Y-115487445D01*
X162858493Y-115440010D01*
X162842877Y-115388530D01*
X162837000Y-115328860D01*
X162837000Y-114541140D01*
X162842877Y-114481470D01*
X162858493Y-114429990D01*
X162883848Y-114382555D01*
X162917973Y-114340973D01*
X162959555Y-114306848D01*
X163006990Y-114281493D01*
X163058470Y-114265877D01*
X163118140Y-114260000D01*
X164005860Y-114260000D01*
X164065530Y-114265877D01*
X164065530Y-114265877D01*
G37*
G36*
X162315530Y-114265877D02*
G01*
X162367010Y-114281493D01*
X162414445Y-114306848D01*
X162456027Y-114340973D01*
X162490152Y-114382555D01*
X162515507Y-114429990D01*
X162531123Y-114481470D01*
X162537000Y-114541140D01*
X162537000Y-115328860D01*
X162531123Y-115388530D01*
X162515507Y-115440010D01*
X162490152Y-115487445D01*
X162456027Y-115529027D01*
X162414445Y-115563152D01*
X162367010Y-115588507D01*
X162315530Y-115604123D01*
X162255860Y-115610000D01*
X161368140Y-115610000D01*
X161308470Y-115604123D01*
X161256990Y-115588507D01*
X161209555Y-115563152D01*
X161167973Y-115529027D01*
X161133848Y-115487445D01*
X161108493Y-115440010D01*
X161092877Y-115388530D01*
X161087000Y-115328860D01*
X161087000Y-114541140D01*
X161092877Y-114481470D01*
X161108493Y-114429990D01*
X161133848Y-114382555D01*
X161167973Y-114340973D01*
X161209555Y-114306848D01*
X161256990Y-114281493D01*
X161308470Y-114265877D01*
X161368140Y-114260000D01*
X162255860Y-114260000D01*
X162315530Y-114265877D01*
X162315530Y-114265877D01*
G37*
G36*
X113900530Y-114265877D02*
G01*
X113952010Y-114281493D01*
X113999445Y-114306848D01*
X114041027Y-114340973D01*
X114075152Y-114382555D01*
X114100507Y-114429990D01*
X114116123Y-114481470D01*
X114122000Y-114541140D01*
X114122000Y-115328860D01*
X114116123Y-115388530D01*
X114100507Y-115440010D01*
X114075152Y-115487445D01*
X114041027Y-115529027D01*
X113999445Y-115563152D01*
X113952010Y-115588507D01*
X113900530Y-115604123D01*
X113840860Y-115610000D01*
X112953140Y-115610000D01*
X112893470Y-115604123D01*
X112841990Y-115588507D01*
X112794555Y-115563152D01*
X112752973Y-115529027D01*
X112718848Y-115487445D01*
X112693493Y-115440010D01*
X112677877Y-115388530D01*
X112672000Y-115328860D01*
X112672000Y-114541140D01*
X112677877Y-114481470D01*
X112693493Y-114429990D01*
X112718848Y-114382555D01*
X112752973Y-114340973D01*
X112794555Y-114306848D01*
X112841990Y-114281493D01*
X112893470Y-114265877D01*
X112953140Y-114260000D01*
X113840860Y-114260000D01*
X113900530Y-114265877D01*
X113900530Y-114265877D01*
G37*
G36*
X112150530Y-114265877D02*
G01*
X112202010Y-114281493D01*
X112249445Y-114306848D01*
X112291027Y-114340973D01*
X112325152Y-114382555D01*
X112350507Y-114429990D01*
X112366123Y-114481470D01*
X112372000Y-114541140D01*
X112372000Y-115328860D01*
X112366123Y-115388530D01*
X112350507Y-115440010D01*
X112325152Y-115487445D01*
X112291027Y-115529027D01*
X112249445Y-115563152D01*
X112202010Y-115588507D01*
X112150530Y-115604123D01*
X112090860Y-115610000D01*
X111203140Y-115610000D01*
X111143470Y-115604123D01*
X111091990Y-115588507D01*
X111044555Y-115563152D01*
X111002973Y-115529027D01*
X110968848Y-115487445D01*
X110943493Y-115440010D01*
X110927877Y-115388530D01*
X110922000Y-115328860D01*
X110922000Y-114541140D01*
X110927877Y-114481470D01*
X110943493Y-114429990D01*
X110968848Y-114382555D01*
X111002973Y-114340973D01*
X111044555Y-114306848D01*
X111091990Y-114281493D01*
X111143470Y-114265877D01*
X111203140Y-114260000D01*
X112090860Y-114260000D01*
X112150530Y-114265877D01*
X112150530Y-114265877D01*
G37*
G36*
X170415530Y-114265877D02*
G01*
X170467010Y-114281493D01*
X170514445Y-114306848D01*
X170556027Y-114340973D01*
X170590152Y-114382555D01*
X170615507Y-114429990D01*
X170631123Y-114481470D01*
X170637000Y-114541140D01*
X170637000Y-115328860D01*
X170631123Y-115388530D01*
X170615507Y-115440010D01*
X170590152Y-115487445D01*
X170556027Y-115529027D01*
X170514445Y-115563152D01*
X170467010Y-115588507D01*
X170415530Y-115604123D01*
X170355860Y-115610000D01*
X169468140Y-115610000D01*
X169408470Y-115604123D01*
X169356990Y-115588507D01*
X169309555Y-115563152D01*
X169267973Y-115529027D01*
X169233848Y-115487445D01*
X169208493Y-115440010D01*
X169192877Y-115388530D01*
X169187000Y-115328860D01*
X169187000Y-114541140D01*
X169192877Y-114481470D01*
X169208493Y-114429990D01*
X169233848Y-114382555D01*
X169267973Y-114340973D01*
X169309555Y-114306848D01*
X169356990Y-114281493D01*
X169408470Y-114265877D01*
X169468140Y-114260000D01*
X170355860Y-114260000D01*
X170415530Y-114265877D01*
X170415530Y-114265877D01*
G37*
G36*
X120250530Y-114265877D02*
G01*
X120302010Y-114281493D01*
X120349445Y-114306848D01*
X120391027Y-114340973D01*
X120425152Y-114382555D01*
X120450507Y-114429990D01*
X120466123Y-114481470D01*
X120472000Y-114541140D01*
X120472000Y-115328860D01*
X120466123Y-115388530D01*
X120450507Y-115440010D01*
X120425152Y-115487445D01*
X120391027Y-115529027D01*
X120349445Y-115563152D01*
X120302010Y-115588507D01*
X120250530Y-115604123D01*
X120190860Y-115610000D01*
X119303140Y-115610000D01*
X119243470Y-115604123D01*
X119191990Y-115588507D01*
X119144555Y-115563152D01*
X119102973Y-115529027D01*
X119068848Y-115487445D01*
X119043493Y-115440010D01*
X119027877Y-115388530D01*
X119022000Y-115328860D01*
X119022000Y-114541140D01*
X119027877Y-114481470D01*
X119043493Y-114429990D01*
X119068848Y-114382555D01*
X119102973Y-114340973D01*
X119144555Y-114306848D01*
X119191990Y-114281493D01*
X119243470Y-114265877D01*
X119303140Y-114260000D01*
X120190860Y-114260000D01*
X120250530Y-114265877D01*
X120250530Y-114265877D01*
G37*
G36*
X118500530Y-114265877D02*
G01*
X118552010Y-114281493D01*
X118599445Y-114306848D01*
X118641027Y-114340973D01*
X118675152Y-114382555D01*
X118700507Y-114429990D01*
X118716123Y-114481470D01*
X118722000Y-114541140D01*
X118722000Y-115328860D01*
X118716123Y-115388530D01*
X118700507Y-115440010D01*
X118675152Y-115487445D01*
X118641027Y-115529027D01*
X118599445Y-115563152D01*
X118552010Y-115588507D01*
X118500530Y-115604123D01*
X118440860Y-115610000D01*
X117553140Y-115610000D01*
X117493470Y-115604123D01*
X117441990Y-115588507D01*
X117394555Y-115563152D01*
X117352973Y-115529027D01*
X117318848Y-115487445D01*
X117293493Y-115440010D01*
X117277877Y-115388530D01*
X117272000Y-115328860D01*
X117272000Y-114541140D01*
X117277877Y-114481470D01*
X117293493Y-114429990D01*
X117318848Y-114382555D01*
X117352973Y-114340973D01*
X117394555Y-114306848D01*
X117441990Y-114281493D01*
X117493470Y-114265877D01*
X117553140Y-114260000D01*
X118440860Y-114260000D01*
X118500530Y-114265877D01*
X118500530Y-114265877D01*
G37*
G36*
X176892530Y-114265877D02*
G01*
X176944010Y-114281493D01*
X176991445Y-114306848D01*
X177033027Y-114340973D01*
X177067152Y-114382555D01*
X177092507Y-114429990D01*
X177108123Y-114481470D01*
X177114000Y-114541140D01*
X177114000Y-115328860D01*
X177108123Y-115388530D01*
X177092507Y-115440010D01*
X177067152Y-115487445D01*
X177033027Y-115529027D01*
X176991445Y-115563152D01*
X176944010Y-115588507D01*
X176892530Y-115604123D01*
X176832860Y-115610000D01*
X175945140Y-115610000D01*
X175885470Y-115604123D01*
X175833990Y-115588507D01*
X175786555Y-115563152D01*
X175744973Y-115529027D01*
X175710848Y-115487445D01*
X175685493Y-115440010D01*
X175669877Y-115388530D01*
X175664000Y-115328860D01*
X175664000Y-114541140D01*
X175669877Y-114481470D01*
X175685493Y-114429990D01*
X175710848Y-114382555D01*
X175744973Y-114340973D01*
X175786555Y-114306848D01*
X175833990Y-114281493D01*
X175885470Y-114265877D01*
X175945140Y-114260000D01*
X176832860Y-114260000D01*
X176892530Y-114265877D01*
X176892530Y-114265877D01*
G37*
G36*
X175142530Y-114265877D02*
G01*
X175194010Y-114281493D01*
X175241445Y-114306848D01*
X175283027Y-114340973D01*
X175317152Y-114382555D01*
X175342507Y-114429990D01*
X175358123Y-114481470D01*
X175364000Y-114541140D01*
X175364000Y-115328860D01*
X175358123Y-115388530D01*
X175342507Y-115440010D01*
X175317152Y-115487445D01*
X175283027Y-115529027D01*
X175241445Y-115563152D01*
X175194010Y-115588507D01*
X175142530Y-115604123D01*
X175082860Y-115610000D01*
X174195140Y-115610000D01*
X174135470Y-115604123D01*
X174083990Y-115588507D01*
X174036555Y-115563152D01*
X173994973Y-115529027D01*
X173960848Y-115487445D01*
X173935493Y-115440010D01*
X173919877Y-115388530D01*
X173914000Y-115328860D01*
X173914000Y-114541140D01*
X173919877Y-114481470D01*
X173935493Y-114429990D01*
X173960848Y-114382555D01*
X173994973Y-114340973D01*
X174036555Y-114306848D01*
X174083990Y-114281493D01*
X174135470Y-114265877D01*
X174195140Y-114260000D01*
X175082860Y-114260000D01*
X175142530Y-114265877D01*
X175142530Y-114265877D01*
G37*
G36*
X126727530Y-114265877D02*
G01*
X126779010Y-114281493D01*
X126826445Y-114306848D01*
X126868027Y-114340973D01*
X126902152Y-114382555D01*
X126927507Y-114429990D01*
X126943123Y-114481470D01*
X126949000Y-114541140D01*
X126949000Y-115328860D01*
X126943123Y-115388530D01*
X126927507Y-115440010D01*
X126902152Y-115487445D01*
X126868027Y-115529027D01*
X126826445Y-115563152D01*
X126779010Y-115588507D01*
X126727530Y-115604123D01*
X126667860Y-115610000D01*
X125780140Y-115610000D01*
X125720470Y-115604123D01*
X125668990Y-115588507D01*
X125621555Y-115563152D01*
X125579973Y-115529027D01*
X125545848Y-115487445D01*
X125520493Y-115440010D01*
X125504877Y-115388530D01*
X125499000Y-115328860D01*
X125499000Y-114541140D01*
X125504877Y-114481470D01*
X125520493Y-114429990D01*
X125545848Y-114382555D01*
X125579973Y-114340973D01*
X125621555Y-114306848D01*
X125668990Y-114281493D01*
X125720470Y-114265877D01*
X125780140Y-114260000D01*
X126667860Y-114260000D01*
X126727530Y-114265877D01*
X126727530Y-114265877D01*
G37*
G36*
X124977530Y-114265877D02*
G01*
X125029010Y-114281493D01*
X125076445Y-114306848D01*
X125118027Y-114340973D01*
X125152152Y-114382555D01*
X125177507Y-114429990D01*
X125193123Y-114481470D01*
X125199000Y-114541140D01*
X125199000Y-115328860D01*
X125193123Y-115388530D01*
X125177507Y-115440010D01*
X125152152Y-115487445D01*
X125118027Y-115529027D01*
X125076445Y-115563152D01*
X125029010Y-115588507D01*
X124977530Y-115604123D01*
X124917860Y-115610000D01*
X124030140Y-115610000D01*
X123970470Y-115604123D01*
X123918990Y-115588507D01*
X123871555Y-115563152D01*
X123829973Y-115529027D01*
X123795848Y-115487445D01*
X123770493Y-115440010D01*
X123754877Y-115388530D01*
X123749000Y-115328860D01*
X123749000Y-114541140D01*
X123754877Y-114481470D01*
X123770493Y-114429990D01*
X123795848Y-114382555D01*
X123829973Y-114340973D01*
X123871555Y-114306848D01*
X123918990Y-114281493D01*
X123970470Y-114265877D01*
X124030140Y-114260000D01*
X124917860Y-114260000D01*
X124977530Y-114265877D01*
X124977530Y-114265877D01*
G37*
G36*
X132868604Y-108802968D02*
G01*
X132956142Y-108839228D01*
X133043678Y-108875486D01*
X133043679Y-108875487D01*
X133201237Y-108980763D01*
X133335237Y-109114763D01*
X133423007Y-109246121D01*
X133440514Y-109272322D01*
X133476772Y-109359858D01*
X133513032Y-109447396D01*
X133550000Y-109633250D01*
X133550000Y-109822750D01*
X133513032Y-110008604D01*
X133476772Y-110096142D01*
X133440514Y-110183678D01*
X133440513Y-110183679D01*
X133335237Y-110341237D01*
X133201237Y-110475237D01*
X133069879Y-110563007D01*
X133043678Y-110580514D01*
X132956142Y-110616772D01*
X132868604Y-110653032D01*
X132682750Y-110690000D01*
X132493250Y-110690000D01*
X132307396Y-110653032D01*
X132219858Y-110616772D01*
X132132322Y-110580514D01*
X132106121Y-110563007D01*
X131974763Y-110475237D01*
X131840763Y-110341237D01*
X131735487Y-110183679D01*
X131735486Y-110183678D01*
X131662968Y-110008604D01*
X131626000Y-109822750D01*
X131626000Y-109633250D01*
X131662968Y-109447396D01*
X131699228Y-109359858D01*
X131735486Y-109272322D01*
X131752993Y-109246121D01*
X131840763Y-109114763D01*
X131974763Y-108980763D01*
X132132321Y-108875487D01*
X132132322Y-108875486D01*
X132307396Y-108802968D01*
X132493250Y-108766000D01*
X132682750Y-108766000D01*
X132868604Y-108802968D01*
X132868604Y-108802968D01*
G37*
G36*
X135408604Y-108802968D02*
G01*
X135496142Y-108839228D01*
X135583678Y-108875486D01*
X135583679Y-108875487D01*
X135741237Y-108980763D01*
X135875237Y-109114763D01*
X135963007Y-109246121D01*
X135980514Y-109272322D01*
X136016772Y-109359858D01*
X136053032Y-109447396D01*
X136090000Y-109633250D01*
X136090000Y-109822750D01*
X136053032Y-110008604D01*
X136016772Y-110096142D01*
X135980514Y-110183678D01*
X135980513Y-110183679D01*
X135875237Y-110341237D01*
X135741237Y-110475237D01*
X135609879Y-110563007D01*
X135583678Y-110580514D01*
X135496142Y-110616772D01*
X135408604Y-110653032D01*
X135222750Y-110690000D01*
X135033250Y-110690000D01*
X134847396Y-110653032D01*
X134759858Y-110616772D01*
X134672322Y-110580514D01*
X134646121Y-110563007D01*
X134514763Y-110475237D01*
X134380763Y-110341237D01*
X134275487Y-110183679D01*
X134275486Y-110183678D01*
X134202968Y-110008604D01*
X134166000Y-109822750D01*
X134166000Y-109633250D01*
X134202968Y-109447396D01*
X134239228Y-109359858D01*
X134275486Y-109272322D01*
X134292993Y-109246121D01*
X134380763Y-109114763D01*
X134514763Y-108980763D01*
X134672321Y-108875487D01*
X134672322Y-108875486D01*
X134847396Y-108802968D01*
X135033250Y-108766000D01*
X135222750Y-108766000D01*
X135408604Y-108802968D01*
X135408604Y-108802968D01*
G37*
G36*
X137948604Y-108802968D02*
G01*
X138036142Y-108839228D01*
X138123678Y-108875486D01*
X138123679Y-108875487D01*
X138281237Y-108980763D01*
X138415237Y-109114763D01*
X138503007Y-109246121D01*
X138520514Y-109272322D01*
X138556772Y-109359858D01*
X138593032Y-109447396D01*
X138630000Y-109633250D01*
X138630000Y-109822750D01*
X138593032Y-110008604D01*
X138556772Y-110096142D01*
X138520514Y-110183678D01*
X138520513Y-110183679D01*
X138415237Y-110341237D01*
X138281237Y-110475237D01*
X138149879Y-110563007D01*
X138123678Y-110580514D01*
X138036142Y-110616772D01*
X137948604Y-110653032D01*
X137762750Y-110690000D01*
X137573250Y-110690000D01*
X137387396Y-110653032D01*
X137299858Y-110616772D01*
X137212322Y-110580514D01*
X137186121Y-110563007D01*
X137054763Y-110475237D01*
X136920763Y-110341237D01*
X136815487Y-110183679D01*
X136815486Y-110183678D01*
X136742968Y-110008604D01*
X136706000Y-109822750D01*
X136706000Y-109633250D01*
X136742968Y-109447396D01*
X136779228Y-109359858D01*
X136815486Y-109272322D01*
X136832993Y-109246121D01*
X136920763Y-109114763D01*
X137054763Y-108980763D01*
X137212321Y-108875487D01*
X137212322Y-108875486D01*
X137387396Y-108802968D01*
X137573250Y-108766000D01*
X137762750Y-108766000D01*
X137948604Y-108802968D01*
X137948604Y-108802968D01*
G37*
G36*
X209500404Y-108802968D02*
G01*
X209587942Y-108839228D01*
X209675478Y-108875486D01*
X209675479Y-108875487D01*
X209833037Y-108980763D01*
X209967037Y-109114763D01*
X210054807Y-109246121D01*
X210072314Y-109272322D01*
X210108572Y-109359858D01*
X210144832Y-109447396D01*
X210181800Y-109633250D01*
X210181800Y-109822750D01*
X210144832Y-110008604D01*
X210108572Y-110096142D01*
X210072314Y-110183678D01*
X210072313Y-110183679D01*
X209967037Y-110341237D01*
X209833037Y-110475237D01*
X209701679Y-110563007D01*
X209675478Y-110580514D01*
X209587942Y-110616772D01*
X209500404Y-110653032D01*
X209314550Y-110690000D01*
X209125050Y-110690000D01*
X208939196Y-110653032D01*
X208851658Y-110616772D01*
X208764122Y-110580514D01*
X208737921Y-110563007D01*
X208606563Y-110475237D01*
X208472563Y-110341237D01*
X208367287Y-110183679D01*
X208367286Y-110183678D01*
X208331028Y-110096142D01*
X208294768Y-110008604D01*
X208257800Y-109822750D01*
X208257800Y-109633250D01*
X208294768Y-109447396D01*
X208331028Y-109359858D01*
X208367286Y-109272322D01*
X208384793Y-109246121D01*
X208472563Y-109114763D01*
X208606563Y-108980763D01*
X208764121Y-108875487D01*
X208764122Y-108875486D01*
X208939196Y-108802968D01*
X209125050Y-108766000D01*
X209314550Y-108766000D01*
X209500404Y-108802968D01*
X209500404Y-108802968D01*
G37*
G36*
X212040404Y-108802968D02*
G01*
X212127942Y-108839228D01*
X212215478Y-108875486D01*
X212215479Y-108875487D01*
X212373037Y-108980763D01*
X212507037Y-109114763D01*
X212594807Y-109246121D01*
X212612314Y-109272322D01*
X212648572Y-109359858D01*
X212684832Y-109447396D01*
X212721800Y-109633250D01*
X212721800Y-109822750D01*
X212684832Y-110008604D01*
X212648572Y-110096142D01*
X212612314Y-110183678D01*
X212612313Y-110183679D01*
X212507037Y-110341237D01*
X212373037Y-110475237D01*
X212241679Y-110563007D01*
X212215478Y-110580514D01*
X212127942Y-110616772D01*
X212040404Y-110653032D01*
X211854550Y-110690000D01*
X211665050Y-110690000D01*
X211479196Y-110653032D01*
X211391658Y-110616772D01*
X211304122Y-110580514D01*
X211277921Y-110563007D01*
X211146563Y-110475237D01*
X211012563Y-110341237D01*
X210907287Y-110183679D01*
X210907286Y-110183678D01*
X210871028Y-110096142D01*
X210834768Y-110008604D01*
X210797800Y-109822750D01*
X210797800Y-109633250D01*
X210834768Y-109447396D01*
X210871028Y-109359858D01*
X210907286Y-109272322D01*
X210924793Y-109246121D01*
X211012563Y-109114763D01*
X211146563Y-108980763D01*
X211304121Y-108875487D01*
X211304122Y-108875486D01*
X211479196Y-108802968D01*
X211665050Y-108766000D01*
X211854550Y-108766000D01*
X212040404Y-108802968D01*
X212040404Y-108802968D01*
G37*
G36*
X214580404Y-108802968D02*
G01*
X214667942Y-108839228D01*
X214755478Y-108875486D01*
X214755479Y-108875487D01*
X214913037Y-108980763D01*
X215047037Y-109114763D01*
X215134807Y-109246121D01*
X215152314Y-109272322D01*
X215188572Y-109359858D01*
X215224832Y-109447396D01*
X215261800Y-109633250D01*
X215261800Y-109822750D01*
X215224832Y-110008604D01*
X215188572Y-110096142D01*
X215152314Y-110183678D01*
X215152313Y-110183679D01*
X215047037Y-110341237D01*
X214913037Y-110475237D01*
X214781679Y-110563007D01*
X214755478Y-110580514D01*
X214667942Y-110616772D01*
X214580404Y-110653032D01*
X214394550Y-110690000D01*
X214205050Y-110690000D01*
X214019196Y-110653032D01*
X213931658Y-110616772D01*
X213844122Y-110580514D01*
X213817921Y-110563007D01*
X213686563Y-110475237D01*
X213552563Y-110341237D01*
X213447287Y-110183679D01*
X213447286Y-110183678D01*
X213411028Y-110096142D01*
X213374768Y-110008604D01*
X213337800Y-109822750D01*
X213337800Y-109633250D01*
X213374768Y-109447396D01*
X213411028Y-109359858D01*
X213447286Y-109272322D01*
X213464793Y-109246121D01*
X213552563Y-109114763D01*
X213686563Y-108980763D01*
X213844121Y-108875487D01*
X213844122Y-108875486D01*
X214019196Y-108802968D01*
X214205050Y-108766000D01*
X214394550Y-108766000D01*
X214580404Y-108802968D01*
X214580404Y-108802968D01*
G37*
G36*
X217120404Y-108802968D02*
G01*
X217207942Y-108839228D01*
X217295478Y-108875486D01*
X217295479Y-108875487D01*
X217453037Y-108980763D01*
X217587037Y-109114763D01*
X217674807Y-109246121D01*
X217692314Y-109272322D01*
X217728572Y-109359858D01*
X217764832Y-109447396D01*
X217801800Y-109633250D01*
X217801800Y-109822750D01*
X217764832Y-110008604D01*
X217728572Y-110096142D01*
X217692314Y-110183678D01*
X217692313Y-110183679D01*
X217587037Y-110341237D01*
X217453037Y-110475237D01*
X217321679Y-110563007D01*
X217295478Y-110580514D01*
X217207942Y-110616772D01*
X217120404Y-110653032D01*
X216934550Y-110690000D01*
X216745050Y-110690000D01*
X216559196Y-110653032D01*
X216471658Y-110616772D01*
X216384122Y-110580514D01*
X216357921Y-110563007D01*
X216226563Y-110475237D01*
X216092563Y-110341237D01*
X215987287Y-110183679D01*
X215987286Y-110183678D01*
X215951028Y-110096142D01*
X215914768Y-110008604D01*
X215877800Y-109822750D01*
X215877800Y-109633250D01*
X215914768Y-109447396D01*
X215951028Y-109359858D01*
X215987286Y-109272322D01*
X216004793Y-109246121D01*
X216092563Y-109114763D01*
X216226563Y-108980763D01*
X216384121Y-108875487D01*
X216384122Y-108875486D01*
X216559196Y-108802968D01*
X216745050Y-108766000D01*
X216934550Y-108766000D01*
X217120404Y-108802968D01*
X217120404Y-108802968D01*
G37*
G36*
X68987604Y-108802968D02*
G01*
X69075142Y-108839228D01*
X69162678Y-108875486D01*
X69162679Y-108875487D01*
X69320237Y-108980763D01*
X69454237Y-109114763D01*
X69542007Y-109246121D01*
X69559514Y-109272322D01*
X69595772Y-109359858D01*
X69632032Y-109447396D01*
X69669000Y-109633250D01*
X69669000Y-109822750D01*
X69632032Y-110008604D01*
X69559514Y-110183678D01*
X69559513Y-110183679D01*
X69454237Y-110341237D01*
X69320237Y-110475237D01*
X69188879Y-110563007D01*
X69162678Y-110580514D01*
X69075142Y-110616772D01*
X68987604Y-110653032D01*
X68801750Y-110690000D01*
X68612250Y-110690000D01*
X68426396Y-110653032D01*
X68338858Y-110616772D01*
X68251322Y-110580514D01*
X68225121Y-110563007D01*
X68093763Y-110475237D01*
X67959763Y-110341237D01*
X67854487Y-110183679D01*
X67854486Y-110183678D01*
X67781968Y-110008604D01*
X67745000Y-109822750D01*
X67745000Y-109633250D01*
X67781968Y-109447396D01*
X67818228Y-109359858D01*
X67854486Y-109272322D01*
X67871993Y-109246121D01*
X67959763Y-109114763D01*
X68093763Y-108980763D01*
X68251321Y-108875487D01*
X68251322Y-108875486D01*
X68426396Y-108802968D01*
X68612250Y-108766000D01*
X68801750Y-108766000D01*
X68987604Y-108802968D01*
X68987604Y-108802968D01*
G37*
G36*
X219660404Y-108802968D02*
G01*
X219747942Y-108839228D01*
X219835478Y-108875486D01*
X219835479Y-108875487D01*
X219993037Y-108980763D01*
X220127037Y-109114763D01*
X220214807Y-109246121D01*
X220232314Y-109272322D01*
X220268572Y-109359858D01*
X220304832Y-109447396D01*
X220341800Y-109633250D01*
X220341800Y-109822750D01*
X220304832Y-110008604D01*
X220268572Y-110096142D01*
X220232314Y-110183678D01*
X220232313Y-110183679D01*
X220127037Y-110341237D01*
X219993037Y-110475237D01*
X219861679Y-110563007D01*
X219835478Y-110580514D01*
X219747942Y-110616772D01*
X219660404Y-110653032D01*
X219474550Y-110690000D01*
X219285050Y-110690000D01*
X219099196Y-110653032D01*
X219011658Y-110616772D01*
X218924122Y-110580514D01*
X218897921Y-110563007D01*
X218766563Y-110475237D01*
X218632563Y-110341237D01*
X218527287Y-110183679D01*
X218527286Y-110183678D01*
X218491028Y-110096142D01*
X218454768Y-110008604D01*
X218417800Y-109822750D01*
X218417800Y-109633250D01*
X218454768Y-109447396D01*
X218491028Y-109359858D01*
X218527286Y-109272322D01*
X218544793Y-109246121D01*
X218632563Y-109114763D01*
X218766563Y-108980763D01*
X218924121Y-108875487D01*
X218924122Y-108875486D01*
X219099196Y-108802968D01*
X219285050Y-108766000D01*
X219474550Y-108766000D01*
X219660404Y-108802968D01*
X219660404Y-108802968D01*
G37*
G36*
X76607604Y-108802968D02*
G01*
X76695142Y-108839228D01*
X76782678Y-108875486D01*
X76782679Y-108875487D01*
X76940237Y-108980763D01*
X77074237Y-109114763D01*
X77162007Y-109246121D01*
X77179514Y-109272322D01*
X77215772Y-109359858D01*
X77252032Y-109447396D01*
X77289000Y-109633250D01*
X77289000Y-109822750D01*
X77252032Y-110008604D01*
X77179514Y-110183678D01*
X77179513Y-110183679D01*
X77074237Y-110341237D01*
X76940237Y-110475237D01*
X76808879Y-110563007D01*
X76782678Y-110580514D01*
X76695142Y-110616772D01*
X76607604Y-110653032D01*
X76421750Y-110690000D01*
X76232250Y-110690000D01*
X76046396Y-110653032D01*
X75958858Y-110616772D01*
X75871322Y-110580514D01*
X75845121Y-110563007D01*
X75713763Y-110475237D01*
X75579763Y-110341237D01*
X75474487Y-110183679D01*
X75474486Y-110183678D01*
X75401968Y-110008604D01*
X75365000Y-109822750D01*
X75365000Y-109633250D01*
X75401968Y-109447396D01*
X75438228Y-109359858D01*
X75474486Y-109272322D01*
X75491993Y-109246121D01*
X75579763Y-109114763D01*
X75713763Y-108980763D01*
X75871321Y-108875487D01*
X75871322Y-108875486D01*
X76046396Y-108802968D01*
X76232250Y-108766000D01*
X76421750Y-108766000D01*
X76607604Y-108802968D01*
X76607604Y-108802968D01*
G37*
G36*
X79147604Y-108802968D02*
G01*
X79235142Y-108839228D01*
X79322678Y-108875486D01*
X79322679Y-108875487D01*
X79480237Y-108980763D01*
X79614237Y-109114763D01*
X79702007Y-109246121D01*
X79719514Y-109272322D01*
X79755772Y-109359858D01*
X79792032Y-109447396D01*
X79829000Y-109633250D01*
X79829000Y-109822750D01*
X79792032Y-110008604D01*
X79719514Y-110183678D01*
X79719513Y-110183679D01*
X79614237Y-110341237D01*
X79480237Y-110475237D01*
X79348879Y-110563007D01*
X79322678Y-110580514D01*
X79235142Y-110616772D01*
X79147604Y-110653032D01*
X78961750Y-110690000D01*
X78772250Y-110690000D01*
X78586396Y-110653032D01*
X78498858Y-110616772D01*
X78411322Y-110580514D01*
X78385121Y-110563007D01*
X78253763Y-110475237D01*
X78119763Y-110341237D01*
X78014487Y-110183679D01*
X78014486Y-110183678D01*
X77941968Y-110008604D01*
X77905000Y-109822750D01*
X77905000Y-109633250D01*
X77941968Y-109447396D01*
X77978228Y-109359858D01*
X78014486Y-109272322D01*
X78031993Y-109246121D01*
X78119763Y-109114763D01*
X78253763Y-108980763D01*
X78411321Y-108875487D01*
X78411322Y-108875486D01*
X78586396Y-108802968D01*
X78772250Y-108766000D01*
X78961750Y-108766000D01*
X79147604Y-108802968D01*
X79147604Y-108802968D01*
G37*
G36*
X71527604Y-108802968D02*
G01*
X71615142Y-108839228D01*
X71702678Y-108875486D01*
X71702679Y-108875487D01*
X71860237Y-108980763D01*
X71994237Y-109114763D01*
X72082007Y-109246121D01*
X72099514Y-109272322D01*
X72135772Y-109359858D01*
X72172032Y-109447396D01*
X72209000Y-109633250D01*
X72209000Y-109822750D01*
X72172032Y-110008604D01*
X72099514Y-110183678D01*
X72099513Y-110183679D01*
X71994237Y-110341237D01*
X71860237Y-110475237D01*
X71728879Y-110563007D01*
X71702678Y-110580514D01*
X71615142Y-110616772D01*
X71527604Y-110653032D01*
X71341750Y-110690000D01*
X71152250Y-110690000D01*
X70966396Y-110653032D01*
X70878858Y-110616772D01*
X70791322Y-110580514D01*
X70765121Y-110563007D01*
X70633763Y-110475237D01*
X70499763Y-110341237D01*
X70394487Y-110183679D01*
X70394486Y-110183678D01*
X70321968Y-110008604D01*
X70285000Y-109822750D01*
X70285000Y-109633250D01*
X70321968Y-109447396D01*
X70358228Y-109359858D01*
X70394486Y-109272322D01*
X70411993Y-109246121D01*
X70499763Y-109114763D01*
X70633763Y-108980763D01*
X70791321Y-108875487D01*
X70791322Y-108875486D01*
X70966396Y-108802968D01*
X71152250Y-108766000D01*
X71341750Y-108766000D01*
X71527604Y-108802968D01*
X71527604Y-108802968D01*
G37*
G36*
X74067604Y-108802968D02*
G01*
X74155142Y-108839228D01*
X74242678Y-108875486D01*
X74242679Y-108875487D01*
X74400237Y-108980763D01*
X74534237Y-109114763D01*
X74622007Y-109246121D01*
X74639514Y-109272322D01*
X74675772Y-109359858D01*
X74712032Y-109447396D01*
X74749000Y-109633250D01*
X74749000Y-109822750D01*
X74712032Y-110008604D01*
X74639514Y-110183678D01*
X74639513Y-110183679D01*
X74534237Y-110341237D01*
X74400237Y-110475237D01*
X74268879Y-110563007D01*
X74242678Y-110580514D01*
X74155142Y-110616772D01*
X74067604Y-110653032D01*
X73881750Y-110690000D01*
X73692250Y-110690000D01*
X73506396Y-110653032D01*
X73418858Y-110616772D01*
X73331322Y-110580514D01*
X73305121Y-110563007D01*
X73173763Y-110475237D01*
X73039763Y-110341237D01*
X72934487Y-110183679D01*
X72934486Y-110183678D01*
X72861968Y-110008604D01*
X72825000Y-109822750D01*
X72825000Y-109633250D01*
X72861968Y-109447396D01*
X72898228Y-109359858D01*
X72934486Y-109272322D01*
X72951993Y-109246121D01*
X73039763Y-109114763D01*
X73173763Y-108980763D01*
X73331321Y-108875487D01*
X73331322Y-108875486D01*
X73506396Y-108802968D01*
X73692250Y-108766000D01*
X73881750Y-108766000D01*
X74067604Y-108802968D01*
X74067604Y-108802968D01*
G37*
G36*
X154800775Y-102232197D02*
G01*
X154977229Y-102267296D01*
X155169272Y-102346843D01*
X155467790Y-102470493D01*
X155475877Y-102473843D01*
X155924648Y-102773703D01*
X156306297Y-103155352D01*
X156597159Y-103590656D01*
X156606158Y-103604125D01*
X156812704Y-104102772D01*
X156918000Y-104632132D01*
X156918000Y-105171868D01*
X156847803Y-105524775D01*
X156812704Y-105701229D01*
X156606157Y-106199877D01*
X156306297Y-106648648D01*
X155924648Y-107030297D01*
X155475877Y-107330157D01*
X154977229Y-107536704D01*
X154800775Y-107571803D01*
X154447868Y-107642000D01*
X153908132Y-107642000D01*
X153555225Y-107571803D01*
X153378771Y-107536704D01*
X152880123Y-107330157D01*
X152431352Y-107030297D01*
X152049703Y-106648648D01*
X151749843Y-106199877D01*
X151543296Y-105701229D01*
X151508197Y-105524775D01*
X151438000Y-105171868D01*
X151438000Y-104632132D01*
X151543296Y-104102772D01*
X151749842Y-103604125D01*
X151758842Y-103590656D01*
X152049703Y-103155352D01*
X152431352Y-102773703D01*
X152880123Y-102473843D01*
X152888211Y-102470493D01*
X153186728Y-102346843D01*
X153378771Y-102267296D01*
X153555225Y-102232197D01*
X153908132Y-102162000D01*
X154447868Y-102162000D01*
X154800775Y-102232197D01*
X154800775Y-102232197D01*
G37*
G36*
X89141775Y-102105197D02*
G01*
X89318229Y-102140296D01*
X89816877Y-102346843D01*
X90265648Y-102646703D01*
X90647297Y-103028352D01*
X90947157Y-103477123D01*
X91138349Y-103938700D01*
X91153704Y-103975772D01*
X91259000Y-104505132D01*
X91259000Y-105044868D01*
X91233738Y-105171868D01*
X91153704Y-105574229D01*
X91082324Y-105746555D01*
X90969060Y-106020000D01*
X90947157Y-106072877D01*
X90647297Y-106521648D01*
X90265648Y-106903297D01*
X89816877Y-107203157D01*
X89318229Y-107409704D01*
X89141775Y-107444803D01*
X88788868Y-107515000D01*
X88249132Y-107515000D01*
X87896225Y-107444803D01*
X87719771Y-107409704D01*
X87221123Y-107203157D01*
X86772352Y-106903297D01*
X86390703Y-106521648D01*
X86090843Y-106072877D01*
X86068941Y-106020000D01*
X85955676Y-105746555D01*
X85884296Y-105574229D01*
X85804262Y-105171868D01*
X85779000Y-105044868D01*
X85779000Y-104505132D01*
X85884296Y-103975772D01*
X85899652Y-103938700D01*
X86090843Y-103477123D01*
X86390703Y-103028352D01*
X86772352Y-102646703D01*
X87221123Y-102346843D01*
X87719771Y-102140296D01*
X87896225Y-102105197D01*
X88249132Y-102035000D01*
X88788868Y-102035000D01*
X89141775Y-102105197D01*
X89141775Y-102105197D01*
G37*
G36*
X97015775Y-102105197D02*
G01*
X97192229Y-102140296D01*
X97690877Y-102346843D01*
X98139648Y-102646703D01*
X98521297Y-103028352D01*
X98821157Y-103477123D01*
X99012349Y-103938700D01*
X99027704Y-103975772D01*
X99133000Y-104505132D01*
X99133000Y-105044868D01*
X99107738Y-105171868D01*
X99027704Y-105574229D01*
X98956324Y-105746555D01*
X98843060Y-106020000D01*
X98821157Y-106072877D01*
X98521297Y-106521648D01*
X98139648Y-106903297D01*
X97690877Y-107203157D01*
X97192229Y-107409704D01*
X97015775Y-107444803D01*
X96662868Y-107515000D01*
X96123132Y-107515000D01*
X95770225Y-107444803D01*
X95593771Y-107409704D01*
X95095123Y-107203157D01*
X94646352Y-106903297D01*
X94264703Y-106521648D01*
X93964843Y-106072877D01*
X93942941Y-106020000D01*
X93829676Y-105746555D01*
X93758296Y-105574229D01*
X93678262Y-105171868D01*
X93653000Y-105044868D01*
X93653000Y-104505132D01*
X93758296Y-103975772D01*
X93773652Y-103938700D01*
X93964843Y-103477123D01*
X94264703Y-103028352D01*
X94646352Y-102646703D01*
X95095123Y-102346843D01*
X95593771Y-102140296D01*
X95770225Y-102105197D01*
X96123132Y-102035000D01*
X96662868Y-102035000D01*
X97015775Y-102105197D01*
X97015775Y-102105197D01*
G37*
G36*
X104889775Y-102105197D02*
G01*
X105066229Y-102140296D01*
X105564877Y-102346843D01*
X106013648Y-102646703D01*
X106395297Y-103028352D01*
X106695157Y-103477123D01*
X106886349Y-103938700D01*
X106901704Y-103975772D01*
X107007000Y-104505132D01*
X107007000Y-105044868D01*
X106981738Y-105171868D01*
X106901704Y-105574229D01*
X106830324Y-105746555D01*
X106717060Y-106020000D01*
X106695157Y-106072877D01*
X106395297Y-106521648D01*
X106013648Y-106903297D01*
X105564877Y-107203157D01*
X105066229Y-107409704D01*
X104889775Y-107444803D01*
X104536868Y-107515000D01*
X103997132Y-107515000D01*
X103644225Y-107444803D01*
X103467771Y-107409704D01*
X102969123Y-107203157D01*
X102520352Y-106903297D01*
X102138703Y-106521648D01*
X101838843Y-106072877D01*
X101816941Y-106020000D01*
X101703676Y-105746555D01*
X101632296Y-105574229D01*
X101552262Y-105171868D01*
X101527000Y-105044868D01*
X101527000Y-104505132D01*
X101632296Y-103975772D01*
X101647652Y-103938700D01*
X101838843Y-103477123D01*
X102138703Y-103028352D01*
X102520352Y-102646703D01*
X102969123Y-102346843D01*
X103467771Y-102140296D01*
X103644225Y-102105197D01*
X103997132Y-102035000D01*
X104536868Y-102035000D01*
X104889775Y-102105197D01*
X104889775Y-102105197D01*
G37*
G36*
X184391775Y-102105197D02*
G01*
X184568229Y-102140296D01*
X185066877Y-102346843D01*
X185515648Y-102646703D01*
X185897297Y-103028352D01*
X186197157Y-103477123D01*
X186388349Y-103938700D01*
X186403704Y-103975772D01*
X186509000Y-104505132D01*
X186509000Y-105044868D01*
X186483738Y-105171868D01*
X186403704Y-105574229D01*
X186332324Y-105746555D01*
X186219060Y-106020000D01*
X186197157Y-106072877D01*
X185897297Y-106521648D01*
X185515648Y-106903297D01*
X185066877Y-107203157D01*
X184568229Y-107409704D01*
X184391775Y-107444803D01*
X184038868Y-107515000D01*
X183499132Y-107515000D01*
X183146225Y-107444803D01*
X182969771Y-107409704D01*
X182471123Y-107203157D01*
X182022352Y-106903297D01*
X181640703Y-106521648D01*
X181340843Y-106072877D01*
X181318941Y-106020000D01*
X181205676Y-105746555D01*
X181134296Y-105574229D01*
X181054262Y-105171868D01*
X181029000Y-105044868D01*
X181029000Y-104505132D01*
X181134296Y-103975772D01*
X181149652Y-103938700D01*
X181340843Y-103477123D01*
X181640703Y-103028352D01*
X182022352Y-102646703D01*
X182471123Y-102346843D01*
X182969771Y-102140296D01*
X183146225Y-102105197D01*
X183499132Y-102035000D01*
X184038868Y-102035000D01*
X184391775Y-102105197D01*
X184391775Y-102105197D01*
G37*
G36*
X192265775Y-102105197D02*
G01*
X192442229Y-102140296D01*
X192940877Y-102346843D01*
X193389648Y-102646703D01*
X193771297Y-103028352D01*
X194071157Y-103477123D01*
X194262349Y-103938700D01*
X194277704Y-103975772D01*
X194383000Y-104505132D01*
X194383000Y-105044868D01*
X194357738Y-105171868D01*
X194277704Y-105574229D01*
X194206324Y-105746555D01*
X194093060Y-106020000D01*
X194071157Y-106072877D01*
X193771297Y-106521648D01*
X193389648Y-106903297D01*
X192940877Y-107203157D01*
X192442229Y-107409704D01*
X192265775Y-107444803D01*
X191912868Y-107515000D01*
X191373132Y-107515000D01*
X191020225Y-107444803D01*
X190843771Y-107409704D01*
X190345123Y-107203157D01*
X189896352Y-106903297D01*
X189514703Y-106521648D01*
X189214843Y-106072877D01*
X189192941Y-106020000D01*
X189079676Y-105746555D01*
X189008296Y-105574229D01*
X188928262Y-105171868D01*
X188903000Y-105044868D01*
X188903000Y-104505132D01*
X189008296Y-103975772D01*
X189023652Y-103938700D01*
X189214843Y-103477123D01*
X189514703Y-103028352D01*
X189896352Y-102646703D01*
X190345123Y-102346843D01*
X190843771Y-102140296D01*
X191020225Y-102105197D01*
X191373132Y-102035000D01*
X191912868Y-102035000D01*
X192265775Y-102105197D01*
X192265775Y-102105197D01*
G37*
G36*
X200139775Y-102105197D02*
G01*
X200316229Y-102140296D01*
X200814877Y-102346843D01*
X201263648Y-102646703D01*
X201645297Y-103028352D01*
X201945157Y-103477123D01*
X202136349Y-103938700D01*
X202151704Y-103975772D01*
X202257000Y-104505132D01*
X202257000Y-105044868D01*
X202231738Y-105171868D01*
X202151704Y-105574229D01*
X202080324Y-105746555D01*
X201967060Y-106020000D01*
X201945157Y-106072877D01*
X201645297Y-106521648D01*
X201263648Y-106903297D01*
X200814877Y-107203157D01*
X200316229Y-107409704D01*
X200139775Y-107444803D01*
X199786868Y-107515000D01*
X199247132Y-107515000D01*
X198894225Y-107444803D01*
X198717771Y-107409704D01*
X198219123Y-107203157D01*
X197770352Y-106903297D01*
X197388703Y-106521648D01*
X197088843Y-106072877D01*
X197066941Y-106020000D01*
X196953676Y-105746555D01*
X196882296Y-105574229D01*
X196802262Y-105171868D01*
X196777000Y-105044868D01*
X196777000Y-104505132D01*
X196882296Y-103975772D01*
X196897652Y-103938700D01*
X197088843Y-103477123D01*
X197388703Y-103028352D01*
X197770352Y-102646703D01*
X198219123Y-102346843D01*
X198717771Y-102140296D01*
X198894225Y-102105197D01*
X199247132Y-102035000D01*
X199786868Y-102035000D01*
X200139775Y-102105197D01*
X200139775Y-102105197D01*
G37*
G36*
X229508630Y-105769577D02*
G01*
X229560110Y-105785193D01*
X229607545Y-105810548D01*
X229649127Y-105844673D01*
X229683252Y-105886255D01*
X229708607Y-105933690D01*
X229724223Y-105985170D01*
X229730100Y-106044840D01*
X229730100Y-106832560D01*
X229724223Y-106892230D01*
X229708607Y-106943710D01*
X229683252Y-106991145D01*
X229649127Y-107032727D01*
X229607545Y-107066852D01*
X229560110Y-107092207D01*
X229508630Y-107107823D01*
X229448960Y-107113700D01*
X228561240Y-107113700D01*
X228501570Y-107107823D01*
X228450090Y-107092207D01*
X228402655Y-107066852D01*
X228361073Y-107032727D01*
X228326948Y-106991145D01*
X228301593Y-106943710D01*
X228285977Y-106892230D01*
X228280100Y-106832560D01*
X228280100Y-106044840D01*
X228285977Y-105985170D01*
X228301593Y-105933690D01*
X228326948Y-105886255D01*
X228361073Y-105844673D01*
X228402655Y-105810548D01*
X228450090Y-105785193D01*
X228501570Y-105769577D01*
X228561240Y-105763700D01*
X229448960Y-105763700D01*
X229508630Y-105769577D01*
X229508630Y-105769577D01*
G37*
G36*
X227758630Y-105769577D02*
G01*
X227810110Y-105785193D01*
X227857545Y-105810548D01*
X227899127Y-105844673D01*
X227933252Y-105886255D01*
X227958607Y-105933690D01*
X227974223Y-105985170D01*
X227980100Y-106044840D01*
X227980100Y-106832560D01*
X227974223Y-106892230D01*
X227958607Y-106943710D01*
X227933252Y-106991145D01*
X227899127Y-107032727D01*
X227857545Y-107066852D01*
X227810110Y-107092207D01*
X227758630Y-107107823D01*
X227698960Y-107113700D01*
X226811240Y-107113700D01*
X226751570Y-107107823D01*
X226700090Y-107092207D01*
X226652655Y-107066852D01*
X226611073Y-107032727D01*
X226576948Y-106991145D01*
X226551593Y-106943710D01*
X226535977Y-106892230D01*
X226530100Y-106832560D01*
X226530100Y-106044840D01*
X226535977Y-105985170D01*
X226551593Y-105933690D01*
X226576948Y-105886255D01*
X226611073Y-105844673D01*
X226652655Y-105810548D01*
X226700090Y-105785193D01*
X226751570Y-105769577D01*
X226811240Y-105763700D01*
X227698960Y-105763700D01*
X227758630Y-105769577D01*
X227758630Y-105769577D01*
G37*
G36*
X223313630Y-105769577D02*
G01*
X223365110Y-105785193D01*
X223412545Y-105810548D01*
X223454127Y-105844673D01*
X223488252Y-105886255D01*
X223513607Y-105933690D01*
X223529223Y-105985170D01*
X223535100Y-106044840D01*
X223535100Y-106832560D01*
X223529223Y-106892230D01*
X223513607Y-106943710D01*
X223488252Y-106991145D01*
X223454127Y-107032727D01*
X223412545Y-107066852D01*
X223365110Y-107092207D01*
X223313630Y-107107823D01*
X223253960Y-107113700D01*
X222366240Y-107113700D01*
X222306570Y-107107823D01*
X222255090Y-107092207D01*
X222207655Y-107066852D01*
X222166073Y-107032727D01*
X222131948Y-106991145D01*
X222106593Y-106943710D01*
X222090977Y-106892230D01*
X222085100Y-106832560D01*
X222085100Y-106044840D01*
X222090977Y-105985170D01*
X222106593Y-105933690D01*
X222131948Y-105886255D01*
X222166073Y-105844673D01*
X222207655Y-105810548D01*
X222255090Y-105785193D01*
X222306570Y-105769577D01*
X222366240Y-105763700D01*
X223253960Y-105763700D01*
X223313630Y-105769577D01*
X223313630Y-105769577D01*
G37*
G36*
X225063630Y-105769577D02*
G01*
X225115110Y-105785193D01*
X225162545Y-105810548D01*
X225204127Y-105844673D01*
X225238252Y-105886255D01*
X225263607Y-105933690D01*
X225279223Y-105985170D01*
X225285100Y-106044840D01*
X225285100Y-106832560D01*
X225279223Y-106892230D01*
X225263607Y-106943710D01*
X225238252Y-106991145D01*
X225204127Y-107032727D01*
X225162545Y-107066852D01*
X225115110Y-107092207D01*
X225063630Y-107107823D01*
X225003960Y-107113700D01*
X224116240Y-107113700D01*
X224056570Y-107107823D01*
X224005090Y-107092207D01*
X223957655Y-107066852D01*
X223916073Y-107032727D01*
X223881948Y-106991145D01*
X223856593Y-106943710D01*
X223840977Y-106892230D01*
X223835100Y-106832560D01*
X223835100Y-106044840D01*
X223840977Y-105985170D01*
X223856593Y-105933690D01*
X223881948Y-105886255D01*
X223916073Y-105844673D01*
X223957655Y-105810548D01*
X224005090Y-105785193D01*
X224056570Y-105769577D01*
X224116240Y-105763700D01*
X225003960Y-105763700D01*
X225063630Y-105769577D01*
X225063630Y-105769577D01*
G37*
G36*
X62225530Y-105629877D02*
G01*
X62277010Y-105645493D01*
X62324445Y-105670848D01*
X62366027Y-105704973D01*
X62400152Y-105746555D01*
X62425507Y-105793990D01*
X62441123Y-105845470D01*
X62447000Y-105905140D01*
X62447000Y-106692860D01*
X62441123Y-106752530D01*
X62425507Y-106804010D01*
X62400152Y-106851445D01*
X62366027Y-106893027D01*
X62324445Y-106927152D01*
X62277010Y-106952507D01*
X62225530Y-106968123D01*
X62165860Y-106974000D01*
X61278140Y-106974000D01*
X61218470Y-106968123D01*
X61166990Y-106952507D01*
X61119555Y-106927152D01*
X61077973Y-106893027D01*
X61043848Y-106851445D01*
X61018493Y-106804010D01*
X61002877Y-106752530D01*
X60997000Y-106692860D01*
X60997000Y-105905140D01*
X61002877Y-105845470D01*
X61018493Y-105793990D01*
X61043848Y-105746555D01*
X61077973Y-105704973D01*
X61119555Y-105670848D01*
X61166990Y-105645493D01*
X61218470Y-105629877D01*
X61278140Y-105624000D01*
X62165860Y-105624000D01*
X62225530Y-105629877D01*
X62225530Y-105629877D01*
G37*
G36*
X66684530Y-105629877D02*
G01*
X66736010Y-105645493D01*
X66783445Y-105670848D01*
X66825027Y-105704973D01*
X66859152Y-105746555D01*
X66884507Y-105793990D01*
X66900123Y-105845470D01*
X66906000Y-105905140D01*
X66906000Y-106692860D01*
X66900123Y-106752530D01*
X66884507Y-106804010D01*
X66859152Y-106851445D01*
X66825027Y-106893027D01*
X66783445Y-106927152D01*
X66736010Y-106952507D01*
X66684530Y-106968123D01*
X66624860Y-106974000D01*
X65737140Y-106974000D01*
X65677470Y-106968123D01*
X65625990Y-106952507D01*
X65578555Y-106927152D01*
X65536973Y-106893027D01*
X65502848Y-106851445D01*
X65477493Y-106804010D01*
X65461877Y-106752530D01*
X65456000Y-106692860D01*
X65456000Y-105905140D01*
X65461877Y-105845470D01*
X65477493Y-105793990D01*
X65502848Y-105746555D01*
X65536973Y-105704973D01*
X65578555Y-105670848D01*
X65625990Y-105645493D01*
X65677470Y-105629877D01*
X65737140Y-105624000D01*
X66624860Y-105624000D01*
X66684530Y-105629877D01*
X66684530Y-105629877D01*
G37*
G36*
X68434530Y-105629877D02*
G01*
X68486010Y-105645493D01*
X68533445Y-105670848D01*
X68575027Y-105704973D01*
X68609152Y-105746555D01*
X68634507Y-105793990D01*
X68650123Y-105845470D01*
X68656000Y-105905140D01*
X68656000Y-106692860D01*
X68650123Y-106752530D01*
X68634507Y-106804010D01*
X68609152Y-106851445D01*
X68575027Y-106893027D01*
X68533445Y-106927152D01*
X68486010Y-106952507D01*
X68434530Y-106968123D01*
X68374860Y-106974000D01*
X67487140Y-106974000D01*
X67427470Y-106968123D01*
X67375990Y-106952507D01*
X67328555Y-106927152D01*
X67286973Y-106893027D01*
X67252848Y-106851445D01*
X67227493Y-106804010D01*
X67211877Y-106752530D01*
X67206000Y-106692860D01*
X67206000Y-105905140D01*
X67211877Y-105845470D01*
X67227493Y-105793990D01*
X67252848Y-105746555D01*
X67286973Y-105704973D01*
X67328555Y-105670848D01*
X67375990Y-105645493D01*
X67427470Y-105629877D01*
X67487140Y-105624000D01*
X68374860Y-105624000D01*
X68434530Y-105629877D01*
X68434530Y-105629877D01*
G37*
G36*
X63975530Y-105629877D02*
G01*
X64027010Y-105645493D01*
X64074445Y-105670848D01*
X64116027Y-105704973D01*
X64150152Y-105746555D01*
X64175507Y-105793990D01*
X64191123Y-105845470D01*
X64197000Y-105905140D01*
X64197000Y-106692860D01*
X64191123Y-106752530D01*
X64175507Y-106804010D01*
X64150152Y-106851445D01*
X64116027Y-106893027D01*
X64074445Y-106927152D01*
X64027010Y-106952507D01*
X63975530Y-106968123D01*
X63915860Y-106974000D01*
X63028140Y-106974000D01*
X62968470Y-106968123D01*
X62916990Y-106952507D01*
X62869555Y-106927152D01*
X62827973Y-106893027D01*
X62793848Y-106851445D01*
X62768493Y-106804010D01*
X62752877Y-106752530D01*
X62747000Y-106692860D01*
X62747000Y-105905140D01*
X62752877Y-105845470D01*
X62768493Y-105793990D01*
X62793848Y-105746555D01*
X62827973Y-105704973D01*
X62869555Y-105670848D01*
X62916990Y-105645493D01*
X62968470Y-105629877D01*
X63028140Y-105624000D01*
X63915860Y-105624000D01*
X63975530Y-105629877D01*
X63975530Y-105629877D01*
G37*
G36*
X80041704Y-99742974D02*
G01*
X80624067Y-99984196D01*
X80624068Y-99984197D01*
X81148181Y-100334398D01*
X81593902Y-100780119D01*
X81605282Y-100797151D01*
X81944104Y-101304233D01*
X82185326Y-101886596D01*
X82308300Y-102504826D01*
X82308300Y-103135174D01*
X82185326Y-103753404D01*
X81944104Y-104335767D01*
X81944103Y-104335768D01*
X81593902Y-104859881D01*
X81148181Y-105305602D01*
X80797979Y-105539599D01*
X80624067Y-105655804D01*
X80041704Y-105897026D01*
X79423474Y-106020000D01*
X78793126Y-106020000D01*
X78174896Y-105897026D01*
X77592533Y-105655804D01*
X77418621Y-105539599D01*
X77068419Y-105305602D01*
X76622698Y-104859881D01*
X76272497Y-104335768D01*
X76272496Y-104335767D01*
X76031274Y-103753404D01*
X75908300Y-103135174D01*
X75908300Y-102504826D01*
X76031274Y-101886596D01*
X76272496Y-101304233D01*
X76611318Y-100797151D01*
X76622698Y-100780119D01*
X77068419Y-100334398D01*
X77592532Y-99984197D01*
X77592533Y-99984196D01*
X78174896Y-99742974D01*
X78793126Y-99620000D01*
X79423474Y-99620000D01*
X80041704Y-99742974D01*
X80041704Y-99742974D01*
G37*
G36*
X229508630Y-102594577D02*
G01*
X229560110Y-102610193D01*
X229607545Y-102635548D01*
X229649127Y-102669673D01*
X229683252Y-102711255D01*
X229708607Y-102758690D01*
X229724223Y-102810170D01*
X229730100Y-102869840D01*
X229730100Y-103657560D01*
X229724223Y-103717230D01*
X229708607Y-103768710D01*
X229683252Y-103816145D01*
X229649127Y-103857727D01*
X229607545Y-103891852D01*
X229560110Y-103917207D01*
X229508630Y-103932823D01*
X229448960Y-103938700D01*
X228561240Y-103938700D01*
X228501570Y-103932823D01*
X228450090Y-103917207D01*
X228402655Y-103891852D01*
X228361073Y-103857727D01*
X228326948Y-103816145D01*
X228301593Y-103768710D01*
X228285977Y-103717230D01*
X228280100Y-103657560D01*
X228280100Y-102869840D01*
X228285977Y-102810170D01*
X228301593Y-102758690D01*
X228326948Y-102711255D01*
X228361073Y-102669673D01*
X228402655Y-102635548D01*
X228450090Y-102610193D01*
X228501570Y-102594577D01*
X228561240Y-102588700D01*
X229448960Y-102588700D01*
X229508630Y-102594577D01*
X229508630Y-102594577D01*
G37*
G36*
X227758630Y-102594577D02*
G01*
X227810110Y-102610193D01*
X227857545Y-102635548D01*
X227899127Y-102669673D01*
X227933252Y-102711255D01*
X227958607Y-102758690D01*
X227974223Y-102810170D01*
X227980100Y-102869840D01*
X227980100Y-103657560D01*
X227974223Y-103717230D01*
X227958607Y-103768710D01*
X227933252Y-103816145D01*
X227899127Y-103857727D01*
X227857545Y-103891852D01*
X227810110Y-103917207D01*
X227758630Y-103932823D01*
X227698960Y-103938700D01*
X226811240Y-103938700D01*
X226751570Y-103932823D01*
X226700090Y-103917207D01*
X226652655Y-103891852D01*
X226611073Y-103857727D01*
X226576948Y-103816145D01*
X226551593Y-103768710D01*
X226535977Y-103717230D01*
X226530100Y-103657560D01*
X226530100Y-102869840D01*
X226535977Y-102810170D01*
X226551593Y-102758690D01*
X226576948Y-102711255D01*
X226611073Y-102669673D01*
X226652655Y-102635548D01*
X226700090Y-102610193D01*
X226751570Y-102594577D01*
X226811240Y-102588700D01*
X227698960Y-102588700D01*
X227758630Y-102594577D01*
X227758630Y-102594577D01*
G37*
G36*
X223313630Y-102594577D02*
G01*
X223365110Y-102610193D01*
X223412545Y-102635548D01*
X223454127Y-102669673D01*
X223488252Y-102711255D01*
X223513607Y-102758690D01*
X223529223Y-102810170D01*
X223535100Y-102869840D01*
X223535100Y-103657560D01*
X223529223Y-103717230D01*
X223513607Y-103768710D01*
X223488252Y-103816145D01*
X223454127Y-103857727D01*
X223412545Y-103891852D01*
X223365110Y-103917207D01*
X223313630Y-103932823D01*
X223253960Y-103938700D01*
X222366240Y-103938700D01*
X222306570Y-103932823D01*
X222255090Y-103917207D01*
X222207655Y-103891852D01*
X222166073Y-103857727D01*
X222131948Y-103816145D01*
X222106593Y-103768710D01*
X222090977Y-103717230D01*
X222085100Y-103657560D01*
X222085100Y-102869840D01*
X222090977Y-102810170D01*
X222106593Y-102758690D01*
X222131948Y-102711255D01*
X222166073Y-102669673D01*
X222207655Y-102635548D01*
X222255090Y-102610193D01*
X222306570Y-102594577D01*
X222366240Y-102588700D01*
X223253960Y-102588700D01*
X223313630Y-102594577D01*
X223313630Y-102594577D01*
G37*
G36*
X225063630Y-102594577D02*
G01*
X225115110Y-102610193D01*
X225162545Y-102635548D01*
X225204127Y-102669673D01*
X225238252Y-102711255D01*
X225263607Y-102758690D01*
X225279223Y-102810170D01*
X225285100Y-102869840D01*
X225285100Y-103657560D01*
X225279223Y-103717230D01*
X225263607Y-103768710D01*
X225238252Y-103816145D01*
X225204127Y-103857727D01*
X225162545Y-103891852D01*
X225115110Y-103917207D01*
X225063630Y-103932823D01*
X225003960Y-103938700D01*
X224116240Y-103938700D01*
X224056570Y-103932823D01*
X224005090Y-103917207D01*
X223957655Y-103891852D01*
X223916073Y-103857727D01*
X223881948Y-103816145D01*
X223856593Y-103768710D01*
X223840977Y-103717230D01*
X223835100Y-103657560D01*
X223835100Y-102869840D01*
X223840977Y-102810170D01*
X223856593Y-102758690D01*
X223881948Y-102711255D01*
X223916073Y-102669673D01*
X223957655Y-102635548D01*
X224005090Y-102610193D01*
X224056570Y-102594577D01*
X224116240Y-102588700D01*
X225003960Y-102588700D01*
X225063630Y-102594577D01*
X225063630Y-102594577D01*
G37*
G36*
X68434530Y-102454877D02*
G01*
X68486010Y-102470493D01*
X68533445Y-102495848D01*
X68575027Y-102529973D01*
X68609152Y-102571555D01*
X68634507Y-102618990D01*
X68650123Y-102670470D01*
X68656000Y-102730140D01*
X68656000Y-103517860D01*
X68650123Y-103577530D01*
X68634507Y-103629010D01*
X68609152Y-103676445D01*
X68575027Y-103718027D01*
X68533445Y-103752152D01*
X68486010Y-103777507D01*
X68434530Y-103793123D01*
X68374860Y-103799000D01*
X67487140Y-103799000D01*
X67427470Y-103793123D01*
X67375990Y-103777507D01*
X67328555Y-103752152D01*
X67286973Y-103718027D01*
X67252848Y-103676445D01*
X67227493Y-103629010D01*
X67211877Y-103577530D01*
X67206000Y-103517860D01*
X67206000Y-102730140D01*
X67211877Y-102670470D01*
X67227493Y-102618990D01*
X67252848Y-102571555D01*
X67286973Y-102529973D01*
X67328555Y-102495848D01*
X67375990Y-102470493D01*
X67427470Y-102454877D01*
X67487140Y-102449000D01*
X68374860Y-102449000D01*
X68434530Y-102454877D01*
X68434530Y-102454877D01*
G37*
G36*
X63989530Y-102454877D02*
G01*
X64041010Y-102470493D01*
X64088445Y-102495848D01*
X64130027Y-102529973D01*
X64164152Y-102571555D01*
X64189507Y-102618990D01*
X64205123Y-102670470D01*
X64211000Y-102730140D01*
X64211000Y-103517860D01*
X64205123Y-103577530D01*
X64189507Y-103629010D01*
X64164152Y-103676445D01*
X64130027Y-103718027D01*
X64088445Y-103752152D01*
X64041010Y-103777507D01*
X63989530Y-103793123D01*
X63929860Y-103799000D01*
X63042140Y-103799000D01*
X62982470Y-103793123D01*
X62930990Y-103777507D01*
X62883555Y-103752152D01*
X62841973Y-103718027D01*
X62807848Y-103676445D01*
X62782493Y-103629010D01*
X62766877Y-103577530D01*
X62761000Y-103517860D01*
X62761000Y-102730140D01*
X62766877Y-102670470D01*
X62782493Y-102618990D01*
X62807848Y-102571555D01*
X62841973Y-102529973D01*
X62883555Y-102495848D01*
X62930990Y-102470493D01*
X62982470Y-102454877D01*
X63042140Y-102449000D01*
X63929860Y-102449000D01*
X63989530Y-102454877D01*
X63989530Y-102454877D01*
G37*
G36*
X62239530Y-102454877D02*
G01*
X62291010Y-102470493D01*
X62338445Y-102495848D01*
X62380027Y-102529973D01*
X62414152Y-102571555D01*
X62439507Y-102618990D01*
X62455123Y-102670470D01*
X62461000Y-102730140D01*
X62461000Y-103517860D01*
X62455123Y-103577530D01*
X62439507Y-103629010D01*
X62414152Y-103676445D01*
X62380027Y-103718027D01*
X62338445Y-103752152D01*
X62291010Y-103777507D01*
X62239530Y-103793123D01*
X62179860Y-103799000D01*
X61292140Y-103799000D01*
X61232470Y-103793123D01*
X61180990Y-103777507D01*
X61133555Y-103752152D01*
X61091973Y-103718027D01*
X61057848Y-103676445D01*
X61032493Y-103629010D01*
X61016877Y-103577530D01*
X61011000Y-103517860D01*
X61011000Y-102730140D01*
X61016877Y-102670470D01*
X61032493Y-102618990D01*
X61057848Y-102571555D01*
X61091973Y-102529973D01*
X61133555Y-102495848D01*
X61180990Y-102470493D01*
X61232470Y-102454877D01*
X61292140Y-102449000D01*
X62179860Y-102449000D01*
X62239530Y-102454877D01*
X62239530Y-102454877D01*
G37*
G36*
X66684530Y-102454877D02*
G01*
X66736010Y-102470493D01*
X66783445Y-102495848D01*
X66825027Y-102529973D01*
X66859152Y-102571555D01*
X66884507Y-102618990D01*
X66900123Y-102670470D01*
X66906000Y-102730140D01*
X66906000Y-103517860D01*
X66900123Y-103577530D01*
X66884507Y-103629010D01*
X66859152Y-103676445D01*
X66825027Y-103718027D01*
X66783445Y-103752152D01*
X66736010Y-103777507D01*
X66684530Y-103793123D01*
X66624860Y-103799000D01*
X65737140Y-103799000D01*
X65677470Y-103793123D01*
X65625990Y-103777507D01*
X65578555Y-103752152D01*
X65536973Y-103718027D01*
X65502848Y-103676445D01*
X65477493Y-103629010D01*
X65461877Y-103577530D01*
X65456000Y-103517860D01*
X65456000Y-102730140D01*
X65461877Y-102670470D01*
X65477493Y-102618990D01*
X65502848Y-102571555D01*
X65536973Y-102529973D01*
X65578555Y-102495848D01*
X65625990Y-102470493D01*
X65677470Y-102454877D01*
X65737140Y-102449000D01*
X66624860Y-102449000D01*
X66684530Y-102454877D01*
X66684530Y-102454877D01*
G37*
G36*
X205728148Y-93097068D02*
G01*
X205979305Y-93147026D01*
X206689060Y-93441016D01*
X207001527Y-93649800D01*
X207327821Y-93867823D01*
X207871045Y-94411047D01*
X208005184Y-94611800D01*
X208297852Y-95049808D01*
X208579648Y-95730123D01*
X208591842Y-95759564D01*
X208741717Y-96513033D01*
X208741717Y-97281269D01*
X208738415Y-97297868D01*
X208591842Y-98034739D01*
X208297852Y-98744494D01*
X208082999Y-99066044D01*
X207877997Y-99372851D01*
X207871044Y-99383256D01*
X207327822Y-99926478D01*
X206689060Y-100353286D01*
X206689059Y-100353287D01*
X206689058Y-100353287D01*
X206513030Y-100426200D01*
X205979305Y-100647276D01*
X205801081Y-100682727D01*
X205225835Y-100797151D01*
X204457599Y-100797151D01*
X203882353Y-100682727D01*
X203704129Y-100647276D01*
X203170404Y-100426200D01*
X202994376Y-100353287D01*
X202994375Y-100353287D01*
X202994374Y-100353286D01*
X202355612Y-99926478D01*
X201812390Y-99383256D01*
X201805438Y-99372851D01*
X201600435Y-99066044D01*
X201385582Y-98744494D01*
X201091592Y-98034739D01*
X200945019Y-97297868D01*
X200941717Y-97281269D01*
X200941717Y-96513033D01*
X201091592Y-95759564D01*
X201103787Y-95730123D01*
X201385582Y-95049808D01*
X201678250Y-94611800D01*
X201812389Y-94411047D01*
X202355613Y-93867823D01*
X202681907Y-93649800D01*
X202994374Y-93441016D01*
X203704129Y-93147026D01*
X203955286Y-93097068D01*
X204457599Y-92997151D01*
X205225835Y-92997151D01*
X205728148Y-93097068D01*
X205728148Y-93097068D01*
G37*
G36*
X227758630Y-99419577D02*
G01*
X227810110Y-99435193D01*
X227857545Y-99460548D01*
X227899127Y-99494673D01*
X227933252Y-99536255D01*
X227958607Y-99583690D01*
X227974223Y-99635170D01*
X227980100Y-99694840D01*
X227980100Y-100482560D01*
X227974223Y-100542230D01*
X227958607Y-100593710D01*
X227933252Y-100641145D01*
X227899127Y-100682727D01*
X227857545Y-100716852D01*
X227810110Y-100742207D01*
X227758630Y-100757823D01*
X227698960Y-100763700D01*
X226811240Y-100763700D01*
X226751570Y-100757823D01*
X226700090Y-100742207D01*
X226652655Y-100716852D01*
X226611073Y-100682727D01*
X226576948Y-100641145D01*
X226551593Y-100593710D01*
X226535977Y-100542230D01*
X226530100Y-100482560D01*
X226530100Y-99694840D01*
X226535977Y-99635170D01*
X226551593Y-99583690D01*
X226576948Y-99536255D01*
X226611073Y-99494673D01*
X226652655Y-99460548D01*
X226700090Y-99435193D01*
X226751570Y-99419577D01*
X226811240Y-99413700D01*
X227698960Y-99413700D01*
X227758630Y-99419577D01*
X227758630Y-99419577D01*
G37*
G36*
X229508630Y-99419577D02*
G01*
X229560110Y-99435193D01*
X229607545Y-99460548D01*
X229649127Y-99494673D01*
X229683252Y-99536255D01*
X229708607Y-99583690D01*
X229724223Y-99635170D01*
X229730100Y-99694840D01*
X229730100Y-100482560D01*
X229724223Y-100542230D01*
X229708607Y-100593710D01*
X229683252Y-100641145D01*
X229649127Y-100682727D01*
X229607545Y-100716852D01*
X229560110Y-100742207D01*
X229508630Y-100757823D01*
X229448960Y-100763700D01*
X228561240Y-100763700D01*
X228501570Y-100757823D01*
X228450090Y-100742207D01*
X228402655Y-100716852D01*
X228361073Y-100682727D01*
X228326948Y-100641145D01*
X228301593Y-100593710D01*
X228285977Y-100542230D01*
X228280100Y-100482560D01*
X228280100Y-99694840D01*
X228285977Y-99635170D01*
X228301593Y-99583690D01*
X228326948Y-99536255D01*
X228361073Y-99494673D01*
X228402655Y-99460548D01*
X228450090Y-99435193D01*
X228501570Y-99419577D01*
X228561240Y-99413700D01*
X229448960Y-99413700D01*
X229508630Y-99419577D01*
X229508630Y-99419577D01*
G37*
G36*
X223313630Y-99419577D02*
G01*
X223365110Y-99435193D01*
X223412545Y-99460548D01*
X223454127Y-99494673D01*
X223488252Y-99536255D01*
X223513607Y-99583690D01*
X223529223Y-99635170D01*
X223535100Y-99694840D01*
X223535100Y-100482560D01*
X223529223Y-100542230D01*
X223513607Y-100593710D01*
X223488252Y-100641145D01*
X223454127Y-100682727D01*
X223412545Y-100716852D01*
X223365110Y-100742207D01*
X223313630Y-100757823D01*
X223253960Y-100763700D01*
X222366240Y-100763700D01*
X222306570Y-100757823D01*
X222255090Y-100742207D01*
X222207655Y-100716852D01*
X222166073Y-100682727D01*
X222131948Y-100641145D01*
X222106593Y-100593710D01*
X222090977Y-100542230D01*
X222085100Y-100482560D01*
X222085100Y-99694840D01*
X222090977Y-99635170D01*
X222106593Y-99583690D01*
X222131948Y-99536255D01*
X222166073Y-99494673D01*
X222207655Y-99460548D01*
X222255090Y-99435193D01*
X222306570Y-99419577D01*
X222366240Y-99413700D01*
X223253960Y-99413700D01*
X223313630Y-99419577D01*
X223313630Y-99419577D01*
G37*
G36*
X225063630Y-99419577D02*
G01*
X225115110Y-99435193D01*
X225162545Y-99460548D01*
X225204127Y-99494673D01*
X225238252Y-99536255D01*
X225263607Y-99583690D01*
X225279223Y-99635170D01*
X225285100Y-99694840D01*
X225285100Y-100482560D01*
X225279223Y-100542230D01*
X225263607Y-100593710D01*
X225238252Y-100641145D01*
X225204127Y-100682727D01*
X225162545Y-100716852D01*
X225115110Y-100742207D01*
X225063630Y-100757823D01*
X225003960Y-100763700D01*
X224116240Y-100763700D01*
X224056570Y-100757823D01*
X224005090Y-100742207D01*
X223957655Y-100716852D01*
X223916073Y-100682727D01*
X223881948Y-100641145D01*
X223856593Y-100593710D01*
X223840977Y-100542230D01*
X223835100Y-100482560D01*
X223835100Y-99694840D01*
X223840977Y-99635170D01*
X223856593Y-99583690D01*
X223881948Y-99536255D01*
X223916073Y-99494673D01*
X223957655Y-99460548D01*
X224005090Y-99435193D01*
X224056570Y-99419577D01*
X224116240Y-99413700D01*
X225003960Y-99413700D01*
X225063630Y-99419577D01*
X225063630Y-99419577D01*
G37*
G36*
X62239530Y-99279877D02*
G01*
X62291010Y-99295493D01*
X62338445Y-99320848D01*
X62380027Y-99354973D01*
X62414152Y-99396555D01*
X62439507Y-99443990D01*
X62455123Y-99495470D01*
X62461000Y-99555140D01*
X62461000Y-100342860D01*
X62455123Y-100402530D01*
X62439507Y-100454010D01*
X62414152Y-100501445D01*
X62380027Y-100543027D01*
X62338445Y-100577152D01*
X62291010Y-100602507D01*
X62239530Y-100618123D01*
X62179860Y-100624000D01*
X61292140Y-100624000D01*
X61232470Y-100618123D01*
X61180990Y-100602507D01*
X61133555Y-100577152D01*
X61091973Y-100543027D01*
X61057848Y-100501445D01*
X61032493Y-100454010D01*
X61016877Y-100402530D01*
X61011000Y-100342860D01*
X61011000Y-99555140D01*
X61016877Y-99495470D01*
X61032493Y-99443990D01*
X61057848Y-99396555D01*
X61091973Y-99354973D01*
X61133555Y-99320848D01*
X61180990Y-99295493D01*
X61232470Y-99279877D01*
X61292140Y-99274000D01*
X62179860Y-99274000D01*
X62239530Y-99279877D01*
X62239530Y-99279877D01*
G37*
G36*
X66684530Y-99279877D02*
G01*
X66736010Y-99295493D01*
X66783445Y-99320848D01*
X66825027Y-99354973D01*
X66859152Y-99396555D01*
X66884507Y-99443990D01*
X66900123Y-99495470D01*
X66906000Y-99555140D01*
X66906000Y-100342860D01*
X66900123Y-100402530D01*
X66884507Y-100454010D01*
X66859152Y-100501445D01*
X66825027Y-100543027D01*
X66783445Y-100577152D01*
X66736010Y-100602507D01*
X66684530Y-100618123D01*
X66624860Y-100624000D01*
X65737140Y-100624000D01*
X65677470Y-100618123D01*
X65625990Y-100602507D01*
X65578555Y-100577152D01*
X65536973Y-100543027D01*
X65502848Y-100501445D01*
X65477493Y-100454010D01*
X65461877Y-100402530D01*
X65456000Y-100342860D01*
X65456000Y-99555140D01*
X65461877Y-99495470D01*
X65477493Y-99443990D01*
X65502848Y-99396555D01*
X65536973Y-99354973D01*
X65578555Y-99320848D01*
X65625990Y-99295493D01*
X65677470Y-99279877D01*
X65737140Y-99274000D01*
X66624860Y-99274000D01*
X66684530Y-99279877D01*
X66684530Y-99279877D01*
G37*
G36*
X63989530Y-99279877D02*
G01*
X64041010Y-99295493D01*
X64088445Y-99320848D01*
X64130027Y-99354973D01*
X64164152Y-99396555D01*
X64189507Y-99443990D01*
X64205123Y-99495470D01*
X64211000Y-99555140D01*
X64211000Y-100342860D01*
X64205123Y-100402530D01*
X64189507Y-100454010D01*
X64164152Y-100501445D01*
X64130027Y-100543027D01*
X64088445Y-100577152D01*
X64041010Y-100602507D01*
X63989530Y-100618123D01*
X63929860Y-100624000D01*
X63042140Y-100624000D01*
X62982470Y-100618123D01*
X62930990Y-100602507D01*
X62883555Y-100577152D01*
X62841973Y-100543027D01*
X62807848Y-100501445D01*
X62782493Y-100454010D01*
X62766877Y-100402530D01*
X62761000Y-100342860D01*
X62761000Y-99555140D01*
X62766877Y-99495470D01*
X62782493Y-99443990D01*
X62807848Y-99396555D01*
X62841973Y-99354973D01*
X62883555Y-99320848D01*
X62930990Y-99295493D01*
X62982470Y-99279877D01*
X63042140Y-99274000D01*
X63929860Y-99274000D01*
X63989530Y-99279877D01*
X63989530Y-99279877D01*
G37*
G36*
X68434530Y-99279877D02*
G01*
X68486010Y-99295493D01*
X68533445Y-99320848D01*
X68575027Y-99354973D01*
X68609152Y-99396555D01*
X68634507Y-99443990D01*
X68650123Y-99495470D01*
X68656000Y-99555140D01*
X68656000Y-100342860D01*
X68650123Y-100402530D01*
X68634507Y-100454010D01*
X68609152Y-100501445D01*
X68575027Y-100543027D01*
X68533445Y-100577152D01*
X68486010Y-100602507D01*
X68434530Y-100618123D01*
X68374860Y-100624000D01*
X67487140Y-100624000D01*
X67427470Y-100618123D01*
X67375990Y-100602507D01*
X67328555Y-100577152D01*
X67286973Y-100543027D01*
X67252848Y-100501445D01*
X67227493Y-100454010D01*
X67211877Y-100402530D01*
X67206000Y-100342860D01*
X67206000Y-99555140D01*
X67211877Y-99495470D01*
X67227493Y-99443990D01*
X67252848Y-99396555D01*
X67286973Y-99354973D01*
X67328555Y-99320848D01*
X67375990Y-99295493D01*
X67427470Y-99279877D01*
X67487140Y-99274000D01*
X68374860Y-99274000D01*
X68434530Y-99279877D01*
X68434530Y-99279877D01*
G37*
G36*
X154800775Y-94358197D02*
G01*
X154977229Y-94393296D01*
X155122680Y-94453544D01*
X155471141Y-94597881D01*
X155475877Y-94599843D01*
X155924648Y-94899703D01*
X156306297Y-95281352D01*
X156606158Y-95730125D01*
X156618352Y-95759564D01*
X156812704Y-96228771D01*
X156918000Y-96758134D01*
X156918000Y-97297866D01*
X156812704Y-97827229D01*
X156606157Y-98325877D01*
X156306297Y-98774648D01*
X155924648Y-99156297D01*
X155475877Y-99456157D01*
X155475876Y-99456158D01*
X155475875Y-99456158D01*
X155412656Y-99482344D01*
X154977229Y-99662704D01*
X154815669Y-99694840D01*
X154447868Y-99768000D01*
X153908132Y-99768000D01*
X153540331Y-99694840D01*
X153378771Y-99662704D01*
X152943344Y-99482344D01*
X152880125Y-99456158D01*
X152880124Y-99456158D01*
X152880123Y-99456157D01*
X152431352Y-99156297D01*
X152049703Y-98774648D01*
X151749843Y-98325877D01*
X151543296Y-97827229D01*
X151438000Y-97297866D01*
X151438000Y-96758134D01*
X151543296Y-96228771D01*
X151737648Y-95759564D01*
X151749842Y-95730125D01*
X152049703Y-95281352D01*
X152431352Y-94899703D01*
X152880123Y-94599843D01*
X152884860Y-94597881D01*
X153233320Y-94453544D01*
X153378771Y-94393296D01*
X153555225Y-94358197D01*
X153908132Y-94288000D01*
X154447868Y-94288000D01*
X154800775Y-94358197D01*
X154800775Y-94358197D01*
G37*
G36*
X62837683Y-92701719D02*
G01*
X63019025Y-92756729D01*
X63186143Y-92846056D01*
X63332628Y-92966272D01*
X63452844Y-93112757D01*
X63542171Y-93279875D01*
X63597181Y-93461217D01*
X63615754Y-93649800D01*
X63597181Y-93838383D01*
X63542171Y-94019725D01*
X63452844Y-94186843D01*
X63332628Y-94333328D01*
X63186143Y-94453544D01*
X63019025Y-94542871D01*
X62837683Y-94597881D01*
X62696357Y-94611800D01*
X61585843Y-94611800D01*
X61444517Y-94597881D01*
X61263175Y-94542871D01*
X61096057Y-94453544D01*
X60949572Y-94333328D01*
X60829356Y-94186843D01*
X60740029Y-94019725D01*
X60685019Y-93838383D01*
X60666446Y-93649800D01*
X60685019Y-93461217D01*
X60740029Y-93279875D01*
X60829356Y-93112757D01*
X60949572Y-92966272D01*
X61096057Y-92846056D01*
X61263175Y-92756729D01*
X61444517Y-92701719D01*
X61585843Y-92687800D01*
X62696357Y-92687800D01*
X62837683Y-92701719D01*
X62837683Y-92701719D01*
G37*
G36*
X136675483Y-92701719D02*
G01*
X136856825Y-92756729D01*
X137023943Y-92846056D01*
X137170428Y-92966272D01*
X137290644Y-93112757D01*
X137379971Y-93279875D01*
X137434981Y-93461217D01*
X137453554Y-93649800D01*
X137434981Y-93838383D01*
X137379971Y-94019725D01*
X137290644Y-94186843D01*
X137170428Y-94333328D01*
X137023943Y-94453544D01*
X136856825Y-94542871D01*
X136675483Y-94597881D01*
X136534157Y-94611800D01*
X135423643Y-94611800D01*
X135282317Y-94597881D01*
X135100975Y-94542871D01*
X134933857Y-94453544D01*
X134787372Y-94333328D01*
X134667156Y-94186843D01*
X134577829Y-94019725D01*
X134522819Y-93838383D01*
X134504246Y-93649800D01*
X134522819Y-93461217D01*
X134577829Y-93279875D01*
X134667156Y-93112757D01*
X134787372Y-92966272D01*
X134933857Y-92846056D01*
X135100975Y-92756729D01*
X135282317Y-92701719D01*
X135423643Y-92687800D01*
X136534157Y-92687800D01*
X136675483Y-92701719D01*
X136675483Y-92701719D01*
G37*
G36*
X62837683Y-89298119D02*
G01*
X63019025Y-89353129D01*
X63186143Y-89442456D01*
X63332628Y-89562672D01*
X63452844Y-89709157D01*
X63542171Y-89876275D01*
X63597181Y-90057617D01*
X63615754Y-90246200D01*
X63597181Y-90434783D01*
X63542171Y-90616125D01*
X63452844Y-90783243D01*
X63332628Y-90929728D01*
X63186143Y-91049944D01*
X63019025Y-91139271D01*
X62837683Y-91194281D01*
X62696357Y-91208200D01*
X61585843Y-91208200D01*
X61444517Y-91194281D01*
X61263175Y-91139271D01*
X61096057Y-91049944D01*
X60949572Y-90929728D01*
X60829356Y-90783243D01*
X60740029Y-90616125D01*
X60685019Y-90434783D01*
X60666446Y-90246200D01*
X60685019Y-90057617D01*
X60740029Y-89876275D01*
X60829356Y-89709157D01*
X60949572Y-89562672D01*
X61096057Y-89442456D01*
X61263175Y-89353129D01*
X61444517Y-89298119D01*
X61585843Y-89284200D01*
X62696357Y-89284200D01*
X62837683Y-89298119D01*
X62837683Y-89298119D01*
G37*
G36*
X136675483Y-89298119D02*
G01*
X136856825Y-89353129D01*
X137023943Y-89442456D01*
X137170428Y-89562672D01*
X137290644Y-89709157D01*
X137379971Y-89876275D01*
X137434981Y-90057617D01*
X137453554Y-90246200D01*
X137434981Y-90434783D01*
X137379971Y-90616125D01*
X137290644Y-90783243D01*
X137170428Y-90929728D01*
X137023943Y-91049944D01*
X136856825Y-91139271D01*
X136675483Y-91194281D01*
X136534157Y-91208200D01*
X135423643Y-91208200D01*
X135282317Y-91194281D01*
X135100975Y-91139271D01*
X134933857Y-91049944D01*
X134787372Y-90929728D01*
X134667156Y-90783243D01*
X134577829Y-90616125D01*
X134522819Y-90434783D01*
X134504246Y-90246200D01*
X134522819Y-90057617D01*
X134577829Y-89876275D01*
X134667156Y-89709157D01*
X134787372Y-89562672D01*
X134933857Y-89442456D01*
X135100975Y-89353129D01*
X135282317Y-89298119D01*
X135423643Y-89284200D01*
X136534157Y-89284200D01*
X136675483Y-89298119D01*
X136675483Y-89298119D01*
G37*
G36*
X205728148Y-82597068D02*
G01*
X205979305Y-82647026D01*
X206689060Y-82941016D01*
X207010610Y-83155869D01*
X207327821Y-83367823D01*
X207871045Y-83911047D01*
X208297853Y-84549810D01*
X208591842Y-85259564D01*
X208741717Y-86013033D01*
X208741717Y-86781269D01*
X208591842Y-87534738D01*
X208297853Y-88244492D01*
X207871045Y-88883255D01*
X207327821Y-89426479D01*
X207303908Y-89442457D01*
X206689060Y-89853286D01*
X206689059Y-89853287D01*
X206689058Y-89853287D01*
X206481175Y-89939395D01*
X205979305Y-90147276D01*
X205728148Y-90197234D01*
X205225835Y-90297151D01*
X204457599Y-90297151D01*
X203955286Y-90197234D01*
X203704129Y-90147276D01*
X203202259Y-89939395D01*
X202994376Y-89853287D01*
X202994375Y-89853287D01*
X202994374Y-89853286D01*
X202379526Y-89442457D01*
X202355613Y-89426479D01*
X201812389Y-88883255D01*
X201385581Y-88244492D01*
X201091592Y-87534738D01*
X200941717Y-86781269D01*
X200941717Y-86013033D01*
X201091592Y-85259564D01*
X201385581Y-84549810D01*
X201812389Y-83911047D01*
X202355613Y-83367823D01*
X202672824Y-83155869D01*
X202994374Y-82941016D01*
X203704129Y-82647026D01*
X203955286Y-82597068D01*
X204457599Y-82497151D01*
X205225835Y-82497151D01*
X205728148Y-82597068D01*
X205728148Y-82597068D01*
G37*
G36*
X119932404Y-78242974D02*
G01*
X120514767Y-78484196D01*
X120659508Y-78580909D01*
X121038881Y-78834398D01*
X121484602Y-79280119D01*
X121718599Y-79630321D01*
X121834804Y-79804233D01*
X122076026Y-80386596D01*
X122199000Y-81004826D01*
X122199000Y-81635174D01*
X122076026Y-82253404D01*
X121834804Y-82835767D01*
X121834803Y-82835768D01*
X121484602Y-83359881D01*
X121038881Y-83805602D01*
X120881071Y-83911047D01*
X120514767Y-84155804D01*
X119932404Y-84397026D01*
X119314174Y-84520000D01*
X118683826Y-84520000D01*
X118065596Y-84397026D01*
X117483233Y-84155804D01*
X117116929Y-83911047D01*
X116959119Y-83805602D01*
X116513398Y-83359881D01*
X116163197Y-82835768D01*
X116163196Y-82835767D01*
X115921974Y-82253404D01*
X115799000Y-81635174D01*
X115799000Y-81004826D01*
X115921974Y-80386596D01*
X116163196Y-79804233D01*
X116279401Y-79630321D01*
X116513398Y-79280119D01*
X116959119Y-78834398D01*
X117338492Y-78580909D01*
X117483233Y-78484196D01*
X118065596Y-78242974D01*
X118683826Y-78120000D01*
X119314174Y-78120000D01*
X119932404Y-78242974D01*
X119932404Y-78242974D01*
G37*
G36*
X96728148Y-73597068D02*
G01*
X96979305Y-73647026D01*
X97689060Y-73941016D01*
X98010610Y-74155869D01*
X98327821Y-74367823D01*
X98871045Y-74911047D01*
X99297853Y-75549810D01*
X99591842Y-76259564D01*
X99741717Y-77013033D01*
X99741717Y-77781269D01*
X99738560Y-77797138D01*
X99591842Y-78534739D01*
X99483147Y-78797151D01*
X99297853Y-79244492D01*
X98923847Y-79804232D01*
X98871044Y-79883256D01*
X98327822Y-80426478D01*
X97689060Y-80853286D01*
X96979305Y-81147276D01*
X96728148Y-81197234D01*
X96225835Y-81297151D01*
X95457599Y-81297151D01*
X94955286Y-81197234D01*
X94704129Y-81147276D01*
X93994374Y-80853286D01*
X93355612Y-80426478D01*
X92812390Y-79883256D01*
X92759588Y-79804232D01*
X92385581Y-79244492D01*
X92200287Y-78797151D01*
X92091592Y-78534739D01*
X91944874Y-77797138D01*
X91941717Y-77781269D01*
X91941717Y-77013033D01*
X92091592Y-76259564D01*
X92385581Y-75549810D01*
X92812389Y-74911047D01*
X93355613Y-74367823D01*
X93672824Y-74155869D01*
X93994374Y-73941016D01*
X94704129Y-73647026D01*
X94955286Y-73597068D01*
X95457599Y-73497151D01*
X96225835Y-73497151D01*
X96728148Y-73597068D01*
X96728148Y-73597068D01*
G37*
G36*
X106228148Y-73597068D02*
G01*
X106479305Y-73647026D01*
X107189060Y-73941016D01*
X107510610Y-74155869D01*
X107827821Y-74367823D01*
X108371045Y-74911047D01*
X108797853Y-75549810D01*
X109091842Y-76259564D01*
X109241717Y-77013033D01*
X109241717Y-77781269D01*
X109238560Y-77797138D01*
X109091842Y-78534739D01*
X108983147Y-78797151D01*
X108797853Y-79244492D01*
X108423847Y-79804232D01*
X108371044Y-79883256D01*
X107827822Y-80426478D01*
X107189060Y-80853286D01*
X106479305Y-81147276D01*
X106228148Y-81197234D01*
X105725835Y-81297151D01*
X104957599Y-81297151D01*
X104455286Y-81197234D01*
X104204129Y-81147276D01*
X103494374Y-80853286D01*
X102855612Y-80426478D01*
X102312390Y-79883256D01*
X102259588Y-79804232D01*
X101885581Y-79244492D01*
X101700287Y-78797151D01*
X101591592Y-78534739D01*
X101444874Y-77797138D01*
X101441717Y-77781269D01*
X101441717Y-77013033D01*
X101591592Y-76259564D01*
X101885581Y-75549810D01*
X102312389Y-74911047D01*
X102855613Y-74367823D01*
X103172824Y-74155869D01*
X103494374Y-73941016D01*
X104204129Y-73647026D01*
X104455286Y-73597068D01*
X104957599Y-73497151D01*
X105725835Y-73497151D01*
X106228148Y-73597068D01*
X106228148Y-73597068D01*
G37*
G36*
X132228148Y-73597068D02*
G01*
X132479305Y-73647026D01*
X133189060Y-73941016D01*
X133510610Y-74155869D01*
X133827821Y-74367823D01*
X134371045Y-74911047D01*
X134797853Y-75549810D01*
X135091842Y-76259564D01*
X135241717Y-77013033D01*
X135241717Y-77781269D01*
X135238560Y-77797138D01*
X135091842Y-78534739D01*
X134983147Y-78797151D01*
X134797853Y-79244492D01*
X134423847Y-79804232D01*
X134371044Y-79883256D01*
X133827822Y-80426478D01*
X133189060Y-80853286D01*
X132479305Y-81147276D01*
X132228148Y-81197234D01*
X131725835Y-81297151D01*
X130957599Y-81297151D01*
X130455286Y-81197234D01*
X130204129Y-81147276D01*
X129494374Y-80853286D01*
X128855612Y-80426478D01*
X128312390Y-79883256D01*
X128259588Y-79804232D01*
X127885581Y-79244492D01*
X127700287Y-78797151D01*
X127591592Y-78534739D01*
X127444874Y-77797138D01*
X127441717Y-77781269D01*
X127441717Y-77013033D01*
X127591592Y-76259564D01*
X127885581Y-75549810D01*
X128312389Y-74911047D01*
X128855613Y-74367823D01*
X129172824Y-74155869D01*
X129494374Y-73941016D01*
X130204129Y-73647026D01*
X130455286Y-73597068D01*
X130957599Y-73497151D01*
X131725835Y-73497151D01*
X132228148Y-73597068D01*
X132228148Y-73597068D01*
G37*
G36*
X143728148Y-73597068D02*
G01*
X143979305Y-73647026D01*
X144689060Y-73941016D01*
X145010610Y-74155869D01*
X145327821Y-74367823D01*
X145871045Y-74911047D01*
X146297853Y-75549810D01*
X146591842Y-76259564D01*
X146741717Y-77013033D01*
X146741717Y-77781269D01*
X146738560Y-77797138D01*
X146591842Y-78534739D01*
X146483147Y-78797151D01*
X146297853Y-79244492D01*
X145923847Y-79804232D01*
X145871044Y-79883256D01*
X145327822Y-80426478D01*
X144689060Y-80853286D01*
X143979305Y-81147276D01*
X143728148Y-81197234D01*
X143225835Y-81297151D01*
X142457599Y-81297151D01*
X141955286Y-81197234D01*
X141704129Y-81147276D01*
X140994374Y-80853286D01*
X140355612Y-80426478D01*
X139812390Y-79883256D01*
X139759588Y-79804232D01*
X139385581Y-79244492D01*
X139200287Y-78797151D01*
X139091592Y-78534739D01*
X138944874Y-77797138D01*
X138941717Y-77781269D01*
X138941717Y-77013033D01*
X139091592Y-76259564D01*
X139385581Y-75549810D01*
X139812389Y-74911047D01*
X140355613Y-74367823D01*
X140672824Y-74155869D01*
X140994374Y-73941016D01*
X141704129Y-73647026D01*
X141955286Y-73597068D01*
X142457599Y-73497151D01*
X143225835Y-73497151D01*
X143728148Y-73597068D01*
X143728148Y-73597068D01*
G37*
G36*
X165728148Y-73597068D02*
G01*
X165979305Y-73647026D01*
X166689060Y-73941016D01*
X167010610Y-74155869D01*
X167327821Y-74367823D01*
X167871045Y-74911047D01*
X168297853Y-75549810D01*
X168591842Y-76259564D01*
X168741717Y-77013033D01*
X168741717Y-77781269D01*
X168738560Y-77797138D01*
X168591842Y-78534739D01*
X168483147Y-78797151D01*
X168297853Y-79244492D01*
X167923847Y-79804232D01*
X167871044Y-79883256D01*
X167327822Y-80426478D01*
X166689060Y-80853286D01*
X165979305Y-81147276D01*
X165728148Y-81197234D01*
X165225835Y-81297151D01*
X164457599Y-81297151D01*
X163955286Y-81197234D01*
X163704129Y-81147276D01*
X162994374Y-80853286D01*
X162355612Y-80426478D01*
X161812390Y-79883256D01*
X161759588Y-79804232D01*
X161385581Y-79244492D01*
X161200287Y-78797151D01*
X161091592Y-78534739D01*
X160944874Y-77797138D01*
X160941717Y-77781269D01*
X160941717Y-77013033D01*
X161091592Y-76259564D01*
X161385581Y-75549810D01*
X161812389Y-74911047D01*
X162355613Y-74367823D01*
X162672824Y-74155869D01*
X162994374Y-73941016D01*
X163704129Y-73647026D01*
X163955286Y-73597068D01*
X164457599Y-73497151D01*
X165225835Y-73497151D01*
X165728148Y-73597068D01*
X165728148Y-73597068D01*
G37*
G36*
X175228148Y-73597068D02*
G01*
X175479305Y-73647026D01*
X176189060Y-73941016D01*
X176510610Y-74155869D01*
X176827821Y-74367823D01*
X177371045Y-74911047D01*
X177797853Y-75549810D01*
X178091842Y-76259564D01*
X178241717Y-77013033D01*
X178241717Y-77781269D01*
X178238560Y-77797138D01*
X178091842Y-78534739D01*
X177983147Y-78797151D01*
X177797853Y-79244492D01*
X177423847Y-79804232D01*
X177371044Y-79883256D01*
X176827822Y-80426478D01*
X176189060Y-80853286D01*
X175479305Y-81147276D01*
X175228148Y-81197234D01*
X174725835Y-81297151D01*
X173957599Y-81297151D01*
X173455286Y-81197234D01*
X173204129Y-81147276D01*
X172494374Y-80853286D01*
X171855612Y-80426478D01*
X171312390Y-79883256D01*
X171259588Y-79804232D01*
X170885581Y-79244492D01*
X170700287Y-78797151D01*
X170591592Y-78534739D01*
X170444874Y-77797138D01*
X170441717Y-77781269D01*
X170441717Y-77013033D01*
X170591592Y-76259564D01*
X170885581Y-75549810D01*
X171312389Y-74911047D01*
X171855613Y-74367823D01*
X172172824Y-74155869D01*
X172494374Y-73941016D01*
X173204129Y-73647026D01*
X173455286Y-73597068D01*
X173957599Y-73497151D01*
X174725835Y-73497151D01*
X175228148Y-73597068D01*
X175228148Y-73597068D01*
G37*
G36*
X184728148Y-73597068D02*
G01*
X184979305Y-73647026D01*
X185689060Y-73941016D01*
X186010610Y-74155869D01*
X186327821Y-74367823D01*
X186871045Y-74911047D01*
X187297853Y-75549810D01*
X187591842Y-76259564D01*
X187741717Y-77013033D01*
X187741717Y-77781269D01*
X187738560Y-77797138D01*
X187591842Y-78534739D01*
X187483147Y-78797151D01*
X187297853Y-79244492D01*
X186923847Y-79804232D01*
X186871044Y-79883256D01*
X186327822Y-80426478D01*
X185689060Y-80853286D01*
X184979305Y-81147276D01*
X184728148Y-81197234D01*
X184225835Y-81297151D01*
X183457599Y-81297151D01*
X182955286Y-81197234D01*
X182704129Y-81147276D01*
X181994374Y-80853286D01*
X181355612Y-80426478D01*
X180812390Y-79883256D01*
X180759588Y-79804232D01*
X180385581Y-79244492D01*
X180200287Y-78797151D01*
X180091592Y-78534739D01*
X179944874Y-77797138D01*
X179941717Y-77781269D01*
X179941717Y-77013033D01*
X180091592Y-76259564D01*
X180385581Y-75549810D01*
X180812389Y-74911047D01*
X181355613Y-74367823D01*
X181672824Y-74155869D01*
X181994374Y-73941016D01*
X182704129Y-73647026D01*
X182955286Y-73597068D01*
X183457599Y-73497151D01*
X184225835Y-73497151D01*
X184728148Y-73597068D01*
X184728148Y-73597068D01*
G37*
G36*
X87228148Y-73597068D02*
G01*
X87479305Y-73647026D01*
X88189060Y-73941016D01*
X88510610Y-74155869D01*
X88827821Y-74367823D01*
X89371045Y-74911047D01*
X89797853Y-75549810D01*
X90091842Y-76259564D01*
X90241717Y-77013033D01*
X90241717Y-77781269D01*
X90238560Y-77797138D01*
X90091842Y-78534739D01*
X89983147Y-78797151D01*
X89797853Y-79244492D01*
X89423847Y-79804232D01*
X89371044Y-79883256D01*
X88827822Y-80426478D01*
X88189060Y-80853286D01*
X87479305Y-81147276D01*
X87228148Y-81197234D01*
X86725835Y-81297151D01*
X85957599Y-81297151D01*
X85455286Y-81197234D01*
X85204129Y-81147276D01*
X84494374Y-80853286D01*
X83855612Y-80426478D01*
X83312390Y-79883256D01*
X83259588Y-79804232D01*
X82885581Y-79244492D01*
X82700287Y-78797151D01*
X82591592Y-78534739D01*
X82444874Y-77797138D01*
X82441717Y-77781269D01*
X82441717Y-77013033D01*
X82591592Y-76259564D01*
X82885581Y-75549810D01*
X83312389Y-74911047D01*
X83855613Y-74367823D01*
X84172824Y-74155869D01*
X84494374Y-73941016D01*
X85204129Y-73647026D01*
X85455286Y-73597068D01*
X85957599Y-73497151D01*
X86725835Y-73497151D01*
X87228148Y-73597068D01*
X87228148Y-73597068D01*
G37*
G36*
X72395926Y-75070167D02*
G01*
X72539151Y-75129493D01*
X72741703Y-75213392D01*
X73052896Y-75421325D01*
X73317543Y-75685972D01*
X73525476Y-75997165D01*
X73668701Y-76342943D01*
X73741717Y-76710016D01*
X73741717Y-77084286D01*
X73668701Y-77451359D01*
X73525476Y-77797137D01*
X73317543Y-78108330D01*
X73052896Y-78372977D01*
X72741703Y-78580910D01*
X72539151Y-78664809D01*
X72395926Y-78724135D01*
X72212388Y-78760643D01*
X72028852Y-78797151D01*
X71654582Y-78797151D01*
X71471046Y-78760643D01*
X71287508Y-78724135D01*
X71144283Y-78664809D01*
X70941731Y-78580910D01*
X70630538Y-78372977D01*
X70365891Y-78108330D01*
X70157958Y-77797137D01*
X70014733Y-77451359D01*
X69941717Y-77084286D01*
X69941717Y-76710016D01*
X70014733Y-76342943D01*
X70157958Y-75997165D01*
X70365891Y-75685972D01*
X70630538Y-75421325D01*
X70941731Y-75213392D01*
X71144283Y-75129493D01*
X71287508Y-75070167D01*
X71654582Y-74997151D01*
X72028852Y-74997151D01*
X72395926Y-75070167D01*
X72395926Y-75070167D01*
G37*
G36*
X207895926Y-75070167D02*
G01*
X208039151Y-75129493D01*
X208241703Y-75213392D01*
X208552896Y-75421325D01*
X208817543Y-75685972D01*
X209025476Y-75997165D01*
X209168701Y-76342943D01*
X209241717Y-76710016D01*
X209241717Y-77084286D01*
X209168701Y-77451359D01*
X209025476Y-77797137D01*
X208817543Y-78108330D01*
X208552896Y-78372977D01*
X208241703Y-78580910D01*
X208039151Y-78664809D01*
X207895926Y-78724135D01*
X207712388Y-78760643D01*
X207528852Y-78797151D01*
X207154582Y-78797151D01*
X206971046Y-78760643D01*
X206787508Y-78724135D01*
X206644283Y-78664809D01*
X206441731Y-78580910D01*
X206130538Y-78372977D01*
X205865891Y-78108330D01*
X205657958Y-77797137D01*
X205514733Y-77451359D01*
X205441717Y-77084286D01*
X205441717Y-76710016D01*
X205514733Y-76342943D01*
X205657958Y-75997165D01*
X205865891Y-75685972D01*
X206130538Y-75421325D01*
X206441731Y-75213392D01*
X206644283Y-75129493D01*
X206787508Y-75070167D01*
X207154582Y-74997151D01*
X207528852Y-74997151D01*
X207895926Y-75070167D01*
X207895926Y-75070167D01*
G37*
M02*
