G04 #@! TF.GenerationSoftware,KiCad,Pcbnew,(5.1.2)-1*
G04 #@! TF.CreationDate,2020-03-03T11:05:45-06:00*
G04 #@! TF.ProjectId,ODriveInterfacingBoard,4f447269-7665-4496-9e74-657266616369,rev?*
G04 #@! TF.SameCoordinates,Original*
G04 #@! TF.FileFunction,Legend,Bot*
G04 #@! TF.FilePolarity,Positive*
%FSLAX46Y46*%
G04 Gerber Fmt 4.6, Leading zero omitted, Abs format (unit mm)*
G04 Created by KiCad (PCBNEW (5.1.2)-1) date 2020-03-03 11:05:45*
%MOMM*%
%LPD*%
G04 APERTURE LIST*
%ADD10C,0.300000*%
%ADD11C,0.150000*%
G04 APERTURE END LIST*
D10*
X121111142Y-92626571D02*
X121111142Y-91126571D01*
X120611142Y-91626571D02*
X120039714Y-91626571D01*
X120396857Y-92626571D02*
X120396857Y-91340857D01*
X120325428Y-91198000D01*
X120182571Y-91126571D01*
X120039714Y-91126571D01*
X118539714Y-91626571D02*
X118182571Y-92626571D01*
X117825428Y-91626571D02*
X118182571Y-92626571D01*
X118325428Y-92983714D01*
X118396857Y-93055142D01*
X118539714Y-93126571D01*
X117039714Y-92626571D02*
X117182571Y-92555142D01*
X117254000Y-92483714D01*
X117325428Y-92340857D01*
X117325428Y-91912285D01*
X117254000Y-91769428D01*
X117182571Y-91698000D01*
X117039714Y-91626571D01*
X116825428Y-91626571D01*
X116682571Y-91698000D01*
X116611142Y-91769428D01*
X116539714Y-91912285D01*
X116539714Y-92340857D01*
X116611142Y-92483714D01*
X116682571Y-92555142D01*
X116825428Y-92626571D01*
X117039714Y-92626571D01*
X115254000Y-91626571D02*
X115254000Y-92626571D01*
X115896857Y-91626571D02*
X115896857Y-92412285D01*
X115825428Y-92555142D01*
X115682571Y-92626571D01*
X115468285Y-92626571D01*
X115325428Y-92555142D01*
X115254000Y-92483714D01*
X112754000Y-92555142D02*
X112896857Y-92626571D01*
X113182571Y-92626571D01*
X113325428Y-92555142D01*
X113396857Y-92483714D01*
X113468285Y-92340857D01*
X113468285Y-91912285D01*
X113396857Y-91769428D01*
X113325428Y-91698000D01*
X113182571Y-91626571D01*
X112896857Y-91626571D01*
X112754000Y-91698000D01*
X111468285Y-92626571D02*
X111468285Y-91840857D01*
X111539714Y-91698000D01*
X111682571Y-91626571D01*
X111968285Y-91626571D01*
X112111142Y-91698000D01*
X111468285Y-92555142D02*
X111611142Y-92626571D01*
X111968285Y-92626571D01*
X112111142Y-92555142D01*
X112182571Y-92412285D01*
X112182571Y-92269428D01*
X112111142Y-92126571D01*
X111968285Y-92055142D01*
X111611142Y-92055142D01*
X111468285Y-91983714D01*
X110754000Y-91626571D02*
X110754000Y-92626571D01*
X110754000Y-91769428D02*
X110682571Y-91698000D01*
X110539714Y-91626571D01*
X110325428Y-91626571D01*
X110182571Y-91698000D01*
X110111142Y-91840857D01*
X110111142Y-92626571D01*
X108254000Y-92626571D02*
X108254000Y-91626571D01*
X108254000Y-91912285D02*
X108182571Y-91769428D01*
X108111142Y-91698000D01*
X107968285Y-91626571D01*
X107825428Y-91626571D01*
X106754000Y-92555142D02*
X106896857Y-92626571D01*
X107182571Y-92626571D01*
X107325428Y-92555142D01*
X107396857Y-92412285D01*
X107396857Y-91840857D01*
X107325428Y-91698000D01*
X107182571Y-91626571D01*
X106896857Y-91626571D01*
X106754000Y-91698000D01*
X106682571Y-91840857D01*
X106682571Y-91983714D01*
X107396857Y-92126571D01*
X105396857Y-92626571D02*
X105396857Y-91840857D01*
X105468285Y-91698000D01*
X105611142Y-91626571D01*
X105896857Y-91626571D01*
X106039714Y-91698000D01*
X105396857Y-92555142D02*
X105539714Y-92626571D01*
X105896857Y-92626571D01*
X106039714Y-92555142D01*
X106111142Y-92412285D01*
X106111142Y-92269428D01*
X106039714Y-92126571D01*
X105896857Y-92055142D01*
X105539714Y-92055142D01*
X105396857Y-91983714D01*
X104039714Y-92626571D02*
X104039714Y-91126571D01*
X104039714Y-92555142D02*
X104182571Y-92626571D01*
X104468285Y-92626571D01*
X104611142Y-92555142D01*
X104682571Y-92483714D01*
X104754000Y-92340857D01*
X104754000Y-91912285D01*
X104682571Y-91769428D01*
X104611142Y-91698000D01*
X104468285Y-91626571D01*
X104182571Y-91626571D01*
X104039714Y-91698000D01*
X102396857Y-91626571D02*
X101825428Y-91626571D01*
X102182571Y-91126571D02*
X102182571Y-92412285D01*
X102111142Y-92555142D01*
X101968285Y-92626571D01*
X101825428Y-92626571D01*
X101325428Y-92626571D02*
X101325428Y-91126571D01*
X100682571Y-92626571D02*
X100682571Y-91840857D01*
X100754000Y-91698000D01*
X100896857Y-91626571D01*
X101111142Y-91626571D01*
X101254000Y-91698000D01*
X101325428Y-91769428D01*
X99968285Y-92626571D02*
X99968285Y-91626571D01*
X99968285Y-91126571D02*
X100039714Y-91198000D01*
X99968285Y-91269428D01*
X99896857Y-91198000D01*
X99968285Y-91126571D01*
X99968285Y-91269428D01*
X99325428Y-92555142D02*
X99182571Y-92626571D01*
X98896857Y-92626571D01*
X98754000Y-92555142D01*
X98682571Y-92412285D01*
X98682571Y-92340857D01*
X98754000Y-92198000D01*
X98896857Y-92126571D01*
X99111142Y-92126571D01*
X99254000Y-92055142D01*
X99325428Y-91912285D01*
X99325428Y-91840857D01*
X99254000Y-91698000D01*
X99111142Y-91626571D01*
X98896857Y-91626571D01*
X98754000Y-91698000D01*
X97968285Y-92555142D02*
X97968285Y-92626571D01*
X98039714Y-92769428D01*
X98111142Y-92840857D01*
X96182571Y-91840857D02*
X95682571Y-91840857D01*
X95468285Y-92626571D02*
X96182571Y-92626571D01*
X96182571Y-91126571D01*
X95468285Y-91126571D01*
X94611142Y-92626571D02*
X94754000Y-92555142D01*
X94825428Y-92412285D01*
X94825428Y-91126571D01*
X94039714Y-92626571D02*
X94039714Y-91626571D01*
X94039714Y-91126571D02*
X94111142Y-91198000D01*
X94039714Y-91269428D01*
X93968285Y-91198000D01*
X94039714Y-91126571D01*
X94039714Y-91269428D01*
X92182571Y-91626571D02*
X92182571Y-93126571D01*
X92182571Y-91698000D02*
X92039714Y-91626571D01*
X91754000Y-91626571D01*
X91611142Y-91698000D01*
X91539714Y-91769428D01*
X91468285Y-91912285D01*
X91468285Y-92340857D01*
X91539714Y-92483714D01*
X91611142Y-92555142D01*
X91754000Y-92626571D01*
X92039714Y-92626571D01*
X92182571Y-92555142D01*
X90825428Y-92626571D02*
X90825428Y-91626571D01*
X90825428Y-91912285D02*
X90754000Y-91769428D01*
X90682571Y-91698000D01*
X90539714Y-91626571D01*
X90396857Y-91626571D01*
X89682571Y-92626571D02*
X89825428Y-92555142D01*
X89896857Y-92483714D01*
X89968285Y-92340857D01*
X89968285Y-91912285D01*
X89896857Y-91769428D01*
X89825428Y-91698000D01*
X89682571Y-91626571D01*
X89468285Y-91626571D01*
X89325428Y-91698000D01*
X89254000Y-91769428D01*
X89182571Y-91912285D01*
X89182571Y-92340857D01*
X89254000Y-92483714D01*
X89325428Y-92555142D01*
X89468285Y-92626571D01*
X89682571Y-92626571D01*
X88539714Y-92626571D02*
X88539714Y-91126571D01*
X88539714Y-91698000D02*
X88396857Y-91626571D01*
X88111142Y-91626571D01*
X87968285Y-91698000D01*
X87896857Y-91769428D01*
X87825428Y-91912285D01*
X87825428Y-92340857D01*
X87896857Y-92483714D01*
X87968285Y-92555142D01*
X88111142Y-92626571D01*
X88396857Y-92626571D01*
X88539714Y-92555142D01*
X86539714Y-92626571D02*
X86539714Y-91840857D01*
X86611142Y-91698000D01*
X86754000Y-91626571D01*
X87039714Y-91626571D01*
X87182571Y-91698000D01*
X86539714Y-92555142D02*
X86682571Y-92626571D01*
X87039714Y-92626571D01*
X87182571Y-92555142D01*
X87254000Y-92412285D01*
X87254000Y-92269428D01*
X87182571Y-92126571D01*
X87039714Y-92055142D01*
X86682571Y-92055142D01*
X86539714Y-91983714D01*
X85825428Y-92626571D02*
X85825428Y-91126571D01*
X85825428Y-91698000D02*
X85682571Y-91626571D01*
X85396857Y-91626571D01*
X85254000Y-91698000D01*
X85182571Y-91769428D01*
X85111142Y-91912285D01*
X85111142Y-92340857D01*
X85182571Y-92483714D01*
X85254000Y-92555142D01*
X85396857Y-92626571D01*
X85682571Y-92626571D01*
X85825428Y-92555142D01*
X84254000Y-92626571D02*
X84396857Y-92555142D01*
X84468285Y-92412285D01*
X84468285Y-91126571D01*
X83825428Y-91626571D02*
X83468285Y-92626571D01*
X83111142Y-91626571D02*
X83468285Y-92626571D01*
X83611142Y-92983714D01*
X83682571Y-93055142D01*
X83825428Y-93126571D01*
X81396857Y-92626571D02*
X81396857Y-91626571D01*
X81396857Y-91769428D02*
X81325428Y-91698000D01*
X81182571Y-91626571D01*
X80968285Y-91626571D01*
X80825428Y-91698000D01*
X80754000Y-91840857D01*
X80754000Y-92626571D01*
X80754000Y-91840857D02*
X80682571Y-91698000D01*
X80539714Y-91626571D01*
X80325428Y-91626571D01*
X80182571Y-91698000D01*
X80111142Y-91840857D01*
X80111142Y-92626571D01*
X78825428Y-92555142D02*
X78968285Y-92626571D01*
X79254000Y-92626571D01*
X79396857Y-92555142D01*
X79468285Y-92412285D01*
X79468285Y-91840857D01*
X79396857Y-91698000D01*
X79254000Y-91626571D01*
X78968285Y-91626571D01*
X78825428Y-91698000D01*
X78754000Y-91840857D01*
X78754000Y-91983714D01*
X79468285Y-92126571D01*
X78182571Y-92555142D02*
X78039714Y-92626571D01*
X77754000Y-92626571D01*
X77611142Y-92555142D01*
X77539714Y-92412285D01*
X77539714Y-92340857D01*
X77611142Y-92198000D01*
X77754000Y-92126571D01*
X77968285Y-92126571D01*
X78111142Y-92055142D01*
X78182571Y-91912285D01*
X78182571Y-91840857D01*
X78111142Y-91698000D01*
X77968285Y-91626571D01*
X77754000Y-91626571D01*
X77611142Y-91698000D01*
X76968285Y-92555142D02*
X76825428Y-92626571D01*
X76539714Y-92626571D01*
X76396857Y-92555142D01*
X76325428Y-92412285D01*
X76325428Y-92340857D01*
X76396857Y-92198000D01*
X76539714Y-92126571D01*
X76754000Y-92126571D01*
X76896857Y-92055142D01*
X76968285Y-91912285D01*
X76968285Y-91840857D01*
X76896857Y-91698000D01*
X76754000Y-91626571D01*
X76539714Y-91626571D01*
X76396857Y-91698000D01*
X75111142Y-92555142D02*
X75254000Y-92626571D01*
X75539714Y-92626571D01*
X75682571Y-92555142D01*
X75754000Y-92412285D01*
X75754000Y-91840857D01*
X75682571Y-91698000D01*
X75539714Y-91626571D01*
X75254000Y-91626571D01*
X75111142Y-91698000D01*
X75039714Y-91840857D01*
X75039714Y-91983714D01*
X75754000Y-92126571D01*
X73754000Y-92626571D02*
X73754000Y-91126571D01*
X73754000Y-92555142D02*
X73896857Y-92626571D01*
X74182571Y-92626571D01*
X74325428Y-92555142D01*
X74396857Y-92483714D01*
X74468285Y-92340857D01*
X74468285Y-91912285D01*
X74396857Y-91769428D01*
X74325428Y-91698000D01*
X74182571Y-91626571D01*
X73896857Y-91626571D01*
X73754000Y-91698000D01*
X71254000Y-91626571D02*
X71254000Y-92626571D01*
X71896857Y-91626571D02*
X71896857Y-92412285D01*
X71825428Y-92555142D01*
X71682571Y-92626571D01*
X71468285Y-92626571D01*
X71325428Y-92555142D01*
X71254000Y-92483714D01*
X70539714Y-91626571D02*
X70539714Y-93126571D01*
X70539714Y-91698000D02*
X70396857Y-91626571D01*
X70111142Y-91626571D01*
X69968285Y-91698000D01*
X69896857Y-91769428D01*
X69825428Y-91912285D01*
X69825428Y-92340857D01*
X69896857Y-92483714D01*
X69968285Y-92555142D01*
X70111142Y-92626571D01*
X70396857Y-92626571D01*
X70539714Y-92555142D01*
D11*
X217122333Y-111085380D02*
X216455666Y-111085380D01*
X217122333Y-112085380D01*
X216455666Y-112085380D01*
X212153452Y-111640928D02*
X211391547Y-111640928D01*
X211772500Y-112021880D02*
X211772500Y-111259976D01*
X219773452Y-111704428D02*
X219011547Y-111704428D01*
X214487095Y-111799666D02*
X214010904Y-111799666D01*
X214582333Y-112085380D02*
X214249000Y-111085380D01*
X213915666Y-112085380D01*
X209097571Y-111561571D02*
X208954714Y-111609190D01*
X208907095Y-111656809D01*
X208859476Y-111752047D01*
X208859476Y-111894904D01*
X208907095Y-111990142D01*
X208954714Y-112037761D01*
X209049952Y-112085380D01*
X209430904Y-112085380D01*
X209430904Y-111085380D01*
X209097571Y-111085380D01*
X209002333Y-111133000D01*
X208954714Y-111180619D01*
X208907095Y-111275857D01*
X208907095Y-111371095D01*
X208954714Y-111466333D01*
X209002333Y-111513952D01*
X209097571Y-111561571D01*
X209430904Y-111561571D01*
X71627952Y-111640928D02*
X70866047Y-111640928D01*
X71247000Y-112021880D02*
X71247000Y-111259976D01*
X74025095Y-111863166D02*
X73548904Y-111863166D01*
X74120333Y-112148880D02*
X73787000Y-111148880D01*
X73453666Y-112148880D01*
X68508571Y-111561571D02*
X68365714Y-111609190D01*
X68318095Y-111656809D01*
X68270476Y-111752047D01*
X68270476Y-111894904D01*
X68318095Y-111990142D01*
X68365714Y-112037761D01*
X68460952Y-112085380D01*
X68841904Y-112085380D01*
X68841904Y-111085380D01*
X68508571Y-111085380D01*
X68413333Y-111133000D01*
X68365714Y-111180619D01*
X68318095Y-111275857D01*
X68318095Y-111371095D01*
X68365714Y-111466333D01*
X68413333Y-111513952D01*
X68508571Y-111561571D01*
X68841904Y-111561571D01*
X76660333Y-111085380D02*
X75993666Y-111085380D01*
X76660333Y-112085380D01*
X75993666Y-112085380D01*
X79247952Y-111640928D02*
X78486047Y-111640928D01*
M02*
