G04 #@! TF.GenerationSoftware,KiCad,Pcbnew,(5.1.2)-1*
G04 #@! TF.CreationDate,2020-03-03T11:05:45-06:00*
G04 #@! TF.ProjectId,ODriveInterfacingBoard,4f447269-7665-4496-9e74-657266616369,rev?*
G04 #@! TF.SameCoordinates,Original*
G04 #@! TF.FileFunction,Soldermask,Bot*
G04 #@! TF.FilePolarity,Negative*
%FSLAX46Y46*%
G04 Gerber Fmt 4.6, Leading zero omitted, Abs format (unit mm)*
G04 Created by KiCad (PCBNEW (5.1.2)-1) date 2020-03-03 11:05:45*
%MOMM*%
%LPD*%
G04 APERTURE LIST*
%ADD10C,0.100000*%
G04 APERTURE END LIST*
D10*
G36*
X117994249Y-122589151D02*
G01*
X87749249Y-122589151D01*
X87749249Y-118379151D01*
X117994249Y-118379151D01*
X117994249Y-122589151D01*
X117994249Y-122589151D01*
G37*
G36*
X195754217Y-122589151D02*
G01*
X147729217Y-122589151D01*
X147729217Y-118379151D01*
X195754217Y-118379151D01*
X195754217Y-122589151D01*
X195754217Y-122589151D01*
G37*
G36*
X67998501Y-116512976D02*
G01*
X68203718Y-116597980D01*
X68348829Y-116658087D01*
X68664116Y-116868755D01*
X68932245Y-117136884D01*
X69142913Y-117452171D01*
X69142913Y-117452172D01*
X69288024Y-117802499D01*
X69362000Y-118174403D01*
X69362000Y-118553597D01*
X69288024Y-118925501D01*
X69203020Y-119130718D01*
X69142913Y-119275829D01*
X68932245Y-119591116D01*
X68664116Y-119859245D01*
X68348829Y-120069913D01*
X68203718Y-120130020D01*
X67998501Y-120215024D01*
X67626597Y-120289000D01*
X67247403Y-120289000D01*
X66875499Y-120215024D01*
X66670282Y-120130020D01*
X66525171Y-120069913D01*
X66209884Y-119859245D01*
X65941755Y-119591116D01*
X65731087Y-119275829D01*
X65670980Y-119130718D01*
X65585976Y-118925501D01*
X65512000Y-118553597D01*
X65512000Y-118174403D01*
X65585976Y-117802499D01*
X65731087Y-117452172D01*
X65731087Y-117452171D01*
X65941755Y-117136884D01*
X66209884Y-116868755D01*
X66525171Y-116658087D01*
X66670282Y-116597980D01*
X66875499Y-116512976D01*
X67247403Y-116439000D01*
X67626597Y-116439000D01*
X67998501Y-116512976D01*
X67998501Y-116512976D01*
G37*
G36*
X221211301Y-116512976D02*
G01*
X221416518Y-116597980D01*
X221561629Y-116658087D01*
X221876916Y-116868755D01*
X222145045Y-117136884D01*
X222355713Y-117452171D01*
X222355713Y-117452172D01*
X222500824Y-117802499D01*
X222574800Y-118174403D01*
X222574800Y-118553597D01*
X222500824Y-118925501D01*
X222415820Y-119130718D01*
X222355713Y-119275829D01*
X222145045Y-119591116D01*
X221876916Y-119859245D01*
X221561629Y-120069913D01*
X221416518Y-120130020D01*
X221211301Y-120215024D01*
X220839397Y-120289000D01*
X220460203Y-120289000D01*
X220088299Y-120215024D01*
X219883082Y-120130020D01*
X219737971Y-120069913D01*
X219422684Y-119859245D01*
X219154555Y-119591116D01*
X218943887Y-119275829D01*
X218883780Y-119130718D01*
X218798776Y-118925501D01*
X218724800Y-118553597D01*
X218724800Y-118174403D01*
X218798776Y-117802499D01*
X218943887Y-117452172D01*
X218943887Y-117452171D01*
X219154555Y-117136884D01*
X219422684Y-116868755D01*
X219737971Y-116658087D01*
X219883082Y-116597980D01*
X220088299Y-116512976D01*
X220460203Y-116439000D01*
X220839397Y-116439000D01*
X221211301Y-116512976D01*
X221211301Y-116512976D01*
G37*
G36*
X131879501Y-116512976D02*
G01*
X132084718Y-116597980D01*
X132229829Y-116658087D01*
X132545116Y-116868755D01*
X132813245Y-117136884D01*
X133023913Y-117452171D01*
X133023913Y-117452172D01*
X133169024Y-117802499D01*
X133243000Y-118174403D01*
X133243000Y-118553597D01*
X133169024Y-118925501D01*
X133084020Y-119130718D01*
X133023913Y-119275829D01*
X132813245Y-119591116D01*
X132545116Y-119859245D01*
X132229829Y-120069913D01*
X132084718Y-120130020D01*
X131879501Y-120215024D01*
X131507597Y-120289000D01*
X131128403Y-120289000D01*
X130756499Y-120215024D01*
X130551282Y-120130020D01*
X130406171Y-120069913D01*
X130090884Y-119859245D01*
X129822755Y-119591116D01*
X129612087Y-119275829D01*
X129551980Y-119130718D01*
X129466976Y-118925501D01*
X129393000Y-118553597D01*
X129393000Y-118174403D01*
X129466976Y-117802499D01*
X129612087Y-117452172D01*
X129612087Y-117452171D01*
X129822755Y-117136884D01*
X130090884Y-116868755D01*
X130406171Y-116658087D01*
X130551282Y-116597980D01*
X130756499Y-116512976D01*
X131128403Y-116439000D01*
X131507597Y-116439000D01*
X131879501Y-116512976D01*
X131879501Y-116512976D01*
G37*
G36*
X139499501Y-116512976D02*
G01*
X139704718Y-116597980D01*
X139849829Y-116658087D01*
X140165116Y-116868755D01*
X140433245Y-117136884D01*
X140643913Y-117452171D01*
X140643913Y-117452172D01*
X140789024Y-117802499D01*
X140863000Y-118174403D01*
X140863000Y-118553597D01*
X140789024Y-118925501D01*
X140704020Y-119130718D01*
X140643913Y-119275829D01*
X140433245Y-119591116D01*
X140165116Y-119859245D01*
X139849829Y-120069913D01*
X139704718Y-120130020D01*
X139499501Y-120215024D01*
X139127597Y-120289000D01*
X138748403Y-120289000D01*
X138376499Y-120215024D01*
X138171282Y-120130020D01*
X138026171Y-120069913D01*
X137710884Y-119859245D01*
X137442755Y-119591116D01*
X137232087Y-119275829D01*
X137171980Y-119130718D01*
X137086976Y-118925501D01*
X137013000Y-118553597D01*
X137013000Y-118174403D01*
X137086976Y-117802499D01*
X137232087Y-117452172D01*
X137232087Y-117452171D01*
X137442755Y-117136884D01*
X137710884Y-116868755D01*
X138026171Y-116658087D01*
X138171282Y-116597980D01*
X138376499Y-116512976D01*
X138748403Y-116439000D01*
X139127597Y-116439000D01*
X139499501Y-116512976D01*
X139499501Y-116512976D01*
G37*
G36*
X208511301Y-116512976D02*
G01*
X208716518Y-116597980D01*
X208861629Y-116658087D01*
X209176916Y-116868755D01*
X209445045Y-117136884D01*
X209655713Y-117452171D01*
X209655713Y-117452172D01*
X209800824Y-117802499D01*
X209874800Y-118174403D01*
X209874800Y-118553597D01*
X209800824Y-118925501D01*
X209715820Y-119130718D01*
X209655713Y-119275829D01*
X209445045Y-119591116D01*
X209176916Y-119859245D01*
X208861629Y-120069913D01*
X208716518Y-120130020D01*
X208511301Y-120215024D01*
X208139397Y-120289000D01*
X207760203Y-120289000D01*
X207388299Y-120215024D01*
X207183082Y-120130020D01*
X207037971Y-120069913D01*
X206722684Y-119859245D01*
X206454555Y-119591116D01*
X206243887Y-119275829D01*
X206183780Y-119130718D01*
X206098776Y-118925501D01*
X206024800Y-118553597D01*
X206024800Y-118174403D01*
X206098776Y-117802499D01*
X206243887Y-117452172D01*
X206243887Y-117452171D01*
X206454555Y-117136884D01*
X206722684Y-116868755D01*
X207037971Y-116658087D01*
X207183082Y-116597980D01*
X207388299Y-116512976D01*
X207760203Y-116439000D01*
X208139397Y-116439000D01*
X208511301Y-116512976D01*
X208511301Y-116512976D01*
G37*
G36*
X80698501Y-116512976D02*
G01*
X80903718Y-116597980D01*
X81048829Y-116658087D01*
X81364116Y-116868755D01*
X81632245Y-117136884D01*
X81842913Y-117452171D01*
X81842913Y-117452172D01*
X81988024Y-117802499D01*
X82062000Y-118174403D01*
X82062000Y-118553597D01*
X81988024Y-118925501D01*
X81903020Y-119130718D01*
X81842913Y-119275829D01*
X81632245Y-119591116D01*
X81364116Y-119859245D01*
X81048829Y-120069913D01*
X80903718Y-120130020D01*
X80698501Y-120215024D01*
X80326597Y-120289000D01*
X79947403Y-120289000D01*
X79575499Y-120215024D01*
X79370282Y-120130020D01*
X79225171Y-120069913D01*
X78909884Y-119859245D01*
X78641755Y-119591116D01*
X78431087Y-119275829D01*
X78370980Y-119130718D01*
X78285976Y-118925501D01*
X78212000Y-118553597D01*
X78212000Y-118174403D01*
X78285976Y-117802499D01*
X78431087Y-117452172D01*
X78431087Y-117452171D01*
X78641755Y-117136884D01*
X78909884Y-116868755D01*
X79225171Y-116658087D01*
X79370282Y-116597980D01*
X79575499Y-116512976D01*
X79947403Y-116439000D01*
X80326597Y-116439000D01*
X80698501Y-116512976D01*
X80698501Y-116512976D01*
G37*
G36*
X212040404Y-108802968D02*
G01*
X212127942Y-108839228D01*
X212215478Y-108875486D01*
X212215479Y-108875487D01*
X212373037Y-108980763D01*
X212507037Y-109114763D01*
X212594807Y-109246121D01*
X212612314Y-109272322D01*
X212648572Y-109359858D01*
X212684832Y-109447396D01*
X212721800Y-109633250D01*
X212721800Y-109822750D01*
X212684832Y-110008604D01*
X212648572Y-110096142D01*
X212612314Y-110183678D01*
X212612313Y-110183679D01*
X212507037Y-110341237D01*
X212373037Y-110475237D01*
X212241679Y-110563007D01*
X212215478Y-110580514D01*
X212127942Y-110616772D01*
X212040404Y-110653032D01*
X211854550Y-110690000D01*
X211665050Y-110690000D01*
X211479196Y-110653032D01*
X211391658Y-110616772D01*
X211304122Y-110580514D01*
X211277921Y-110563007D01*
X211146563Y-110475237D01*
X211012563Y-110341237D01*
X210907287Y-110183679D01*
X210907286Y-110183678D01*
X210871028Y-110096142D01*
X210834768Y-110008604D01*
X210797800Y-109822750D01*
X210797800Y-109633250D01*
X210834768Y-109447396D01*
X210871028Y-109359858D01*
X210907286Y-109272322D01*
X210924793Y-109246121D01*
X211012563Y-109114763D01*
X211146563Y-108980763D01*
X211304121Y-108875487D01*
X211304122Y-108875486D01*
X211479196Y-108802968D01*
X211665050Y-108766000D01*
X211854550Y-108766000D01*
X212040404Y-108802968D01*
X212040404Y-108802968D01*
G37*
G36*
X76607604Y-108802968D02*
G01*
X76695142Y-108839228D01*
X76782678Y-108875486D01*
X76782679Y-108875487D01*
X76940237Y-108980763D01*
X77074237Y-109114763D01*
X77162007Y-109246121D01*
X77179514Y-109272322D01*
X77215772Y-109359858D01*
X77252032Y-109447396D01*
X77289000Y-109633250D01*
X77289000Y-109822750D01*
X77252032Y-110008604D01*
X77179514Y-110183678D01*
X77179513Y-110183679D01*
X77074237Y-110341237D01*
X76940237Y-110475237D01*
X76808879Y-110563007D01*
X76782678Y-110580514D01*
X76695142Y-110616772D01*
X76607604Y-110653032D01*
X76421750Y-110690000D01*
X76232250Y-110690000D01*
X76046396Y-110653032D01*
X75958858Y-110616772D01*
X75871322Y-110580514D01*
X75845121Y-110563007D01*
X75713763Y-110475237D01*
X75579763Y-110341237D01*
X75474487Y-110183679D01*
X75474486Y-110183678D01*
X75401968Y-110008604D01*
X75365000Y-109822750D01*
X75365000Y-109633250D01*
X75401968Y-109447396D01*
X75438228Y-109359858D01*
X75474486Y-109272322D01*
X75491993Y-109246121D01*
X75579763Y-109114763D01*
X75713763Y-108980763D01*
X75871321Y-108875487D01*
X75871322Y-108875486D01*
X76046396Y-108802968D01*
X76232250Y-108766000D01*
X76421750Y-108766000D01*
X76607604Y-108802968D01*
X76607604Y-108802968D01*
G37*
G36*
X74067604Y-108802968D02*
G01*
X74155142Y-108839228D01*
X74242678Y-108875486D01*
X74242679Y-108875487D01*
X74400237Y-108980763D01*
X74534237Y-109114763D01*
X74622007Y-109246121D01*
X74639514Y-109272322D01*
X74675772Y-109359858D01*
X74712032Y-109447396D01*
X74749000Y-109633250D01*
X74749000Y-109822750D01*
X74712032Y-110008604D01*
X74639514Y-110183678D01*
X74639513Y-110183679D01*
X74534237Y-110341237D01*
X74400237Y-110475237D01*
X74268879Y-110563007D01*
X74242678Y-110580514D01*
X74155142Y-110616772D01*
X74067604Y-110653032D01*
X73881750Y-110690000D01*
X73692250Y-110690000D01*
X73506396Y-110653032D01*
X73418858Y-110616772D01*
X73331322Y-110580514D01*
X73305121Y-110563007D01*
X73173763Y-110475237D01*
X73039763Y-110341237D01*
X72934487Y-110183679D01*
X72934486Y-110183678D01*
X72861968Y-110008604D01*
X72825000Y-109822750D01*
X72825000Y-109633250D01*
X72861968Y-109447396D01*
X72898228Y-109359858D01*
X72934486Y-109272322D01*
X72951993Y-109246121D01*
X73039763Y-109114763D01*
X73173763Y-108980763D01*
X73331321Y-108875487D01*
X73331322Y-108875486D01*
X73506396Y-108802968D01*
X73692250Y-108766000D01*
X73881750Y-108766000D01*
X74067604Y-108802968D01*
X74067604Y-108802968D01*
G37*
G36*
X71527604Y-108802968D02*
G01*
X71615142Y-108839228D01*
X71702678Y-108875486D01*
X71702679Y-108875487D01*
X71860237Y-108980763D01*
X71994237Y-109114763D01*
X72082007Y-109246121D01*
X72099514Y-109272322D01*
X72135772Y-109359858D01*
X72172032Y-109447396D01*
X72209000Y-109633250D01*
X72209000Y-109822750D01*
X72172032Y-110008604D01*
X72099514Y-110183678D01*
X72099513Y-110183679D01*
X71994237Y-110341237D01*
X71860237Y-110475237D01*
X71728879Y-110563007D01*
X71702678Y-110580514D01*
X71615142Y-110616772D01*
X71527604Y-110653032D01*
X71341750Y-110690000D01*
X71152250Y-110690000D01*
X70966396Y-110653032D01*
X70878858Y-110616772D01*
X70791322Y-110580514D01*
X70765121Y-110563007D01*
X70633763Y-110475237D01*
X70499763Y-110341237D01*
X70394487Y-110183679D01*
X70394486Y-110183678D01*
X70321968Y-110008604D01*
X70285000Y-109822750D01*
X70285000Y-109633250D01*
X70321968Y-109447396D01*
X70358228Y-109359858D01*
X70394486Y-109272322D01*
X70411993Y-109246121D01*
X70499763Y-109114763D01*
X70633763Y-108980763D01*
X70791321Y-108875487D01*
X70791322Y-108875486D01*
X70966396Y-108802968D01*
X71152250Y-108766000D01*
X71341750Y-108766000D01*
X71527604Y-108802968D01*
X71527604Y-108802968D01*
G37*
G36*
X68987604Y-108802968D02*
G01*
X69075142Y-108839228D01*
X69162678Y-108875486D01*
X69162679Y-108875487D01*
X69320237Y-108980763D01*
X69454237Y-109114763D01*
X69542007Y-109246121D01*
X69559514Y-109272322D01*
X69595772Y-109359858D01*
X69632032Y-109447396D01*
X69669000Y-109633250D01*
X69669000Y-109822750D01*
X69632032Y-110008604D01*
X69559514Y-110183678D01*
X69559513Y-110183679D01*
X69454237Y-110341237D01*
X69320237Y-110475237D01*
X69188879Y-110563007D01*
X69162678Y-110580514D01*
X69075142Y-110616772D01*
X68987604Y-110653032D01*
X68801750Y-110690000D01*
X68612250Y-110690000D01*
X68426396Y-110653032D01*
X68338858Y-110616772D01*
X68251322Y-110580514D01*
X68225121Y-110563007D01*
X68093763Y-110475237D01*
X67959763Y-110341237D01*
X67854487Y-110183679D01*
X67854486Y-110183678D01*
X67781968Y-110008604D01*
X67745000Y-109822750D01*
X67745000Y-109633250D01*
X67781968Y-109447396D01*
X67818228Y-109359858D01*
X67854486Y-109272322D01*
X67871993Y-109246121D01*
X67959763Y-109114763D01*
X68093763Y-108980763D01*
X68251321Y-108875487D01*
X68251322Y-108875486D01*
X68426396Y-108802968D01*
X68612250Y-108766000D01*
X68801750Y-108766000D01*
X68987604Y-108802968D01*
X68987604Y-108802968D01*
G37*
G36*
X79147604Y-108802968D02*
G01*
X79235142Y-108839228D01*
X79322678Y-108875486D01*
X79322679Y-108875487D01*
X79480237Y-108980763D01*
X79614237Y-109114763D01*
X79702007Y-109246121D01*
X79719514Y-109272322D01*
X79755772Y-109359858D01*
X79792032Y-109447396D01*
X79829000Y-109633250D01*
X79829000Y-109822750D01*
X79792032Y-110008604D01*
X79719514Y-110183678D01*
X79719513Y-110183679D01*
X79614237Y-110341237D01*
X79480237Y-110475237D01*
X79348879Y-110563007D01*
X79322678Y-110580514D01*
X79235142Y-110616772D01*
X79147604Y-110653032D01*
X78961750Y-110690000D01*
X78772250Y-110690000D01*
X78586396Y-110653032D01*
X78498858Y-110616772D01*
X78411322Y-110580514D01*
X78385121Y-110563007D01*
X78253763Y-110475237D01*
X78119763Y-110341237D01*
X78014487Y-110183679D01*
X78014486Y-110183678D01*
X77941968Y-110008604D01*
X77905000Y-109822750D01*
X77905000Y-109633250D01*
X77941968Y-109447396D01*
X77978228Y-109359858D01*
X78014486Y-109272322D01*
X78031993Y-109246121D01*
X78119763Y-109114763D01*
X78253763Y-108980763D01*
X78411321Y-108875487D01*
X78411322Y-108875486D01*
X78586396Y-108802968D01*
X78772250Y-108766000D01*
X78961750Y-108766000D01*
X79147604Y-108802968D01*
X79147604Y-108802968D01*
G37*
G36*
X135408604Y-108802968D02*
G01*
X135496142Y-108839228D01*
X135583678Y-108875486D01*
X135583679Y-108875487D01*
X135741237Y-108980763D01*
X135875237Y-109114763D01*
X135963007Y-109246121D01*
X135980514Y-109272322D01*
X136016772Y-109359858D01*
X136053032Y-109447396D01*
X136090000Y-109633250D01*
X136090000Y-109822750D01*
X136053032Y-110008604D01*
X136016772Y-110096142D01*
X135980514Y-110183678D01*
X135980513Y-110183679D01*
X135875237Y-110341237D01*
X135741237Y-110475237D01*
X135609879Y-110563007D01*
X135583678Y-110580514D01*
X135496142Y-110616772D01*
X135408604Y-110653032D01*
X135222750Y-110690000D01*
X135033250Y-110690000D01*
X134847396Y-110653032D01*
X134759858Y-110616772D01*
X134672322Y-110580514D01*
X134646121Y-110563007D01*
X134514763Y-110475237D01*
X134380763Y-110341237D01*
X134275487Y-110183679D01*
X134275486Y-110183678D01*
X134202968Y-110008604D01*
X134166000Y-109822750D01*
X134166000Y-109633250D01*
X134202968Y-109447396D01*
X134239228Y-109359858D01*
X134275486Y-109272322D01*
X134292993Y-109246121D01*
X134380763Y-109114763D01*
X134514763Y-108980763D01*
X134672321Y-108875487D01*
X134672322Y-108875486D01*
X134847396Y-108802968D01*
X135033250Y-108766000D01*
X135222750Y-108766000D01*
X135408604Y-108802968D01*
X135408604Y-108802968D01*
G37*
G36*
X137948604Y-108802968D02*
G01*
X138036142Y-108839228D01*
X138123678Y-108875486D01*
X138123679Y-108875487D01*
X138281237Y-108980763D01*
X138415237Y-109114763D01*
X138503007Y-109246121D01*
X138520514Y-109272322D01*
X138556772Y-109359858D01*
X138593032Y-109447396D01*
X138630000Y-109633250D01*
X138630000Y-109822750D01*
X138593032Y-110008604D01*
X138556772Y-110096142D01*
X138520514Y-110183678D01*
X138520513Y-110183679D01*
X138415237Y-110341237D01*
X138281237Y-110475237D01*
X138149879Y-110563007D01*
X138123678Y-110580514D01*
X138036142Y-110616772D01*
X137948604Y-110653032D01*
X137762750Y-110690000D01*
X137573250Y-110690000D01*
X137387396Y-110653032D01*
X137299858Y-110616772D01*
X137212322Y-110580514D01*
X137186121Y-110563007D01*
X137054763Y-110475237D01*
X136920763Y-110341237D01*
X136815487Y-110183679D01*
X136815486Y-110183678D01*
X136742968Y-110008604D01*
X136706000Y-109822750D01*
X136706000Y-109633250D01*
X136742968Y-109447396D01*
X136779228Y-109359858D01*
X136815486Y-109272322D01*
X136832993Y-109246121D01*
X136920763Y-109114763D01*
X137054763Y-108980763D01*
X137212321Y-108875487D01*
X137212322Y-108875486D01*
X137387396Y-108802968D01*
X137573250Y-108766000D01*
X137762750Y-108766000D01*
X137948604Y-108802968D01*
X137948604Y-108802968D01*
G37*
G36*
X209500404Y-108802968D02*
G01*
X209587942Y-108839228D01*
X209675478Y-108875486D01*
X209675479Y-108875487D01*
X209833037Y-108980763D01*
X209967037Y-109114763D01*
X210054807Y-109246121D01*
X210072314Y-109272322D01*
X210108572Y-109359858D01*
X210144832Y-109447396D01*
X210181800Y-109633250D01*
X210181800Y-109822750D01*
X210144832Y-110008604D01*
X210108572Y-110096142D01*
X210072314Y-110183678D01*
X210072313Y-110183679D01*
X209967037Y-110341237D01*
X209833037Y-110475237D01*
X209701679Y-110563007D01*
X209675478Y-110580514D01*
X209587942Y-110616772D01*
X209500404Y-110653032D01*
X209314550Y-110690000D01*
X209125050Y-110690000D01*
X208939196Y-110653032D01*
X208851658Y-110616772D01*
X208764122Y-110580514D01*
X208737921Y-110563007D01*
X208606563Y-110475237D01*
X208472563Y-110341237D01*
X208367287Y-110183679D01*
X208367286Y-110183678D01*
X208331028Y-110096142D01*
X208294768Y-110008604D01*
X208257800Y-109822750D01*
X208257800Y-109633250D01*
X208294768Y-109447396D01*
X208331028Y-109359858D01*
X208367286Y-109272322D01*
X208384793Y-109246121D01*
X208472563Y-109114763D01*
X208606563Y-108980763D01*
X208764121Y-108875487D01*
X208764122Y-108875486D01*
X208939196Y-108802968D01*
X209125050Y-108766000D01*
X209314550Y-108766000D01*
X209500404Y-108802968D01*
X209500404Y-108802968D01*
G37*
G36*
X214580404Y-108802968D02*
G01*
X214667942Y-108839228D01*
X214755478Y-108875486D01*
X214755479Y-108875487D01*
X214913037Y-108980763D01*
X215047037Y-109114763D01*
X215134807Y-109246121D01*
X215152314Y-109272322D01*
X215188572Y-109359858D01*
X215224832Y-109447396D01*
X215261800Y-109633250D01*
X215261800Y-109822750D01*
X215224832Y-110008604D01*
X215188572Y-110096142D01*
X215152314Y-110183678D01*
X215152313Y-110183679D01*
X215047037Y-110341237D01*
X214913037Y-110475237D01*
X214781679Y-110563007D01*
X214755478Y-110580514D01*
X214667942Y-110616772D01*
X214580404Y-110653032D01*
X214394550Y-110690000D01*
X214205050Y-110690000D01*
X214019196Y-110653032D01*
X213931658Y-110616772D01*
X213844122Y-110580514D01*
X213817921Y-110563007D01*
X213686563Y-110475237D01*
X213552563Y-110341237D01*
X213447287Y-110183679D01*
X213447286Y-110183678D01*
X213411028Y-110096142D01*
X213374768Y-110008604D01*
X213337800Y-109822750D01*
X213337800Y-109633250D01*
X213374768Y-109447396D01*
X213411028Y-109359858D01*
X213447286Y-109272322D01*
X213464793Y-109246121D01*
X213552563Y-109114763D01*
X213686563Y-108980763D01*
X213844121Y-108875487D01*
X213844122Y-108875486D01*
X214019196Y-108802968D01*
X214205050Y-108766000D01*
X214394550Y-108766000D01*
X214580404Y-108802968D01*
X214580404Y-108802968D01*
G37*
G36*
X217120404Y-108802968D02*
G01*
X217207942Y-108839228D01*
X217295478Y-108875486D01*
X217295479Y-108875487D01*
X217453037Y-108980763D01*
X217587037Y-109114763D01*
X217674807Y-109246121D01*
X217692314Y-109272322D01*
X217728572Y-109359858D01*
X217764832Y-109447396D01*
X217801800Y-109633250D01*
X217801800Y-109822750D01*
X217764832Y-110008604D01*
X217728572Y-110096142D01*
X217692314Y-110183678D01*
X217692313Y-110183679D01*
X217587037Y-110341237D01*
X217453037Y-110475237D01*
X217321679Y-110563007D01*
X217295478Y-110580514D01*
X217207942Y-110616772D01*
X217120404Y-110653032D01*
X216934550Y-110690000D01*
X216745050Y-110690000D01*
X216559196Y-110653032D01*
X216471658Y-110616772D01*
X216384122Y-110580514D01*
X216357921Y-110563007D01*
X216226563Y-110475237D01*
X216092563Y-110341237D01*
X215987287Y-110183679D01*
X215987286Y-110183678D01*
X215951028Y-110096142D01*
X215914768Y-110008604D01*
X215877800Y-109822750D01*
X215877800Y-109633250D01*
X215914768Y-109447396D01*
X215951028Y-109359858D01*
X215987286Y-109272322D01*
X216004793Y-109246121D01*
X216092563Y-109114763D01*
X216226563Y-108980763D01*
X216384121Y-108875487D01*
X216384122Y-108875486D01*
X216559196Y-108802968D01*
X216745050Y-108766000D01*
X216934550Y-108766000D01*
X217120404Y-108802968D01*
X217120404Y-108802968D01*
G37*
G36*
X219660404Y-108802968D02*
G01*
X219747942Y-108839228D01*
X219835478Y-108875486D01*
X219835479Y-108875487D01*
X219993037Y-108980763D01*
X220127037Y-109114763D01*
X220214807Y-109246121D01*
X220232314Y-109272322D01*
X220268572Y-109359858D01*
X220304832Y-109447396D01*
X220341800Y-109633250D01*
X220341800Y-109822750D01*
X220304832Y-110008604D01*
X220268572Y-110096142D01*
X220232314Y-110183678D01*
X220232313Y-110183679D01*
X220127037Y-110341237D01*
X219993037Y-110475237D01*
X219861679Y-110563007D01*
X219835478Y-110580514D01*
X219747942Y-110616772D01*
X219660404Y-110653032D01*
X219474550Y-110690000D01*
X219285050Y-110690000D01*
X219099196Y-110653032D01*
X219011658Y-110616772D01*
X218924122Y-110580514D01*
X218897921Y-110563007D01*
X218766563Y-110475237D01*
X218632563Y-110341237D01*
X218527287Y-110183679D01*
X218527286Y-110183678D01*
X218491028Y-110096142D01*
X218454768Y-110008604D01*
X218417800Y-109822750D01*
X218417800Y-109633250D01*
X218454768Y-109447396D01*
X218491028Y-109359858D01*
X218527286Y-109272322D01*
X218544793Y-109246121D01*
X218632563Y-109114763D01*
X218766563Y-108980763D01*
X218924121Y-108875487D01*
X218924122Y-108875486D01*
X219099196Y-108802968D01*
X219285050Y-108766000D01*
X219474550Y-108766000D01*
X219660404Y-108802968D01*
X219660404Y-108802968D01*
G37*
G36*
X132868604Y-108802968D02*
G01*
X132956142Y-108839228D01*
X133043678Y-108875486D01*
X133043679Y-108875487D01*
X133201237Y-108980763D01*
X133335237Y-109114763D01*
X133423007Y-109246121D01*
X133440514Y-109272322D01*
X133476772Y-109359858D01*
X133513032Y-109447396D01*
X133550000Y-109633250D01*
X133550000Y-109822750D01*
X133513032Y-110008604D01*
X133476772Y-110096142D01*
X133440514Y-110183678D01*
X133440513Y-110183679D01*
X133335237Y-110341237D01*
X133201237Y-110475237D01*
X133069879Y-110563007D01*
X133043678Y-110580514D01*
X132956142Y-110616772D01*
X132868604Y-110653032D01*
X132682750Y-110690000D01*
X132493250Y-110690000D01*
X132307396Y-110653032D01*
X132219858Y-110616772D01*
X132132322Y-110580514D01*
X132106121Y-110563007D01*
X131974763Y-110475237D01*
X131840763Y-110341237D01*
X131735487Y-110183679D01*
X131735486Y-110183678D01*
X131662968Y-110008604D01*
X131626000Y-109822750D01*
X131626000Y-109633250D01*
X131662968Y-109447396D01*
X131699228Y-109359858D01*
X131735486Y-109272322D01*
X131752993Y-109246121D01*
X131840763Y-109114763D01*
X131974763Y-108980763D01*
X132132321Y-108875487D01*
X132132322Y-108875486D01*
X132307396Y-108802968D01*
X132493250Y-108766000D01*
X132682750Y-108766000D01*
X132868604Y-108802968D01*
X132868604Y-108802968D01*
G37*
G36*
X154800775Y-102232197D02*
G01*
X154977229Y-102267296D01*
X155475877Y-102473843D01*
X155924648Y-102773703D01*
X156306297Y-103155352D01*
X156606158Y-103604125D01*
X156812704Y-104102772D01*
X156918000Y-104632132D01*
X156918000Y-105171868D01*
X156847803Y-105524775D01*
X156812704Y-105701229D01*
X156606157Y-106199877D01*
X156306297Y-106648648D01*
X155924648Y-107030297D01*
X155475877Y-107330157D01*
X154977229Y-107536704D01*
X154800775Y-107571803D01*
X154447868Y-107642000D01*
X153908132Y-107642000D01*
X153555225Y-107571803D01*
X153378771Y-107536704D01*
X152880123Y-107330157D01*
X152431352Y-107030297D01*
X152049703Y-106648648D01*
X151749843Y-106199877D01*
X151543296Y-105701229D01*
X151508197Y-105524775D01*
X151438000Y-105171868D01*
X151438000Y-104632132D01*
X151543296Y-104102772D01*
X151749842Y-103604125D01*
X152049703Y-103155352D01*
X152431352Y-102773703D01*
X152880123Y-102473843D01*
X153378771Y-102267296D01*
X153555225Y-102232197D01*
X153908132Y-102162000D01*
X154447868Y-102162000D01*
X154800775Y-102232197D01*
X154800775Y-102232197D01*
G37*
G36*
X192265775Y-102105197D02*
G01*
X192442229Y-102140296D01*
X192940877Y-102346843D01*
X193389648Y-102646703D01*
X193771297Y-103028352D01*
X194071158Y-103477125D01*
X194277704Y-103975772D01*
X194383000Y-104505132D01*
X194383000Y-105044868D01*
X194277704Y-105574228D01*
X194093060Y-106020000D01*
X194071157Y-106072877D01*
X193771297Y-106521648D01*
X193389648Y-106903297D01*
X192940877Y-107203157D01*
X192442229Y-107409704D01*
X192265775Y-107444803D01*
X191912868Y-107515000D01*
X191373132Y-107515000D01*
X191020225Y-107444803D01*
X190843771Y-107409704D01*
X190345123Y-107203157D01*
X189896352Y-106903297D01*
X189514703Y-106521648D01*
X189214843Y-106072877D01*
X189192941Y-106020000D01*
X189008296Y-105574228D01*
X188903000Y-105044868D01*
X188903000Y-104505132D01*
X189008296Y-103975772D01*
X189214842Y-103477125D01*
X189514703Y-103028352D01*
X189896352Y-102646703D01*
X190345123Y-102346843D01*
X190843771Y-102140296D01*
X191020225Y-102105197D01*
X191373132Y-102035000D01*
X191912868Y-102035000D01*
X192265775Y-102105197D01*
X192265775Y-102105197D01*
G37*
G36*
X184391775Y-102105197D02*
G01*
X184568229Y-102140296D01*
X185066877Y-102346843D01*
X185515648Y-102646703D01*
X185897297Y-103028352D01*
X186197158Y-103477125D01*
X186403704Y-103975772D01*
X186509000Y-104505132D01*
X186509000Y-105044868D01*
X186403704Y-105574228D01*
X186219060Y-106020000D01*
X186197157Y-106072877D01*
X185897297Y-106521648D01*
X185515648Y-106903297D01*
X185066877Y-107203157D01*
X184568229Y-107409704D01*
X184391775Y-107444803D01*
X184038868Y-107515000D01*
X183499132Y-107515000D01*
X183146225Y-107444803D01*
X182969771Y-107409704D01*
X182471123Y-107203157D01*
X182022352Y-106903297D01*
X181640703Y-106521648D01*
X181340843Y-106072877D01*
X181318941Y-106020000D01*
X181134296Y-105574228D01*
X181029000Y-105044868D01*
X181029000Y-104505132D01*
X181134296Y-103975772D01*
X181340842Y-103477125D01*
X181640703Y-103028352D01*
X182022352Y-102646703D01*
X182471123Y-102346843D01*
X182969771Y-102140296D01*
X183146225Y-102105197D01*
X183499132Y-102035000D01*
X184038868Y-102035000D01*
X184391775Y-102105197D01*
X184391775Y-102105197D01*
G37*
G36*
X104889775Y-102105197D02*
G01*
X105066229Y-102140296D01*
X105564877Y-102346843D01*
X106013648Y-102646703D01*
X106395297Y-103028352D01*
X106695158Y-103477125D01*
X106901704Y-103975772D01*
X107007000Y-104505132D01*
X107007000Y-105044868D01*
X106901704Y-105574228D01*
X106717060Y-106020000D01*
X106695157Y-106072877D01*
X106395297Y-106521648D01*
X106013648Y-106903297D01*
X105564877Y-107203157D01*
X105066229Y-107409704D01*
X104889775Y-107444803D01*
X104536868Y-107515000D01*
X103997132Y-107515000D01*
X103644225Y-107444803D01*
X103467771Y-107409704D01*
X102969123Y-107203157D01*
X102520352Y-106903297D01*
X102138703Y-106521648D01*
X101838843Y-106072877D01*
X101816941Y-106020000D01*
X101632296Y-105574228D01*
X101527000Y-105044868D01*
X101527000Y-104505132D01*
X101632296Y-103975772D01*
X101838842Y-103477125D01*
X102138703Y-103028352D01*
X102520352Y-102646703D01*
X102969123Y-102346843D01*
X103467771Y-102140296D01*
X103644225Y-102105197D01*
X103997132Y-102035000D01*
X104536868Y-102035000D01*
X104889775Y-102105197D01*
X104889775Y-102105197D01*
G37*
G36*
X89141775Y-102105197D02*
G01*
X89318229Y-102140296D01*
X89816877Y-102346843D01*
X90265648Y-102646703D01*
X90647297Y-103028352D01*
X90947158Y-103477125D01*
X91153704Y-103975772D01*
X91259000Y-104505132D01*
X91259000Y-105044868D01*
X91153704Y-105574228D01*
X90969060Y-106020000D01*
X90947157Y-106072877D01*
X90647297Y-106521648D01*
X90265648Y-106903297D01*
X89816877Y-107203157D01*
X89318229Y-107409704D01*
X89141775Y-107444803D01*
X88788868Y-107515000D01*
X88249132Y-107515000D01*
X87896225Y-107444803D01*
X87719771Y-107409704D01*
X87221123Y-107203157D01*
X86772352Y-106903297D01*
X86390703Y-106521648D01*
X86090843Y-106072877D01*
X86068941Y-106020000D01*
X85884296Y-105574228D01*
X85779000Y-105044868D01*
X85779000Y-104505132D01*
X85884296Y-103975772D01*
X86090842Y-103477125D01*
X86390703Y-103028352D01*
X86772352Y-102646703D01*
X87221123Y-102346843D01*
X87719771Y-102140296D01*
X87896225Y-102105197D01*
X88249132Y-102035000D01*
X88788868Y-102035000D01*
X89141775Y-102105197D01*
X89141775Y-102105197D01*
G37*
G36*
X200139775Y-102105197D02*
G01*
X200316229Y-102140296D01*
X200814877Y-102346843D01*
X201263648Y-102646703D01*
X201645297Y-103028352D01*
X201945158Y-103477125D01*
X202151704Y-103975772D01*
X202257000Y-104505132D01*
X202257000Y-105044868D01*
X202151704Y-105574228D01*
X201967060Y-106020000D01*
X201945157Y-106072877D01*
X201645297Y-106521648D01*
X201263648Y-106903297D01*
X200814877Y-107203157D01*
X200316229Y-107409704D01*
X200139775Y-107444803D01*
X199786868Y-107515000D01*
X199247132Y-107515000D01*
X198894225Y-107444803D01*
X198717771Y-107409704D01*
X198219123Y-107203157D01*
X197770352Y-106903297D01*
X197388703Y-106521648D01*
X197088843Y-106072877D01*
X197066941Y-106020000D01*
X196882296Y-105574228D01*
X196777000Y-105044868D01*
X196777000Y-104505132D01*
X196882296Y-103975772D01*
X197088842Y-103477125D01*
X197388703Y-103028352D01*
X197770352Y-102646703D01*
X198219123Y-102346843D01*
X198717771Y-102140296D01*
X198894225Y-102105197D01*
X199247132Y-102035000D01*
X199786868Y-102035000D01*
X200139775Y-102105197D01*
X200139775Y-102105197D01*
G37*
G36*
X97015775Y-102105197D02*
G01*
X97192229Y-102140296D01*
X97690877Y-102346843D01*
X98139648Y-102646703D01*
X98521297Y-103028352D01*
X98821158Y-103477125D01*
X99027704Y-103975772D01*
X99133000Y-104505132D01*
X99133000Y-105044868D01*
X99027704Y-105574228D01*
X98843060Y-106020000D01*
X98821157Y-106072877D01*
X98521297Y-106521648D01*
X98139648Y-106903297D01*
X97690877Y-107203157D01*
X97192229Y-107409704D01*
X97015775Y-107444803D01*
X96662868Y-107515000D01*
X96123132Y-107515000D01*
X95770225Y-107444803D01*
X95593771Y-107409704D01*
X95095123Y-107203157D01*
X94646352Y-106903297D01*
X94264703Y-106521648D01*
X93964843Y-106072877D01*
X93942941Y-106020000D01*
X93758296Y-105574228D01*
X93653000Y-105044868D01*
X93653000Y-104505132D01*
X93758296Y-103975772D01*
X93964842Y-103477125D01*
X94264703Y-103028352D01*
X94646352Y-102646703D01*
X95095123Y-102346843D01*
X95593771Y-102140296D01*
X95770225Y-102105197D01*
X96123132Y-102035000D01*
X96662868Y-102035000D01*
X97015775Y-102105197D01*
X97015775Y-102105197D01*
G37*
G36*
X80041704Y-99742974D02*
G01*
X80624067Y-99984196D01*
X80624068Y-99984197D01*
X81148181Y-100334398D01*
X81593902Y-100780119D01*
X81605282Y-100797151D01*
X81944104Y-101304233D01*
X82185326Y-101886596D01*
X82308300Y-102504826D01*
X82308300Y-103135174D01*
X82185326Y-103753404D01*
X81944104Y-104335767D01*
X81944103Y-104335768D01*
X81593902Y-104859881D01*
X81148181Y-105305602D01*
X80797979Y-105539599D01*
X80624067Y-105655804D01*
X80041704Y-105897026D01*
X79423474Y-106020000D01*
X78793126Y-106020000D01*
X78174896Y-105897026D01*
X77592533Y-105655804D01*
X77418621Y-105539599D01*
X77068419Y-105305602D01*
X76622698Y-104859881D01*
X76272497Y-104335768D01*
X76272496Y-104335767D01*
X76031274Y-103753404D01*
X75908300Y-103135174D01*
X75908300Y-102504826D01*
X76031274Y-101886596D01*
X76272496Y-101304233D01*
X76611318Y-100797151D01*
X76622698Y-100780119D01*
X77068419Y-100334398D01*
X77592532Y-99984197D01*
X77592533Y-99984196D01*
X78174896Y-99742974D01*
X78793126Y-99620000D01*
X79423474Y-99620000D01*
X80041704Y-99742974D01*
X80041704Y-99742974D01*
G37*
G36*
X205728148Y-93097068D02*
G01*
X205979305Y-93147026D01*
X206689060Y-93441016D01*
X207001527Y-93649800D01*
X207327821Y-93867823D01*
X207871045Y-94411047D01*
X208005184Y-94611800D01*
X208297852Y-95049808D01*
X208579648Y-95730123D01*
X208591842Y-95759564D01*
X208741717Y-96513033D01*
X208741717Y-97281269D01*
X208738415Y-97297868D01*
X208591842Y-98034739D01*
X208297852Y-98744494D01*
X208082999Y-99066044D01*
X208022694Y-99156297D01*
X207871044Y-99383256D01*
X207327822Y-99926478D01*
X206689060Y-100353286D01*
X205979305Y-100647276D01*
X205728148Y-100697234D01*
X205225835Y-100797151D01*
X204457599Y-100797151D01*
X203955286Y-100697234D01*
X203704129Y-100647276D01*
X202994374Y-100353286D01*
X202355612Y-99926478D01*
X201812390Y-99383256D01*
X201660741Y-99156297D01*
X201600435Y-99066044D01*
X201385582Y-98744494D01*
X201091592Y-98034739D01*
X200945019Y-97297868D01*
X200941717Y-97281269D01*
X200941717Y-96513033D01*
X201091592Y-95759564D01*
X201103787Y-95730123D01*
X201385582Y-95049808D01*
X201678250Y-94611800D01*
X201812389Y-94411047D01*
X202355613Y-93867823D01*
X202681907Y-93649800D01*
X202994374Y-93441016D01*
X203704129Y-93147026D01*
X203955286Y-93097068D01*
X204457599Y-92997151D01*
X205225835Y-92997151D01*
X205728148Y-93097068D01*
X205728148Y-93097068D01*
G37*
G36*
X154800775Y-94358197D02*
G01*
X154977229Y-94393296D01*
X155122680Y-94453544D01*
X155471141Y-94597881D01*
X155475877Y-94599843D01*
X155924648Y-94899703D01*
X156306297Y-95281352D01*
X156606158Y-95730125D01*
X156618352Y-95759564D01*
X156812704Y-96228771D01*
X156918000Y-96758134D01*
X156918000Y-97297866D01*
X156812704Y-97827229D01*
X156606157Y-98325877D01*
X156306297Y-98774648D01*
X155924648Y-99156297D01*
X155475877Y-99456157D01*
X154977229Y-99662704D01*
X154800775Y-99697803D01*
X154447868Y-99768000D01*
X153908132Y-99768000D01*
X153555225Y-99697803D01*
X153378771Y-99662704D01*
X152880123Y-99456157D01*
X152431352Y-99156297D01*
X152049703Y-98774648D01*
X151749843Y-98325877D01*
X151543296Y-97827229D01*
X151438000Y-97297866D01*
X151438000Y-96758134D01*
X151543296Y-96228771D01*
X151737648Y-95759564D01*
X151749842Y-95730125D01*
X152049703Y-95281352D01*
X152431352Y-94899703D01*
X152880123Y-94599843D01*
X152884860Y-94597881D01*
X153233320Y-94453544D01*
X153378771Y-94393296D01*
X153555225Y-94358197D01*
X153908132Y-94288000D01*
X154447868Y-94288000D01*
X154800775Y-94358197D01*
X154800775Y-94358197D01*
G37*
G36*
X136675483Y-92701719D02*
G01*
X136856825Y-92756729D01*
X137023943Y-92846056D01*
X137170428Y-92966272D01*
X137290644Y-93112757D01*
X137379971Y-93279875D01*
X137434981Y-93461217D01*
X137453554Y-93649800D01*
X137434981Y-93838383D01*
X137379971Y-94019725D01*
X137290644Y-94186843D01*
X137170428Y-94333328D01*
X137023943Y-94453544D01*
X136856825Y-94542871D01*
X136675483Y-94597881D01*
X136534157Y-94611800D01*
X135423643Y-94611800D01*
X135282317Y-94597881D01*
X135100975Y-94542871D01*
X134933857Y-94453544D01*
X134787372Y-94333328D01*
X134667156Y-94186843D01*
X134577829Y-94019725D01*
X134522819Y-93838383D01*
X134504246Y-93649800D01*
X134522819Y-93461217D01*
X134577829Y-93279875D01*
X134667156Y-93112757D01*
X134787372Y-92966272D01*
X134933857Y-92846056D01*
X135100975Y-92756729D01*
X135282317Y-92701719D01*
X135423643Y-92687800D01*
X136534157Y-92687800D01*
X136675483Y-92701719D01*
X136675483Y-92701719D01*
G37*
G36*
X62837683Y-92701719D02*
G01*
X63019025Y-92756729D01*
X63186143Y-92846056D01*
X63332628Y-92966272D01*
X63452844Y-93112757D01*
X63542171Y-93279875D01*
X63597181Y-93461217D01*
X63615754Y-93649800D01*
X63597181Y-93838383D01*
X63542171Y-94019725D01*
X63452844Y-94186843D01*
X63332628Y-94333328D01*
X63186143Y-94453544D01*
X63019025Y-94542871D01*
X62837683Y-94597881D01*
X62696357Y-94611800D01*
X61585843Y-94611800D01*
X61444517Y-94597881D01*
X61263175Y-94542871D01*
X61096057Y-94453544D01*
X60949572Y-94333328D01*
X60829356Y-94186843D01*
X60740029Y-94019725D01*
X60685019Y-93838383D01*
X60666446Y-93649800D01*
X60685019Y-93461217D01*
X60740029Y-93279875D01*
X60829356Y-93112757D01*
X60949572Y-92966272D01*
X61096057Y-92846056D01*
X61263175Y-92756729D01*
X61444517Y-92701719D01*
X61585843Y-92687800D01*
X62696357Y-92687800D01*
X62837683Y-92701719D01*
X62837683Y-92701719D01*
G37*
G36*
X62837683Y-89298119D02*
G01*
X63019025Y-89353129D01*
X63186143Y-89442456D01*
X63332628Y-89562672D01*
X63452844Y-89709157D01*
X63542171Y-89876275D01*
X63597181Y-90057617D01*
X63615754Y-90246200D01*
X63597181Y-90434783D01*
X63542171Y-90616125D01*
X63452844Y-90783243D01*
X63332628Y-90929728D01*
X63186143Y-91049944D01*
X63019025Y-91139271D01*
X62837683Y-91194281D01*
X62696357Y-91208200D01*
X61585843Y-91208200D01*
X61444517Y-91194281D01*
X61263175Y-91139271D01*
X61096057Y-91049944D01*
X60949572Y-90929728D01*
X60829356Y-90783243D01*
X60740029Y-90616125D01*
X60685019Y-90434783D01*
X60666446Y-90246200D01*
X60685019Y-90057617D01*
X60740029Y-89876275D01*
X60829356Y-89709157D01*
X60949572Y-89562672D01*
X61096057Y-89442456D01*
X61263175Y-89353129D01*
X61444517Y-89298119D01*
X61585843Y-89284200D01*
X62696357Y-89284200D01*
X62837683Y-89298119D01*
X62837683Y-89298119D01*
G37*
G36*
X136675483Y-89298119D02*
G01*
X136856825Y-89353129D01*
X137023943Y-89442456D01*
X137170428Y-89562672D01*
X137290644Y-89709157D01*
X137379971Y-89876275D01*
X137434981Y-90057617D01*
X137453554Y-90246200D01*
X137434981Y-90434783D01*
X137379971Y-90616125D01*
X137290644Y-90783243D01*
X137170428Y-90929728D01*
X137023943Y-91049944D01*
X136856825Y-91139271D01*
X136675483Y-91194281D01*
X136534157Y-91208200D01*
X135423643Y-91208200D01*
X135282317Y-91194281D01*
X135100975Y-91139271D01*
X134933857Y-91049944D01*
X134787372Y-90929728D01*
X134667156Y-90783243D01*
X134577829Y-90616125D01*
X134522819Y-90434783D01*
X134504246Y-90246200D01*
X134522819Y-90057617D01*
X134577829Y-89876275D01*
X134667156Y-89709157D01*
X134787372Y-89562672D01*
X134933857Y-89442456D01*
X135100975Y-89353129D01*
X135282317Y-89298119D01*
X135423643Y-89284200D01*
X136534157Y-89284200D01*
X136675483Y-89298119D01*
X136675483Y-89298119D01*
G37*
G36*
X205728148Y-82597068D02*
G01*
X205979305Y-82647026D01*
X206689060Y-82941016D01*
X207010610Y-83155869D01*
X207327821Y-83367823D01*
X207871045Y-83911047D01*
X208297853Y-84549810D01*
X208591842Y-85259564D01*
X208741717Y-86013033D01*
X208741717Y-86781269D01*
X208591842Y-87534738D01*
X208297853Y-88244492D01*
X207871045Y-88883255D01*
X207327821Y-89426479D01*
X207303908Y-89442457D01*
X206689060Y-89853286D01*
X206689059Y-89853287D01*
X206689058Y-89853287D01*
X206481175Y-89939395D01*
X205979305Y-90147276D01*
X205728148Y-90197234D01*
X205225835Y-90297151D01*
X204457599Y-90297151D01*
X203955286Y-90197234D01*
X203704129Y-90147276D01*
X203202259Y-89939395D01*
X202994376Y-89853287D01*
X202994375Y-89853287D01*
X202994374Y-89853286D01*
X202379526Y-89442457D01*
X202355613Y-89426479D01*
X201812389Y-88883255D01*
X201385581Y-88244492D01*
X201091592Y-87534738D01*
X200941717Y-86781269D01*
X200941717Y-86013033D01*
X201091592Y-85259564D01*
X201385581Y-84549810D01*
X201812389Y-83911047D01*
X202355613Y-83367823D01*
X202672824Y-83155869D01*
X202994374Y-82941016D01*
X203704129Y-82647026D01*
X203955286Y-82597068D01*
X204457599Y-82497151D01*
X205225835Y-82497151D01*
X205728148Y-82597068D01*
X205728148Y-82597068D01*
G37*
G36*
X119932404Y-78242974D02*
G01*
X120514767Y-78484196D01*
X120659508Y-78580909D01*
X121038881Y-78834398D01*
X121484602Y-79280119D01*
X121718599Y-79630321D01*
X121834804Y-79804233D01*
X122076026Y-80386596D01*
X122199000Y-81004826D01*
X122199000Y-81635174D01*
X122076026Y-82253404D01*
X121834804Y-82835767D01*
X121834803Y-82835768D01*
X121484602Y-83359881D01*
X121038881Y-83805602D01*
X120881071Y-83911047D01*
X120514767Y-84155804D01*
X119932404Y-84397026D01*
X119314174Y-84520000D01*
X118683826Y-84520000D01*
X118065596Y-84397026D01*
X117483233Y-84155804D01*
X117116929Y-83911047D01*
X116959119Y-83805602D01*
X116513398Y-83359881D01*
X116163197Y-82835768D01*
X116163196Y-82835767D01*
X115921974Y-82253404D01*
X115799000Y-81635174D01*
X115799000Y-81004826D01*
X115921974Y-80386596D01*
X116163196Y-79804233D01*
X116279401Y-79630321D01*
X116513398Y-79280119D01*
X116959119Y-78834398D01*
X117338492Y-78580909D01*
X117483233Y-78484196D01*
X118065596Y-78242974D01*
X118683826Y-78120000D01*
X119314174Y-78120000D01*
X119932404Y-78242974D01*
X119932404Y-78242974D01*
G37*
G36*
X87228148Y-73597068D02*
G01*
X87479305Y-73647026D01*
X88189060Y-73941016D01*
X88510610Y-74155869D01*
X88827821Y-74367823D01*
X89371045Y-74911047D01*
X89797853Y-75549810D01*
X90091842Y-76259564D01*
X90241717Y-77013033D01*
X90241717Y-77781269D01*
X90238560Y-77797138D01*
X90091842Y-78534739D01*
X89983147Y-78797151D01*
X89797853Y-79244492D01*
X89423847Y-79804232D01*
X89371044Y-79883256D01*
X88827822Y-80426478D01*
X88189060Y-80853286D01*
X87479305Y-81147276D01*
X87228148Y-81197234D01*
X86725835Y-81297151D01*
X85957599Y-81297151D01*
X85455286Y-81197234D01*
X85204129Y-81147276D01*
X84494374Y-80853286D01*
X83855612Y-80426478D01*
X83312390Y-79883256D01*
X83259588Y-79804232D01*
X82885581Y-79244492D01*
X82700287Y-78797151D01*
X82591592Y-78534739D01*
X82444874Y-77797138D01*
X82441717Y-77781269D01*
X82441717Y-77013033D01*
X82591592Y-76259564D01*
X82885581Y-75549810D01*
X83312389Y-74911047D01*
X83855613Y-74367823D01*
X84172824Y-74155869D01*
X84494374Y-73941016D01*
X85204129Y-73647026D01*
X85455286Y-73597068D01*
X85957599Y-73497151D01*
X86725835Y-73497151D01*
X87228148Y-73597068D01*
X87228148Y-73597068D01*
G37*
G36*
X184728148Y-73597068D02*
G01*
X184979305Y-73647026D01*
X185689060Y-73941016D01*
X186010610Y-74155869D01*
X186327821Y-74367823D01*
X186871045Y-74911047D01*
X187297853Y-75549810D01*
X187591842Y-76259564D01*
X187741717Y-77013033D01*
X187741717Y-77781269D01*
X187738560Y-77797138D01*
X187591842Y-78534739D01*
X187483147Y-78797151D01*
X187297853Y-79244492D01*
X186923847Y-79804232D01*
X186871044Y-79883256D01*
X186327822Y-80426478D01*
X185689060Y-80853286D01*
X184979305Y-81147276D01*
X184728148Y-81197234D01*
X184225835Y-81297151D01*
X183457599Y-81297151D01*
X182955286Y-81197234D01*
X182704129Y-81147276D01*
X181994374Y-80853286D01*
X181355612Y-80426478D01*
X180812390Y-79883256D01*
X180759588Y-79804232D01*
X180385581Y-79244492D01*
X180200287Y-78797151D01*
X180091592Y-78534739D01*
X179944874Y-77797138D01*
X179941717Y-77781269D01*
X179941717Y-77013033D01*
X180091592Y-76259564D01*
X180385581Y-75549810D01*
X180812389Y-74911047D01*
X181355613Y-74367823D01*
X181672824Y-74155869D01*
X181994374Y-73941016D01*
X182704129Y-73647026D01*
X182955286Y-73597068D01*
X183457599Y-73497151D01*
X184225835Y-73497151D01*
X184728148Y-73597068D01*
X184728148Y-73597068D01*
G37*
G36*
X175228148Y-73597068D02*
G01*
X175479305Y-73647026D01*
X176189060Y-73941016D01*
X176510610Y-74155869D01*
X176827821Y-74367823D01*
X177371045Y-74911047D01*
X177797853Y-75549810D01*
X178091842Y-76259564D01*
X178241717Y-77013033D01*
X178241717Y-77781269D01*
X178238560Y-77797138D01*
X178091842Y-78534739D01*
X177983147Y-78797151D01*
X177797853Y-79244492D01*
X177423847Y-79804232D01*
X177371044Y-79883256D01*
X176827822Y-80426478D01*
X176189060Y-80853286D01*
X175479305Y-81147276D01*
X175228148Y-81197234D01*
X174725835Y-81297151D01*
X173957599Y-81297151D01*
X173455286Y-81197234D01*
X173204129Y-81147276D01*
X172494374Y-80853286D01*
X171855612Y-80426478D01*
X171312390Y-79883256D01*
X171259588Y-79804232D01*
X170885581Y-79244492D01*
X170700287Y-78797151D01*
X170591592Y-78534739D01*
X170444874Y-77797138D01*
X170441717Y-77781269D01*
X170441717Y-77013033D01*
X170591592Y-76259564D01*
X170885581Y-75549810D01*
X171312389Y-74911047D01*
X171855613Y-74367823D01*
X172172824Y-74155869D01*
X172494374Y-73941016D01*
X173204129Y-73647026D01*
X173455286Y-73597068D01*
X173957599Y-73497151D01*
X174725835Y-73497151D01*
X175228148Y-73597068D01*
X175228148Y-73597068D01*
G37*
G36*
X165728148Y-73597068D02*
G01*
X165979305Y-73647026D01*
X166689060Y-73941016D01*
X167010610Y-74155869D01*
X167327821Y-74367823D01*
X167871045Y-74911047D01*
X168297853Y-75549810D01*
X168591842Y-76259564D01*
X168741717Y-77013033D01*
X168741717Y-77781269D01*
X168738560Y-77797138D01*
X168591842Y-78534739D01*
X168483147Y-78797151D01*
X168297853Y-79244492D01*
X167923847Y-79804232D01*
X167871044Y-79883256D01*
X167327822Y-80426478D01*
X166689060Y-80853286D01*
X165979305Y-81147276D01*
X165728148Y-81197234D01*
X165225835Y-81297151D01*
X164457599Y-81297151D01*
X163955286Y-81197234D01*
X163704129Y-81147276D01*
X162994374Y-80853286D01*
X162355612Y-80426478D01*
X161812390Y-79883256D01*
X161759588Y-79804232D01*
X161385581Y-79244492D01*
X161200287Y-78797151D01*
X161091592Y-78534739D01*
X160944874Y-77797138D01*
X160941717Y-77781269D01*
X160941717Y-77013033D01*
X161091592Y-76259564D01*
X161385581Y-75549810D01*
X161812389Y-74911047D01*
X162355613Y-74367823D01*
X162672824Y-74155869D01*
X162994374Y-73941016D01*
X163704129Y-73647026D01*
X163955286Y-73597068D01*
X164457599Y-73497151D01*
X165225835Y-73497151D01*
X165728148Y-73597068D01*
X165728148Y-73597068D01*
G37*
G36*
X143728148Y-73597068D02*
G01*
X143979305Y-73647026D01*
X144689060Y-73941016D01*
X145010610Y-74155869D01*
X145327821Y-74367823D01*
X145871045Y-74911047D01*
X146297853Y-75549810D01*
X146591842Y-76259564D01*
X146741717Y-77013033D01*
X146741717Y-77781269D01*
X146738560Y-77797138D01*
X146591842Y-78534739D01*
X146483147Y-78797151D01*
X146297853Y-79244492D01*
X145923847Y-79804232D01*
X145871044Y-79883256D01*
X145327822Y-80426478D01*
X144689060Y-80853286D01*
X143979305Y-81147276D01*
X143728148Y-81197234D01*
X143225835Y-81297151D01*
X142457599Y-81297151D01*
X141955286Y-81197234D01*
X141704129Y-81147276D01*
X140994374Y-80853286D01*
X140355612Y-80426478D01*
X139812390Y-79883256D01*
X139759588Y-79804232D01*
X139385581Y-79244492D01*
X139200287Y-78797151D01*
X139091592Y-78534739D01*
X138944874Y-77797138D01*
X138941717Y-77781269D01*
X138941717Y-77013033D01*
X139091592Y-76259564D01*
X139385581Y-75549810D01*
X139812389Y-74911047D01*
X140355613Y-74367823D01*
X140672824Y-74155869D01*
X140994374Y-73941016D01*
X141704129Y-73647026D01*
X141955286Y-73597068D01*
X142457599Y-73497151D01*
X143225835Y-73497151D01*
X143728148Y-73597068D01*
X143728148Y-73597068D01*
G37*
G36*
X132228148Y-73597068D02*
G01*
X132479305Y-73647026D01*
X133189060Y-73941016D01*
X133510610Y-74155869D01*
X133827821Y-74367823D01*
X134371045Y-74911047D01*
X134797853Y-75549810D01*
X135091842Y-76259564D01*
X135241717Y-77013033D01*
X135241717Y-77781269D01*
X135238560Y-77797138D01*
X135091842Y-78534739D01*
X134983147Y-78797151D01*
X134797853Y-79244492D01*
X134423847Y-79804232D01*
X134371044Y-79883256D01*
X133827822Y-80426478D01*
X133189060Y-80853286D01*
X132479305Y-81147276D01*
X132228148Y-81197234D01*
X131725835Y-81297151D01*
X130957599Y-81297151D01*
X130455286Y-81197234D01*
X130204129Y-81147276D01*
X129494374Y-80853286D01*
X128855612Y-80426478D01*
X128312390Y-79883256D01*
X128259588Y-79804232D01*
X127885581Y-79244492D01*
X127700287Y-78797151D01*
X127591592Y-78534739D01*
X127444874Y-77797138D01*
X127441717Y-77781269D01*
X127441717Y-77013033D01*
X127591592Y-76259564D01*
X127885581Y-75549810D01*
X128312389Y-74911047D01*
X128855613Y-74367823D01*
X129172824Y-74155869D01*
X129494374Y-73941016D01*
X130204129Y-73647026D01*
X130455286Y-73597068D01*
X130957599Y-73497151D01*
X131725835Y-73497151D01*
X132228148Y-73597068D01*
X132228148Y-73597068D01*
G37*
G36*
X106228148Y-73597068D02*
G01*
X106479305Y-73647026D01*
X107189060Y-73941016D01*
X107510610Y-74155869D01*
X107827821Y-74367823D01*
X108371045Y-74911047D01*
X108797853Y-75549810D01*
X109091842Y-76259564D01*
X109241717Y-77013033D01*
X109241717Y-77781269D01*
X109238560Y-77797138D01*
X109091842Y-78534739D01*
X108983147Y-78797151D01*
X108797853Y-79244492D01*
X108423847Y-79804232D01*
X108371044Y-79883256D01*
X107827822Y-80426478D01*
X107189060Y-80853286D01*
X106479305Y-81147276D01*
X106228148Y-81197234D01*
X105725835Y-81297151D01*
X104957599Y-81297151D01*
X104455286Y-81197234D01*
X104204129Y-81147276D01*
X103494374Y-80853286D01*
X102855612Y-80426478D01*
X102312390Y-79883256D01*
X102259588Y-79804232D01*
X101885581Y-79244492D01*
X101700287Y-78797151D01*
X101591592Y-78534739D01*
X101444874Y-77797138D01*
X101441717Y-77781269D01*
X101441717Y-77013033D01*
X101591592Y-76259564D01*
X101885581Y-75549810D01*
X102312389Y-74911047D01*
X102855613Y-74367823D01*
X103172824Y-74155869D01*
X103494374Y-73941016D01*
X104204129Y-73647026D01*
X104455286Y-73597068D01*
X104957599Y-73497151D01*
X105725835Y-73497151D01*
X106228148Y-73597068D01*
X106228148Y-73597068D01*
G37*
G36*
X96728148Y-73597068D02*
G01*
X96979305Y-73647026D01*
X97689060Y-73941016D01*
X98010610Y-74155869D01*
X98327821Y-74367823D01*
X98871045Y-74911047D01*
X99297853Y-75549810D01*
X99591842Y-76259564D01*
X99741717Y-77013033D01*
X99741717Y-77781269D01*
X99738560Y-77797138D01*
X99591842Y-78534739D01*
X99483147Y-78797151D01*
X99297853Y-79244492D01*
X98923847Y-79804232D01*
X98871044Y-79883256D01*
X98327822Y-80426478D01*
X97689060Y-80853286D01*
X96979305Y-81147276D01*
X96728148Y-81197234D01*
X96225835Y-81297151D01*
X95457599Y-81297151D01*
X94955286Y-81197234D01*
X94704129Y-81147276D01*
X93994374Y-80853286D01*
X93355612Y-80426478D01*
X92812390Y-79883256D01*
X92759588Y-79804232D01*
X92385581Y-79244492D01*
X92200287Y-78797151D01*
X92091592Y-78534739D01*
X91944874Y-77797138D01*
X91941717Y-77781269D01*
X91941717Y-77013033D01*
X92091592Y-76259564D01*
X92385581Y-75549810D01*
X92812389Y-74911047D01*
X93355613Y-74367823D01*
X93672824Y-74155869D01*
X93994374Y-73941016D01*
X94704129Y-73647026D01*
X94955286Y-73597068D01*
X95457599Y-73497151D01*
X96225835Y-73497151D01*
X96728148Y-73597068D01*
X96728148Y-73597068D01*
G37*
G36*
X207895926Y-75070167D02*
G01*
X208039151Y-75129493D01*
X208241703Y-75213392D01*
X208552896Y-75421325D01*
X208817543Y-75685972D01*
X209025476Y-75997165D01*
X209168701Y-76342943D01*
X209241717Y-76710016D01*
X209241717Y-77084286D01*
X209168701Y-77451359D01*
X209025476Y-77797137D01*
X208817543Y-78108330D01*
X208552896Y-78372977D01*
X208241703Y-78580910D01*
X208039151Y-78664809D01*
X207895926Y-78724135D01*
X207712388Y-78760643D01*
X207528852Y-78797151D01*
X207154582Y-78797151D01*
X206971046Y-78760643D01*
X206787508Y-78724135D01*
X206644283Y-78664809D01*
X206441731Y-78580910D01*
X206130538Y-78372977D01*
X205865891Y-78108330D01*
X205657958Y-77797137D01*
X205514733Y-77451359D01*
X205441717Y-77084286D01*
X205441717Y-76710016D01*
X205514733Y-76342943D01*
X205657958Y-75997165D01*
X205865891Y-75685972D01*
X206130538Y-75421325D01*
X206441731Y-75213392D01*
X206644283Y-75129493D01*
X206787508Y-75070167D01*
X207154582Y-74997151D01*
X207528852Y-74997151D01*
X207895926Y-75070167D01*
X207895926Y-75070167D01*
G37*
G36*
X72395926Y-75070167D02*
G01*
X72539151Y-75129493D01*
X72741703Y-75213392D01*
X73052896Y-75421325D01*
X73317543Y-75685972D01*
X73525476Y-75997165D01*
X73668701Y-76342943D01*
X73741717Y-76710016D01*
X73741717Y-77084286D01*
X73668701Y-77451359D01*
X73525476Y-77797137D01*
X73317543Y-78108330D01*
X73052896Y-78372977D01*
X72741703Y-78580910D01*
X72539151Y-78664809D01*
X72395926Y-78724135D01*
X72212388Y-78760643D01*
X72028852Y-78797151D01*
X71654582Y-78797151D01*
X71471046Y-78760643D01*
X71287508Y-78724135D01*
X71144283Y-78664809D01*
X70941731Y-78580910D01*
X70630538Y-78372977D01*
X70365891Y-78108330D01*
X70157958Y-77797137D01*
X70014733Y-77451359D01*
X69941717Y-77084286D01*
X69941717Y-76710016D01*
X70014733Y-76342943D01*
X70157958Y-75997165D01*
X70365891Y-75685972D01*
X70630538Y-75421325D01*
X70941731Y-75213392D01*
X71144283Y-75129493D01*
X71287508Y-75070167D01*
X71654582Y-74997151D01*
X72028852Y-74997151D01*
X72395926Y-75070167D01*
X72395926Y-75070167D01*
G37*
M02*
